<svg width="44" height="60" viewBox="0 0 44 60" fill="none" xmlns="http://www.w3.org/2000/svg">
<path d="M15.9985 25.9995V37.9995H28.0023V25.9995H15.9985ZM30.0017 14.5665C30.3795 14.2999 30.811 14.1188 31.2659 14.0359C31.7209 13.953 32.1884 13.9703 32.636 14.0865C33.292 14.2512 33.8769 14.6243 34.3029 15.1497C34.7288 15.6752 34.9728 16.3246 34.9982 17.0005C34.9982 20.0808 32.4848 21.997 30.0017 21.997V14.5665Z" fill="#FDCE97"/>
<path d="M20.0013 0C17.6152 -2.10441e-07 15.3268 0.947593 13.6393 2.63443C11.9518 4.32126 11.0032 6.60923 11.0022 8.99527V13.9956H32.9991V8.99905C32.9991 6.61301 32.0515 4.32464 30.3646 2.6371C28.6778 0.949557 26.3898 0.00100212 24.0038 0H20.0013ZM13.0016 32.0013C11.2941 31.9998 9.60305 32.3349 8.0252 32.9875C6.44735 33.6402 5.01364 34.5975 3.80609 35.8047C2.59853 37.0119 1.64082 38.4453 0.987737 40.023C0.334653 41.6006 -0.000992043 43.2916 2.2024e-06 44.9991V58.9946C2.2024e-06 59.5465 0.445987 59.9962 0.997798 60H42.9997C43.5553 60 44.0013 59.5465 43.9975 58.9946V44.9991C43.9985 43.2916 43.6628 41.6006 43.0097 40.023C42.3567 38.4453 41.3989 37.0119 40.1914 35.8047C38.9838 34.5975 37.5501 33.6402 35.9723 32.9875C34.3944 32.3349 32.7034 31.9998 30.9959 32.0013H25.9994L22.0006 34.9984L17.9981 32.0013H13.0016Z" fill="#FF6B6B"/>
<path d="M13.9995 14.5662C13.6212 14.2991 13.1891 14.1177 12.7334 14.0348C12.2778 13.9519 11.8095 13.9694 11.3614 14.0862C10.706 14.2517 10.122 14.625 9.69679 15.1504C9.27159 15.6758 9.02814 16.3248 9.00293 17.0002C9.00293 20.0805 11.5163 21.9968 13.9995 21.9968V14.5662Z" fill="#FDCE97"/>
<path d="M13.0016 13.9956V21.0029C13.0498 23.3571 14.0189 25.5987 15.701 27.2466C17.383 28.8945 19.644 29.8175 21.9987 29.8175C24.3535 29.8175 26.6145 28.8945 28.2965 27.2466C29.9785 25.5987 30.9476 23.3571 30.9959 21.0029V13.9956H13.0016ZM0 53.9981V58.9947C0 59.5465 0.445985 59.9962 0.997796 60H42.9997C43.5553 60 44.0013 59.5465 43.9975 58.9947V53.9981H0Z" fill="#FDD5A6"/>
<path d="M9.99668 42.002C9.20301 42.0059 8.44298 42.323 7.88176 42.8842C7.32054 43.4454 7.00349 44.2054 6.99952 44.9991V58.9947C6.99851 59.2597 7.10255 59.5143 7.28886 59.7027C7.47517 59.8911 7.72856 59.9981 7.99353 60.0001H35.9961C36.1279 60.0001 36.2584 59.974 36.3802 59.9235C36.502 59.8729 36.6126 59.7988 36.7056 59.7054C36.7987 59.612 36.8724 59.5011 36.9225 59.3792C36.9726 59.2572 36.9981 59.1266 36.9976 58.9947V44.9991C36.9946 44.2058 36.6784 43.4458 36.1178 42.8844C35.5572 42.3231 34.7976 42.0059 34.0042 42.002H9.99668Z" fill="#E6B57C"/>
<path d="M15.001 42.002V51.001C15.001 51.2656 15.103 51.5226 15.292 51.7116L17.2914 53.7034C17.3844 53.7965 17.4949 53.8704 17.6165 53.9208C17.7381 53.9712 17.8684 53.9972 18 53.9972C18.1317 53.9972 18.262 53.9712 18.3836 53.9208C18.5052 53.8704 18.6157 53.7965 18.7087 53.7034L20.0013 52.4183L21.2901 53.7034C21.3831 53.7965 21.4936 53.8704 21.6152 53.9208C21.7368 53.9712 21.8671 53.9972 21.9988 53.9972C22.1304 53.9972 22.2607 53.9712 22.3823 53.9208C22.5039 53.8704 22.6144 53.7965 22.7074 53.7034L24 52.4183L25.2926 53.7034C25.3857 53.7965 25.4961 53.8704 25.6177 53.9208C25.7393 53.9712 25.8697 53.9972 26.0013 53.9972C26.1329 53.9972 26.2633 53.9712 26.3849 53.9208C26.5065 53.8704 26.6169 53.7965 26.71 53.7034L28.7131 51.7116C28.8979 51.5215 28.9998 51.266 28.9966 51.001V42.0057L15.001 42.002Z" fill="#FDD5A6"/>
<path d="M15.9915 29.998C15.8604 29.9992 15.7309 30.0262 15.6103 30.0774C15.4896 30.1286 15.3803 30.2031 15.2885 30.2966L13.2891 32.296C12.9867 32.5984 12.9111 33.0632 13.1039 33.4488L16.1011 39.4469C16.3656 39.9684 17.0119 40.1536 17.5108 39.8551L22.5187 36.8579C22.6551 36.7754 22.7699 36.6616 22.8535 36.5258C22.9371 36.3901 22.987 36.2363 22.9992 36.0774C23.0114 35.9184 22.9855 35.7589 22.9236 35.612C22.8617 35.465 22.7657 35.335 22.6434 35.2327L16.6415 30.2286C16.4586 30.0783 16.2282 29.9979 15.9915 30.0018V29.998Z" fill="#E86262"/>
<path d="M27.9837 29.9982C27.7569 30.002 27.5377 30.0814 27.3601 30.225L21.3582 35.2366C21.236 35.339 21.1399 35.469 21.078 35.6159C21.0161 35.7628 20.9902 35.9224 21.0024 36.0813C21.0146 36.2403 21.0646 36.394 21.1481 36.5298C21.2317 36.6655 21.3465 36.7794 21.4829 36.8618L26.487 39.859C26.6048 39.9286 26.7357 39.9734 26.8714 39.9904C27.0072 40.0075 27.1451 39.9966 27.2765 39.9584C27.4079 39.9201 27.53 39.8553 27.6354 39.768C27.7408 39.6808 27.8272 39.5728 27.8892 39.4508L30.8939 33.4527C30.987 33.2649 31.0188 33.0527 30.9849 32.8459C30.951 32.6391 30.8531 32.4482 30.705 32.3L28.7094 30.2968C28.6149 30.2019 28.5023 30.1269 28.3783 30.0763C28.2543 30.0256 28.1214 30.0004 27.9875 30.002L27.9837 29.9982ZM22.0007 11.0023C15.7758 11.0023 11.5541 13.1037 11.5541 13.1037C11.3391 13.2114 11.17 13.3928 11.0777 13.6149C10.9854 13.837 10.9761 14.0848 11.0514 14.3132C11.0514 14.3132 11.3311 15.1787 11.9169 16.0555C12.499 16.9324 13.5043 17.9982 15.001 17.9982H28.9966C30.4971 17.9982 31.4987 16.9324 32.0845 16.0555C32.6703 15.1787 32.9462 14.317 32.9462 14.317C33.0226 14.0881 33.0138 13.8394 32.9215 13.6165C32.8291 13.3936 32.6594 13.2115 32.4436 13.1037C32.4436 13.1037 28.2218 10.9985 22.0007 10.9985V11.0023Z" fill="#E86262"/>
</svg>
