<svg width="66" height="60" viewBox="0 0 66 60" fill="none" xmlns="http://www.w3.org/2000/svg">
<path fill-rule="evenodd" clip-rule="evenodd" d="M31.0949 43.6311C22.062 73.4195 15.6021 58.1567 14.8394 32.788C1.02559 14.9339 13.0439 -8.04418 32.3468 7.51069C51.6461 -8.04406 63.668 14.9341 49.8505 32.7881C49.0876 58.1567 42.6279 73.4195 33.595 43.6312C33.4271 43.0692 32.9307 42.7005 32.3468 42.7005C31.7592 42.7005 31.2665 43.0691 31.0949 43.6311Z" fill="#E7ECED"/>
<path d="M33.8283 6.38672C35.237 7.45611 36.6786 8.29908 38.1422 8.93784C39.9049 9.7116 41.7078 10.1933 43.54 10.4379L43.3065 12.2226C41.3102 11.9562 39.3467 11.4307 37.4233 10.5876C35.697 9.83211 34.0035 8.82114 32.3467 7.51097C32.8465 7.10562 33.3392 6.73709 33.8283 6.38672Z" fill="#D7DADB"/>
<path fill-rule="evenodd" clip-rule="evenodd" d="M57.1426 41.5986L59.0296 45.3432L62.7741 47.23L59.0296 49.1133L57.1426 52.8578L55.2558 49.1133L51.5112 47.23L55.2558 45.3432L57.1426 41.5986Z" fill="#B2CAEC"/>
<path fill-rule="evenodd" clip-rule="evenodd" d="M23.3687 59.4924C18.5366 62.7042 15.3614 50.102 14.8395 32.788C3.79939 18.518 9.25924 0.981453 21.7483 2.44858C11.3505 3.76979 7.54753 19.6603 17.7045 32.788C18.1132 46.4012 20.1643 57.102 23.3687 59.4924Z" fill="#D7DADB"/>
<path d="M52.1571 5.80307L52.5659 5.71544C55.5221 5.0622 58.0805 4.8359 60.0695 5.07312C62.179 5.32494 63.7045 6.0987 64.4819 7.44544C65.2448 8.76297 65.179 10.4199 64.3908 12.3068C63.6499 14.0878 62.2484 16.1133 60.2958 18.2776L59.6936 18.9492L58.3578 17.7448L58.96 17.0733C60.7775 15.0587 62.0658 13.2046 62.7301 11.6171C63.2958 10.2594 63.387 9.14267 62.9272 8.34708C62.4528 7.52951 61.3907 7.04415 59.8578 6.86166C58.1607 6.66089 55.9527 6.84706 53.3651 7.38359C53.0002 6.8176 52.5988 6.28842 52.1571 5.80307ZM40.5695 31.471L41.3359 31.0038L42.2739 32.5367L41.5038 33.0075C41.2089 33.1858 40.9121 33.361 40.6133 33.5329C37.3141 35.4381 29.6425 39.4672 22.241 42.1278C14.5403 44.9016 7.08048 46.157 4.6279 42.1315L4.57317 42.0366C3.64982 40.4418 3.95269 38.3286 5.2739 35.9053C6.53302 33.595 8.74101 30.9417 11.6937 28.157L11.8141 28.0439C12.0914 28.5877 12.3944 29.1279 12.7156 29.668C10.0003 32.2519 7.98567 34.6789 6.85062 36.7628C5.83965 38.6205 5.5477 40.1314 6.12804 41.1351V41.1388C6.13897 41.1607 6.12804 41.1351 6.16449 41.1972C8.0258 44.252 14.6682 42.9454 21.6353 40.4381C28.9017 37.825 36.4565 33.8578 39.712 31.9782C39.9998 31.8126 40.2857 31.6435 40.5695 31.471Z" fill="#45DECC"/>
<path fill-rule="evenodd" clip-rule="evenodd" d="M51.8977 39.2303C58.5839 39.2303 64.0364 33.7777 64.0364 27.0916C64.0364 20.4055 58.5838 14.9492 51.8977 14.9492C45.2117 14.9492 39.7554 20.4054 39.7554 27.0916C39.7554 33.7778 45.2115 39.2303 51.8977 39.2303Z" fill="#2CBFAE"/>
<path fill-rule="evenodd" clip-rule="evenodd" d="M49.8212 19.9014H53.9745V25.0145H59.084V29.1678H53.9745V34.2809H49.8212V29.1678H44.708V25.0145H49.8212V19.9014Z" fill="#F1EFF0"/>
<path fill-rule="evenodd" clip-rule="evenodd" d="M9.14233 0L12.2043 6.08033L18.2847 9.14233L12.2043 12.2043L9.14233 18.2847L6.08033 12.2043L0 9.14233L6.08033 6.08033L9.14233 0Z" fill="#B2CAEC"/>
</svg>
