<svg width="61" height="60" viewBox="0 0 61 60" fill="none" xmlns="http://www.w3.org/2000/svg">
<path fill-rule="evenodd" clip-rule="evenodd" d="M36.9822 7.9491L40.5586 3.64404C40.8581 3.28406 40.6549 2.7175 40.2484 2.48583L36.6827 0.425817C36.2797 0.194151 35.6843 0.301047 35.5239 0.739401L33.5806 5.98533C33.4165 6.42368 33.4879 6.91187 33.8909 7.14354L35.8235 8.26257C36.2299 8.49435 36.6862 8.30897 36.9822 7.9491Z" fill="#80D261"/>
<path fill-rule="evenodd" clip-rule="evenodd" d="M56.9574 9.07498L56.0409 6.50192C55.9304 6.18833 55.8876 5.92103 56.016 5.63953L57.2105 3.04149C57.4637 2.53542 57.4067 2.41787 56.8361 2.42853L53.9158 2.48558C53.5842 2.48913 53.5414 2.41077 53.3239 2.20053L51.32 0.258062C50.9135 -0.134006 50.7423 -0.087602 50.5855 0.454096L49.8224 3.13761C49.7368 3.42989 49.7404 3.51891 49.4515 3.67931L46.8914 5.09061C46.3957 5.36501 46.4028 5.49689 46.8771 5.81047L49.2127 7.46054C49.4622 7.6387 49.5586 7.89535 49.6192 8.22325L50.1148 10.9068C50.2004 11.4699 50.3323 11.5055 50.7852 11.1634L52.9282 9.51334C53.1493 9.34228 53.5451 9.23538 53.8231 9.27457L56.501 9.63101C57.0679 9.70215 57.1607 9.60591 56.9574 9.07498Z" fill="#FECE85"/>
<path fill-rule="evenodd" clip-rule="evenodd" d="M24.7979 25.5181C30.4424 18.2337 28.9804 11.0491 27.9286 6.76536C26.752 1.97566 20.0912 3.11244 21.4532 8.18021C22.769 13.0769 23.2432 16.8011 21.9097 23.6899L24.7979 25.5181Z" fill="#FE76A8"/>
<path fill-rule="evenodd" clip-rule="evenodd" d="M31.6905 31.6984L46.7556 19.1894C47.2442 18.7012 47.2442 17.9028 46.7556 17.4146L42.8333 13.498C42.3448 13.0098 41.5461 13.0098 41.0576 13.498L28.542 28.5515L31.6905 31.6984Z" fill="#FECE85"/>
<path fill-rule="evenodd" clip-rule="evenodd" d="M51.7479 39.8308C56.7434 41.4452 58.216 34.8557 53.4879 33.4373C49.2946 32.1793 42.2701 30.376 34.7715 35.4901L36.6648 38.5336C43.3649 37.6319 47.0126 38.2984 51.7479 39.8308Z" fill="#FE76A8"/>
<path fill-rule="evenodd" clip-rule="evenodd" d="M24.7982 25.5183C30.4427 18.2339 28.9807 11.0493 27.9289 6.76559C27.2657 4.0571 24.841 3.241 23.1116 3.96441C23.9745 4.43129 24.7055 5.29723 25.0264 6.60519C26.0213 10.6608 27.3869 17.3216 22.7266 24.2068L24.7982 25.5183Z" fill="#FE5694"/>
<path fill-rule="evenodd" clip-rule="evenodd" d="M31.6905 31.6981L46.7557 19.1891C47.2442 18.7009 47.2442 17.9026 46.7557 17.4144L46.0567 16.7158L30.0254 30.0303L31.6905 31.6981Z" fill="#FDB440"/>
<path fill-rule="evenodd" clip-rule="evenodd" d="M51.7476 39.8306C56.6077 41.4022 58.1338 35.2083 53.8621 33.5654C53.8121 35.3402 52.3574 36.9796 49.626 36.4735C45.0191 35.6182 41.4641 35.4008 35.6128 36.8442L36.6647 38.5334C43.3647 37.6317 47.0124 38.2982 51.7476 39.8306Z" fill="#FE5694"/>
<path fill-rule="evenodd" clip-rule="evenodd" d="M8.11775 24.6305L7.43672 17.3247C7.37966 16.7188 6.66655 16.3803 6.07466 16.5407L0.861528 17.9378C0.269637 18.0946 -0.183277 18.7432 0.0734847 19.2991L3.13995 25.9635C3.39671 26.5194 3.91012 26.9079 4.50201 26.751L7.32959 25.992C7.9216 25.8351 8.17481 25.2399 8.11775 24.6305Z" fill="#80D261"/>
<path fill-rule="evenodd" clip-rule="evenodd" d="M13.2311 8.20901L15.7663 6.41641C16.2797 6.07429 16.287 5.93177 15.7485 5.63594L12.9708 4.10354C12.657 3.92893 12.6606 3.83269 12.5679 3.51555L11.7371 0.603923C11.5695 0.0123875 11.3841 -0.037568 10.9419 0.390132L8.76687 2.4962C8.52798 2.72786 8.48513 2.81333 8.12502 2.80623L4.95154 2.74562C4.33467 2.73141 4.27051 2.85962 4.54858 3.41209L5.84648 6.23103C5.98558 6.53396 5.93917 6.82623 5.81795 7.16834L4.8231 9.95875C4.60197 10.5325 4.70544 10.6394 5.31875 10.5611L8.22482 10.1727C8.52786 10.1335 8.9558 10.2475 9.19824 10.4329L11.5195 12.2255C12.0116 12.5961 12.1543 12.5569 12.2505 11.9475L12.7853 9.03588C12.8532 8.67944 12.9565 8.40149 13.2311 8.20901Z" fill="#FECE85"/>
<path fill-rule="evenodd" clip-rule="evenodd" d="M59.3643 24.4601L60.598 17.2291C60.7015 16.6268 60.0988 16.1172 59.4855 16.1172H54.087C53.4772 16.1172 52.8711 16.6268 52.9745 17.2291L54.2118 24.4601C54.3152 25.0624 54.711 25.572 55.3243 25.572H58.2518C58.8614 25.572 59.2608 25.0624 59.3643 24.4601Z" fill="#80D261"/>
<path fill-rule="evenodd" clip-rule="evenodd" d="M58.2909 50.6859L60.2806 48.2945C60.6906 47.8312 60.6586 47.6922 60.0595 47.5426L56.9751 46.7799C56.6257 46.6943 56.6042 46.6017 56.4332 46.3166L54.875 43.715C54.5611 43.1875 54.3687 43.1875 54.0513 43.715L52.4931 46.3166C52.3219 46.6016 52.3005 46.6943 51.9511 46.7799L48.8668 47.5426C48.2678 47.6922 48.2393 47.8313 48.6493 48.2945L50.6355 50.6859C50.8494 50.9425 50.8779 51.2382 50.8494 51.5982L50.6141 54.5561C50.5463 55.1691 50.6747 55.2439 51.2488 55.0123L53.9587 53.8826C54.244 53.765 54.6862 53.765 54.9678 53.8826L57.6812 55.0123C58.2517 55.2439 58.3801 55.1691 58.316 54.5561L58.0771 51.5982C58.0484 51.2382 58.077 50.9424 58.2909 50.6859Z" fill="#FECE85"/>
<path fill-rule="evenodd" clip-rule="evenodd" d="M44.7303 54.7161L39.2141 50.8102C38.7541 50.4823 38.1622 50.4111 37.7629 50.8102L35.8588 52.7133C35.4594 53.1125 35.5308 53.704 35.8588 54.1638L39.7668 59.677C40.0913 60.1368 40.8152 60.0762 41.2145 59.677L44.7303 56.1631C45.1297 55.7639 45.1903 55.0404 44.7303 54.7161ZM36.6718 34.3276C35.7162 32.9734 34.6144 31.5977 33.427 30.2578C32.9066 29.6705 32.3741 29.0943 31.8296 28.5294C31.8219 28.5181 31.8122 28.5085 31.801 28.5008C31.2079 27.9262 30.6015 27.3653 29.9825 26.8187C28.6917 25.6818 27.3724 24.6269 26.0674 23.7004H26.0638C25.3293 23.1765 24.6019 22.6989 23.8888 22.2713C23.3716 21.9593 22.8435 21.6657 22.3056 21.391C18.6329 19.5307 15.5521 19.2955 14.4075 22.0503C14.3825 22.1073 14.1828 22.649 14.0295 22.984L12.867 26.2484L10.9131 31.7367L8.08552 39.6805L5.86404 45.9314L3.38579 52.8879C2.77603 54.6057 2.96152 55.8851 3.74945 56.5373C4.40195 57.3248 5.68209 57.5102 7.4007 56.9008L14.361 54.424L20.6153 52.2037L28.5633 49.3776L34.0545 47.4246L37.3206 46.2629C37.6558 46.1096 38.1978 45.9101 38.2549 45.8851C40.9398 44.7732 40.7865 41.8153 39.05 38.2657C38.7434 37.6349 38.3832 36.9863 37.9839 36.3235C37.5882 35.6678 37.1496 35.0013 36.6753 34.3313C36.6718 34.3312 36.6718 34.3276 36.6718 34.3276Z" fill="#80D261"/>
<path fill-rule="evenodd" clip-rule="evenodd" d="M33.427 30.2581C32.9067 29.6708 32.3741 29.0945 31.8296 28.5296C31.8219 28.5184 31.8122 28.5087 31.801 28.5011C31.2079 27.9265 30.6016 27.3656 29.9825 26.8189C29.9469 26.7904 29.9148 26.7583 29.8791 26.7298C28.6595 25.6606 27.4116 24.6628 26.1778 23.779C26.1422 23.754 26.1029 23.7255 26.0673 23.7006H26.0637C25.357 23.1958 24.6315 22.718 23.8887 22.268C23.3609 21.9544 22.8332 21.6586 22.3055 21.3913C20.7937 20.625 19.378 20.1368 18.1621 20.0156C19.4993 20.8032 20.8328 21.737 22.0916 22.7206C22.4467 22.9965 22.7974 23.278 23.1435 23.5652C23.5999 23.9394 24.0384 24.3171 24.4628 24.6913C24.6554 24.8588 24.8443 25.0299 25.0369 25.2009V25.2045C25.4586 25.5855 25.8734 25.974 26.2813 26.3698L26.3134 26.3983C28.0499 28.198 29.7614 30.2259 31.1556 32.2002C32.015 33.4048 32.9065 34.8552 33.5304 36.1346C35.2669 39.6877 35.4202 42.6421 32.7353 43.7575C32.7246 43.7611 32.6926 43.7718 32.6497 43.7896C33.3307 45.0904 33.8193 46.32 34.0546 47.4247L37.3208 46.2629C37.6559 46.1096 38.198 45.9101 38.255 45.8852C40.94 44.7732 40.7867 41.8153 39.0502 38.2657C39.0397 38.2413 39.0278 38.2175 39.0145 38.1945C38.7186 37.5922 38.3656 36.9542 37.9841 36.3235C37.952 36.27 37.9163 36.2166 37.8843 36.1596C37.8843 36.1596 37.8807 36.156 37.8807 36.1525C37.4997 35.532 37.0977 34.9246 36.6755 34.3313C36.6719 34.3313 36.6719 34.3278 36.6719 34.3278C35.7912 33.0769 34.7857 31.8118 33.7053 30.5715C33.6133 30.4663 33.5205 30.3618 33.427 30.2581Z" fill="#4FC122"/>
<path fill-rule="evenodd" clip-rule="evenodd" d="M34.0546 47.4252C33.2915 43.8258 29.8256 38.8828 25.6929 34.6062C21.4141 30.4757 16.4685 27.0117 12.867 26.249L10.9131 31.7373C14.0937 33.1913 17.8021 35.9889 21.1146 39.1821C24.3095 42.4929 27.1085 46.1992 28.5634 49.3781L34.0546 47.4252Z" fill="#FECE85"/>
<path fill-rule="evenodd" clip-rule="evenodd" d="M20.6154 52.2038L28.5634 49.3777C28.0677 48.2908 27.4117 47.1432 26.6379 45.9707L18.2441 48.9536C19.1142 50.0405 19.9165 51.131 20.6154 52.2038Z" fill="#4FC122"/>
<path fill-rule="evenodd" clip-rule="evenodd" d="M34.0549 47.4251C33.8196 46.3203 33.331 45.0908 32.65 43.79C32.4682 43.8578 32.0688 44.011 31.8014 44.1357L26.6382 45.971C27.4119 47.1436 28.0681 48.2911 28.5637 49.3781L34.0549 47.4251Z" fill="#FDB440"/>
<path fill-rule="evenodd" clip-rule="evenodd" d="M20.6157 52.2039C19.1146 49.9052 17.1498 47.5068 15.0068 45.2866C12.7854 43.1448 10.3857 41.1811 8.08574 39.6807L5.86426 45.9316C7.40826 47.1113 8.9557 48.4476 10.4248 49.866C11.8439 51.3343 13.1811 52.881 14.3613 54.4242L20.6157 52.2039Z" fill="#FECE85"/>
<path fill-rule="evenodd" clip-rule="evenodd" d="M14.3612 54.4241C13.5517 53.3657 12.6674 52.3036 11.7333 51.2666L3.04007 54.3564C2.94738 55.34 3.20414 56.0884 3.74963 56.5374C4.40213 57.325 5.68227 57.5103 7.40088 56.9009L14.3612 54.4241Z" fill="#4FC122"/>
<path fill-rule="evenodd" clip-rule="evenodd" d="M20.6153 52.2042C19.9164 51.1315 19.1142 50.041 18.2441 48.954L11.7331 51.2669C12.6673 52.304 13.5516 53.366 14.3609 54.4244L20.6153 52.2042ZM13.2308 8.20901L15.766 6.41641C16.2794 6.07429 16.2866 5.93177 15.7481 5.63594L12.9705 4.10353C12.6567 3.92893 12.6602 3.83269 12.5675 3.51555L11.7367 0.603923C11.5691 0.0123875 11.3837 -0.037568 10.9416 0.390132L9.98237 1.32023C10.371 2.58178 10.585 3.97166 10.585 5.42925C10.585 7.35728 10.2106 9.16408 9.55811 10.7108L11.5193 12.2255C12.0114 12.5961 12.154 12.5569 12.2503 11.9475L12.7851 9.03588C12.8528 8.67944 12.9561 8.40149 13.2308 8.20901Z" fill="#FDB440"/>
<path fill-rule="evenodd" clip-rule="evenodd" d="M8.1179 24.6308L7.43687 17.3249C7.37981 16.7191 6.6667 16.3805 6.07481 16.5409L4.87671 16.8616C5.00858 17.635 5.07641 18.444 5.07641 19.2743C5.07641 21.9044 4.38106 24.3064 3.23291 26.1382C3.50743 26.598 3.97455 26.8901 4.50228 26.7512L7.32986 25.9921C7.92175 25.8354 8.17496 25.2402 8.1179 24.6308ZM40.5587 3.6435C40.8582 3.28352 40.655 2.71696 40.2484 2.48529L36.6828 0.425395C36.4689 0.305834 36.2166 0.275096 35.9803 0.339808C36.4189 1.66552 36.6614 3.14099 36.6614 4.69837C36.6614 5.98846 36.4937 7.22515 36.1871 8.36549C36.4831 8.36904 36.7719 8.20509 36.9823 7.94856L40.5587 3.6435Z" fill="#4FC122"/>
<path fill-rule="evenodd" clip-rule="evenodd" d="M56.041 6.50203C55.9305 6.18845 55.8877 5.92115 56.0161 5.63965L57.2106 3.0416C57.4638 2.53553 57.4068 2.41798 56.8362 2.42864L53.9159 2.4857C53.5843 2.48925 53.5415 2.41088 53.324 2.20064L52.2258 1.13867C52.3899 1.99395 52.4754 2.89209 52.4754 3.81863C52.4754 6.74814 51.609 9.39602 50.2183 11.2849C50.3145 11.4559 50.475 11.3989 50.7852 11.1636L52.9282 9.51357C53.1493 9.34251 53.545 9.23562 53.8231 9.2748L56.5009 9.63124C57.0679 9.7025 57.1605 9.60626 56.9574 9.07533L56.041 6.50203Z" fill="#FDB440"/>
<path fill-rule="evenodd" clip-rule="evenodd" d="M59.3642 24.4601L60.598 17.2291C60.7014 16.6268 60.0988 16.1172 59.4854 16.1172H57.1356C57.1784 16.5662 57.1998 17.026 57.1998 17.4929C57.1998 20.6183 56.2156 23.4195 54.6611 25.3261C54.8393 25.4794 55.0605 25.5719 55.3243 25.5719H58.2518C58.8613 25.572 59.2608 25.0624 59.3642 24.4601ZM41.2147 59.6776L44.7306 56.1637C45.13 55.7645 45.1906 55.0411 44.7306 54.7168L39.4355 50.9676C39.7458 52.1116 39.9133 53.3482 39.9133 54.6419C39.9133 56.1779 39.6744 57.6355 39.25 58.947L39.7671 59.6776C40.0914 60.1374 40.8153 60.0768 41.2147 59.6776Z" fill="#4FC122"/>
<path fill-rule="evenodd" clip-rule="evenodd" d="M58.2907 50.6859L60.2804 48.2945C60.6904 47.8312 60.6584 47.6922 60.0592 47.5426L56.9749 46.7799C56.6255 46.6943 56.604 46.6017 56.433 46.3166L54.8748 43.715C54.5609 43.1875 54.3685 43.1875 54.0511 43.715L53.5519 44.5489C54.044 45.9388 54.3185 47.5033 54.3185 49.1605C54.3185 50.9495 53.9976 52.6352 53.4307 54.1035L53.9584 53.8825C54.2437 53.7649 54.6858 53.7649 54.9674 53.8825L57.6809 55.0121C58.2514 55.2438 58.3798 55.169 58.3157 54.556L58.0768 51.5981C58.0482 51.2382 58.0768 50.9424 58.2907 50.6859Z" fill="#FDB440"/>
</svg>
