<svg width="60" height="60" viewBox="0 0 60 60" fill="none" xmlns="http://www.w3.org/2000/svg">
<path d="M51.5378 15.2121C51.071 15.2121 50.5885 15.0267 50.259 14.6971L45.3031 9.74121C44.9735 9.41157 44.7881 8.96532 44.7881 8.49844C44.7881 8.03157 44.9735 7.54911 45.3031 7.21958L50.259 2.26196C50.9182 1.60278 52.0855 1.60278 52.7446 2.26196L57.7382 7.25555C58.0679 7.5852 58.2533 8.03145 58.2533 8.49832C58.2533 8.9652 58.0679 9.41157 57.7382 9.7411L52.7806 14.697C52.6175 14.8603 52.4238 14.9899 52.2105 15.0783C51.9973 15.1667 51.7687 15.2122 51.5378 15.2121Z" fill="#C5C9F7"/>
<path d="M23.4028 44.0537L15.9453 36.5959L36.5968 15.9451L44.0544 23.4029L23.4028 44.0537Z" fill="#C5C9F7"/>
<path d="M8.50579 58.2446C8.27492 58.2449 8.04628 58.1995 7.833 58.1111C7.61972 58.0227 7.42601 57.8931 7.26302 57.7295L2.26943 52.7376C1.93979 52.408 1.75439 51.9617 1.75439 51.4948C1.75439 51.028 1.93979 50.5816 2.26943 50.2521L7.22705 45.2962C7.91365 44.6096 9.02611 44.6096 9.71271 45.2962L14.7047 50.2881C15.3913 50.9748 15.3913 52.0872 14.7047 52.7738L9.7488 57.7297C9.58573 57.8931 9.39197 58.0228 9.17866 58.1111C8.96535 58.1995 8.73668 58.2448 8.50579 58.2446Z" fill="#C5C9F7"/>
<path d="M7.26316 57.7294C7.60652 58.0727 8.05629 58.2444 8.50593 58.2444C8.95558 58.2444 9.40547 58.0727 9.74871 57.7294L14.7046 52.7735C15.3912 52.0869 15.3912 50.9745 14.7046 50.2879L12.2086 47.7919L4.7666 55.2339L7.26316 57.7294ZM50.2593 14.6971C50.589 15.0267 51.0713 15.2121 51.5382 15.2121C52.0051 15.2121 52.4514 15.0267 52.781 14.6971L57.7386 9.74125C58.0682 9.4116 58.2536 8.96535 58.2536 8.49847C58.2536 8.0316 58.0682 7.58523 57.7386 7.2557L55.2418 4.75879L47.7814 12.2192L50.2593 14.6971Z" fill="#A8AFF1"/>
<path d="M19.6753 40.3262L40.3261 19.6746L44.0546 23.4029L23.4037 44.0545L19.6753 40.3262Z" fill="#A8AFF1"/>
<path d="M55.2413 27.1318L32.8682 4.75863L36.5971 1.02973C37.97 -0.343242 40.196 -0.343242 41.5689 1.02973L58.9702 18.4311C60.3432 19.8041 60.3432 22.0301 58.9702 23.4029L55.2413 27.1318Z" fill="#1689FC"/>
<path d="M50.2696 34.5892L25.4104 9.73003C24.7239 9.04355 24.7239 7.93062 25.4104 7.24414L27.8963 4.75824C29.2692 3.38527 31.4952 3.38527 32.8681 4.75824L55.2414 27.1315C56.6143 28.5045 56.6143 30.7305 55.2414 32.1033L52.7555 34.5892C52.069 35.2757 50.9561 35.2757 50.2696 34.5892Z" fill="#17ACE8"/>
<path d="M4.75863 32.8682L27.1319 55.2415L23.403 58.9704C22.0301 60.3433 19.8041 60.3433 18.4312 58.9704L1.02973 41.5689C-0.343242 40.1959 -0.343242 37.9699 1.02973 36.5971L4.75863 32.8682Z" fill="#1689FC"/>
<path d="M9.73052 25.4104L34.5897 50.2696C35.2762 50.956 35.2762 52.069 34.5897 52.7555L32.1038 55.2414C30.7309 56.6143 28.5049 56.6143 27.132 55.2414L4.75873 32.8682C3.38576 31.4952 3.38576 29.2692 4.75873 27.8964L7.24463 25.4105C7.93111 24.7239 9.04404 24.7239 9.73052 25.4104Z" fill="#17ACE8"/>
<path d="M18.4312 58.97C19.804 60.3429 22.03 60.3429 23.403 58.97L27.1319 55.2411L15.9458 44.0548L9.73096 50.2696L18.4312 58.97ZM44.0553 15.9453L55.2414 27.1316L58.9703 23.4027C60.3431 22.0299 60.3431 19.8039 58.9703 18.4309L50.2701 9.73047L44.0553 15.9453Z" fill="#136EF1"/>
<path d="M27.1319 55.2413C28.5048 56.6141 30.7307 56.6141 32.1038 55.2413L34.5897 52.7552C35.2762 52.0687 35.2762 50.9557 34.5897 50.2693L22.1606 37.8403L15.9458 44.0551L27.1319 55.2413ZM50.2697 34.5896C50.9562 35.2761 52.0692 35.2761 52.7556 34.5896L55.2415 32.1035C56.6144 30.7306 56.6144 28.5046 55.2415 27.1317L44.0554 15.9453L37.8406 22.1601L50.2697 34.5896Z" fill="#1689FC"/>
</svg>
