<svg width="71" height="60" viewBox="0 0 71 60" fill="none" xmlns="http://www.w3.org/2000/svg">
<path d="M60.4025 54.3046C60.1269 54.3046 59.8626 54.1951 59.6677 54.0002C59.4728 53.8053 59.3633 53.541 59.3633 53.2653V21.9631C59.3633 21.3891 59.8285 20.9238 60.4025 20.9238C60.9766 20.9238 61.4418 21.3891 61.4418 21.9631V53.2653C61.4418 53.541 61.3323 53.8053 61.1374 54.0002C60.9425 54.1951 60.6782 54.3046 60.4025 54.3046Z" fill="#4C6B7F"/>
<path d="M65.7837 57.8613H54.9346V52.8715C54.9346 52.0836 55.5734 51.4448 56.3613 51.4448H64.357C65.1449 51.4448 65.7837 52.0836 65.7837 52.8715V57.8613Z" fill="#CD795E"/>
<path d="M64.3562 51.4448H60.0737C60.8622 51.4448 61.5013 52.0832 61.5013 52.8707V57.8611H65.7838V52.8707C65.7836 52.0834 65.1445 51.4448 64.3562 51.4448Z" fill="#BE6454"/>
<path d="M7.78076 49.1597H46.3235V57.861H7.78076V49.1597Z" fill="#CD795E"/>
<path d="M42.04 49.1597H46.3225V57.8611H42.04V49.1597Z" fill="#BE6454"/>
<path d="M14.7739 5.95996H39.0413V19.0782H14.7739V5.95996Z" fill="#51C4F5"/>
<path d="M0 55.7222H70.9468V59.9998H0V55.7222Z" fill="#4C6B7F"/>
<path d="M66.665 55.7222H70.9475V59.9998H66.665V55.7222Z" fill="#3B5366"/>
<path d="M43.2315 45.5514H10.8704C9.00578 45.5514 7.49414 44.0397 7.49414 42.1752V31.1521C7.49414 29.2875 9.00578 27.7759 10.8704 27.7759H43.2315C45.0961 27.7759 46.6077 29.2875 46.6077 31.1521V42.1752C46.6077 44.0399 45.0962 45.5514 43.2315 45.5514Z" fill="#FFB06A"/>
<path d="M43.2938 27.7759H39.0112C40.8417 27.7759 42.3256 29.3156 42.3256 31.2151V42.1123C42.3256 44.0118 40.8417 45.5515 39.0112 45.5515H43.2937C45.1242 45.5515 46.6081 44.0118 46.6081 42.1123V31.2151C46.6081 29.3156 45.1243 27.7759 43.2938 27.7759Z" fill="#FF9242"/>
<path d="M66.6763 23.7834H53.754C53.672 23.7834 53.591 23.7652 53.5168 23.7301C53.4427 23.695 53.3773 23.6439 53.3253 23.5805C53.2733 23.517 53.236 23.4428 53.2162 23.3632C53.1963 23.2837 53.1944 23.2007 53.2105 23.1202L55.8457 9.97026C55.8708 9.84466 55.9387 9.73166 56.0378 9.65046C56.1369 9.56927 56.261 9.5249 56.3891 9.5249H64.0413C64.1694 9.5249 64.2935 9.56927 64.3926 9.65046C64.4917 9.73166 64.5596 9.84466 64.5847 9.97026L67.2199 23.1202C67.2359 23.2007 67.234 23.2837 67.2141 23.3632C67.1942 23.4428 67.157 23.517 67.105 23.5804C67.053 23.6438 66.9875 23.695 66.9134 23.7301C66.8393 23.7652 66.7583 23.7834 66.6763 23.7834Z" fill="#FFD65C"/>
<path d="M64.0409 9.5249H60.2603L63.1175 23.7834H66.6761C66.7581 23.7834 66.8391 23.7652 66.9133 23.7301C66.9874 23.695 67.0528 23.6439 67.1048 23.5805C67.1568 23.517 67.1941 23.4428 67.2139 23.3632C67.2337 23.2837 67.2357 23.2007 67.2196 23.1202L64.5844 9.97026C64.5592 9.84466 64.4913 9.73166 64.3923 9.65046C64.2932 9.56927 64.169 9.5249 64.0409 9.5249Z" fill="#FFB254"/>
<path d="M18.6288 35.0929H17.9551V34.4211C17.9551 34.1455 17.8456 33.8811 17.6507 33.6862C17.4558 33.4913 17.1914 33.3818 16.9158 33.3818C16.6402 33.3818 16.3758 33.4913 16.1809 33.6862C15.986 33.8811 15.8766 34.1455 15.8766 34.4211V35.0929H15.2028C14.9272 35.0929 14.6629 35.2024 14.468 35.3973C14.2731 35.5922 14.1636 35.8565 14.1636 36.1321C14.1636 36.4078 14.2731 36.6721 14.468 36.867C14.6629 37.0619 14.9272 37.1714 15.2028 37.1714H15.8766V37.8432C15.8766 38.1188 15.986 38.3831 16.1809 38.578C16.3758 38.7729 16.6402 38.8824 16.9158 38.8824C17.1914 38.8824 17.4558 38.7729 17.6507 38.578C17.8456 38.3831 17.9551 38.1188 17.9551 37.8432V37.1714H18.6288C18.9044 37.1714 19.1688 37.0619 19.3637 36.867C19.5586 36.6721 19.6681 36.4078 19.6681 36.1321C19.6681 35.8565 19.5586 35.5922 19.3637 35.3973C19.1688 35.2024 18.9044 35.0929 18.6288 35.0929ZM38.8995 35.0929H38.2258V34.4211C38.2258 33.8471 37.7606 33.3818 37.1865 33.3818C36.6124 33.3818 36.1473 33.8471 36.1473 34.4211V35.0929H35.4734C35.1978 35.0929 34.9334 35.2024 34.7385 35.3973C34.5436 35.5922 34.4341 35.8565 34.4341 36.1321C34.4341 36.4078 34.5436 36.6721 34.7385 36.867C34.9334 37.0619 35.1978 37.1714 35.4734 37.1714H36.1471V37.8432C36.1471 38.4171 36.6123 38.8824 37.1864 38.8824C37.7605 38.8824 38.2256 38.4171 38.2256 37.8432V37.1714H38.8994C39.4734 37.1714 39.9386 36.7061 39.9386 36.1321C39.9386 35.5582 39.4734 35.0929 38.8995 35.0929ZM28.7642 35.0929H28.0905V34.4211C28.0905 34.1455 27.981 33.8811 27.7861 33.6862C27.5912 33.4913 27.3269 33.3818 27.0512 33.3818C26.7756 33.3818 26.5113 33.4913 26.3164 33.6862C26.1215 33.8811 26.012 34.1455 26.012 34.4211V35.0929H25.3383C25.0626 35.0929 24.7983 35.2024 24.6034 35.3973C24.4085 35.5922 24.299 35.8565 24.299 36.1321C24.299 36.4078 24.4085 36.6721 24.6034 36.867C24.7983 37.0619 25.0626 37.1714 25.3383 37.1714H26.012V37.8432C26.012 38.1188 26.1215 38.3831 26.3164 38.578C26.5113 38.7729 26.7756 38.8824 27.0512 38.8824C27.3269 38.8824 27.5912 38.7729 27.7861 38.578C27.981 38.3831 28.0905 38.1188 28.0905 37.8432V37.1714H28.7642C29.0398 37.1714 29.3042 37.0619 29.4991 36.867C29.694 36.6721 29.8035 36.4078 29.8035 36.1321C29.8035 35.8565 29.694 35.5922 29.4991 35.3973C29.3042 35.2024 29.0398 35.0929 28.7642 35.0929Z" fill="#FF9242"/>
<path d="M9.92139 44.8862H44.1809V51.4447H9.92139V44.8862Z" fill="#DE4747"/>
<path d="M9.9214 51.4448H4.78205C4.63071 51.4448 4.48557 51.3847 4.37856 51.2777C4.27154 51.1707 4.21143 51.0256 4.21143 50.8742V38.6126C4.21143 38.4613 4.27154 38.3161 4.37856 38.2091C4.48557 38.1021 4.63071 38.042 4.78205 38.042H9.35078C9.50211 38.042 9.64725 38.1021 9.75427 38.2091C9.86128 38.3161 9.9214 38.4613 9.9214 38.6126V51.4448ZM49.3207 51.4448H44.1814V38.6126C44.1814 38.4613 44.2415 38.3161 44.3485 38.2091C44.4555 38.1021 44.6007 38.042 44.752 38.042H49.3207C49.4721 38.042 49.6172 38.1021 49.7242 38.2091C49.8312 38.3161 49.8913 38.4613 49.8913 38.6126V50.8742C49.8913 51.0256 49.8312 51.1707 49.7242 51.2777C49.6172 51.3847 49.4721 51.4448 49.3207 51.4448Z" fill="#C43F3F"/>
<path d="M50.7477 2.1388H49.6456V1.03926C49.6456 0.465311 49.1805 0 48.6064 0C48.0323 0 47.5671 0.465311 47.5671 1.03926V2.1388H46.4652C45.8911 2.1388 45.426 2.60411 45.426 3.17806C45.426 3.75201 45.8911 4.21732 46.4652 4.21732H47.5671V5.31686C47.5671 5.89081 48.0323 6.35612 48.6064 6.35612C49.1805 6.35612 49.6456 5.89081 49.6456 5.31686V4.21732H50.7477C51.3217 4.21732 51.7869 3.75201 51.7869 3.17806C51.7869 2.60411 51.3217 2.1388 50.7477 2.1388ZM68.5559 33.8695H67.454V32.77C67.454 32.196 66.9888 31.7307 66.4147 31.7307C65.8406 31.7307 65.3755 32.196 65.3755 32.77V33.8695H64.2734C63.6993 33.8695 63.2342 34.3348 63.2342 34.9088C63.2342 35.4827 63.6993 35.948 64.2734 35.948H65.3755V37.0476C65.3755 37.6215 65.8406 38.0868 66.4147 38.0868C66.9888 38.0868 67.454 37.6215 67.454 37.0476V35.948H68.5559C69.13 35.948 69.5951 35.4827 69.5951 34.9088C69.5951 34.3348 69.13 33.8695 68.5559 33.8695ZM7.66755 19.8705H6.56552V18.771C6.56552 18.4954 6.45602 18.231 6.26112 18.0361C6.06622 17.8412 5.80188 17.7317 5.52626 17.7317C5.25063 17.7317 4.98629 17.8412 4.79139 18.0361C4.59649 18.231 4.487 18.4954 4.487 18.771V19.8705H3.38496C3.10933 19.8705 2.84499 19.98 2.6501 20.1749C2.4552 20.3698 2.3457 20.6341 2.3457 20.9098C2.3457 21.1854 2.4552 21.4497 2.6501 21.6446C2.84499 21.8395 3.10933 21.949 3.38496 21.949H4.487V23.0486C4.487 23.3242 4.59649 23.5885 4.79139 23.7834C4.98629 23.9783 5.25063 24.0878 5.52626 24.0878C5.80188 24.0878 6.06622 23.9783 6.26112 23.7834C6.45602 23.5885 6.56552 23.3242 6.56552 23.0486V21.949H7.66755C7.94318 21.949 8.20752 21.8395 8.40242 21.6446C8.59732 21.4497 8.70681 21.1854 8.70681 20.9098C8.70681 20.6341 8.59732 20.3698 8.40242 20.1749C8.20752 19.98 7.94318 19.8705 7.66755 19.8705Z" fill="#FFD65C"/>
<path d="M39.0422 4.92139H14.7746C14.499 4.92139 14.2346 5.03088 14.0397 5.22578C13.8448 5.42068 13.7354 5.68502 13.7354 5.96065V19.0785C13.7354 19.3541 13.8448 19.6184 14.0397 19.8133C14.2346 20.0082 14.499 20.1177 14.7746 20.1177H39.0422C39.3178 20.1177 39.5821 20.0082 39.777 19.8133C39.9719 19.6184 40.0814 19.3541 40.0814 19.0785V5.96065C40.0814 5.68502 39.9719 5.42068 39.777 5.22578C39.5821 5.03088 39.3178 4.92139 39.0422 4.92139ZM38.0029 18.0391H15.8139V6.99991H38.0029V18.0391Z" fill="#4C6B7F"/>
</svg>
