<svg width="71" height="60" viewBox="0 0 71 60" fill="none" xmlns="http://www.w3.org/2000/svg">
<path d="M1.86768 21.9526H21.929V57.9247H1.86768V21.9526Z" fill="#00B3FF"/>
<path d="M0 19.8774H21.9291V24.0281H0V19.8774Z" fill="#5F7883"/>
<path d="M19.854 12.0146H68.9697V57.9247H19.854V12.0146Z" fill="#F0F7FF"/>
<path d="M44.4116 12.0146H68.9695V57.9247H44.4116V12.0146Z" fill="#D7E9FC"/>
<path d="M17.9858 9.93945H70.8371V14.0901H17.9858V9.93945Z" fill="#5F7883"/>
<path d="M44.4116 9.93945H70.8372V14.0901H44.4116V9.93945Z" fill="#4B5055"/>
<path d="M10.8608 28.8701H15.0115V33.0207H10.8608V28.8701ZM10.8608 37.8631H15.0115V42.0137H10.8608V37.8631ZM10.8608 46.8561H15.0115V51.0068H10.8608V46.8561Z" fill="#F0F7FF"/>
<path d="M46.833 37.8633H50.9836V42.0139H46.833V37.8633ZM55.826 37.8633H59.9766V42.0139H55.826V37.8633Z" fill="#3A80E8"/>
<path d="M37.8397 37.8633H41.9903V42.0139H37.8397V37.8633ZM28.8467 37.8633H32.9973V42.0139H28.8467V37.8633Z" fill="#00B3FF"/>
<path d="M55.826 28.8701H59.9766V33.0207H55.826V28.8701ZM46.833 28.8701H50.9836V33.0207H46.833V28.8701Z" fill="#3A80E8"/>
<path d="M31.4478 0V24.028H57.3753V0H31.4478Z" fill="#FF5F7B"/>
<path d="M44.4116 0H57.3754V24.028H44.4116V0Z" fill="#EA344A"/>
<path d="M50.509 9.93943V14.0901H46.487V18.112H42.3364V14.0901H38.3145V9.93943H42.3364V5.91748H46.487V9.93943H50.509Z" fill="#F0F7FF"/>
<path d="M50.5089 9.93943V14.0901H46.4869V18.112H44.4116V5.91748H46.4869V9.93943H50.5089Z" fill="#D7E9FC"/>
<path d="M37.8397 28.8701H41.9903V33.0207H37.8397V28.8701ZM28.8467 28.8701H32.9973V33.0207H28.8467V28.8701Z" fill="#00B3FF"/>
<path d="M35.5913 46.8564H53.2314V57.9248H35.5913V46.8564Z" fill="#5FD6FF"/>
<path d="M44.4116 46.8564H53.2317V57.9248H44.4116V46.8564Z" fill="#00B3FF"/>
<path d="M0 55.8496H70.8373V60.0002H0V55.8496Z" fill="#BDE760"/>
<path d="M35.4185 55.8496H70.8371V60.0002H35.4185V55.8496Z" fill="#00D880"/>
</svg>
