<svg width="60" height="60" viewBox="0 0 60 60" fill="none" xmlns="http://www.w3.org/2000/svg">
<path d="M11.25 7.5C11.0014 7.5 10.7629 7.40123 10.5871 7.22541C10.4113 7.0496 10.3125 6.81114 10.3125 6.5625V0.9375C10.3125 0.68886 10.4113 0.450403 10.5871 0.274587C10.7629 0.0987721 11.0014 0 11.25 0C11.4986 0 11.7371 0.0987721 11.9129 0.274587C12.0887 0.450403 12.1875 0.68886 12.1875 0.9375V6.5625C12.1875 6.81114 12.0887 7.0496 11.9129 7.22541C11.7371 7.40123 11.4986 7.5 11.25 7.5ZM15 7.5C14.7514 7.5 14.5129 7.40123 14.3371 7.22541C14.1613 7.0496 14.0625 6.81114 14.0625 6.5625V2.8125C14.0625 2.56386 14.1613 2.3254 14.3371 2.14959C14.5129 1.97377 14.7514 1.875 15 1.875C15.2486 1.875 15.4871 1.97377 15.6629 2.14959C15.8387 2.3254 15.9375 2.56386 15.9375 2.8125V6.5625C15.9375 6.81114 15.8387 7.0496 15.6629 7.22541C15.4871 7.40123 15.2486 7.5 15 7.5Z" fill="#CE4545"/>
<path d="M34.6875 5.625H8.4375C7.91973 5.625 7.5 6.04473 7.5 6.5625V12.1875C7.5 12.7053 7.91973 13.125 8.4375 13.125H34.6875C35.2053 13.125 35.625 12.7053 35.625 12.1875V6.5625C35.625 6.04473 35.2053 5.625 34.6875 5.625Z" fill="#EF6060"/>
<path d="M37.5 11.25H5.625C5.10723 11.25 4.6875 11.6697 4.6875 12.1875V59.0625C4.6875 59.5803 5.10723 60 5.625 60H37.5C38.0178 60 38.4375 59.5803 38.4375 59.0625V12.1875C38.4375 11.6697 38.0178 11.25 37.5 11.25Z" fill="#FF7D7D"/>
<path d="M14.0625 15.9375H10.3125C9.79473 15.9375 9.375 16.3572 9.375 16.875V22.5C9.375 23.0178 9.79473 23.4375 10.3125 23.4375H14.0625C14.5803 23.4375 15 23.0178 15 22.5V16.875C15 16.3572 14.5803 15.9375 14.0625 15.9375Z" fill="#E6F7FF"/>
<path d="M14.0625 26.25H10.3125C9.79473 26.25 9.375 26.6697 9.375 27.1875V32.8125C9.375 33.3303 9.79473 33.75 10.3125 33.75H14.0625C14.5803 33.75 15 33.3303 15 32.8125V27.1875C15 26.6697 14.5803 26.25 14.0625 26.25Z" fill="#E6F7FF"/>
<path d="M14.0625 36.5625H10.3125C9.79473 36.5625 9.375 36.9822 9.375 37.5V43.125C9.375 43.6428 9.79473 44.0625 10.3125 44.0625H14.0625C14.5803 44.0625 15 43.6428 15 43.125V37.5C15 36.9822 14.5803 36.5625 14.0625 36.5625Z" fill="#E6F7FF"/>
<path d="M14.0625 46.875H10.3125C9.79473 46.875 9.375 47.2947 9.375 47.8125V53.4375C9.375 53.9553 9.79473 54.375 10.3125 54.375H14.0625C14.5803 54.375 15 53.9553 15 53.4375V47.8125C15 47.2947 14.5803 46.875 14.0625 46.875Z" fill="#E6F7FF"/>
<path d="M45.9375 18.75H19.6875C19.1697 18.75 18.75 19.1697 18.75 19.6875V59.0625C18.75 59.5803 19.1697 60 19.6875 60H45.9375C46.4553 60 46.875 59.5803 46.875 59.0625V19.6875C46.875 19.1697 46.4553 18.75 45.9375 18.75Z" fill="#FFD899"/>
<path d="M59.4104 46.005C58.8096 45.7652 58.1628 45.6625 57.5173 45.7045C56.8717 45.7466 56.2437 45.9322 55.6791 46.2478L55.6941 46.1466C55.7972 45.4228 56.1882 44.8003 56.7947 44.3925C57.4013 43.9847 58.1279 43.8581 58.8357 44.0344C59.0746 44.0881 59.325 44.0463 59.5335 43.9178C59.7419 43.7893 59.8918 43.5843 59.9511 43.3467C60.0104 43.1091 59.9743 42.8577 59.8507 42.6464C59.727 42.435 59.5256 42.2804 59.2894 42.2156C58.6886 42.0654 58.063 42.043 57.453 42.1499C56.8431 42.2568 56.2623 42.4906 55.7485 42.8363C55.1784 43.2264 54.7079 43.745 54.375 44.3503C54.0422 43.745 53.5717 43.2264 53.0016 42.8363C52.4875 42.4912 51.9068 42.2577 51.2969 42.1508C50.687 42.0439 50.0615 42.066 49.4607 42.2156C49.3412 42.2454 49.2287 42.2985 49.1297 42.3718C49.0307 42.4451 48.9472 42.5372 48.8838 42.6428C48.8204 42.7484 48.7785 42.8655 48.7603 42.9873C48.7422 43.1091 48.7483 43.2333 48.7782 43.3528C48.8079 43.4723 48.8608 43.5847 48.9341 43.6836C49.0073 43.7826 49.0993 43.8661 49.2049 43.9294C49.3104 43.9927 49.4274 44.0346 49.5492 44.0526C49.6709 44.0706 49.7951 44.0644 49.9144 44.0344C50.2606 43.9463 50.6215 43.9327 50.9733 43.9944C51.3251 44.0561 51.6599 44.1918 51.9554 44.3925C52.2528 44.59 52.5048 44.8485 52.6946 45.151C52.8844 45.4534 53.0076 45.7928 53.056 46.1466L53.07 46.2478C52.5056 45.9317 51.8776 45.7457 51.232 45.7036C50.5864 45.6614 49.9396 45.7641 49.3388 46.0041C49.2245 46.0498 49.1203 46.1176 49.0322 46.2036C48.9441 46.2896 48.8738 46.3921 48.8253 46.5053C48.7274 46.7339 48.7242 46.992 48.8166 47.2228C48.909 47.4537 49.0893 47.6384 49.3178 47.7363C49.5464 47.8343 49.8045 47.8374 50.0354 47.745C50.4111 47.5915 50.8192 47.534 51.2228 47.5775C51.6264 47.6211 52.0128 47.7643 52.3472 47.9944C53.041 48.4631 53.4375 49.2131 53.4375 50.0484V59.0625C53.4375 59.3111 53.5363 59.5496 53.7121 59.7254C53.8879 59.9012 54.1264 60 54.375 60C54.6237 60 54.8621 59.9012 55.038 59.7254C55.2138 59.5496 55.3125 59.3111 55.3125 59.0625V50.0484C55.3125 49.2122 55.71 48.4641 56.4029 47.9944C56.7373 47.7643 57.1237 47.6211 57.5273 47.5775C57.9309 47.534 58.3389 47.5915 58.7147 47.745C58.9434 47.8275 59.1951 47.8179 59.4169 47.7182C59.6386 47.6186 59.813 47.4368 59.9032 47.2111C59.9934 46.9854 59.9925 46.7335 59.9005 46.5084C59.8086 46.2834 59.6328 46.1029 59.4104 46.005Z" fill="#B3EA7F"/>
<path d="M37.5 48.75H28.125C27.6072 48.75 27.1875 49.1697 27.1875 49.6875V59.0625C27.1875 59.5803 27.6072 60 28.125 60H37.5C38.0178 60 38.4375 59.5803 38.4375 59.0625V49.6875C38.4375 49.1697 38.0178 48.75 37.5 48.75Z" fill="#E6F7FF"/>
<path d="M32.8125 60C32.5639 60 32.3254 59.9012 32.1496 59.7254C31.9738 59.5496 31.875 59.3111 31.875 59.0625V51.5625C31.875 51.3139 31.9738 51.0754 32.1496 50.8996C32.3254 50.7238 32.5639 50.625 32.8125 50.625C33.0611 50.625 33.2996 50.7238 33.4754 50.8996C33.6512 51.0754 33.75 51.3139 33.75 51.5625V59.0625C33.75 59.3111 33.6512 59.5496 33.4754 59.7254C33.2996 59.9012 33.0611 60 32.8125 60Z" fill="#CADCEA"/>
<path d="M27.1875 24.375H23.4375C22.9197 24.375 22.5 24.7947 22.5 25.3125V30.9375C22.5 31.4553 22.9197 31.875 23.4375 31.875H27.1875C27.7053 31.875 28.125 31.4553 28.125 30.9375V25.3125C28.125 24.7947 27.7053 24.375 27.1875 24.375Z" fill="#E6F7FF"/>
<path d="M34.6875 24.375H30.9375C30.4197 24.375 30 24.7947 30 25.3125V30.9375C30 31.4553 30.4197 31.875 30.9375 31.875H34.6875C35.2053 31.875 35.625 31.4553 35.625 30.9375V25.3125C35.625 24.7947 35.2053 24.375 34.6875 24.375Z" fill="#E6F7FF"/>
<path d="M42.1875 24.375H38.4375C37.9197 24.375 37.5 24.7947 37.5 25.3125V30.9375C37.5 31.4553 37.9197 31.875 38.4375 31.875H42.1875C42.7053 31.875 43.125 31.4553 43.125 30.9375V25.3125C43.125 24.7947 42.7053 24.375 42.1875 24.375Z" fill="#E6F7FF"/>
<path d="M27.1875 33.75H23.4375C22.9197 33.75 22.5 34.1697 22.5 34.6875V40.3125C22.5 40.8303 22.9197 41.25 23.4375 41.25H27.1875C27.7053 41.25 28.125 40.8303 28.125 40.3125V34.6875C28.125 34.1697 27.7053 33.75 27.1875 33.75Z" fill="#E6F7FF"/>
<path d="M34.6875 33.75H30.9375C30.4197 33.75 30 34.1697 30 34.6875V40.3125C30 40.8303 30.4197 41.25 30.9375 41.25H34.6875C35.2053 41.25 35.625 40.8303 35.625 40.3125V34.6875C35.625 34.1697 35.2053 33.75 34.6875 33.75Z" fill="#E6F7FF"/>
<path d="M42.1875 33.75H38.4375C37.9197 33.75 37.5 34.1697 37.5 34.6875V40.3125C37.5 40.8303 37.9197 41.25 38.4375 41.25H42.1875C42.7053 41.25 43.125 40.8303 43.125 40.3125V34.6875C43.125 34.1697 42.7053 33.75 42.1875 33.75Z" fill="#E6F7FF"/>
<path d="M59.0625 60H0.9375C0.68886 60 0.450403 59.9012 0.274587 59.7254C0.0987721 59.5496 0 59.3111 0 59.0625C0 58.8139 0.0987721 58.5754 0.274587 58.3996C0.450403 58.2238 0.68886 58.125 0.9375 58.125H59.0625C59.3111 58.125 59.5496 58.2238 59.7254 58.3996C59.9012 58.5754 60 58.8139 60 59.0625C60 59.3111 59.9012 59.5496 59.7254 59.7254C59.5496 59.9012 59.3111 60 59.0625 60ZM32.8125 44.0625C28.6772 44.0625 25.3125 47.4272 25.3125 51.5625C25.3125 51.8111 25.4113 52.0496 25.5871 52.2254C25.7629 52.4012 26.0014 52.5 26.25 52.5H39.375C39.6236 52.5 39.8621 52.4012 40.0379 52.2254C40.2137 52.0496 40.3125 51.8111 40.3125 51.5625C40.3125 47.4272 36.9478 44.0625 32.8125 44.0625Z" fill="#FCB677"/>
</svg>
