<svg width="58" height="50" viewBox="0 0 58 50" fill="none" xmlns="http://www.w3.org/2000/svg">
<path d="M54.9539 26.6409L50.894 26.1746L50.7332 16.0848H52.596C56.9576 16.0848 56.9526 10.0998 52.596 10.0998H35.4476V2.99252C35.4476 1.3404 34.1085 0 32.4551 0H2.99252C1.3404 0 0 1.3404 0 2.99252V40.0249C0 41.6771 1.3404 43.0175 2.99252 43.0175H54.8628C56.515 43.0175 57.8554 41.6771 57.8554 40.0249V29.6135C57.8604 28.0137 56.5411 26.803 54.9539 26.6409Z" fill="#FFE773"/>
<path d="M40.4353 17.0825V43.0176H35.4478V16.085H39.4378C39.7023 16.085 39.9561 16.1901 40.1431 16.3771C40.3302 16.5642 40.4353 16.8179 40.4353 17.0825Z" fill="#FFF0A6"/>
<path d="M57.855 32.7927V33.7902C57.855 33.9225 57.8025 34.0493 57.709 34.1429C57.6154 34.2364 57.4886 34.289 57.3563 34.289H53.4323C52.112 34.289 52.1128 32.2939 53.4323 32.2939H57.3563C57.4886 32.2939 57.6154 32.3465 57.709 32.44C57.8025 32.5336 57.855 32.6604 57.855 32.7927Z" fill="#FACF5F"/>
<path d="M50.7331 16.085C50.9017 26.6572 50.9057 26.1692 50.8728 26.1847H44.2182C43.1172 26.1847 42.2231 25.2919 42.2231 24.1897V16.085H50.7331Z" fill="#EEF7FF"/>
<path d="M50.894 26.175C50.8623 26.19 51.3896 26.185 44.2182 26.185C43.1172 26.185 42.2231 25.2923 42.2231 24.19V23.4128C42.2231 22.8505 42.6877 22.4042 43.2501 22.4164C45.4167 22.4638 47.5007 21.7622 49.1816 20.3587C49.8234 19.8228 50.8002 20.2754 50.8134 21.1115L50.894 26.175Z" fill="#CBE3FA"/>
<path d="M52.5961 10.0996C56.9527 10.0996 56.9577 16.0846 52.5961 16.0846H35.4478V10.0996H52.5961Z" fill="#FF6D7A"/>
<path d="M55.6809 12.0486C56.0206 12.977 54.9562 13.7581 54.149 13.1875C53.6305 12.8211 52.9466 12.5934 52.0974 12.5934H36.4435C36.1794 12.5934 35.9261 12.4885 35.7394 12.3017C35.5527 12.115 35.4478 11.8617 35.4478 11.5976V10.0996H52.5961C54.2581 10.0996 55.2868 10.9709 55.6809 12.0486Z" fill="#FF8C95"/>
<path d="M32.4551 0H2.99252C1.3404 0 0 1.3404 0 2.99252V40.0249C0 41.6771 1.3404 43.0175 2.99252 43.0175H35.4476V2.99252C35.4476 1.3404 34.1085 0 32.4551 0Z" fill="#C79A83"/>
<path d="M35.4476 2.99252V3.99002C35.4476 4.25458 35.3425 4.5083 35.1555 4.69537C34.9684 4.88244 34.7147 4.98753 34.4501 4.98753H23.6845C23.1337 4.98753 22.687 4.54127 22.687 3.99027V0H32.4551C34.1085 0 35.4476 1.3404 35.4476 2.99252ZM12.6322 0V4.21958C12.6322 4.6384 12.3719 5.01708 11.9768 5.15574C10.8108 5.56484 9.97506 6.67519 9.97506 7.98005V42.0199C9.97506 42.2845 9.86997 42.5382 9.6829 42.7253C9.49583 42.9124 9.24211 43.0175 8.97756 43.0175H2.99252C1.33978 43.0175 0 41.6777 0 40.0249V2.99252C0 1.33978 1.33978 0 2.99252 0H12.6322Z" fill="#E0B7A3"/>
<path d="M22.6872 0V8.10661C22.6872 8.78329 22.0277 9.26359 21.3836 9.05598L17.6598 7.85536L13.9359 9.05598C13.2919 9.26359 12.6323 8.78329 12.6323 8.10661V0H22.6872Z" fill="#FFE773"/>
<path d="M22.6872 0V3.99027C22.6872 4.54102 22.2403 4.98691 21.6896 4.98716H13.6292C13.0782 4.98741 12.6323 4.53978 12.6323 3.98878V0H22.6872Z" fill="#FFF0A6"/>
<path d="M31.2965 29.5517V35.5367C31.2965 36.6389 30.4038 37.5317 29.3015 37.5317H24.5634C23.4611 37.5317 22.5684 36.6389 22.5684 35.5367V29.5517C22.5684 28.4494 23.4611 27.5566 24.5634 27.5566H29.3015C30.4038 27.5566 31.2965 28.4494 31.2965 29.5517Z" fill="#EEF7FF"/>
<path d="M13.5908 30.9227H7.35639C7.09184 30.9227 6.83812 30.8176 6.65105 30.6305C6.46398 30.4435 6.35889 30.1898 6.35889 29.9252C6.35889 29.6606 6.46398 29.4069 6.65105 29.2199C6.83812 29.0328 7.09184 28.9277 7.35639 28.9277H13.5908C13.8554 28.9277 14.1091 29.0328 14.2962 29.2199C14.4832 29.4069 14.5883 29.6606 14.5883 29.9252C14.5883 30.1898 14.4832 30.4435 14.2962 30.6305C14.1091 30.8176 13.8554 30.9227 13.5908 30.9227ZM16.0846 25.4364H7.35639C7.09184 25.4364 6.83812 25.3313 6.65105 25.1443C6.46398 24.9572 6.35889 24.7035 6.35889 24.4389C6.35889 24.1744 6.46398 23.9206 6.65105 23.7336C6.83812 23.5465 7.09184 23.4414 7.35639 23.4414H16.0846C16.3491 23.4414 16.6028 23.5465 16.7899 23.7336C16.977 23.9206 17.0821 24.1744 17.0821 24.4389C17.0821 24.7035 16.977 24.9572 16.7899 25.1443C16.6028 25.3313 16.3491 25.4364 16.0846 25.4364Z" fill="#A07765"/>
<path d="M45.1368 50.0002C48.9932 50.0002 52.1194 46.8741 52.1194 43.0177C52.1194 39.1613 48.9932 36.0352 45.1368 36.0352C41.2805 36.0352 38.1543 39.1613 38.1543 43.0177C38.1543 46.8741 41.2805 50.0002 45.1368 50.0002Z" fill="#585966"/>
<path d="M42.3415 47.3486C42.6962 48.2905 41.5833 49.1124 40.7954 48.4862C39.1566 47.1836 38.1171 45.1596 38.1558 42.8947C38.2323 38.4438 42.4854 35.1163 46.8919 36.2572C47.8642 36.509 47.9007 37.8964 46.9364 38.1766C43.0025 39.3198 40.9177 43.5688 42.3415 47.3486Z" fill="#6E6F80"/>
<path d="M47.1267 42.9154C47.0731 41.8629 46.2025 41.0225 45.1369 41.0225C44.0714 41.0225 43.2008 41.8629 43.1472 42.9154C43.0892 44.0533 43.997 45.0125 45.1369 45.0125C46.2762 45.0125 47.1848 44.0539 47.1267 42.9154Z" fill="#2C2C33"/>
<path d="M12.7179 50.0002C16.5742 50.0002 19.7004 46.8741 19.7004 43.0177C19.7004 39.1613 16.5742 36.0352 12.7179 36.0352C8.86154 36.0352 5.73535 39.1613 5.73535 43.0177C5.73535 46.8741 8.86154 50.0002 12.7179 50.0002Z" fill="#585966"/>
<path d="M9.92255 47.3486C10.2773 48.2905 9.16432 49.1124 8.37642 48.4862C6.73764 47.1836 5.69811 45.1596 5.73689 42.8947C5.81332 38.4438 10.0664 35.1163 14.4729 36.2572C15.4452 36.509 15.4818 37.8964 14.5174 38.1766C10.5835 39.3198 8.49873 43.5688 9.92255 47.3486Z" fill="#6E6F80"/>
<path d="M12.7182 45.0125C13.82 45.0125 14.7132 44.1193 14.7132 43.0175C14.7132 41.9157 13.82 41.0225 12.7182 41.0225C11.6163 41.0225 10.7231 41.9157 10.7231 43.0175C10.7231 44.1193 11.6163 45.0125 12.7182 45.0125Z" fill="#2C2C33"/>
</svg>
