<svg width="57" height="60" viewBox="0 0 57 60" fill="none" xmlns="http://www.w3.org/2000/svg">
<path d="M54.7678 19.5384L49.7588 13.9031C48.8888 12.9253 47.2463 12.1875 45.9375 12.1875H41.25V6.5625C41.25 2.94375 38.3063 0 34.6875 0H21.5625C17.9438 0 15 2.94375 15 6.5625V12.1875H10.3125C9.00375 12.1875 7.36125 12.9253 6.49125 13.9031L1.48219 19.5384C0.650625 20.4731 0 22.1869 0 23.4375V26.25C0.000752576 27.2366 0.261025 28.2056 0.754689 29.0598C1.24835 29.914 1.95804 30.6234 2.8125 31.1166V55.3125C2.8125 57.8972 4.91531 60 7.5 60H48.75C51.3347 60 53.4375 57.8972 53.4375 55.3125V31.1166C54.292 30.6234 55.0016 29.914 55.4953 29.0598C55.989 28.2056 56.2492 27.2366 56.25 26.25V23.4375C56.25 22.1869 55.5994 20.4731 54.7678 19.5384Z" fill="#FFDAAA"/>
<path d="M8.4375 59.0625C8.4375 59.3111 8.53627 59.5496 8.71209 59.7254C8.8879 59.9012 9.12636 60 9.375 60H20.625C20.8736 60 21.1121 59.9012 21.2879 59.7254C21.4637 59.5496 21.5625 59.3111 21.5625 59.0625V43.125H8.4375V59.0625Z" fill="#A78966"/>
<path d="M54.7678 19.5384L49.7588 13.9031C48.8888 12.9253 47.2463 12.1875 45.9375 12.1875H41.25V6.5625C41.25 2.94375 38.3063 0 34.6875 0H21.5625C17.9438 0 15 2.94375 15 6.5625V12.1875H10.3125C9.00375 12.1875 7.36125 12.9253 6.49125 13.9031L1.48219 19.5384C0.650625 20.4731 0 22.1869 0 23.4375V26.25C0 29.3522 2.52281 31.875 5.625 31.875C7.01206 31.8786 8.35007 31.3621 9.375 30.4275C10.3988 31.3575 11.7178 31.875 13.125 31.875C14.5322 31.875 15.8512 31.3575 16.875 30.4275C17.8988 31.3575 19.2178 31.875 20.625 31.875C22.0322 31.875 23.3512 31.3575 24.375 30.4275C25.3988 31.3575 26.7178 31.875 28.125 31.875C29.5322 31.875 30.8512 31.3575 31.875 30.4275C32.8988 31.3575 34.2178 31.875 35.625 31.875C37.0322 31.875 38.3512 31.3575 39.375 30.4275C40.3988 31.3575 41.7178 31.875 43.125 31.875C44.5322 31.875 45.8512 31.3575 46.875 30.4275C47.8999 31.3621 49.2379 31.8786 50.625 31.875C53.7272 31.875 56.25 29.3522 56.25 26.25V23.4375C56.25 22.1869 55.5994 20.4731 54.7678 19.5384Z" fill="#FFA733"/>
<path d="M34.6875 0H21.5625C17.9438 0 15 2.94375 15 6.5625V16.875C15 20.4937 17.9438 23.4375 21.5625 23.4375H34.6875C38.3062 23.4375 41.25 20.4937 41.25 16.875V6.5625C41.25 2.94375 38.3062 0 34.6875 0Z" fill="#FFDAAA"/>
<path d="M28.125 10.3125C25.3913 10.3125 22.5 13.6856 22.5 16.875C22.5 18.0534 23.1281 18.9319 24.2681 19.3491C25.0491 19.6341 25.9678 19.6931 27.1078 19.6931L28.125 19.6875L29.1422 19.6922C30.5212 19.6922 33.75 19.6922 33.75 16.875C33.75 13.6856 30.8588 10.3125 28.125 10.3125Z" fill="#6A563D"/>
<path d="M21.5625 12.1875C23.1158 12.1875 24.375 10.9283 24.375 9.375C24.375 7.8217 23.1158 6.5625 21.5625 6.5625C20.0092 6.5625 18.75 7.8217 18.75 9.375C18.75 10.9283 20.0092 12.1875 21.5625 12.1875Z" fill="#6A563D"/>
<path d="M28.125 9.375C29.6783 9.375 30.9375 8.1158 30.9375 6.5625C30.9375 5.0092 29.6783 3.75 28.125 3.75C26.5717 3.75 25.3125 5.0092 25.3125 6.5625C25.3125 8.1158 26.5717 9.375 28.125 9.375Z" fill="#6A563D"/>
<path d="M34.6875 12.1875C36.2408 12.1875 37.5 10.9283 37.5 9.375C37.5 7.8217 36.2408 6.5625 34.6875 6.5625C33.1342 6.5625 31.875 7.8217 31.875 9.375C31.875 10.9283 33.1342 12.1875 34.6875 12.1875Z" fill="#6A563D"/>
<path d="M45.9375 37.5H29.0625C27.5119 37.5 26.25 38.7619 26.25 40.3125V42.1875C26.25 42.4361 26.3488 42.6746 26.5246 42.8504C26.7004 43.0262 26.9389 43.125 27.1875 43.125H47.8125C48.0611 43.125 48.2996 43.0262 48.4754 42.8504C48.6512 42.6746 48.75 42.4361 48.75 42.1875V40.3125C48.75 38.7619 47.4881 37.5 45.9375 37.5ZM19.6875 37.5H10.3125C8.76187 37.5 7.5 38.7619 7.5 40.3125V42.1875C7.5 42.4361 7.59877 42.6746 7.77459 42.8504C7.9504 43.0262 8.18886 43.125 8.4375 43.125H21.5625C21.8111 43.125 22.0496 43.0262 22.2254 42.8504C22.4012 42.6746 22.5 42.4361 22.5 42.1875V40.3125C22.5 38.7619 21.2381 37.5 19.6875 37.5Z" fill="#FFA733"/>
<path d="M17.8125 51.5625H15.9375C15.6889 51.5625 15.4504 51.4637 15.2746 51.2879C15.0988 51.1121 15 50.8736 15 50.625C15 50.3764 15.0988 50.1379 15.2746 49.9621C15.4504 49.7863 15.6889 49.6875 15.9375 49.6875H17.8125C18.0611 49.6875 18.2996 49.7863 18.4754 49.9621C18.6512 50.1379 18.75 50.3764 18.75 50.625C18.75 50.8736 18.6512 51.1121 18.4754 51.2879C18.2996 51.4637 18.0611 51.5625 17.8125 51.5625Z" fill="#6A563D"/>
<path d="M27.1875 43.125H47.8125V50.625H27.1875V43.125Z" fill="#806749"/>
<path d="M27.1875 53.4375C27.1875 53.6861 27.2863 53.9246 27.4621 54.1004C27.6379 54.2762 27.8764 54.375 28.125 54.375H46.875C47.1236 54.375 47.3621 54.2762 47.5379 54.1004C47.7137 53.9246 47.8125 53.6861 47.8125 53.4375V50.625H27.1875V53.4375Z" fill="#A78966"/>
</svg>
