<svg width="60" height="60" viewBox="0 0 60 60" fill="none" xmlns="http://www.w3.org/2000/svg">
<path d="M30 60C46.5685 60 60 46.5685 60 30C60 13.4315 46.5685 0 30 0C13.4315 0 0 13.4315 0 30C0 46.5685 13.4315 60 30 60Z" fill="#FFA037"/>
<path d="M30.0002 50.3568C41.2431 50.3568 50.3573 41.2426 50.3573 29.9997C50.3573 18.7568 41.2431 9.64258 30.0002 9.64258C18.7573 9.64258 9.64307 18.7568 9.64307 29.9997C9.64307 41.2426 18.7573 50.3568 30.0002 50.3568Z" fill="#FFC850"/>
<path d="M13.9286 30C13.9286 15.83 23.7557 3.96281 36.9642 0.821484C34.7284 0.289688 32.3985 0 30 0C13.4314 0 0 13.4314 0 30C0 46.5684 13.4314 60 30 60C32.3987 60 34.7284 59.7103 36.9643 59.1786C23.7557 56.0371 13.9286 44.1697 13.9286 30Z" fill="#FF8C32"/>
<path d="M19.5556 47.4499C16.0256 42.532 13.9287 36.5167 13.9287 30.0001C13.9287 23.4835 16.0256 17.4682 19.5555 12.5503C13.625 16.1081 9.64307 22.5808 9.64307 30.0001C9.64307 37.4194 13.625 43.8921 19.5556 47.4499Z" fill="#FFB23C"/>
<path d="M50.4532 17.0468C50.3538 16.9473 50.2357 16.8683 50.1057 16.8145C49.9757 16.7606 49.8364 16.7329 49.6957 16.7329C49.555 16.7329 49.4156 16.7606 49.2857 16.8145C49.1557 16.8683 49.0376 16.9473 48.9381 17.0468L42.8217 23.1627C42.3734 23.611 41.6462 23.611 41.1979 23.1627L41.0475 23.0123C40.5992 22.564 40.5992 21.8368 41.0475 21.3885L47.1454 15.2906C47.2449 15.1912 47.3238 15.0731 47.3777 14.9431C47.4315 14.8131 47.4592 14.6738 47.4592 14.5331C47.4592 14.3924 47.4315 14.2531 47.3777 14.1231C47.3238 13.9932 47.2449 13.8751 47.1454 13.7756C47.0459 13.6761 46.9278 13.5972 46.7978 13.5433C46.6678 13.4894 46.5285 13.4617 46.3878 13.4617C46.2471 13.4617 46.1078 13.4894 45.9778 13.5433C45.8478 13.5972 45.7297 13.6761 45.6303 13.7756L39.5324 19.8735C39.0841 20.3218 38.3569 20.3218 37.9085 19.8735C37.4602 19.4251 37.4602 18.698 37.9085 18.2496L44.0247 12.1336C44.1242 12.0341 44.2031 11.916 44.257 11.7861C44.3108 11.6561 44.3385 11.5168 44.3385 11.3761C44.3385 11.2354 44.3108 11.0961 44.257 10.9661C44.2031 10.8361 44.1242 10.718 44.0247 10.6186C43.9252 10.5191 43.8071 10.4401 43.6771 10.3863C43.5471 10.3324 43.4078 10.3047 43.2671 10.3047C43.1264 10.3047 42.9871 10.3324 42.8571 10.3863C42.7271 10.4401 42.609 10.5191 42.5096 10.6186L35.9753 17.1523C34.9615 18.1656 34.3629 19.4557 34.3326 20.7041L34.3005 23.4956C34.2988 23.6417 34.2672 23.7859 34.2077 23.9194C34.1483 24.0528 34.0621 24.1727 33.9546 24.2716L13.7532 42.8616C12.5641 44.0507 12.5641 45.9787 13.7532 47.1679C14.9423 48.357 16.8703 48.357 18.0594 47.1679L36.6171 27.0019C36.7185 26.8918 36.8417 26.8042 36.9789 26.7446C37.1161 26.685 37.2643 26.6548 37.4139 26.6559L40.2778 26.6782C40.2998 26.6782 40.3207 26.6788 40.3426 26.6788C41.6098 26.6788 42.9103 26.1043 43.919 25.0963L50.4532 18.562C50.5527 18.4625 50.6317 18.3444 50.6855 18.2144C50.7394 18.0844 50.7671 17.9451 50.7671 17.8044C50.7671 17.6637 50.7394 17.5244 50.6855 17.3944C50.6317 17.2644 50.5527 17.1463 50.4532 17.0468Z" fill="white"/>
<path d="M31.6036 26.4351L23.0649 34.2926L24.9746 36.2023C25.5608 36.7885 26.2837 37.179 27.0661 37.3808L34.4863 29.3175L31.6036 26.4351Z" fill="#FAF0C3"/>
<path d="M15.3292 13.1916L45.0871 42.9495C46.2762 44.1386 46.2762 46.0667 45.0871 47.2558C43.898 48.4449 41.9699 48.4449 40.7808 47.2558L33.5558 40.0308C32.8159 39.2909 32.6514 38.1933 33.0626 37.2945C33.2792 36.821 33.2435 36.2733 32.8753 35.9051L31.6573 34.6871C31.1816 34.2114 30.4104 34.2114 29.9348 34.6871C28.9834 35.6384 27.441 35.6384 26.4897 34.6871L18.2675 26.4648C12.1633 20.3606 12.739 15.7136 13.5822 13.5367C13.8578 12.8251 14.7897 12.6519 15.3292 13.1916Z" fill="white"/>
</svg>
