<svg width="61" height="60" viewBox="0 0 61 60" fill="none" xmlns="http://www.w3.org/2000/svg">
<path fill-rule="evenodd" clip-rule="evenodd" d="M11.5161 14.3906H48.4942V55.2349H11.5161V14.3906Z" fill="#F2F3F4"/>
<path fill-rule="evenodd" clip-rule="evenodd" d="M44.4756 17.6738H52.5127V51.9536H44.4756V17.6738ZM7.49756 17.6738H15.5346V51.9536H7.49756V17.6738Z" fill="#C8D2DC"/>
<path fill-rule="evenodd" clip-rule="evenodd" d="M16.2703 29.7197L12.9669 29.9697L11.5256 32.3579L10.2231 46.0118C12.8496 46.5196 15.5611 46.3667 18.1139 45.5668C16.9878 39.821 16.476 36.6038 16.2703 29.7197Z" fill="#FE92C1"/>
<path fill-rule="evenodd" clip-rule="evenodd" d="M12.1835 32.358L10.0651 29.9699L6.63829 29.4707C5.72541 36.0657 3.54449 41.556 0.000976562 47.1926C3.16268 48.2717 6.56525 48.4336 9.81514 47.6597C11.1143 42.6512 11.9078 37.525 12.1835 32.358Z" fill="#FE62A7"/>
<path fill-rule="evenodd" clip-rule="evenodd" d="M11.5157 21.4854C12.0298 21.4854 12.5266 21.6715 12.9142 22.0092C13.3019 22.347 13.5542 22.8136 13.6246 23.323C14.1008 23.1296 14.6309 23.1151 15.117 23.282C15.6031 23.4489 16.0124 23.786 16.2694 24.2311C16.5264 24.6762 16.6137 25.1992 16.5152 25.7037C16.4167 26.2081 16.1391 26.6599 15.7335 26.9756C16.1391 27.2914 16.4167 27.7432 16.5152 28.2476C16.6137 28.752 16.5264 29.2751 16.2694 29.7202C16.0124 30.1653 15.6031 30.5024 15.117 30.6693C14.6309 30.8362 14.1008 30.8217 13.6246 30.6283C13.5537 31.1372 13.3012 31.6032 12.9136 31.9405C12.5261 32.2778 12.0296 32.4636 11.5159 32.4636C11.0021 32.4636 10.5056 32.2778 10.1181 31.9405C9.73052 31.6032 9.47801 31.1372 9.40711 30.6283C8.9309 30.8217 8.40083 30.8362 7.91473 30.6693C7.42862 30.5024 7.0193 30.1653 6.76232 29.7202C6.50533 29.2751 6.41802 28.752 6.51651 28.2476C6.615 27.7432 6.89263 27.2914 7.29817 26.9756C6.89263 26.6599 6.615 26.2081 6.51651 25.7037C6.41802 25.1992 6.50533 24.6762 6.76232 24.2311C7.0193 23.786 7.42862 23.4489 7.91473 23.282C8.40083 23.1151 8.9309 23.1296 9.40711 23.323C9.4775 22.8137 9.72976 22.3471 10.1173 22.0094C10.5049 21.6716 11.0016 21.4855 11.5157 21.4854Z" fill="#E04141"/>
<path fill-rule="evenodd" clip-rule="evenodd" d="M4.36621 48.0894C4.8353 48.125 5.30558 48.1424 5.77586 48.1408C7.00517 45.2444 7.86418 42.2045 8.33254 39.0931C8.35845 38.9207 8.31479 38.745 8.21117 38.6047C8.10754 38.4645 7.95245 38.3711 7.77999 38.3452C7.60753 38.3193 7.43185 38.3629 7.29158 38.4666C7.15132 38.5702 7.05796 38.7253 7.03205 38.8977C6.78885 40.5201 6.43535 42.124 5.97402 43.6982C5.53459 45.1955 4.9975 46.6623 4.36621 48.0894Z" fill="#E048A6"/>
<path fill-rule="evenodd" clip-rule="evenodd" d="M13.4966 46.3037C13.9358 46.298 14.3745 46.2744 14.8117 46.2329C14.6931 45.3121 14.6009 44.0591 14.5962 42.8642C14.5918 41.8457 14.65 40.872 14.8086 40.1964C14.8294 40.1119 14.8333 40.0242 14.82 39.9382C14.8067 39.8522 14.7764 39.7697 14.7309 39.6955C14.6855 39.6214 14.6257 39.5569 14.5552 39.506C14.4846 39.4551 14.4046 39.4187 14.3199 39.399C14.2352 39.3792 14.1473 39.3765 14.0616 39.391C13.9758 39.4054 13.8937 39.4368 13.8201 39.4833C13.7465 39.5297 13.6829 39.5903 13.6329 39.6615C13.583 39.7327 13.5477 39.8132 13.529 39.8982C13.3475 40.6706 13.2806 41.7512 13.2854 42.8694C13.2916 44.0172 13.3619 45.1638 13.4966 46.3037Z" fill="#E068B7"/>
<path d="M11.5156 28.8057C12.5264 28.8057 13.3457 27.9863 13.3457 26.9756C13.3457 25.9649 12.5264 25.1455 11.5156 25.1455C10.5049 25.1455 9.68555 25.9649 9.68555 26.9756C9.68555 27.9863 10.5049 28.8057 11.5156 28.8057Z" fill="#FFCE00"/>
<path fill-rule="evenodd" clip-rule="evenodd" d="M43.74 29.7197L47.0435 29.9697L48.4847 32.3579L49.7872 46.0118C47.1607 46.5196 44.4492 46.3667 41.8965 45.5668C43.0229 39.821 43.534 36.6038 43.74 29.7197Z" fill="#FE92C1"/>
<path fill-rule="evenodd" clip-rule="evenodd" d="M47.8267 32.358L49.9455 29.9699L53.3719 29.4707C54.2848 36.0657 56.4661 41.556 60.0096 47.1926C56.8479 48.2717 53.4454 48.4336 50.1955 47.6597C48.8961 42.6512 48.1026 37.525 47.8267 32.358Z" fill="#FE62A7"/>
<path fill-rule="evenodd" clip-rule="evenodd" d="M48.4946 21.4854C47.9804 21.4854 47.4836 21.6715 47.096 22.0092C46.7083 22.347 46.456 22.8136 46.3856 23.323C45.9094 23.1296 45.3793 23.1151 44.8932 23.282C44.4071 23.4489 43.9978 23.786 43.7408 24.2311C43.4838 24.6762 43.3965 25.1992 43.495 25.7037C43.5935 26.2081 43.8711 26.6599 44.2767 26.9756C43.8711 27.2914 43.5935 27.7432 43.495 28.2476C43.3965 28.752 43.4838 29.2751 43.7408 29.7202C43.9978 30.1653 44.4071 30.5024 44.8932 30.6693C45.3793 30.8362 45.9094 30.8217 46.3856 30.6283C46.4562 31.1375 46.7086 31.6039 47.0963 31.9415C47.4839 32.2791 47.9805 32.465 48.4946 32.465C49.0086 32.465 49.5053 32.2791 49.8929 31.9415C50.2805 31.6039 50.5329 31.1375 50.6035 30.6283C51.0797 30.8217 51.6098 30.8362 52.0959 30.6693C52.582 30.5024 52.9913 30.1653 53.2483 29.7202C53.5053 29.2751 53.5926 28.752 53.4941 28.2476C53.3956 27.7432 53.118 27.2914 52.7124 26.9756C53.118 26.6599 53.3956 26.2081 53.4941 25.7037C53.5926 25.1992 53.5053 24.6762 53.2483 24.2311C52.9913 23.786 52.582 23.4489 52.0959 23.282C51.6098 23.1151 51.0797 23.1296 50.6035 23.323C50.5331 22.8136 50.2808 22.347 49.8931 22.0092C49.5055 21.6715 49.0087 21.4854 48.4946 21.4854Z" fill="#E04141"/>
<path fill-rule="evenodd" clip-rule="evenodd" d="M55.6439 48.0894C55.1752 48.125 54.705 48.1424 54.2347 48.1408C53.0054 45.2444 52.1464 42.2046 51.678 39.0932C51.6534 38.9214 51.6978 38.7469 51.8014 38.6077C51.905 38.4685 52.0595 38.3759 52.2311 38.3501C52.4027 38.3243 52.5775 38.3674 52.7174 38.47C52.8574 38.5726 52.9511 38.7264 52.9781 38.8978C53.2214 40.5201 53.5751 42.124 54.0365 43.6983C54.4758 45.1955 55.0128 46.6624 55.6439 48.0894Z" fill="#E048A6"/>
<path fill-rule="evenodd" clip-rule="evenodd" d="M46.5132 46.3041C46.0742 46.2984 45.6356 46.2748 45.1985 46.2333C45.3171 45.3126 45.4093 44.0595 45.414 42.8647C45.4184 41.8462 45.3602 40.8724 45.2012 40.1968C45.1816 40.1128 45.1788 40.0257 45.1929 39.9406C45.2069 39.8555 45.2376 39.7739 45.2832 39.7006C45.3288 39.6274 45.3884 39.5638 45.4585 39.5135C45.5287 39.4633 45.608 39.4273 45.6921 39.4078C45.7761 39.3882 45.8632 39.3853 45.9483 39.3994C46.0335 39.4135 46.115 39.4442 46.1883 39.4898C46.2615 39.5353 46.3251 39.5949 46.3754 39.6651C46.4256 39.7352 46.4616 39.8146 46.4811 39.8986C46.6627 40.6711 46.7295 41.7517 46.7248 42.8698C46.7186 44.0176 46.6479 45.1642 46.5132 46.3041Z" fill="#E068B7"/>
<path d="M48.4947 28.8057C49.5054 28.8057 50.3247 27.9863 50.3247 26.9756C50.3247 25.9649 49.5054 25.1455 48.4947 25.1455C47.4839 25.1455 46.6646 25.9649 46.6646 26.9756C46.6646 27.9863 47.4839 28.8057 48.4947 28.8057Z" fill="#FFCE00"/>
<path fill-rule="evenodd" clip-rule="evenodd" d="M36.0274 55.235H23.9824V40.3699C23.9824 37.0578 26.6926 34.3477 30.0051 34.3477C33.3172 34.3477 36.0274 37.0578 36.0274 40.3699V55.235Z" fill="#FE92C1"/>
<path fill-rule="evenodd" clip-rule="evenodd" d="M30.0052 19.0205C30.5192 19.0206 31.0159 19.2067 31.4035 19.5443C31.7912 19.882 32.0435 20.3485 32.1141 20.8577C32.5903 20.6648 33.1202 20.6506 33.606 20.8177C34.0919 20.9847 34.501 21.3218 34.7579 21.7668C35.0147 22.2117 35.1021 22.7345 35.0038 23.2388C34.9055 23.7431 34.6282 24.1949 34.223 24.5108C34.6279 24.8268 34.9048 25.2785 35.0029 25.7826C35.101 26.2868 35.0136 26.8093 34.7568 27.2541C34.5 27.6989 34.0911 28.0358 33.6055 28.2029C33.1199 28.3701 32.5902 28.356 32.1141 28.1635C32.0438 28.6729 31.7915 29.1397 31.4038 29.4776C31.0161 29.8155 30.5192 30.0016 30.005 30.0016C29.4907 30.0016 28.9938 29.8155 28.6061 29.4776C28.2184 29.1397 27.9661 28.6729 27.8958 28.1635C27.4197 28.356 26.8901 28.3701 26.4045 28.2029C25.9188 28.0358 25.51 27.6989 25.2532 27.2541C24.9964 26.8093 24.909 26.2868 25.007 25.7826C25.1051 25.2785 25.3821 24.8268 25.7869 24.5108C25.3817 24.1949 25.1044 23.7431 25.0061 23.2388C24.9078 22.7345 24.9952 22.2117 25.2521 21.7668C25.5089 21.3218 25.918 20.9847 26.4039 20.8177C26.8898 20.6506 27.4196 20.6648 27.8958 20.8577C27.9663 20.3483 28.2188 19.8817 28.6066 19.544C28.9944 19.2063 29.4909 19.0203 30.0052 19.0205Z" fill="#E04141"/>
<path fill-rule="evenodd" clip-rule="evenodd" d="M6.57657 55.2349H16.4548V52.2994C16.4541 52.0554 16.3568 51.8216 16.1843 51.6491C16.0118 51.4765 15.778 51.3793 15.534 51.3786H7.49695C7.25297 51.3793 7.01919 51.4765 6.84667 51.6491C6.67415 51.8216 6.5769 52.0554 6.57617 52.2994L6.57657 55.2349ZM53.4337 14.3906H43.5546V17.3262C43.5555 17.5702 43.6527 17.8039 43.8252 17.9764C43.9977 18.1489 44.2314 18.2462 44.4754 18.247H52.5125C52.7565 18.2464 52.9904 18.1492 53.163 17.9766C53.3356 17.8041 53.4329 17.5703 53.4337 17.3262V14.3906ZM43.5546 55.2349H53.4337V52.2994C53.4329 52.0553 53.3356 51.8215 53.163 51.6489C52.9904 51.4764 52.7565 51.3792 52.5125 51.3786H44.4754C44.2314 51.3793 43.9976 51.4765 43.8251 51.6491C43.6526 51.8216 43.5554 52.0554 43.5546 52.2994V55.2349ZM6.57617 14.3906H16.4552V17.3262C16.4544 17.5702 16.3571 17.8039 16.1846 17.9764C16.0121 18.1489 15.7784 18.2462 15.5344 18.247H7.49735C7.2533 18.2464 7.01942 18.1492 6.84681 17.9766C6.6742 17.8041 6.5769 17.5703 6.57617 17.3262V14.3906Z" fill="#AF66DA"/>
<path fill-rule="evenodd" clip-rule="evenodd" d="M4.81631 15.0608C4.46992 15.0639 4.13208 14.9532 3.8547 14.7457C3.57732 14.5382 3.37572 14.2454 3.28088 13.9122C3.07758 13.2208 3.31332 12.4191 3.94932 12.1149L28.8362 0.213584C29.4326 -0.0711946 30.5777 -0.0711946 31.1737 0.213584L56.061 12.1149C56.697 12.4191 56.9327 13.2208 56.7294 13.9122C56.6345 14.2454 56.4329 14.5383 56.1554 14.7458C55.878 14.9533 55.54 15.064 55.1936 15.0608H4.81631ZM0 54.5655H60.0103V60H0V54.5655Z" fill="#FE5694"/>
<path d="M30.0054 26.3409C31.0161 26.3409 31.8355 25.5215 31.8355 24.5108C31.8355 23.5 31.0161 22.6807 30.0054 22.6807C28.9947 22.6807 28.1753 23.5 28.1753 24.5108C28.1753 25.5215 28.9947 26.3409 30.0054 26.3409Z" fill="#FFCE00"/>
<path d="M30.0053 6.32795C30.5155 5.3075 31.0265 4.79688 32.0474 4.79688C32.5888 4.79708 33.108 5.01226 33.4908 5.39511C33.8737 5.77796 34.0889 6.29715 34.0891 6.83858C34.0891 8.88067 32.0474 10.002 30.0053 12.0437C27.9636 10.002 25.9219 8.88067 25.9219 6.83858C25.9221 6.29715 26.1373 5.77796 26.5201 5.39511C26.903 5.01226 27.4221 4.79708 27.9636 4.79688C28.9844 4.79688 29.495 5.30671 30.0053 6.32795Z" fill="#FEB0D2"/>
</svg>
