<svg width="64" height="54" viewBox="0 0 64 54" fill="none" xmlns="http://www.w3.org/2000/svg">
<path d="M48.8704 30.7862L48.565 34.2942C48.5358 34.4482 48.419 34.5982 48.2165 34.7151C47.5115 35.124 46.2536 34.891 46.1341 34.2942L45.8274 30.7862H48.8704ZM35.8967 23.2446L35.5913 26.7525C35.5621 26.9066 35.4453 27.0566 35.2428 27.1734C34.5379 27.5824 33.2799 27.3494 33.1604 26.7525L32.8538 23.2446H35.8967ZM62.7336 22.7812L62.4282 26.2898C62.399 26.4432 62.2828 26.5932 62.0797 26.7101C61.6031 26.9869 60.8284 26.9869 60.3498 26.7101C60.146 26.5926 60.0278 26.4432 59.9973 26.2898L59.6906 22.7812H62.7336Z" fill="#3D4449"/>
<path d="M48.734 0.0434163C48.6159 -0.0249628 48.4526 -0.0143412 48.276 0.0878955L45.2131 1.85646L59.9805 10.4384L63.0433 8.6698C63.2206 8.56757 63.3832 8.55694 63.5013 8.62532L48.734 0.0434163Z" fill="#4F91FF"/>
<path d="M53.7062 2.92676C53.588 2.85772 53.4247 2.86834 53.2482 2.97058L50.1853 4.7398L55.0086 7.54268L58.0715 5.77412C58.2487 5.67188 58.4113 5.66126 58.5295 5.72964L53.7062 2.92676Z" fill="#EBEEF4"/>
<path d="M45.2129 1.85156C44.4103 2.31495 43.7306 3.40038 43.6529 4.36898L42.4959 12.198C42.4826 12.4357 42.31 12.7052 42.1089 12.8214L56.8762 21.404C57.0767 21.2878 57.2506 21.0189 57.2625 20.78L58.4202 12.9515C58.4979 11.9836 59.1783 10.8975 59.9802 10.4341L45.2129 1.85156Z" fill="#457AEF"/>
<path d="M50.1843 4.74609C49.3818 5.20948 48.702 6.29491 48.6244 7.26351L47.4673 15.0919C47.4541 15.3302 47.2815 15.5998 47.0803 15.716L51.9036 18.5188C52.1041 18.4033 52.2774 18.1338 52.29 17.8948L53.447 10.067C53.5253 9.09845 54.2051 8.01236 55.0083 7.54897L50.1843 4.74609Z" fill="#DBDFE6"/>
<path d="M48.5603 26.204L33.793 17.6215L42.108 12.8203L56.8753 21.4029L48.5603 26.204Z" fill="#4F91FF"/>
<path d="M43.5889 23.3189L38.7656 20.5153L47.0806 15.7148L51.9039 18.5177L43.5889 23.3189Z" fill="#EBEEF4"/>
<path d="M63.0438 8.66219C63.3917 8.46104 63.6877 8.61373 63.6877 9.02932L63.7269 22.6494C63.7282 23.0643 63.4348 23.5575 63.087 23.758L47.6419 32.6765C47.2941 32.877 46.9987 32.7243 46.998 32.3094L46.988 28.9117C46.9854 27.9278 47.6917 26.7036 48.5613 26.2018L56.8763 21.4006C57.0768 21.2844 57.2507 21.0156 57.2633 20.7766L58.4203 12.9482C58.498 11.9796 59.1778 10.8941 59.9803 10.4308L63.0438 8.66219Z" fill="#3A63DF"/>
<path d="M48.5613 26.2082L33.794 17.625C32.9244 18.1276 32.2181 19.3511 32.2207 20.3356L32.23 23.7333C32.2307 23.9371 32.303 24.0785 32.4165 24.1449L47.1845 32.7262C47.071 32.6598 46.9986 32.519 46.9986 32.3146L46.9887 28.9175C46.986 27.9336 47.6923 26.7095 48.5619 26.2076L48.5613 26.2082Z" fill="#457AEF"/>
<path d="M43.5892 23.3309L38.7659 20.5273C37.8963 21.0299 37.19 22.2534 37.1926 23.2373L37.2026 26.635C37.2026 26.8395 37.2743 26.9802 37.3885 27.0466L42.2118 29.8495C42.0976 29.7831 42.0259 29.643 42.0259 29.4379L42.0159 26.0408C42.0133 25.057 42.7196 23.8328 43.5892 23.3309Z" fill="#DBDFE6"/>
<path d="M14.8566 30.7862L15.162 34.2942C15.1912 34.4482 15.308 34.5982 15.5105 34.7151C16.2154 35.124 17.4734 34.891 17.5929 34.2942L17.8995 30.7862H14.8566ZM27.8303 23.2446L28.1356 26.7525C28.1648 26.9066 28.2817 27.0566 28.4841 27.1734C29.1891 27.5824 30.447 27.3494 30.5665 26.7525L30.8732 23.2446H27.8303ZM0.993408 22.7812L1.29876 26.2898C1.32797 26.4432 1.44414 26.5932 1.64727 26.7101C2.35225 27.1197 3.60952 26.886 3.72967 26.2898L4.03635 22.7812H0.993408Z" fill="#3D4449"/>
<path d="M14.9925 0.0434163C15.1106 -0.0249628 15.2739 -0.0143412 15.4505 0.0878955L18.5134 1.85646L3.74606 10.4384L0.683865 8.67047C0.506625 8.56823 0.34399 8.55761 0.22583 8.62599L14.9925 0.0434163Z" fill="#4F91FF"/>
<path d="M10.0206 2.92676C10.1387 2.85772 10.302 2.86834 10.4786 2.97058L13.5415 4.7398L8.71816 7.54268L5.6553 5.77412C5.47806 5.67188 5.31543 5.66126 5.19727 5.72964L10.0206 2.92676Z" fill="#EBEEF4"/>
<path d="M18.5144 1.85156C19.3169 2.31495 19.9967 3.40038 20.0744 4.36898L21.2314 12.198C21.2447 12.4357 21.4173 12.7052 21.6184 12.8214L6.85109 21.404C6.65061 21.2878 6.47669 21.0189 6.46474 20.78L5.30704 12.9515C5.22938 11.9836 4.54896 10.8975 3.74707 10.4341L18.5144 1.85156Z" fill="#457AEF"/>
<path d="M13.5425 4.74609C14.345 5.20948 15.0248 6.29491 15.1025 7.26351L16.2595 15.0919C16.2728 15.3302 16.4454 15.5998 16.6465 15.716L11.8232 18.5188C11.6227 18.4033 11.4495 18.1338 11.4368 17.8948L10.2798 10.067C10.2015 9.09845 9.52173 8.01236 8.71851 7.54897L13.5425 4.74609Z" fill="#DBDFE6"/>
<path d="M15.1648 26.204L29.9322 17.6215L21.6172 12.8203L6.84985 21.4029L15.1648 26.204Z" fill="#4F91FF"/>
<path d="M20.1375 23.3189L24.9608 20.5153L16.6458 15.7148L11.8225 18.5177L20.1375 23.3189Z" fill="#EBEEF4"/>
<path d="M0.683074 8.66219C0.335233 8.46104 0.0391698 8.61373 0.0391698 9.02932L4.48801e-06 22.6494C-0.00132315 23.0643 0.292085 23.5575 0.639926 23.758L16.085 32.6765C16.4328 32.877 16.7282 32.7243 16.7289 32.3094L16.7389 28.9117C16.7415 27.9278 16.0352 26.7036 15.1656 26.2018L6.85062 21.4006C6.65014 21.2844 6.47622 21.0156 6.46361 20.7766L5.30657 12.9482C5.22891 11.9796 4.54916 10.8941 3.7466 10.4308L0.683074 8.66219Z" fill="#3A63DF"/>
<path d="M15.1662 26.2082L29.9335 17.625C30.8031 18.1276 31.5094 19.3511 31.5068 20.3356L31.4975 23.7333C31.4968 23.9371 31.4244 24.0785 31.3109 24.1449L16.543 32.7262C16.6565 32.6598 16.7288 32.519 16.7288 32.3146L16.7388 28.9175C16.7414 27.9336 16.0351 26.7095 15.1655 26.2076L15.1662 26.2082Z" fill="#457AEF"/>
<path d="M20.1372 23.3309L24.9605 20.5273C25.8301 21.0299 26.5364 22.2534 26.5338 23.2373L26.5238 26.635C26.5238 26.8395 26.4521 26.9802 26.3379 27.0466L21.5146 29.8495C21.6288 29.7831 21.7005 29.643 21.7005 29.4379L21.7105 26.0408C21.7131 25.057 21.0068 23.8328 20.1372 23.3309Z" fill="#DBDFE6"/>
<path d="M50.7304 44.7919L50.7271 45.9338C50.7264 46.2438 50.5226 46.5525 50.1164 46.7889C49.3019 47.2622 47.9722 47.2622 47.1484 46.7869C46.7335 46.5472 46.5264 46.2326 46.5271 45.9192L46.5304 44.7773C46.5298 45.0907 46.7362 45.4054 47.1518 45.645C47.9749 46.1204 49.3052 46.1204 50.119 45.647C50.5259 45.4107 50.7304 45.1013 50.7304 44.7919Z" fill="#3D4449"/>
<path d="M50.1102 43.9268C50.9334 44.4021 50.938 45.1722 50.1202 45.6482C49.3057 46.1216 47.9761 46.1216 47.1523 45.6463C46.3291 45.1703 46.3245 44.4002 47.139 43.9268C47.9568 43.4515 49.2864 43.4515 50.1102 43.9268Z" fill="#4F575F"/>
<path d="M33.2915 51.6481L33.2888 52.7899C33.2875 53.0993 33.0844 53.408 32.6781 53.6444C31.863 54.1177 30.534 54.1177 29.7102 53.6424C29.2953 53.4034 29.0882 53.0887 29.0889 52.7747L29.0922 51.6328C29.0915 51.9468 29.298 52.2608 29.7129 52.5005C30.5367 52.9758 31.8663 52.9758 32.6808 52.5025C33.0877 52.2661 33.2915 51.9574 33.2915 51.6481Z" fill="#3D4449"/>
<path d="M32.6715 50.7862C33.4947 51.2615 33.4993 52.0323 32.6808 52.5076C31.8663 52.981 30.5367 52.981 29.7136 52.5056C28.8898 52.0303 28.8851 51.2595 29.7003 50.7862C30.5181 50.3109 31.8477 50.3109 32.6715 50.7862Z" fill="#4F575F"/>
<path d="M17.1982 44.7418L17.1949 45.8837C17.1935 46.1931 16.9904 46.5024 16.5841 46.7381C15.7696 47.2114 14.44 47.2114 13.6162 46.7361C13.2013 46.4971 12.9942 46.1824 12.9949 45.8684L12.9982 44.7266C12.9975 45.0406 13.204 45.3546 13.6195 45.5942C14.4427 46.0696 15.7723 46.0696 16.5868 45.5962C16.9937 45.3599 17.1982 45.0512 17.1982 44.7418Z" fill="#3D4449"/>
<path d="M16.5783 43.8721C17.4014 44.3481 17.4061 45.1182 16.5876 45.5935C15.7731 46.0669 14.4434 46.0669 13.6203 45.5916C12.7965 45.1162 12.7918 44.3455 13.607 43.8721C14.4248 43.3968 15.7545 43.3968 16.5783 43.8721Z" fill="#4F575F"/>
<path d="M32.6756 35.1212L32.6437 51.578C32.643 51.7945 32.5003 52.0109 32.2155 52.1768C31.6447 52.5088 30.7153 52.5088 30.1391 52.1768C29.8504 52.0096 29.7056 51.7905 29.7063 51.5707L29.7388 35.1133C29.7382 35.333 29.8822 35.5528 30.1716 35.7194C30.7472 36.052 31.6772 36.0513 32.2474 35.7194C32.5328 35.5534 32.6749 35.3383 32.6756 35.1212Z" fill="#F3B2A1"/>
<path d="M32.2415 34.5026C32.8183 34.8345 32.819 35.3736 32.2468 35.7062C31.6759 36.0381 30.7465 36.0388 30.171 35.7062C29.5968 35.3743 29.5935 34.8352 30.1644 34.5032C30.7366 34.1713 31.6673 34.1713 32.2415 34.5026ZM50.1141 28.1792L50.0816 44.6366C50.0816 44.853 49.9382 45.0695 49.6534 45.2348C49.0826 45.5667 48.1532 45.5674 47.577 45.2348C47.2882 45.0681 47.1442 44.8484 47.1449 44.6293L47.1767 28.1719C47.1767 28.391 47.3208 28.6107 47.6095 28.7773C48.1857 29.1099 49.1151 29.1093 49.686 28.7773C49.9707 28.612 50.1135 28.3956 50.1141 28.1792Z" fill="#F3B2A1"/>
<path d="M49.6804 27.5764C50.2566 27.909 50.2579 28.4474 49.6857 28.78C49.1148 29.112 48.1855 29.1126 47.6093 28.78C47.0351 28.4487 47.0318 27.909 47.6027 27.5777C48.1749 27.2451 49.1062 27.2451 49.6804 27.5764ZM16.5817 28.1819L16.5486 44.6393C16.5486 44.8557 16.4058 45.0722 16.1211 45.2375C15.5502 45.5694 14.6208 45.5701 14.0446 45.2375C13.7559 45.0708 13.6112 44.8511 13.6118 44.632L13.6443 28.1746C13.6437 28.3936 13.7877 28.6134 14.0772 28.78C14.6534 29.1126 15.5827 29.112 16.1536 28.78C16.4384 28.6147 16.5817 28.3983 16.5817 28.1819Z" fill="#F3B2A1"/>
<path d="M16.1489 27.5764C16.7251 27.909 16.7264 28.4474 16.1542 28.78C15.5833 29.112 14.6539 29.1126 14.0778 28.78C13.5036 28.4487 13.5002 27.909 14.0711 27.5777C14.6433 27.2451 15.5747 27.2451 16.1489 27.5764Z" fill="#F3B2A1"/>
<path d="M51.5776 26.7852L51.5683 29.3856C51.5669 29.9093 51.2231 30.4325 50.5374 30.8308L50.5466 28.2304C51.2324 27.8321 51.5756 27.309 51.5776 26.7852Z" fill="#E99B8A"/>
<path d="M12.1482 29.3621L12.1575 26.7617C12.1562 27.2922 12.506 27.8233 13.2063 28.2276L13.197 30.8273C12.4967 30.4236 12.1469 29.8919 12.1482 29.3614V29.3621Z" fill="#F3B2A1"/>
<path d="M50.5468 28.2344L50.5375 30.8348L34.4326 40.1954L34.4419 37.5943L50.5468 28.2344Z" fill="#E99B8A"/>
<path d="M29.4177 37.5943L29.4085 40.1941L13.198 30.8341L13.2073 28.2344L29.4177 37.5943Z" fill="#F3B2A1"/>
<path d="M34.4426 37.5905L34.4333 40.1902C33.0486 40.9949 30.7982 40.9935 29.4082 40.1902L29.4175 37.5898C30.8075 38.3931 33.0579 38.3951 34.4426 37.5905Z" fill="#E99B8A"/>
<path d="M50.5309 25.3137C51.921 26.1163 51.9283 27.4215 50.5475 28.2241L34.4426 37.5847C33.0579 38.3887 30.8075 38.3867 29.4175 37.5847L13.2071 28.2241C11.817 27.4221 11.8064 26.1183 13.1905 25.3137L29.2954 15.953C30.6761 15.1511 32.9304 15.1511 34.3205 15.953L50.5309 25.3137Z" fill="#FDC8B8"/>
<path d="M51.5753 26.6836L51.562 35.1679C44.2899 38.7117 37.0629 44.7835 31.2293 50.4237C29.2046 48.4653 27.1999 46.5733 25.2483 44.7874V44.7808C20.5152 40.4391 16.0544 36.7081 12.1511 34.192L12.1578 26.7965L51.5753 26.6836Z" fill="#DBE6FA"/>
<path d="M37.1044 45.0729C35.1926 46.706 33.2277 48.4919 31.2296 50.4237C29.205 48.4653 27.2003 46.5733 25.2486 44.7874V44.7808C25.4876 43.5991 25.8394 42.444 26.2842 41.3287C26.5364 40.698 26.8219 40.0739 26.9679 39.4101C27.3543 37.6322 26.6745 35.8829 25.7332 34.3314C25.169 33.3887 25.9058 32.446 26.5895 31.749C27.6072 30.7153 28.1827 30.696 29.205 30.8859C29.8555 31.0121 30.5194 31.1515 31.1433 31.3705C31.774 31.1515 32.4378 31.0121 33.0817 30.8859C33.4468 30.8195 33.8185 30.7531 34.1836 30.8129C34.7811 30.9058 35.2789 31.3174 35.7038 31.749C36.3875 32.446 37.1177 33.3887 36.5535 34.3314C35.6208 35.8869 34.9364 37.6203 35.3254 39.4101C35.5876 40.6581 36.4546 41.8219 37.1044 45.0729ZM51.5757 26.6836L51.5624 35.1679C50.1958 35.8374 48.8601 36.5684 47.5596 37.3587C48.3734 33.6158 49.6201 32.9074 49.2523 30.4677C49.0797 29.3059 48.5752 28.2371 47.9712 27.2412C47.8649 27.062 47.8052 26.8828 47.7853 26.6969L51.5757 26.6836ZM14.5087 31.3453C14.1795 29.831 14.6282 28.3187 15.3557 26.9518H12.1409L12.1522 34.1933C13.197 34.8141 14.7942 36.2095 16.155 37.0327C15.9226 35.9639 15.5974 34.273 15.1924 33.2639C14.9402 32.6332 14.6548 32.0092 14.5087 31.3453Z" fill="#CBDBF4"/>
<path d="M50.5473 28.2224L34.4431 37.5831C33.0557 38.393 30.8053 38.3863 29.418 37.5831L13.2075 28.2224C11.8135 27.4258 11.8068 26.1179 13.1876 25.3147L29.2918 15.954C30.6792 15.1507 32.9296 15.1507 34.3169 15.954L50.5274 25.3147C51.9214 26.1179 51.9281 27.4258 50.5473 28.2224Z" fill="#EBF2FF"/>
<path d="M44.044 27.7182L33.5463 33.8205C32.6415 34.3483 31.1745 34.3436 30.2704 33.8205L19.7031 27.7182C18.7943 27.199 18.7903 26.3466 19.6898 25.8228L30.1881 19.7205C31.0922 19.1973 32.5592 19.1973 33.464 19.7205L44.0307 25.8235C44.9388 26.3473 44.9434 27.199 44.044 27.7182Z" fill="#FFCA6C"/>
<path d="M34.6475 22.7774C34.6475 23.7088 34.066 25.5324 33.1805 27.151L33.1738 27.1576C32.7629 27.9483 31.0078 28.1541 30.0094 27.5938C29.6257 27.3853 29.558 27.1802 29.481 27.0521C29.4877 27.0454 29.481 27.0454 29.481 27.0454C28.6293 25.4335 28.0737 23.6889 28.0737 22.7774C28.0737 21.2843 29.5474 20.082 31.3576 20.082C33.1738 20.082 34.6475 21.2843 34.6475 22.7774Z" fill="#804F59"/>
<path d="M29.0818 26.2227C29.2066 26.4962 29.338 26.7697 29.4807 27.0405C29.4807 27.0405 29.4874 27.0406 29.4807 27.0472C29.5704 27.1959 29.6228 27.3791 30.0091 27.5889C31.0314 28.1625 32.7733 27.9228 33.1736 27.1527L33.1802 27.1461C33.3462 26.8427 33.4968 26.5327 33.6396 26.2227C32.0829 27.2497 30.5462 27.3015 29.0818 26.2227Z" fill="#70444D"/>
<path d="M33.1777 18.9663L33.173 20.5822C33.1724 20.8511 32.9958 21.1186 32.6459 21.3224C31.9423 21.7314 30.7899 21.7314 30.077 21.3198C29.7185 21.1133 29.5406 20.8424 29.5413 20.5722L29.5459 18.957C29.5459 19.2266 29.7231 19.4974 30.0816 19.7046C30.7946 20.1162 31.9463 20.1162 32.6506 19.7065C33.0004 19.5034 33.1763 19.2352 33.1777 18.9663Z" fill="#613941"/>
<path d="M32.642 18.2126C33.355 18.6242 33.3543 19.2948 32.6507 19.703C31.9463 20.1126 30.7946 20.1126 30.0817 19.701C29.3687 19.2894 29.3694 18.6242 30.0731 18.2153C30.7767 17.8063 31.9291 17.801 32.642 18.2126Z" fill="#E93565"/>
<path d="M32.9784 17.5195C32.0783 17.0004 30.6245 17.0064 29.7356 17.5228C28.8468 18.0393 28.8461 18.8791 29.7463 19.3983C30.6464 19.9174 32.1002 19.9181 32.989 19.4016C33.8779 18.8851 33.8785 18.0393 32.9784 17.5195ZM29.8445 19.227C29.567 19.0617 29.3752 18.8639 29.3095 18.6587C29.1535 18.2684 29.4641 17.9079 29.8379 17.6941C30.6922 17.2042 32.0643 17.2148 32.8768 17.6941C33.2585 17.9092 33.5513 18.2365 33.4251 18.6587C33.3521 18.8705 31.1615 19.9712 29.8445 19.227Z" fill="#804F59"/>
<path d="M29.8387 17.7032C29.4683 17.9149 29.2705 18.1858 29.2705 18.4699C29.2705 18.5363 29.2838 18.6021 29.3103 18.6678C29.3701 18.4567 29.5546 18.2582 29.8387 18.0935C30.2417 17.8618 30.7834 17.7297 31.3582 17.7297C31.9391 17.7297 32.4741 17.8625 32.8777 18.0935C33.1678 18.2582 33.353 18.4567 33.426 18.6678C33.7407 17.6175 31.3283 16.8481 29.8387 17.7032Z" fill="#70444D"/>
<path d="M29.8385 18.082C29.5543 18.2466 29.3691 18.4451 29.3101 18.6562C29.5816 19.498 31.65 19.9574 32.89 19.2245C33.1675 19.0658 33.3527 18.868 33.4257 18.6562C33.139 17.8231 31.1336 17.3384 29.8385 18.082Z" fill="#613941"/>
<path d="M30.3316 20.0664L30.2447 19.1515C30.1783 18.9557 30.0654 18.7831 29.8364 18.6696C29.2795 18.2912 29.227 17.9811 28.9203 17.5496C28.2353 16.5983 27.3471 16.8592 27.1147 16.8061C27.4181 16.5033 27.8118 16.3659 28.3249 16.4502C28.7345 16.6368 29.4129 16.8359 30.1364 17.0371L30.4863 17.6645C30.2347 17.6943 30.153 17.9267 30.2181 18.3363L30.485 20.0491C30.5002 20.1473 30.3409 20.1653 30.3316 20.0664Z" fill="#28AF6E"/>
<path d="M31.465 19.9581L31.3116 18.6503C31.2008 18.153 30.908 17.9014 30.5947 17.6764L29.4529 15.1941C29.3458 14.6665 29.1462 14.1619 28.8635 13.7037C28.5482 13.1062 28.0098 13.1222 27.1289 13.166C28.8097 12.362 30.053 12.7371 30.6724 13.6068C30.9618 14.0124 31.1848 14.5462 31.3422 15.2087L31.3594 16.4203C31.5672 20.1739 31.5738 19.9767 31.5254 19.9939C31.4975 20.0032 31.4676 19.986 31.4643 19.9581H31.465ZM32.4023 20.0729L32.4189 19.2019C32.2689 18.7731 32.1255 18.0189 31.9821 17.2502L32.93 16.3121C33.2818 16.2265 33.6317 16.1129 33.9523 15.7412C33.955 15.7365 33.9589 15.7325 33.9623 15.7286C34.7788 14.7832 35.9298 14.8768 36.0367 14.8536C35.3948 14.9923 34.9513 15.226 34.7456 15.5739C34.3121 16.3041 33.558 16.6998 33.0263 17.6704C32.7574 18.1517 32.5868 18.6423 32.5377 19.1442L32.5417 20.0736C32.5417 20.1632 32.4003 20.1606 32.4023 20.0729Z" fill="#28AF6E"/>
<path d="M31.12 20.0272C31.3484 19.2731 31.5283 18.1086 31.7015 16.8818L32.7046 14.1805C33.6074 13.7689 34.6104 13.6102 35.6121 13.6799C34.7697 13.6899 34.1384 13.9442 33.9745 14.7401C33.5981 15.7419 33.0982 16.6328 32.4158 17.3598C32.1257 17.5463 31.8828 17.8398 31.6803 18.2235C31.4705 18.6231 31.3444 19.2963 31.2428 20.0505C31.2316 20.1348 31.0948 20.1096 31.12 20.0272Z" fill="#39C988"/>
<path d="M31.6405 20.2399L31.7626 18.6174C31.6982 17.6528 31.4971 16.584 31.2349 15.4687C31.0125 14.3262 31.2243 13.4937 31.9737 13.0449L32.6661 12.5204C32.8513 12.2927 33.008 12.0278 33.144 11.737C33.4454 11.3042 34.0077 11.1422 34.7352 11.1528C33.318 11.589 33.2509 13.6065 33.079 14.1615C32.9801 15.0919 32.754 16.0044 32.4072 16.8734C32.1463 17.3541 31.9691 17.8586 31.92 18.3871C31.6478 20.2758 31.9 20.3156 31.7168 20.3163C31.6723 20.3163 31.6372 20.2811 31.6405 20.2399Z" fill="#49E4A3"/>
<path d="M30.9523 20.4673C30.9349 20.4677 30.9179 20.4615 30.9049 20.4499C30.8918 20.4383 30.8836 20.4222 30.882 20.4049C30.8275 19.6348 30.8262 19.0579 30.4956 18.3767C30.2467 17.9054 29.7468 17.6976 29.5636 17.1479L29.2098 15.9304C28.9907 15.0587 28.0541 14.5163 27.6067 14.0941L29.1793 14.7885C29.9181 15.0341 30.4671 15.548 30.6755 16.5783C30.7957 17.1346 30.8501 17.7235 30.7957 18.3668C30.7691 18.7585 30.8952 19.575 31.0214 20.3916C31.028 20.4314 30.9948 20.4666 30.9523 20.4673ZM31.8697 17.1034C32.1127 16.5259 31.8193 15.9934 32.0689 14.7619C32.2614 13.8856 32.5966 13.2191 33.0633 12.6289C32.3981 13.7044 32.0908 14.7672 32.0536 15.9443C32.0456 16.3293 32.0682 16.7522 31.8697 17.1034Z" fill="#39C988"/>
<path d="M30.6168 18.0873C30.4036 17.9122 30.2386 17.6855 30.1375 17.4287C30.0267 17.1758 30.0114 16.8777 30.0081 16.6208C30.0313 16.3513 29.8999 16.1216 29.7705 15.8866C29.6397 15.6562 29.4983 15.4212 29.2573 15.2891C29.5229 15.3747 29.7041 15.615 29.8508 15.8374C30.3387 16.5703 29.9849 16.5956 30.2258 17.3969C30.3055 17.6478 30.4409 17.8815 30.6168 18.0873Z" fill="#28AF6E"/>
<path d="M33.6541 18.4651L33.6468 19.3487C33.6455 19.6873 33.4231 20.0258 32.981 20.2834C32.0928 20.7999 30.6377 20.7999 29.7383 20.2801C29.2869 20.0192 29.0612 19.6773 29.0625 19.3361L29.0698 18.4531C29.0691 18.7937 29.2942 19.1356 29.7462 19.3965C30.6457 19.9163 32.1001 19.9163 32.989 19.3998C33.4311 19.1429 33.6528 18.8043 33.6541 18.4651Z" fill="#70444D"/>
<path d="M33.438 18.582C33.4327 18.6093 33.4327 18.6365 33.4248 18.6637C33.3517 18.8755 33.1665 19.0733 32.8891 19.232C32.0805 19.71 30.7157 19.7246 29.8441 19.232C29.5666 19.0667 29.3748 18.8688 29.3091 18.6637C29.2978 18.6371 29.2991 18.6093 29.2925 18.582H29.0894C29.2693 19.7246 31.647 20.186 32.9886 19.4066C33.3823 19.1775 33.5914 18.8834 33.6352 18.582H33.438Z" fill="#804F59"/>
</svg>
