<svg width="50" height="52" viewBox="0 0 50 52" fill="none" xmlns="http://www.w3.org/2000/svg">
<path d="M50.0002 12.0717V44.8276C50.0002 47.6808 47.6812 49.9995 44.8277 49.9995H5.17243C2.31897 49.9995 0 47.6808 0 44.8276V12.0717L0.862072 10.3477H49.1381L50.0002 12.0717Z" fill="#ECECEC"/>
<path d="M50.0002 8.60948V12.0575H0V8.60948C0 5.75627 2.31897 3.4375 5.17243 3.4375H44.8277C47.6812 3.4375 50.0002 5.75627 50.0002 8.60948Z" fill="#F9415B"/>
<path d="M8.62065 1.724C8.62065 0.771859 7.84873 0 6.89651 0C5.94429 0 5.17236 0.771859 5.17236 1.724V5.17199C5.17236 6.12412 5.94429 6.89598 6.89651 6.89598C7.84873 6.89598 8.62065 6.12412 8.62065 5.17199V1.724Z" fill="#313851"/>
<path d="M20.6895 1.724C20.6895 0.771859 19.9176 0 18.9654 0C18.0131 0 17.2412 0.771859 17.2412 1.724V5.17199C17.2412 6.12412 18.0131 6.89598 18.9654 6.89598C19.9176 6.89598 20.6895 6.12412 20.6895 5.17199V1.724Z" fill="#313851"/>
<path d="M32.7586 1.724C32.7586 0.771859 31.9867 0 31.0344 0C30.0822 0 29.3103 0.771859 29.3103 1.724V5.17199C29.3103 6.12412 30.0822 6.89598 31.0344 6.89598C31.9867 6.89598 32.7586 6.12412 32.7586 5.17199V1.724Z" fill="#313851"/>
<path d="M44.8279 1.724C44.8279 0.771859 44.056 0 43.1038 0C42.1516 0 41.3796 0.771859 41.3796 1.724V5.17199C41.3796 6.12412 42.1516 6.89598 43.1038 6.89598C44.056 6.89598 44.8279 6.12412 44.8279 5.17199V1.724Z" fill="#313851"/>
<g filter="url(#filter0_di_2051_600)">
<path d="M42.2417 26.2625C42.2417 39.0847 25.0002 45.679 25.0002 45.679C25.0002 45.679 7.75879 39.0847 7.75879 26.2625C7.75879 20.7966 11.9243 16.3711 17.0692 16.3711C20.4209 16.3711 23.2166 18.1296 25.0002 20.4742C26.7839 18.1296 29.5796 16.3711 32.9313 16.3711C38.0761 16.3711 42.2417 20.7966 42.2417 26.2625Z" fill="#F9415B"/>
</g>
<path d="M25.0001 38.7905C24.6156 38.7905 24.2768 38.5354 24.1708 38.1647L21.5518 28.9974L20.657 32.1307C20.551 32.5014 20.2122 32.7565 19.8277 32.7565H16.3794C16.1508 32.7565 15.9315 32.6657 15.7698 32.504C15.6082 32.3424 15.5173 32.1231 15.5173 31.8945C15.5173 31.6659 15.6082 31.4467 15.7698 31.285C15.9315 31.1233 16.1508 31.0325 16.3794 31.0325H19.1777L20.7225 25.6244C20.7743 25.4444 20.8832 25.2862 21.0328 25.1735C21.1824 25.0609 21.3646 25 21.5518 25C21.7391 25 21.9213 25.0609 22.0709 25.1735C22.2205 25.2862 22.3294 25.4444 22.3811 25.6244L24.9812 34.7236L26.7553 28.2207C26.8013 28.0523 26.8973 27.9019 27.0306 27.7893C27.1639 27.6767 27.3283 27.6071 27.502 27.59C27.6757 27.5728 27.8505 27.6087 28.0033 27.693C28.1562 27.7773 28.2798 27.906 28.3579 28.0621L29.8441 31.0334H33.6217C33.8503 31.0334 34.0696 31.1242 34.2313 31.2859C34.3929 31.4475 34.4838 31.6668 34.4838 31.8954C34.4838 32.124 34.3929 32.3433 34.2313 32.5049C34.0696 32.6666 33.8503 32.7574 33.6217 32.7574H29.3113C28.9846 32.7574 28.6863 32.5729 28.5398 32.2807L27.8251 30.8506L25.832 38.1561C25.7825 38.3377 25.6749 38.4981 25.5256 38.6129C25.3763 38.7276 25.1936 38.7903 25.0053 38.7914L25.0001 38.7905Z" fill="white"/>
<defs>
<filter id="filter0_di_2051_600" x="3.75879" y="14.3711" width="42.4829" height="37.3086" filterUnits="userSpaceOnUse" color-interpolation-filters="sRGB">
<feFlood flood-opacity="0" result="BackgroundImageFix"/>
<feColorMatrix in="SourceAlpha" type="matrix" values="0 0 0 0 0 0 0 0 0 0 0 0 0 0 0 0 0 0 127 0" result="hardAlpha"/>
<feOffset dy="2"/>
<feGaussianBlur stdDeviation="2"/>
<feComposite in2="hardAlpha" operator="out"/>
<feColorMatrix type="matrix" values="0 0 0 0 0 0 0 0 0 0 0 0 0 0 0 0 0 0 0.14 0"/>
<feBlend mode="normal" in2="BackgroundImageFix" result="effect1_dropShadow_2051_600"/>
<feBlend mode="normal" in="SourceGraphic" in2="effect1_dropShadow_2051_600" result="shape"/>
<feColorMatrix in="SourceAlpha" type="matrix" values="0 0 0 0 0 0 0 0 0 0 0 0 0 0 0 0 0 0 127 0" result="hardAlpha"/>
<feOffset dy="5"/>
<feGaussianBlur stdDeviation="2.5"/>
<feComposite in2="hardAlpha" operator="arithmetic" k2="-1" k3="1"/>
<feColorMatrix type="matrix" values="0 0 0 0 0 0 0 0 0 0 0 0 0 0 0 0 0 0 0.14 0"/>
<feBlend mode="normal" in2="shape" result="effect2_innerShadow_2051_600"/>
</filter>
</defs>
</svg>
