<svg width="65" height="50" viewBox="0 0 65 50" fill="none" xmlns="http://www.w3.org/2000/svg">
<path d="M21.4022 11.7422L18.4742 14.0364C13.416 17.996 15.3731 28.9368 22.8381 38.471C30.3031 48.0051 40.4496 52.5242 45.5078 48.5636L48.4358 46.2694C47.3995 47.0814 46.0783 47.5513 44.7974 47.656C39.378 48.1993 31.7128 43.7839 25.7611 36.1828C19.8094 28.5816 17.3573 20.0749 19.1836 14.943C19.5951 13.7195 20.3709 12.5502 21.4022 11.7422Z" fill="#F9E662"/>
<path d="M20.1143 13.1142C19.7259 13.6576 19.4099 14.2684 19.1835 14.9435C17.3573 20.0754 19.8094 28.5811 25.7611 36.1833C31.7127 43.7855 39.378 48.1988 44.7974 47.6565C46.0783 47.5518 47.4004 47.0829 48.4368 46.2709C53.494 42.3103 51.5419 31.3755 44.0769 21.8413C36.0082 11.5364 24.4248 6.86242 20.1143 13.1142Z" fill="#FFC700"/>
<path d="M50.9323 39.269C49.7983 38.8182 48.6322 38.4942 47.5112 37.9518C46.2473 37.3232 45.0348 36.5961 43.8849 35.7773C42.6512 34.9143 41.4797 33.9654 40.3793 32.9377C37.1584 30.3499 33.8917 27.8195 30.5809 25.3476C26.045 21.9757 22.2757 18.0725 16.9368 16.2251C13.6999 15.0981 10.5263 14.3414 7.1465 14.9421C5.86862 19.1643 7.12134 23.9127 9.59962 27.6519C11.9763 27.2142 14.5964 27.7707 16.802 28.8655C20.5964 30.7421 23.6029 33.9168 26.8519 36.5713C28.8502 38.2034 30.9321 39.7399 33.1709 41.035C37.4321 43.5002 41.0595 45.2159 45.856 43.9993C47.5807 43.5506 50.3467 41.0058 50.9323 39.269Z" fill="#FF5252"/>
<path d="M45.6187 37.7004C45.1017 39.556 44.4048 41.3567 43.5378 43.0768C46.3713 42.7789 49.1756 41.2253 50.7302 38.8385C49.57 38.1945 48.3425 37.6411 47.0233 37.4972C46.5635 37.4469 46.0745 37.623 45.6187 37.7004Z" fill="#FF0041"/>
<path d="M28.8019 10.9805C27.9266 11.1446 27.1032 11.5155 26.4001 12.0622L23.9128 14.0082C22.6088 15.0276 21.8541 16.6013 21.6187 18.5233C24.7429 20.4955 27.4747 23.0413 30.5809 25.3496C33.9084 27.825 37.1564 30.3607 40.3793 32.9397C34.4296 27.4627 28.9508 18.651 28.8019 10.9805Z" fill="#C50241"/>
<path d="M34.5554 1.44922L31.6243 3.74043C29.6652 5.27294 28.7566 7.84892 28.8019 10.9793C29.0152 21.9574 40.4054 36.4564 50.9534 39.2618C53.9881 40.0607 56.7059 39.8011 58.6569 38.2616L61.588 35.9704C58.8481 38.1267 54.9048 37.5421 51.6809 36.2028C39.6316 31.2722 29.0454 13.8683 32.3367 4.64705C32.7361 3.43755 33.527 2.23308 34.5554 1.44922Z" fill="#F9E662"/>
<path d="M33.2632 2.82227C32.8748 3.36463 32.5589 3.97542 32.3325 4.65061C30.5062 9.78244 32.9583 18.2882 38.91 25.8894C44.8617 33.4905 52.5269 37.9059 57.9463 37.3635C59.2272 37.2579 60.5493 36.789 61.5857 35.9769C66.6429 32.0174 64.6909 21.0825 57.2259 11.5474C49.1561 1.24347 37.5738 -3.42951 33.2632 2.82227Z" fill="#FFC700"/>
<path d="M57.9456 19.8131C59.4167 18.6595 58.7116 15.3041 56.3706 12.3185C54.0297 9.33284 50.9395 7.84764 49.4684 9.00118C47.9972 10.1547 48.7024 13.5102 51.0433 16.4958C53.3842 19.4814 56.4745 20.9666 57.9456 19.8131Z" fill="white"/>
<path d="M46.7474 26.9654C48.2185 25.8119 47.5133 22.4564 45.1724 19.4708C42.8315 16.4852 39.7412 15 38.2701 16.1535C36.799 17.3071 37.5041 20.6625 39.8451 23.6481C42.186 26.6337 45.2763 28.1189 46.7474 26.9654Z" fill="white"/>
<path d="M60.0708 34.0357C61.5419 32.8822 60.8368 29.5267 58.4959 26.5411C56.155 23.5555 53.0647 22.0703 51.5936 23.2238C50.1225 24.3774 50.8276 27.7328 53.1686 30.7184C55.5095 33.7041 58.5997 35.1893 60.0708 34.0357Z" fill="white"/>
<path d="M44.6983 14.4224C46.1694 13.2689 45.4643 9.91345 43.1233 6.92783C40.7824 3.94221 37.6921 2.45702 36.221 3.61056C34.7499 4.76409 35.4551 8.11954 37.796 11.1052C40.1369 14.0908 43.2272 15.576 44.6983 14.4224Z" fill="white"/>
<path d="M49.4824 9.03799C49.1946 9.26835 48.9811 9.57845 48.8687 9.92952C50.4876 9.77254 52.8713 11.2044 54.765 13.6244C56.6587 16.0444 57.4787 18.7019 56.9384 20.2354C57.3061 20.2103 57.6582 20.0773 57.9506 19.8531C59.4207 18.7019 58.7183 15.3501 56.3789 12.3616C54.0385 9.37307 50.9525 7.88685 49.4824 9.03799Z" fill="#BBBBBB"/>
<path d="M57.9456 19.8131C59.4167 18.6595 58.7116 15.3041 56.3706 12.3185C54.0297 9.33284 50.9395 7.84764 49.4684 9.00118C47.9972 10.1547 48.7024 13.5102 51.0433 16.4958C53.3842 19.4814 56.4745 20.9666 57.9456 19.8131Z" fill="white"/>
<path d="M49.4824 9.03799C49.1946 9.26835 48.9811 9.57845 48.8687 9.92952C50.4876 9.77254 52.8713 11.2044 54.765 13.6244C56.6587 16.0444 57.4787 18.7019 56.9384 20.2354C57.3061 20.2103 57.6582 20.0773 57.9506 19.8531C59.4207 18.7019 58.7183 15.3501 56.3789 12.3616C54.0385 9.37307 50.9525 7.88685 49.4824 9.03799Z" fill="#BBBBBB"/>
<path d="M57.9456 19.8131C59.4167 18.6595 58.7116 15.3041 56.3706 12.3185C54.0297 9.33284 50.9395 7.84764 49.4684 9.00118C47.9972 10.1547 48.7024 13.5102 51.0433 16.4958C53.3842 19.4814 56.4745 20.9666 57.9456 19.8131Z" fill="white"/>
<path d="M49.4824 9.03799C49.1946 9.26835 48.9811 9.57845 48.8687 9.92952C50.4876 9.77254 52.8713 11.2044 54.765 13.6244C56.6587 16.0444 57.4787 18.7019 56.9384 20.2354C57.3061 20.2103 57.6582 20.0773 57.9506 19.8531C59.4207 18.7019 58.7183 15.3501 56.3789 12.3616C54.0385 9.37307 50.9525 7.88685 49.4824 9.03799Z" fill="#FF9F00"/>
<path d="M50.0244 20.8303C50.5902 20.3866 50.3193 19.0963 49.4192 17.9483C48.5191 16.8003 47.3307 16.2294 46.7648 16.6731C46.199 17.1169 46.4699 18.4072 47.37 19.5552C48.2701 20.7031 49.4585 21.2741 50.0244 20.8303Z" fill="white"/>
<path d="M46.7717 16.708C46.661 16.7964 46.5787 16.9154 46.5352 17.0502C47.962 16.9113 50.1153 19.6604 49.6384 21.0128C49.7797 21.0034 49.9151 20.9527 50.0278 20.8668C50.5932 20.4241 50.3226 19.1351 49.424 17.985C48.5235 16.8358 47.3372 16.2653 46.7717 16.708ZM38.2814 16.1908C37.9941 16.421 37.7809 16.7308 37.6686 17.0814C39.2916 16.9304 41.6753 18.3633 43.5649 20.7763C45.4546 23.1893 46.2736 25.8477 45.7383 27.3873C46.1055 27.3623 46.4572 27.2296 46.7495 27.0059C48.2206 25.8548 47.5183 22.502 45.1779 19.5135C42.8384 16.5249 39.7524 15.0387 38.2814 16.1908ZM51.6025 23.2637C51.3146 23.494 51.1011 23.8042 50.9887 24.1552C52.6077 23.9973 54.9913 25.4302 56.885 27.8502C58.7797 30.2692 59.5987 32.9277 59.0584 34.4612C59.4261 34.4361 59.7782 34.303 60.0706 34.0788C61.5407 32.9277 60.8384 29.5759 58.499 26.5873C56.1585 23.5988 53.0725 22.1126 51.6025 23.2637ZM36.2307 3.63093C35.9429 3.86125 35.7294 4.17137 35.6169 4.52246C37.2359 4.36549 39.6246 5.80341 41.5183 8.22342C43.408 10.6364 44.232 13.3009 43.6917 14.8344C44.059 14.8091 44.4108 14.6761 44.7029 14.4521C46.174 13.3009 45.4666 9.94308 43.1313 6.96058C40.7918 3.97205 37.7008 2.47979 36.2307 3.63093Z" fill="#FF9F00"/>
<path d="M7.1475 14.9453C1.21494 18.2277 -0.985623 23.2951 0.400922 29.9252C1.79149 36.5614 5.67543 41.2927 10.4046 46.1469L19.9896 38.1362C16.0101 35.3157 13.24 32.621 10.3211 28.7006C7.37088 24.7733 5.75894 19.6082 7.1475 14.9453Z" fill="#E6033A"/>
<path d="M2.8187 32.9521C3.83999 37.0546 6.83142 40.7314 10.003 43.5267L16.8492 37.8314C13.3979 35.6579 10.3974 32.287 8.48159 28.6857C6.64427 29.9364 4.65702 31.7014 2.8187 32.9521ZM5.10579 17.0938C4.17807 20.4496 4.93776 24.2451 7.04675 27.0153L2.07612 30.4023C0.395765 25.8541 1.85677 20.6921 5.10478 17.0938H5.10579Z" fill="#C50241"/>
<path d="M10.1123 26.396C13.5535 26.0498 17.1074 26.9977 19.9198 29.0102C21.1604 26.6646 22.9082 24.5123 24.7415 22.5934C20.9632 19.1238 15.739 17.1395 10.6134 17.3559C9.64444 19.952 9.37075 23.7264 10.1123 26.396ZM25.7225 23.8844C24.543 25.9838 23.0439 27.8869 21.2791 29.5254C24.0995 31.6707 27.0095 34.2205 29.6568 36.5389C31.2727 34.4821 32.9923 32.4364 34.6083 30.3797C31.6068 28.1217 28.5379 26.2641 25.7225 23.8844ZM44.8464 37.0963C41.3096 35.8093 37.8996 33.8945 35.2351 31.237C34.0181 33.408 32.5155 35.4061 30.7676 37.1778C33.8104 40.2932 37.9569 42.524 42.2584 43.1982C42.2584 43.1982 44.0978 39.143 44.8464 37.0963Z" fill="#FF0041"/>
<path d="M10.9048 14.7981C9.69737 14.7005 8.44364 14.7186 7.14765 14.9491C6.05291 18.5635 6.84177 22.7374 8.60061 25.9422C7.57931 21.9273 7.65478 17.3882 10.9048 14.7981Z" fill="black" fill-opacity="0.0941176"/>
<path d="M19.7601 29.1285C19.7368 29.1288 19.714 29.1226 19.6941 29.1106C19.6741 29.0985 19.658 29.0812 19.6474 29.0605C19.6369 29.0397 19.6323 29.0165 19.6342 28.9933C19.6362 28.9701 19.6446 28.948 19.6585 28.9293C21.1931 26.8162 22.8207 24.7722 24.5365 22.8033C21.7564 19.9265 17.956 18.1595 13.5387 17.6916C13.3747 17.6745 13.3979 17.427 13.5649 17.441C18.0848 17.921 21.9687 19.7433 24.7981 22.7117C24.8434 22.759 24.8444 22.8325 24.8022 22.8818C23.0635 24.8716 21.415 26.9385 19.8617 29.0762C19.8501 29.0923 19.8349 29.1055 19.8172 29.1146C19.7995 29.1237 19.78 29.1285 19.7601 29.1285ZM29.4971 36.5486C30.8475 34.3423 32.4505 32.3009 34.2735 30.4658C32.063 28.5197 29.6157 26.8603 26.9896 25.5272C26.8437 25.4537 26.9524 25.2273 27.1043 25.3028C29.7891 26.666 32.288 28.3677 34.5402 30.3662C34.553 30.3776 34.5633 30.3915 34.5706 30.4071C34.5778 30.4227 34.5818 30.4395 34.5823 30.4567C34.5827 30.4738 34.5797 30.4909 34.5733 30.5069C34.5669 30.5228 34.5574 30.5372 34.5452 30.5493C32.6975 32.395 31.075 34.453 29.7114 36.6804C29.6239 36.8223 29.4096 36.6894 29.4971 36.5486ZM42.145 43.1576L44.5841 37.3968C42.9651 36.7629 41.163 35.66 39.3659 34.197C39.2371 34.0913 39.3931 33.8971 39.5249 34.0008C41.3471 35.484 43.1694 36.5938 44.7954 37.2087C44.811 37.215 44.8252 37.2243 44.8372 37.2361C44.8492 37.2479 44.8588 37.262 44.8653 37.2775C44.8719 37.293 44.8753 37.3097 44.8754 37.3266C44.8755 37.3434 44.8722 37.3601 44.8658 37.3757L42.3775 43.2562C42.3111 43.4101 42.0806 43.3105 42.146 43.1576H42.145ZM31.746 6.5374C31.7701 6.36936 32.0186 6.41062 31.9945 6.57363C31.2197 11.9228 33.9063 19.2935 39.0097 25.81C44.7954 33.1988 52.4053 37.7842 57.9343 37.2368C58.0732 37.1905 58.1456 37.4683 57.9585 37.4864C46.4224 38.6667 29.9086 19.205 31.746 6.5374Z" fill="white"/>
<path opacity="0.52" d="M15.7775 39.1484C15.591 39.1484 15.4084 39.0961 15.2502 38.9974C11.5836 36.7334 8.41709 32.644 6.67536 29.572C6.54606 29.3399 6.51375 29.0662 6.58548 28.8104C6.6572 28.5547 6.82714 28.3377 7.05823 28.2067C7.28932 28.0757 7.56282 28.0415 7.81907 28.1114C8.07533 28.1813 8.29355 28.3497 8.42615 28.5798C10.4597 32.1671 13.5538 35.5833 16.3077 37.2858C16.4945 37.4007 16.6386 37.5734 16.718 37.7777C16.7975 37.982 16.808 38.2067 16.748 38.4175C16.6879 38.6284 16.5606 38.8138 16.3854 38.9456C16.2102 39.0773 15.9967 39.1492 15.7775 39.1484ZM47.3239 5.94643C45.548 4.45101 43.37 3.51354 41.0633 3.25171C40.9319 3.23719 40.8047 3.19693 40.6889 3.13324C40.5732 3.06955 40.4711 2.98367 40.3885 2.88051C40.3059 2.77735 40.2444 2.65894 40.2076 2.53202C40.1707 2.4051 40.1593 2.27217 40.1738 2.14082C40.2342 1.58739 40.7353 1.19596 41.2846 1.25131C43.989 1.55837 46.5425 2.65718 48.6249 4.4099C48.8285 4.58243 48.9552 4.82878 48.9772 5.09477C48.9992 5.36075 48.9146 5.62457 48.7421 5.82819C48.5696 6.03182 48.3232 6.15856 48.0573 6.18055C47.7913 6.20253 47.5275 6.11896 47.3239 5.94643Z" fill="white"/>
<path d="M3.92667 14.5963L0.317424 12.2819C0.303574 12.273 0.291617 12.2615 0.282242 12.248C0.272868 12.2344 0.26626 12.2192 0.2628 12.2031C0.25934 12.187 0.259095 12.1704 0.262081 12.1542C0.265066 12.1381 0.271222 12.1226 0.280194 12.1088C0.298329 12.0811 0.326592 12.0616 0.358936 12.0544C0.39128 12.0473 0.425136 12.0531 0.453261 12.0706L4.0625 14.3849C4.20136 14.4735 4.06854 14.6858 3.92667 14.5963ZM8.43646 13.4592C8.41764 13.4592 8.39906 13.455 8.38209 13.4468C8.36512 13.4387 8.3502 13.4268 8.33842 13.4122C8.32664 13.3975 8.3183 13.3803 8.31402 13.362C8.30975 13.3437 8.30964 13.3246 8.3137 13.3063L9.25148 9.13337C9.2867 8.97036 9.53322 9.0247 9.49699 9.18771L8.55921 13.3606C8.55286 13.3885 8.53728 13.4134 8.515 13.4313C8.49272 13.4492 8.46504 13.459 8.43646 13.4592ZM5.78914 13.8033C5.5869 13.8033 5.74185 13.8687 4.57164 7.5898C4.56677 7.55741 4.57473 7.52439 4.59382 7.49778C4.61291 7.47116 4.64163 7.45305 4.67387 7.44728C4.70611 7.44151 4.73933 7.44855 4.76647 7.4669C4.7936 7.48524 4.81251 7.51345 4.81917 7.54552L5.91291 13.6554C5.91614 13.6735 5.91537 13.6921 5.91065 13.7099C5.90592 13.7277 5.89736 13.7442 5.88556 13.7583C5.87376 13.7724 5.85901 13.7837 5.84235 13.7915C5.82569 13.7993 5.80753 13.8033 5.78914 13.8033Z" fill="#451326"/>
</svg>
