<svg width="57" height="50" viewBox="0 0 57 50" fill="none" xmlns="http://www.w3.org/2000/svg">
<path d="M3.33325 50H13.3333V43.3333L8.33329 40L3.33325 43.3333V50Z" fill="#995C5C"/>
<path d="M43.3335 43.3333V50H53.3336V43.3333L48.3335 40L43.3335 43.3333Z" fill="#804040"/>
<path d="M28.3336 30L25.8269 31.6667L28.3263 33.3333L46.0305 36.6667L49.3638 30L39.5412 28.0977L28.3336 30Z" fill="#DC7D00"/>
<path d="M28.3259 26.668L7.30298 30.0013L10.6363 36.668H28.3259V26.668Z" fill="#FF9E22"/>
<path d="M30.0221 6.66317L28.3335 9.44096L26.6448 6.66317L26.6668 2.33594H30.0001L30.0221 6.66317Z" fill="#F8C045"/>
<path d="M30.0219 6.66317L28.3333 9.44096V2.33594H29.9999L30.0219 6.66317Z" fill="#FF9E22"/>
<path d="M28.3333 3.33334H23.3333V0H28.3333L29.6214 1.66667L28.3333 3.33334Z" fill="#FFDD70"/>
<path d="M28.3333 0H33.3333V3.33334H28.3333V0Z" fill="#F8C045"/>
<path d="M28.3336 6.66797H26.6449C15.6289 6.66797 6.66675 15.6301 6.66675 26.646L18.6619 28.773L28.3262 26.668L32.9624 17.7206L28.3336 6.66797Z" fill="#FFDD70"/>
<path d="M0 33.332V43.3321H28.3335L32.9623 38.332L28.3262 33.332H0Z" fill="#B37D7D"/>
<path d="M28.3259 33.332H56.6668V43.3321H28.3259V33.332Z" fill="#995C5C"/>
<path d="M30.0219 6.66797H28.3333V30.0014L50.0001 26.646C50.0001 15.6301 41.0379 6.66797 30.0219 6.66797Z" fill="#F8C045"/>
<path d="M28.3334 30.0013H3.33325V26.668H28.3334L30.0001 28.3346L28.3334 30.0013Z" fill="#F8C045"/>
<path d="M28.3333 26.668H53.3334V30.0013H28.3333V26.668Z" fill="#FF9E22"/>
</svg>
