<svg width="100" height="100" viewBox="0 0 100 100" fill="none" xmlns="http://www.w3.org/2000/svg">
<path d="M50 100C77.6142 100 100 77.6142 100 50C100 22.3858 77.6142 0 50 0C22.3858 0 0 22.3858 0 50C0 77.6142 22.3858 100 50 100Z" fill="url(#paint0_linear_3069_372)"/>
<path d="M78.6646 28.6035C76.735 26.6738 73.5568 26.6738 71.5704 28.6035L39.4478 60.7261L28.2674 49.5456C26.3945 47.6727 23.273 47.6727 21.4002 49.5456L21.2867 49.6591C19.3003 51.6455 19.3003 54.8237 21.2867 56.7533L35.8724 71.339C37.802 73.2686 40.9802 73.2686 42.9666 71.339L78.6646 35.6409C80.651 33.7113 80.651 30.5331 78.6646 28.6035Z" fill="white"/>
<defs>
<linearGradient id="paint0_linear_3069_372" x1="14.6379" y1="14.6095" x2="85.3678" y2="85.3337" gradientUnits="userSpaceOnUse">
<stop stop-color="#3FDE00"/>
<stop offset="0.27" stop-color="#31CB03"/>
<stop offset="0.81" stop-color="#0D9B0E"/>
<stop offset="1" stop-color="#008A12"/>
</linearGradient>
</defs>
</svg>
