<svg width="180" height="180" viewBox="0 0 180 180" fill="none" xmlns="http://www.w3.org/2000/svg">
<circle cx="90" cy="90" r="90" fill="white"/>
<path d="M90 28.75C56.173 28.75 28.75 56.173 28.75 90C28.75 123.827 56.173 151.25 90 151.25C123.827 151.25 151.25 123.827 151.25 90C151.25 56.173 123.827 28.75 90 28.75Z" fill="url(#paint0_linear_136_3770)"/>
<path d="M89.9996 129.124C68.3919 129.124 50.8749 111.607 50.8749 89.9996C50.8749 68.3919 68.3919 50.875 89.9996 50.875C111.607 50.875 129.124 68.3919 129.124 89.9996C129.124 111.607 111.607 129.124 89.9996 129.124Z" fill="white"/>
<path d="M53.3935 89.9979H90.0009V53.3906C69.7836 53.3906 53.3935 69.781 53.3935 89.9979ZM90.0009 89.9979V126.606C110.219 126.606 126.608 110.216 126.608 89.9979H90.0009Z" fill="url(#paint1_linear_136_3770)"/>
<path fill-rule="evenodd" clip-rule="evenodd" d="M56.0654 52.1956C57.9473 51.0288 59.952 51.4087 61.2489 52.6692C63.2417 54.6062 62.9485 56.8458 61.053 59.1048L52.7568 68.9915L40.3903 58.6145L48.2572 49.2394C49.8854 47.299 52.1619 45.7494 54.3251 47.5645C54.3651 47.598 54.4037 47.6302 54.4411 47.6615C55.029 48.1519 55.3248 48.3987 56.0871 49.7887C56.278 50.3133 56.4248 51.264 56.0654 52.1956ZM52.5564 51.6014C51.7607 50.934 50.5236 50.9071 49.9762 51.5597L45.2511 57.1906L48.1741 59.6434L52.8458 54.076C53.4333 53.3762 53.4312 52.3354 52.5564 51.6014ZM53.3627 63.9974L58.2882 58.1276C58.9424 57.3481 58.8479 56.1335 57.8934 55.3331C57.0503 54.6253 55.8001 54.8199 55.2394 55.4881L50.274 61.4057L53.3627 63.9974Z" fill="white"/>
<path d="M96.2969 36.9588L92.0501 48.2156H88.5239L84.2766 36.9588V48.2156H81.0492V32.0938H85.8989L90.287 43.577L94.6751 32.0938H99.5248V48.2156H96.2969V36.9588Z" fill="white"/>
<path d="M129.369 63.5249L135.446 54.9213L132.77 51.6166L123.091 55.7719L129.424 47.4867L126.93 44.4062L116.816 57.4161L119.772 61.0373L129.327 57.1055L129.361 57.1482L123.529 65.6763L126.456 69.3207L141.285 62.1327L138.79 59.0523L129.369 63.5249Z" fill="white"/>
<defs>
<linearGradient id="paint0_linear_136_3770" x1="47.4607" y1="47.4606" x2="130.177" y2="134.903" gradientUnits="userSpaceOnUse">
<stop offset="0.0273393" stop-color="#949AA0"/>
<stop offset="0.403335" stop-color="#1A1D1E"/>
<stop offset="1" stop-color="#040606"/>
</linearGradient>
<linearGradient id="paint1_linear_136_3770" x1="90.0009" y1="53.3906" x2="90.0009" y2="126.606" gradientUnits="userSpaceOnUse">
<stop stop-color="#7CD1F4"/>
<stop offset="1" stop-color="#1274B9"/>
</linearGradient>
</defs>
</svg>
