<svg width="60" height="50" viewBox="0 0 60 50" fill="none" xmlns="http://www.w3.org/2000/svg">
<path d="M41.892 6.75677H40.1352L38.5136 2.56755C37.8379 1.08107 36.3514 0 34.7298 0H24.865C23.2433 0 21.7568 0.945892 21.0812 2.56755L19.4595 6.75677H17.5676C16.7568 6.75677 16.2163 7.29736 16.2163 8.10808V9.45938H24.3244V8.10808C24.3244 7.29724 23.7838 6.75677 22.9731 6.75677H22.2974L23.5137 3.51356C23.7839 2.97297 24.1893 2.70273 24.7298 2.70273H34.5946C35.1352 2.70273 35.6757 2.97297 35.8108 3.51356L37.0271 6.75677H36.4865C35.6757 6.75677 35.1352 7.29736 35.1352 8.10808V9.45938H43.2433V8.10808C43.2434 7.29736 42.7028 6.75677 41.892 6.75677Z" fill="#9BA7AF"/>
<path d="M55.4056 50.0003H4.05429C2.56781 50.0003 1.35156 48.784 1.35156 47.2976V17.5679H58.1082V47.2976C58.1083 48.784 56.8921 50.0003 55.4056 50.0003Z" fill="#B06328"/>
<path d="M55.4056 23.7836L35.1354 28.1078C35.0002 27.4322 34.4598 27.0268 33.7841 27.0268H28.3788C27.5679 27.0268 27.0274 27.5674 27.0274 28.3781H25.6761L2.16239 23.3781C1.89216 23.3781 1.6218 23.243 1.35156 23.1079V24.4592C1.6218 24.5944 1.89216 24.7295 2.16239 24.7295L25.6759 29.7295H27.0272V33.7835C27.0272 34.5944 27.5678 35.1348 28.3785 35.1348H32.4326C33.919 35.1348 35.1353 33.9186 35.1353 32.4321V32.1619C35.1353 30.5402 36.2164 29.1889 37.838 28.7835L51.3516 25.9457C53.5137 25.5403 55.4056 27.1619 55.4056 29.1889V45.8106C55.4056 46.6214 54.865 47.1619 54.0543 47.1619H4.05429C2.29757 47.1619 2.16239 49.8646 3.91912 49.8646H55.2704C56.7569 49.8646 57.9732 48.6484 57.9732 47.1619V23.1079L55.4056 23.7836Z" fill="#A35425"/>
<path d="M1.35156 47.2972V43.2432H5.4056C6.89208 43.2432 8.10833 44.4594 8.10833 45.9459V49.9999H4.05429C2.56781 49.9999 1.35156 48.7837 1.35156 47.2972Z" fill="#F6B545"/>
<path d="M4.05407 47.2974C2.29735 47.2974 2.16217 49.8649 3.91889 50.0001H8.10811V47.2974H4.05407Z" fill="#F19920"/>
<path d="M55.4056 49.9999H51.3516V45.9459C51.3516 44.4594 52.5678 43.2432 54.0543 43.2432H58.1083V47.2972C58.1083 48.7837 56.8921 49.9999 55.4056 49.9999Z" fill="#F6B545"/>
<path d="M55.4056 43.2432V45.9459C55.4056 46.7567 54.865 47.2972 54.0543 47.2972H51.3516V49.9999H55.4056C56.8921 49.9999 58.1083 48.7837 58.1083 47.2972V43.2432H55.4056Z" fill="#F19920"/>
<path d="M6.08102 45.946H3.37829C2.97287 45.946 2.70264 45.6758 2.70264 45.2704C2.70264 44.865 2.97287 44.5947 3.37829 44.5947H6.08102C6.48644 44.5947 6.75667 44.865 6.75667 45.2704C6.75667 45.6757 6.48644 45.946 6.08102 45.946Z" fill="#FFCB5B"/>
<path d="M56.7566 9.45898H2.70273C1.21625 9.45898 0 10.6752 0 12.1617V20.8104C0 22.0265 0.945892 23.2428 2.16214 23.513L25.6757 28.3779H33.7837L57.2972 23.3778C58.5135 23.1076 59.4594 22.0265 59.4594 20.6752V12.0265C59.4594 10.6752 58.2431 9.45898 56.7566 9.45898Z" fill="#C97629"/>
<path d="M32.4324 33.7837H27.0271C26.2163 33.7837 25.6758 33.2431 25.6758 32.4324V27.0271C25.6758 26.2163 26.2164 25.6758 27.0271 25.6758H32.4324C33.2433 25.6758 33.7837 26.2164 33.7837 27.0271V32.4324C33.7837 33.2433 33.2433 33.7837 32.4324 33.7837Z" fill="#F6B545"/>
<path d="M32.4326 25.6758V32.4326H25.6758C25.6758 33.2434 26.2164 33.7839 27.0271 33.7839H32.4324C33.2433 33.7839 33.7837 33.2433 33.7837 32.4326V27.0272C33.7839 26.2164 33.2434 25.6758 32.4326 25.6758Z" fill="#F19920"/>
<path d="M30.4052 28.3782H27.7025C27.2971 28.3782 27.0269 28.1079 27.0269 27.7025C27.0269 27.2971 27.2971 27.0269 27.7025 27.0269H30.4052C30.8107 27.0269 31.0809 27.2971 31.0809 27.7025C31.0809 28.1079 30.8107 28.3782 30.4052 28.3782Z" fill="#FFCB5B"/>
<path d="M3.37829 10.8105H10.1351C10.5405 10.8105 10.8107 11.0808 10.8107 11.4862C10.8107 11.8916 10.5405 12.1619 10.1351 12.1619H3.37829C2.97287 12.1619 2.70264 11.8916 2.70264 11.4862C2.70264 11.0808 2.97287 10.8105 3.37829 10.8105Z" fill="#DA8C36"/>
<path d="M4.05394 29.0541V35.8108C4.05394 36.2163 3.78371 36.4865 3.37829 36.4865C2.97287 36.4865 2.70264 36.2163 2.70264 35.8108V29.0541C2.70264 28.6487 2.97287 28.3784 3.37829 28.3784C3.78371 28.3784 4.05394 28.6487 4.05394 29.0541Z" fill="#C97629"/>
<path d="M12.8378 10.8105H26.3513C26.7567 10.8105 27.027 11.0808 27.027 11.4862C27.027 11.8916 26.7567 12.1619 26.3513 12.1619H12.8378C12.4323 12.1619 12.1621 11.8916 12.1621 11.4862C12.1621 11.0808 12.4325 10.8105 12.8378 10.8105Z" fill="#DA8C36"/>
<path d="M37.1623 2.02667L39.0542 6.75636H40.1352L38.5136 2.56714C37.973 1.3509 36.8919 0.405004 35.6758 0.134766C36.2164 0.540181 36.892 1.21583 37.1623 2.02667ZM30.5407 1.35101H24.865C23.7839 1.35101 22.7028 2.02667 22.2974 3.10773L20.8109 6.75636H22.1622L23.3785 3.51315C23.6487 2.97256 24.0541 2.70232 24.5947 2.70232H33.7839C32.9731 1.89149 31.7569 1.35101 30.5407 1.35101ZM16.2163 8.10766H24.3244V9.45897H16.2163V8.10766ZM35.1352 8.10766H43.2433V9.45897H35.1352V8.10766Z" fill="#72818B"/>
</svg>
