<svg width="41" height="41" viewBox="0 0 41 41" fill="none" xmlns="http://www.w3.org/2000/svg">
<path d="M20.5 40.5C31.5457 40.5 40.5 31.5457 40.5 20.5C40.5 9.45431 31.5457 0.5 20.5 0.5C9.45431 0.5 0.5 9.45431 0.5 20.5C0.5 31.5457 9.45431 40.5 20.5 40.5Z" fill="url(#paint0_linear_235_55)"/>
<path d="M27.948 26.6164L28.8365 20.9714H23.2788V17.3099C23.2788 15.7651 24.0538 14.2586 26.543 14.2586H29.0713V9.4527C29.0713 9.4527 26.7778 9.07129 24.586 9.07129C20.0068 9.07129 17.0166 11.7755 17.0166 16.669V20.9714H11.9285V26.6164H17.0166V40.2634C18.038 40.4199 19.083 40.4999 20.1476 40.4999C21.2122 40.4999 22.2573 40.4199 23.2788 40.2634V26.6164H27.948Z" fill="white"/>
<defs>
<linearGradient id="paint0_linear_235_55" x1="20.5" y1="0.5" x2="20.5" y2="40.3814" gradientUnits="userSpaceOnUse">
<stop stop-color="#18ACFE"/>
<stop offset="1" stop-color="#0163E0"/>
</linearGradient>
</defs>
</svg>
