<svg width="40" height="40" viewBox="0 0 40 40" fill="none" xmlns="http://www.w3.org/2000/svg">
<circle cx="20" cy="20" r="20" fill="#E0EFFF"/>
<path d="M20 20.5317L23.8569 24.3886L22.5713 25.6742L20.9091 24.0127V29.09H19.0909V24.0109L17.4287 25.6742L16.1431 24.3886L20 20.5317ZM20 10.9082C23.2667 10.9082 25.9585 13.3697 26.3219 16.5391C28.4416 17.1187 30 19.0587 30 21.3627C30 23.9707 28.0033 26.1124 25.4551 26.3424L25.4545 24.5446C25.4545 21.5321 23.0125 19.09 20 19.09C17.056 19.09 14.6568 21.4224 14.5492 24.3401L14.5455 24.5446L14.5458 26.3424C11.9972 26.1129 10 23.9711 10 21.3627C10 19.0587 11.5584 17.1187 13.6786 16.5392C14.0415 13.3697 16.7333 10.9082 20 10.9082Z" fill="#1F90FF"/>
</svg>
