<svg width="57" height="50" viewBox="0 0 57 50" fill="none" xmlns="http://www.w3.org/2000/svg">
<path fill-rule="evenodd" clip-rule="evenodd" d="M1.34395 21.5971H13.0846C13.8238 21.5971 14.4286 20.9924 14.4286 20.2532V8.51252C14.4286 7.77333 13.8238 7.16846 13.0846 7.16846H1.34395C0.60476 7.16846 0 7.77333 0 8.51252V20.2532C0 20.9924 0.60476 21.5971 1.34395 21.5971Z" fill="#FFDC6E"/>
<path fill-rule="evenodd" clip-rule="evenodd" d="M11.8682 21.5971H13.0843C13.8235 21.5971 14.4283 20.9924 14.4283 20.2532V8.51252C14.4283 7.77333 13.8235 7.16846 13.0843 7.16846H11.8682V21.5971Z" fill="#FFCA28"/>
<path fill-rule="evenodd" clip-rule="evenodd" d="M9.3583 12.5726V7.16846H5.0708V12.5726C5.0708 12.9981 5.3637 13.3451 5.72285 13.3451H8.70647C9.06551 13.3452 9.3583 12.9981 9.3583 12.5726ZM40.26 22.1678H46.1689L48.9806 35.167H40.26V22.1678Z" fill="#F7524B"/>
<path fill-rule="evenodd" clip-rule="evenodd" d="M40.2598 22.168H46.1686L47.3059 27.4259L40.2598 24.7657V22.168Z" fill="#CB413D"/>
<path fill-rule="evenodd" clip-rule="evenodd" d="M7.73393 26.1694H26.3973C27.6435 26.1694 28.6629 25.1499 28.6629 23.9038C28.6629 22.6576 27.6435 21.6382 26.3973 21.6382H9.99969C8.75348 21.6382 7.73393 22.6576 7.73393 23.9038V26.1694ZM21.4253 41.4265C21.4253 46.1617 17.5867 50.0003 12.8516 50.0003C8.11644 50.0003 4.27783 46.1618 4.27783 41.4265H21.4253Z" fill="#404049"/>
<path fill-rule="evenodd" clip-rule="evenodd" d="M17.1224 41.4263C17.1224 43.7849 15.2104 45.6969 12.8517 45.6969C10.4931 45.6969 8.58105 43.7849 8.58105 41.4263H17.1224Z" fill="#F0F0FC"/>
<path fill-rule="evenodd" clip-rule="evenodd" d="M54.5469 41.4263C54.5469 46.1614 50.7083 50 45.9732 50C41.238 50 37.3994 46.1614 37.3994 41.4263H54.5469Z" fill="#404049"/>
<path fill-rule="evenodd" clip-rule="evenodd" d="M50.2435 41.4263C50.2435 43.7849 48.3315 45.6969 45.9728 45.6969C43.6143 45.6969 41.7021 43.7849 41.7021 41.4263H50.2435Z" fill="#F0F0FC"/>
<path fill-rule="evenodd" clip-rule="evenodd" d="M2.61523 41.4266H26.7393V25.2241H10.7165C6.26084 25.2241 2.61523 28.8696 2.61523 33.3253V41.4266Z" fill="#F7524B"/>
<path fill-rule="evenodd" clip-rule="evenodd" d="M24.6855 35.46H38.9643V41.4262H24.6855V35.46Z" fill="#F7524B"/>
<path fill-rule="evenodd" clip-rule="evenodd" d="M47.6141 15.5933L41.3681 16.5414C41.059 16.5867 40.7768 16.7421 40.5732 16.979C40.3695 17.2158 40.2583 17.5182 40.2598 17.8306V22.9909L47.6141 24.1072C49.56 24.4026 51.1806 22.1916 51.1806 19.8503C51.1806 17.6162 49.616 15.2895 47.6141 15.5933Z" fill="#EF444E"/>
<path fill-rule="evenodd" clip-rule="evenodd" d="M47.6973 24.1181C49.606 24.3392 51.1807 22.1581 51.1807 19.8501C51.1807 17.647 49.6592 15.354 47.6973 15.5821V24.1181Z" fill="#FFDC6E"/>
<path fill-rule="evenodd" clip-rule="evenodd" d="M12.8517 31.1904C18.5051 31.1904 23.0881 35.7734 23.0881 41.4269H2.61523C2.61523 35.7734 7.19823 31.1904 12.8517 31.1904Z" fill="#E14844"/>
<path fill-rule="evenodd" clip-rule="evenodd" d="M16.2822 16.9294L21.8163 19.5636L28.7296 16.1927L33.0053 19.6009L42.7825 22.4776L44.1756 20.1342C41.0013 19.0743 38.4513 18.0439 35.2646 16.7779L32.8649 13.6878C32.8649 13.6878 32.9438 10.8419 31.3228 9.35301C29.7017 7.86413 29.6917 7.82666 29.6917 7.82666C20.9737 8.15432 17.6471 12.2189 16.2822 16.9294Z" fill="#FFDC6E"/>
<path fill-rule="evenodd" clip-rule="evenodd" d="M43.0547 22.9101C44.0315 22.9101 44.8281 22.1135 44.8281 21.1367C44.8281 20.1599 44.0315 19.3633 43.0547 19.3633C42.0779 19.3633 41.2813 20.1599 41.2813 21.1367C41.2813 22.1135 42.0779 22.9101 43.0547 22.9101ZM16.9455 22.7775L28.8219 26.8789L28.7121 37.3656H32.5644L32.9039 25.0034C32.9361 23.834 32.2661 22.8294 31.1993 22.3496L16.66 15.8096L15.3805 18.6539C14.677 20.218 15.324 22.2178 16.9455 22.7775Z" fill="#484A50"/>
<path fill-rule="evenodd" clip-rule="evenodd" d="M28.7034 36.8418L28.6876 38.1782C28.6744 39.304 29.6364 40.2161 30.7623 40.1978L32.3036 40.1726L34.1824 40.1605C34.9908 40.1553 35.6458 39.4918 35.6407 38.6835L35.6393 38.4864C35.6339 37.6334 34.9787 36.929 34.1485 36.8418H32.543H28.7034Z" fill="#FFDC6E"/>
<path fill-rule="evenodd" clip-rule="evenodd" d="M31.6797 40.1829L32.3041 40.1726L34.1829 40.1605C34.9913 40.1553 35.6463 39.4918 35.6412 38.6835L35.6399 38.4864C35.6344 37.6334 34.9792 36.929 34.1491 36.8418H31.6798V40.1829H31.6797Z" fill="#FFCA28"/>
<path fill-rule="evenodd" clip-rule="evenodd" d="M45.9732 31.1904C51.6265 31.1904 56.2096 35.7734 56.2096 41.4269H35.7368C35.7368 35.7734 40.3198 31.1904 45.9732 31.1904Z" fill="#E14844"/>
<path fill-rule="evenodd" clip-rule="evenodd" d="M12.8513 31.1904C18.5048 31.1904 23.0878 35.7734 23.0878 41.4269H18.592C18.4486 36.6979 15.2959 32.7261 10.9839 31.361C11.5999 31.2474 12.225 31.1903 12.8513 31.1904ZM45.9728 31.1904C51.6263 31.1904 56.2093 35.7734 56.2093 41.4269H51.7135C51.5701 36.6979 48.4174 32.7261 44.1054 31.361C44.7214 31.2474 45.3465 31.1903 45.9728 31.1904Z" fill="#CB413D"/>
<path fill-rule="evenodd" clip-rule="evenodd" d="M43.0546 19.3634C44.034 19.3634 44.8279 20.1573 44.8279 21.1367C44.8279 22.1161 44.034 22.91 43.0546 22.91C42.9338 22.91 42.8159 22.8979 42.7019 22.8749C43.5123 22.7114 44.1225 21.9953 44.1225 21.1367C44.1225 20.2781 43.5123 19.5621 42.7019 19.3985C42.818 19.3751 42.9362 19.3633 43.0546 19.3634ZM22.1973 19.378L30.1835 22.9704C31.2503 23.4502 31.9162 24.4548 31.8881 25.6243L31.618 36.8424H32.5788L32.9039 25.0035C32.9301 23.9254 32.366 22.9875 31.4419 22.4716C31.4262 22.4629 31.4104 22.4543 31.3945 22.4458H31.3944C31.3305 22.4115 31.2654 22.3795 31.1993 22.3496L16.66 15.8096L16.2593 16.7005L22.1973 19.378Z" fill="#404049"/>
<path fill-rule="evenodd" clip-rule="evenodd" d="M21.811 9.6976C23.5866 8.96033 25.7836 8.4935 28.5066 8.39113C28.9363 9.90325 30.1379 11.4319 31.439 12.3024C31.7048 13.3538 31.6799 14.2523 31.6799 14.2523L34.0795 17.3423C36.5576 18.3268 39.0298 19.3201 41.5461 20.2038C41.7381 19.8941 42.0205 19.6507 42.3552 19.5065C39.9681 18.6576 37.6188 17.7131 35.2646 16.7779L32.865 13.6878C32.865 13.6878 32.8888 12.8278 32.6411 11.806C32.438 10.969 32.0528 10.0235 31.3229 9.35301C29.7018 7.86413 29.6918 7.82666 29.6918 7.82666C29.6044 7.82993 29.5176 7.83366 29.4314 7.83761C26.1953 7.98886 23.7158 8.66359 21.811 9.6976Z" fill="#FFCA28"/>
<path fill-rule="evenodd" clip-rule="evenodd" d="M35.9408 1.3418C38.6461 1.6049 40.626 4.0113 40.3629 6.71658C40.0998 9.42197 37.6934 11.4018 34.9881 11.1387C32.2827 10.8756 30.3028 8.46923 30.5659 5.76384L35.4645 6.24026L35.9408 1.3418Z" fill="#F6DCCD"/>
<path fill-rule="evenodd" clip-rule="evenodd" d="M36.0686 0.0302283C38.9308 0.308567 41.1523 2.4794 41.6155 5.18333C41.6863 5.59734 41.5711 5.98369 41.2851 6.29138C40.9991 6.59906 40.622 6.74196 40.2039 6.70132L36.7625 6.36666C36.0477 6.29714 35.4079 6.82345 35.3384 7.53826L35.0038 10.979C34.9631 11.3973 34.75 11.74 34.3929 11.9614C34.0358 12.1829 33.634 12.2215 33.2413 12.072C30.6776 11.0963 28.9761 8.49833 29.2543 5.6365C29.588 2.20682 32.6389 -0.303304 36.0686 0.0302283Z" fill="#E14844"/>
<path fill-rule="evenodd" clip-rule="evenodd" d="M36.0685 0.0301013C38.9308 0.30844 41.1523 2.47928 41.6154 5.1832C41.6863 5.59721 41.571 5.98357 41.285 6.29125C41.0359 6.55921 40.7176 6.70221 40.3633 6.70774C40.3638 6.67896 40.3644 6.65018 40.3644 6.62128C40.3644 3.25504 37.6357 0.52628 34.2694 0.52628C33.5964 0.52628 32.9491 0.635652 32.3438 0.837012C33.4701 0.184372 34.773 -0.09789 36.0685 0.0301013Z" fill="#CB413D"/>
</svg>
