<svg width="256" height="57" viewBox="0 0 256 57" fill="none" xmlns="http://www.w3.org/2000/svg">
<path d="M69.5503 36.984H78.0623V42H63.0523V15.324H69.5503V36.984ZM90.8137 42.304C88.7363 42.304 86.8617 41.8607 85.1897 40.974C83.543 40.0873 82.2383 38.8207 81.2757 37.174C80.3383 35.5273 79.8697 33.602 79.8697 31.398C79.8697 29.2193 80.351 27.3067 81.3137 25.66C82.2763 23.988 83.5937 22.7087 85.2657 21.822C86.9377 20.9353 88.8123 20.492 90.8897 20.492C92.967 20.492 94.8417 20.9353 96.5137 21.822C98.1857 22.7087 99.503 23.988 100.466 25.66C101.428 27.3067 101.91 29.2193 101.91 31.398C101.91 33.5767 101.416 35.502 100.428 37.174C99.465 38.8207 98.135 40.0873 96.4377 40.974C94.7657 41.8607 92.891 42.304 90.8137 42.304ZM90.8137 36.68C92.055 36.68 93.1063 36.224 93.9677 35.312C94.8543 34.4 95.2977 33.0953 95.2977 31.398C95.2977 29.7007 94.867 28.396 94.0057 27.484C93.1697 26.572 92.131 26.116 90.8897 26.116C89.623 26.116 88.5717 26.572 87.7357 27.484C86.8997 28.3707 86.4817 29.6753 86.4817 31.398C86.4817 33.0953 86.887 34.4 87.6977 35.312C88.5337 36.224 89.5723 36.68 90.8137 36.68ZM104.065 31.398C104.065 29.194 104.508 27.2687 105.395 25.622C106.307 23.9753 107.561 22.7087 109.157 21.822C110.778 20.9353 112.628 20.492 114.705 20.492C117.365 20.492 119.582 21.1887 121.355 22.582C123.154 23.9753 124.332 25.9387 124.889 28.472H117.973C117.39 26.8507 116.263 26.04 114.591 26.04C113.4 26.04 112.45 26.5087 111.741 27.446C111.032 28.358 110.677 29.6753 110.677 31.398C110.677 33.1207 111.032 34.4507 111.741 35.388C112.45 36.3 113.4 36.756 114.591 36.756C116.263 36.756 117.39 35.9453 117.973 34.324H124.889C124.332 36.8067 123.154 38.7573 121.355 40.176C119.556 41.5947 117.34 42.304 114.705 42.304C112.628 42.304 110.778 41.8607 109.157 40.974C107.561 40.0873 106.307 38.8207 105.395 37.174C104.508 35.5273 104.065 33.602 104.065 31.398ZM127.073 31.36C127.073 29.1813 127.478 27.2687 128.289 25.622C129.125 23.9753 130.252 22.7087 131.671 21.822C133.089 20.9353 134.673 20.492 136.421 20.492C137.915 20.492 139.22 20.796 140.335 21.404C141.475 22.012 142.349 22.81 142.957 23.798V20.796H149.455V42H142.957V38.998C142.323 39.986 141.437 40.784 140.297 41.392C139.182 42 137.877 42.304 136.383 42.304C134.66 42.304 133.089 41.8607 131.671 40.974C130.252 40.062 129.125 38.7827 128.289 37.136C127.478 35.464 127.073 33.5387 127.073 31.36ZM142.957 31.398C142.957 29.7767 142.501 28.4973 141.589 27.56C140.702 26.6227 139.613 26.154 138.321 26.154C137.029 26.154 135.927 26.6227 135.015 27.56C134.128 28.472 133.685 29.7387 133.685 31.36C133.685 32.9813 134.128 34.2733 135.015 35.236C135.927 36.1733 137.029 36.642 138.321 36.642C139.613 36.642 140.702 36.1733 141.589 35.236C142.501 34.2987 142.957 33.0193 142.957 31.398ZM160.654 13.88V42H154.156V13.88H160.654Z" fill="#1F90FF"/>
<path d="M195.573 15.324V42H189.075V26.002L183.109 42H177.865L171.861 25.964V42H165.363V15.324H173.039L180.525 33.792L187.935 15.324H195.573ZM198.954 31.36C198.954 29.1813 199.359 27.2687 200.17 25.622C201.006 23.9753 202.133 22.7087 203.552 21.822C204.97 20.9353 206.554 20.492 208.302 20.492C209.796 20.492 211.101 20.796 212.216 21.404C213.356 22.012 214.23 22.81 214.838 23.798V20.796H221.336V42H214.838V38.998C214.204 39.986 213.318 40.784 212.178 41.392C211.063 42 209.758 42.304 208.264 42.304C206.541 42.304 204.97 41.8607 203.552 40.974C202.133 40.062 201.006 38.7827 200.17 37.136C199.359 35.464 198.954 33.5387 198.954 31.36ZM214.838 31.398C214.838 29.7767 214.382 28.4973 213.47 27.56C212.583 26.6227 211.494 26.154 210.202 26.154C208.91 26.154 207.808 26.6227 206.896 27.56C206.009 28.472 205.566 29.7387 205.566 31.36C205.566 32.9813 206.009 34.2733 206.896 35.236C207.808 36.1733 208.91 36.642 210.202 36.642C211.494 36.642 212.583 36.1733 213.47 35.236C214.382 34.2987 214.838 33.0193 214.838 31.398ZM232.535 24.33C233.295 23.1647 234.245 22.2527 235.385 21.594C236.525 20.91 237.791 20.568 239.185 20.568V27.446H237.399C235.777 27.446 234.561 27.8007 233.751 28.51C232.94 29.194 232.535 30.41 232.535 32.158V42H226.037V20.796H232.535V24.33ZM254.109 36.49V42H250.803C248.447 42 246.61 41.43 245.293 40.29C243.975 39.1247 243.317 37.2373 243.317 34.628V26.192H240.733V20.796H243.317V15.628H249.815V20.796H254.071V26.192H249.815V34.704C249.815 35.3373 249.967 35.7933 250.271 36.072C250.575 36.3507 251.081 36.49 251.791 36.49H254.109Z" fill="#F25512"/>
<mask id="mask0_74_6325" style="mask-type:luminance" maskUnits="userSpaceOnUse" x="0" y="13" width="50" height="38">
<path d="M0.940918 13.5498H49.755V42.1328C49.755 47.0302 45.7849 51.0003 40.8875 51.0003H9.80841C4.91102 51.0003 0.940918 47.0302 0.940918 42.1328V13.5498Z" fill="white"/>
</mask>
<g mask="url(#mask0_74_6325)">
<path d="M50.8635 42.1328C50.8635 47.6424 46.3972 52.1087 40.8876 52.1087H9.80847C4.29891 52.1087 -0.16748 47.6424 -0.16748 42.1328H2.0494C2.0494 46.418 5.52325 49.8918 9.80847 49.8918H40.8876C45.1728 49.8918 48.6466 46.418 48.6466 42.1328H50.8635ZM9.80847 52.1087C4.29891 52.1087 -0.16748 47.6424 -0.16748 42.1328V13.5498H2.0494V42.1328C2.0494 46.418 5.52325 49.8918 9.80847 49.8918V52.1087ZM50.8635 13.5498V42.1328C50.8635 47.6424 46.3972 52.1087 40.8876 52.1087V49.8918C45.1728 49.8918 48.6466 46.418 48.6466 42.1328V13.5498H50.8635Z" fill="url(#paint0_linear_74_6325)"/>
</g>
<path d="M7.36382 1H14.3796L9.71138 14.178C9.66184 14.3179 9.58928 14.4485 9.49671 14.5644L9.34889 14.7496C6.23642 18.648 -0.0476914 16.4132 0.000273011 11.4249C0.00151003 11.2963 0.0425089 11.1712 0.117646 11.0668L7.36382 1Z" fill="#DA498D"/>
<path d="M16.0597 1H24.3601L23.9812 12.7942C23.9705 13.1251 23.8592 13.4448 23.6619 13.7107L23.2095 14.3208C19.8835 18.8051 12.7894 16.9518 12.0816 11.4137C12.066 11.2914 12.0813 11.1671 12.1263 11.0522L16.0597 1Z" fill="#F25512"/>
<path d="M34.0106 1H25.7437L26.1212 12.7982C26.1316 13.1265 26.2418 13.4439 26.437 13.7081L26.8764 14.3028C30.1865 18.7837 37.2695 16.9387 37.9729 11.4124C37.9885 11.2909 37.9733 11.1675 37.9288 11.0534L34.0106 1Z" fill="#FFB200"/>
<path d="M43.3322 1H36.3164L40.9848 14.2041C41.0343 14.3438 41.1066 14.4743 41.199 14.5901L41.3396 14.7667C44.4515 18.6718 50.7436 16.4374 50.6957 11.4444C50.6945 11.3159 50.6536 11.191 50.5786 11.0866L43.3322 1Z" fill="#1F90FF"/>
<path d="M10.6246 18.4902H4.6958V43.2925H10.6246V18.4902Z" fill="#1F90FF"/>
<path d="M4.6958 41.6133H21.1977V47.4433H10.5258C7.306 47.4433 4.6958 44.8332 4.6958 41.6133Z" fill="#1F90FF"/>
<path d="M21.5928 41.6133H45.9998C45.9998 44.8332 43.3897 47.4433 40.1699 47.4433H21.5928V41.6133Z" fill="#F25512"/>
<path d="M14.9727 18.0947H19.6101L30.9407 32.3147L42.4625 18.0947H46.0003V41.6125H40.5023L40.3589 28.1382L32.0881 38.132H29.5064L21.1878 28.4366V41.0654H14.9727V18.0947Z" fill="#F25512"/>
<defs>
<linearGradient id="paint0_linear_74_6325" x1="50.1503" y1="26.7414" x2="1.2868" y2="26.7414" gradientUnits="userSpaceOnUse">
<stop stop-color="#3199FF"/>
<stop offset="0.5" stop-color="#FFB200"/>
<stop offset="0.75" stop-color="#F25512"/>
<stop offset="1" stop-color="#DA498D"/>
</linearGradient>
</defs>
</svg>
