<svg width="20" height="20" viewBox="0 0 20 20" fill="none" xmlns="http://www.w3.org/2000/svg">
<g clip-path="url(#clip0_338_853)">
<path d="M20 4.13227V15.8714C20 16.954 19.1261 17.8279 18.0435 17.8279H1.95652C0.873906 17.8279 0 16.954 0 15.8714V4.13227C0 4.0975 0 4.0627 0.00433594 4.02793C0.0565234 3.02793 0.852148 2.23227 1.85215 2.18012C1.88691 2.17578 1.92172 2.17578 1.95648 2.17578H18.0434C18.0782 2.17578 18.1173 2.17578 18.1521 2.18012C19.1478 2.2323 19.9434 3.02793 19.9956 4.02359C20 4.05836 20 4.0975 20 4.13227Z" fill="#E6F3FF"/>
<path d="M18.1522 2.18012C18.1173 2.17578 18.0783 2.17578 18.0435 2.17578H10V17.828H18.0435C19.1261 17.828 20 16.9541 20 15.8714V4.1323C20 4.09754 20 4.0584 19.9957 4.02359C19.9435 3.02797 19.1478 2.2323 18.1522 2.18012Z" fill="#CFDBE6"/>
<path d="M19.9957 4.0232C19.9435 3.02754 19.1479 2.23191 18.1522 2.17973C14.9566 5.37523 13.1621 7.16977 10 10.3319C8.80043 9.1316 3.03164 3.35918 1.85219 2.17969C0.852188 2.23187 0.0565234 3.0275 0.004375 4.0275C0 4.0623 0 4.09711 0 4.13187V15.871C0 16.9536 0.873906 17.8275 1.95652 17.8275H2.60871V6.63188L9.07828 13.0971C9.33047 13.3536 9.66523 13.4797 10 13.4797C10.3348 13.4797 10.6696 13.3536 10.9218 13.0971L17.3914 6.62754V17.8275H18.0436C19.1262 17.8275 20.0001 16.9536 20.0001 15.871V4.13187C20 4.09711 20 4.05797 19.9957 4.0232Z" fill="#FF4B26"/>
<path d="M10.9217 13.0971L17.3913 6.62754V17.8275H18.0435C19.1261 17.8275 20 16.9536 20 15.871V4.13187C20 4.09711 20 4.05797 19.9957 4.02316C19.9435 3.0275 19.1479 2.23187 18.1522 2.17969C14.9567 5.37523 13.1621 7.16977 10 10.3319V13.4797C10.3348 13.4797 10.6696 13.3536 10.9217 13.0971Z" fill="#D93F21"/>
</g>
<defs>
<clipPath id="clip0_338_853">
<rect width="20" height="20" fill="white"/>
</clipPath>
</defs>
</svg>
