<svg width="180" height="180" viewBox="0 0 180 180" fill="none" xmlns="http://www.w3.org/2000/svg">
<circle cx="90" cy="90" r="90" fill="white"/>
<g clip-path="url(#clip0_136_3779)">
<path d="M126.829 94.925C126.873 94.5241 126.898 94.1192 126.898 93.7093C126.898 87.5026 121.755 82.4741 115.409 82.4741C109.066 82.4741 103.923 87.5026 103.923 93.7093C103.923 99.9139 109.066 104.941 115.409 104.941C120.235 104.941 124.361 102.037 126.066 97.9109L121.114 97.0434C120.017 99.0507 117.941 100.403 115.569 100.403C112.42 100.403 109.812 98.0343 109.287 94.9249L126.829 94.925ZM115.569 87.1369C118.258 87.1369 120.555 88.8687 121.492 91.3201H109.638C110.573 88.8688 112.875 87.1369 115.569 87.1369ZM94.968 82.9447H100.835V104.537H94.968V82.9447ZM97.9036 74.1406C96.0925 74.1406 94.6304 75.6108 94.6304 77.4143C94.6304 79.2151 96.0925 80.6813 97.9036 80.6813C99.7074 80.6813 101.173 79.2151 101.173 77.4143C101.173 75.6108 99.7074 74.1406 97.9036 74.1406ZM59.0593 76.0217V87.6455H46.4131V76.0217H40V104.518H46.4131V92.8935H59.0593V104.518H65.4777V76.0217H59.0593ZM85.5394 82.9547V84.1133C83.8342 83.0801 81.8359 82.4866 79.6947 82.4866C73.475 82.4866 68.4305 87.5119 68.4305 93.7137C68.4305 99.9141 73.475 104.941 79.6947 104.941C81.7017 104.943 83.6729 104.409 85.4039 103.393V104.518H91.1286V82.9547H85.5394ZM79.9807 100.207C76.3509 100.207 73.4165 97.3026 73.4165 93.7162C73.4165 90.1268 76.3507 87.2201 79.9807 87.2201C83.6098 87.2201 86.5489 90.1268 86.5489 93.7162C86.5488 97.3026 83.6096 100.207 79.9807 100.207ZM139.029 80.9394C133.627 81.8819 129.519 86.5823 129.456 92.2513V104.537H135.074L135.077 92.0204C135.077 89.155 137.228 86.7903 140 86.451L139.029 80.9394Z" fill="#005BAA"/>
</g>
<defs>
<clipPath id="clip0_136_3779">
<rect width="100" height="31.08" fill="white" transform="translate(40 74)"/>
</clipPath>
</defs>
</svg>
