<svg width="180" height="180" viewBox="0 0 180 180" fill="none" xmlns="http://www.w3.org/2000/svg">
<circle cx="90" cy="90" r="90" fill="white"/>
<path d="M30 110.807H35.6963V116.91H41.0822V110.807H46.7793V128.841H41.0822V121.863H35.6963V128.841H30V110.807ZM54.8555 110.807H60.6249L66.826 128.841H61.1776L60.4817 126.441H54.8555L54.182 128.841H48.654L54.8555 110.807ZM55.9142 122.687H59.4952L57.668 116.235L55.9142 122.687ZM65.769 110.807H71.5148L74.5675 122.788L77.7159 110.807H83.437L77.4274 128.841H71.7071L65.769 110.807ZM85.7694 110.807H99.9034V115.009H91.4661V117.611H98.581V121.812H91.4661V124.639H100.241V128.841H85.7694V110.807ZM103.149 110.807H108.846V124.639H116.634V128.841H103.149V110.807ZM119.206 110.807H124.903V124.639H132.692V128.841H119.206L119.206 110.807ZM144.134 116.034C143.99 115.001 143.213 114.485 141.802 114.485C140.68 114.485 140.097 114.809 140.048 115.46C140.032 115.861 140.219 116.193 140.612 116.46C141.005 116.727 141.53 116.948 142.187 117.124C142.844 117.299 143.478 117.462 144.086 117.611C146.121 118.112 147.62 118.787 148.581 119.636C149.542 120.487 150.015 121.663 150 123.164C150 124.63 149.623 125.827 148.87 126.753C148.116 127.678 147.127 128.341 145.902 128.742C144.676 129.142 143.358 129.341 141.946 129.341C139.832 129.341 138.041 128.778 136.574 127.653C135.107 126.528 134.326 125.065 134.23 123.264H139.687C139.815 123.98 140.148 124.482 140.685 124.764C141.221 125.048 141.778 125.19 142.356 125.19C143.749 125.123 144.487 124.714 144.567 123.963C144.631 123.447 144.379 123.05 143.81 122.776C143.241 122.501 142.363 122.214 141.176 121.913C139.687 121.529 138.5 121.137 137.62 120.737C136.748 120.345 135.997 119.728 135.444 118.948C134.875 118.157 134.598 117.111 134.615 115.809C134.647 114.191 135.331 112.875 136.67 111.858C138.008 110.84 139.839 110.332 142.163 110.332C143.397 110.332 144.53 110.512 145.564 110.869C146.599 111.228 147.475 111.838 148.197 112.696C148.918 113.555 149.367 114.667 149.542 116.034H144.134Z" fill="#ED1C24"/>
<path d="M74.6295 64.5653C74.4753 64.5659 74.3212 64.5554 74.1685 64.5337C73.2007 64.3884 72.4671 63.8155 72.1047 62.9207C71.9343 62.4987 71.8519 62.0572 71.8519 61.5695C71.8519 60.8857 72.0183 60.2032 72.1652 59.6842C72.9581 56.8596 73.8654 54.877 74.9395 53.6187C75.1271 53.3953 75.3345 53.1892 75.5591 53.0031L75.624 52.9572C75.6484 52.9361 75.6756 52.9171 75.7003 52.8992C76.0964 52.6107 76.4786 52.4719 76.8491 52.4707C77.7317 52.4707 78.6694 53.2774 79.4935 54.7439C80.3518 56.2655 81.0956 58.4827 81.6482 61.1576C81.8341 62.0617 81.994 62.9844 82.1339 63.9656C81.7493 63.9912 81.363 64.0159 80.9783 64.0427C79.6863 64.132 78.4901 64.2261 77.3234 64.3304C76.7497 64.3831 76.1755 64.4367 75.6038 64.4947L75.4698 64.5081C75.1777 64.5386 74.9018 64.5649 74.6299 64.5649" fill="#F25746"/>
<path d="M76.1475 95.8744H76.1361C75.7535 95.8744 75.3599 95.7202 74.9683 95.4179H74.9671L74.9557 95.4057L74.9269 95.3846L74.9009 95.3643L74.873 95.3408C74.8583 95.3306 74.8462 95.3185 74.8308 95.3095C74.609 95.1156 74.4059 94.9014 74.2241 94.6696C73.1537 93.3269 72.2898 91.2116 71.5853 88.2056C71.4295 87.5466 71.2786 86.843 71.2786 86.1515C71.2786 85.6435 71.3593 85.1683 71.5261 84.6984C71.8759 83.7104 72.5888 83.0291 73.5319 82.7819C73.8017 82.7142 74.079 82.6811 74.3572 82.6837C74.5386 82.6837 74.7232 82.6947 74.9448 82.7162C75.5185 82.7742 76.124 82.829 76.7424 82.8838C77.9788 82.9913 79.2708 83.0907 80.5863 83.1792C81.0505 83.2104 81.5172 83.2397 81.9822 83.2697C81.7947 84.5004 81.5788 85.6394 81.3281 86.7456C80.7003 89.5122 79.8827 91.8235 78.9664 93.4247C78.0762 94.9804 77.0471 95.8744 76.1406 95.8744" fill="#BA151B"/>
<path d="M115.168 74.1933C115.14 68.5806 113.324 63.0174 110.051 58.5278C107.403 54.8973 103.971 52.1186 100.002 50.3567C99.6965 50.2358 98.6617 49.9537 98.3988 50.0065C97.4197 50.2021 96.7197 51.124 96.5071 52.3166C96.4543 52.6088 96.432 52.9184 96.4421 53.2361C96.404 53.8407 96.3691 54.4745 96.3358 55.166C96.3245 55.2812 96.3236 55.4569 96.3155 55.6659C96.2855 56.4458 96.2409 57.6238 96.1626 58.0815C95.4699 62.0642 91.4559 64.5857 87.978 64.7233C85.6042 64.815 83.2734 64.9404 81.0518 65.0925C79.819 65.1798 78.5964 65.2759 77.4172 65.3798C76.8491 65.4314 76.2782 65.4841 75.7077 65.5421L75.5758 65.5555C75.2715 65.5868 74.9558 65.6192 74.6283 65.6192C74.4092 65.6192 74.2063 65.6058 74.0152 65.577C72.6793 65.379 71.6268 64.5553 71.1289 63.316C70.9061 62.7654 70.7986 62.1949 70.7986 61.5671C70.7986 60.7596 70.9868 59.9834 71.15 59.3982C71.4531 58.3254 71.8714 56.9774 72.4635 55.6752C70.4413 57.7292 68.7698 60.1009 67.5154 62.696C65.8359 66.1731 64.9087 70.0597 64.8348 73.9393V74.4538C64.8336 81.2656 67.3543 87.7066 71.8325 92.5394C71.2396 91.1139 70.8456 89.6239 70.5705 88.4479C70.4001 87.7277 70.2362 86.9567 70.2362 86.1524C70.2362 85.5214 70.3356 84.9319 70.5413 84.3479C71.0112 83.019 71.9822 82.1028 73.2767 81.7647C73.6327 81.6721 73.9995 81.6271 74.3674 81.6308C74.58 81.6308 74.8073 81.643 75.0613 81.6686C76.927 81.8508 78.7954 82.0041 80.6659 82.1283C82.9792 82.285 85.4159 82.4103 87.9086 82.5033C89.8361 82.5747 91.8386 83.3611 93.4012 84.66C95.0536 86.0327 96.1066 87.8551 96.3695 89.7959C96.4243 90.2021 96.4778 91.3655 96.518 92.2135C96.5314 92.4923 96.5403 92.7228 96.5485 92.8547C96.6044 93.8302 96.6613 94.6884 96.7229 95.4768V95.4813C96.7485 95.8262 96.7757 96.1415 96.8013 96.4357C97.0183 97.5365 97.6647 98.3879 98.581 98.6005C98.8934 98.6743 99.2108 98.6618 99.5208 98.5847C99.7736 98.4773 100.025 98.3665 100.275 98.2523C104.195 96.4336 107.575 93.6232 110.177 89.9866C113.398 85.4768 115.172 79.9132 115.172 74.3264V74.1933H115.168Z" fill="#ED1C24"/>
</svg>
