<svg width="235" height="140" viewBox="0 0 235 140" fill="none" xmlns="http://www.w3.org/2000/svg">
<path d="M73.9024 10.0776C73.1879 10.2647 72.5245 10.5879 71.9632 11.0132C71.7704 11.1719 71.5606 11.2967 71.3338 11.3874L68.7994 1.07933C68.6122 0.313878 67.8468 -0.145392 67.0813 0.041718L56.365 2.67827L56.6542 3.88598C56.7222 4.17515 56.8583 4.4303 57.0114 4.66844C57.3686 5.14472 57.6238 5.68904 57.7599 6.28439C58.4062 8.86991 56.7733 11.4724 54.1367 11.9997C51.8234 12.476 49.459 11.0982 48.7446 8.83589C48.4894 8.05343 48.4554 7.25396 48.6085 6.48851C48.6765 6.16532 48.6765 5.80811 48.5915 5.48492L48.3874 4.63442L37.501 7.25396C36.5824 7.4921 36.0041 8.42765 36.2252 9.3632L38.5726 18.9228L37.8241 19.1099C37.7448 19.1326 37.6597 19.1496 37.569 19.161C36.4804 18.7187 35.2556 18.5996 34.0309 18.9058C30.9691 19.6542 29.098 22.7501 29.8465 25.8119C30.5949 28.8907 33.6907 30.7618 36.7695 30.0133C37.7731 29.7582 38.6406 29.2649 39.338 28.6015C39.4741 28.5335 39.6215 28.4824 39.7803 28.4484L40.7329 28.2103L43.3524 38.8926C43.5735 39.8111 44.5261 40.3894 45.4446 40.1513L75.1441 32.871C75.9095 32.6839 76.3688 31.9185 76.1817 31.17L73.5111 20.3006C73.7039 20.3006 73.8967 20.3176 74.0895 20.3517C75.1101 20.5728 76.2157 20.5047 77.2873 20.0285C79.3966 19.1099 80.6723 16.8476 80.3662 14.5342C79.9409 11.3704 76.9131 9.34619 73.9024 10.0776Z" fill="#EBEBEB"/>
<path d="M206.138 67.0955C206.564 67.2996 207.006 67.4017 207.465 67.4017C207.613 67.413 207.76 67.4357 207.907 67.4697L205.101 73.5423C204.897 74.0015 205.084 74.5289 205.526 74.733L211.854 77.6587L212.177 76.9443C212.256 76.7855 212.302 76.6097 212.313 76.417C212.33 76.0598 212.415 75.6855 212.585 75.3283C213.283 73.8144 215.12 73.1851 216.616 73.9505C217.943 74.6309 218.556 76.2469 218.028 77.6247C217.841 78.118 217.535 78.5262 217.161 78.8324C216.991 78.9855 216.855 79.1386 216.77 79.3427L216.531 79.853L222.927 82.8297C223.472 83.0849 224.135 82.8467 224.39 82.3024L227.01 76.6721L227.435 76.8762C227.492 76.8989 227.543 76.9273 227.588 76.9613C227.945 77.6077 228.506 78.152 229.221 78.4752C231.024 79.3087 233.167 78.5262 234.001 76.7231C234.851 74.9201 234.069 72.7768 232.266 71.9433C231.67 71.6712 231.041 71.5691 230.429 71.6201C230.338 71.5975 230.247 71.5634 230.156 71.5181L229.595 71.2629L232.521 64.9862C232.776 64.4249 232.538 63.7785 231.977 63.5234L214.507 55.4096C214.065 55.2055 213.521 55.3926 213.317 55.8349L210.357 62.2306C210.255 62.1626 210.164 62.0775 210.085 61.9755C209.676 61.4652 209.098 61.074 208.401 60.8868C206.989 60.4956 205.475 61.108 204.709 62.3667C203.672 64.0847 204.369 66.279 206.138 67.0955Z" fill="#EBEBEB"/>
<path d="M216.82 135.084C217.109 134.829 217.314 134.54 217.467 134.217C217.512 134.115 217.574 134.012 217.654 133.91L221.107 137.857C221.362 138.163 221.804 138.18 222.093 137.925L226.21 134.336L225.801 133.876C225.699 133.763 225.586 133.672 225.461 133.604C225.206 133.485 224.968 133.298 224.764 133.077C223.896 132.09 224.032 130.576 225.053 129.743C225.972 128.995 227.315 129.08 228.149 129.896C228.438 130.185 228.625 130.525 228.727 130.9C228.778 131.053 228.863 131.206 228.965 131.342L229.255 131.665L233.422 128.025C233.779 127.719 233.83 127.174 233.507 126.817L230.309 123.16L230.598 122.905C230.632 122.882 230.666 122.854 230.7 122.82C231.262 122.769 231.84 122.548 232.299 122.14C233.473 121.119 233.592 119.333 232.571 118.159C231.534 116.968 229.748 116.866 228.574 117.887C228.2 118.227 227.928 118.635 227.775 119.095C227.729 119.151 227.678 119.208 227.622 119.265L227.247 119.571L223.675 115.489C223.369 115.131 222.825 115.097 222.468 115.404L211.088 125.354C210.799 125.61 210.782 126.052 211.037 126.341L214.677 130.508C214.586 130.554 214.496 130.588 214.405 130.61C213.912 130.747 213.435 131.036 213.078 131.478C212.364 132.363 212.313 133.655 212.976 134.591C213.878 135.884 215.681 136.088 216.82 135.084Z" fill="#F5F5F5"/>
<path d="M176.303 17.4429C175.724 17.2898 175.163 17.2558 174.602 17.3408C174.409 17.3635 174.216 17.3635 174.023 17.3408L176.269 9.27807C176.422 8.68272 176.082 8.07036 175.486 7.90026L167.1 5.56989L166.828 6.52245C166.76 6.74358 166.743 6.98172 166.777 7.20285C166.828 7.66212 166.794 8.1384 166.675 8.59767C166.114 10.6219 163.987 11.7785 161.963 11.1322C160.194 10.5708 159.106 8.69973 159.48 6.87966C159.616 6.23328 159.905 5.67195 160.296 5.21268C160.466 5.00856 160.602 4.77042 160.67 4.51527L160.858 3.85188L152.37 1.45347C151.638 1.24935 150.873 1.6746 150.669 2.40603L148.593 9.89043L148.015 9.73734C147.947 9.71466 147.879 9.69198 147.811 9.6693C147.25 8.93787 146.45 8.39355 145.481 8.12139C143.082 7.458 140.599 8.86983 139.935 11.2682C139.272 13.6666 140.684 16.1501 143.082 16.8135C143.865 17.0346 144.647 17.0176 145.395 16.8305C145.52 16.8418 145.639 16.8645 145.753 16.8985L146.501 17.1027L144.188 25.4546C143.984 26.186 144.409 26.9344 145.14 27.1386L168.359 33.5854C168.954 33.7555 169.567 33.3982 169.737 32.8029L172.101 24.3149C172.226 24.3829 172.351 24.468 172.475 24.5701C173.088 25.1144 173.87 25.4886 174.789 25.5736C176.592 25.7608 178.344 24.6891 179.024 22.9881C179.96 20.6578 178.65 18.0892 176.303 17.4429Z" fill="#F5F5F5"/>
<path d="M2.52839 104.313C3.03869 104.517 3.58301 104.586 4.11032 104.552C4.29176 104.54 4.4732 104.552 4.65464 104.586L1.89902 111.968C1.6949 112.512 1.98407 113.108 2.51138 113.312L10.1829 116.169L10.5061 115.302C10.5911 115.098 10.6251 114.877 10.6081 114.672C10.6081 114.23 10.6762 113.788 10.8293 113.363C11.5097 111.526 13.6019 110.607 15.422 111.373C17.0379 112.053 17.9054 113.873 17.4121 115.557C17.242 116.152 16.9359 116.646 16.5276 117.054C16.3405 117.224 16.2044 117.445 16.1024 117.683L15.8812 118.279L23.6378 121.204C24.3012 121.459 25.0496 121.119 25.2878 120.456L27.8393 113.618L28.3836 113.822C28.4403 113.845 28.497 113.867 28.5537 113.89C29.03 114.604 29.7274 115.2 30.6119 115.523C32.8062 116.339 35.2386 115.217 36.0551 113.023C36.8716 110.845 35.7489 108.396 33.5716 107.579C32.8572 107.324 32.1088 107.256 31.3944 107.375C31.281 107.352 31.1732 107.324 31.0712 107.29L30.3908 107.035L33.2314 99.4145C33.4696 98.7341 33.1294 98.0027 32.466 97.7475L11.2545 89.8549C10.7102 89.6508 10.1148 89.9229 9.91073 90.4672L7.01903 98.2408C6.89429 98.1501 6.78089 98.0537 6.67883 97.9516C6.15152 97.3903 5.45411 96.9821 4.60361 96.829C2.91962 96.5058 1.20161 97.3733 0.419146 98.9042C-0.635474 101.013 0.385125 103.531 2.52839 104.313Z" fill="#F5F5F5"/>
<path d="M113.433 87.831C115.321 87.7119 116.954 88.2222 118.536 88.9536C119.251 89.2768 120.084 89.515 120.867 89.515L122.942 89.4809L122.959 66.4494C122.959 64.2721 121.19 62.5031 118.996 62.5031L97.1036 62.5881V62.1119C97.1036 61.1933 97.3418 60.2748 97.75 59.4413C98.8046 57.264 99.2469 54.7295 98.7876 52.0589C97.8691 46.7348 93.4295 42.5844 88.0543 42.006C80.638 41.2066 74.3613 46.956 74.3613 54.1512C74.3613 55.9202 74.7355 57.5702 75.3989 59.0841C75.7391 59.8665 75.9432 60.7 75.9432 61.5505L76.0793 62.5881H74.7525H49.6798C47.5025 62.5881 45.7164 64.3402 45.7164 66.5175V89.0387H43.8453C42.9608 89.0387 42.1103 88.8176 41.3279 88.4433C39.2526 87.4398 36.7352 87.0145 34.2007 87.4568C29.1657 88.3073 25.2364 92.5087 24.6921 97.6117C23.9266 104.637 29.3698 110.573 36.1908 110.573C37.8408 110.573 39.4227 110.216 40.8516 109.587C41.583 109.247 42.3655 109.059 43.1819 109.059H45.5974L45.6484 136.616C45.6484 138.385 47.0942 139.814 48.8633 139.814H119.506C121.275 139.814 122.687 137.585 122.687 135.816V110.777H119.829C119.166 110.777 118.502 110.897 117.89 111.152C116.665 111.645 115.321 111.917 113.91 111.917C107.854 111.917 102.972 106.916 103.21 100.844C103.431 95.5025 108.058 88.2052 113.433 87.831Z" fill="#E0E0E0"/>
<path d="M113.434 87.8308C113.434 87.8308 113.371 87.8422 113.247 87.8648C113.11 87.8819 112.923 87.8819 112.685 87.9499C112.209 88.035 111.477 88.2391 110.61 88.6813C108.892 89.5658 106.63 91.573 104.929 94.924C104.095 96.591 103.347 98.5982 103.262 100.895C103.228 102.051 103.381 103.242 103.738 104.433C104.112 105.623 104.707 106.797 105.558 107.852C106.391 108.906 107.48 109.842 108.739 110.539C109.998 111.237 111.46 111.696 112.991 111.815C114.522 111.968 116.138 111.764 117.669 111.186C118.418 110.845 119.268 110.675 120.119 110.709C120.958 110.709 121.814 110.709 122.687 110.709H122.738V110.777C122.738 114.724 122.738 118.942 122.738 123.382C122.738 125.604 122.738 127.884 122.738 130.22C122.738 131.388 122.738 132.567 122.738 133.758C122.738 134.359 122.738 134.96 122.738 135.561C122.755 135.867 122.738 136.19 122.687 136.479C122.619 136.786 122.551 137.092 122.432 137.381C122.211 137.959 121.888 138.504 121.445 138.946C121.02 139.405 120.459 139.762 119.812 139.864C119.489 139.898 119.183 139.881 118.86 139.881C118.554 139.881 118.242 139.881 117.924 139.881C117.289 139.881 116.654 139.881 116.019 139.881C113.468 139.893 110.865 139.898 108.212 139.898C102.921 139.898 97.4272 139.898 91.7459 139.898C80.4002 139.898 68.3401 139.898 55.7017 139.898C54.1254 139.898 52.5378 139.898 50.9389 139.898C50.1394 139.898 49.3569 139.915 48.5405 139.881C47.724 139.813 46.9245 139.405 46.3802 138.776C45.8359 138.163 45.5297 137.33 45.5637 136.496C45.5524 135.691 45.5467 134.88 45.5467 134.064C45.5467 132.431 45.5467 130.792 45.5467 129.148C45.5297 122.565 45.5127 115.863 45.5127 109.059L45.5977 109.144C45.0988 109.144 44.5941 109.144 44.0838 109.144C43.5906 109.161 43.0803 109.127 42.587 109.178C42.0937 109.246 41.6004 109.365 41.1241 109.553C40.6648 109.757 40.1886 109.961 39.6953 110.114C37.7221 110.743 35.5618 110.828 33.5036 110.335C31.4624 109.825 29.5233 108.804 28.0094 107.273C27.2269 106.542 26.6146 105.657 26.0532 104.739C25.8151 104.245 25.5429 103.786 25.3728 103.276C25.2708 103.021 25.1687 102.783 25.0837 102.51L24.8796 101.728C24.2502 99.1595 24.4883 96.4039 25.594 94.0225C26.6826 91.6241 28.5877 89.6509 30.9011 88.4772C32.0578 87.8819 33.2995 87.4906 34.5753 87.3035C35.851 87.1334 37.1608 87.1674 38.4195 87.3886C39.0432 87.5133 39.6556 87.6834 40.2566 87.8989C40.5628 88.0009 40.8633 88.12 41.1581 88.2561C41.4473 88.3922 41.7195 88.5282 42.0086 88.6303C43.1823 89.0896 44.4751 88.9195 45.7168 88.9535L45.6318 89.0385C45.6318 84.1737 45.6318 79.3655 45.6318 74.6141C45.6318 72.244 45.6318 69.8909 45.6318 67.5549C45.6488 66.9766 45.5977 66.3812 45.7168 65.7859C45.8189 65.2075 46.057 64.6462 46.4142 64.1699C47.0946 63.2174 48.2343 62.571 49.408 62.5199C58.6104 62.5029 67.5236 62.5029 76.0797 62.5029L75.9946 62.588C75.9606 62.2308 75.9096 61.8906 75.8755 61.5504C75.8755 60.921 75.7565 60.2916 75.5523 59.6793C75.4503 59.3901 75.3142 59.1009 75.1951 58.8118C75.0704 58.5169 74.9627 58.2164 74.8719 57.9102C74.4807 56.6855 74.2766 55.4268 74.2766 54.168L74.3276 53.2155C74.3446 53.0624 74.3446 52.9093 74.3616 52.7562L74.4297 52.2799C74.4977 51.9738 74.5147 51.6676 74.5998 51.3614L74.8549 50.4599C74.889 50.3238 74.94 50.1707 75.008 50.0346L75.1781 49.5924C75.2802 49.3032 75.3993 49.014 75.5523 48.7418L75.9776 47.9254L76.4879 47.1599C77.2023 46.1733 78.0188 45.2548 78.9884 44.5234L79.3286 44.2342L79.7198 43.9961C79.975 43.826 80.2131 43.6559 80.4682 43.5028C81.0126 43.2306 81.5229 42.9244 82.0842 42.7373C83.1898 42.2781 84.3635 42.0399 85.5202 41.9208C86.0985 41.8868 86.6939 41.8358 87.2722 41.8868C87.5614 41.9038 87.8506 41.9208 88.1398 41.9379C88.4233 41.9832 88.7067 42.0286 88.9902 42.0739C91.2526 42.5162 93.3618 43.5708 94.9948 45.0847C96.6448 46.5816 97.8695 48.4867 98.4818 50.5449C99.1282 52.6031 99.1792 54.7974 98.737 56.8046C98.5158 57.8252 98.1416 58.7948 97.6994 59.6963C97.4952 60.1556 97.3422 60.6318 97.2571 61.1081C97.155 61.6014 97.155 62.0947 97.1721 62.588L97.104 62.5199C103.041 62.5029 108.603 62.4859 113.757 62.4689C115.05 62.4576 116.314 62.4519 117.55 62.4519C117.856 62.4519 118.162 62.4519 118.469 62.4519C118.775 62.4519 119.081 62.4519 119.387 62.4689C119.999 62.537 120.595 62.7411 121.105 63.0473C122.126 63.6596 122.823 64.7483 122.959 65.8879C123.044 66.4663 122.993 67.0106 123.01 67.5719C123.01 68.1276 123.01 68.6719 123.01 69.2049C122.993 77.8119 122.976 84.667 122.959 89.4808V89.4978H122.942C122.109 89.5148 121.326 89.5488 120.595 89.5318C119.88 89.4808 119.217 89.2767 118.656 89.0215C117.55 88.4942 116.58 88.171 115.798 88.0179C115.016 87.8478 114.403 87.8308 114.012 87.8308C113.819 87.8195 113.672 87.8195 113.57 87.8308C113.479 87.8308 113.434 87.8308 113.434 87.8308C113.434 87.8308 113.621 87.8138 114.012 87.8138C114.42 87.8138 115.016 87.8308 115.798 87.9839C116.597 88.137 117.567 88.4772 118.673 88.9875C119.234 89.2427 119.88 89.4468 120.595 89.4978C121.326 89.4978 122.109 89.4638 122.942 89.4468L122.908 89.4808C122.908 84.667 122.908 77.8119 122.908 69.2049C122.908 68.6719 122.908 68.1276 122.908 67.5719C122.908 67.0276 122.942 66.4493 122.874 65.9049C122.721 64.7993 122.058 63.7277 121.054 63.1323C120.544 62.8261 119.982 62.622 119.387 62.571C119.081 62.554 118.775 62.554 118.469 62.554C118.162 62.554 117.856 62.554 117.55 62.554C116.314 62.5653 115.05 62.571 113.757 62.571C108.603 62.605 103.041 62.622 97.104 62.639H97.036V62.588C97.036 62.0947 97.036 61.5844 97.138 61.0911C97.2231 60.5978 97.3762 60.1045 97.5803 59.6453C98.0396 58.7267 98.3798 57.7742 98.6009 56.7876C99.0432 54.7804 98.9921 52.6201 98.3628 50.5959C97.7504 48.5547 96.5257 46.6666 94.9097 45.1868C93.2768 43.6899 91.2016 42.6523 88.9562 42.21C88.6841 42.176 88.4062 42.1363 88.1227 42.0909C87.8336 42.0569 87.5444 42.0569 87.2552 42.0399C86.6939 41.9719 86.1156 42.0399 85.5372 42.0569C84.3805 42.193 83.2239 42.4141 82.1522 42.8734C81.5909 43.0605 81.0806 43.3667 80.5533 43.6389C80.2981 43.7919 80.043 43.962 79.8049 44.1151L79.4306 44.3533L79.0734 44.6424C78.1209 45.3569 77.3214 46.2754 76.607 47.245L76.1137 48.0104L75.6884 48.8099C75.5353 49.0821 75.4333 49.3712 75.3142 49.6604L75.1441 50.0856C75.0931 50.2217 75.042 50.3578 75.008 50.5109L74.7529 51.3954C74.6678 51.7016 74.6508 52.0078 74.5828 52.3139L74.5147 52.7732C74.4977 52.9263 74.4977 53.0794 74.4807 53.2325L74.4297 54.168C74.4297 55.4098 74.6338 56.6515 75.008 57.8592C75.1101 58.1541 75.2235 58.4489 75.3482 58.7437C75.4673 59.0329 75.6034 59.3221 75.7054 59.6283C75.9096 60.2406 76.0286 60.887 76.0286 61.5504V61.5334C76.0627 61.8736 76.1137 62.2138 76.1647 62.571V62.656H76.0797C67.5236 62.673 58.6104 62.673 49.408 62.69C48.2853 62.7411 47.2137 63.3534 46.5503 64.272C46.2101 64.7313 45.972 65.2586 45.8699 65.8199C45.7678 66.3812 45.8189 66.9766 45.8019 67.5549C45.8132 69.8909 45.8189 72.244 45.8189 74.6141C45.8189 79.3655 45.8189 84.1737 45.8189 89.0385V89.1406H45.7168C45.0931 89.1406 44.4694 89.1406 43.8457 89.1406C43.1993 89.1406 42.5529 89.0045 41.9576 88.8004C41.6514 88.6983 41.3623 88.5452 41.0731 88.4262C40.7896 88.2901 40.5004 88.171 40.2056 88.069C39.6159 87.8535 39.0092 87.6891 38.3855 87.5757C37.1438 87.3375 35.868 87.3035 34.6093 87.4736C33.3505 87.6607 32.1088 88.035 30.9861 88.6303C28.7068 89.787 26.8187 91.7431 25.7471 94.0905C24.6754 96.4379 24.4373 99.1595 25.0497 101.694L25.2538 102.459C25.3388 102.715 25.4409 102.953 25.5429 103.208C25.713 103.718 25.9852 104.177 26.2233 104.637C26.7677 105.555 27.363 106.423 28.1455 107.154C29.6253 108.651 31.5475 109.672 33.5547 110.165C35.5788 110.641 37.7051 110.573 39.6442 109.944C40.1375 109.791 40.5968 109.587 41.0731 109.4C41.5494 109.195 42.0597 109.076 42.57 109.008C43.0803 108.957 43.5906 108.974 44.0838 108.974C44.5941 108.974 45.0988 108.974 45.5977 108.974H45.6828V109.059C45.6998 115.863 45.6998 122.565 45.7168 129.148C45.7168 130.792 45.7168 132.431 45.7168 134.064C45.7281 134.88 45.7338 135.691 45.7338 136.496C45.7168 137.296 45.989 138.078 46.5163 138.674C47.0266 139.269 47.775 139.643 48.5575 139.711C49.3399 139.745 50.1564 139.728 50.9389 139.728C52.5378 139.728 54.1254 139.728 55.7017 139.728C68.3401 139.745 80.4002 139.745 91.7459 139.745C97.4272 139.745 102.921 139.745 108.212 139.745C110.865 139.745 113.468 139.745 116.019 139.745C116.654 139.745 117.289 139.745 117.924 139.745C118.242 139.745 118.554 139.745 118.86 139.745C119.183 139.745 119.489 139.762 119.795 139.728C120.391 139.643 120.935 139.303 121.343 138.861C121.769 138.419 122.092 137.891 122.313 137.33C122.415 137.041 122.5 136.752 122.551 136.462C122.602 136.173 122.619 135.867 122.619 135.561C122.619 134.96 122.619 134.359 122.619 133.758C122.619 132.567 122.619 131.388 122.619 130.22C122.619 127.884 122.619 125.604 122.619 123.382C122.619 118.942 122.619 114.724 122.619 110.777L122.687 110.828C121.814 110.828 120.958 110.828 120.119 110.828C119.268 110.794 118.452 110.947 117.703 111.271C116.155 111.849 114.539 112.07 112.991 111.917C111.443 111.798 109.964 111.322 108.688 110.624C107.412 109.927 106.34 108.974 105.49 107.92C104.639 106.848 104.044 105.657 103.67 104.467C103.296 103.259 103.143 102.051 103.177 100.895C103.296 98.5812 104.044 96.574 104.878 94.89C106.596 91.539 108.875 89.5318 110.61 88.6473C111.477 88.2051 112.192 88.0179 112.685 87.9329C112.923 87.8819 113.11 87.8649 113.247 87.8478C113.371 87.8365 113.434 87.8308 113.434 87.8308Z" fill="#263238"/>
<path d="M205.952 88.7841C204.251 88.7841 202.618 89.1413 201.138 89.8047C200.627 90.0258 200.083 90.1959 199.539 90.281V66.0587C199.539 64.2727 198.093 62.8268 196.307 62.8268H171.115V65.6845C171.115 66.3479 171.251 67.0113 171.489 67.6236C172 68.8484 172.272 70.1922 172.272 71.604C172.272 77.6595 167.237 82.5414 161.13 82.2863C155.755 82.0821 151.264 77.7276 150.89 72.3524C150.771 70.4643 151.128 68.6783 151.877 67.0963C152.217 66.3819 152.404 65.6165 152.404 64.834V62.8268L126.872 62.7588C124.695 62.7588 122.909 64.5278 122.909 66.7221L122.892 89.1753H121.14C120.947 89.1753 120.748 89.1697 120.544 89.1583C118.401 87.5764 115.748 86.6408 112.873 86.6408C105.678 86.6408 99.8262 92.4923 99.8262 99.6875C99.8262 106.883 105.678 112.734 112.873 112.734C115.22 112.734 117.432 112.105 119.337 111.016C119.688 110.937 120.04 110.897 120.391 110.897H122.637V135.953C122.637 138.147 124.406 139.916 126.6 139.916H196.307C198.093 139.916 199.539 138.47 199.539 136.684V111.169C199.97 111.283 200.384 111.436 200.781 111.629C202.924 112.666 205.407 113.091 208.01 112.649C213.198 111.765 217.263 107.427 217.825 102.154C218.624 94.9077 212.994 88.7841 205.952 88.7841Z" fill="#F5F5F5"/>
<path d="M205.951 88.7841C205.951 88.7841 206.206 88.7841 206.717 88.8181C206.955 88.8181 207.278 88.8351 207.652 88.9031C207.834 88.9372 208.032 88.9712 208.248 89.0052C208.452 89.0222 208.69 89.0902 208.928 89.1583C209.155 89.215 209.404 89.283 209.676 89.3624C209.932 89.4474 210.204 89.5665 210.493 89.6686C210.629 89.7366 210.782 89.7877 210.935 89.8387C211.071 89.9181 211.213 89.9974 211.36 90.0768C211.65 90.2299 211.973 90.366 212.279 90.5871C213.504 91.3526 214.813 92.4752 215.868 94.0572C216.923 95.6391 217.773 97.6633 217.892 99.9936C217.909 100.283 217.943 100.589 217.943 100.878C217.921 101.173 217.904 101.474 217.892 101.78C217.875 101.933 217.875 102.086 217.858 102.239C217.835 102.386 217.813 102.539 217.79 102.698C217.767 102.857 217.745 103.01 217.722 103.158C217.677 103.316 217.637 103.469 217.603 103.617C217.314 104.859 216.804 106.1 216.072 107.257C215.341 108.414 214.388 109.502 213.231 110.404C212.058 111.288 210.68 112.003 209.183 112.428C208.809 112.547 208.418 112.598 208.026 112.7C207.635 112.751 207.227 112.819 206.836 112.836C206.019 112.904 205.203 112.887 204.369 112.768C203.553 112.666 202.719 112.462 201.92 112.173C201.103 111.901 200.372 111.424 199.521 111.22L199.589 111.169C199.589 115.099 199.589 119.249 199.589 123.638C199.601 125.826 199.606 128.071 199.606 130.374C199.606 131.53 199.606 132.698 199.606 133.878C199.606 134.467 199.606 135.057 199.606 135.647C199.606 135.941 199.606 136.242 199.606 136.548C199.606 136.701 199.589 136.854 199.589 137.007C199.572 137.16 199.555 137.314 199.504 137.45C199.232 138.657 198.229 139.678 196.987 139.916C196.681 139.984 196.358 139.984 196.051 139.984C195.734 139.984 195.422 139.984 195.116 139.984C194.492 139.984 193.868 139.984 193.245 139.984C190.739 139.984 188.181 139.984 185.573 139.984C180.351 139.984 174.959 140.001 169.38 140.001C158.238 140.001 146.399 140.001 133.999 140.001C132.457 140.001 130.897 140.001 129.321 140.001C128.539 140.001 127.756 140.001 126.974 140.001C126.583 140.001 126.174 140.001 125.783 139.916C125.392 139.831 125.001 139.695 124.643 139.508C123.946 139.117 123.351 138.504 122.976 137.773C122.789 137.416 122.67 137.024 122.602 136.633C122.534 136.225 122.551 135.817 122.551 135.425C122.551 133.827 122.551 132.216 122.551 130.595C122.551 124.148 122.551 117.565 122.551 110.897L122.636 110.982C122.109 110.982 121.582 110.982 121.02 110.982C120.748 110.982 120.459 110.982 120.187 110.982C119.915 110.993 119.637 111.033 119.353 111.101L119.387 111.084C117.788 112.003 115.968 112.598 114.08 112.768C112.192 112.921 110.253 112.683 108.433 112.037C106.63 111.373 104.929 110.319 103.551 108.924C102.173 107.529 101.119 105.828 100.472 103.957C100.013 102.613 99.7577 101.218 99.7407 99.8065C99.7577 98.3947 99.9619 96.9999 100.387 95.6561C100.795 94.3123 101.476 93.0706 102.292 91.9479C102.683 91.3696 103.16 90.8593 103.636 90.349L104.418 89.6516C104.674 89.4304 104.963 89.2263 105.235 89.0222C106.358 88.2227 107.616 87.5934 108.926 87.1681C110.236 86.7599 111.614 86.5728 112.975 86.5557C115.713 86.5728 118.418 87.4743 120.595 89.0732L120.561 89.0562C121.326 89.1072 122.109 89.0732 122.891 89.0902L122.806 89.1753C122.806 84.3785 122.812 79.644 122.823 74.9719C122.823 72.6359 122.823 70.3169 122.823 68.0149V67.1473C122.823 66.8752 122.823 66.586 122.857 66.2798C122.908 65.7015 123.112 65.1402 123.402 64.6469C123.997 63.6433 125.035 62.9119 126.191 62.7247C126.77 62.6397 127.331 62.6737 127.892 62.6737C128.459 62.6737 129.021 62.6737 129.576 62.6737C130.699 62.6851 131.816 62.6907 132.927 62.6907C135.15 62.6907 137.355 62.6964 139.544 62.7077C143.91 62.7191 148.197 62.7361 152.404 62.7588H152.472V62.8268C152.472 63.4278 152.472 64.0288 152.472 64.6299C152.489 65.2252 152.404 65.8376 152.234 66.4159C152.132 66.7051 152.012 66.9772 151.893 67.2494C151.774 67.5216 151.655 67.7937 151.553 68.0659C151.366 68.6102 151.213 69.1715 151.111 69.7499C150.686 72.0462 151.094 74.4276 152.132 76.4348C152.659 77.4384 153.322 78.3739 154.139 79.1394C154.938 79.9219 155.84 80.5852 156.826 81.0785C158.782 82.0991 161.028 82.4053 163.137 82.0991C165.263 81.793 167.236 80.8234 168.75 79.4286C169.499 78.7141 170.179 77.9317 170.689 77.0472C171.2 76.1797 171.625 75.2441 171.846 74.2745C172.373 72.3354 172.305 70.2942 171.727 68.4571C171.591 67.9978 171.37 67.5726 171.251 67.0963C171.115 66.62 171.047 66.1438 171.047 65.6505C171.047 64.7092 171.047 63.768 171.047 62.8268V62.7758H171.115C177.732 62.7758 183.906 62.7758 189.554 62.7758C190.971 62.7758 192.354 62.7758 193.704 62.7758C194.373 62.7758 195.036 62.7758 195.694 62.7758C196.017 62.7758 196.358 62.7758 196.681 62.8098C197.004 62.8438 197.327 62.9289 197.633 63.0649C198.229 63.3201 198.722 63.7623 199.062 64.3067C199.419 64.834 199.589 65.4634 199.589 66.0757C199.589 67.3004 199.584 68.4855 199.572 69.6308C199.572 78.8162 199.555 85.8073 199.555 90.2809L199.538 90.2469C200.661 90.1108 201.529 89.5495 202.328 89.3284C203.127 89.0732 203.808 88.9542 204.352 88.8691C204.88 88.8011 205.288 88.7841 205.56 88.7841C205.832 88.767 205.951 88.7841 205.951 88.7841C205.951 88.7841 205.821 88.7841 205.56 88.7841C205.288 88.8011 204.897 88.8181 204.352 88.9031C203.808 88.9712 203.128 89.1072 202.345 89.3624C201.546 89.5835 200.678 90.1449 199.538 90.2979H199.521V90.2809C199.504 85.8073 199.504 78.8162 199.487 69.6308C199.487 68.4855 199.487 67.3004 199.487 66.0757C199.487 65.4804 199.317 64.868 198.994 64.3577C198.654 63.8304 198.161 63.4051 197.582 63.15C197.293 63.0309 196.987 62.9459 196.664 62.9119C196.358 62.8778 196.017 62.8778 195.694 62.8778C195.036 62.8778 194.373 62.8778 193.704 62.8778C192.354 62.8778 190.971 62.8835 189.554 62.8948C183.906 62.8948 177.732 62.8948 171.115 62.8948L171.183 62.8268C171.183 63.768 171.183 64.7092 171.183 65.6505C171.183 66.1267 171.234 66.603 171.37 67.0623C171.506 67.5046 171.71 67.9468 171.846 68.4231C172.441 70.2772 172.51 72.3524 171.982 74.3085C171.744 75.2951 171.336 76.2307 170.809 77.1152C170.298 78.0167 169.601 78.8162 168.852 79.5306C167.304 80.9595 165.314 81.929 163.171 82.2522C161.028 82.5584 158.748 82.2522 156.758 81.2146C155.755 80.7043 154.836 80.0409 154.02 79.2585C153.22 78.459 152.54 77.5234 151.995 76.5028C150.941 74.4787 150.533 72.0462 150.958 69.7329C151.06 69.1375 151.213 68.5762 151.417 68.0149C151.519 67.7257 151.621 67.4535 151.74 67.1814C151.876 66.9092 151.995 66.654 152.08 66.3649C152.251 65.8035 152.336 65.2252 152.319 64.6299C152.319 64.0288 152.319 63.4278 152.319 62.8268L152.404 62.9119C148.197 62.9005 143.91 62.8892 139.544 62.8778C137.355 62.8665 135.15 62.8608 132.927 62.8608C131.816 62.8495 130.699 62.8438 129.576 62.8438C129.021 62.8438 128.459 62.8438 127.892 62.8438C127.331 62.8438 126.753 62.8098 126.208 62.8948C125.12 63.0649 124.116 63.7623 123.555 64.7319C123.266 65.2082 123.078 65.7525 123.027 66.2968C123.005 66.5803 122.993 66.8638 122.993 67.1473V68.0149C122.993 70.3169 122.993 72.6359 122.993 74.9719C122.982 79.644 122.976 84.3785 122.976 89.1753V89.2603H122.891C122.109 89.2433 121.343 89.2774 120.544 89.2433H120.527L120.493 89.2263C118.35 87.6444 115.679 86.7429 112.975 86.7429C111.631 86.7599 110.27 86.947 108.977 87.3382C107.684 87.7465 106.46 88.3758 105.337 89.1583C105.065 89.3794 104.776 89.5665 104.521 89.7876L103.772 90.4851C103.296 90.9783 102.82 91.4887 102.428 92.05C101.629 93.1556 100.965 94.3804 100.54 95.7071C100.132 97.0339 99.9278 98.4117 99.9278 99.8065C99.9448 101.184 100.183 102.579 100.625 103.906C101.272 105.743 102.326 107.427 103.67 108.805C105.048 110.183 106.715 111.22 108.501 111.867C110.287 112.513 112.209 112.734 114.063 112.581C115.917 112.411 117.72 111.833 119.302 110.931L119.319 110.914C119.603 110.857 119.892 110.823 120.187 110.812C120.476 110.795 120.748 110.812 121.02 110.812C121.582 110.812 122.109 110.812 122.636 110.812H122.721V110.897C122.721 117.565 122.721 124.148 122.721 130.595C122.721 132.216 122.721 133.827 122.721 135.425C122.721 135.817 122.704 136.208 122.772 136.599C122.84 136.973 122.959 137.365 123.129 137.705C123.487 138.402 124.048 138.981 124.728 139.355C125.069 139.542 125.443 139.678 125.817 139.746C126.191 139.831 126.583 139.831 126.974 139.831C127.756 139.831 128.539 139.831 129.321 139.831C130.897 139.831 132.457 139.831 133.999 139.831C146.399 139.831 158.238 139.831 169.38 139.848C174.959 139.848 180.351 139.848 185.573 139.848C188.181 139.848 190.739 139.848 193.245 139.848C193.868 139.848 194.492 139.848 195.116 139.848C195.422 139.848 195.734 139.848 196.051 139.848C196.358 139.848 196.647 139.831 196.953 139.78C198.144 139.542 199.113 138.572 199.385 137.416C199.453 137.143 199.47 136.837 199.47 136.548C199.47 136.242 199.47 135.941 199.47 135.647C199.47 135.057 199.47 134.467 199.47 133.878C199.47 132.698 199.47 131.53 199.47 130.374C199.47 128.071 199.47 125.826 199.47 123.638C199.47 119.249 199.47 115.099 199.487 111.169V111.101L199.555 111.118C200.423 111.322 201.154 111.799 201.954 112.071C202.753 112.36 203.57 112.564 204.386 112.666C205.203 112.768 206.019 112.802 206.819 112.734C207.227 112.717 207.618 112.666 208.009 112.598C208.384 112.513 208.775 112.445 209.149 112.343C210.646 111.918 212.007 111.203 213.163 110.319C214.337 109.434 215.273 108.363 216.004 107.206C216.735 106.066 217.229 104.824 217.535 103.6C217.569 103.452 217.603 103.299 217.637 103.14C217.66 102.993 217.682 102.84 217.705 102.681C217.728 102.534 217.75 102.386 217.773 102.239C217.807 102.086 217.807 101.933 217.807 101.78C217.83 101.474 217.847 101.173 217.858 100.878C217.858 100.589 217.841 100.3 217.824 99.9936C217.705 97.6803 216.855 95.6561 215.817 94.0912C214.762 92.5093 213.47 91.3866 212.245 90.6211C211.956 90.4 211.632 90.2639 211.343 90.1108C211.196 90.0315 211.054 89.9578 210.918 89.8897C210.765 89.8217 210.612 89.7706 210.476 89.7026C210.187 89.6005 209.932 89.4815 209.659 89.3964C209.399 89.317 209.149 89.2433 208.911 89.1753C208.673 89.1072 208.452 89.0562 208.231 89.0222C208.026 88.9882 207.828 88.9542 207.635 88.9201C207.278 88.8521 206.955 88.8351 206.717 88.8351C206.206 88.8011 205.951 88.7841 205.951 88.7841Z" fill="#263238"/>
<path d="M121.003 93.2387C121.003 93.2387 122.143 92.6603 123.163 92.8814C124.167 93.1026 127.841 95.484 127.841 95.484L130.784 94.9397L132.536 103.275L121.003 108.071V93.2387Z" fill="#AE7461"/>
<path d="M112.464 96.1468C112.464 96.1468 115.118 95.8236 116.07 95.3473C117.023 94.854 119.302 92.8298 119.778 92.8808C120.272 92.9149 121.99 93.238 121.99 93.238L121.292 95.3473C121.292 95.3473 124.762 97.4395 125.783 98.205C126.82 98.9874 130.052 102.44 130.205 103.291C130.342 104.141 130.086 105.128 129.695 105.468C129.287 105.791 127.807 105.128 127.807 105.128C127.807 105.128 128.028 105.91 127.484 106.642C126.923 107.373 125.647 107.118 125.647 107.118C125.647 107.118 125.528 108.326 124.932 108.547C124.354 108.768 123.027 108.105 123.027 108.105C123.027 108.105 122.619 109.142 122.143 109.244C121.666 109.364 120.306 108.547 120.306 108.547C120.306 108.547 114.42 104.329 113.093 103.699C111.767 103.07 111.358 103.036 111.358 103.036L112.464 96.1468Z" fill="#FFBE9D"/>
<path d="M123.027 108.106C122.993 108.106 122.976 108.003 122.925 107.85C122.857 107.697 122.755 107.493 122.619 107.272C122.364 106.813 122.126 106.456 122.177 106.422C122.211 106.405 122.5 106.711 122.772 107.17C122.908 107.408 123.01 107.646 123.044 107.816C123.078 108.003 123.044 108.123 123.027 108.106Z" fill="#EB996E"/>
<path d="M125.477 107.39C125.426 107.424 125.137 106.897 124.729 106.285C124.32 105.672 123.895 105.264 123.929 105.23C123.963 105.179 124.456 105.553 124.882 106.183C125.29 106.812 125.511 107.373 125.477 107.39Z" fill="#EB996E"/>
<path d="M127.841 105.265C127.79 105.282 127.62 104.652 127.212 103.955C126.803 103.275 126.344 102.815 126.378 102.781C126.395 102.747 126.94 103.155 127.365 103.87C127.79 104.584 127.875 105.265 127.841 105.265Z" fill="#EB996E"/>
<path d="M126.106 100.672C126.157 100.672 126.276 101.114 126.31 101.658C126.327 102.22 126.242 102.679 126.191 102.662C126.14 102.662 126.157 102.22 126.123 101.675C126.106 101.131 126.055 100.689 126.106 100.672Z" fill="#EB996E"/>
<path d="M117.55 97.3725C117.55 97.3725 118.469 94.4297 118.792 94.0555C119.132 93.6813 122.194 92.8818 122.194 92.8818L123.164 95.3483L122.466 96.0627L121.003 95.9607C121.003 95.9607 120.085 98.3931 117.55 97.3725Z" fill="#AE7461"/>
<path d="M111.903 103.19C111.903 103.19 111.478 103.513 111.903 104.279C112.311 105.061 113.451 104.5 113.825 104.279C113.825 104.279 113.281 105.571 113.978 105.98C114.675 106.388 115.526 106.269 115.526 106.269C115.526 106.269 115.475 107.051 116.479 107.562C117.465 108.072 117.72 107.562 117.72 107.562C117.72 107.562 117.839 108.854 118.979 108.956C120.119 109.076 120.527 108.684 120.527 108.684L120 107.919C120 107.919 120.663 106.575 120.153 105.98C119.642 105.384 118.792 105.469 118.792 105.469C118.792 105.469 119.013 104.262 118.367 103.939C117.142 103.309 116.615 104.466 116.615 104.466C116.615 104.466 116.547 103.156 115.594 103.19C114.641 103.224 114.114 103.802 114.114 103.802L111.903 103.19Z" fill="#AE7461"/>
<path d="M116.615 104.465C116.666 104.482 116.479 104.942 116.189 105.452C115.883 105.962 115.577 106.336 115.543 106.302C115.492 106.285 115.73 105.86 116.036 105.367C116.326 104.857 116.581 104.448 116.615 104.465Z" fill="#6F4439"/>
<path d="M118.809 105.622C118.86 105.656 118.673 106.132 118.315 106.642C117.958 107.169 117.584 107.51 117.55 107.476C117.516 107.442 117.822 107.05 118.162 106.54C118.52 106.047 118.775 105.605 118.809 105.622Z" fill="#6F4439"/>
<path d="M96.0154 119.52H90.4362L89.0073 139.812H94.6036C95.5562 136.734 97.9376 120.608 97.9376 120.608L96.0154 119.52Z" fill="#263238"/>
<path d="M64.4107 119.52C64.4107 119.52 60.8216 127.888 61.1788 131.29C61.536 134.675 63.5432 139.812 63.5432 139.812H91.2015C91.2015 139.812 91.9669 136.989 92.5623 132.804C93.1576 128.603 94.7736 119.52 94.7736 119.52H64.4107Z" fill="#263238"/>
<path d="M100.948 38.6713C100.013 37.4806 98.8562 36.3579 98.6181 34.861C98.3969 33.5002 98.9923 32.0033 98.3799 30.7616C97.6315 29.2477 95.4542 28.9415 94.5187 27.5297C94.0764 26.8323 93.9573 25.9648 93.5151 25.2844C92.7496 24.0937 91.1847 23.7195 89.7729 23.8045C88.378 23.8896 87.0172 24.3148 85.6054 24.3488C83.6833 24.3829 81.7271 23.6684 79.856 24.1277C77.7978 24.638 76.471 26.373 75.0592 28.057L73.2391 29.9791C72.8649 30.3193 72.4737 30.6085 72.0484 30.8637C71.3 31.2889 70.4495 31.5781 69.8031 32.1394C68.4083 33.3641 68.3913 35.8306 69.7861 37.0553C68.2892 37.4465 67.1496 38.9434 67.1666 40.4913C67.1666 41.3418 67.4898 42.1583 67.6939 42.9918C67.915 43.8083 68.0341 44.7268 67.6429 45.4923C67.2686 46.2577 66.248 46.751 65.5166 46.2917C65.7377 47.4144 66.4692 48.418 67.4728 48.9453C67.0645 49.3365 66.4862 49.5576 65.9078 49.5406C67.2856 53.2828 71.4361 55.4091 75.3994 55.6132C79.3798 55.8173 83.241 54.4905 87.0002 53.1978L97.8356 50.9185C98.7882 50.7484 99.2304 49.6257 99.2644 48.6561C99.2985 47.7036 99.0943 46.683 99.4856 45.7984C100.013 44.5907 101.476 44.0124 102.02 42.8047C102.649 41.4439 101.867 39.8449 100.948 38.6713Z" fill="#263238"/>
<path d="M75.1783 47.2102C74.5149 44.7608 73.8685 42.2944 73.6304 39.7599C73.4093 37.2254 73.6134 34.6228 74.617 32.2925C74.7701 31.9353 76.0458 29.5709 76.42 29.6219C76.6922 29.6729 75.8757 31.8842 76.0118 32.1394C77.2025 34.4698 77.4236 37.2084 77.0834 39.8279C76.7432 42.4304 76.0628 44.7438 75.1783 47.2102Z" fill="#263238"/>
<path d="M75.4164 37.5315C75.5355 31.1527 79.3458 25.9136 85.7245 26.2198L86.3028 26.2708C92.2053 26.9002 96.6449 31.9522 96.4918 37.8717C96.3558 43.3999 96.1346 49.5065 95.7944 52.4322C95.08 58.5048 88.9054 58.811 88.9054 58.811C88.8884 58.811 88.7353 68.8469 88.7353 68.8469L74.2598 58.811L75.4164 37.5315Z" fill="#FFBE9D"/>
<path d="M88.9054 58.8117C88.9054 58.8117 85.0441 58.6246 81.2339 55.6309C81.2339 55.6309 82.6627 60.7679 88.7863 60.8699L88.9054 58.8117Z" fill="#EB996E"/>
<path d="M94.3992 42.6006C94.3652 43.0599 93.9399 43.4001 93.4636 43.3831C92.9874 43.3491 92.6131 42.9578 92.6472 42.4986C92.6812 42.0393 93.0894 41.6821 93.5827 41.7161C94.059 41.7331 94.4162 42.1244 94.3992 42.6006Z" fill="#263238"/>
<path d="M94.927 40.2701C94.808 40.3722 94.2126 39.8109 93.2771 39.7088C92.3415 39.6067 91.6101 40.015 91.508 39.8959C91.474 39.8279 91.6101 39.6408 91.9163 39.4537C92.2395 39.2665 92.7668 39.1135 93.3451 39.1815C93.9235 39.2325 94.3997 39.5047 94.6549 39.7598C94.91 39.998 94.9951 40.2191 94.927 40.2701Z" fill="#263238"/>
<path d="M85.9281 42.6006C85.9111 43.0599 85.4858 43.4001 85.0095 43.3831C84.5333 43.3491 84.159 42.9578 84.1931 42.4986C84.2271 42.0393 84.6353 41.6821 85.1286 41.7161C85.6049 41.7331 85.9621 42.1244 85.9281 42.6006Z" fill="#263238"/>
<path d="M85.7415 39.6752C85.6224 39.7773 85.01 39.233 84.0745 39.1309C83.1559 39.0288 82.4075 39.4371 82.3224 39.301C82.2714 39.25 82.4075 39.0629 82.7307 38.8758C83.0539 38.6886 83.5642 38.5185 84.1595 38.5866C84.7379 38.6546 85.1971 38.9268 85.4523 39.1649C85.7244 39.4201 85.7925 39.6412 85.7415 39.6752Z" fill="#263238"/>
<path d="M88.3441 47.2107C88.3441 47.1597 88.9224 47.1257 89.875 47.0917C90.1302 47.1087 90.3513 47.0747 90.4193 46.9216C90.4874 46.7515 90.4193 46.4793 90.3343 46.1901C90.1642 45.5891 89.9884 44.9598 89.807 44.302C89.1096 41.6145 88.6163 39.4031 88.7353 39.3861C88.8374 39.3521 89.5008 41.5124 90.1982 44.2C90.3683 44.869 90.5327 45.5041 90.6915 46.1051C90.7595 46.3772 90.8786 46.7004 90.7085 47.0576C90.6234 47.2277 90.4363 47.3298 90.2832 47.3638C90.1302 47.3979 89.9941 47.3808 89.875 47.3808C88.9224 47.3298 88.3271 47.2618 88.3441 47.2107Z" fill="#263238"/>
<path d="M85.5204 47.5673C85.6735 47.5843 85.5715 48.5879 86.3539 49.4043C87.1534 50.2208 88.242 50.2208 88.242 50.3569C88.242 50.4249 87.9699 50.527 87.5106 50.493C87.0684 50.459 86.422 50.2548 85.9457 49.7615C85.4524 49.2512 85.2993 48.6389 85.2993 48.2306C85.3163 47.7884 85.4524 47.5502 85.5204 47.5673Z" fill="#263238"/>
<path d="M86.0815 35.8824C85.9624 36.1206 85.0439 35.9164 83.9382 35.9334C82.8326 35.9164 81.914 36.1546 81.795 35.8994C81.7439 35.7803 81.914 35.5592 82.3053 35.3551C82.6795 35.151 83.2748 34.9809 83.9382 34.9639C84.6016 34.9639 85.197 35.134 85.5712 35.3381C85.9624 35.5422 86.1495 35.7633 86.0815 35.8824Z" fill="#263238"/>
<path d="M94.8759 37.124C94.6888 37.3111 94.0595 37.0219 93.294 36.9369C92.5286 36.8178 91.8482 36.9199 91.7291 36.6817C91.661 36.5797 91.7971 36.3755 92.1033 36.2054C92.4095 36.0353 92.8858 35.9163 93.4301 35.9843C93.9574 36.0694 94.3997 36.3075 94.6378 36.5456C94.8929 36.8008 94.961 37.0219 94.8759 37.124Z" fill="#263238"/>
<path d="M75.4504 42.073C75.3483 42.0219 71.402 40.406 71.0959 44.5734C70.7897 48.7409 75.0422 48.1966 75.0592 48.0775C75.0762 47.9584 75.4504 42.073 75.4504 42.073Z" fill="#FFBE9D"/>
<path d="M73.8855 46.3939C73.8685 46.3769 73.8175 46.445 73.6984 46.496C73.5623 46.53 73.3582 46.564 73.1541 46.462C72.7118 46.2749 72.4057 45.5434 72.4397 44.795C72.4567 44.4038 72.5587 44.0466 72.7118 43.7574C72.8649 43.4682 73.069 43.2641 73.3072 43.2471C73.5283 43.2131 73.6644 43.3491 73.7154 43.4852C73.7665 43.6043 73.7324 43.6723 73.7494 43.6894C73.7664 43.7064 73.8515 43.6213 73.8175 43.4512C73.8175 43.3662 73.7664 43.2641 73.6814 43.1791C73.5793 43.094 73.4433 43.043 73.2902 43.043C72.967 43.043 72.6438 43.3151 72.4737 43.6383C72.2866 43.9445 72.1675 44.3527 72.1335 44.778C72.0995 45.6115 72.4737 46.445 73.069 46.6491C73.3582 46.7512 73.6134 46.6831 73.7494 46.5981C73.8855 46.496 73.9025 46.411 73.8855 46.3939Z" fill="#EB996E"/>
<path d="M94.2468 30.7961C94.9443 30.4559 93.0561 28.1425 91.4402 27.292C89.0078 25.9823 85.2315 25.0467 82.8672 25.54C80.0265 26.1524 77.6281 27.3941 76.0632 29.8435C74.5152 32.276 73.8008 35.2017 73.6818 38.0934C73.6477 38.9779 73.6818 39.9134 74.107 40.6959C74.6343 41.6485 75.723 42.2948 75.5869 43.5706C75.5358 44.0299 75.6379 44.5061 75.9441 44.8804C76.6415 45.7309 77.6281 45.0335 78.1044 44.302C79.125 42.7201 79.3631 40.781 79.5672 38.9099C79.7033 37.5831 79.8394 36.2223 79.5502 34.9125C79.3971 34.2151 79.1079 33.5347 78.9889 32.8203C78.8698 32.1059 78.9378 31.3064 79.4141 30.7451C79.4992 30.66 79.6182 30.5579 79.7713 30.4219C81.0301 29.4693 82.6971 29.2652 84.1429 29.8775C86.4393 30.8641 90.3856 32.361 91.4742 31.6466C93.0561 30.592 93.4644 29.8605 93.4644 29.8605L94.2468 30.7961Z" fill="#263238"/>
<path d="M83.1221 24.9954C85.4694 24.3661 88.072 24.5872 90.1472 25.8289C91.2528 26.4923 92.2224 27.5129 92.4946 28.7716C92.7497 30.0304 92.1374 31.5103 90.9126 31.9185L90.8276 31.9695C89.0075 32.4458 87.8678 32.1396 86.1328 31.4082C84.67 30.7958 83.3942 29.7922 81.9314 29.1799C80.3835 28.5335 78.6314 28.3804 76.9814 28.7206C78.6995 27.0026 80.7747 25.6078 83.1221 24.9954Z" fill="#263238"/>
<path d="M84.1768 24.2637C84.1768 24.2637 84.3298 24.2637 84.602 24.3147C84.8742 24.3657 85.2654 24.4508 85.7247 24.6209C86.1839 24.791 86.7283 25.0461 87.2726 25.4033C87.7999 25.7776 88.3612 26.2538 88.8035 26.8662C89.2457 27.4956 89.4839 28.193 89.637 28.8224C89.7901 29.4517 89.8581 30.0301 89.8921 30.5234C89.9261 31.0166 89.9261 31.4079 89.9261 31.68C89.9261 31.9692 89.9091 32.1053 89.8921 32.1053C89.8751 32.1053 89.8751 31.9692 89.8581 31.68C89.8411 31.4079 89.8241 31.0166 89.7731 30.5404C89.722 30.0471 89.637 29.4857 89.4839 28.8564C89.3138 28.244 89.0756 27.5636 88.6504 26.9683C88.2251 26.3729 87.6978 25.9136 87.1705 25.5394C86.6432 25.1822 86.1329 24.9101 85.6736 24.74C84.7721 24.3657 84.1768 24.2977 84.1768 24.2637Z" fill="#455A64"/>
<path d="M88.021 24.0424C88.021 24.0254 88.1571 24.0594 88.3782 24.1275C88.4973 24.1785 88.6334 24.2125 88.7864 24.2976C88.9452 24.377 89.121 24.462 89.3138 24.5527C90.0622 24.995 90.9807 25.8625 91.474 27.1042C91.6101 27.4104 91.6952 27.7166 91.7802 28.0228C91.8482 28.3289 91.9163 28.6181 91.9163 28.9073C91.9503 29.1964 91.9333 29.4686 91.9333 29.7238C91.8993 29.9789 91.8993 30.2171 91.8482 30.4212C91.7972 30.6423 91.7462 30.8294 91.6781 30.9825C91.6271 31.1526 91.5761 31.2887 91.5251 31.3907C91.406 31.6119 91.3379 31.7309 91.3209 31.7139C91.2869 31.6969 91.5761 31.2376 91.7122 30.4042C91.7632 30.2 91.7632 29.9619 91.7972 29.7067C91.7802 29.4686 91.7972 29.1964 91.7632 28.9243C91.7462 28.6351 91.6781 28.363 91.6101 28.0568C91.5251 27.7676 91.44 27.4614 91.3209 27.1723C90.8276 25.9645 89.9601 25.114 89.2457 24.6548C89.0643 24.5527 88.8998 24.462 88.7524 24.3826C88.5993 24.2976 88.4633 24.2465 88.3612 24.1955C88.1401 24.1105 88.021 24.0424 88.021 24.0424Z" fill="#455A64"/>
<path d="M90.7425 67.8262C90.7425 68.4046 93.6172 81.009 94.7058 84.1048C95.8114 87.2006 99.2815 118.244 98.8222 120.455C98.3629 122.666 97.1722 122.581 97.1722 122.581C97.1722 122.581 69.0887 120.812 66.061 121.068C63.0502 121.34 61.7574 121.255 61.026 117.802C60.2946 114.349 61.06 96.42 60.4136 92.0825C59.7673 87.7619 59.7673 85.6527 59.5121 79.2229C59.308 73.6436 60.5667 69.17 63.2203 65.9381C65.8738 62.7062 71.7593 59.4403 71.7593 59.4403L73.8345 56.3955L88.5822 64.2031L88.9224 62.4171L89.8239 65.1897L90.7425 67.8262Z" fill="#455A64"/>
<g opacity="0.3">
<path d="M97.0871 106.252C96.8319 105.622 96.0325 105.452 95.3691 105.384C89.1264 104.687 82.6116 103.139 78.0529 98.8182C76.2668 97.1172 74.855 95.076 73.5112 93.0178C70.5345 88.5442 67.7448 83.9345 64.9722 79.3418L62.7949 80.1583C64.1217 86.6561 65.4315 91.3509 67.5917 96.675C69.752 101.999 71.436 107.153 76.9132 108.905C80.4513 110.028 87.1873 109.16 90.8784 108.871C92.4263 108.752 93.9913 108.599 95.4711 108.157C95.9304 108.021 96.3727 107.851 96.7129 107.527C97.0531 107.187 97.2572 106.677 97.0871 106.252Z" fill="black"/>
</g>
<path d="M62.0461 78.4568C62.1992 78.746 74.7015 105.452 80.2808 106.557C85.8601 107.646 103.21 107.918 106.595 107.272C109.98 106.625 113.297 106.03 113.297 106.03C113.297 106.03 115.747 100.213 113.518 95.2457L108.858 95.3988C108.858 95.3988 95.896 94.7014 94.0589 94.1911C92.2388 93.6978 90.6569 91.9798 89.0069 92.0648L79.1581 69.1353C79.1581 69.1353 72.7454 63.1818 68.1697 65.0189C63.594 66.839 60.7023 76.0754 62.0461 78.4568Z" fill="#455A64"/>
<path d="M109.215 106.965C109.198 106.948 109.232 106.795 109.3 106.506C109.385 106.217 109.47 105.809 109.573 105.298C109.675 104.788 109.76 104.159 109.811 103.478C109.879 102.781 109.896 102.016 109.862 101.216C109.794 99.6171 109.505 98.1883 109.232 97.1847C109.096 96.6744 108.96 96.2662 108.875 95.994C108.773 95.7219 108.722 95.5518 108.739 95.5518C108.756 95.5518 108.824 95.7048 108.926 95.977C109.045 96.2492 109.198 96.6404 109.351 97.1507C109.658 98.1543 109.981 99.6001 110.049 101.216C110.066 102.016 110.049 102.798 109.981 103.478C109.913 104.176 109.811 104.805 109.692 105.316C109.573 105.843 109.47 106.251 109.368 106.523C109.283 106.812 109.232 106.965 109.215 106.965Z" fill="#263238"/>
<path d="M79.1584 69.1357C79.1584 69.1357 79.2095 69.2718 79.3456 69.544C79.459 69.8161 79.6291 70.213 79.8559 70.7347C80.3151 71.7893 80.9955 73.3372 81.863 75.3274C83.581 79.3077 86.0475 85.0401 89.0753 92.0482L89.0072 91.9972C89.7897 91.9632 90.5211 92.3034 91.1845 92.6776C91.8649 93.0518 92.5283 93.477 93.2427 93.8172C93.9572 94.1745 94.7736 94.2595 95.5901 94.3616C96.4236 94.4466 97.2571 94.5317 98.1076 94.5997C101.51 94.8719 105.116 95.11 108.858 95.3141C110.321 95.2631 111.903 95.2121 113.519 95.161H113.57L113.587 95.2121C114.318 96.862 114.607 98.7161 114.522 100.553C114.454 102.407 114.063 104.278 113.383 106.064L113.366 106.115H113.315C112.379 106.286 111.375 106.473 110.355 106.66C109.266 106.864 108.183 107.068 107.106 107.272C106.034 107.476 104.946 107.561 103.857 107.595C101.714 107.697 99.5875 107.714 97.4952 107.697C95.403 107.68 93.3618 107.629 91.3546 107.561C89.3474 107.493 87.3913 107.391 85.4692 107.238C84.5166 107.17 83.564 107.085 82.6455 106.983C81.7099 106.864 80.7914 106.779 79.9069 106.524C79.4646 106.354 79.0734 106.115 78.7162 105.843C78.359 105.571 78.0188 105.265 77.7126 104.959C77.0662 104.329 76.5049 103.666 75.9776 103.003C73.8683 100.315 72.2014 97.5935 70.7215 95.11C67.7958 90.0921 65.6695 85.9076 64.2237 82.9989C63.5092 81.553 62.9479 80.4134 62.5907 79.6479C62.2165 78.8825 62.0464 78.4572 62.0464 78.4572C62.0464 78.4572 62.0974 78.5593 62.1825 78.7634C62.2845 78.9562 62.4319 79.2454 62.6247 79.6309C62.9989 80.3964 63.5603 81.519 64.2917 82.9649C65.7546 85.8566 67.8808 90.041 70.8235 95.042C72.3204 97.5254 73.9874 100.247 76.0966 102.918C76.624 103.581 77.1853 104.227 77.8147 104.84C78.1208 105.146 78.444 105.452 78.8012 105.724C79.1584 105.979 79.5327 106.218 79.9579 106.371C80.8084 106.609 81.744 106.694 82.6625 106.813C83.581 106.915 84.5336 107.017 85.4862 107.085C87.3913 107.221 89.3474 107.323 91.3546 107.391C93.3618 107.459 95.42 107.51 97.4952 107.527C99.5875 107.527 101.714 107.527 103.857 107.425C104.929 107.374 106 107.306 107.072 107.085C108.149 106.892 109.232 106.694 110.321 106.49C111.341 106.303 112.345 106.115 113.281 105.945L113.212 105.996C113.893 104.244 114.267 102.39 114.352 100.553C114.437 98.7161 114.148 96.8961 113.434 95.2801L113.519 95.3311C111.903 95.3822 110.321 95.4332 108.858 95.4842C105.099 95.2631 101.493 95.042 98.0906 94.7528C97.2401 94.6848 96.4066 94.5997 95.5731 94.5147C95.1649 94.4636 94.7566 94.4126 94.3484 94.3275C93.9401 94.2765 93.5489 94.1064 93.1917 93.9533C92.4603 93.6131 91.7969 93.1709 91.1165 92.7966C90.4531 92.4224 89.7387 92.0992 89.0072 92.1333L88.9562 92.1503L88.9392 92.0992C85.9454 85.0911 83.496 79.3417 81.778 75.3614C80.9445 73.3712 80.2811 71.8063 79.8218 70.7517C79.6064 70.2301 79.4363 69.8275 79.3115 69.544C79.2095 69.2718 79.1584 69.1357 79.1584 69.1357Z" fill="#263238"/>
<path d="M77.8484 67.3326C77.8314 67.3326 77.6783 67.1625 77.3551 66.8733C77.0489 66.5841 76.5726 66.1929 75.9263 65.8017C75.2799 65.4105 74.4634 65.0192 73.4938 64.7471C72.5413 64.4919 71.4356 64.3558 70.2959 64.4749C69.1393 64.594 68.0846 64.9342 67.2001 65.3764C66.2986 65.8357 65.5672 66.38 65.0228 66.8903C64.4615 67.4176 64.0703 67.8939 63.8321 68.2341C63.577 68.5743 63.4579 68.7784 63.4409 68.7614C63.4409 68.7614 63.4693 68.7104 63.526 68.6083C63.577 68.5233 63.645 68.3702 63.7811 68.2001C64.0022 67.8259 64.3935 67.3326 64.9378 66.8053C65.4821 66.261 66.2135 65.6996 67.1151 65.2403C68.0166 64.7641 69.1052 64.4239 70.2619 64.2878C71.4356 64.1857 72.5753 64.3218 73.5449 64.594C74.5314 64.8661 75.3479 65.2744 75.9943 65.6996C76.6407 66.1079 77.117 66.5161 77.4061 66.8393C77.5592 66.9754 77.6613 67.1114 77.7463 67.1965C77.8144 67.2759 77.8484 67.3212 77.8484 67.3326Z" fill="#263238"/>
<path d="M88.9733 92.0823C89.0243 92.0993 88.7351 92.9668 88.3439 94.0214C87.9527 95.076 87.5954 95.9265 87.5444 95.9095C87.4934 95.8925 87.7826 95.025 88.1738 93.9704C88.565 92.9158 88.9222 92.0653 88.9733 92.0823Z" fill="#263238"/>
<path d="M111.614 96.4881C111.614 96.4711 111.665 96.4711 111.75 96.4881C111.835 96.5221 111.937 96.6072 112.005 96.7433C112.056 96.8623 112.107 97.0835 111.988 97.2706C111.869 97.4407 111.648 97.5768 111.393 97.5427C111.138 97.4917 110.984 97.2706 110.95 97.0665C110.916 96.8623 111.001 96.6582 111.121 96.5732C111.24 96.4541 111.376 96.4541 111.461 96.4541C111.529 96.4711 111.58 96.4881 111.58 96.4881C111.58 96.5221 111.376 96.4881 111.206 96.6582C111.121 96.7433 111.07 96.8964 111.104 97.0324C111.138 97.1855 111.257 97.3386 111.427 97.3726C111.58 97.3897 111.767 97.3046 111.852 97.1855C111.937 97.0665 111.92 96.8964 111.886 96.7943C111.801 96.5392 111.614 96.5051 111.614 96.4881Z" fill="#263238"/>
<path d="M88.9393 65.0872C88.9393 65.0872 88.8202 65.0362 88.5991 64.9171C88.3723 64.781 88.0604 64.5996 87.6635 64.3728L87.7316 64.3558C87.5615 65.2743 87.3744 66.6521 87.0682 68.2851L87.0342 68.3871L86.9491 68.3361C85.5713 67.4686 83.9384 66.482 82.1863 65.4274C80.8766 64.645 79.6518 63.8625 78.5292 63.1821C77.4065 62.5017 76.3689 61.9063 75.5014 61.4301C74.6339 60.9538 73.9365 60.5626 73.4262 60.2734C73.1994 60.1486 73.0123 60.0466 72.8648 59.9672C72.7401 59.8878 72.6777 59.8481 72.6777 59.8481C72.6891 59.8368 72.7571 59.8651 72.8819 59.9332C73.0293 60.0012 73.2221 60.0976 73.4602 60.2224C73.9705 60.4605 74.6849 60.8347 75.5524 61.311C76.4369 61.7873 77.4746 62.3656 78.6142 63.029C79.7369 63.7264 80.9786 64.4749 82.2714 65.2743C84.0234 66.3289 85.6734 67.3325 87.0342 68.2L86.9151 68.2511C87.2383 66.6351 87.4424 65.2573 87.6465 64.3388L87.6635 64.2707L87.7146 64.3047C88.1001 64.5429 88.4063 64.73 88.6331 64.8661C88.8372 65.0022 88.9393 65.0702 88.9393 65.0872Z" fill="#263238"/>
<g opacity="0.3">
<path d="M74.7534 60.9365C77.3163 62.853 79.8848 64.7638 82.4589 66.6689C84.1429 67.9446 85.878 69.2204 87.8851 69.8668C87.8511 68.0864 87.8171 66.3003 87.7831 64.5086L86.9836 68.2678L74.7534 60.9365Z" fill="black"/>
</g>
<path d="M154.003 34.1635C152.659 34.3336 151.264 33.3811 150.941 32.0543C150.635 30.7445 151.451 29.2646 152.727 28.8224C151.876 27.9719 151.638 26.5771 152.166 25.5054C152.693 24.4338 153.952 23.7704 155.125 23.9235C155.159 22.7498 155.84 21.6101 156.86 21.0148C157.898 20.4364 159.225 20.4364 160.262 21.0148C161.538 19.8751 163.63 19.7901 165.008 20.8277C166.148 20.5895 167.407 21.1849 167.968 22.2055C168.529 23.2261 168.342 24.6039 167.526 25.4374" fill="#263238"/>
<path d="M153.594 34.5543C153.969 28.4647 158.953 23.6849 165.042 23.5488H165.655C172.186 23.787 175.639 29.4853 175.214 36.0172L175.588 59.3209L159.701 65.0192L159.565 56.6333C159.565 56.6333 153.254 55.7828 153.05 49.5061C152.965 46.4783 153.254 40.2186 153.594 34.5543Z" fill="#AE7461"/>
<path d="M159.514 56.6164C159.514 56.6164 163.528 56.7865 167.695 54.0479C167.695 54.0479 165.841 58.6065 159.565 58.1643L159.514 56.6164Z" fill="#6F4439"/>
<path d="M155.363 40.2364C155.363 40.6957 155.755 41.1039 156.248 41.1209C156.741 41.1379 157.149 40.7637 157.149 40.2874C157.166 39.8111 156.775 39.4199 156.282 39.4029C155.772 39.3859 155.38 39.7601 155.363 40.2364Z" fill="#263238"/>
<path d="M155.023 37.5998C155.125 37.7189 155.806 37.1916 156.758 37.1746C157.728 37.1405 158.442 37.6338 158.544 37.5148C158.595 37.4467 158.476 37.2426 158.17 37.0215C157.864 36.8173 157.337 36.5962 156.741 36.6132C156.129 36.6302 155.636 36.8684 155.346 37.0895C155.057 37.3276 154.955 37.5488 155.023 37.5998Z" fill="#263238"/>
<path d="M164.157 40.2364C164.157 40.6957 164.548 41.1039 165.042 41.1209C165.535 41.1379 165.943 40.7637 165.943 40.2874C165.96 39.8111 165.552 39.4199 165.059 39.4029C164.565 39.3859 164.157 39.7601 164.157 40.2364Z" fill="#263238"/>
<path d="M164.498 37.5823C164.617 37.7014 165.28 37.174 166.25 37.157C167.22 37.14 167.934 37.6163 168.036 37.4972C168.087 37.4462 167.968 37.2251 167.662 37.021C167.356 36.7998 166.828 36.5957 166.216 36.5957C165.621 36.6127 165.127 36.8509 164.838 37.089C164.549 37.3101 164.447 37.5313 164.498 37.5823Z" fill="#263238"/>
<path d="M161.147 44.8118C161.147 44.7607 160.551 44.6587 159.582 44.5566C159.327 44.5396 159.089 44.4886 159.055 44.3355C158.987 44.1484 159.089 43.8762 159.191 43.587C159.417 42.986 159.65 42.3566 159.888 41.6989C160.841 39.0113 161.538 36.8 161.419 36.766C161.317 36.732 160.449 38.8753 159.497 41.5628C159.27 42.2319 159.049 42.8669 158.833 43.468C158.748 43.7571 158.595 44.0633 158.731 44.4375C158.799 44.6246 158.987 44.7437 159.14 44.7947C159.293 44.8288 159.429 44.8288 159.565 44.8458C160.534 44.8798 161.147 44.8628 161.147 44.8118Z" fill="#263238"/>
<path d="M164.14 34.2995C164.276 34.5377 165.093 34.2655 166.113 34.2145C167.134 34.1294 167.985 34.2995 168.087 34.0444C168.121 33.9253 167.934 33.7212 167.559 33.5171C167.202 33.3299 166.641 33.1939 166.028 33.2279C165.416 33.2789 164.889 33.483 164.566 33.7212C164.225 33.9423 164.089 34.1804 164.14 34.2995Z" fill="#263238"/>
<path d="M154.836 34.1807C155.04 34.4018 155.823 34.1466 156.792 34.1296C157.745 34.0616 158.561 34.2317 158.731 33.9935C158.816 33.8915 158.68 33.6703 158.323 33.4662C157.966 33.2791 157.388 33.109 156.724 33.143C156.078 33.1771 155.499 33.3812 155.176 33.6193C154.836 33.8575 154.734 34.0786 154.836 34.1807Z" fill="#263238"/>
<path d="M154.156 31.6631C154.156 31.6631 155.721 27.6997 157.609 26.7302C159.871 25.5735 160.909 28.0739 163.086 27.4276C165.263 26.7642 167.441 25.6585 169.703 27.3085C172.187 29.0945 171.064 30.4213 171.268 33.211C172.118 44.4886 174.245 47.6354 174.721 42.3113C174.772 41.733 176.388 41.2227 176.575 38.7562C176.83 35.5583 176.864 31.6801 176.099 29.4347C175.469 27.5296 174.347 26.2369 172.374 24.825C169.244 22.5797 165.008 22.6308 162.134 22.971C159.259 23.3112 153.782 26.7472 154.156 31.6631Z" fill="#263238"/>
<path d="M174.33 42.1411C174.347 41.1715 175.163 40.3891 176.133 40.4741C177.306 40.5592 178.616 41.1885 178.599 43.621C178.548 47.9075 174.245 46.9719 174.228 46.8529C174.228 46.7678 174.279 43.9441 174.33 42.1411Z" fill="#AE7461"/>
<path d="M175.18 45.254C175.197 45.237 175.265 45.3051 175.384 45.3561C175.503 45.4241 175.724 45.4582 175.945 45.3731C176.405 45.22 176.796 44.5056 176.813 43.7231C176.83 43.3319 176.762 42.9577 176.626 42.6515C176.49 42.3283 176.303 42.1072 176.064 42.0732C175.843 42.0221 175.673 42.1582 175.622 42.2773C175.571 42.3964 175.588 42.4814 175.571 42.4814C175.554 42.4984 175.469 42.4134 175.52 42.2263C175.537 42.1412 175.588 42.0392 175.69 41.9711C175.792 41.8861 175.945 41.835 176.098 41.8691C176.439 41.8861 176.728 42.1922 176.881 42.5324C177.034 42.8726 177.136 43.2979 177.119 43.7402C177.085 44.6077 176.626 45.4071 176.013 45.5772C175.707 45.6623 175.452 45.5602 175.316 45.4582C175.197 45.3561 175.163 45.254 175.18 45.254Z" fill="#6F4439"/>
<path d="M174.074 33.8406C173.513 34.2318 172.935 34.623 172.271 34.7081C171.591 34.7931 170.825 34.4189 170.689 33.7555C170.638 33.4494 170.706 33.1092 170.502 32.888C170.264 32.6159 169.839 32.7009 169.465 32.7519C168.223 32.905 166.93 32.0545 166.59 30.8468C166.284 31.3231 165.535 31.3231 165.042 31.0169C164.566 30.7278 164.242 30.2175 163.851 29.7922C163.46 29.367 162.933 28.9927 162.371 29.0948C162.048 29.1458 161.759 29.3329 161.436 29.3159C160.874 29.2819 160.585 28.6185 160.483 28.0572C160.381 27.5129 160.313 26.8495 159.82 26.5603C159.378 26.2881 158.799 26.4582 158.289 26.5433C157.779 26.6283 157.098 26.5263 156.962 26.016C156.877 25.7608 156.996 25.4717 157.132 25.2335C157.779 24.1789 159.224 23.6686 160.398 24.1279C160.789 22.699 162.082 21.5594 163.562 21.3723C165.025 21.1851 166.573 21.9676 167.304 23.2434C168.189 22.4099 169.499 22.0356 170.706 22.2908C171.897 22.5289 172.952 23.3964 173.445 24.5191C174.482 24.2299 175.673 24.6042 176.354 25.4376C177.034 26.2881 177.153 27.5299 176.66 28.4824C177.425 28.9077 178.106 29.6731 178.14 30.5577C178.174 31.4422 177.323 32.3437 176.473 32.1226C176.83 32.82 176.558 33.7555 175.894 34.1638C175.248 34.555 174.278 34.3509 173.836 33.7215" fill="#263238"/>
<path d="M160.092 25.3857C160.092 25.3857 160.098 25.4141 160.109 25.4708C160.109 25.5218 160.109 25.5899 160.126 25.6919C160.177 25.896 160.262 26.1852 160.466 26.5084C160.671 26.8486 160.977 27.2228 161.436 27.512C161.895 27.8182 162.508 28.0223 163.205 27.9713L163.137 27.8862C163.001 28.2604 163.052 28.6857 163.239 29.0599C163.426 29.4511 163.698 29.7913 164.005 30.1145C164.141 30.2676 164.277 30.4547 164.481 30.5908C164.685 30.7269 164.923 30.8119 165.178 30.8289C165.655 30.88 166.199 30.7269 166.539 30.3016L166.386 30.2676C166.505 31.1181 167.015 31.9516 167.798 32.4619C168.206 32.7511 168.716 32.9212 169.21 32.9042C169.703 32.8872 170.162 32.7341 170.587 32.564L170.485 32.5129C170.724 33.0402 171.081 33.4995 171.523 33.8227C171.948 34.1459 172.527 34.333 173.02 34.1969C174.04 33.9588 174.687 33.1083 174.806 32.3088L174.721 32.3598C175.214 32.615 175.758 32.632 176.201 32.547C176.626 32.4619 176.966 32.2578 177.204 32.0707C177.459 31.8665 177.596 31.6624 177.681 31.5264C177.766 31.3903 177.783 31.3052 177.783 31.3052C177.766 31.2882 177.647 31.6284 177.17 32.0026C176.932 32.1897 176.592 32.3598 176.167 32.4449C175.758 32.5129 175.248 32.4959 174.772 32.2408L174.687 32.1897V32.2918C174.551 33.0232 173.921 33.8227 172.986 34.0438C172.527 34.1629 172.033 33.9928 171.625 33.6866C171.217 33.3804 170.877 32.9382 170.638 32.4449L170.604 32.3598L170.536 32.3939C170.111 32.547 169.669 32.7 169.21 32.7171C168.75 32.7341 168.291 32.581 167.9 32.3088C167.151 31.8325 166.692 31.0331 166.556 30.2336L166.539 30.0295L166.403 30.1996C166.114 30.5398 165.621 30.6929 165.195 30.6588C164.974 30.6248 164.753 30.5738 164.583 30.4547C164.413 30.3356 164.277 30.1485 164.124 29.9955C163.817 29.6723 163.545 29.3491 163.375 28.9919C163.205 28.6517 163.154 28.2604 163.273 27.9372L163.307 27.8182L163.188 27.8352C162.542 27.8862 161.946 27.6991 161.504 27.4099C161.045 27.1378 160.739 26.7806 160.535 26.4744C160.126 25.828 160.126 25.3857 160.092 25.3857Z" fill="#455A64"/>
<path d="M164.481 45.1346C164.327 45.1517 164.498 46.1722 163.766 47.0398C163.018 47.9243 161.929 47.9923 161.946 48.1454C161.929 48.1964 162.218 48.2985 162.677 48.2305C163.12 48.1624 163.749 47.9073 164.208 47.363C164.651 46.8356 164.77 46.2063 164.736 45.781C164.702 45.3558 164.549 45.1176 164.481 45.1346Z" fill="#263238"/>
<path d="M129.389 94.0043C129.933 93.7831 147.913 91.6229 147.913 91.6229L155.21 85.4482L154.53 103.326L131.566 105.537L129.389 94.0043Z" fill="#FF725E"/>
<path opacity="0.3" d="M151.978 88.1699C151.774 88.289 149.971 89.8879 149.971 89.8879L150.516 103.649L151.978 88.1699Z" fill="black"/>
<path d="M182.613 120.558H152.25C152.25 120.558 153.849 129.114 154.445 133.06C155.04 137.023 155.925 139.813 155.925 139.813H183.43C183.43 139.813 185.471 134.846 185.828 131.648C186.185 128.45 182.613 120.558 182.613 120.558Z" fill="#263238"/>
<path d="M149.988 121.578C149.988 121.578 149.138 131.359 149.988 139.813H160.501V132.022L149.988 121.578Z" fill="#263238"/>
<path d="M155.839 73.7114L159.105 66.5332L159.514 62.1106C159.514 62.1106 165.79 58.1643 168.767 56.6844C171.744 55.1875 175.758 53.8438 175.758 53.8438V58.0282L155.839 73.7114Z" fill="#EBEBEB"/>
<path d="M183.191 110.317C183.191 110.317 184.96 86.4181 185.079 84.6491C185.079 84.6491 186.134 71.8745 183.872 67.0267C181.592 62.1618 176.523 57.8923 176.523 57.8923L176.064 55.3408L166.164 61.5835L161.572 65.5638C161.572 65.5638 158.986 68.3024 157.251 70.939C155.958 72.742 154.513 75.0554 153.866 77.9641C153.628 79.0187 150.906 91.7422 150.821 100.604C150.821 100.604 150.413 108.344 149.954 112.716C149.41 118.142 148.559 130.508 148.746 137.822L180.844 136.836C188.788 135.628 187.393 134.846 187.393 134.846L183.191 110.317Z" fill="#FF725E"/>
<path d="M175.758 58.0283C175.758 58.0283 175.673 58.0623 175.537 58.1304C175.378 58.1871 175.157 58.2778 174.874 58.4025C174.602 58.5386 174.262 58.7087 173.853 58.9128C173.479 59.151 173.02 59.4061 172.543 59.7293C170.621 61.0221 168.07 63.2164 165.484 66.2612L165.467 66.2782H165.45C164.464 66.4653 163.426 66.6524 162.355 66.8565L162.423 66.7715C162.389 68.2003 162.337 69.6972 162.269 71.2621V71.2961L162.252 71.3131C160.705 72.776 159.14 74.426 157.728 76.2801C157.149 77.0455 156.622 77.828 156.163 78.6274L155.993 78.9336L155.874 79.2398C155.789 79.4609 155.704 79.665 155.636 79.8862C155.499 80.3284 155.363 80.7537 155.261 81.1959C154.785 82.931 154.394 84.615 154.02 86.2309C153.288 89.4628 152.676 92.3715 152.183 94.8209C151.162 99.7368 150.601 102.782 150.601 102.782C150.601 102.782 150.618 102.578 150.669 102.22C150.72 101.863 150.822 101.319 150.941 100.621C151.196 99.2435 151.57 97.2534 152.046 94.8039C152.54 92.3545 153.135 89.4288 153.867 86.1969C154.224 84.5809 154.615 82.8799 155.091 81.1449C155.193 80.7026 155.329 80.2774 155.482 79.8351C155.533 79.614 155.619 79.3929 155.704 79.1718L155.84 78.8486L156.01 78.5424C156.469 77.7259 156.996 76.9434 157.575 76.178C159.004 74.3069 160.585 72.6569 162.133 71.1941L162.099 71.2451C162.167 69.6972 162.218 68.2003 162.269 66.7715V66.7034L162.337 66.6864C163.409 66.4993 164.43 66.3122 165.416 66.1251L165.365 66.1591C167.985 63.1143 170.536 60.937 172.492 59.6613C172.969 59.3381 173.428 59.0829 173.819 58.8618C174.227 58.6577 174.568 58.4876 174.857 58.3515C175.14 58.2494 175.361 58.1644 175.52 58.0964C175.673 58.0453 175.758 58.0283 175.758 58.0283Z" fill="#263238"/>
<path d="M164.974 76.8928L165.365 108.77L160.5 139.813H173.309C173.309 139.813 179.126 116.254 180.47 111.287C181.78 106.49 183.753 82.268 183.94 81.0772C184.008 80.618 185.386 72.2491 181.304 68.3027" fill="#FF725E"/>
<path d="M181.304 68.3027C181.304 68.3027 181.394 68.3935 181.576 68.5749C181.746 68.762 181.984 69.0342 182.273 69.4424C182.835 70.2249 183.498 71.5516 183.872 73.3717C184.246 75.1748 184.383 77.4711 184.11 80.0907C183.923 81.4004 183.821 82.7953 183.685 84.2751C183.549 85.7607 183.407 87.3313 183.26 88.9869C182.954 92.2868 182.614 95.893 182.188 99.7712C181.984 101.71 181.763 103.718 181.474 105.776C181.202 107.834 180.93 109.977 180.351 112.103C178.208 120.608 175.861 129.981 173.394 139.847L173.377 139.915H173.309C172.867 139.915 172.39 139.915 171.931 139.915C168.036 139.915 164.226 139.915 160.5 139.898H160.398L160.415 139.813C162.219 128.348 163.868 117.785 165.297 108.77H165.28C165.178 99.1249 165.093 91.1472 165.042 85.6019C165.008 82.8123 164.991 80.652 164.974 79.1551C164.974 78.418 164.974 77.8567 164.974 77.4711C164.974 77.0969 164.974 76.8928 164.974 76.8928C164.974 76.8928 164.991 77.0969 164.991 77.4711C165.002 77.8567 165.014 78.418 165.025 79.1551C165.042 80.652 165.076 82.8123 165.127 85.6019C165.195 91.1472 165.297 99.1249 165.433 108.77V108.787C164.022 117.802 162.372 128.382 160.586 139.83L160.5 139.728C164.226 139.728 168.036 139.728 171.931 139.728C172.39 139.728 172.867 139.728 173.309 139.728L173.224 139.796C175.69 129.947 178.055 120.574 180.198 112.052C180.776 109.943 181.049 107.817 181.321 105.759C181.61 103.701 181.831 101.693 182.052 99.7542C182.46 95.893 182.818 92.2698 183.141 88.9699C183.288 87.3256 183.43 85.7607 183.566 84.2751C183.719 82.7953 183.821 81.3664 184.008 80.0737C184.297 77.4711 184.178 75.1918 183.804 73.3717C183.43 71.5687 182.784 70.2589 182.239 69.4594C181.967 69.0512 181.729 68.779 181.559 68.5919C181.389 68.4048 181.304 68.3027 181.304 68.3027Z" fill="#263238"/>
<path d="M171.744 111.916C171.744 111.933 171.353 111.831 170.757 111.627C170.145 111.423 169.329 111.1 168.444 110.709C167.56 110.317 166.777 109.926 166.216 109.603C165.654 109.297 165.331 109.093 165.348 109.076C165.348 109.042 165.706 109.212 166.284 109.501C166.845 109.773 167.628 110.164 168.512 110.555C169.397 110.947 170.213 111.27 170.792 111.508C171.387 111.746 171.744 111.882 171.744 111.916Z" fill="#263238"/>
<path d="M149.835 114.025C149.835 114.025 149.835 113.997 149.835 113.94C149.835 113.872 149.835 113.793 149.835 113.702C149.846 113.464 149.863 113.146 149.886 112.749C149.937 111.933 150.022 110.759 150.107 109.313C150.311 106.405 150.583 102.39 150.975 97.9507C151.366 93.5111 151.825 89.5138 152.199 86.6221C152.386 85.1762 152.54 84.0025 152.659 83.2031C152.715 82.8062 152.761 82.4943 152.795 82.2675C152.806 82.1768 152.817 82.0974 152.829 82.0294C152.84 81.9727 152.851 81.9443 152.863 81.9443C152.863 81.9443 152.857 81.9727 152.846 82.0294C152.846 82.0974 152.84 82.1825 152.829 82.2845C152.806 82.5113 152.772 82.8175 152.727 83.2031C152.625 84.0366 152.489 85.2103 152.318 86.6391C151.978 89.5308 151.553 93.5452 151.162 97.9678C150.771 102.39 150.464 106.422 150.243 109.313C150.124 110.759 150.022 111.933 149.954 112.766C149.92 113.163 149.892 113.475 149.869 113.702C149.869 113.793 149.863 113.872 149.852 113.94C149.841 113.997 149.835 114.025 149.835 114.025Z" fill="#263238"/>
<path d="M175.758 64.2884C175.69 64.3055 175.384 63.0637 174.55 61.7539C173.717 60.4272 172.747 59.6107 172.781 59.5597C172.798 59.5426 173.053 59.7298 173.428 60.087C173.802 60.4442 174.278 60.9885 174.703 61.6519C175.112 62.3323 175.401 62.9787 175.554 63.472C175.724 63.9652 175.775 64.2884 175.758 64.2884Z" fill="#263238"/>
<path d="M153.169 103.888C153.186 103.888 153.22 103.973 153.203 104.126C153.186 104.279 153.118 104.5 152.931 104.704C152.744 104.909 152.37 105.045 151.995 104.909C151.825 104.858 151.655 104.738 151.519 104.568C151.4 104.415 151.332 104.194 151.332 103.973C151.332 103.701 151.417 103.429 151.587 103.225C151.655 103.122 151.757 103.037 151.876 103.003C151.995 102.952 152.097 102.935 152.2 102.901H152.217C152.455 102.901 152.676 102.952 152.829 103.071C152.999 103.191 153.084 103.344 153.118 103.48C153.203 103.735 153.186 103.888 153.169 103.888C153.152 103.905 153.135 103.735 153.033 103.514C152.982 103.395 152.897 103.259 152.761 103.174C152.625 103.088 152.421 103.054 152.217 103.054L152.234 103.037C152.149 103.071 152.029 103.105 151.944 103.14C151.859 103.191 151.774 103.259 151.723 103.344C151.587 103.514 151.519 103.735 151.519 103.973C151.502 104.347 151.757 104.653 152.063 104.755C152.353 104.875 152.659 104.772 152.846 104.602C153.033 104.449 153.101 104.245 153.135 104.109C153.169 103.973 153.152 103.888 153.169 103.888Z" fill="#263238"/>
<path d="M152.693 115.165C152.71 115.165 152.744 115.233 152.727 115.386C152.71 115.539 152.642 115.777 152.454 115.964C152.267 116.168 151.893 116.321 151.519 116.185C151.349 116.117 151.179 115.998 151.043 115.845C150.924 115.675 150.855 115.454 150.855 115.25C150.855 114.961 150.941 114.705 151.111 114.501C151.179 114.399 151.281 114.314 151.4 114.263C151.519 114.229 151.621 114.195 151.723 114.161H151.74C151.978 114.161 152.199 114.212 152.352 114.348C152.522 114.45 152.607 114.62 152.642 114.739C152.727 115.012 152.71 115.165 152.693 115.165C152.676 115.165 152.659 115.012 152.556 114.773C152.505 114.671 152.42 114.535 152.284 114.45C152.148 114.348 151.944 114.314 151.74 114.314H151.757C151.672 114.348 151.553 114.382 151.468 114.416C151.383 114.45 151.298 114.518 151.247 114.603C151.111 114.773 151.043 115.012 151.043 115.25C151.026 115.624 151.281 115.913 151.587 116.032C151.876 116.151 152.182 116.049 152.369 115.879C152.556 115.709 152.625 115.522 152.659 115.386C152.693 115.25 152.676 115.165 152.693 115.165Z" fill="#263238"/>
<path d="M179.858 66.4318C179.841 66.4488 179.432 66.1767 178.684 65.9045C178.31 65.7514 177.851 65.6153 177.323 65.5133C176.813 65.4112 176.235 65.3602 175.622 65.3602C175.01 65.3772 174.449 65.4452 173.921 65.5643C173.411 65.6834 172.952 65.8195 172.594 65.9896C171.846 66.2957 171.438 66.5679 171.421 66.5339C171.404 66.5339 171.506 66.4488 171.693 66.3298C171.795 66.2617 171.914 66.1937 172.05 66.1086C172.186 66.0406 172.356 65.9385 172.543 65.8705C172.901 65.7004 173.36 65.5303 173.887 65.3942C174.415 65.2751 175.01 65.1901 175.622 65.1901C176.252 65.1731 176.83 65.2411 177.357 65.3602C177.885 65.4793 178.344 65.6153 178.718 65.7854C178.922 65.8535 179.075 65.9385 179.211 66.0236C179.364 66.0916 179.484 66.1597 179.586 66.2277C179.773 66.3468 179.875 66.4148 179.858 66.4318Z" fill="#263238"/>
<g opacity="0.3">
<path d="M151.843 96.2331C153.221 94.2259 153.731 92.3208 154.479 89.9904C155.568 86.5204 155.874 82.6081 157.609 79.4102C158.63 77.5221 159.82 75.5829 161.59 74.3752C163.308 73.2015 163.563 71.7047 163.529 67.6393C164.77 67.6563 166.063 66.7037 166.216 66.5336C167.067 65.6321 167.679 64.2033 167.73 63.71C166.88 64.6455 165.434 66.2104 165.434 66.2104C165.434 66.2104 162.304 66.7888 162.355 66.7718C162.27 68.3197 162.27 69.6975 162.185 71.2624C162.185 71.2624 156.197 77.6241 155.721 78.8999C155.262 80.1756 151.843 96.2331 151.843 96.2331Z" fill="black"/>
</g>
<g opacity="0.3">
<path d="M174.108 135.969C181.712 121.578 184.076 102.663 183.617 84.6494C183.617 84.6494 181.44 106.558 180.691 110.317C179.977 114.043 174.108 135.969 174.108 135.969Z" fill="black"/>
</g>
<path d="M175.265 55.6982C175.265 55.7096 175.208 55.7549 175.095 55.8343C174.959 55.925 174.789 56.0384 174.585 56.1745C174.125 56.4807 173.496 56.9059 172.714 57.4162C171.098 58.4539 168.903 59.8657 166.471 61.4306C165.535 62.043 164.617 62.6213 163.783 63.1486C163.488 63.3754 163.199 63.5965 162.916 63.812C162.644 64.0331 162.389 64.2373 162.15 64.4754C161.674 64.9347 161.266 65.3769 160.892 65.7682L160.824 65.8362L160.773 65.7511C160.364 64.8156 160.041 64.0331 159.803 63.4888C159.69 63.228 159.599 63.0182 159.531 62.8594C159.474 62.7234 159.451 62.6497 159.463 62.6383C159.463 62.6383 159.497 62.7064 159.565 62.8424C159.644 63.0012 159.741 63.2053 159.854 63.4548C160.109 63.9991 160.466 64.7646 160.892 65.7001L160.79 65.6831C161.164 65.2749 161.572 64.8326 162.048 64.3563C162.269 64.1352 162.542 63.8971 162.831 63.6929C163.103 63.4661 163.386 63.2393 163.681 63.0125C164.532 62.4682 165.433 61.8899 166.369 61.2945C168.818 59.7466 171.013 58.3348 172.646 57.3142C173.428 56.8209 174.074 56.4127 174.551 56.1235C174.766 55.9988 174.942 55.891 175.078 55.8003C175.203 55.7323 175.265 55.6982 175.265 55.6982Z" fill="#263238"/>
<path d="M15.3029 40.9168C15.2519 40.9338 13.8061 38.4333 12.071 35.3205C10.319 32.1907 8.94121 29.6562 8.97523 29.6222C9.02626 29.6051 10.4721 32.1056 12.2071 35.2355C13.9592 38.3483 15.337 40.8998 15.3029 40.9168Z" fill="#263238"/>
<path d="M20.1846 30.0986C20.2357 30.0986 20.1676 32.0208 20.0315 34.3852C19.8955 36.7495 19.7594 38.6717 19.7083 38.6717C19.6573 38.6717 19.7254 36.7495 19.8614 34.3852C19.9975 32.0038 20.1336 30.0986 20.1846 30.0986Z" fill="#263238"/>
<path d="M11.7987 43.5707C11.7817 43.6217 10.1487 43.1114 8.15858 42.431C6.16841 41.7677 4.55246 41.1723 4.56947 41.1383C4.58648 41.0873 6.21944 41.5975 8.20961 42.2779C10.2168 42.9583 11.8157 43.5367 11.7987 43.5707Z" fill="#263238"/>
<path d="M36.242 48.4009C33.2483 41.5459 25.2366 38.4161 18.3815 41.4268C11.5095 44.4206 8.37964 52.4323 11.3904 59.2873C13.5677 64.2543 18.3645 67.265 23.4505 67.4011C24.0969 68.881 24.8283 70.548 24.8283 70.548L35.7147 65.7681C35.7147 65.7681 35.0173 63.9821 34.3539 62.4002C37.4497 58.5899 38.3513 53.2148 36.242 48.4009Z" fill="#FF725E"/>
<path d="M34.0818 66.4823C34.0818 66.4823 34.0535 66.437 33.9968 66.3463C33.9401 66.2442 33.855 66.0968 33.7416 65.904C33.5375 65.5298 33.2143 64.9684 32.8231 64.237C32.0236 62.7742 30.9179 60.6479 29.7102 57.9433C29.4041 57.2629 29.0922 56.5485 28.7747 55.8001C28.6159 55.4258 28.4572 55.0459 28.2984 54.6604C28.1453 54.2692 27.9582 53.8779 27.9242 53.4187C27.9072 53.1975 27.9412 52.9764 28.0262 52.7553C28.1113 52.5511 28.2644 52.347 28.5025 52.262C28.7237 52.1769 28.9788 52.228 29.1829 52.347C29.387 52.4661 29.5742 52.6362 29.6762 52.8403C29.9144 53.2826 29.8633 53.8099 29.6592 54.2521C29.4551 54.6944 29.0809 55.0686 28.6556 55.3068C28.2134 55.5449 27.7031 55.664 27.1928 55.6129C26.6825 55.5789 26.1892 55.3748 25.7809 55.0516C25.3557 54.7454 25.0155 54.3202 24.7943 53.8439C24.6923 53.5888 24.5902 53.3336 24.5732 53.0614C24.5392 52.8063 24.5732 52.5001 24.7433 52.279C24.8454 52.1599 24.9644 52.0749 25.1005 52.0238C25.2366 51.9898 25.3727 51.9728 25.5088 52.0068C25.7979 52.0408 26.0531 52.1939 26.2402 52.381C26.4443 52.5852 26.5974 52.8233 26.7335 53.0614C26.8582 53.3109 26.9716 53.5604 27.0737 53.8099C27.2778 54.3202 27.4309 54.8645 27.4819 55.4428C27.533 55.9872 27.4649 56.5825 27.2098 57.1098C27.0737 57.365 26.9036 57.6031 26.6995 57.7902C26.4783 57.9943 26.2402 58.1474 25.951 58.2325C25.6789 58.3175 25.3897 58.3175 25.1005 58.2665C24.8284 58.1985 24.5732 58.0794 24.3351 57.9263C23.8588 57.6371 23.4676 57.2289 23.1274 56.8036C22.9573 56.5882 22.7985 56.3671 22.6511 56.1403C22.498 55.9191 22.3449 55.698 22.2258 55.4599C22.1068 55.2047 22.0387 54.9325 22.0898 54.6434C22.1238 54.5073 22.1748 54.3882 22.2599 54.2692C22.3449 54.1501 22.481 54.082 22.6171 54.048C22.7531 54.031 22.9062 54.048 23.0253 54.0991C23.1444 54.1501 23.2634 54.2351 23.3655 54.3202C23.5696 54.4903 23.7397 54.6944 23.8758 54.9155C24.4541 55.766 24.7943 56.7866 24.7093 57.7732C24.6753 58.2835 24.5052 58.7598 24.216 59.151C23.9438 59.5593 23.5526 59.8825 23.0933 60.0185C22.6511 60.1716 22.1408 60.1036 21.7325 59.8995C21.3243 59.7124 20.9671 59.3892 20.746 58.9979C20.6439 58.8108 20.5589 58.6067 20.5418 58.3856C20.5078 58.1644 20.5248 57.9263 20.6439 57.7392C20.7119 57.6371 20.814 57.5691 20.9161 57.5351C21.0181 57.5011 21.1372 57.5011 21.2393 57.5351C21.4604 57.6031 21.6135 57.7562 21.7496 57.9093C22.0217 58.2155 22.1748 58.6067 22.3449 58.9469C22.5263 59.2871 22.6964 59.6216 22.8552 59.9505C24.182 62.6211 25.2196 64.7813 25.9 66.2952C26.2402 67.0437 26.4953 67.639 26.6654 68.0473C26.7562 68.24 26.8185 68.3931 26.8526 68.5065C26.8072 68.4045 26.7392 68.2514 26.6484 68.0473C26.4783 67.656 26.2062 67.0607 25.866 66.3122C25.1686 64.7983 24.131 62.6381 22.8042 59.9845C22.6341 59.6557 22.4583 59.3211 22.2769 58.9809C22.1068 58.6237 21.9537 58.2495 21.6815 57.9603C21.5624 57.8072 21.4094 57.6712 21.2222 57.6031C21.0351 57.5351 20.814 57.6201 20.7119 57.7902C20.6099 57.9433 20.5929 58.1644 20.6099 58.3686C20.6439 58.5727 20.7119 58.7768 20.814 58.9639C21.0181 59.3381 21.3583 59.6443 21.7666 59.8314C22.1748 60.0185 22.6341 60.0696 23.0763 59.9335C23.5016 59.7974 23.8928 59.4912 24.148 59.1C24.4201 58.7088 24.5732 58.2495 24.6242 57.7732C24.7093 56.8036 24.3691 55.8001 23.7908 54.9666C23.6547 54.7454 23.5016 54.5583 23.2975 54.3882C23.1104 54.2351 22.8722 54.0991 22.6341 54.1501C22.3789 54.1841 22.2258 54.4222 22.1918 54.6604C22.1408 54.9155 22.2088 55.1707 22.3109 55.4088C22.43 55.647 22.583 55.8681 22.7361 56.0892C22.8836 56.3047 23.0423 56.5201 23.2124 56.7356C23.5526 57.1609 23.9268 57.5521 24.3861 57.8583C24.6072 57.9943 24.8624 58.1134 25.1345 58.1644C25.3897 58.2155 25.6789 58.2155 25.934 58.1304C26.4613 57.9773 26.8696 57.5521 27.1247 57.0588C27.3799 56.5655 27.4309 55.9872 27.3799 55.4428C27.3458 54.8985 27.1928 54.3542 26.9886 53.8439C26.7675 53.3506 26.5464 52.8403 26.1722 52.4491C25.985 52.262 25.7639 52.1259 25.5088 52.0919C25.2536 52.0579 24.9815 52.1259 24.8284 52.33C24.6753 52.5341 24.6413 52.8063 24.6753 53.0614C24.6923 53.3166 24.7773 53.5547 24.8794 53.7929C25.1005 54.2692 25.4237 54.6774 25.832 54.9836C26.2402 55.2898 26.7165 55.4939 27.2098 55.5279C27.686 55.5789 28.1963 55.4599 28.6046 55.2217C29.0298 54.9836 29.387 54.6434 29.5742 54.2181C29.7783 53.7929 29.8123 53.2826 29.6082 52.8913C29.5061 52.6872 29.336 52.5171 29.1489 52.4151C28.9618 52.313 28.7237 52.262 28.5195 52.347C28.3324 52.4151 28.1793 52.6022 28.0943 52.7893C28.0262 52.9934 27.9922 53.2145 28.0092 53.4187C28.0433 53.8439 28.2134 54.2521 28.3664 54.6264C28.5252 55.0233 28.684 55.4088 28.8427 55.783C29.1489 56.5315 29.4551 57.2402 29.7613 57.9093C30.969 60.6139 32.0746 62.7571 32.8571 64.22C33.2483 64.9514 33.5545 65.5128 33.7586 65.904C33.872 66.0854 33.9514 66.2272 33.9968 66.3292C34.0535 66.4313 34.0818 66.4823 34.0818 66.4823Z" fill="white"/>
<path d="M24.5223 66.4488C24.5223 66.4601 24.4656 66.4658 24.3522 66.4658C24.2501 66.4828 24.08 66.4998 23.8759 66.4998C23.4677 66.4998 22.8553 66.4828 22.1239 66.3807C21.3755 66.2957 20.5079 66.1086 19.5724 65.7854C18.6539 65.4622 17.6673 64.9859 16.7147 64.3565C15.7622 63.7272 14.9627 62.9957 14.2993 62.2473C13.6529 61.5159 13.1426 60.7844 12.7854 60.1211C12.4112 59.4747 12.156 58.9303 12.02 58.5391C11.9349 58.352 11.8839 58.1989 11.8499 58.0969C11.8158 57.9835 11.7988 57.9268 11.7988 57.9268C11.7988 57.9268 11.8215 57.9778 11.8669 58.0799C11.9179 58.1819 11.9689 58.335 12.054 58.5221C12.2071 58.9133 12.4622 59.4577 12.8364 60.087C13.2107 60.7334 13.721 61.4648 14.3673 62.1963C15.0307 62.9277 15.8302 63.6421 16.7657 64.2715C17.7013 64.9009 18.6879 65.3771 19.6064 65.7003C20.525 66.0235 21.3925 66.2106 22.1239 66.3127C22.8723 66.4148 23.4677 66.4488 23.8759 66.4488C24.08 66.4658 24.2501 66.4488 24.3522 66.4488C24.4656 66.4488 24.5223 66.4488 24.5223 66.4488Z" fill="#263238"/>
<path d="M11.2884 55.3242C11.3224 55.3242 11.3904 55.6304 11.4585 56.0216C11.5265 56.3958 11.5605 56.702 11.5265 56.719C11.5095 56.719 11.4244 56.4129 11.3564 56.0386C11.2884 55.6474 11.2714 55.3412 11.2884 55.3242Z" fill="#263238"/>
<path d="M36.1397 51.8882C36.1397 51.8882 36.1284 51.8429 36.1057 51.7521C36.083 51.6501 36.049 51.514 36.0036 51.3439C35.9923 51.2532 35.9753 51.1568 35.9526 51.0547C35.9186 50.9527 35.8846 50.8336 35.8506 50.7145C35.7825 50.4764 35.7145 50.1872 35.5954 49.898C35.5387 49.7393 35.482 49.5805 35.4253 49.4218C35.3573 49.2517 35.2892 49.0986 35.2042 48.9285C35.0681 48.5713 34.864 48.2311 34.6769 47.8568C34.2516 47.1254 33.7243 46.36 33.0779 45.6115C32.4145 44.8971 31.7171 44.2847 31.0537 43.7744C30.6965 43.5363 30.3733 43.2812 30.0501 43.1111C29.88 43.009 29.727 42.9069 29.5739 42.8389C29.4264 42.7595 29.279 42.6801 29.1316 42.6008C28.8424 42.4477 28.5703 42.3456 28.3491 42.2435C28.2301 42.2095 28.111 42.1585 28.026 42.1075C27.9126 42.0734 27.8162 42.0451 27.7368 42.0224C27.578 41.9657 27.4476 41.9204 27.3456 41.8863C27.2548 41.8523 27.2095 41.8353 27.2095 41.8353C27.2095 41.824 27.2548 41.8353 27.3456 41.8693C27.4476 41.892 27.5837 41.9317 27.7538 41.9884C27.8332 42.0111 27.9239 42.0394 28.026 42.0734C28.145 42.1075 28.2471 42.1585 28.3662 42.1925C28.6043 42.2946 28.8765 42.3966 29.1656 42.5497C29.313 42.6178 29.4605 42.6915 29.6079 42.7709C29.778 42.8389 29.9311 42.941 30.0842 43.043C30.4244 43.2131 30.7476 43.4513 31.1048 43.6894C31.7852 44.1997 32.4996 44.8291 33.146 45.5605C33.7923 46.2919 34.3197 47.0744 34.7449 47.8058C34.949 48.18 35.1361 48.5372 35.2892 48.8945C35.3573 49.0646 35.4423 49.2347 35.4933 49.3877C35.55 49.5578 35.6067 49.7166 35.6634 49.864C35.7825 50.1702 35.8335 50.4594 35.9016 50.6975C35.9356 50.8336 35.9696 50.9357 36.0036 51.0547C36.015 51.1568 36.032 51.2532 36.0547 51.3439C36.0774 51.514 36.1 51.6501 36.1227 51.7521C36.1341 51.8429 36.1397 51.8882 36.1397 51.8882Z" fill="#263238"/>
<g opacity="0.2">
<path d="M19.4189 45.1351C18.9766 44.7099 18.2452 44.5738 17.4628 44.6759C16.3571 44.812 15.3535 45.4073 14.6731 46.2918C12.6149 48.8603 11.8495 51.2247 12.2407 54.6437C12.3768 55.8004 12.9551 57.5524 13.8907 58.3349C14.3669 58.7261 14.9623 58.9303 15.5746 58.8622C17.1566 58.6581 17.6669 56.804 17.5308 55.3071C17.4117 53.9123 16.9525 52.4835 17.3947 51.1567C17.7689 50.068 18.6875 49.2686 19.3168 48.299C19.9632 47.3464 20.2524 45.9346 19.4189 45.1351Z" fill="white"/>
</g>
<g opacity="0.2">
<path d="M24.1989 42.4642C23.3824 41.8689 22.0896 42.039 21.5623 42.6343C21.12 43.1446 20.9329 43.859 21.069 44.5054C21.2391 45.2879 21.9195 45.9513 22.719 46.0533C23.5185 46.1554 24.369 45.6961 24.6921 44.9647C24.9983 44.2162 24.8452 42.9405 24.1989 42.4642Z" fill="white"/>
</g>
<path d="M30.6284 75.5315C30.6284 75.5315 31.2068 75.6166 31.615 75.8547C31.8361 75.9738 32.0913 75.9738 32.3124 75.8717L34.5067 74.9022C34.7448 74.8001 34.9319 74.579 34.983 74.3238C35.034 74.0006 35.2041 73.5924 35.4763 73.4053L30.6284 75.5315Z" fill="#263238"/>
<path d="M25.5771 70.4625C25.5942 70.5136 27.6013 73.7114 28.3838 74.9362C28.69 75.4465 29.2343 75.7696 29.8296 75.7867C30.0508 75.7867 30.2719 75.7526 30.51 75.6506C31.4456 75.2253 35.3069 73.5413 35.3069 73.5413C35.3069 73.5413 36.5486 72.997 36.4125 71.8744C36.2424 70.7007 35.0007 66.3291 35.0007 66.3291L25.5771 70.4625Z" fill="#E0E0E0"/>
<path d="M36.5137 71.2791L28.1788 74.9703C28.0427 75.0383 27.8897 74.9703 27.8216 74.8342V74.8172C27.7536 74.6811 27.8216 74.528 27.9577 74.477L36.2926 70.7858C36.4117 70.7178 36.5648 70.7858 36.6328 70.9049V70.9389C36.7008 71.075 36.6328 71.2281 36.5137 71.2791Z" fill="#E0E0E0"/>
<path d="M36.5139 71.2791C36.4969 71.2791 36.5819 71.2621 36.6329 71.126C36.667 71.075 36.667 70.99 36.6159 70.9049C36.5649 70.8199 36.4628 70.7518 36.3438 70.7858C35.8845 70.9729 35.2211 71.2791 34.4046 71.6533C32.7547 72.3848 30.4753 73.3884 27.9748 74.511C27.9068 74.545 27.8558 74.5961 27.8388 74.6811C27.8388 74.7151 27.8444 74.7492 27.8558 74.7832C27.8728 74.8172 27.8898 74.8512 27.9068 74.8682C27.9578 74.9363 28.0259 74.9533 28.0939 74.9533C28.162 74.9363 28.247 74.8853 28.315 74.8682C28.6212 74.7322 28.9217 74.5961 29.2166 74.46C29.8176 74.1992 30.3903 73.9497 30.9346 73.7116C32.0232 73.2353 32.9928 72.793 33.8263 72.4358C34.6428 72.0786 35.3232 71.7894 35.7824 71.5853C36.0092 71.4833 36.1907 71.4039 36.3268 71.3472C36.3835 71.3245 36.4288 71.3075 36.4628 71.2961C36.4288 71.3188 36.3835 71.3415 36.3268 71.3642C36.202 71.4209 36.0262 71.5059 35.7994 71.6193C35.3402 71.8234 34.6768 72.1126 33.8603 72.4868C33.0268 72.8611 32.0572 73.3033 30.9686 73.7796C30.4129 74.0177 29.8403 74.2729 29.2506 74.545C28.9558 74.6698 28.6552 74.8002 28.3491 74.9363L28.23 74.9873C28.196 75.0043 28.1449 75.0383 28.1109 75.0383C28.0089 75.0554 27.9068 75.0043 27.8388 74.9363C27.8047 74.9023 27.7877 74.8512 27.7707 74.8002C27.748 74.7548 27.7424 74.7095 27.7537 74.6641C27.7707 74.5621 27.8388 74.477 27.9408 74.426C30.4413 73.3203 32.7206 72.3167 34.3706 71.5853C35.2041 71.2281 35.8675 70.9389 36.3438 70.7518C36.4798 70.7178 36.5989 70.8028 36.6329 70.8879C36.684 70.9729 36.684 71.075 36.6499 71.143C36.5989 71.2621 36.4969 71.2791 36.5139 71.2791Z" fill="#263238"/>
<path d="M36.2078 70.1229L27.5157 73.9671C27.3966 74.0352 27.2435 73.9671 27.1755 73.8481V73.814C27.1074 73.678 27.1755 73.5249 27.2945 73.4738L35.9866 69.6296C36.1227 69.5615 36.2758 69.6296 36.3268 69.7486L36.3439 69.7827C36.3949 69.9187 36.3439 70.0718 36.2078 70.1229Z" fill="#E0E0E0"/>
<path d="M36.2081 70.1232C36.2081 70.1232 36.2931 70.1062 36.3441 69.9701C36.3612 69.902 36.3612 69.817 36.3101 69.7319C36.2591 69.6469 36.14 69.5959 36.021 69.6299C35.5447 69.851 34.8473 70.1572 33.9968 70.5314C32.2788 71.2969 29.9314 72.3515 27.3118 73.5082C27.2438 73.5422 27.1928 73.6102 27.1928 73.6783C27.1928 73.7236 27.1984 73.7633 27.2098 73.7973C27.2268 73.8313 27.2438 73.8654 27.2608 73.8824C27.3118 73.9334 27.3969 73.9674 27.4649 73.9504C27.533 73.9164 27.618 73.8824 27.7031 73.8484C28.0206 73.7009 28.3324 73.5592 28.6386 73.4231C29.2623 73.151 29.8577 72.8901 30.4247 72.6406C31.5473 72.1474 32.5679 71.7051 33.4354 71.3139C34.2859 70.9567 34.9834 70.6505 35.4596 70.4293C35.6978 70.3386 35.8849 70.2649 36.021 70.2082C36.0777 70.1742 36.123 70.1515 36.157 70.1402C36.1911 70.1288 36.2081 70.1232 36.2081 70.1232C36.2081 70.1232 36.1911 70.1345 36.157 70.1572C36.123 70.1685 36.0777 70.1855 36.021 70.2082C35.8962 70.2763 35.7148 70.3613 35.4766 70.4634C35.0004 70.6845 34.3029 70.9907 33.4524 71.3819C32.6019 71.7561 31.5813 72.2154 30.4417 72.7257C29.886 72.9752 29.2963 73.236 28.6726 73.5082C28.3665 73.6442 28.0546 73.786 27.7371 73.9334C27.652 73.9674 27.584 74.0015 27.4819 74.0355C27.3799 74.0525 27.2778 74.0185 27.2098 73.9504C27.1587 73.9164 27.1417 73.8654 27.1247 73.8313C27.102 73.7746 27.0964 73.7236 27.1077 73.6783C27.1247 73.5762 27.1928 73.4741 27.2778 73.4401C29.8974 72.2834 32.2618 71.2458 33.9798 70.4804C34.8303 70.1062 35.5277 69.8 36.0039 69.5959C36.157 69.5618 36.2761 69.6299 36.3271 69.7149C36.3782 69.817 36.3952 69.902 36.3612 69.9701C36.2931 70.1062 36.2081 70.1232 36.2081 70.1232Z" fill="#263238"/>
<path d="M35.8504 69.0004L26.9372 72.9467C26.8011 72.9978 26.648 72.9467 26.597 72.8107L26.58 72.7936C26.5289 72.6576 26.58 72.5045 26.716 72.4534L35.6293 68.4901C35.7654 68.4391 35.9184 68.4901 35.9695 68.6262L35.9865 68.6602C36.0375 68.7793 35.9865 68.9324 35.8504 69.0004Z" fill="#E0E0E0"/>
<path d="M35.8507 69.0007C35.8507 68.9837 35.9357 68.9667 35.9868 68.8306C36.0038 68.7796 36.0038 68.6775 35.9357 68.5925C35.8847 68.5244 35.7656 68.4564 35.6466 68.5074C35.1533 68.7286 34.4389 69.0517 33.5714 69.443C31.8193 70.2254 29.4039 71.2971 26.7333 72.4878C26.6653 72.5218 26.6143 72.5898 26.6143 72.6579C26.6029 72.7032 26.6086 72.7429 26.6313 72.7769C26.6483 72.811 26.6653 72.845 26.6823 72.862C26.7503 72.913 26.8184 72.93 26.9034 72.913C26.9715 72.879 27.0565 72.845 27.1416 72.811C27.4704 72.6635 27.788 72.5218 28.0941 72.3857C28.7292 72.1022 29.3359 71.8357 29.9142 71.5862C31.0709 71.0759 32.1255 70.6167 32.993 70.2254C33.8775 69.8512 34.592 69.528 35.0852 69.3239C35.3234 69.2105 35.5105 69.1255 35.6466 69.0688C35.7146 69.0461 35.7656 69.0291 35.7997 69.0177C35.7656 69.0404 35.7203 69.0631 35.6636 69.0858C35.5275 69.1538 35.3404 69.2389 35.1023 69.3409C34.609 69.5791 33.8945 69.8852 33.027 70.2765C32.1425 70.6677 31.1049 71.144 29.9482 71.6543C29.3699 71.9151 28.7632 72.1873 28.1282 72.4708C27.822 72.6068 27.5045 72.7486 27.1756 72.896C27.0905 72.93 27.0225 72.964 26.9204 72.9981C26.8184 73.0321 26.6993 72.9981 26.6313 72.93C26.5973 72.896 26.5632 72.845 26.5462 72.811C26.5235 72.7543 26.5122 72.7032 26.5122 72.6579C26.5292 72.5388 26.5973 72.4537 26.6993 72.4027C29.3699 71.229 31.7853 70.1574 33.5543 69.3749C34.4219 69.0007 35.1363 68.6945 35.6296 68.4734C35.7656 68.4224 35.9017 68.4904 35.9698 68.5925C36.0208 68.6775 36.0208 68.7796 36.0038 68.8476C35.9357 68.9837 35.8507 69.0007 35.8507 69.0007Z" fill="#263238"/>
<path d="M35.5614 67.8432L26.274 71.9426C26.1549 72.0106 26.0018 71.9426 25.9338 71.8235V71.7895C25.8657 71.6534 25.9338 71.5003 26.0528 71.4493L35.3403 67.3329C35.4594 67.2819 35.6125 67.3329 35.6805 67.469L35.6975 67.503C35.7485 67.6221 35.6805 67.7751 35.5614 67.8432Z" fill="#E0E0E0"/>
<path d="M35.5614 67.843C35.5444 67.826 35.6465 67.809 35.6975 67.6729C35.7145 67.6049 35.6975 67.5028 35.6465 67.4178C35.5784 67.3497 35.4424 67.2987 35.3233 67.3668C34.813 67.5879 34.0816 67.9281 33.18 68.3193C31.36 69.1358 28.8425 70.2585 26.0869 71.4832C26.0018 71.5172 25.9508 71.5852 25.9508 71.6703C25.9508 71.7383 25.9848 71.8404 26.0528 71.8744C26.1039 71.9254 26.1889 71.9424 26.274 71.9084C26.3533 71.8744 26.4384 71.8347 26.5291 71.7894C26.858 71.6419 27.1868 71.4945 27.5157 71.3471C28.1734 71.0636 28.8028 70.7858 29.4038 70.5136C30.6115 69.9863 31.6831 69.51 32.6017 69.1188C33.5032 68.7105 34.2517 68.3874 34.762 68.1662C35.0114 68.0642 35.2099 67.9791 35.3573 67.9111C35.414 67.8884 35.465 67.8714 35.5104 67.86C35.4764 67.8827 35.4253 67.9054 35.3573 67.9281C35.2212 67.9961 35.0284 68.0868 34.779 68.2002C34.2687 68.4384 33.5372 68.7616 32.6357 69.1698C31.7172 69.5781 30.6455 70.0543 29.4378 70.5987C28.8368 70.8595 28.2074 71.1373 27.5497 71.4321C27.2209 71.5796 26.892 71.727 26.5631 71.8744C26.4724 71.9084 26.3874 71.9481 26.308 71.9935C26.2059 72.0275 26.0869 72.0275 25.9848 71.9595C25.9508 71.9254 25.9168 71.8744 25.8997 71.8234C25.8657 71.7723 25.8657 71.7213 25.8657 71.6703C25.8657 71.5512 25.9338 71.4492 26.0358 71.4151C28.8085 70.1904 31.3259 69.0678 33.146 68.2683C34.0645 67.8771 34.796 67.5539 35.3063 67.3327C35.4423 67.2647 35.5954 67.3157 35.6635 67.4178C35.7145 67.5028 35.7315 67.6049 35.7145 67.6729C35.6805 67.758 35.6465 67.792 35.6125 67.809C35.5784 67.826 35.5614 67.843 35.5614 67.843Z" fill="#263238"/>
<path d="M23.0767 68.0471C23.1107 68.1322 24.2333 70.1393 24.8117 71.1769C25.0158 71.5512 25.39 71.8063 25.8153 71.8914L26.4446 71.9934L35.7151 67.911L36.0553 67.4007C36.2934 67.0265 36.3615 66.5672 36.2084 66.159L35.0517 62.791L23.0767 68.0471Z" fill="#FF725E"/>
<g opacity="0.3">
<path d="M28.4683 74.8174C29.4548 74.6303 30.3564 74.2561 31.3259 73.8139C32.1254 73.4737 32.9079 73.1505 33.7584 72.7592C34.3707 72.4701 34.9491 72.1809 35.5614 71.8747C35.8676 71.7216 36.1738 71.4835 36.2248 71.3984L28.4683 74.8174Z" fill="black"/>
</g>
<g opacity="0.3">
<path d="M27.6694 73.8816C28.7241 73.6605 29.6936 73.2522 30.7312 72.793C31.5987 72.4017 32.4322 72.0615 33.3508 71.6363C34.0312 71.3301 34.6435 71.0239 35.3069 70.7007C35.6301 70.5306 35.9703 70.2925 36.0213 70.1904L27.6694 73.8816Z" fill="black"/>
</g>
<g opacity="0.3">
<path d="M27.1924 72.8103C28.247 72.5892 29.2166 72.1809 30.2712 71.7217C31.1217 71.3304 31.9722 70.9902 32.8907 70.565C33.5541 70.2588 34.1665 69.9526 34.8299 69.6294C35.1701 69.4593 35.5103 69.2212 35.5443 69.1191L27.1924 72.8103Z" fill="black"/>
</g>
<g opacity="0.3">
<path d="M26.7334 71.738C27.771 71.5169 28.7406 71.1087 29.7952 70.6494C30.6457 70.2752 31.4962 69.918 32.4147 69.4927C33.0951 69.1865 33.6905 68.8804 34.3539 68.5572C34.6941 68.3871 35.0343 68.1489 35.0853 68.0469L26.7334 71.738Z" fill="black"/>
</g>
<path opacity="0.3" d="M23.0767 68.0471C23.1107 68.1322 24.2333 70.1393 24.8117 71.1769C25.0158 71.5512 25.39 71.8063 25.8153 71.8914L26.4446 71.9934L35.7151 67.911L36.0553 67.4007C36.2934 67.0265 36.3615 66.5672 36.2084 66.159L35.0517 62.791L23.0767 68.0471Z" fill="black"/>
<path d="M36.1738 66.7033C36.1908 66.7203 33.7243 67.826 30.6625 69.1698C27.6007 70.5136 25.1173 71.5852 25.1173 71.5682C25.1003 71.5342 27.5667 70.4285 30.6285 69.0847C33.6903 67.7579 36.1738 66.6863 36.1738 66.7033Z" fill="#263238"/>
<path d="M34.9661 62.7576C34.9831 62.7746 32.2955 63.9823 28.9786 65.4621C25.6786 66.925 22.974 68.0987 22.957 68.0817C22.957 68.0477 25.6276 66.84 28.9446 65.3771C32.2615 63.8972 34.9491 62.7235 34.9661 62.7576Z" fill="#263238"/>
<path d="M143.881 39.9983L139.646 39.505C137.928 41.2401 135.734 42.5498 133.182 43.1622C125.868 44.9652 118.486 40.4916 116.683 33.1773C114.879 25.863 119.353 18.4807 126.667 16.6776C133.982 14.8746 141.381 19.3482 143.167 26.6625C143.933 29.7243 143.575 32.7861 142.385 35.4567H142.402L143.881 39.9983Z" fill="white"/>
<path d="M143.881 39.9982C143.881 39.9982 143.847 39.8961 143.779 39.692C143.711 39.4992 143.615 39.21 143.49 38.8245C143.235 38.059 142.844 36.9364 142.35 35.4565L142.435 35.4735L142.418 35.4905C142.418 35.5075 142.384 35.5075 142.367 35.4905C142.35 35.4735 142.35 35.4565 142.35 35.4395C143.065 33.8065 143.694 31.5272 143.456 28.8056C143.405 28.1422 143.286 27.4448 143.116 26.7304C142.912 26.033 142.724 25.3015 142.401 24.6041C141.789 23.1753 140.887 21.7805 139.697 20.5387C138.506 19.297 137.009 18.2254 135.291 17.4939C133.573 16.7455 131.634 16.3373 129.627 16.3883C125.629 16.4223 121.428 18.4805 118.893 22.0866C117.618 23.9237 116.75 26.016 116.512 28.1592C116.223 30.3025 116.478 32.4457 117.124 34.3679C117.788 36.307 118.893 38.008 120.22 39.3688C121.547 40.7296 123.112 41.7502 124.711 42.4306C126.327 43.094 127.977 43.4342 129.542 43.4682C129.734 43.4796 129.927 43.4852 130.12 43.4852C130.324 43.4852 130.511 43.4852 130.698 43.4682C131.073 43.4342 131.441 43.4002 131.804 43.3662C132.518 43.2301 133.233 43.128 133.879 42.9069C136.499 42.1244 138.387 40.7126 139.612 39.4709C139.623 39.4595 139.634 39.4595 139.646 39.4709C141.006 39.641 142.061 39.76 142.792 39.8621C143.144 39.9075 143.416 39.9415 143.609 39.9642C143.796 39.9812 143.881 39.9982 143.881 39.9982C143.892 39.9982 143.807 39.9925 143.626 39.9812C143.433 39.9585 143.161 39.9301 142.81 39.8961C142.078 39.8111 141.023 39.692 139.629 39.5389H139.663C138.438 40.7806 136.55 42.2265 133.913 43.026C133.267 43.2471 132.552 43.3491 131.821 43.5022C131.458 43.5363 131.084 43.5703 130.698 43.6043C130.511 43.6213 130.324 43.6383 130.12 43.6213C129.927 43.6213 129.734 43.6213 129.542 43.6213C127.96 43.5703 126.293 43.2471 124.66 42.5667C123.027 41.9033 121.445 40.8657 120.101 39.4879C118.757 38.1101 117.618 36.3921 116.954 34.4189C116.291 32.4798 116.036 30.3025 116.325 28.1422C116.563 25.9649 117.431 23.8387 118.74 21.9846C118.876 21.7464 119.064 21.5253 119.234 21.3212L119.761 20.6748L120.339 20.0965C120.543 19.8924 120.731 19.7052 120.952 19.5351C121.156 19.365 121.366 19.1949 121.581 19.0248C121.785 18.8377 122.023 18.7017 122.244 18.5486C122.466 18.4125 122.687 18.2424 122.925 18.1063C123.152 17.9816 123.384 17.8568 123.622 17.7321C125.527 16.7455 127.603 16.2352 129.627 16.2012C131.651 16.1672 133.624 16.5754 135.359 17.3238C137.094 18.0893 138.608 19.1609 139.816 20.4197C141.023 21.6784 141.925 23.1072 142.52 24.5531C142.861 25.2675 143.048 25.9989 143.252 26.6964C143.422 27.4108 143.524 28.1252 143.592 28.8056C143.813 31.5442 143.167 33.8406 142.435 35.4735L142.367 35.4225C142.384 35.4055 142.401 35.4055 142.418 35.4225C142.43 35.4225 142.435 35.4282 142.435 35.4395C142.912 36.9194 143.286 38.059 143.524 38.8415C143.649 39.2157 143.739 39.5049 143.796 39.709C143.864 39.9018 143.892 39.9982 143.881 39.9982Z" fill="#263238"/>
<path d="M123.639 30.2347L125.272 28.4316L128.742 31.2212L133.879 25.3018L135.563 26.9517L128.657 34.5382L123.639 30.2347Z" fill="#263238"/>
<path d="M106.459 41.1719C107.072 41.1039 107.973 40.9848 109.147 40.8487C109.158 40.8487 109.17 40.8487 109.181 40.8487C110.236 41.9204 111.852 43.1281 114.097 43.8085C114.658 43.9786 115.254 44.0636 115.866 44.1827C116.183 44.2167 116.501 44.2451 116.818 44.2678C116.989 44.3018 117.142 44.3018 117.312 44.2848C117.482 44.2848 117.646 44.2848 117.805 44.2848C119.149 44.2337 120.561 43.9616 121.956 43.3832C122.307 43.2358 122.653 43.0657 122.993 42.8729C122.891 42.8389 122.789 42.7992 122.687 42.7539C121.088 42.0905 119.54 41.0699 118.213 39.7261C116.904 38.3823 115.798 36.6983 115.134 34.7762C114.488 32.854 114.233 30.7278 114.505 28.6015C114.76 26.4753 115.611 24.3831 116.887 22.563C117.023 22.3419 117.21 22.1207 117.38 21.9166L117.89 21.2872L118.111 21.0661C117.987 21.0661 117.862 21.0604 117.737 21.0491C116.019 21.0151 114.352 21.3723 112.872 22.0017C111.409 22.631 110.117 23.5496 109.096 24.6212C108.075 25.6758 107.31 26.8835 106.8 28.1083C106.51 28.7036 106.34 29.333 106.17 29.9283C106.017 30.5407 105.932 31.136 105.881 31.7144C105.677 34.0277 106.221 36.0009 106.834 37.3957C106.834 37.4071 106.828 37.4184 106.817 37.4297C106.391 38.6885 106.068 39.641 105.847 40.3044C105.745 40.6219 105.66 40.8714 105.592 41.0529C105.541 41.206 105.507 41.308 105.507 41.308C105.507 41.308 105.592 41.291 105.745 41.274C105.915 41.2513 106.153 41.2173 106.459 41.1719Z" fill="#F5F5F5"/>
<path d="M106.459 41.1719C106.459 41.1832 106.38 41.2002 106.221 41.2229C106.051 41.2456 105.813 41.2796 105.507 41.325H105.473L105.49 41.291C105.762 40.4915 106.187 39.1817 106.765 37.4127L106.782 37.3957L106.748 37.3446L106.714 37.2256C106.68 37.1575 106.646 37.0838 106.612 37.0044C106.556 36.8457 106.499 36.6869 106.442 36.5282C106.329 36.1993 106.227 35.8591 106.136 35.5076C105.949 34.7761 105.813 33.9937 105.796 33.1432C105.745 32.3097 105.813 31.4081 105.983 30.4896C106.051 30.0303 106.204 29.5711 106.34 29.1118C106.476 28.6355 106.68 28.1762 106.884 27.717C107.735 25.8799 109.181 24.0938 111.137 22.8351C113.093 21.5764 115.56 20.8449 118.111 20.981L118.315 20.998L118.179 21.1341C118.111 21.2022 118.037 21.2759 117.958 21.3552C116.393 23.1073 115.202 25.3356 114.726 27.785C114.097 31.136 114.76 34.606 116.41 37.2596C118.043 39.9472 120.492 41.8353 123.027 42.8048L123.197 42.8729L123.044 42.9409C122.415 43.2471 121.819 43.5533 121.19 43.7404C120.578 43.9445 119.965 44.0976 119.353 44.1997C118.128 44.4038 116.937 44.3868 115.866 44.2507H115.849C115.458 44.1656 115.083 44.0976 114.709 44.0296C114.318 43.9445 113.978 43.8254 113.62 43.7064C112.94 43.4682 112.311 43.1791 111.766 42.8729C110.644 42.2435 109.793 41.5291 109.164 40.8827C109.164 40.8657 109.096 40.8827 109.045 40.8827C108.988 40.8941 108.931 40.8997 108.875 40.8997C108.773 40.9224 108.676 40.9394 108.585 40.9508C108.381 40.9734 108.194 40.9904 108.024 41.0018C107.684 41.0471 107.395 41.0812 107.157 41.1038C106.93 41.1265 106.754 41.1492 106.629 41.1719C106.516 41.1832 106.459 41.1832 106.459 41.1719C106.459 41.1719 106.516 41.1662 106.629 41.1549C106.754 41.1322 106.93 41.1038 107.157 41.0698C107.395 41.0358 107.684 40.9961 108.024 40.9508C108.194 40.9281 108.376 40.9054 108.568 40.8827C108.671 40.8714 108.773 40.86 108.875 40.8487C108.931 40.8374 108.982 40.8317 109.028 40.8317L109.113 40.8147C109.13 40.8147 109.13 40.8147 109.164 40.8147C109.175 40.8147 109.187 40.8203 109.198 40.8317L109.215 40.8487C109.844 41.4611 110.695 42.1755 111.817 42.7878C112.923 43.4002 114.284 43.8935 115.883 44.1316H115.866C116.41 44.1656 116.971 44.2337 117.55 44.2167C118.128 44.2167 118.718 44.1656 119.319 44.0636C119.931 43.9615 120.544 43.8084 121.156 43.6043C121.768 43.4172 122.347 43.111 122.959 42.8048L122.976 42.9409C120.407 41.9884 117.907 40.0662 116.257 37.3446C114.59 34.6571 113.91 31.153 114.556 27.751C115.032 25.2675 116.24 23.0052 117.822 21.2362C117.901 21.1568 117.981 21.0831 118.06 21.015L118.111 21.1511C115.594 21.015 113.161 21.7295 111.222 22.9712C109.283 24.2129 107.871 25.965 107.021 27.785C106.799 28.2273 106.612 28.6865 106.476 29.1458C106.323 29.6221 106.187 30.0644 106.102 30.5236C105.932 31.4252 105.881 32.3097 105.898 33.1432C105.932 33.9767 106.051 34.7591 106.238 35.4735C106.317 35.8364 106.414 36.1766 106.527 36.4941C106.584 36.6529 106.641 36.8117 106.697 36.9704C106.731 37.0498 106.765 37.1235 106.799 37.1915L106.833 37.3106L106.867 37.3616C106.867 37.3787 106.884 37.4467 106.85 37.4637V37.4467C106.255 39.2157 105.813 40.5255 105.524 41.308L105.507 41.291C105.813 41.2456 106.051 41.2172 106.221 41.2059C106.38 41.1832 106.459 41.1719 106.459 41.1719Z" fill="#263238"/>
<path d="M220.784 43.2297H216.548C215.715 43.2297 215.034 42.5493 215.034 41.7158V18.5822C215.034 17.7488 215.715 17.0684 216.548 17.0684H220.784C221.617 17.0684 222.297 17.7488 222.297 18.5822V41.7158C222.297 42.5493 221.617 43.2297 220.784 43.2297Z" fill="#455A64"/>
<path d="M197.973 44.3349H193.857C192.989 44.3349 192.292 43.6375 192.292 42.77V34.0268C192.292 33.1593 192.989 32.4619 193.857 32.4619H197.973C198.841 32.4619 199.538 33.1593 199.538 34.0268V42.77C199.538 43.6375 198.841 44.3349 197.973 44.3349Z" fill="#455A64"/>
<path d="M209.098 44.3348H205.168C204.25 44.3348 203.501 43.5864 203.501 42.6678V27.682C203.501 26.7465 204.25 25.998 205.168 25.998H209.098C210.016 25.998 210.765 26.7465 210.765 27.682V42.6678C210.765 43.5864 210.016 44.3348 209.098 44.3348Z" fill="#455A64"/>
<path d="M219.61 8.42709C219.61 8.42709 219.553 8.5008 219.44 8.64822C219.293 8.81832 219.111 9.03378 218.896 9.2946C218.402 9.85593 217.705 10.6554 216.837 11.642C215.051 13.6492 212.585 16.4388 209.727 19.6537L209.642 19.7557L209.54 19.6877C208.145 18.7692 206.648 17.7826 205.083 16.779L205.271 16.745C205.225 16.813 205.169 16.8811 205.101 16.9491C201.443 21.2526 198.109 25.1479 195.694 28.0056L195.626 28.0736L195.541 28.0226C194.078 26.917 192.87 26.0324 192.003 25.3861C191.606 25.0799 191.288 24.8361 191.05 24.6546C190.829 24.4845 190.727 24.3995 190.727 24.3825C190.727 24.3825 190.863 24.4505 191.084 24.6206C191.334 24.7907 191.663 25.0175 192.071 25.301C192.938 25.9134 194.163 26.7809 195.66 27.8525L195.524 27.8695C197.939 25.0118 201.239 21.0825 204.879 16.762C204.947 16.6939 205.004 16.6259 205.049 16.5579L205.135 16.4558L205.254 16.5409C206.802 17.5444 208.298 18.531 209.693 19.4496L209.523 19.4836C212.398 16.2857 214.915 13.5131 216.718 11.5229C217.603 10.5533 218.317 9.78789 218.828 9.22656C219.054 8.97708 219.241 8.77296 219.389 8.6142C219.525 8.47812 219.599 8.41575 219.61 8.42709Z" fill="#263238"/>
<path d="M219.831 13.9382C219.797 13.9382 219.763 13.3088 219.729 12.2712C219.712 11.2336 219.695 9.80476 219.695 8.22283L219.865 8.37592C219.82 8.37592 219.769 8.3816 219.712 8.39294C218.113 8.64809 216.668 8.88623 215.613 9.02231C214.558 9.1754 213.912 9.24343 213.912 9.20941C213.895 9.15838 214.541 9.02231 215.579 8.81819C216.634 8.63108 218.062 8.37592 219.661 8.10376C219.718 8.09242 219.769 8.08676 219.814 8.08676L219.985 8.05273V8.22283C219.985 9.80476 219.967 11.2336 219.933 12.2712C219.916 13.3088 219.882 13.9382 219.831 13.9382Z" fill="#263238"/>
</svg>
