<svg width="351" height="227" viewBox="0 0 351 227" fill="none" xmlns="http://www.w3.org/2000/svg">
<path d="M273.935 165.931H77.0981V2.99023H273.935V165.931Z" fill="white"/>
<path d="M273.936 165.931C273.936 164.779 273.873 101.191 273.78 2.99074L273.936 3.11536C217.545 3.14651 149.845 3.14651 77.0986 3.14651L77.2543 2.99074C77.2543 61.9671 77.2232 117.641 77.2232 165.931L77.0986 165.776C194.272 165.869 272.658 165.931 273.936 165.931C272.658 165.931 194.272 165.994 77.0986 166.087H76.9428V165.931C76.9428 117.641 76.9428 61.9671 76.9116 2.99074V2.83496H77.0986C149.845 2.83496 217.545 2.83496 273.936 2.86612H274.06V2.99074C273.967 101.191 273.936 164.779 273.936 165.931Z" fill="#263238"/>
<path d="M251.286 46.9819C251.286 47.0754 216.018 47.1377 172.495 47.1377C128.971 47.1377 93.6729 47.0754 93.6729 46.9819C93.6729 46.8885 128.971 46.8262 172.495 46.8262C216.018 46.8262 251.286 46.8885 251.286 46.9819Z" fill="#E0E0E0"/>
<path d="M251.286 64.3969C251.286 64.4903 216.018 64.5527 172.495 64.5527C128.971 64.5527 93.6729 64.4903 93.6729 64.3969C93.6729 64.3034 128.971 64.21 172.495 64.21C216.018 64.21 251.286 64.3034 251.286 64.3969Z" fill="#E0E0E0"/>
<path d="M251.286 81.7818C251.286 81.8752 216.018 81.9375 172.495 81.9375C128.971 81.9375 93.6729 81.8752 93.6729 81.7818C93.6729 81.6883 128.971 81.626 172.495 81.626C216.018 81.626 251.286 81.6883 251.286 81.7818Z" fill="#E0E0E0"/>
<path d="M251.286 99.1978C251.286 99.2912 216.018 99.3535 172.495 99.3535C128.971 99.3535 93.6729 99.2912 93.6729 99.1978C93.6729 99.1043 128.971 99.042 172.495 99.042C216.018 99.042 251.286 99.1043 251.286 99.1978Z" fill="#E0E0E0"/>
<path d="M251.286 116.613C251.286 116.675 216.018 116.768 172.495 116.768C128.971 116.768 93.6729 116.675 93.6729 116.613C93.6729 116.519 128.971 116.426 172.495 116.426C216.018 116.426 251.286 116.519 251.286 116.613Z" fill="#E0E0E0"/>
<path d="M251.286 133.998C251.286 134.091 216.018 134.153 172.495 134.153C128.971 134.153 93.6729 134.091 93.6729 133.998C93.6729 133.904 128.971 133.842 172.495 133.842C216.018 133.842 251.286 133.904 251.286 133.998Z" fill="#E0E0E0"/>
<path d="M206.174 100.693H190.472V151.258H206.174V100.693Z" fill="#455A64"/>
<path d="M235.802 83.9941H220.1V151.258H235.802V83.9941Z" fill="#455A64"/>
<path d="M123.488 127.579H107.786V151.257H123.488V127.579Z" fill="#455A64"/>
<path d="M149.472 120.508H133.77V151.258H149.472V120.508Z" fill="#455A64"/>
<path d="M176.39 111.566H160.688V151.258H176.39V111.566Z" fill="#455A64"/>
<path d="M274.59 12.0258H76.4752C73.4843 12.0258 71.0542 9.59573 71.0542 6.60486V5.45212C71.0542 2.43009 73.4843 0 76.4752 0H274.59C277.581 0 280.011 2.43009 280.011 5.45212V6.60486C280.011 9.59573 277.581 12.0258 274.59 12.0258Z" fill="#263238"/>
<path d="M252.719 151.257C252.719 151.257 252.47 151.257 252.002 151.257C251.525 151.257 250.819 151.267 249.884 151.288C248.015 151.288 245.273 151.288 241.721 151.319C234.649 151.319 224.399 151.35 211.75 151.35C186.452 151.382 151.465 151.382 112.864 151.413C106.166 151.413 99.5922 151.413 93.3301 151.413H93.1743V151.257C93.1743 117.205 93.2055 87.1089 93.2055 65.5496C93.2366 54.77 93.2366 46.1089 93.2678 40.1271C93.2678 37.1674 93.2989 34.862 93.2989 33.3042C93.2989 32.5149 93.2989 31.923 93.2989 31.5284C93.3197 31.113 93.3301 30.9053 93.3301 30.9053C93.3301 30.9053 93.3301 31.113 93.3301 31.5284C93.3301 31.923 93.3405 32.5149 93.3613 33.3042C93.3613 34.862 93.3613 37.1674 93.3924 40.1271C93.3924 46.1089 93.3924 54.77 93.4236 65.5496C93.4547 87.1089 93.4547 117.205 93.4859 151.257L93.3301 151.07C99.5922 151.07 106.166 151.07 112.864 151.07C151.465 151.101 186.452 151.132 211.75 151.132C224.399 151.164 234.649 151.164 241.721 151.195C245.273 151.195 248.015 151.195 249.884 151.226C250.819 151.226 251.525 151.226 252.002 151.226C252.47 151.226 252.719 151.257 252.719 151.257Z" fill="#263238"/>
<path d="M197.793 96.7051C197.814 96.7051 197.73 96.7882 197.544 96.9543C197.377 97.1205 197.128 97.3593 196.796 97.6709C196.11 98.2628 195.113 99.1663 193.867 100.319C191.281 102.656 187.574 105.989 182.994 110.133C173.741 118.42 160.999 129.854 146.854 142.565L146.73 142.659L146.605 142.565C146.2 142.098 145.733 141.631 145.265 141.163C138.972 134.714 132.959 128.577 127.476 122.969H127.694C117.631 131.505 109.063 138.827 102.988 143.998C99.9661 146.553 97.536 148.578 95.8848 150.011C95.054 150.697 94.4205 151.226 93.9843 151.6C93.7766 151.766 93.6105 151.901 93.4859 152.005C93.382 152.088 93.3301 152.13 93.3301 152.13C93.3301 152.13 93.382 152.078 93.4859 151.974C93.5897 151.87 93.7455 151.725 93.9532 151.538C94.3893 151.164 95.0124 150.624 95.8225 149.918C97.4737 148.516 99.8415 146.428 102.864 143.843C108.908 138.64 117.475 131.318 127.507 122.751L127.601 122.657L127.694 122.751C133.177 128.359 139.19 134.496 145.484 140.945C145.951 141.412 146.418 141.88 146.854 142.316H146.636C160.812 129.636 173.585 118.233 182.838 109.977C187.449 105.865 191.188 102.531 193.774 100.226C195.051 99.104 196.079 98.2317 196.765 97.6086C197.097 97.3178 197.357 97.0893 197.544 96.9232C197.71 96.7778 197.793 96.7051 197.793 96.7051Z" fill="#FF725E"/>
<path d="M220.599 80.6908L201.688 73.1201C195.612 73.6809 193.743 80.1923 194.927 84.3359C192.154 83.5882 188.945 84.8344 187.387 87.2645C185.83 89.6946 186.048 93.0905 187.855 95.3336C184.552 96.2371 182.527 100.35 183.805 103.527C185.082 106.736 189.381 108.294 192.403 106.643C194.397 105.584 195.768 103.434 197.918 102.686C199.912 102.001 202.124 102.717 204.242 102.904C209.508 103.372 214.773 100.35 217.67 95.9256C220.599 91.5327 221.378 85.9248 220.599 80.6908Z" fill="#EBEBEB"/>
<path d="M208.479 75.9863C206.703 76.9521 205.083 78.2606 203.806 79.8495C202.965 80.8777 203.931 82.3731 205.239 82.0616L205.27 82.0304C203.557 83.8685 201.999 85.8313 200.566 87.8564C199.662 89.1649 200.846 90.9096 202.404 90.5046C208.417 88.8845 213.869 85.0524 217.327 79.8495L208.479 75.9863Z" fill="#FF725E"/>
<g opacity="0.3">
<path d="M208.074 78.4785C207.763 78.6343 207.451 78.8212 207.233 79.1016C207.015 79.3509 206.89 79.7559 207.077 80.0674C207.327 80.5036 208.043 80.5659 208.261 81.0332C208.51 81.5317 208.043 82.0613 207.638 82.4352C207.202 82.8091 206.766 83.1933 206.33 83.5879C205.987 83.8683 205.644 84.2422 205.769 84.6472C205.925 85.1145 206.517 85.1768 206.984 85.1457C209.165 84.8964 211.19 83.4945 212.187 81.5317L208.074 78.4785Z" fill="black"/>
</g>
<path d="M238.108 70.876C238.129 70.8967 238.139 70.9383 238.139 71.0006C239.572 78.6647 237.422 86.5158 232.344 92.4041L229.166 96.1115L226.207 84.6776L238.108 70.876Z" fill="#FF725E"/>
<path d="M238.076 70.9383C238.035 70.9798 237.973 71.0525 237.889 71.1564C237.744 71.3225 237.526 71.5718 237.235 71.9041C236.674 72.5895 235.833 73.5553 234.774 74.7703C232.687 77.2316 229.727 80.6898 226.269 84.7399V84.6776C227.11 87.8866 228.013 91.4071 228.948 95.0834C229.041 95.4261 229.135 95.7688 229.228 96.0804H229.104C229.727 95.3326 230.35 94.6057 230.973 93.8995C231.596 93.1829 232.219 92.4664 232.78 91.7498C233.933 90.3478 234.867 88.8524 235.646 87.3881C236.425 85.8927 236.986 84.4284 237.422 82.9953C237.671 82.2787 237.796 81.5933 237.952 80.9079C238.076 80.2536 238.232 79.5994 238.294 78.9763C238.637 76.4839 238.544 74.4276 238.388 73.0257C238.357 72.3403 238.232 71.8106 238.201 71.4368C238.139 71.0941 238.139 70.9383 238.108 70.876C238.108 70.876 238.118 70.9175 238.139 71.0006C238.159 71.1044 238.191 71.2498 238.232 71.4368C238.295 71.7795 238.388 72.3091 238.45 73.0257C238.606 74.4276 238.731 76.4839 238.388 78.9763C238.326 79.6305 238.201 80.2536 238.076 80.939C237.921 81.6244 237.765 82.3099 237.547 83.0264C237.111 84.4596 236.55 85.955 235.771 87.4504C234.992 88.9459 234.026 90.4413 232.874 91.8433C232.313 92.5598 231.69 93.2453 231.098 93.993C230.475 94.6992 229.841 95.4261 229.197 96.1738L229.104 96.2673L229.073 96.1427C229.01 95.8 228.917 95.4573 228.823 95.1146C227.858 91.4383 226.954 87.9178 226.144 84.7088V84.6776V84.6465C229.665 80.5963 232.655 77.1381 234.774 74.708C235.833 73.493 236.674 72.5272 237.235 71.8729C237.526 71.5406 237.744 71.2914 237.889 71.1252C237.973 71.0421 238.035 70.9798 238.076 70.9383Z" fill="#263238"/>
<path d="M217.171 52.8068C217.151 52.8068 217.099 52.8068 217.016 52.8068C209.352 52.5265 201.999 55.7666 196.983 61.5614L193.836 65.2065L205.426 66.4216L217.171 52.8068Z" fill="#FF725E"/>
<path d="M217.109 52.869C217.068 52.9106 217.016 52.9729 216.953 53.056C216.808 53.2221 216.6 53.4714 216.33 53.8037C215.77 54.4579 214.928 55.4237 213.9 56.6076C211.844 59.0377 208.915 62.4648 205.457 66.4838L205.426 66.5149L205.395 66.4838C202.155 66.1722 198.603 65.7984 194.865 65.3933C194.491 65.3622 194.148 65.331 193.836 65.2999L193.681 65.2687L193.774 65.1752C194.397 64.4483 195.02 63.7317 195.643 63.0256C196.235 62.309 196.827 61.6236 197.45 60.9382C198.665 59.6297 200.005 58.4769 201.345 57.5111C202.684 56.5142 204.055 55.7664 205.395 55.1433C206.049 54.8006 206.703 54.5514 207.327 54.3022C207.981 54.0841 208.604 53.866 209.196 53.7102C211.595 53.0248 213.62 52.8379 215.022 52.7756C215.707 52.7444 216.237 52.7756 216.611 52.7756C216.777 52.7756 216.912 52.7756 217.016 52.7756C217.12 52.7963 217.172 52.8067 217.172 52.8067C217.078 52.8067 216.922 52.8067 216.611 52.8067C216.237 52.8067 215.707 52.7756 215.022 52.8379C213.62 52.9002 211.626 53.1183 209.227 53.8037C208.635 53.9595 208.012 54.2087 207.389 54.4268C206.766 54.676 206.08 54.9253 205.426 55.2368C204.118 55.8599 202.747 56.6388 201.407 57.6046C200.067 58.5704 198.759 59.7231 197.544 61.0628C196.952 61.717 196.36 62.4025 195.737 63.119C195.135 63.8252 194.522 64.5418 193.899 65.2687L193.836 65.1441C194.179 65.1753 194.522 65.2064 194.865 65.2687C198.603 65.6426 202.186 66.0164 205.426 66.3591L205.364 66.3903C208.822 62.4025 211.751 59.0377 213.838 56.6388C214.866 55.4237 215.707 54.4579 216.268 53.8037C216.559 53.4921 216.777 53.2429 216.922 53.056C217.005 52.9729 217.068 52.9106 217.109 52.869Z" fill="#263238"/>
<path d="M258.826 25.6707C257.174 24.2376 250.414 25.8888 241.41 30.5932C232.562 35.2664 227.079 41.2794 227.079 41.2794L200.503 72.1228L208.635 79.1327L213.339 83.1828L221.471 90.1927L245.585 62.2155C247.952 59.4739 250.04 56.5453 251.847 53.3986C253.373 50.7193 255.118 47.2923 256.489 43.616C260.041 34.1137 260.508 27.0727 258.826 25.6707Z" fill="#F5F5F5"/>
<path d="M204.709 67.2314L225.583 84.9898L204.709 67.2314Z" fill="#F5F5F5"/>
<path d="M225.583 84.99C225.552 85.0211 220.847 81.0644 215.084 76.1731C209.351 71.2818 204.678 67.2628 204.709 67.2316C204.74 67.2005 209.445 71.1572 215.177 76.0485C220.941 80.971 225.583 84.9588 225.583 84.99Z" fill="#263238"/>
<path d="M203.806 68.1035L224.68 85.8619L203.806 68.1035Z" fill="#F5F5F5"/>
<path d="M224.68 85.862C224.648 85.8932 219.944 81.9365 214.211 77.014C208.448 72.1227 203.806 68.1349 203.806 68.1037C203.837 68.0725 208.541 71.9981 214.305 76.9206C220.037 81.8119 224.711 85.8309 224.68 85.862Z" fill="#263238"/>
<path d="M202.996 69.1006L223.838 86.8589L202.996 69.1006Z" fill="#F5F5F5"/>
<path d="M223.839 86.8591C223.808 86.8903 219.135 82.9336 213.371 78.0423C207.607 73.1198 202.965 69.1319 202.996 69.1008C202.996 69.0696 207.701 73.0263 213.464 77.9176C219.228 82.809 223.87 86.828 223.839 86.8591Z" fill="#263238"/>
<path d="M202.155 70.0977L222.997 87.856L202.155 70.0977Z" fill="#F5F5F5"/>
<path d="M222.998 87.8562C222.966 87.8873 218.293 83.9306 212.53 79.0393C206.766 74.1168 202.124 70.129 202.155 70.0978C202.186 70.0667 206.859 74.0234 212.623 78.9147C218.387 83.8372 223.029 87.825 222.998 87.8562Z" fill="#263238"/>
<path d="M201.314 71.0947L222.157 88.8531L201.314 71.0947Z" fill="#F5F5F5"/>
<path d="M222.157 88.8533C222.157 88.8844 217.452 84.9277 211.689 80.0364C205.925 75.1139 201.283 71.1261 201.314 71.0949C201.345 71.0638 206.019 75.0204 211.782 79.9118C217.546 84.8343 222.188 88.8221 222.157 88.8533Z" fill="#263238"/>
<path d="M227.671 61.9043C227.671 61.9043 227.64 61.9562 227.577 62.0601C227.484 62.1535 227.359 62.3093 227.235 62.4962C226.923 62.8701 226.487 63.3997 225.926 64.054C224.836 65.3625 223.278 67.1383 221.533 69.1011C219.82 71.0639 218.231 72.8397 217.109 74.1171C216.517 74.7402 216.081 75.2698 215.739 75.6125C215.572 75.7787 215.448 75.9137 215.365 76.0175C215.282 76.1214 215.23 76.1733 215.209 76.1733C215.209 76.1525 215.251 76.1006 215.334 76.0175C215.437 75.8929 215.562 75.7475 215.707 75.5813C216.019 75.2075 216.455 74.6778 217.016 74.0547C218.169 72.7462 219.726 70.9704 221.44 69.0076C223.154 67.076 224.711 65.3002 225.864 63.9917C226.394 63.3686 226.861 62.839 227.173 62.4651C227.328 62.2782 227.453 62.1535 227.546 62.0289C227.609 61.9458 227.65 61.9043 227.671 61.9043Z" fill="#263238"/>
<path d="M238.108 70.8762C238.108 70.9074 233.403 66.9195 227.671 61.9659C221.938 57.0434 217.296 52.9933 217.327 52.9621C217.358 52.9309 222.032 56.9188 227.764 61.8724C233.528 66.7949 238.139 70.8451 238.108 70.8762Z" fill="#263238"/>
<path d="M220.567 73.5253C220.567 73.4941 220.661 73.4941 220.785 73.5253C220.91 73.5565 221.097 73.6811 221.253 73.868C221.377 74.0549 221.471 74.3976 221.315 74.7092C221.19 75.0207 220.848 75.27 220.474 75.27C220.069 75.2388 219.757 74.9273 219.664 74.6157C219.539 74.3042 219.664 73.9926 219.819 73.8057C219.975 73.6188 220.162 73.5253 220.318 73.4941C220.443 73.4941 220.505 73.4941 220.505 73.4941C220.505 73.5253 220.443 73.5253 220.318 73.5565C220.193 73.5876 220.038 73.6811 219.882 73.868C219.757 74.0238 219.664 74.3042 219.788 74.5846C219.882 74.8338 220.131 75.083 220.474 75.1142C220.785 75.1142 221.097 74.8961 221.19 74.6469C221.346 74.3976 221.284 74.1172 221.159 73.9303C221.034 73.7434 220.879 73.6188 220.754 73.5876C220.661 73.5253 220.567 73.5253 220.567 73.5253Z" fill="#263238"/>
<path d="M225.832 67.6369C225.832 67.6369 225.895 67.6369 226.019 67.668C226.144 67.6992 226.331 67.7927 226.486 68.0107C226.642 68.1977 226.736 68.5404 226.58 68.8519C226.424 69.1323 226.113 69.4127 225.708 69.3816C225.303 69.3816 224.991 69.07 224.898 68.7585C224.773 68.4469 224.898 68.1042 225.053 67.9484C225.24 67.7615 225.427 67.668 225.552 67.6369C225.676 67.6057 225.77 67.6369 225.77 67.6369C225.77 67.668 225.676 67.668 225.552 67.6992C225.458 67.7304 225.271 67.8238 225.147 68.0107C225.022 68.1665 224.929 68.4469 225.022 68.7273C225.116 68.9766 225.396 69.2258 225.708 69.2569C226.05 69.2569 226.331 69.0389 226.455 68.7896C226.58 68.5404 226.518 68.26 226.393 68.0731C226.268 67.8861 226.113 67.7615 226.019 67.7304C225.895 67.668 225.832 67.668 225.832 67.6369Z" fill="#263238"/>
<g opacity="0.3">
<path d="M205.707 66.0787C205.707 66.0787 213.651 57.293 217.172 52.8066C214.492 54.1463 211.47 55.7041 209.321 57.7914C207.171 59.91 205.8 63.0566 205.707 66.0787Z" fill="black"/>
</g>
<path d="M200.722 94.2431C199.974 94.1497 199.164 94.7416 199.039 95.4893C198.915 96.2371 199.476 97.0471 200.254 97.1717C201.002 97.3275 201.812 96.7667 201.968 96.019C202.124 95.2712 201.563 94.4301 200.815 94.2743" fill="#FF725E"/>
<path d="M248.233 47.5723C247.703 51.6536 243.965 54.551 239.883 54.0526C235.802 53.5229 232.874 49.7843 233.403 45.703C233.902 41.6217 237.64 38.7243 241.753 39.2228C245.834 39.7524 248.731 43.4599 248.233 47.5723Z" fill="white"/>
<path d="M248.233 47.5729C248.171 47.5729 248.295 46.9186 248.171 45.7348C248.015 44.582 247.485 42.8685 245.959 41.4042C245.211 40.6565 244.245 40.0022 243.061 39.6595C241.878 39.3168 240.538 39.1611 239.198 39.5038C238.513 39.6595 237.859 39.9088 237.235 40.2515C236.612 40.6253 236.02 41.0615 235.522 41.6223C234.463 42.6816 233.777 44.1459 233.559 45.7348C233.372 47.2925 233.684 48.8814 234.431 50.1899C234.774 50.8442 235.242 51.4361 235.771 51.9346C236.301 52.4331 236.862 52.8381 237.485 53.1496C238.7 53.8039 240.039 54.022 241.254 53.9597C242.501 53.8974 243.591 53.4924 244.495 52.9939C246.333 51.9346 247.267 50.408 247.704 49.3176C248.14 48.2272 248.171 47.5729 248.233 47.5729C248.233 47.5729 248.212 47.7287 248.171 48.0402C248.171 48.196 248.14 48.3829 248.046 48.601C248.015 48.8503 247.953 49.0995 247.828 49.3799C247.423 50.4703 246.488 52.0904 244.619 53.1808C243.685 53.7416 242.563 54.1466 241.286 54.2089C240.008 54.3024 238.606 54.0843 237.36 53.43C236.706 53.0873 236.114 52.6823 235.553 52.1527C235.023 51.6542 234.525 51.0311 234.151 50.3457C233.372 49.006 233.061 47.3237 233.248 45.6725C233.466 44.0524 234.182 42.5258 235.273 41.4042C235.802 40.8123 236.425 40.3449 237.08 40.0022C237.734 39.6284 238.419 39.348 239.136 39.2234C240.538 38.8807 241.94 39.0364 243.124 39.4103C244.339 39.7842 245.367 40.4696 246.115 41.2173C247.672 42.775 248.171 44.5509 248.295 45.7348C248.327 46.0152 248.327 46.2955 248.327 46.5136C248.327 46.7317 248.327 46.9498 248.295 47.1056C248.254 47.4171 248.233 47.5729 248.233 47.5729Z" fill="#263238"/>
<path d="M258.826 25.6707C257.175 24.2376 250.414 25.8888 241.41 30.5932L256.489 43.616C260.041 34.1137 260.508 27.0727 258.826 25.6707Z" fill="#FF725E"/>
<path d="M258.826 25.671C258.826 25.6503 258.919 25.7437 259.106 25.9514C259.262 26.1383 259.418 26.5122 259.542 26.9795C259.823 27.9453 259.885 29.4719 259.698 31.3724C259.324 35.1733 257.985 40.6254 255.243 46.981C253.81 50.1277 252.065 53.5236 249.791 56.9506C248.638 58.6642 247.33 60.3465 245.928 62.0289C244.495 63.6905 243.02 65.404 241.504 67.1695C235.428 74.2105 228.73 81.9992 221.596 90.2865L221.471 90.4111L221.346 90.3176C217.982 87.4202 214.461 84.367 210.878 81.2827C207.296 78.1983 203.775 75.1451 200.41 72.2477L200.286 72.1543L200.379 72.0296C207.545 63.7424 214.274 55.9225 220.349 48.9126C221.866 47.1472 223.34 45.4337 224.773 43.7721C225.48 42.9413 226.186 42.1312 226.892 41.342C227.609 40.5319 228.356 39.8154 229.104 39.13C232.157 36.3572 235.242 34.114 238.201 32.307C241.192 30.5312 243.996 29.1604 246.489 28.07C249.012 26.9795 251.224 26.2007 253.062 25.7333C254.931 25.2349 256.396 25.0479 257.424 25.1414C257.673 25.2037 257.891 25.2037 258.078 25.266C258.234 25.3283 258.39 25.3595 258.514 25.4218C258.722 25.5672 258.826 25.6503 258.826 25.671C258.826 25.671 258.722 25.5983 258.514 25.4529C258.39 25.3906 258.234 25.3595 258.047 25.2972C257.86 25.266 257.642 25.266 257.424 25.2037C256.427 25.1414 254.931 25.3283 253.093 25.8268C251.255 26.3253 249.043 27.1353 246.551 28.2257C244.058 29.3162 241.254 30.7181 238.326 32.494C235.366 34.301 232.282 36.5441 229.291 39.3169C228.543 40.0023 227.764 40.7189 227.079 41.4978C226.394 42.3078 225.687 43.1282 224.96 43.959C223.527 45.6206 222.053 47.3341 220.536 49.0996C214.492 56.1406 207.763 63.9293 200.628 72.2166L200.597 71.9985C203.962 74.8959 207.514 77.9491 211.096 81.0334C214.679 84.1178 218.2 87.171 221.565 90.0684L221.346 90.0995C228.481 81.8123 235.21 74.0236 241.286 66.9825C242.802 65.2171 244.276 63.5036 245.71 61.842C247.143 60.1908 248.42 58.5084 249.573 56.7949C251.847 53.4301 253.623 50.0342 255.025 46.8876C257.798 40.5631 259.169 35.1421 259.574 31.3412C259.792 29.4408 259.729 27.9765 259.511 27.0107C259.387 26.5122 259.2 26.1695 259.075 25.9514C258.909 25.7645 258.826 25.671 258.826 25.671Z" fill="#263238"/>
<path d="M241.41 52.1836C241.379 52.1836 241.285 51.6228 241.223 50.6881C241.129 49.7846 241.098 48.4761 241.067 47.0742C241.036 45.7345 241.005 44.4883 241.005 43.4602C240.974 42.5255 240.974 41.9336 241.036 41.9336C241.067 41.9336 241.161 42.5255 241.223 43.429C241.285 44.3637 241.348 45.641 241.379 47.0742C241.41 48.4138 241.441 49.6289 241.441 50.6881C241.472 51.6228 241.472 52.1836 241.41 52.1836Z" fill="#263238"/>
<path d="M239.759 50.7505C239.665 50.7816 239.51 49.3173 239.416 47.4792C239.292 45.6722 239.292 44.1768 239.385 44.1768C239.478 44.1768 239.634 45.641 239.728 47.4792C239.821 49.2862 239.852 50.7505 239.759 50.7505Z" fill="#263238"/>
<path d="M205.706 110.008C204.242 109.51 202.591 110.071 201.75 111.005C200.908 111.94 200.784 113.467 201.5 114.495C200.285 114.993 199.506 116.302 199.538 117.61C199.569 118.887 200.348 120.103 201.438 120.819C202.528 121.505 203.899 121.691 205.177 121.442C207.731 120.913 209.756 118.545 209.881 115.928C210.006 113.342 208.199 110.787 205.706 110.008Z" fill="#EBEBEB"/>
<path d="M178.445 105.304C178.445 107.173 176.919 108.669 175.081 108.669C173.211 108.669 171.716 107.173 171.716 105.304C171.716 103.466 173.211 101.939 175.081 101.939C176.919 101.939 178.445 103.466 178.445 105.304Z" fill="#EBEBEB"/>
<path d="M101.119 40.065C101.119 40.1584 99.3741 40.2207 97.2245 40.2207C95.0748 40.2207 93.3301 40.1584 93.3301 40.065C93.3301 39.9715 95.0748 39.9092 97.2245 39.9092C99.3741 39.9092 101.119 39.9715 101.119 40.065Z" fill="#263238"/>
<path d="M101.119 56.6089C101.119 56.7024 99.3741 56.7958 97.2245 56.7958C95.0748 56.7958 93.3301 56.7024 93.3301 56.6089C93.3301 56.5154 95.0748 56.4531 97.2245 56.4531C99.3741 56.4531 101.119 56.5154 101.119 56.6089Z" fill="#263238"/>
<path d="M101.119 73.1831C101.119 73.2766 99.3741 73.3389 97.2245 73.3389C95.0748 73.3389 93.3301 73.2766 93.3301 73.1831C93.3301 73.0897 95.0748 73.0273 97.2245 73.0273C99.3741 73.0273 101.119 73.0897 101.119 73.1831Z" fill="#263238"/>
<path d="M101.119 89.7261C101.119 89.8196 99.3741 89.8819 97.2245 89.8819C95.0748 89.8819 93.3301 89.8196 93.3301 89.7261C93.3301 89.6326 95.0748 89.5703 97.2245 89.5703C99.3741 89.5703 101.119 89.6326 101.119 89.7261Z" fill="#263238"/>
<path d="M101.119 106.3C101.119 106.394 99.3741 106.456 97.2245 106.456C95.0748 106.456 93.3301 106.394 93.3301 106.3C93.3301 106.207 95.0748 106.145 97.2245 106.145C99.3741 106.145 101.119 106.207 101.119 106.3Z" fill="#263238"/>
<path d="M101.119 122.844C101.119 122.938 99.3741 123 97.2245 123C95.0748 123 93.3301 122.938 93.3301 122.844C93.3301 122.751 95.0748 122.688 97.2245 122.688C99.3741 122.688 101.119 122.751 101.119 122.844Z" fill="#263238"/>
<path d="M275.524 131.131C271.1 131.536 267.767 138.39 268.701 142.066C269.169 143.842 270.135 145.836 268.764 147.269C267.424 148.702 264.371 148.827 263.093 150.26C263.093 150.26 261.473 152.16 261.816 154.404C262.19 156.678 262.034 159.731 260.29 160.666L269.511 163.22C270.384 162.224 270.633 160.697 271.505 159.7C270.508 160.759 269.73 164.342 274.559 164.404L277.362 161.538C285.712 163.034 294.467 165.027 300.76 161.008" fill="#263238"/>
<path d="M318.612 147.768C317.895 146.117 316.805 144.622 316.275 142.877C315.123 139.17 316.556 134.746 314.406 131.505C312.879 129.2 309.982 128.296 307.303 127.705C304.592 127.144 302.038 126.894 299.888 125.119C298.33 123.841 297.333 121.972 295.744 120.695C293.532 118.856 290.448 118.42 287.55 118.514C284.591 118.607 281.569 119.168 279.045 120.726C276.522 122.252 274.528 124.901 274.341 127.86C274.216 129.293 274.528 130.789 274.216 132.191C273.873 133.749 272.783 135.026 272.191 136.49C270.914 139.606 272.129 143.531 274.902 145.401L297.551 169.701C301.944 170.916 306.212 165.122 309.203 161.663C312.225 158.236 320.419 151.974 318.612 147.768Z" fill="#263238"/>
<path d="M275.15 142.035C275.431 136.023 279.294 128.577 285.307 129.137L304.062 133.592C305.869 133.748 306.96 135.119 306.929 136.957L305.932 182.194C305.973 182.215 306.015 182.225 306.056 182.225C306.056 182.225 302.006 194.999 289.575 191.323C287.114 190.606 286.117 191.51 285.556 188.768C285.027 188.612 285.556 188.768 285.556 188.456C285.369 185.061 285.089 178.082 285.089 178.082C284.995 174.437 284.995 172.972 284.995 173.004C284.995 173.004 277.3 171.82 275.555 161.85C274.683 156.865 274.808 148.703 275.15 142.035Z" fill="#FFBF9D"/>
<path d="M290.542 149.607C290.542 150.293 291.102 150.885 291.819 150.885C292.504 150.916 293.096 150.386 293.127 149.732C293.127 149.046 292.567 148.486 291.85 148.454C291.165 148.423 290.573 148.953 290.542 149.607Z" fill="#263238"/>
<path d="M277.269 149.825C277.238 150.51 277.799 151.071 278.516 151.102C279.232 151.133 279.824 150.604 279.824 149.918C279.855 149.233 279.294 148.672 278.578 148.641C277.861 148.61 277.269 149.139 277.269 149.825Z" fill="#263238"/>
<path d="M276.646 146.491C276.802 146.709 277.924 145.868 279.45 145.931C280.946 145.993 281.974 146.959 282.161 146.741C282.254 146.647 282.098 146.273 281.631 145.837C281.195 145.401 280.416 144.965 279.481 144.934C278.547 144.871 277.737 145.245 277.238 145.619C276.74 146.024 276.584 146.398 276.646 146.491Z" fill="#263238"/>
<path d="M290.385 146.74C290.572 146.958 291.663 145.992 293.283 145.93C294.872 145.805 296.087 146.647 296.242 146.429C296.336 146.335 296.118 145.961 295.588 145.587C295.09 145.214 294.186 144.871 293.189 144.933C292.192 144.995 291.382 145.432 290.915 145.837C290.448 146.273 290.292 146.678 290.385 146.74Z" fill="#263238"/>
<path d="M285.681 156.616C285.712 156.554 284.84 156.398 283.438 156.242C283.095 156.211 282.753 156.149 282.69 155.931C282.597 155.65 282.753 155.277 282.908 154.872C283.241 154.02 283.573 153.117 283.905 152.161C285.307 148.329 286.304 145.151 286.148 145.12C285.993 145.058 284.746 148.111 283.345 151.974C283.012 152.93 282.701 153.833 282.41 154.685C282.254 155.09 282.036 155.557 282.223 156.087C282.348 156.336 282.597 156.523 282.815 156.585C283.033 156.647 283.251 156.647 283.407 156.647C284.809 156.71 285.681 156.71 285.681 156.616Z" fill="#263238"/>
<path d="M284.996 173.004C284.996 173.004 291.725 173.316 298.33 169.234C298.33 169.234 295.09 176.587 285.027 175.808L284.996 173.004Z" fill="#FF9A6C"/>
<path d="M286.335 159.95C286.803 159.296 287.675 158.922 288.547 158.984C289.139 159.047 289.762 159.327 290.136 159.825C290.51 160.293 290.573 160.978 290.261 161.446C289.887 161.975 289.108 162.131 288.454 161.944C287.8 161.757 287.208 161.352 286.678 160.916C286.522 160.791 286.367 160.667 286.273 160.511C286.18 160.355 286.148 160.137 286.273 159.981" fill="#FF725E"/>
<path d="M289.763 157.52C289.545 157.52 289.576 159.015 288.299 160.105C287.053 161.196 285.432 161.04 285.432 161.258C285.401 161.352 285.775 161.539 286.461 161.539C287.115 161.57 288.081 161.32 288.86 160.666C289.638 160.012 289.95 159.14 290.012 158.516C290.043 157.893 289.888 157.52 289.763 157.52Z" fill="#263238"/>
<path d="M290.074 142.067C290.23 142.441 291.601 142.254 293.221 142.41C294.841 142.566 296.181 143.002 296.368 142.659C296.461 142.503 296.243 142.161 295.713 141.787C295.184 141.444 294.342 141.101 293.377 141.008C292.38 140.914 291.507 141.101 290.915 141.351C290.323 141.6 290.012 141.88 290.074 142.067Z" fill="#263238"/>
<path d="M276.709 141.506C276.989 141.818 278.079 141.475 279.388 141.444C280.697 141.351 281.818 141.6 282.067 141.288C282.161 141.132 281.974 140.821 281.507 140.509C281.008 140.229 280.229 140.011 279.326 140.042C278.422 140.073 277.643 140.354 277.207 140.696C276.74 141.039 276.584 141.351 276.709 141.506Z" fill="#263238"/>
<path d="M324.345 145.432C323.285 143.749 324.968 141.693 323.41 140.166C321.977 138.827 318.488 139.014 317.148 137.612C316.089 136.521 316.026 136.21 315.902 135.119C315.777 133.748 314.749 128.047 306.244 127.486L305.465 132.814C304.935 132.596 304.374 132.44 303.814 132.284C296.804 130.29 289.545 129.138 282.254 128.826C281.475 130.415 282.504 132.347 283.968 133.281C285.401 134.247 287.177 134.496 288.859 134.964C290.542 135.431 292.286 136.21 293.096 137.736C293.969 139.388 293.564 141.444 294.343 143.126C295.682 145.992 299.919 146.584 301.259 149.451C302.256 151.631 301.165 154.155 301.072 156.554C300.947 159.296 302.194 162.037 304.343 163.72C306.026 165.059 308.892 167.489 309.048 166.96L330.482 151.226C331.542 147.986 325.809 147.706 324.345 145.432Z" fill="#263238"/>
<path d="M308.144 165.869C308.144 165.869 307.396 165.838 306.181 165.339C304.966 164.872 303.19 163.875 301.819 161.912C301.134 160.915 300.573 159.731 300.293 158.329C300.012 156.99 300.012 155.432 300.386 153.905C300.573 153.158 300.791 152.379 300.916 151.6C301.041 150.79 301.072 149.98 300.823 149.201C300.573 148.422 300.012 147.768 299.265 147.394C298.517 146.989 297.645 146.802 296.772 146.522C295.931 146.272 295.028 145.93 294.405 145.244C293.781 144.559 293.47 143.655 293.376 142.814C293.096 141.132 293.283 139.418 292.598 138.079L292.473 137.829L292.317 137.58C292.224 137.424 292.099 137.3 291.974 137.175C291.704 136.926 291.414 136.708 291.102 136.521C290.448 136.209 289.762 136.022 289.108 135.867C287.769 135.586 286.46 135.368 285.401 134.807C284.342 134.247 283.531 133.499 282.94 132.751C282.348 132.003 281.974 131.287 281.724 130.664C281.506 130.041 281.413 129.542 281.351 129.2C281.309 128.846 281.299 128.67 281.319 128.67C281.351 128.639 281.351 129.386 281.849 130.601C282.098 131.225 282.472 131.941 283.064 132.627C283.656 133.343 284.466 134.06 285.494 134.589C286.522 135.119 287.8 135.337 289.171 135.617C289.856 135.742 290.541 135.929 291.227 136.272C291.569 136.459 291.881 136.677 292.161 136.957C292.317 137.113 292.442 137.238 292.566 137.424L292.722 137.674L292.878 137.923C293.595 139.418 293.408 141.132 293.688 142.752C293.781 143.593 294.062 144.403 294.623 145.026C295.215 145.618 296.025 145.961 296.866 146.21C297.707 146.491 298.611 146.677 299.421 147.114C299.794 147.301 300.168 147.581 300.48 147.924C300.791 148.266 300.978 148.671 301.103 149.108C301.383 149.949 301.352 150.821 301.228 151.631C301.072 152.441 300.854 153.22 300.667 153.968C299.888 156.99 300.698 159.887 302.006 161.788C303.346 163.719 305.028 164.716 306.212 165.215C306.804 165.495 307.303 165.62 307.645 165.713C307.988 165.807 308.144 165.869 308.144 165.869Z" fill="#263238"/>
<path d="M276.553 131.537C276.522 131.568 275.992 131.412 274.995 131.381C274.029 131.381 272.534 131.537 271.007 132.472C269.543 133.406 268.11 135.182 267.798 137.519C267.642 138.671 267.736 139.918 267.923 141.164C268.016 141.818 268.141 142.441 268.265 143.127C268.359 143.781 268.421 144.466 268.328 145.183C268.234 145.868 267.892 146.585 267.237 146.959C266.645 147.364 265.929 147.426 265.306 147.488C264.651 147.519 264.028 147.551 263.468 147.769C262.907 147.956 262.377 148.267 261.972 148.641C261.1 149.42 260.57 150.448 260.477 151.476C260.352 152.473 260.539 153.47 260.695 154.342C260.882 155.215 261.038 155.994 261.1 156.71C261.162 157.427 261.131 158.05 261.006 158.548C260.913 159.047 260.757 159.421 260.601 159.639C260.539 159.763 260.477 159.857 260.446 159.888C260.404 159.95 260.383 159.981 260.383 159.981C260.321 159.95 260.726 159.514 260.882 158.548C260.975 158.05 261.006 157.427 260.913 156.741C260.851 156.025 260.664 155.246 260.477 154.374C260.29 153.501 260.072 152.504 260.196 151.445C260.29 150.355 260.851 149.233 261.754 148.423C262.221 148.018 262.751 147.675 263.374 147.457C263.966 147.239 264.62 147.208 265.275 147.146C265.898 147.114 266.552 147.021 267.082 146.709C267.611 146.367 267.923 145.775 268.016 145.121C268.172 143.812 267.767 142.504 267.611 141.226C267.424 139.949 267.331 138.671 267.518 137.488C267.829 135.057 269.356 133.219 270.914 132.285C272.471 131.319 273.998 131.194 274.995 131.257C275.525 131.288 275.898 131.35 276.148 131.412C276.418 131.495 276.553 131.537 276.553 131.537Z" fill="#263238"/>
<path d="M320.419 158.298C320.419 158.298 320.439 158.246 320.481 158.142C320.512 158.049 320.574 157.893 320.606 157.706C320.668 157.27 320.73 156.647 320.543 155.868C320.325 155.12 319.889 154.186 318.986 153.469C318.549 153.127 317.989 152.846 317.365 152.722C316.742 152.597 316.057 152.597 315.34 152.41C314.998 152.316 314.655 152.161 314.343 151.911C314.032 151.662 313.783 151.351 313.627 150.977C313.284 150.26 313.16 149.419 313.16 148.578C313.128 147.737 313.191 146.833 313.004 145.992C312.91 145.556 312.755 145.12 312.474 144.746C312.194 144.403 311.882 144.092 311.477 143.874C310.636 143.406 309.67 143.25 308.704 143.095C307.739 142.939 306.679 142.783 305.745 142.253C305.308 142.004 304.903 141.599 304.592 141.163C304.28 140.727 304.093 140.197 303.938 139.699C303.657 138.639 303.595 137.549 303.315 136.521C302.785 134.402 301.04 132.751 299.109 132.19C298.112 131.879 297.115 131.941 296.118 131.91C295.619 131.91 295.121 131.879 294.622 131.754C294.155 131.63 293.688 131.412 293.314 131.1C292.566 130.446 292.255 129.511 291.881 128.701C291.538 127.86 291.008 127.174 290.416 126.582C289.201 125.43 287.644 124.869 286.242 124.807C284.809 124.744 283.531 125.243 282.628 125.866C281.693 126.52 281.07 127.299 280.665 127.984C280.26 128.67 280.042 129.262 279.948 129.698C279.917 129.885 279.886 130.041 279.855 130.165C279.834 130.269 279.824 130.321 279.824 130.321C279.824 130.321 279.824 130.103 279.917 129.667C280.011 129.262 280.198 128.639 280.571 127.953C280.976 127.237 281.6 126.458 282.565 125.772C283.5 125.118 284.777 124.62 286.242 124.682C287.675 124.713 289.264 125.305 290.541 126.458C291.164 127.05 291.694 127.798 292.036 128.639C292.41 129.449 292.722 130.352 293.438 130.944C294.124 131.567 295.152 131.692 296.118 131.723C297.084 131.754 298.143 131.692 299.171 132.003C301.165 132.595 302.941 134.278 303.502 136.459C303.782 137.518 303.875 138.608 304.156 139.636C304.28 140.135 304.467 140.633 304.748 141.07C305.028 141.475 305.402 141.848 305.869 142.066C307.645 143.063 309.826 142.752 311.539 143.718C312.007 143.936 312.35 144.279 312.63 144.652C312.91 145.057 313.066 145.494 313.16 145.93C313.346 146.833 313.315 147.737 313.315 148.578C313.346 149.388 313.44 150.229 313.752 150.915C313.938 151.257 314.157 151.569 314.437 151.787C314.717 152.036 315.06 152.192 315.403 152.285C316.057 152.472 316.774 152.472 317.397 152.597C318.051 152.753 318.612 153.033 319.079 153.407C319.951 154.123 320.419 155.058 320.606 155.868C320.793 156.647 320.73 157.301 320.637 157.706C320.606 157.924 320.512 158.049 320.481 158.174C320.439 158.277 320.419 158.319 320.419 158.298Z" fill="#455A64"/>
<path d="M291.258 234.192H340.016L335.716 223.506C335.716 223.506 320.45 181.821 317.304 178.456C313.16 174.032 306.306 170.48 306.306 170.48L285.214 181.135C285.214 181.135 279.108 198.489 278.298 205.343C278.08 206.932 277.986 208.583 277.955 210.234C277.799 218.771 282.971 226.528 290.884 229.768L291.258 234.192Z" fill="#FF725E"/>
<path d="M286.74 167.301L284.404 169.856C284.404 169.856 284.778 164.902 284.186 164.31C283.594 163.718 282.784 164.31 282.784 164.31C282.784 164.31 282.503 163.344 281.506 163.126C280.509 162.939 279.419 163.625 279.419 163.625C279.419 163.625 277.456 162.379 276.366 163.095C275.275 163.812 274.87 164.528 274.87 164.528C274.87 164.528 273.593 164.809 272.908 165.494C272.222 166.211 272.097 166.46 272.097 166.46C272.097 166.46 270.914 166.896 270.914 167.675C270.914 168.485 269.636 176.367 269.356 179.358C269.044 182.318 268.359 186.898 268.359 186.898L280.291 186.68C280.291 186.68 280.447 180.511 280.665 179.794C280.665 179.794 282.628 178.984 284.31 176.928C285.993 174.841 287.27 171.663 288.173 170.167C288.703 169.233 290.261 166.647 290.261 166.429C290.261 165.712 289.451 165.494 288.765 165.65C288.018 165.837 287.301 166.771 286.74 167.301Z" fill="#FFBF9D"/>
<path d="M286.74 167.302C286.74 167.302 286.823 167.209 286.989 167.022C287.176 166.835 287.426 166.523 287.8 166.18C287.986 166.025 288.205 165.838 288.485 165.713C288.796 165.557 289.139 165.495 289.513 165.557C289.7 165.589 289.887 165.651 290.043 165.807C290.23 165.931 290.323 166.149 290.323 166.367C290.292 166.648 290.167 166.804 290.074 166.991C289.97 167.198 289.866 167.406 289.762 167.614C289.295 168.424 288.765 169.327 288.205 170.293C287.644 171.259 287.145 172.38 286.553 173.533C285.961 174.686 285.276 175.901 284.372 177.054C283.407 178.206 282.223 179.234 280.727 179.92L280.821 179.826C280.665 180.823 280.634 182.007 280.572 183.129C280.53 184.292 280.488 185.486 280.447 186.712V186.836H280.291C276.584 186.93 272.565 186.992 268.359 187.054H268.172L268.203 186.867C268.296 186.182 268.39 185.465 268.483 184.718C268.712 183.015 268.93 181.343 269.138 179.702C269.325 178.051 269.543 176.43 269.761 174.873C269.989 173.294 270.218 171.757 270.446 170.262C270.54 169.514 270.664 168.766 270.758 168.05C270.789 167.832 270.758 167.707 270.789 167.458C270.851 167.271 270.976 167.084 271.1 166.928C271.381 166.648 271.724 166.461 272.066 166.336L271.973 166.399C272.16 166.087 272.347 165.9 272.565 165.651C272.752 165.433 272.97 165.215 273.219 165.059C273.749 164.747 274.278 164.529 274.839 164.374L274.746 164.436C275.026 164.031 275.369 163.688 275.743 163.408C275.929 163.242 276.116 163.096 276.303 162.972C276.521 162.847 276.74 162.785 276.989 162.753C277.955 162.691 278.765 163.096 279.481 163.532H279.357C280.011 163.158 280.727 162.909 281.413 163.003C282.16 163.096 282.69 163.688 282.877 164.28L282.721 164.249C283.064 164.031 283.438 163.875 283.843 164C284.03 164.062 284.186 164.155 284.31 164.342C284.372 164.436 284.404 164.498 284.404 164.592C284.445 164.675 284.466 164.758 284.466 164.841C284.591 165.526 284.591 166.149 284.591 166.741C284.591 167.956 284.528 168.984 284.466 169.857L284.341 169.826C285.11 169.016 285.702 168.382 286.117 167.925C286.304 167.738 286.46 167.582 286.584 167.458C286.688 167.354 286.74 167.302 286.74 167.302C286.74 167.302 286.688 167.364 286.584 167.489C286.481 167.614 286.335 167.78 286.148 167.987C285.754 168.444 285.193 169.078 284.466 169.888L284.341 170.044V169.857C284.404 168.984 284.435 167.925 284.435 166.741C284.404 166.18 284.404 165.526 284.279 164.903C284.248 164.747 284.217 164.56 284.123 164.467C284.061 164.342 283.905 164.249 283.781 164.187C283.469 164.093 283.126 164.218 282.846 164.405L282.721 164.498L282.69 164.342C282.503 163.813 282.005 163.314 281.382 163.221C280.758 163.158 280.073 163.377 279.481 163.719L279.419 163.782L279.357 163.719C278.671 163.345 277.861 162.972 277.02 163.003C276.812 163.023 276.625 163.086 276.459 163.19C276.272 163.314 276.085 163.449 275.898 163.595C275.556 163.875 275.244 164.218 274.995 164.592L274.964 164.623L274.901 164.654C274.403 164.779 273.842 164.997 273.375 165.308C273.157 165.464 272.97 165.651 272.752 165.869C272.565 166.056 272.347 166.305 272.253 166.523L272.222 166.585H272.16C271.848 166.71 271.537 166.897 271.319 167.146C271.194 167.271 271.132 167.396 271.1 167.551C271.069 167.676 271.069 167.894 271.038 168.081C270.976 168.797 270.851 169.545 270.758 170.293C270.529 171.788 270.301 173.325 270.072 174.904C269.854 176.493 269.636 178.082 269.449 179.733C269.242 181.374 269.023 183.046 268.795 184.749C268.702 185.497 268.608 186.244 268.515 186.93L268.359 186.743C272.565 186.68 276.584 186.618 280.291 186.556L280.135 186.68C280.177 185.476 280.218 184.292 280.26 183.129C280.353 181.945 280.353 180.854 280.54 179.733V179.671L280.634 179.639C282.036 178.985 283.251 177.988 284.154 176.898C285.089 175.776 285.743 174.561 286.335 173.408C286.958 172.256 287.457 171.165 288.018 170.168C288.61 169.203 289.139 168.33 289.607 167.52C289.71 167.312 289.825 167.115 289.949 166.928C290.043 166.741 290.167 166.523 290.167 166.367C290.198 165.994 289.825 165.744 289.482 165.682C289.139 165.62 288.796 165.682 288.547 165.807C288.267 165.931 288.049 166.087 287.862 166.243C287.114 166.928 286.74 167.333 286.74 167.302Z" fill="#FF9A6C"/>
<g opacity="0.3">
<path d="M287.176 219.456L282.908 223.319C288.952 223.506 294.062 220.515 298.953 216.932C303.844 213.38 312.848 205.311 314.468 199.485C306.337 204.065 294.249 213.349 287.176 219.456Z" fill="black"/>
</g>
<path d="M225.147 206.402C225.022 206.433 216.828 205.498 214.71 205.28C214.087 205.218 213.464 205.592 213.245 206.184C213.121 206.62 213.183 207.087 213.962 207.368C216.049 208.115 223.402 209.019 223.402 209.019C223.402 209.019 220.131 208.801 220.006 210.078C219.881 211.355 221.502 212.228 221.502 212.228C221.502 212.228 220.411 212.695 220.66 213.63C220.878 214.596 222.436 215.281 222.436 215.281L223.246 215.624C223.246 215.624 221.907 215.592 221.875 216.371C221.844 217.119 222.623 217.805 223.34 217.96C224.087 218.116 227.421 218.833 227.421 218.833L229.882 212.944L228.013 207.336L225.147 206.402Z" fill="#FFBF9D"/>
<path d="M249.884 209.797C249.884 209.797 239.104 210.857 238.263 210.483C237.453 210.078 228.948 205.623 227.639 205.28C226.331 204.937 220.1 205.405 220.1 205.405C220.1 205.405 218.76 206.838 221.751 207.741C224.835 208.707 226.58 208.333 226.206 208.489L225.459 218.458C225.459 218.458 230.724 220.546 233.154 220.359L236.519 219.393L251.816 222.104L249.884 209.797Z" fill="#FFBF9D"/>
<path d="M223.122 208.925C223.527 209.174 223.964 209.299 224.369 209.486C224.805 209.673 225.21 209.922 225.49 210.296C225.771 210.669 225.864 211.199 225.646 211.604C225.366 212.071 224.774 212.227 224.213 212.258C223.496 212.321 222.78 212.258 222.094 212.103" fill="#FFBF9D"/>
<path d="M222.094 212.103C222.094 212.072 222.53 212.134 223.247 212.165C223.59 212.165 224.026 212.165 224.493 212.072C224.929 212.01 225.428 211.823 225.584 211.355C225.708 210.919 225.49 210.421 225.147 210.14C224.836 209.829 224.462 209.673 224.119 209.517C223.465 209.237 223.091 208.988 223.122 208.925C223.122 208.894 223.527 209.081 224.213 209.299C224.555 209.424 224.992 209.58 225.366 209.922C225.739 210.234 226.082 210.857 225.864 211.48C225.771 211.792 225.552 212.01 225.272 212.134C225.023 212.29 224.774 212.352 224.524 212.383C224.026 212.446 223.59 212.415 223.247 212.383C222.499 212.321 222.094 212.165 222.094 212.103Z" fill="#FF9A6C"/>
<path d="M223.496 215.623C225.209 215.81 226.923 215.716 228.605 215.405C229.104 215.28 229.695 215.093 229.882 214.595C230.007 214.19 229.789 213.753 229.446 213.473C229.135 213.224 228.698 213.099 228.293 213.037C227.016 212.788 225.708 212.694 224.399 212.632" fill="#FFBF9D"/>
<path d="M224.399 212.633C224.399 212.57 225.147 212.57 226.331 212.633C226.923 212.695 227.639 212.757 228.418 212.913C228.792 212.975 229.259 213.1 229.633 213.412C229.789 213.567 229.945 213.754 230.038 214.003C230.1 214.253 230.1 214.533 229.976 214.782C229.695 215.281 229.166 215.405 228.761 215.53C228.325 215.613 227.909 215.675 227.515 215.717C226.736 215.81 226.019 215.842 225.427 215.842C224.835 215.81 224.337 215.779 224.025 215.717C223.683 215.686 223.496 215.624 223.496 215.624C223.496 215.561 224.243 215.624 225.427 215.592C226.019 215.592 226.705 215.53 227.483 215.437C227.857 215.374 228.262 215.312 228.699 215.219C229.072 215.125 229.509 214.969 229.664 214.627C229.851 214.315 229.695 213.879 229.415 213.63C229.135 213.38 228.73 213.287 228.356 213.193C227.608 213.038 226.891 212.944 226.3 212.882C225.147 212.726 224.399 212.664 224.399 212.633Z" fill="#FF9A6C"/>
<path d="M225.552 215.873C225.894 215.811 226.237 215.749 226.611 215.78C226.953 215.811 227.327 215.904 227.577 216.154C227.826 216.403 227.982 216.777 227.857 217.119C227.732 217.493 227.327 217.711 226.985 217.836C225.988 218.179 224.928 218.148 223.869 218.085" fill="#FFBF9D"/>
<path d="M223.869 218.085C223.869 218.054 224.305 218.023 224.96 217.992C225.302 217.992 225.707 217.961 226.143 217.867C226.548 217.805 227.047 217.68 227.421 217.431C227.608 217.275 227.732 217.12 227.732 216.901C227.764 216.715 227.67 216.528 227.577 216.372C227.327 216.06 226.953 215.936 226.642 215.905C225.988 215.842 225.552 215.936 225.552 215.873C225.552 215.842 225.925 215.655 226.642 215.655C226.985 215.686 227.452 215.78 227.795 216.185C227.95 216.372 228.075 216.652 228.044 216.933C228.044 217.244 227.857 217.525 227.608 217.68C227.14 218.023 226.642 218.085 226.175 218.179C225.738 218.241 225.302 218.241 224.96 218.241C224.274 218.21 223.869 218.148 223.869 218.085Z" fill="#FF9A6C"/>
<path d="M219.975 205.623C220.006 205.623 219.944 205.872 219.975 206.277C220.006 206.495 220.069 206.745 220.256 206.963C220.443 207.181 220.723 207.368 221.066 207.492C221.439 207.617 221.844 207.679 222.312 207.773C222.748 207.897 223.215 208.022 223.714 208.084C224.742 208.209 225.863 208.334 227.079 208.396L227.203 208.427L227.234 208.552C227.265 208.801 227.297 209.05 227.359 209.33C227.639 210.577 228.2 211.667 228.854 212.539C229.54 213.443 230.256 214.128 230.911 214.658C232.25 215.717 233.216 216.153 233.185 216.216C233.185 216.216 232.936 216.122 232.5 215.935C232.063 215.717 231.471 215.375 230.786 214.845C230.101 214.346 229.322 213.63 228.636 212.726C227.951 211.823 227.328 210.701 227.047 209.393C226.985 209.112 226.954 208.832 226.892 208.583L227.047 208.739C225.832 208.645 224.711 208.52 223.683 208.365C223.153 208.302 222.655 208.147 222.25 208.022C221.782 207.929 221.377 207.835 221.003 207.679C220.629 207.555 220.318 207.337 220.1 207.056C219.913 206.807 219.882 206.527 219.851 206.308C219.851 206.08 219.871 205.903 219.913 205.779C219.934 205.675 219.954 205.623 219.975 205.623Z" fill="#FF9A6C"/>
<path d="M270.54 206.526L244.837 209.361L245.959 224.254L277.052 225.998L270.54 206.526Z" fill="#FF725E"/>
<g opacity="0.3">
<path d="M275.555 221.449C274.849 218.77 274.143 216.091 273.437 213.411C273.094 212.103 272.751 210.794 271.973 209.704C271.194 208.613 269.574 206.495 268.265 206.713L263.467 207.305C263.623 209.797 263.903 212.445 264.153 214.969C264.371 217.493 265.15 220.047 266.707 222.041C268.296 224.004 270.789 225.375 273.312 225.219C274.153 225.188 275.057 224.907 275.524 224.222C276.023 223.412 275.805 222.353 275.555 221.449Z" fill="black"/>
</g>
<path d="M315.777 197.366C313.565 203.317 288.796 220.234 288.796 220.234C288.796 220.234 281.07 225.157 276.584 225.219C270.82 225.344 266.053 220.421 266.022 215.499C265.96 209.174 265.742 184.717 265.742 184.717L281.787 183.97V201.822C281.787 201.822 294.03 189.858 296.928 186.556C302.536 180.2 308.206 174.405 312.942 176.43" fill="#FF725E"/>
<path d="M312.942 176.43C312.942 176.43 312.693 176.337 312.225 176.212C311.976 176.119 311.665 176.119 311.291 176.057C311.104 176.025 310.917 176.057 310.699 176.057C310.481 176.088 310.263 176.057 310.013 176.119C308.082 176.399 305.589 177.926 302.941 180.387C301.601 181.602 300.2 183.067 298.735 184.687C298.008 185.497 297.25 186.348 296.461 187.241C295.651 188.114 294.81 188.996 293.937 189.889C290.386 193.535 286.336 197.554 281.88 201.915L281.631 202.165V201.822C281.631 196.37 281.631 190.326 281.631 183.97L281.787 184.126C276.646 184.375 271.288 184.624 265.742 184.873L265.898 184.718C265.929 187.927 265.96 191.323 265.991 194.75C266.023 200.669 266.085 206.433 266.147 212.009C266.147 212.695 266.147 213.38 266.147 214.066C266.178 214.751 266.147 215.468 266.209 216.122C266.334 217.462 266.77 218.739 267.456 219.861C268.795 222.135 270.976 223.848 273.375 224.596C274.559 225.001 275.836 225.126 277.051 225.063C278.266 224.939 279.45 224.596 280.572 224.191C282.846 223.381 284.934 222.291 286.927 221.2C287.924 220.639 288.859 220.079 289.731 219.424C290.645 218.801 291.528 218.178 292.38 217.555C294.104 216.35 295.744 215.167 297.302 214.003C303.533 209.424 308.393 205.498 311.54 202.538C313.098 201.043 314.25 199.797 314.905 198.862C315.092 198.644 315.216 198.426 315.31 198.239C315.434 198.073 315.528 197.917 315.59 197.772C315.715 197.522 315.777 197.387 315.777 197.367C315.777 197.367 315.621 197.959 314.967 198.893C314.313 199.828 313.191 201.105 311.633 202.601C308.518 205.623 303.658 209.611 297.458 214.19C295.9 215.353 294.259 216.548 292.535 217.773C291.663 218.375 290.78 218.999 289.887 219.642C289.015 220.266 288.049 220.857 287.052 221.418C285.058 222.54 282.971 223.63 280.665 224.471C279.513 224.876 278.329 225.219 277.051 225.344C275.805 225.437 274.497 225.282 273.282 224.876C270.789 224.098 268.577 222.353 267.175 220.016C266.49 218.864 266.022 217.524 265.898 216.153C265.836 215.437 265.867 214.751 265.836 214.066C265.836 213.38 265.825 212.695 265.804 212.009C265.773 206.433 265.711 200.669 265.649 194.781C265.618 191.323 265.586 187.927 265.555 184.718V184.562H265.711C271.257 184.313 276.646 184.063 281.787 183.845L281.943 183.814V183.97C281.943 190.326 281.912 196.37 281.912 201.822L281.693 201.728C286.149 197.367 290.199 193.348 293.75 189.734C294.644 188.841 295.495 187.958 296.305 187.085C297.094 186.213 297.853 185.372 298.579 184.562C300.075 182.942 301.477 181.509 302.817 180.263C305.496 177.832 308.051 176.306 310.013 176.057C310.263 175.994 310.481 176.025 310.699 175.994C310.917 175.994 311.104 175.963 311.291 175.994C311.665 176.057 311.976 176.057 312.225 176.15C312.693 176.337 312.942 176.43 312.942 176.43Z" fill="#263238"/>
<path d="M269.761 214.439C269.73 214.439 269.792 214.252 269.948 213.91C270.073 213.598 270.291 213.131 270.602 212.539C271.163 211.417 272.036 209.891 273.126 208.271C274.216 206.682 275.338 205.311 276.179 204.345C276.615 203.878 276.958 203.504 277.238 203.255C277.488 203.005 277.612 202.881 277.643 202.881C277.675 202.912 277.176 203.535 276.366 204.501C275.556 205.498 274.497 206.869 273.406 208.458C272.316 210.047 271.412 211.542 270.789 212.664C270.166 213.754 269.792 214.471 269.761 214.439Z" fill="#FF725E"/>
<path d="M355.936 177.21C353.63 176.711 351.325 178.175 350.795 180.481L338.987 234.192H347.617L359.207 182.381C359.736 180.045 358.272 177.739 355.936 177.21Z" fill="#263238"/>
<path d="M284.435 169.701C284.528 169.732 284.528 170.511 284.466 171.477C284.372 172.443 284.248 173.222 284.154 173.222C284.061 173.222 284.061 172.443 284.123 171.446C284.216 170.48 284.341 169.701 284.435 169.701Z" fill="#FF9A6C"/>
<path d="M281.724 212.571C281.693 212.571 281.631 211.948 281.6 210.951C281.568 209.954 281.568 208.583 281.568 207.057C281.568 205.561 281.568 204.19 281.6 203.193C281.631 202.196 281.693 201.604 281.724 201.604C281.755 201.604 281.818 202.196 281.849 203.193C281.88 204.19 281.88 205.561 281.88 207.088C281.88 208.614 281.88 209.985 281.849 210.982C281.818 211.948 281.755 212.571 281.724 212.571Z" fill="#263238"/>
<path d="M130.81 133.874L133.582 132.16C133.582 132.16 137.228 128.92 138.224 128.235C139.221 127.518 143.053 125.805 143.583 125.836C144.144 125.867 149.409 125.556 150.655 124.964C151.901 124.372 153.241 123.624 153.241 123.624C153.241 123.624 154.145 124.59 153.397 125.867C152.649 127.176 148.786 129.606 148.786 129.606L150.219 139.015C150.219 139.015 146.636 141.85 144.424 142.037C142.181 142.224 140.031 141.787 139.408 141.974C138.785 142.161 137.196 142.722 137.196 142.722L130.81 133.874Z" fill="#FFBF9D"/>
<path d="M140.779 134.496L165.205 118.296L166.607 120.321L142.399 136.459L140.779 134.496Z" fill="#263238"/>
<path d="M154.519 129.699C154.519 129.699 156.388 130.478 155.391 132.16C154.394 133.874 153.117 133.344 153.117 133.344C153.117 133.344 153.584 135.182 151.466 136.179C151.466 136.179 151.715 137.955 150.22 139.014L149.036 139.637L148.288 138.173C148.288 138.173 143.802 137.768 143.148 135.992L143.116 135.058C143.116 135.058 142.244 134.621 142.369 133.749C142.524 132.877 142.462 132.877 144.144 132.285C145.827 131.724 149.41 132.098 149.41 132.098C149.41 132.098 147.478 131.381 147.509 130.384C147.54 129.387 148.319 128.764 150.375 128.889C152.432 129.045 154.519 129.699 154.519 129.699Z" fill="#FFBF9D"/>
<path d="M154.519 129.699C154.487 129.73 154.238 129.668 153.771 129.543C153.272 129.419 152.587 129.263 151.683 129.138C151.216 129.076 150.718 129.013 150.157 128.982C149.627 128.982 149.004 128.982 148.443 129.232C148.163 129.325 147.914 129.543 147.789 129.824C147.664 130.073 147.602 130.447 147.727 130.727C147.883 131.007 148.163 131.257 148.443 131.444C148.755 131.662 149.098 131.817 149.44 131.973L150.313 132.316L149.378 132.254C148.038 132.129 146.543 132.036 144.985 132.254C144.611 132.316 144.237 132.409 143.864 132.565C143.49 132.69 143.085 132.814 142.804 133.032C142.68 133.126 142.617 133.282 142.586 133.469L142.524 133.78C142.524 133.884 142.524 133.978 142.524 134.061C142.586 134.403 142.867 134.746 143.178 134.902L143.272 134.964V135.058C143.272 135.338 143.303 135.649 143.303 135.992V135.93C143.324 135.992 143.355 136.065 143.396 136.148C143.614 136.491 144.019 136.771 144.424 136.989C144.798 137.207 145.234 137.363 145.671 137.488C146.543 137.768 147.446 137.924 148.288 138.017H148.381L148.412 138.111C148.682 138.609 148.942 139.097 149.191 139.575L148.973 139.513C149.388 139.305 149.783 139.097 150.157 138.89C151.06 138.267 151.403 137.145 151.341 136.21L151.31 136.117L151.403 136.055C151.964 135.805 152.462 135.4 152.743 134.902C153.023 134.434 153.085 133.843 153.023 133.375L152.961 133.188L153.148 133.251C153.553 133.375 153.989 133.313 154.332 133.126C154.674 132.97 154.924 132.69 155.142 132.409C155.329 132.129 155.484 131.849 155.547 131.568C155.64 131.257 155.609 131.007 155.516 130.789C155.36 130.322 155.048 130.073 154.83 129.917C154.612 129.761 154.487 129.73 154.519 129.699C154.519 129.699 154.643 129.73 154.861 129.886C155.079 130.01 155.453 130.229 155.64 130.727C155.734 130.976 155.765 131.288 155.702 131.599C155.64 131.911 155.484 132.222 155.266 132.503C155.048 132.814 154.799 133.126 154.425 133.313C154.02 133.531 153.553 133.624 153.085 133.438L153.241 133.313C153.335 133.874 153.272 134.497 152.961 135.026C152.649 135.587 152.12 136.023 151.528 136.304L151.59 136.179C151.652 136.709 151.59 137.238 151.372 137.768C151.185 138.298 150.811 138.796 150.313 139.139V139.17C149.918 139.357 149.523 139.554 149.129 139.762L148.973 139.855L148.911 139.7C148.661 139.222 148.412 138.734 148.163 138.235L148.288 138.329C147.384 138.235 146.481 138.08 145.577 137.799C145.141 137.675 144.674 137.519 144.269 137.27C143.832 137.051 143.396 136.74 143.116 136.304C143.074 136.221 143.033 136.138 142.991 136.055V136.023V135.992C142.96 135.681 142.96 135.369 142.96 135.058L143.022 135.213C142.617 134.964 142.275 134.59 142.212 134.092C142.192 133.967 142.192 133.853 142.212 133.749L142.275 133.406C142.306 133.219 142.399 132.939 142.586 132.783C142.991 132.503 143.365 132.409 143.77 132.254C144.144 132.129 144.549 132.004 144.954 131.942C146.543 131.724 148.038 131.849 149.409 131.973L149.347 132.222C148.973 132.077 148.62 131.89 148.288 131.662C147.976 131.444 147.664 131.194 147.509 130.82C147.166 130.042 147.696 129.232 148.35 129.013C148.973 128.764 149.627 128.764 150.157 128.795C150.718 128.827 151.247 128.889 151.683 128.982C152.618 129.138 153.304 129.325 153.771 129.45C154.02 129.533 154.207 129.595 154.332 129.637C154.456 129.678 154.519 129.699 154.519 129.699Z" fill="#FF9A6C"/>
<path d="M150.936 136.242C150.904 136.335 149.284 135.4 147.104 135.089C144.892 134.746 143.085 135.151 143.085 135.027C143.053 134.995 143.49 134.84 144.237 134.746C144.985 134.653 146.013 134.59 147.135 134.777C148.256 134.933 149.253 135.276 149.908 135.618C150.593 135.93 150.967 136.21 150.936 136.242Z" fill="#FF9A6C"/>
<path d="M153.055 133.469C152.992 133.532 152.182 133.002 150.998 132.69C149.846 132.348 148.849 132.285 148.849 132.192C148.849 132.099 149.877 132.005 151.092 132.379C152.307 132.69 153.117 133.407 153.055 133.469Z" fill="#FF9A6C"/>
<path d="M46.411 38.8196C47.1899 37.2618 49.028 36.3272 50.7415 36.6076C52.7043 34.9564 55.8198 34.9564 57.8137 36.5764C59.3091 35.6729 61.2719 35.5794 62.8297 36.3895C64.3874 37.1995 65.4778 38.8507 65.6025 40.5954C67.3471 40.2839 69.2476 41.1873 70.0888 42.7451C70.9611 44.3028 70.6807 46.4214 69.4657 47.6987C71.3973 48.2907 72.6746 50.4404 72.3008 52.4031C71.9269 54.3971 69.9018 55.8925 67.9079 55.7056L47.2833 43.5863C46.0371 42.4024 45.6633 40.3773 46.411 38.8196Z" fill="#263238"/>
<path d="M68.4998 56.2667C67.5963 47.2629 59.901 40.4711 50.8349 40.6581H49.9314C40.2422 41.4369 35.4755 50.098 36.5036 59.7561L38.591 92.0638L39.993 96.1139L56.7232 117.05L60.9291 98.2013L60.9915 89.4468C60.9915 89.4468 70.3068 87.7956 70.2445 78.4491C70.1822 73.9316 69.3721 64.6786 68.4998 56.2667Z" fill="#FFBF9D"/>
<path d="M60.9916 89.4468C60.9916 89.4468 55.1344 89.8829 48.7788 86.082C48.7788 86.082 51.7697 92.7492 60.9916 91.7522V89.4468Z" fill="#FF9A6C"/>
<path d="M65.9761 64.9897C66.0384 65.6751 65.4464 66.2982 64.7299 66.3605C63.9822 66.3916 63.3591 65.862 63.3279 65.1766C63.2967 64.46 63.8575 63.8681 64.5741 63.8058C65.3218 63.7435 65.9449 64.2731 65.9761 64.9897Z" fill="#263238"/>
<path d="M66.7237 61.3445C66.5367 61.5315 65.5398 60.8149 64.1067 60.8461C62.6735 60.8461 61.6143 61.6249 61.4585 61.438C61.3962 61.3757 61.552 61.033 61.9881 60.6903C62.4555 60.3476 63.2032 60.036 64.1067 60.0049C64.979 60.0049 65.7579 60.3164 66.194 60.628C66.6302 60.9707 66.786 61.2822 66.7237 61.3445Z" fill="#263238"/>
<path d="M53.7007 65.8306C53.7318 66.5471 53.171 67.1702 52.4545 67.2014C51.7068 67.2637 51.0837 66.7341 51.0525 66.0487C51.0214 65.3321 51.5821 64.709 52.2987 64.6778C53.0464 64.6155 53.6695 65.1452 53.7007 65.8306Z" fill="#263238"/>
<path d="M52.9845 61.4385C52.8288 61.6254 51.8006 60.8777 50.3675 60.94C48.9344 60.94 47.9063 61.6877 47.7505 61.532C47.657 61.4385 47.8128 61.127 48.2801 60.7842C48.7163 60.4415 49.4952 60.0988 50.3675 60.0988C51.271 60.0677 52.0187 60.3792 52.4549 60.7219C52.9222 61.0646 53.078 61.3762 52.9845 61.4385Z" fill="#263238"/>
<path d="M57.9381 71.9684C57.9381 71.9061 58.8104 71.7192 60.2436 71.5011C60.6174 71.47 60.9601 71.3765 61.0224 71.1272C61.0848 70.8468 60.929 70.473 60.7421 70.0368C60.389 69.1645 60.0151 68.2506 59.6205 67.2952C58.0316 63.3385 56.8788 60.0984 57.0346 60.0361C57.1904 59.9738 58.5924 63.1204 60.1813 67.0459C60.5759 68.0221 60.9394 68.9568 61.2717 69.8499C61.4275 70.2549 61.6767 70.7222 61.4898 71.283C61.3963 71.5634 61.1471 71.7503 60.8978 71.8127C60.6797 71.9061 60.4617 71.9061 60.3059 71.9061C58.8416 72.0307 57.9381 72.0619 57.9381 71.9684Z" fill="#263238"/>
<path d="M53.7324 73.0581C53.9505 73.0269 54.0128 74.5847 55.3525 75.6751C56.6921 76.7344 58.3745 76.5474 58.3745 76.7655C58.4057 76.859 58.0318 77.0771 57.3152 77.1082C56.6298 77.1394 55.6329 76.9524 54.7917 76.267C53.9505 75.6128 53.6078 74.7093 53.5455 74.0862C53.452 73.4319 53.639 73.0581 53.7324 73.0581Z" fill="#263238"/>
<path d="M52.9218 57.356C52.766 57.7298 51.5198 57.4183 50.0244 57.4494C48.5289 57.4806 47.2827 57.8545 47.0958 57.4806C47.0335 57.3248 47.2827 56.9821 47.8124 56.6394C48.3109 56.3279 49.1209 56.0475 50.0244 56.0163C50.9279 55.9852 51.7067 56.2344 52.2364 56.5148C52.7349 56.8263 52.9841 57.1691 52.9218 57.356Z" fill="#263238"/>
<path d="M66.319 57.4191C66.1009 57.793 65.0728 57.5437 63.8889 57.6372C62.7051 57.7307 61.7392 58.1045 61.4589 57.793C61.3342 57.6372 61.4589 57.2945 61.8639 56.9206C62.2689 56.5779 62.9543 56.2664 63.7955 56.2041C64.6055 56.1418 65.3221 56.3598 65.7894 56.6402C66.2256 56.9518 66.4125 57.2633 66.319 57.4191Z" fill="#263238"/>
<path d="M67.5335 52.029C67.5335 52.029 64.9477 46.2342 62.1126 44.9257C58.6544 43.3367 57.2524 47.1065 53.9811 46.2653C50.7099 45.4241 47.4386 43.8975 44.1673 46.4834C40.5845 49.3185 42.3292 51.219 42.1734 55.3626C41.6126 72.1551 38.6529 76.9841 37.6248 69.1019C37.5001 68.2296 35.0701 67.5753 34.665 63.9302C34.1042 59.1946 33.7927 53.431 34.7897 50.0351C35.5997 47.2 37.1886 45.1749 40.0548 42.9629C44.5723 39.4735 50.8656 39.2555 55.1339 39.5982C59.4333 39.9409 67.7516 44.6764 67.5335 52.029Z" fill="#263238"/>
<path d="M38.2173 68.8216C38.1238 67.3885 36.8465 66.2669 35.4134 66.4227C33.6687 66.6408 31.7682 67.6689 31.9551 71.2517C32.2979 77.6385 38.6223 75.9873 38.6223 75.8003C38.6223 75.6757 38.3731 71.5009 38.2173 68.8216Z" fill="#FFBF9D"/>
<path d="M37.0954 73.4639C37.0954 73.4639 37.0019 73.5574 36.815 73.6508C36.6281 73.7443 36.3165 73.8066 36.005 73.7131C35.2884 73.4951 34.6653 72.4669 34.603 71.3142C34.5407 70.7223 34.6341 70.1926 34.8211 69.6941C34.9769 69.2268 35.2572 68.8841 35.6 68.8218C35.9427 68.7283 36.1919 68.9153 36.2854 69.071C36.3788 69.258 36.3477 69.3826 36.3788 69.3826C36.3788 69.4138 36.5035 69.2891 36.4411 69.0087C36.41 68.8841 36.3165 68.7595 36.1607 68.6349C36.005 68.5103 35.7869 68.4791 35.5376 68.5103C35.0392 68.5726 34.6341 69.0399 34.4472 69.5384C34.198 70.068 34.1045 70.6911 34.1357 71.3454C34.2603 72.6227 34.9769 73.8066 35.9115 74.0247C36.3788 74.1182 36.7215 73.9624 36.9085 73.8066C37.0954 73.6197 37.1265 73.4951 37.0954 73.4639Z" fill="#FF9A6C"/>
<path d="M38.0611 56.4533C38.9023 57.0141 39.8058 57.5749 40.8027 57.6372C41.7997 57.7307 42.9213 57.1387 43.077 56.1418C43.1393 55.7056 43.0147 55.176 43.3263 54.8333C43.6378 54.3971 44.2921 54.5217 44.8217 54.584C46.691 54.7398 48.5603 53.369 48.9965 51.562C49.495 52.2786 50.5854 52.2163 51.3019 51.7489C52.0185 51.2504 52.4547 50.5027 52.9843 49.8485C53.5451 49.1942 54.324 48.6023 55.1652 48.6957C55.6325 48.758 56.0998 49.0384 56.5671 48.9761C57.4083 48.8827 57.7822 47.8857 57.9068 47.0757C58.0003 46.2345 58.0937 45.2687 58.7791 44.8014C59.4334 44.3652 60.2746 44.5833 61.0535 44.6767C61.8323 44.7702 62.8293 44.5833 63.0162 43.8044C63.1097 43.4305 62.9228 42.9944 62.7047 42.6517C61.6766 41.1251 59.4957 40.4708 57.7822 41.1874C57.1279 39.1 55.1029 37.5111 52.922 37.3242C50.7412 37.1372 48.498 38.3834 47.4699 40.315C46.0991 39.1312 44.1363 38.6638 42.3605 39.1C40.5846 39.5362 39.0892 40.8758 38.4349 42.5894C36.8772 42.2155 35.1325 42.8386 34.1667 44.1471C33.2009 45.4245 33.1074 47.2938 33.9175 48.6646C32.7647 49.35 31.8301 50.5027 31.8301 51.8424C31.8301 53.1509 33.1386 54.4594 34.4159 54.0856C33.9175 55.1137 34.3536 56.4845 35.3817 57.0453C36.3787 57.6061 37.7807 57.2322 38.4038 56.2664" fill="#263238"/>
<path d="M33.949 54.0537C33.9178 54.0537 33.8243 54.6145 34.354 55.2999C34.6344 55.6115 35.0705 55.923 35.6625 56.0165C36.2233 56.1099 36.9398 55.9542 37.4695 55.4557L37.1891 55.4245C37.5318 55.9542 37.9368 56.515 38.4976 56.9823C38.8714 57.2938 39.2453 57.5431 39.6815 57.6988C40.0865 57.8546 40.585 57.8546 40.9588 57.7612C41.7689 57.6677 42.4543 57.2315 42.797 56.6707C43.1085 56.1411 43.202 55.6738 43.2643 55.3311C43.3266 55.0195 43.3266 54.8326 43.3266 54.8326C43.2954 54.8326 43.2331 54.9884 43.1397 55.2999C43.0462 55.6115 42.8904 56.0788 42.5789 56.5461C41.9869 57.4496 40.0242 57.9792 38.7468 56.7019C38.2172 56.2657 37.8122 55.7361 37.5006 55.2376L37.376 55.0507L37.2202 55.2064C36.7841 55.6115 36.1921 55.7672 35.6936 55.7361C35.1952 55.6738 34.7901 55.4245 34.5409 55.1441C34.0113 54.5833 33.9801 54.0537 33.949 54.0537Z" fill="#455A64"/>
<path d="M45.6943 39.2556C45.6943 39.2556 45.8501 39.2867 46.1617 39.4113C46.4421 39.5048 46.8471 39.754 47.1586 40.2214L47.2521 40.346L47.3144 40.2214C47.9063 39.4113 48.8721 38.3521 50.3676 37.6666C51.0841 37.3239 51.9565 37.0747 52.86 37.0435C53.7635 37.0435 54.7293 37.2928 55.5705 37.7601C56.2247 38.1651 56.7855 38.6948 57.2217 39.2556C57.6267 39.8475 57.8759 40.5329 57.9694 41.1872V41.3741L58.1875 41.3118C59.1221 41.0314 60.1191 41.2183 60.8357 41.5922C61.5834 41.966 62.0507 42.5891 62.3311 43.1188C62.8607 44.2403 62.6738 45.0192 62.7673 44.9881C62.7673 44.9881 62.8296 44.8323 62.8296 44.4584C62.8296 44.1157 62.7673 43.6173 62.4869 43.0253C62.2376 42.4334 61.7703 41.7791 60.9603 41.3429C60.1814 40.9068 59.1533 40.6887 58.094 41.0002L58.2809 41.1249C58.2186 40.4394 57.9382 39.6917 57.5021 39.0686C57.0659 38.4144 56.474 37.8847 55.7574 37.4486C54.8539 36.9189 53.8258 36.6697 52.86 36.7008C51.863 36.732 50.9907 37.0124 50.2118 37.3863C48.6852 38.134 47.7194 39.2555 47.1586 40.0967H47.3144C46.9405 39.5983 46.5044 39.3802 46.1928 39.2867C45.8813 39.2244 45.6943 39.2244 45.6943 39.2556Z" fill="#455A64"/>
<path d="M25.1323 234.13L25.3504 200.576L30.086 188.332V185.029L83.3921 184.126V187.989L89.5297 203.193L89.8412 234.13H59.0601L56.4742 220.141L55.8823 234.13H25.1323Z" fill="#263238"/>
<path d="M38.4663 89.4775L49.5886 98.2009L56.6296 107.142L59.2155 97.8582L61.0537 90.568L64.0757 93.59L71.771 109.946L80.4009 189.018C80.4009 189.018 65.353 193.442 57.5331 193.971C49.7132 194.501 37.2824 192.382 37.2824 192.382V150.759L32.8584 109.573L38.1859 93.7769L38.4663 89.4775Z" fill="#F5F5F5"/>
<path d="M60.9294 193.442C60.9294 193.442 60.9294 193.369 60.9294 193.224C60.9086 193.058 60.8982 192.84 60.8982 192.57C60.8775 191.967 60.8463 191.137 60.8048 190.077C60.7113 187.865 60.6178 184.719 60.4932 180.855C60.2128 173.067 59.7766 162.318 59.1847 150.479C58.5616 138.609 57.8762 127.861 57.3466 120.103C57.0662 116.24 56.8481 113.093 56.6923 110.912C56.63 109.832 56.5781 108.991 56.5365 108.389C56.5158 108.119 56.5054 107.901 56.5054 107.735C56.5054 107.589 56.5054 107.517 56.5054 107.517C56.5054 107.517 56.5158 107.589 56.5365 107.735C56.5573 107.901 56.5781 108.119 56.5988 108.389C56.6611 108.991 56.7338 109.822 56.8169 110.881C57.035 113.062 57.2842 116.209 57.5646 120.072C58.1566 127.861 58.8732 138.578 59.4963 150.448C60.1194 162.318 60.4932 173.067 60.7113 180.855C60.8359 184.75 60.8982 187.896 60.9294 190.077C60.9294 191.137 60.9398 191.967 60.9605 192.57C60.9605 192.84 60.9605 193.058 60.9605 193.224C60.9605 193.369 60.9501 193.442 60.9294 193.442Z" fill="#263238"/>
<path d="M36.7218 93.59L34.136 97.1417L13.0752 108.233L24.7895 143.999L27.9673 164.063L16.0972 211.73C16.0972 211.73 30.4908 216.683 31.737 215.094C32.2667 214.44 33.7933 210.982 35.351 207.243C38.4977 199.766 40.5227 191.884 41.3951 183.846C42.2674 175.715 43.0774 165.371 42.4855 158.361C41.3951 145.245 39.6504 123.623 39.4946 117.922C39.3388 112.252 38.3419 90.7549 38.3419 90.7549L36.7218 93.59Z" fill="#FF725E"/>
<path d="M62.5488 91.4717L69.5276 95.553L92.1149 102.968L90.3079 118.95L89.2487 160.262L96.352 209.861C96.352 209.861 88.7813 212.571 85.7904 211.45C82.7684 210.359 78.6871 203.567 78.5002 199.455C78.3444 195.342 72.5184 155.526 72.5184 155.526L66.8171 101.971L62.5488 91.4717Z" fill="#FF725E"/>
<path d="M69.9639 95.5215C69.9639 95.5215 70.0574 95.6253 70.2443 95.833C70.4312 96.0823 70.6909 96.4042 71.0232 96.7988C71.7086 97.6712 72.6744 98.8862 73.9206 100.444L73.9829 100.506L73.8895 100.569C73.1729 101.129 72.3317 101.752 71.4282 102.438L71.3971 102.22C72.3005 102.5 73.2663 102.812 74.2945 103.154H74.3879V103.279C74.3256 108.388 74.2633 114.869 74.1698 121.879C74.0452 130.446 73.9517 138.204 73.8583 143.843C73.796 146.616 73.7648 148.89 73.7337 150.479C73.7129 151.247 73.6921 151.85 73.6714 152.286C73.6714 152.473 73.661 152.629 73.6402 152.753C73.6402 152.857 73.6402 152.909 73.6402 152.909C73.6194 152.909 73.609 152.857 73.609 152.753C73.609 152.629 73.609 152.473 73.609 152.286C73.609 151.85 73.609 151.247 73.609 150.479C73.609 148.89 73.609 146.616 73.6402 143.812C73.6714 138.173 73.7648 130.446 73.8583 121.879C73.9517 114.869 74.0452 108.388 74.1075 103.248L74.201 103.373C73.204 103.061 72.2382 102.749 71.3347 102.438L71.1166 102.376L71.3036 102.251C72.2071 101.566 73.0483 100.974 73.7648 100.413V100.537C72.5498 98.9797 71.6151 97.7335 70.9297 96.8611C70.6182 96.4457 70.3689 96.1134 70.182 95.8642C70.0158 95.6357 69.9431 95.5215 69.9639 95.5215Z" fill="#263238"/>
<path d="M41.8623 151.57C41.8415 151.57 41.8207 151.518 41.8 151.414C41.7584 151.289 41.7065 151.133 41.6442 150.946C41.4988 150.531 41.3015 149.949 41.0522 149.202C40.5538 147.644 39.806 145.432 38.8402 142.722C38.3729 141.351 37.8433 139.855 37.2513 138.266C36.6594 136.677 36.1298 134.933 35.6313 133.063C34.6966 129.356 33.9801 125.212 33.3881 120.82C32.6092 115.118 32.0796 109.76 31.7681 105.149V105.086L31.8304 105.024C32.7027 104.193 33.5335 103.394 34.3228 102.625V102.843C33.492 102.199 32.7027 101.597 31.955 101.036L31.8615 100.974L31.955 100.88C33.7308 98.4503 35.164 96.4875 36.1921 95.1167C36.6905 94.452 37.0852 93.9328 37.376 93.5589C37.5006 93.3928 37.6044 93.2578 37.6875 93.1539C37.7498 93.0708 37.781 93.0293 37.781 93.0293C37.781 93.0293 37.7498 93.0812 37.6875 93.1851C37.6252 93.2889 37.5317 93.4239 37.4071 93.5901C37.1371 93.9847 36.7632 94.5143 36.2855 95.179C35.2886 96.581 33.8866 98.5749 32.1419 101.005L32.1108 100.849C32.8585 101.41 33.6477 102.002 34.4785 102.625L34.6032 102.718L34.4785 102.812C33.7101 103.58 32.8896 104.39 32.0173 105.242L32.0485 105.117C32.3912 109.728 32.9208 115.087 33.6997 120.788C34.3228 125.15 35.0082 129.294 35.9428 133.001C36.3998 134.85 36.919 136.574 37.5006 138.173C38.0614 139.762 38.591 141.257 39.0583 142.628C39.993 145.37 40.7095 147.613 41.1769 149.139C41.4261 149.918 41.5819 150.541 41.7065 150.946C41.748 151.133 41.7896 151.289 41.8311 151.414C41.8519 151.518 41.8623 151.57 41.8623 151.57Z" fill="#263238"/>
<path opacity="0.3" d="M23.7612 181.074L36.0051 185.903L36.8463 183.161L40.9899 186.962L41.7377 180.357L37.9056 173.191L24.6647 177.491L23.7612 181.074Z" fill="black"/>
<path d="M65.4154 180.98L60.4306 177.958L56.0689 174.001C56.0689 174.001 57.4086 175.185 59.4648 175.871C61.521 176.556 62.6738 174.655 62.6738 174.655C62.6738 174.655 60.8668 173.534 60.2437 173.191C59.6517 172.848 53.4519 168.206 51.863 167.864C50.3052 167.552 39.9306 165.434 39.9306 165.434L39.7437 165.963L34.6343 176.899L39.1829 178.114C39.1829 178.114 40.4914 179.89 41.5195 181.946C42.5476 183.971 47.5013 185.996 49.4329 187.024C51.3333 188.021 53.5142 186.245 53.5142 186.245C55.695 186.744 56.2558 184.407 56.2558 184.407C58.7794 184.064 58.9975 181.291 58.9975 181.291C58.9975 181.291 63.5773 183.067 64.9792 183.317C65.5712 183.441 65.8827 183.161 66.0385 182.787C66.3189 182.133 66.0074 181.354 65.4154 180.98Z" fill="#FFBF9D"/>
<path d="M58.9975 181.292C58.9352 181.385 57.6267 180.855 56.1001 179.983C54.5424 179.142 53.4519 178.207 53.5143 178.145C53.5454 178.083 54.6981 178.893 56.2559 179.703C57.7825 180.544 59.0287 181.229 58.9975 181.292Z" fill="#FF9A6C"/>
<path d="M50.9286 180.887C50.9597 180.824 52.2682 181.541 53.7948 182.6C55.2903 183.628 56.5053 184.469 56.4741 184.532C56.4118 184.625 55.1033 183.909 53.6079 182.849C52.0813 181.821 50.8663 180.98 50.9286 180.887Z" fill="#FF9A6C"/>
<path d="M48.9342 183.005C48.9965 182.943 49.9623 183.753 51.2397 184.625C52.517 185.498 53.5451 186.245 53.514 186.308C53.4517 186.37 52.3612 185.747 51.0527 184.875C49.7754 184.002 48.8719 183.068 48.9342 183.005Z" fill="#FF9A6C"/>
<path d="M50.2118 169.639C50.243 169.608 50.6792 169.671 51.3334 169.889C51.9877 170.107 52.86 170.574 53.7324 171.228C54.5735 171.883 55.2278 172.63 55.6328 173.16C56.069 173.721 56.2871 174.095 56.2559 174.126C56.1624 174.188 55.1655 172.786 53.5143 171.478C51.8942 170.169 50.1807 169.733 50.2118 169.639Z" fill="#FF9A6C"/>
<path d="M2.2019 168.176C0.89339 167.366 0.08336 165.932 0.0210501 164.375C-0.0412599 162.973 0.0210539 160.916 0.394914 157.894C1.26725 150.604 13.2308 108.233 13.2308 108.233L25.2254 141.258L21.113 155.62L42.1114 165.683L36.2543 182.195C36.2543 182.195 8.33943 171.977 2.2019 168.176Z" fill="#FF725E"/>
<path d="M92.1154 102.968L111.4 139.637L111.899 140.385L132.96 129.668L139.876 143.656L111.556 160.854C108.347 162.785 104.172 161.851 102.085 158.735L89.5918 140.042L86.2271 124.714L92.1154 102.968Z" fill="#FF725E"/>
<path d="M89.6852 113.437C89.706 113.437 89.7267 113.592 89.7475 113.904C89.7475 114.236 89.7579 114.672 89.7787 115.212C89.8098 116.396 89.841 118.047 89.8721 120.104C89.9344 124.216 89.9344 129.886 89.8721 136.18C89.8098 142.473 89.6852 148.143 89.5606 152.287C89.4983 154.312 89.4359 155.963 89.3736 157.147C89.3529 157.687 89.3321 158.123 89.3113 158.455C89.2906 158.767 89.2698 158.923 89.249 158.923C89.249 158.923 89.249 158.767 89.249 158.455C89.249 158.123 89.249 157.687 89.249 157.147C89.2802 155.963 89.3113 154.312 89.3425 152.256C89.4048 148.143 89.4983 142.473 89.5606 136.18C89.6229 129.886 89.6229 124.216 89.654 120.104C89.654 118.047 89.654 116.396 89.654 115.212C89.654 114.672 89.6644 114.236 89.6852 113.904C89.6852 113.592 89.6852 113.437 89.6852 113.437Z" fill="#263238"/>
<path d="M17.8725 117.424C17.8933 117.404 17.9348 117.518 17.9972 117.767C18.0802 118.058 18.1945 118.421 18.3399 118.857C18.5891 119.823 18.9941 121.194 19.4614 122.845C20.3961 126.21 21.6734 130.852 22.982 136.024C24.2905 141.196 25.3186 145.9 25.9728 149.358C26.3155 151.072 26.5648 152.442 26.6894 153.408C26.7725 153.865 26.8348 154.239 26.8763 154.53C26.8971 154.779 26.9075 154.914 26.9075 154.935C26.8867 154.935 26.8556 154.8 26.814 154.53C26.7517 154.26 26.6686 153.896 26.5648 153.439C26.3778 152.442 26.0974 151.072 25.7547 149.389C25.0382 145.962 23.9789 141.258 22.6704 136.086C21.3619 130.946 20.1157 126.272 19.2434 122.908C18.8072 121.225 18.4645 119.886 18.2152 118.889C18.0906 118.452 17.9971 118.089 17.9348 117.798C17.8725 117.549 17.8518 117.424 17.8725 117.424Z" fill="#263238"/>
<path d="M9.18066 171.571C9.18066 171.571 9.2222 171.582 9.30528 171.602C9.40913 171.644 9.54413 171.696 9.71029 171.758C10.0634 171.883 10.5619 172.07 11.2057 172.319C12.5454 172.817 14.477 173.565 16.8759 174.469C21.705 176.369 28.4656 179.017 36.3166 182.07L36.1297 182.164C37.3448 178.706 38.6533 174.967 40.0241 171.073C40.7095 169.234 41.3326 167.396 41.9557 165.652L42.0492 165.839C33.98 161.944 26.7832 158.455 21.2688 155.807H21.3C19.5241 155.246 17.8417 155.09 16.3775 155.246C14.9132 155.371 13.6981 155.776 12.7635 156.181C11.7977 156.586 11.1123 156.991 10.6449 157.271C10.4372 157.416 10.2607 157.531 10.1153 157.614C10.0115 157.697 9.94915 157.738 9.92838 157.738C9.92838 157.738 9.99069 157.686 10.1153 157.583C10.2399 157.499 10.4061 157.385 10.6138 157.24C11.0811 156.928 11.7354 156.492 12.7012 156.056C13.667 155.651 14.882 155.215 16.3775 155.059C17.8417 154.903 19.5553 155.028 21.3623 155.589C26.8767 158.237 34.1047 161.695 42.1738 165.558L42.3296 165.621L42.2673 165.745C41.6442 167.521 40.9899 169.328 40.3356 171.166C38.9648 175.06 37.6252 178.799 36.4101 182.257L36.3478 182.413L36.2232 182.351C28.3721 179.235 21.6115 176.587 16.7825 174.655C14.4147 173.721 12.5142 172.942 11.1746 172.412C10.5515 172.142 10.053 171.935 9.67914 171.789C9.53375 171.727 9.40913 171.675 9.30528 171.633C9.2222 171.592 9.18066 171.571 9.18066 171.571Z" fill="#263238"/>
<path d="M112.054 140.011C112.085 140.011 112.148 140.572 112.117 141.444C112.054 142.347 111.898 143.562 111.618 144.902C111.338 146.242 111.057 147.426 110.87 148.298C110.683 149.139 110.559 149.7 110.528 149.669C110.465 149.669 110.496 149.139 110.652 148.236C110.777 147.363 111.026 146.148 111.307 144.84C111.587 143.531 111.774 142.316 111.867 141.444C111.992 140.572 111.992 140.011 112.054 140.011Z" fill="#263238"/>
<path d="M112.054 140.915C112.148 140.915 111.712 142.441 111.026 144.248C110.341 146.024 109.811 147.488 109.718 147.457C109.624 147.426 110.06 145.931 110.746 144.124C111.431 142.317 111.961 140.883 112.054 140.915Z" fill="#263238"/>
<path d="M56.3802 106.8C56.3491 106.831 56.1621 106.613 55.7883 106.27C55.3729 105.876 54.8432 105.356 54.1994 104.712C52.8597 103.31 51.0216 101.441 48.9342 99.2915H49.1523C48.498 100.07 47.9995 101.098 47.7814 102.189C47.6568 102.781 47.6257 103.342 47.6568 103.902L47.688 104.276L47.4076 104.027C44.7282 101.877 42.5474 99.7277 40.9273 98.2945C40.1173 97.5468 39.4631 96.9549 39.0269 96.581C38.5596 96.176 38.3103 95.9579 38.3415 95.9268C38.3415 95.9268 38.6219 96.1137 39.0892 96.4875C39.5565 96.8614 40.2419 97.4222 41.0831 98.1388C42.7343 99.5407 44.9463 101.628 47.5945 103.778L47.3453 103.934C47.283 103.342 47.3453 102.75 47.4699 102.127C47.7191 100.974 48.1865 99.9146 48.903 99.1046L49.0276 98.9488L49.1523 99.0734C51.2085 101.254 53.0155 103.155 54.3551 104.557C54.9575 105.221 55.4559 105.761 55.8506 106.177C56.1933 106.582 56.3802 106.8 56.3802 106.8Z" fill="#263238"/>
<path d="M63.4529 94.9922C63.4529 94.9922 63.4841 95.148 63.4841 95.4907C63.4841 95.8022 63.4529 96.2695 63.4217 96.8615C63.3283 98.0454 63.1102 99.7277 62.6117 101.628L62.5183 102.033L62.3313 101.659C61.8328 100.694 61.1474 99.7277 60.3062 98.8554C60.057 98.6062 59.8182 98.3777 59.5897 98.17L59.8389 98.0765C59.2781 100.631 58.5304 102.843 57.9385 104.401C57.6269 105.18 57.3465 105.803 57.1596 106.208C56.9727 106.644 56.848 106.862 56.8169 106.862C56.8169 106.862 56.8792 106.613 57.0661 106.177C57.2323 105.678 57.4504 105.066 57.7204 104.339C58.2812 102.75 58.9666 100.569 59.5274 98.0142L59.5897 97.765L59.7766 97.9208C60.0259 98.1285 60.2751 98.3569 60.5243 98.6062C61.4278 99.5097 62.1132 100.538 62.6117 101.535L62.3313 101.566C62.8298 99.6654 63.079 98.0142 63.2348 96.8615C63.3594 95.6776 63.4217 94.9922 63.4529 94.9922Z" fill="#263238"/>
<path d="M82.644 178.113L84.5133 183.97L95.1684 182.973L91.8659 177.396L82.644 178.113Z" fill="#FF725E"/>
<path d="M82.6439 178.114C82.6128 178.114 82.862 178.082 83.267 178.051C83.7447 177.989 84.3678 177.927 85.1363 177.864C86.7564 177.709 89.093 177.49 91.8346 177.241H91.9281L91.9904 177.304C92.9874 179.017 94.1401 180.918 95.324 182.911L95.4486 183.13L95.1994 183.161C95.0332 183.161 94.8463 183.171 94.6386 183.192C90.8065 183.535 87.286 183.846 84.5444 184.095H84.4198L84.3886 184.002C83.8278 182.195 83.3917 180.699 83.0801 179.671C82.9347 179.194 82.8205 178.809 82.7374 178.519C82.6543 178.249 82.6232 178.114 82.6439 178.114C82.6439 178.134 82.6959 178.28 82.7997 178.55C82.9036 178.861 83.0386 179.256 83.2047 179.734C83.5786 180.762 84.0459 182.195 84.6379 183.94L84.5132 183.846C87.286 183.566 90.7754 183.254 94.6074 182.88C94.8151 182.859 95.0021 182.839 95.1682 182.818L95.0436 183.067C93.8597 181.073 92.7381 179.173 91.7412 177.459L91.8658 177.553C89.1865 177.74 86.881 177.895 85.261 177.989C84.4717 178.03 83.8382 178.062 83.3605 178.082C82.8932 178.114 82.6439 178.114 82.6439 178.114Z" fill="#263238"/>
<path d="M87.4733 135.4H76.0083V131.692H87.4733V135.4Z" fill="#FF725E"/>
<path d="M87.4733 135.4C87.4526 135.4 87.4422 135.306 87.4422 135.119C87.4422 134.932 87.4318 134.693 87.411 134.403C87.3903 133.717 87.3695 132.814 87.3487 131.692L87.4733 131.817C84.7317 131.848 80.6193 131.879 76.0083 131.879C76.0706 131.786 75.8525 132.035 76.1641 131.692V131.723V131.755V131.817V131.941V132.191V132.658C76.1641 132.97 76.1641 133.281 76.1641 133.593C76.1641 134.216 76.1641 134.818 76.1641 135.4L76.0083 135.244C79.2796 135.244 82.1147 135.275 84.1398 135.306C85.1367 135.327 85.9467 135.348 86.5698 135.368C87.1306 135.368 87.4422 135.4 87.4733 135.4C87.4733 135.4 87.1929 135.431 86.6322 135.431C86.0298 135.452 85.2406 135.472 84.2644 135.493C82.2393 135.524 79.3419 135.555 76.0083 135.555H75.8525V135.4C75.8525 134.818 75.8525 134.216 75.8525 133.593C75.8525 133.281 75.8525 132.97 75.8525 132.658V132.191V131.941V131.817V131.755V131.723V131.692C76.1641 131.381 75.946 131.599 76.0083 131.536C80.6193 131.536 84.7317 131.568 87.4733 131.599H87.5668V131.692C87.546 132.835 87.5253 133.759 87.5045 134.465C87.5045 135.088 87.4733 135.4 87.4733 135.4Z" fill="#263238"/>
<path opacity="0.3" d="M74.2326 103.279L76.0084 105.678C76.0084 105.678 75.5099 142.472 73.6406 151.601L74.2326 103.279Z" fill="black"/>
<path d="M186.453 199.548H156.949L165.018 225.313H195.643L186.453 199.548Z" fill="white"/>
<path d="M156.948 199.548C156.419 199.891 148.225 225.313 148.225 225.313H165.734L156.948 199.548Z" fill="#E0E0E0"/>
<path d="M195.643 225.312C195.643 225.312 195.633 225.271 195.612 225.188C195.57 225.105 195.518 224.991 195.456 224.845C195.331 224.513 195.155 224.045 194.926 223.443C194.459 222.166 193.805 220.39 192.995 218.116C191.344 213.536 189.007 207.118 186.297 199.578L186.452 199.672C181.904 199.703 176.95 199.703 171.747 199.703C166.513 199.703 161.497 199.703 156.949 199.672L157.073 199.485C159.628 207.024 161.809 213.474 163.335 218.053C164.083 220.328 164.706 222.135 165.111 223.412C165.319 224.014 165.475 224.482 165.578 224.814C165.62 224.98 165.662 225.105 165.703 225.188C165.724 225.271 165.734 225.312 165.734 225.312C165.713 225.312 165.693 225.271 165.672 225.188C165.63 225.105 165.578 224.991 165.516 224.845C165.412 224.513 165.246 224.045 165.018 223.443C164.582 222.166 163.958 220.39 163.18 218.116C161.591 213.536 159.379 207.118 156.793 199.578L156.73 199.391H156.949C161.497 199.391 166.513 199.36 171.747 199.36C176.95 199.36 181.904 199.391 186.452 199.391H186.546L186.577 199.485C189.256 207.024 191.531 213.474 193.151 218.053C193.961 220.328 194.584 222.135 195.02 223.381C195.228 224.004 195.394 224.482 195.518 224.814C195.56 224.98 195.591 225.105 195.612 225.188C195.653 225.271 195.664 225.312 195.643 225.312Z" fill="#263238"/>
<path d="M171.902 225.312C171.809 225.343 169.784 219.611 167.354 212.476C164.924 205.373 163.054 199.578 163.117 199.547C163.21 199.516 165.235 205.248 167.665 212.383C170.095 219.486 171.996 225.281 171.902 225.312Z" fill="#263238"/>
<path d="M178.102 225.312C178.009 225.343 175.984 219.611 173.554 212.476C171.124 205.373 169.223 199.578 169.317 199.547C169.41 199.516 171.435 205.248 173.865 212.383C176.295 219.486 178.196 225.281 178.102 225.312Z" fill="#263238"/>
<path d="M184.303 225.312C184.209 225.343 182.153 219.611 179.754 212.476C177.324 205.373 175.424 199.578 175.517 199.547C175.579 199.516 177.636 205.248 180.034 212.383C182.465 219.486 184.365 225.281 184.303 225.312Z" fill="#263238"/>
<path d="M190.471 225.312C190.377 225.343 188.352 219.611 185.922 212.476C183.492 205.373 181.591 199.578 181.685 199.547C181.778 199.516 183.803 205.248 186.234 212.383C188.664 219.486 190.564 225.281 190.471 225.312Z" fill="#263238"/>
<path d="M163.148 202.133C163.148 202.227 162.276 202.289 161.216 202.289C160.157 202.289 159.316 202.227 159.316 202.133C159.316 202.04 160.157 201.978 161.216 201.978C162.276 201.978 163.148 202.04 163.148 202.133Z" fill="#263238"/>
<path d="M169.13 202.133C169.13 202.227 168.258 202.289 167.198 202.289C166.17 202.289 165.298 202.227 165.298 202.133C165.298 202.04 166.17 201.978 167.198 201.978C168.258 201.978 169.13 202.04 169.13 202.133Z" fill="#263238"/>
<path d="M175.08 202.133C175.08 202.227 174.208 202.289 173.148 202.289C172.089 202.289 171.248 202.227 171.248 202.133C171.248 202.04 172.089 201.978 173.148 201.978C174.208 201.978 175.08 202.04 175.08 202.133Z" fill="#263238"/>
<path d="M186.14 202.133C186.14 202.227 185.486 202.289 184.676 202.289C183.897 202.289 183.243 202.227 183.243 202.133C183.243 202.04 183.897 201.978 184.676 201.978C185.486 201.978 186.14 202.04 186.14 202.133Z" fill="#263238"/>
<path d="M181.436 202.133C181.436 202.227 180.563 202.289 179.504 202.289C178.476 202.289 177.604 202.227 177.604 202.133C177.604 202.04 178.476 201.978 179.504 201.978C180.563 201.978 181.436 202.04 181.436 202.133Z" fill="#263238"/>
<path d="M187.698 203.971C187.698 204.065 181.155 204.127 173.055 204.127C164.986 204.127 158.443 204.065 158.443 203.971C158.443 203.878 164.986 203.815 173.055 203.815C181.155 203.815 187.698 203.878 187.698 203.971Z" fill="#263238"/>
<path d="M188.975 207.46C188.975 207.554 182.402 207.616 174.332 207.616C166.263 207.616 159.721 207.554 159.721 207.46C159.721 207.367 166.263 207.305 174.332 207.305C182.402 207.305 188.975 207.367 188.975 207.46Z" fill="#263238"/>
<path d="M190.097 211.355C190.097 211.448 183.555 211.511 175.454 211.511C167.385 211.511 160.843 211.448 160.843 211.355C160.843 211.261 167.385 211.168 175.454 211.168C183.555 211.168 190.097 211.261 190.097 211.355Z" fill="#263238"/>
<path d="M191.562 215.249C191.562 215.312 185.019 215.405 176.95 215.405C168.881 215.405 162.307 215.312 162.307 215.249C162.307 215.156 168.881 215.062 176.95 215.062C185.019 215.062 191.562 215.156 191.562 215.249Z" fill="#263238"/>
<path d="M192.714 219.113C192.714 219.206 186.171 219.3 178.102 219.3C170.033 219.3 163.459 219.206 163.459 219.113C163.459 219.05 170.033 218.957 178.102 218.957C186.171 218.957 192.714 219.05 192.714 219.113Z" fill="#263238"/>
<path d="M176.046 210.39C176.046 210.369 176.129 210.358 176.295 210.358C176.461 210.358 176.711 210.358 177.043 210.358C177.697 210.39 178.694 210.39 179.816 210.919C180.345 211.168 180.906 211.605 181.28 212.197C181.685 212.788 181.903 213.661 181.592 214.44C181.311 215.219 180.595 215.842 179.785 216.184C178.944 216.496 178.009 216.496 177.105 216.34C176.202 216.153 175.361 215.904 174.582 215.499C173.803 215.125 173.149 214.502 172.837 213.723C172.494 212.975 172.494 212.103 172.899 211.48C173.273 210.826 173.928 210.483 174.52 210.327C175.08 210.171 175.641 210.203 176.108 210.265C176.607 210.327 176.981 210.421 177.292 210.545C177.604 210.649 177.843 210.732 178.009 210.795C178.175 210.857 178.258 210.898 178.258 210.919C178.258 210.95 177.884 210.826 177.261 210.67C176.638 210.514 175.672 210.234 174.582 210.545C174.021 210.732 173.46 211.044 173.118 211.605C172.775 212.165 172.775 212.944 173.086 213.599C173.398 214.284 173.99 214.845 174.738 215.219C175.454 215.592 176.295 215.842 177.168 215.997C178.04 216.153 178.912 216.153 179.66 215.873C180.408 215.592 181.062 215.032 181.311 214.346C181.592 213.661 181.405 212.913 181.062 212.352C180.719 211.792 180.221 211.387 179.722 211.106C178.663 210.608 177.697 210.545 177.043 210.483C176.389 210.421 176.046 210.421 176.046 210.39Z" fill="#FF725E"/>
<path d="M173.429 216.589C173.398 216.558 173.803 216.122 174.458 215.468C175.236 214.72 176.109 213.817 177.106 212.851C178.103 211.854 178.975 210.982 179.754 210.234C180.408 209.548 180.844 209.143 180.875 209.175C180.907 209.206 180.533 209.673 179.91 210.39C179.287 211.075 178.383 212.041 177.324 213.069C176.296 214.097 175.33 215.001 174.644 215.624C173.928 216.247 173.461 216.621 173.429 216.589Z" fill="#FF725E"/>
<path d="M183.181 216.402C183.181 216.433 182.558 216.091 181.592 215.468C180.657 214.844 179.349 214.003 177.885 213.037C176.451 212.041 175.174 211.168 174.239 210.483C173.305 209.829 172.744 209.392 172.775 209.361C172.806 209.33 173.398 209.704 174.364 210.296C175.33 210.919 176.638 211.791 178.072 212.757C179.505 213.723 180.813 214.626 181.748 215.281C182.651 215.935 183.212 216.371 183.181 216.402Z" fill="#FF725E"/>
<path d="M175.548 205.28C175.548 205.374 174.8 205.498 173.896 205.467C172.962 205.405 172.245 205.187 172.276 205.125C172.276 205.031 173.024 205.093 173.896 205.125C174.8 205.187 175.516 205.187 175.548 205.28Z" fill="#FF725E"/>
<path d="M175.485 206.152C175.516 206.245 174.987 206.339 174.364 206.401C173.741 206.432 173.211 206.401 173.211 206.308C173.211 206.214 173.709 206.121 174.333 206.059C174.987 206.027 175.485 206.059 175.485 206.152Z" fill="#FF725E"/>
<path d="M181.591 205.466C181.591 205.56 181.062 205.684 180.408 205.684C179.753 205.684 179.224 205.56 179.224 205.466C179.224 205.373 179.753 205.342 180.408 205.342C181.062 205.342 181.591 205.373 181.591 205.466Z" fill="#FF725E"/>
<path d="M188.477 208.738C188.477 208.831 188.134 208.925 187.698 208.956C187.262 208.987 186.919 208.956 186.919 208.863C186.919 208.769 187.262 208.676 187.667 208.644C188.103 208.613 188.477 208.644 188.477 208.738Z" fill="#FF725E"/>
<path d="M170.999 209.455C171.03 209.548 170.376 209.704 169.566 209.673C168.756 209.673 168.133 209.486 168.164 209.392C168.164 209.299 168.818 209.33 169.597 209.361C170.345 209.361 170.999 209.361 170.999 209.455Z" fill="#FF725E"/>
<path d="M165.952 213.692C165.952 213.786 165.423 213.879 164.8 213.91C164.145 213.941 163.616 213.91 163.616 213.817C163.616 213.723 164.145 213.63 164.768 213.599C165.423 213.567 165.952 213.599 165.952 213.692Z" fill="#FF725E"/>
<path d="M175.361 221.637C175.361 221.73 174.863 221.886 174.208 222.01C173.585 222.104 173.024 222.104 173.024 222.01C173.024 221.948 173.523 221.792 174.146 221.668C174.8 221.574 175.33 221.543 175.361 221.637Z" fill="#FF725E"/>
<path d="M180.564 217.928C180.564 218.022 179.816 218.178 178.913 218.147C178.009 218.115 177.261 217.96 177.292 217.866C177.292 217.773 178.04 217.804 178.913 217.804C179.816 217.835 180.564 217.866 180.564 217.928Z" fill="#FF725E"/>
<path d="M187.075 217.274C187.075 217.368 186.514 217.461 185.829 217.492C185.143 217.554 184.583 217.523 184.583 217.43C184.583 217.336 185.143 217.212 185.829 217.181C186.514 217.149 187.075 217.181 187.075 217.274Z" fill="#FF725E"/>
<path d="M156.949 199.547C157.011 199.578 155.142 205.373 152.743 212.476C150.344 219.611 148.319 225.343 148.225 225.312C148.163 225.281 150.032 219.486 152.431 212.383C154.83 205.248 156.855 199.516 156.949 199.547Z" fill="#263238"/>
<path d="M194.521 222.851C194.521 222.945 187.979 223.038 179.909 223.038C171.809 223.038 165.267 222.945 165.267 222.851C165.267 222.789 171.809 222.695 179.909 222.695C187.979 222.695 194.521 222.789 194.521 222.851Z" fill="#263238"/>
<path d="M87.8783 184.998L87.5667 184.936C86.9436 184.78 86.3206 185.185 86.1959 185.808L78.0333 222.976H37.4695C36.8153 222.976 36.2856 223.506 36.2856 224.129C36.2856 224.783 36.8153 225.313 37.4695 225.313H79.9961L88.7818 186.4C88.9064 185.746 88.5014 185.123 87.8783 184.998Z" fill="#E0E0E0"/>
<path d="M87.8776 184.998C87.8776 184.998 88.1892 184.967 88.5319 185.372C88.7188 185.559 88.8746 185.87 88.8434 186.244C88.7811 186.618 88.6565 187.023 88.563 187.522C88.1269 189.453 87.5038 192.226 86.7249 195.809C85.136 202.943 82.8617 213.131 80.12 225.344L80.0889 225.437L79.9954 225.468C67.6269 225.468 52.984 225.468 37.3754 225.468C36.7834 225.437 36.285 225.001 36.1603 224.44C36.0357 223.848 36.3161 223.225 36.8146 222.976C37.0638 222.82 37.4065 222.789 37.6246 222.82H38.4035C38.902 222.82 39.4005 222.82 39.8989 222.82C41.8929 222.82 43.866 222.82 45.8184 222.82C49.7128 222.82 53.5448 222.82 57.2523 222.82C64.6672 222.82 71.6459 222.82 78.0326 222.82L77.8769 222.945C80.4939 211.137 82.6747 201.354 84.2013 194.469C84.9802 191.073 85.5722 188.363 85.9772 186.525C86.1018 186.088 86.1329 185.652 86.3822 185.341C86.6003 185.06 86.9118 184.936 87.1611 184.905C87.3791 184.842 87.5661 184.905 87.6907 184.936C87.8153 184.957 87.8776 184.977 87.8776 184.998C87.8776 184.998 87.8153 184.988 87.6907 184.967C87.5661 184.936 87.3791 184.905 87.1611 184.936C86.9118 184.967 86.6314 185.092 86.4133 185.372C86.1952 185.652 86.1953 186.088 86.0706 186.556C85.6656 188.394 85.1048 191.073 84.3571 194.5C82.8617 201.386 80.712 211.199 78.1573 223.007L78.1261 223.101H78.0326C71.6459 223.101 64.6672 223.132 57.2523 223.132C53.5448 223.132 49.7128 223.132 45.8184 223.132C43.866 223.132 41.8929 223.132 39.8989 223.132C39.4005 223.132 38.902 223.132 38.4035 223.132H37.6246C37.3754 223.132 37.1885 223.132 36.9704 223.256C36.5965 223.443 36.3784 223.942 36.4719 224.347C36.5654 224.783 36.9704 225.126 37.4065 225.157C53.0152 225.157 67.6269 225.157 79.9954 225.188L79.8396 225.281C82.6124 213.069 84.949 202.881 86.5691 195.747C87.3791 192.195 88.0334 189.422 88.4696 187.49C88.5942 187.023 88.6876 186.587 88.75 186.244C88.8123 185.87 88.6565 185.559 88.5007 185.372C88.158 184.998 87.8465 184.998 87.8776 184.998Z" fill="#263238"/>
<path d="M291.631 234.13H2.17041V225.375H291.631V234.13Z" fill="#E0E0E0"/>
<path d="M291.631 234.13C291.631 233.881 291.6 231.295 291.6 225.375L291.631 225.407C261.131 225.407 143.053 225.469 2.17033 225.531L2.32611 225.375C2.32611 228.366 2.32611 231.357 2.32611 234.13L2.17033 233.974C162.93 234.068 289.855 234.13 291.631 234.13C289.855 234.13 162.93 234.192 2.17033 234.286H1.9834V234.13C1.9834 231.357 1.9834 228.366 1.9834 225.375V225.188H2.17033C143.053 225.251 261.131 225.313 291.631 225.313H291.662V225.375C291.631 231.295 291.631 233.881 291.631 234.13Z" fill="#263238"/>
<path d="M258.607 225.282H198.665V219.893H258.607V225.282Z" fill="#FAFAFA"/>
<path d="M258.607 225.282C258.607 225.282 258.576 225.157 258.576 224.908C258.576 224.659 258.576 224.316 258.576 223.88C258.576 222.945 258.545 221.606 258.545 219.892L258.607 219.954C248.607 220.017 225.521 220.048 198.665 220.048L198.821 219.892C198.821 221.73 198.821 223.568 198.821 225.282L198.665 225.126C215.458 225.126 230.412 225.157 241.192 225.188C246.55 225.188 250.912 225.22 253.934 225.22C255.398 225.251 256.582 225.251 257.392 225.251C257.766 225.251 258.067 225.251 258.296 225.251C258.503 225.272 258.607 225.282 258.607 225.282C258.607 225.282 258.503 225.282 258.296 225.282C258.088 225.282 257.797 225.292 257.423 225.313C256.613 225.313 255.492 225.313 253.996 225.313C251.005 225.344 246.675 225.344 241.285 225.375C230.474 225.375 215.489 225.407 198.665 225.438H198.509V225.282C198.509 223.568 198.509 221.73 198.509 219.892L198.665 219.736C225.521 219.736 248.607 219.767 258.607 219.83H258.67V219.892C258.638 221.637 258.638 222.976 258.638 223.911C258.618 224.347 258.607 224.69 258.607 224.939C258.607 225.168 258.607 225.282 258.607 225.282Z" fill="#263238"/>
<path d="M252.407 219.892H193.182V216.901H252.407V219.892Z" fill="#FAFAFA"/>
<path d="M252.407 219.892C252.407 219.892 252.407 219.83 252.407 219.705C252.407 219.581 252.397 219.394 252.376 219.144C252.376 218.646 252.376 217.898 252.345 216.901L252.407 216.932C244.899 217.026 221.19 217.057 193.182 217.057C193.244 216.995 192.995 217.213 193.337 216.901V216.932V216.995V217.088V217.275V217.68C193.337 217.929 193.337 218.179 193.337 218.428C193.337 218.926 193.337 219.414 193.337 219.892L193.182 219.736C209.663 219.767 224.43 219.799 235.116 219.799C240.444 219.83 244.774 219.83 247.765 219.861C249.229 219.861 250.382 219.861 251.192 219.861C251.587 219.882 251.888 219.892 252.096 219.892C252.283 219.892 252.407 219.892 252.407 219.892C252.407 219.892 252.314 219.892 252.127 219.892C251.898 219.913 251.597 219.923 251.223 219.923C250.444 219.923 249.292 219.923 247.827 219.954C244.837 219.954 240.537 219.986 235.241 219.986C224.523 220.017 209.694 220.017 193.182 220.048H192.995V219.892C192.995 219.414 192.995 218.926 192.995 218.428C192.995 218.179 192.995 217.929 192.995 217.68V217.275V217.088V216.995V216.932V216.901C193.337 216.59 193.088 216.808 193.182 216.745C221.19 216.745 244.899 216.777 252.407 216.839H252.438V216.901C252.438 217.929 252.438 218.677 252.438 219.175C252.418 219.404 252.407 219.591 252.407 219.736C252.407 219.84 252.407 219.892 252.407 219.892Z" fill="#263238"/>
<path d="M256.925 223.289C256.925 223.382 243.933 223.476 227.951 223.476C211.937 223.476 198.977 223.382 198.977 223.289C198.977 223.195 211.937 223.133 227.951 223.133C243.933 223.133 256.925 223.195 256.925 223.289Z" fill="#263238"/>
<path d="M258.358 221.886C258.358 221.948 245.366 222.042 229.384 222.042C213.37 222.042 200.378 221.948 200.378 221.886C200.378 221.793 213.37 221.699 229.384 221.699C245.366 221.699 258.358 221.793 258.358 221.886Z" fill="#263238"/>
<path d="M116.011 189.547L118.098 189.422L120.31 219.736L118.192 219.891L116.011 189.547Z" fill="#E0E0E0"/>
<path d="M117.132 210.669L120.123 210.451L120.808 220.234C120.87 221.075 120.247 221.792 119.437 221.854C118.596 221.916 117.88 221.293 117.817 220.452L117.132 210.669Z" fill="#455A64"/>
<path d="M116.229 206.184L116.789 206.152L117.724 218.864L117.132 218.895L116.229 206.184Z" fill="#455A64"/>
<path d="M120.123 210.452C120.123 210.514 118.908 210.701 117.101 210.888L117.226 210.733C117.288 211.418 117.35 212.155 117.413 212.945C117.506 214.378 117.6 215.686 117.631 216.652C117.662 217.587 117.662 218.179 117.631 218.179C117.568 218.179 117.506 217.587 117.413 216.652C117.319 215.717 117.195 214.409 117.101 212.945C117.039 212.176 116.987 211.439 116.945 210.733V210.608L117.07 210.577C118.877 210.452 120.123 210.39 120.123 210.452Z" fill="#263238"/>
<path d="M122.46 214.004H120.341V190.264H122.46V214.004Z" fill="#E0E0E0"/>
<path d="M122.864 199.547H119.842V189.702C119.842 188.892 120.528 188.207 121.338 188.207C122.179 188.207 122.864 188.892 122.864 189.702V199.547Z" fill="#455A64"/>
<path d="M123.426 204.065H122.865V191.322H123.426V204.065Z" fill="#455A64"/>
<path d="M119.842 199.547C119.842 199.454 121.088 199.392 122.895 199.329L122.74 199.454C122.74 198.768 122.74 198.031 122.74 197.242C122.74 195.809 122.74 194.5 122.771 193.534C122.802 192.6 122.833 192.008 122.895 192.008C122.927 192.008 122.989 192.6 123.02 193.534C123.02 194.5 123.051 195.809 123.051 197.242C123.051 198.031 123.051 198.768 123.051 199.454V199.61H122.895C121.088 199.641 119.842 199.61 119.842 199.547Z" fill="#263238"/>
<path d="M126.697 219.58H124.579V195.84H126.697V219.58Z" fill="#E0E0E0"/>
<path d="M127.102 205.093H124.08V195.28C124.08 194.47 124.765 193.784 125.575 193.784C126.416 193.784 127.102 194.47 127.102 195.28V205.093Z" fill="#455A64"/>
<path d="M127.663 209.642H127.102V196.899H127.663V209.642Z" fill="#455A64"/>
<path d="M124.08 205.093C124.08 205.031 125.326 204.969 127.133 204.875L126.977 205.031C126.977 204.346 126.977 203.608 126.977 202.819C126.977 201.386 126.977 200.046 127.008 199.112C127.039 198.146 127.07 197.585 127.133 197.585C127.164 197.585 127.226 198.146 127.257 199.112C127.289 200.046 127.289 201.386 127.289 202.819C127.289 203.608 127.289 204.346 127.289 205.031V205.187H127.133C125.326 205.187 124.08 205.156 124.08 205.093Z" fill="#263238"/>
<path d="M130.684 213.131H128.566V189.391H130.684V213.131Z" fill="#E0E0E0"/>
<path d="M131.09 198.675H128.099V188.862C128.099 188.02 128.753 187.335 129.594 187.335C130.404 187.335 131.09 188.02 131.09 188.862V198.675Z" fill="#455A64"/>
<path d="M131.682 203.193H131.09V190.45H131.682V203.193Z" fill="#455A64"/>
<path d="M128.099 198.675C128.099 198.613 129.314 198.519 131.121 198.457L130.965 198.582C130.965 197.896 130.965 197.159 130.965 196.37C130.965 194.937 130.996 193.628 130.996 192.662C131.027 191.728 131.089 191.136 131.121 191.136C131.183 191.136 131.214 191.728 131.245 192.662C131.276 193.628 131.276 194.937 131.276 196.37C131.276 197.159 131.276 197.896 131.276 198.582V198.738H131.121C129.314 198.769 128.099 198.738 128.099 198.675Z" fill="#263238"/>
<path d="M131.401 225.313H117.911L116.135 205.623H133.332L131.401 225.313Z" fill="#FF725E"/>
</svg>
