<svg width="40" height="40" viewBox="0 0 40 40" fill="none" xmlns="http://www.w3.org/2000/svg">
<path d="M13.3344 20C13.3344 16.3182 16.3182 13.3328 20 13.3328C23.6818 13.3328 26.6672 16.3182 26.6672 20C26.6672 23.6818 23.6818 26.6672 20 26.6672C16.3182 26.6672 13.3344 23.6818 13.3344 20ZM9.73024 20C9.73024 25.672 14.328 30.2698 20 30.2698C25.672 30.2698 30.2698 25.672 30.2698 20C30.2698 14.328 25.672 9.73024 20 9.73024C14.328 9.73024 9.73024 14.328 9.73024 20ZM28.2763 9.32304C28.2761 9.79772 28.4167 10.2618 28.6803 10.6566C28.9438 11.0514 29.3185 11.3591 29.757 11.5409C30.1955 11.7228 30.678 11.7705 31.1436 11.6781C31.6092 11.5857 32.0369 11.3572 32.3727 11.0217C32.7085 10.6862 32.9372 10.2587 33.03 9.79316C33.1228 9.32764 33.0755 8.84506 32.894 8.40645C32.7125 7.96783 32.4051 7.59288 32.0105 7.32901C31.6159 7.06513 31.152 6.92419 30.6773 6.924H30.6763C30.0401 6.9243 29.4299 7.17712 28.9799 7.62693C28.5299 8.07675 28.2769 8.68678 28.2763 9.32304ZM11.92 36.2795C9.97008 36.1907 8.91024 35.8659 8.20592 35.5915C7.27216 35.228 6.60592 34.795 5.90544 34.0955C5.20496 33.396 4.77136 32.7304 4.40944 31.7966C4.13488 31.0926 3.81008 30.0325 3.72144 28.0826C3.62448 25.9744 3.60512 25.3411 3.60512 20.0002C3.60512 14.6592 3.62608 14.0277 3.72144 11.9178C3.81024 9.96784 4.13744 8.90976 4.40944 8.20368C4.77296 7.26992 5.20592 6.60368 5.90544 5.9032C6.60496 5.20272 7.27056 4.76912 8.20592 4.4072C8.90992 4.13264 9.97008 3.80784 11.92 3.7192C14.0282 3.62224 14.6614 3.60288 20 3.60288C25.3386 3.60288 25.9725 3.62384 28.0824 3.7192C30.0323 3.808 31.0904 4.1352 31.7965 4.4072C32.7302 4.76912 33.3965 5.20368 34.097 5.9032C34.7974 6.60272 35.2294 7.26992 35.593 8.20368C35.8675 8.90768 36.1923 9.96784 36.281 11.9178C36.3779 14.0277 36.3973 14.6592 36.3973 20.0002C36.3973 25.3411 36.3779 25.9726 36.281 28.0826C36.1922 30.0325 35.8658 31.0923 35.593 31.7966C35.2294 32.7304 34.7965 33.3966 34.097 34.0955C33.3974 34.7944 32.7302 35.228 31.7965 35.5915C31.0925 35.8661 30.0323 36.1909 28.0824 36.2795C25.9742 36.3765 25.341 36.3958 20 36.3958C14.659 36.3958 14.0275 36.3765 11.92 36.2795ZM11.7544 0.12112C9.62528 0.21808 8.1704 0.55568 6.89984 1.05008C5.584 1.56064 4.47008 2.2456 3.35696 3.35696C2.24384 4.46832 1.56064 5.584 1.05008 6.89984C0.55568 8.1712 0.21808 9.62528 0.12112 11.7544C0.02256 13.8869 0 14.5686 0 20C0 25.4314 0.02256 26.1131 0.12112 28.2456C0.21808 30.3749 0.55568 31.8288 1.05008 33.1002C1.56064 34.4152 2.244 35.5322 3.35696 36.643C4.46992 37.7539 5.584 38.4379 6.89984 38.9499C8.1728 39.4443 9.62528 39.7819 11.7544 39.8789C13.888 39.9758 14.5686 40 20 40C25.4314 40 26.1131 39.9774 28.2456 39.8789C30.3749 39.7819 31.8288 39.4443 33.1002 38.9499C34.4152 38.4379 35.5299 37.7544 36.643 36.643C37.7562 35.5317 38.4379 34.4152 38.9499 33.1002C39.4443 31.8288 39.7835 30.3747 39.8789 28.2456C39.9758 26.1115 39.9984 25.4314 39.9984 20C39.9984 14.5686 39.9758 13.8869 39.8789 11.7544C39.7819 9.62512 39.4443 8.1704 38.9499 6.89984C38.4379 5.5848 37.7544 4.47008 36.643 3.35696C35.5317 2.24384 34.4152 1.56064 33.1018 1.05008C31.8288 0.55568 30.3747 0.21648 28.2472 0.12112C26.1147 0.02416 25.433 0 20.0016 0C14.5702 0 13.888 0.02256 11.7544 0.12112Z" fill="url(#paint0_radial_235_57)"/>
<path d="M13.3344 20C13.3344 16.3182 16.3182 13.3328 20 13.3328C23.6818 13.3328 26.6672 16.3182 26.6672 20C26.6672 23.6818 23.6818 26.6672 20 26.6672C16.3182 26.6672 13.3344 23.6818 13.3344 20ZM9.73024 20C9.73024 25.672 14.328 30.2698 20 30.2698C25.672 30.2698 30.2698 25.672 30.2698 20C30.2698 14.328 25.672 9.73024 20 9.73024C14.328 9.73024 9.73024 14.328 9.73024 20ZM28.2763 9.32304C28.2761 9.79772 28.4167 10.2618 28.6803 10.6566C28.9438 11.0514 29.3185 11.3591 29.757 11.5409C30.1955 11.7228 30.678 11.7705 31.1436 11.6781C31.6092 11.5857 32.0369 11.3572 32.3727 11.0217C32.7085 10.6862 32.9372 10.2587 33.03 9.79316C33.1228 9.32764 33.0755 8.84506 32.894 8.40645C32.7125 7.96783 32.4051 7.59288 32.0105 7.32901C31.6159 7.06513 31.152 6.92419 30.6773 6.924H30.6763C30.0401 6.9243 29.4299 7.17712 28.9799 7.62693C28.5299 8.07675 28.2769 8.68678 28.2763 9.32304ZM11.92 36.2795C9.97008 36.1907 8.91024 35.8659 8.20592 35.5915C7.27216 35.228 6.60592 34.795 5.90544 34.0955C5.20496 33.396 4.77136 32.7304 4.40944 31.7966C4.13488 31.0926 3.81008 30.0325 3.72144 28.0826C3.62448 25.9744 3.60512 25.3411 3.60512 20.0002C3.60512 14.6592 3.62608 14.0277 3.72144 11.9178C3.81024 9.96784 4.13744 8.90976 4.40944 8.20368C4.77296 7.26992 5.20592 6.60368 5.90544 5.9032C6.60496 5.20272 7.27056 4.76912 8.20592 4.4072C8.90992 4.13264 9.97008 3.80784 11.92 3.7192C14.0282 3.62224 14.6614 3.60288 20 3.60288C25.3386 3.60288 25.9725 3.62384 28.0824 3.7192C30.0323 3.808 31.0904 4.1352 31.7965 4.4072C32.7302 4.76912 33.3965 5.20368 34.097 5.9032C34.7974 6.60272 35.2294 7.26992 35.593 8.20368C35.8675 8.90768 36.1923 9.96784 36.281 11.9178C36.3779 14.0277 36.3973 14.6592 36.3973 20.0002C36.3973 25.3411 36.3779 25.9726 36.281 28.0826C36.1922 30.0325 35.8658 31.0923 35.593 31.7966C35.2294 32.7304 34.7965 33.3966 34.097 34.0955C33.3974 34.7944 32.7302 35.228 31.7965 35.5915C31.0925 35.8661 30.0323 36.1909 28.0824 36.2795C25.9742 36.3765 25.341 36.3958 20 36.3958C14.659 36.3958 14.0275 36.3765 11.92 36.2795ZM11.7544 0.12112C9.62528 0.21808 8.1704 0.55568 6.89984 1.05008C5.584 1.56064 4.47008 2.2456 3.35696 3.35696C2.24384 4.46832 1.56064 5.584 1.05008 6.89984C0.55568 8.1712 0.21808 9.62528 0.12112 11.7544C0.02256 13.8869 0 14.5686 0 20C0 25.4314 0.02256 26.1131 0.12112 28.2456C0.21808 30.3749 0.55568 31.8288 1.05008 33.1002C1.56064 34.4152 2.244 35.5322 3.35696 36.643C4.46992 37.7539 5.584 38.4379 6.89984 38.9499C8.1728 39.4443 9.62528 39.7819 11.7544 39.8789C13.888 39.9758 14.5686 40 20 40C25.4314 40 26.1131 39.9774 28.2456 39.8789C30.3749 39.7819 31.8288 39.4443 33.1002 38.9499C34.4152 38.4379 35.5299 37.7544 36.643 36.643C37.7562 35.5317 38.4379 34.4152 38.9499 33.1002C39.4443 31.8288 39.7835 30.3747 39.8789 28.2456C39.9758 26.1115 39.9984 25.4314 39.9984 20C39.9984 14.5686 39.9758 13.8869 39.8789 11.7544C39.7819 9.62512 39.4443 8.1704 38.9499 6.89984C38.4379 5.5848 37.7544 4.47008 36.643 3.35696C35.5317 2.24384 34.4152 1.56064 33.1018 1.05008C31.8288 0.55568 30.3747 0.21648 28.2472 0.12112C26.1147 0.02416 25.433 0 20.0016 0C14.5702 0 13.888 0.02256 11.7544 0.12112Z" fill="url(#paint1_radial_235_57)"/>
<defs>
<radialGradient id="paint0_radial_235_57" cx="0" cy="0" r="1" gradientUnits="userSpaceOnUse" gradientTransform="translate(5.31424 40.189) scale(52.2166 52.2166)">
<stop offset="0.09" stop-color="#FA8F21"/>
<stop offset="0.78" stop-color="#D82D7E"/>
</radialGradient>
<radialGradient id="paint1_radial_235_57" cx="0" cy="0" r="1" gradientUnits="userSpaceOnUse" gradientTransform="translate(24.2582 41.981) scale(41.1539)">
<stop offset="0.64" stop-color="#8C3AAA" stop-opacity="0"/>
<stop offset="1" stop-color="#8C3AAA"/>
</radialGradient>
</defs>
</svg>
