<svg width="36" height="36" viewBox="0 0 36 36" fill="none" xmlns="http://www.w3.org/2000/svg">
<path d="M35.9965 18.1064C35.9965 8.22409 27.9853 0.212891 18.103 0.212891C8.22067 0.212891 0.209473 8.22409 0.209473 18.1064C0.209473 27.9887 8.22067 35.9999 18.103 35.9999C27.9853 35.9999 35.9965 27.9887 35.9965 18.1064Z" fill="url(#paint0_linear_74_6344)"/>
<path d="M31.5702 6.33443C28.9615 11.1233 25.2722 16.0629 20.6623 20.6728C16.0523 25.2827 11.1128 28.965 6.33096 31.5737C6.03116 31.3132 5.74 31.0416 5.45747 30.7591C3.74971 29.1083 2.38769 27.1341 1.45082 24.9515C0.513949 22.769 0.0209788 20.4217 0.000655131 18.0466C-0.0196685 15.6716 0.433061 13.3162 1.33244 11.1179C2.23183 8.91962 3.55987 6.92238 5.23912 5.24266C6.91838 3.56293 8.91525 2.23433 11.1133 1.33434C13.3113 0.434339 15.6666 -0.0190475 18.0416 0.000613082C20.4167 0.0202737 22.7641 0.512588 24.9469 1.44885C27.1298 2.38511 29.1044 3.74658 30.7556 5.45388C31.0381 5.73641 31.3097 6.02992 31.5702 6.33443Z" fill="white" fill-opacity="0.0627451"/>
<path d="M22.3411 8.68848H13.8652C12.4915 8.68848 11.174 9.23419 10.2026 10.2056C9.23126 11.177 8.68555 12.4944 8.68555 13.8682V22.3441C8.68555 23.7178 9.23126 25.0353 10.2026 26.0067C11.174 26.978 12.4915 27.5238 13.8652 27.5238H22.3411C23.7149 27.5238 25.0323 26.978 26.0037 26.0067C26.9751 25.0353 27.5208 23.7178 27.5208 22.3441V13.8682C27.5208 12.4944 26.9751 11.177 26.0037 10.2056C25.0323 9.23419 23.7149 8.68848 22.3411 8.68848ZM25.8727 21.6001C25.8727 22.734 25.4223 23.8215 24.6204 24.6234C23.8186 25.4252 22.7311 25.8757 21.5971 25.8757H14.6092C13.4753 25.8757 12.3878 25.4252 11.5859 24.6234C10.7841 23.8215 10.3336 22.734 10.3336 21.6001V14.6122C10.3336 13.4782 10.7841 12.3907 11.5859 11.5889C12.3878 10.787 13.4753 10.3366 14.6092 10.3366H21.5971C22.7311 10.3366 23.8186 10.787 24.6204 11.5889C25.4223 12.3907 25.8727 13.4782 25.8727 14.6122V21.6001Z" fill="white"/>
<path d="M21.5382 14.7064L21.4935 14.6617L21.4558 14.624C20.5656 13.7369 19.3599 13.239 18.1031 13.2396C17.4685 13.2439 16.8409 13.3733 16.2562 13.6202C15.6716 13.8671 15.1413 14.2268 14.6957 14.6788C14.2501 15.1307 13.8979 15.666 13.6593 16.2541C13.4206 16.8422 13.3002 17.4716 13.3048 18.1062C13.3039 19.3942 13.8116 20.6304 14.7175 21.546C15.1612 21.9951 15.69 22.3514 16.2729 22.5939C16.8558 22.8364 17.4812 22.9604 18.1125 22.9586C19.0596 22.9388 19.9803 22.6438 20.7626 22.1096C21.5448 21.5754 22.1547 20.8251 22.5179 19.9503C22.8811 19.0754 22.9818 18.1138 22.8079 17.1827C22.6339 16.2515 22.1927 15.3911 21.5382 14.7064ZM18.1031 21.2988C17.4698 21.3077 16.8482 21.128 16.3174 20.7826C15.7865 20.4372 15.3704 19.9418 15.1218 19.3593C14.8733 18.7767 14.8037 18.1335 14.9218 17.5112C15.0399 16.889 15.3403 16.316 15.785 15.865C16.2297 15.414 16.7984 15.1055 17.4189 14.9786C18.0394 14.8518 18.6836 14.9123 19.2696 15.1526C19.8555 15.3929 20.3568 15.802 20.7096 16.3279C21.0625 16.8539 21.2509 17.4729 21.251 18.1062C21.2541 18.5226 21.1751 18.9355 21.0185 19.3213C20.862 19.7071 20.6309 20.0583 20.3386 20.3548C20.0463 20.6513 19.6984 20.8873 19.3148 21.0492C18.9312 21.2112 18.5195 21.296 18.1031 21.2988ZM24.3258 13.016C24.3271 13.167 24.2985 13.3169 24.2417 13.4569C24.185 13.5969 24.1012 13.7244 23.9951 13.832C23.8891 13.9396 23.7628 14.0252 23.6236 14.084C23.4844 14.1427 23.335 14.1734 23.1839 14.1743C23.0341 14.1743 22.8858 14.1445 22.7476 14.0867C22.6094 14.0289 22.484 13.9442 22.3787 13.8377C22.2192 13.6758 22.1107 13.4707 22.0667 13.2478C22.0226 13.0249 22.045 12.794 22.131 12.5836C22.217 12.3733 22.3628 12.1928 22.5504 12.0646C22.738 11.9364 22.9591 11.866 23.1863 11.8623C23.4522 11.8623 23.7097 11.9556 23.9138 12.126L23.9373 12.1495C23.9753 12.1805 24.01 12.2152 24.0409 12.2531L24.0668 12.2814C24.2354 12.489 24.3269 12.7486 24.3258 13.016Z" fill="white"/>
<defs>
<linearGradient id="paint0_linear_74_6344" x1="5.45039" y1="5.45381" x2="30.7556" y2="30.759" gradientUnits="userSpaceOnUse">
<stop stop-color="#FAE100"/>
<stop offset="0.15" stop-color="#FCB720"/>
<stop offset="0.3" stop-color="#FF7950"/>
<stop offset="0.5" stop-color="#FF1C74"/>
<stop offset="1" stop-color="#6C1CD1"/>
</linearGradient>
</defs>
</svg>
