<svg width="20" height="20" viewBox="0 0 20 20" fill="none" xmlns="http://www.w3.org/2000/svg">
<path d="M17.135 1H14.324C14.2376 1.00925 14.1577 1.05011 14.0997 1.11472C14.0416 1.17933 14.0095 1.26313 14.0095 1.35C14.0095 1.43687 14.0416 1.52067 14.0997 1.58528C14.1577 1.64989 14.2376 1.69075 14.324 1.7H17.135C17.2881 1.69974 17.4397 1.72969 17.5811 1.78814C17.7226 1.8466 17.8511 1.9324 17.9594 2.04063C18.0676 2.14887 18.1534 2.2774 18.2119 2.41886C18.2703 2.56033 18.3003 2.71194 18.3 2.865V8.557C18.2995 8.86493 18.1768 9.16008 17.959 9.37772C17.7412 9.59536 17.4459 9.71774 17.138 9.718C17.0446 9.718 16.9551 9.75509 16.8891 9.8211C16.8231 9.88711 16.786 9.97664 16.786 10.07V11.558L14.728 9.8C14.6644 9.74575 14.5836 9.71596 14.5 9.716H8.349C8.04142 9.71574 7.74647 9.59364 7.52869 9.37643C7.31092 9.15922 7.18806 8.86458 7.187 8.557V2.865C7.18674 2.71219 7.21659 2.56082 7.27486 2.41956C7.33312 2.27829 7.41866 2.14989 7.52657 2.0417C7.63449 1.9335 7.76267 1.84764 7.90378 1.78901C8.0449 1.73038 8.19619 1.70013 8.349 1.7H15.086C15.1724 1.69075 15.2523 1.64989 15.3103 1.58528C15.3684 1.52067 15.4005 1.43687 15.4005 1.35C15.4005 1.26313 15.3684 1.17933 15.3103 1.11472C15.2523 1.05011 15.1724 1.00925 15.086 1L8.349 1C7.85453 1.00053 7.38047 1.19719 7.03083 1.54683C6.68119 1.89647 6.48453 2.37053 6.484 2.865V7.328H2.865C2.37053 7.32853 1.89647 7.52519 1.54683 7.87483C1.19719 8.22447 1.00053 8.69853 1 9.193V14.886C1.00069 15.3193 1.15199 15.7389 1.42801 16.0729C1.70403 16.407 2.08758 16.6347 2.513 16.717V18.649C2.51322 18.7161 2.53262 18.7817 2.56891 18.8382C2.60519 18.8946 2.65685 18.9395 2.7178 18.9676C2.77875 18.9956 2.84645 19.0057 2.91293 18.9965C2.9794 18.9874 3.04188 18.9595 3.093 18.916L5.63 16.75H11.651C12.1455 16.7495 12.6195 16.5528 12.9692 16.2032C13.3188 15.8535 13.5155 15.3795 13.516 14.885V10.422H14.371L16.908 12.588C16.9591 12.6315 17.0216 12.6594 17.0881 12.6685C17.1545 12.6777 17.2222 12.6676 17.2832 12.6396C17.3441 12.6115 17.3958 12.5666 17.4321 12.5102C17.4684 12.4537 17.4878 12.3881 17.488 12.321V10.389C17.9134 10.3064 18.2969 10.0785 18.5727 9.74428C18.8485 9.41006 18.9996 8.99034 19 8.557V2.865C18.9995 2.37053 18.8028 1.89647 18.4532 1.54683C18.1035 1.19719 17.6295 1.00053 17.135 1ZM7.264 10.826L7.964 12.672H6.564L7.264 10.826ZM12.813 14.885C12.8127 15.1929 12.6904 15.4882 12.4727 15.706C12.2551 15.9238 11.9599 16.0465 11.652 16.047H5.5C5.41642 16.047 5.33558 16.0767 5.272 16.131L3.216 17.886V16.4C3.216 16.3066 3.17891 16.2171 3.1129 16.1511C3.04689 16.0851 2.95736 16.048 2.864 16.048C2.71119 16.0481 2.55985 16.0181 2.41863 15.9598C2.27741 15.9014 2.14909 15.8157 2.04099 15.7077C1.93289 15.5997 1.84713 15.4715 1.78862 15.3303C1.73011 15.1891 1.7 15.0378 1.7 14.885V9.193C1.70013 9.04019 1.73038 8.8889 1.78901 8.74778C1.84764 8.60667 1.9335 8.47849 2.0417 8.37057C2.14989 8.26266 2.27829 8.17712 2.41956 8.11886C2.56082 8.06059 2.71219 8.03074 2.865 8.031H6.485V8.557C6.48484 9.00824 6.64908 9.44408 6.947 9.783C6.90809 9.82349 6.87721 9.871 6.856 9.923V9.931L5.356 13.882C5.33658 13.9257 5.32627 13.9729 5.32571 14.0208C5.32515 14.0686 5.33435 14.1161 5.35274 14.1602C5.37113 14.2044 5.39833 14.2443 5.43267 14.2776C5.46702 14.3109 5.50779 14.3369 5.5525 14.3539C5.59721 14.3709 5.64492 14.3786 5.69272 14.3766C5.74051 14.3745 5.78739 14.3628 5.83048 14.342C5.87358 14.3212 5.91199 14.2919 5.94337 14.2558C5.97475 14.2197 5.99844 14.1776 6.013 14.132L6.302 13.374H8.225L8.511 14.131C8.52564 14.1763 8.54934 14.2182 8.58065 14.2542C8.61196 14.2901 8.65024 14.3193 8.69317 14.34C8.7361 14.3606 8.78278 14.3724 8.83039 14.3745C8.87799 14.3766 8.92553 14.369 8.97012 14.3522C9.01471 14.3354 9.05542 14.3097 9.08979 14.2767C9.12416 14.2437 9.15147 14.2041 9.17007 14.1602C9.18866 14.1163 9.19816 14.0691 9.19797 14.0215C9.19779 13.9738 9.18793 13.9267 9.169 13.883L7.835 10.349C8.00208 10.3973 8.1751 10.4218 8.349 10.422H12.813V14.885Z" fill="#0F76D7" stroke="#0F76D7" stroke-width="0.2"/>
<path d="M9.57178 7.63221L9.07178 8.13221C9.29812 8.36513 9.56895 8.55021 9.86819 8.67647C10.1674 8.80273 10.489 8.86759 10.8138 8.86721C11.0428 8.88838 11.2738 8.8618 11.4921 8.78915C11.7103 8.7165 11.9111 8.59936 12.0818 8.44513C12.2525 8.2909 12.3893 8.10294 12.4836 7.89314C12.5779 7.68333 12.6277 7.45623 12.6298 7.22621C12.6287 7.14521 12.6223 7.06438 12.6108 6.98421C12.8378 7.08944 13.0856 7.14241 13.3358 7.13921C13.5596 7.13897 13.7808 7.09125 13.9848 6.9992V9.51921H14.7198V3.92621H15.8908V3.30721H12.9488V3.92621H13.9848V6.30621C13.7311 6.44813 13.4432 6.51734 13.1528 6.5062C12.8302 6.51006 12.5126 6.42643 12.2338 6.26421C12.0707 6.11706 11.875 6.0108 11.6628 5.95421V5.9192C11.8724 5.80202 12.0466 5.63068 12.1673 5.42309C12.288 5.21551 12.3506 4.97931 12.3488 4.73921C12.351 4.5393 12.3112 4.34116 12.2321 4.15756C12.153 3.97397 12.0363 3.809 11.8895 3.67331C11.7427 3.53762 11.569 3.43421 11.3798 3.36978C11.1905 3.30534 10.9899 3.2813 10.7908 3.29921C10.5296 3.28982 10.2697 3.34078 10.0314 3.44814C9.79314 3.55549 9.58281 3.71635 9.41678 3.91821L9.92978 4.38221C10.0228 4.24594 10.1488 4.13542 10.296 4.06094C10.4432 3.98645 10.6069 3.95042 10.7718 3.9562C10.8838 3.94699 10.9965 3.96211 11.1022 4.00052C11.2079 4.03894 11.304 4.09973 11.3839 4.17875C11.4639 4.25777 11.5258 4.35315 11.5655 4.45834C11.6052 4.56353 11.6217 4.67606 11.6138 4.78821C11.6182 4.91851 11.5946 5.04825 11.5447 5.16869C11.4947 5.28913 11.4196 5.39747 11.3243 5.48644C11.229 5.5754 11.1157 5.64292 10.9921 5.68445C10.8685 5.72598 10.7375 5.74056 10.6078 5.72721H10.3078V6.37521H10.8308C11.5178 6.37521 11.8948 6.6942 11.8948 7.2362C11.8985 7.37529 11.8722 7.51354 11.8177 7.64155C11.7632 7.76956 11.6817 7.88431 11.5788 7.97798C11.476 8.07165 11.3541 8.14204 11.2216 8.18436C11.089 8.22668 10.9489 8.23993 10.8108 8.22321C10.5735 8.22182 10.3395 8.16814 10.1253 8.06599C9.91116 7.96384 9.72216 7.81573 9.57178 7.63221Z" fill="#0F76D7" stroke="#0F76D7" stroke-width="0.2"/>
</svg>
