<svg width="180" height="180" viewBox="0 0 180 180" fill="none" xmlns="http://www.w3.org/2000/svg">
<circle cx="90" cy="90" r="90" fill="white"/>
<g clip-path="url(#clip0_136_3783)">
<path d="M51.5107 110.757C66.0791 110.757 77.8891 98.9468 77.8891 84.3784C77.8891 69.81 66.0791 58 51.5107 58C36.9423 58 25.1322 69.81 25.1322 84.3784C25.1322 98.9468 36.9423 110.757 51.5107 110.757Z" fill="#B50A3E"/>
<path d="M70.2661 83.1776C70.2661 96.3999 59.6807 107.119 47.816 107.119C35.9513 107.119 26.3336 96.3999 26.3336 83.1776C26.3336 69.9552 38.4102 59.2363 50.2749 59.2363C62.1396 59.2363 70.2661 69.9552 70.2661 83.1776Z" fill="url(#paint0_linear_136_3783)"/>
<path opacity="0.8" d="M57.8897 83.4907V85.909H71.676C71.3752 90.9401 69.2146 95.4614 65.8667 98.8112C62.2523 102.425 57.2701 104.655 51.7564 104.655C46.2417 104.655 41.2604 102.425 37.6451 98.8112C34.0326 95.1949 31.801 90.2141 31.801 84.7004C31.801 79.1857 34.0331 74.2044 37.6451 70.5891C41.2604 66.9756 46.2417 64.745 51.7564 64.745L52.8504 64.744V62.3262H51.7564C39.3993 62.3276 29.3831 72.3428 29.3822 84.7009C29.3831 97.0584 39.3993 107.074 51.7564 107.075C64.1135 107.074 74.1296 97.0584 74.1306 84.7009V83.4912L57.8897 83.4907ZM39.9865 76.3379C39.9865 77.2141 40.3345 78.0545 40.9541 78.6741C41.5737 79.2937 42.4141 79.6418 43.2904 79.6418C44.1666 79.6418 45.007 79.2937 45.6266 78.6741C46.2462 78.0545 46.5943 77.2141 46.5943 76.3379C46.5943 75.4616 46.2462 74.6213 45.6266 74.0017C45.007 73.3821 44.1666 73.034 43.2904 73.034C42.4141 73.034 41.5737 73.3821 40.9541 74.0017C40.3345 74.6213 39.9865 75.4616 39.9865 76.3379ZM50.4432 73.1176V96.4268H57.9506V94.0084H52.8615L52.8625 73.1176H50.4432Z" fill="#4D4D4D"/>
<path d="M57.4892 83.2212V85.6395H71.2755C70.9747 90.6701 68.8142 95.1914 65.4662 98.5412C61.8518 102.155 56.8696 104.385 51.3559 104.385C45.8412 104.385 40.8599 102.155 37.2446 98.5412C33.6326 94.9253 31.4005 89.9441 31.4005 84.4308C31.4005 78.9161 33.6326 73.9349 37.2446 70.3195C40.8599 66.7061 45.8412 64.4754 51.3559 64.4754L52.4499 64.4745V62.0566H51.3559C38.9988 62.0576 28.9827 72.0728 28.9817 84.4308C28.9827 96.7879 38.9988 106.803 51.3559 106.804C63.713 106.803 73.7291 96.7879 73.7301 84.4308V83.2212H57.4892ZM39.5865 76.0678C39.5865 76.5017 39.6719 76.9313 39.838 77.3322C40.004 77.733 40.2474 78.0973 40.5542 78.4041C40.8609 78.7108 41.2252 78.9542 41.626 79.1202C42.0269 79.2863 42.4565 79.3717 42.8904 79.3717C43.3242 79.3717 43.7539 79.2863 44.1547 79.1202C44.5556 78.9542 44.9198 78.7108 45.2266 78.4041C45.5334 78.0973 45.7767 77.733 45.9428 77.3322C46.1088 76.9313 46.1943 76.5017 46.1943 76.0678C46.1943 75.1916 45.8462 74.3512 45.2266 73.7316C44.607 73.112 43.7666 72.764 42.8904 72.764C42.0141 72.764 41.1738 73.112 40.5542 73.7316C39.9346 74.3512 39.5865 75.1916 39.5865 76.0678ZM50.0428 72.8481V96.1572H57.5502V93.7384H52.4611L52.462 72.8481H50.0428Z" fill="url(#paint1_linear_136_3783)"/>
<path d="M144.662 98.6553C140.606 100.909 136.154 101.762 131.569 101.762C119.54 101.762 114.731 94.9543 114.731 84.2964C114.731 73.6384 119.902 66.707 131.569 66.707C136.507 66.707 141.04 67.8548 144.724 72.2633L139.772 76.7928C137.9 74.256 135.052 73.0483 131.569 73.0483C124.674 73.0483 122.318 78.0987 122.318 84.2964C122.318 90.494 124.009 95.2131 131.569 95.2131C134.567 95.2131 136.259 94.877 137.538 94.1258V88.1826H131.196V82.0469H144.662L144.662 98.6553ZM89.5724 67.4586V101.315H113.594V94.5437H97.4726V67.4756L89.5724 67.4586ZM89.72 121.332V111.175H91.2885V119.949H95.5379V121.332H89.72ZM96.6789 112.871V111.33H98.2469V112.871H96.6789ZM96.7224 121.332V114.1H98.2034V121.332H96.7224ZM101.834 115.341V121.332H100.353V115.341H99.5107V114.228H100.353V113.115C100.353 112.074 100.992 111.103 102.372 111.103H104.103V112.344H102.648C102.096 112.344 101.834 112.658 101.834 113.186V114.227H104.163V115.34L101.834 115.341ZM106.436 118.137C106.436 119.377 107.104 120.162 108.31 120.162C109.138 120.162 109.573 119.934 110.096 119.421L111.04 120.291C110.284 121.033 109.573 121.418 108.28 121.418C106.436 121.418 104.968 120.462 104.968 117.709C104.968 115.369 106.203 114.014 108.091 114.014C110.067 114.014 111.214 115.44 111.214 117.494V118.137H106.436ZM109.543 116.14C109.311 115.598 108.788 115.227 108.091 115.227C107.394 115.227 106.857 115.598 106.624 116.14C106.479 116.468 106.45 116.682 106.435 117.124H109.747C109.732 116.682 109.689 116.468 109.543 116.14ZM116.548 121.418C115.342 121.418 114.325 121.218 113.454 120.377L114.427 119.421C115.023 120.02 115.822 120.177 116.548 120.177C117.448 120.177 118.16 119.863 118.16 119.178C118.16 118.693 117.885 118.38 117.173 118.322L115.996 118.222C114.616 118.108 113.817 117.494 113.817 116.225C113.817 114.813 115.052 114.014 116.591 114.014C117.695 114.014 118.639 114.242 119.322 114.827L118.392 115.755C117.928 115.369 117.274 115.227 116.577 115.227C115.691 115.227 115.24 115.612 115.24 116.154C115.24 116.582 115.473 116.91 116.258 116.981L117.419 117.081C118.799 117.195 119.612 117.837 119.612 119.121C119.612 120.633 118.305 121.418 116.548 121.418ZM131.069 113.064C129.6 112.311 128.023 112.473 128.023 112.473C127.33 112.526 126.861 112.715 126.499 113.101C125.99 113.643 125.874 114.214 125.874 116.254C125.874 118.294 125.99 118.879 126.499 119.421C126.861 119.806 127.414 120.035 128.023 120.035C128.023 120.035 129.346 120.132 130.231 119.798V117.152H128.023V115.84H131.8V117.395L131.776 121.032C129.829 121.544 128.086 121.422 128.023 121.418C126.99 121.367 126.019 121.033 125.307 120.335C124.291 119.336 124.305 118.209 124.305 116.254C124.305 114.3 124.291 113.173 125.307 112.174C126.019 111.475 126.919 111.09 128.023 111.09C128.023 111.09 130.186 110.902 131.941 111.989L131.069 113.064ZM139.01 120.562C138.531 121.047 137.805 121.418 136.803 121.418C135.801 121.418 135.089 121.047 134.61 120.562C133.913 119.848 133.739 118.936 133.739 117.709C133.739 116.496 133.913 115.583 134.61 114.87C135.089 114.385 135.801 114.014 136.803 114.014C137.805 114.014 138.531 114.385 139.01 114.87C139.707 115.583 139.882 116.496 139.882 117.709C139.882 118.936 139.708 119.848 139.01 120.562ZM137.892 115.726C137.617 115.454 137.238 115.312 136.803 115.312C136.368 115.312 136.004 115.455 135.728 115.726C135.278 116.168 135.22 116.924 135.22 117.709C135.22 118.494 135.278 119.25 135.728 119.692C136.004 119.964 136.367 120.12 136.803 120.12C137.239 120.12 137.617 119.964 137.892 119.692C138.343 119.25 138.401 118.494 138.401 117.709C138.4 116.924 138.343 116.168 137.892 115.726ZM146.573 120.562C146.094 121.047 145.368 121.418 144.366 121.418C143.363 121.418 142.651 121.047 142.173 120.562C141.476 119.848 141.301 118.936 141.301 117.709C141.301 116.496 141.475 115.583 142.173 114.87C142.651 114.385 143.363 114.014 144.366 114.014C145.368 114.014 146.094 114.385 146.573 114.87C147.27 115.583 147.445 116.496 147.445 117.709C147.445 118.936 147.27 119.848 146.573 120.562ZM145.454 115.726C145.179 115.454 144.801 115.312 144.365 115.312C143.929 115.312 143.567 115.455 143.29 115.726C142.84 116.168 142.782 116.924 142.782 117.709C142.782 118.494 142.84 119.25 143.29 119.692C143.566 119.964 143.929 120.12 144.365 120.12C144.801 120.12 145.179 119.964 145.454 119.692C145.905 119.25 145.963 118.494 145.963 117.709C145.963 116.924 145.905 116.168 145.454 115.726ZM153.416 121.332V120.562C152.864 121.218 152.269 121.418 151.47 121.418C150.729 121.418 150.076 121.176 149.668 120.776C148.928 120.049 148.841 118.808 148.841 117.709C148.841 116.61 148.928 115.383 149.668 114.656C150.076 114.256 150.714 114.014 151.455 114.014C152.239 114.014 152.849 114.199 153.386 114.827V111.175H154.868V121.332H153.416ZM151.862 115.312C150.525 115.312 150.322 116.425 150.322 117.709C150.322 118.993 150.525 120.12 151.862 120.12C153.198 120.12 153.386 118.993 153.386 117.709C153.387 116.425 153.198 115.312 151.862 115.312ZM113.254 112.352V111.063H111.873V112.352C111.873 112.352 111.922 113.355 111.493 114.071L112.293 114.816C113.283 114.135 113.254 112.352 113.254 112.352Z" fill="#6E6E70"/>
</g>
<defs>
<linearGradient id="paint0_linear_136_3783" x1="48.3001" y1="59.2363" x2="48.3001" y2="107.119" gradientUnits="userSpaceOnUse">
<stop offset="0.06" stop-color="#E3838D"/>
<stop offset="0.385" stop-color="#CE3D61"/>
<stop offset="0.632" stop-color="#B50A3E"/>
</linearGradient>
<linearGradient id="paint1_linear_136_3783" x1="51.3559" y1="62.0566" x2="51.3559" y2="106.804" gradientUnits="userSpaceOnUse">
<stop offset="0.082" stop-color="white"/>
<stop offset="0.35" stop-color="#FCFCFC"/>
<stop offset="0.527" stop-color="#F3F3F3"/>
<stop offset="0.679" stop-color="#E4E4E4"/>
<stop offset="0.815" stop-color="#CFCFCF"/>
<stop offset="0.941" stop-color="#B4B4B4"/>
<stop offset="0.945" stop-color="#B3B3B3"/>
</linearGradient>
<clipPath id="clip0_136_3783">
<rect width="130" height="63.544" fill="white" transform="translate(25 58)"/>
</clipPath>
</defs>
</svg>
