<svg width="36" height="36" viewBox="0 0 36 36" fill="none" xmlns="http://www.w3.org/2000/svg">
<path d="M17.9961 36C27.9372 36 35.9961 27.9411 35.9961 18C35.9961 8.05888 27.9372 0 17.9961 0C8.05497 0 -0.00390625 8.05888 -0.00390625 18C-0.00390625 27.9411 8.05497 36 17.9961 36Z" fill="#007AB9"/>
<path d="M28.7507 19.4486V26.8696H24.4482V19.946C24.4482 18.2075 23.827 17.0203 22.2692 17.0203C21.0804 17.0203 20.3742 17.8196 20.0623 18.5935C19.949 18.8701 19.9198 19.2542 19.9198 19.6421V26.8693H15.617C15.617 26.8693 15.6748 15.1429 15.617 13.9291H19.9202V15.7628C19.9115 15.7773 19.8993 15.7914 19.8916 15.8052H19.9202V15.7628C20.4919 14.883 21.5117 13.6252 23.7978 13.6252C26.6285 13.6252 28.7507 15.4747 28.7507 19.4486ZM11.1159 7.69141C9.64407 7.69141 8.68115 8.65754 8.68115 9.92689C8.68115 11.1693 9.61616 12.1633 11.0594 12.1633H11.0873C12.588 12.1633 13.5211 11.1693 13.5211 9.92689C13.4926 8.65754 12.588 7.69141 11.1159 7.69141ZM8.93688 26.8696H13.2381V13.9291H8.93688V26.8696Z" fill="#F1F2F2"/>
</svg>
