<svg width="49" height="53" viewBox="0 0 49 53" fill="none" xmlns="http://www.w3.org/2000/svg">
<path d="M17.3521 26.1504H30.6628V37.9367H17.3521V26.1504Z" fill="#F8B64C"/>
<path opacity="0.1" d="M30.6731 26.1504V30.1815L25.7621 34.2228L20.4111 29.9666L23.3577 26.1504H30.6731Z" fill="#40596B"/>
<path d="M14.7933 14.916C13.6506 15.0159 12.8436 16.4613 12.9907 18.1444C13.1379 19.8275 14.1835 21.1109 15.3262 21.011C16.4689 20.9111 17.276 19.4657 17.1288 17.7826C16.9816 16.0995 15.936 14.8161 14.7933 14.916Z" fill="#F8B64C"/>
<path d="M33.2237 14.9077C32.081 14.8078 31.0353 16.0912 30.8882 17.7743C30.741 19.4574 31.548 20.9028 32.6907 21.0027C33.8334 21.1026 34.8791 19.8192 35.0262 18.1361C35.1734 16.453 34.3664 15.0076 33.2237 14.9077Z" fill="#F8B64C"/>
<path d="M33.5071 13.484V16.6454C33.5071 17.3002 33.5071 17.955 33.3945 18.6098C33.282 19.7045 33.0671 20.789 32.7397 21.7712C31.9724 24.2778 30.6628 26.5696 28.811 28.534L27.9413 29.5162C27.0717 30.3858 25.9769 30.9383 24.6674 30.9383H23.2452C22.0482 30.9383 20.8409 30.396 19.9713 29.5162L19.1016 28.534C17.792 27.1119 16.8098 25.5874 16.0425 23.9504C15.2752 22.3134 14.7329 20.4616 14.5181 18.5995C14.4055 17.9448 14.4055 17.29 14.4055 16.6352V13.5863C14.4055 12.7166 14.7329 9.33014 14.9478 8.46049C16.0425 4.41919 19.5313 4.0918 23.9 4.0918C28.2687 4.0918 31.9724 7.03836 33.0671 10.9671C33.3946 11.7447 33.5071 12.6143 33.5071 13.484Z" fill="#FFD15C"/>
<path d="M14.1904 36.5137H33.7217V47.4303H14.1904V36.5137Z" fill="white"/>
<path d="M21.6082 47.5331H26.4169L25.6496 40.003L26.9591 38.4786L24.0125 35.6445L21.0659 38.5911L22.3755 40.003L21.6082 47.5331Z" fill="#FF7058"/>
<path d="M48.0251 47.5329V44.1464C48.0251 40.3302 45.6208 36.9437 42.0194 35.6341L30.5606 30.2832L29.0361 47.5227L48.0251 47.5329ZM18.8867 47.5329L17.3623 30.2934L5.90339 35.5318C2.41457 36.8414 0.0102539 40.2279 0.0102539 44.0441V47.4306H18.8867V47.5329Z" fill="#40596B"/>
<path d="M39.1854 47.532V45.455L33.7322 40.1042C33.6197 39.9916 33.7322 39.8893 33.7322 39.8893L36.7913 37.5975C36.9039 37.5975 30.5708 30.3948 30.5708 30.3948L29.0464 47.6343H39.1957V47.532H39.1854ZM8.83984 45.4653V47.5422H18.8766L17.3522 30.3027C17.3522 30.3027 11.0191 37.5055 11.1316 37.5055L14.1907 39.7972C14.3033 39.7972 14.3033 40.0121 14.1907 40.0121L8.83984 45.4653Z" fill="#334A5E"/>
<path d="M24.0125 35.6451L30.6731 30.1816L29.6909 41.0983L24.0125 35.6451ZM24.0125 35.6451L17.3521 30.1816L18.3342 41.4257L24.0125 35.6451Z" fill="#F2F2F2"/>
<path d="M14.6305 17.9656V14.4768C14.6305 14.4768 16.8098 10.2206 16.3801 7.27403C16.3801 7.27403 25.8746 12.0724 31.4403 8.36876C31.4403 8.36876 32.6374 13.3923 33.6196 15.4589L33.2922 18.0781C33.2922 18.0781 34.3869 17.9656 35.0417 12.185C35.0417 12.185 36.5661 7.16149 33.1898 4.98226C33.1898 4.98226 30.4581 -0.696024 22.3858 0.0713114C22.3858 0.0713114 17.1474 0.726104 15.183 4.65486C13.4335 6.5067 12.5639 8.91101 12.7787 11.4176C12.881 13.2695 13.4233 15.6738 14.6305 17.9656Z" fill="#334A5E"/>
<path d="M0 47.125H48.0148V52.2303H0V47.125Z" fill="#40596B"/>
<path d="M37.9782 40.1172H10.0471C8.73754 40.1172 7.64281 41.3142 7.86789 42.6238L9.39233 52.2309H38.6432L40.1676 42.6238C40.3825 41.3142 39.4002 40.1172 37.9782 40.1172Z" fill="#CDD6E0"/>
<path d="M24.8824 47.6467C24.6675 47.4319 24.4424 47.3193 24.115 47.3193C23.1328 47.3193 22.3655 48.189 22.3655 49.1712C22.3655 49.9385 22.8054 50.4808 23.5625 50.4808C23.8899 50.4808 24.3299 50.3682 24.5447 50.0408C24.6573 50.2557 24.8721 50.4808 25.1995 50.4808C25.8543 50.4808 26.5091 49.826 26.5091 48.7312C26.5091 47.4216 25.5269 46.4395 24.2173 46.4395C22.6929 46.4395 21.3833 47.749 21.3833 49.2735C21.3833 50.5831 22.3655 51.5653 23.6751 51.5653C24.2173 51.5653 24.7698 51.4527 25.1995 51.1253L25.3121 51.0128L25.0972 50.5728L24.9847 50.6854C24.5447 50.9002 24.2173 51.0128 23.7876 51.0128C22.6929 51.0128 21.9358 50.2454 21.9358 49.2632C21.9358 48.0662 23.0305 46.9715 24.2276 46.9715C24.7698 46.9715 25.2097 47.1863 25.5371 47.5137H24.8824V47.6467ZM24.5549 49.2837C24.4423 49.4986 24.1149 49.826 23.6852 49.826C23.2555 49.826 23.143 49.4986 23.143 49.1712C23.143 48.6289 23.5829 47.9741 24.2377 47.9741C24.5651 47.9741 24.7799 48.189 24.7799 48.3015L24.5549 49.2837ZM25.6497 47.5342C25.8645 47.8616 25.9771 48.189 25.9771 48.6289C25.9771 49.4986 25.5371 49.7236 25.3223 49.7236C25.2098 49.7236 25.1074 49.6111 25.1074 49.5088V49.3963L25.6497 47.5342Z" fill="#F2F2F2"/>
</svg>
