<svg width="48" height="50" viewBox="0 0 48 50" fill="none" xmlns="http://www.w3.org/2000/svg">
<path d="M23.9258 50C37.1396 50 47.8516 39.2881 47.8516 26.0742C47.8516 12.8604 37.1396 2.14844 23.9258 2.14844C10.7119 2.14844 0 12.8604 0 26.0742C0 39.2881 10.7119 50 23.9258 50Z" fill="#FFDD40"/>
<path d="M23.9258 44.1406C34.7126 44.1406 43.457 35.3962 43.457 24.6094C43.457 13.8226 34.7126 5.07812 23.9258 5.07812C13.139 5.07812 4.39453 13.8226 4.39453 24.6094C4.39453 35.3962 13.139 44.1406 23.9258 44.1406Z" fill="#FFC839"/>
<path d="M37.5964 45.7109C38.6353 44.9866 39.6153 44.1814 40.5273 43.3027V3.90625C40.5273 1.74902 38.7783 0 36.6211 0H11.2305C9.07324 0 7.32422 1.74902 7.32422 3.90625V43.3027C8.23625 44.1814 9.21629 44.9867 10.2552 45.7109H37.5964Z" fill="#6C5475"/>
<path d="M17.0898 45.7109V2.92969C16.2813 2.92969 15.625 2.27344 15.625 1.46484C15.625 0.65625 16.2813 0 17.0898 0H11.2305C9.07324 0 7.32422 1.74902 7.32422 3.90625V43.3027C8.23691 44.1815 9.21767 44.9868 10.2573 45.7109H17.0898Z" fill="#543E5B"/>
<path d="M37.5977 3.90625V45.7109C33.7227 48.415 29.0098 50 23.9258 50C18.8418 50 14.1289 48.415 10.2539 45.7109V3.90625C10.2539 3.36816 10.6924 2.92969 11.2305 2.92969H36.6211C37.1592 2.92969 37.5977 3.36816 37.5977 3.90625Z" fill="#CCF4FF"/>
<path d="M17.0898 2.92969C16.7344 2.92969 16.4229 3.12109 16.252 3.40527C16.1641 3.55176 16.1133 3.72266 16.1133 3.90625V48.6953C14.0316 47.9761 12.0597 46.9718 10.2539 45.7109V3.90625C10.2539 3.36816 10.6924 2.92969 11.2305 2.92969H17.0898Z" fill="#86D8FC"/>
<path d="M28.5533 38.9355H19.2982C19.1173 38.9655 14.0354 39.8158 10.3314 41.0391C10.3054 41.0477 10.2799 41.0564 10.2539 41.0651V45.7105C14.1289 48.4146 18.8418 49.9995 23.9258 49.9995C29.0098 49.9995 33.7227 48.4146 37.5977 45.7104V41.065L37.5201 41.039C33.8162 39.8159 28.7343 38.9655 28.5533 38.9355Z" fill="#EDF1F4"/>
<path d="M16.1133 39.5449C14.3609 39.9139 12.1755 40.4304 10.3314 41.0393C10.3054 41.0479 10.2799 41.0566 10.2539 41.0653V45.7107C12.0598 46.9713 14.0317 47.9755 16.1133 48.6946V39.5449Z" fill="#DCE2E6"/>
<path d="M23.9257 42.8509C28.0528 42.8509 30.4937 40.0041 30.9744 39.3874C29.6003 39.1106 28.6304 38.9483 28.5532 38.9355H19.2981C19.2209 38.9483 18.251 39.1106 16.877 39.3874C17.3576 40.0041 19.7985 42.8509 23.9257 42.8509Z" fill="white"/>
<path d="M19.2983 29.8203V38.9352C19.2983 38.9352 21.1559 40.8974 23.9048 40.8974C23.9119 40.8974 23.9188 40.8969 23.9259 40.8969C26.6633 40.8868 28.5534 38.9352 28.5534 38.9352V29.8203H19.2983Z" fill="#F9A373"/>
<path d="M19.2983 29.7715V38.9356C28.5486 38.9356 28.5534 33.7208 28.5534 33.7208V29.7716H19.2983V29.7715Z" fill="#EF8E5E"/>
<path d="M17.4579 44.1395L16.8839 43.0354C16.5823 42.4553 16.5763 41.7699 16.8522 41.1772C17.3142 40.1848 17.5739 39.0792 17.5781 37.9134C17.5936 33.6082 14.0785 30.0764 9.77325 30.0723C5.45254 30.0682 1.94912 33.5716 1.95313 37.8922C1.95713 42.1975 5.48897 45.7126 9.79414 45.6972C10.96 45.693 12.0655 45.4332 13.058 44.9712C13.6508 44.6952 14.3361 44.7013 14.9162 45.0029L16.0203 45.577C16.2214 45.6814 16.4505 45.7191 16.6744 45.6845C16.8983 45.65 17.1054 45.545 17.2657 45.3848C17.4259 45.2246 17.5309 45.0175 17.5655 44.7936C17.6 44.5696 17.5624 44.3405 17.4579 44.1395Z" fill="#FF4155"/>
<path d="M31.8312 45.5771L32.9353 45.003C33.5154 44.7015 34.2007 44.6954 34.7935 44.9713C35.7859 45.4333 36.8915 45.6931 38.0573 45.6973C42.3625 45.7127 45.8943 42.1977 45.8984 37.8924C45.9025 33.5717 42.3992 30.0683 38.0785 30.0723C33.7732 30.0763 30.2581 33.6081 30.2735 37.9133C30.2777 39.0791 30.5375 40.1847 30.9995 41.1772C31.2754 41.7699 31.2694 42.4553 30.9677 43.0354L30.3937 44.1395C30.2892 44.3405 30.2516 44.5696 30.2861 44.7936C30.3207 45.0175 30.4257 45.2246 30.5859 45.3848C30.7461 45.545 30.9532 45.65 31.1771 45.6846C31.401 45.7192 31.6301 45.6815 31.8312 45.5771Z" fill="#9483E3"/>
<path d="M13.1983 34.483C11.3013 33.6399 9.76566 35.3562 9.76566 35.3562C9.76566 35.3562 8.23002 33.6398 6.33305 34.483C4.43607 35.3261 4.43607 38.1264 6.12231 39.9932C7.16117 41.1434 8.30297 41.8936 9.0265 42.3C9.2522 42.4269 9.50675 42.4935 9.76566 42.4935C10.0246 42.4935 10.2791 42.4269 10.5048 42.3C11.2284 41.8936 12.3702 41.1435 13.409 39.9932C15.0953 38.1264 15.0953 35.3262 13.1983 34.483Z" fill="white"/>
<path d="M9.76566 35.3581C9.76566 35.3581 8.23002 33.6418 6.33305 34.485C4.43607 35.3281 4.43607 38.1283 6.12231 39.9952C7.16117 41.1454 8.30297 41.8956 9.0265 42.3021C9.25222 42.4289 9.50676 42.4955 9.76566 42.4955C10.0246 42.4955 10.2791 42.4289 10.5048 42.3021C8.69867 40.978 8.62084 36.3119 9.76566 35.3581Z" fill="#EDF1F4"/>
<path d="M35.7186 37.8848L34.6701 36.8364C34.0163 36.1825 34.0163 35.1226 34.6701 34.4689C35.3239 33.8151 36.3839 33.8151 37.0376 34.4689L38.0861 35.5173L39.1345 34.4689C39.7882 33.8151 40.8483 33.8151 41.502 34.4689C42.1558 35.1227 42.1558 36.1826 41.502 36.8364L40.4535 37.8848L41.502 38.9332C42.1558 39.587 42.1558 40.647 41.502 41.3007C41.3467 41.4564 41.1622 41.5799 40.959 41.664C40.7559 41.7482 40.5381 41.7914 40.3182 41.791C40.0983 41.7913 39.8805 41.7482 39.6774 41.664C39.4742 41.5799 39.2897 41.4564 39.1344 41.3007L38.0861 40.2524L37.0376 41.3008C36.8824 41.4565 36.6978 41.58 36.4947 41.6641C36.2915 41.7483 36.0737 41.7914 35.8538 41.7911C35.6339 41.7914 35.4162 41.7483 35.213 41.6641C35.0099 41.58 34.8253 41.4565 34.67 41.3008C34.0162 40.647 34.0162 39.587 34.67 38.9333L35.7186 37.8848Z" fill="white"/>
<path d="M34.67 34.4689C34.0162 35.1227 34.0162 36.1826 34.67 36.8364L35.7185 37.8848L34.67 38.9331C34.0162 39.5869 34.0162 40.6469 34.67 41.3006C34.8253 41.4563 35.0098 41.5798 35.213 41.6639C35.4161 41.7481 35.6339 41.7913 35.8538 41.7909C36.0737 41.7912 36.2915 41.7481 36.4947 41.6639C36.6978 41.5798 36.8823 41.4563 37.0376 41.3006L38.086 40.2524C36.7784 38.9448 36.7784 36.8249 38.086 35.5173L37.0375 34.4689C36.3838 33.8151 35.3238 33.8151 34.67 34.4689Z" fill="#EDF1F4"/>
<path d="M28.2843 10.2927V10.6709C28.2843 10.6709 27.7133 9.67334 26.1821 8.91836C25.9024 8.78047 25.5806 9.00479 25.6182 9.31436L25.7394 10.3127C25.7394 10.3127 25.2811 9.04541 24.1394 8.27959C24.0761 8.23737 24.0016 8.21484 23.9255 8.21484C23.8494 8.21484 23.7749 8.23737 23.7116 8.27959C22.57 9.04541 22.1116 10.3127 22.1116 10.3127L22.2328 9.31436C22.2704 9.00479 21.9487 8.78037 21.6689 8.91836C20.1378 9.67334 19.5668 10.6709 19.5668 10.6709V10.2927C19.5668 10.0108 19.2768 9.81992 19.0194 9.93477C17.4754 10.6235 13.2852 13.3767 14.6711 22.6393H33.1796C34.5654 13.3767 30.3753 10.6235 28.8312 9.93477C28.5742 9.81992 28.2843 10.0108 28.2843 10.2927Z" fill="#C9784B"/>
<path d="M20.9429 15.9901C19.4415 14.9934 18.5797 12.0999 19.5673 10.6724V10.2942C19.5673 10.0124 19.2773 9.82144 19.0199 9.93628C17.4759 10.6251 13.2857 13.3782 14.6716 22.6408H20.9429V15.9901Z" fill="#B7643B"/>
<path d="M31.2557 23.7987C31.2557 23.7987 32.2699 21.3295 34.0777 21.9027C35.8855 22.476 34.0339 27.827 30.5061 28.1641L31.2557 23.7987Z" fill="#F9A373"/>
<path d="M16.596 23.7987C16.596 23.7987 15.5818 21.3295 13.774 21.9027C11.9662 22.476 13.8177 27.827 17.3456 28.1641L16.596 23.7987Z" fill="#EF8E5E"/>
<path d="M30.8643 20.3987C30.5216 19.3941 29.964 18.0065 29.2798 17.2037C28.8913 16.8274 28.4844 16.5156 28.0689 16.3147C27.2687 15.9277 26.5301 15.9174 25.9049 16.0709C24.6049 16.3901 23.2469 16.3901 21.9469 16.0709C21.3217 15.9174 20.583 15.9277 19.7828 16.3147C19.3674 16.5156 18.9604 16.8274 18.572 17.2037C17.8878 18.0065 17.3302 19.3941 16.9875 20.3987C16.854 20.7899 16.6425 21.1499 16.3658 21.457C16.0891 21.7641 15.7529 22.0119 15.3777 22.1853C15.3747 22.3054 15.3716 22.4256 15.3716 22.5471C15.3716 28.8465 19.2016 36.2342 23.926 36.2342C28.6504 36.2342 32.4804 28.8464 32.4804 22.5471C32.4804 22.4256 32.4772 22.3054 32.4742 22.1853C32.099 22.0119 31.7628 21.7642 31.4861 21.4571C31.2093 21.15 30.9978 20.7899 30.8643 20.3987Z" fill="#FBB989"/>
<path d="M19.2777 22.548C19.2777 20.0163 19.8968 17.771 20.9435 15.9902C20.5768 16.0207 20.1877 16.1198 19.7828 16.3157C19.3674 16.5166 18.9604 16.8284 18.572 17.2047C17.8878 18.0075 17.3302 19.3951 16.9875 20.3997C16.854 20.7909 16.6425 21.1509 16.3658 21.458C16.0891 21.7651 15.7529 22.0129 15.3777 22.1863C15.3747 22.3064 15.3716 22.4266 15.3716 22.5481C15.3716 28.8475 19.2016 36.2352 23.926 36.2352C24.5979 36.2352 25.2518 36.0853 25.8791 35.8107C22.0957 34.1551 19.2777 27.9514 19.2777 22.548Z" fill="#F9A373"/>
<path d="M29.2968 24.0444C29.2992 23.8684 29.2634 23.694 29.1919 23.5332C29.1203 23.3724 29.0148 23.229 28.8825 23.1129C28.426 22.7098 27.7263 22.7098 27.2697 23.1129C27.1375 23.229 27.032 23.3724 26.9604 23.5332C26.8889 23.694 26.8531 23.8684 26.8555 24.0444C26.8609 24.4876 27.4052 24.7003 27.7186 24.3869C27.7655 24.34 27.8213 24.3027 27.8826 24.2773C27.9439 24.2519 28.0097 24.2388 28.0761 24.2388C28.1425 24.2388 28.2082 24.2519 28.2696 24.2773C28.3309 24.3027 28.3867 24.34 28.4336 24.3869C28.7471 24.7003 29.2914 24.4876 29.2968 24.0444ZM18.5548 24.0444C18.5524 23.8684 18.5882 23.694 18.6597 23.5332C18.7313 23.3724 18.8368 23.229 18.9691 23.1129C19.4256 22.7098 20.1253 22.7098 20.5818 23.1129C20.7141 23.229 20.8196 23.3724 20.8911 23.5332C20.9627 23.694 20.9985 23.8684 20.9961 24.0444C20.9907 24.4876 20.4464 24.7003 20.133 24.3869C20.0861 24.34 20.0303 24.3027 19.969 24.2773C19.9076 24.2519 19.8419 24.2388 19.7755 24.2388C19.7091 24.2388 19.6434 24.2519 19.582 24.2773C19.5207 24.3027 19.4649 24.34 19.418 24.3869C19.1045 24.7003 18.5602 24.4876 18.5548 24.0444Z" fill="#442F4C"/>
<path d="M18.0664 21.1962V21.1957C18.0664 20.8984 18.2569 20.6356 18.538 20.5384C19.3693 20.2509 20.1759 20.2494 21.0123 20.5387C21.2936 20.636 21.4844 20.8986 21.4844 21.1962C21.4844 21.6731 21.0173 21.9981 20.5638 21.8506C20.0514 21.684 19.4993 21.684 18.9869 21.8506C18.5336 21.9981 18.0664 21.673 18.0664 21.1962ZM29.7852 21.1962V21.1957C29.7852 20.8984 29.5946 20.6356 29.3136 20.5384C28.4822 20.2509 27.6757 20.2494 26.8393 20.5387C26.558 20.636 26.3672 20.8986 26.3672 21.1962C26.3672 21.6731 26.8343 21.9981 27.2878 21.8506C27.8002 21.684 28.3522 21.684 28.8646 21.8506C29.3181 21.9981 29.7852 21.673 29.7852 21.1962Z" fill="#B7643B"/>
<path d="M22.5599 27.0089L23.3837 25.6963C23.6346 25.2966 24.217 25.2966 24.4679 25.6963L25.2917 27.0089C25.5592 27.4351 25.2528 27.9891 24.7496 27.9891H23.1021C22.5987 27.9891 22.2924 27.4351 22.5599 27.0089Z" fill="#EF8E5E"/>
<path d="M21.9125 31.7388H25.9391C26.3456 31.3812 26.6493 30.9217 26.819 30.4076C26.9737 29.9378 26.617 29.4551 26.1223 29.4551H21.7293C21.2346 29.4551 20.8779 29.9378 21.0326 30.4076C21.2023 30.9217 21.506 31.3812 21.9125 31.7388Z" fill="#442F4C"/>
<path d="M25.9392 31.7381C25.4027 32.2116 24.6976 32.4996 23.9259 32.4996C23.1542 32.4996 22.4489 32.2117 21.9126 31.7381C22.4497 31.2646 23.1542 30.9766 23.9259 30.9766C24.6976 30.9767 25.4021 31.2646 25.9392 31.7381Z" fill="#FF4155"/>
<path d="M19.5312 6.83594C20.0706 6.83594 20.5078 6.39872 20.5078 5.85938C20.5078 5.32003 20.0706 4.88281 19.5312 4.88281C18.9919 4.88281 18.5547 5.32003 18.5547 5.85938C18.5547 6.39872 18.9919 6.83594 19.5312 6.83594Z" fill="#86D8FC"/>
<path d="M28.3203 6.83594C28.8597 6.83594 29.2969 6.39872 29.2969 5.85938C29.2969 5.32003 28.8597 4.88281 28.3203 4.88281C27.781 4.88281 27.3438 5.32003 27.3438 5.85938C27.3438 6.39872 27.781 6.83594 28.3203 6.83594Z" fill="#86D8FC"/>
<path d="M25.3906 6.83594H22.4609C21.9216 6.83594 21.4844 6.39873 21.4844 5.85938C21.4844 5.32002 21.9216 4.88281 22.4609 4.88281H25.3906C25.93 4.88281 26.3672 5.32002 26.3672 5.85938C26.3672 6.39873 25.93 6.83594 25.3906 6.83594Z" fill="#86D8FC"/>
</svg>
