<svg width="51" height="50" viewBox="0 0 51 50" fill="none" xmlns="http://www.w3.org/2000/svg">
<path d="M40.5176 0H13.7935C12.8413 0 12.0693 0.771923 12.0693 1.72414V16.3793C12.0693 17.3315 12.8413 18.1035 13.7935 18.1035H40.5176C41.4698 18.1035 42.2418 17.3315 42.2418 16.3793V1.72414C42.2418 0.771923 41.4698 0 40.5176 0Z" fill="#00B378"/>
<path d="M24.1382 27.5859V46.5515H28.4485C30.9635 46.5515 33.3755 45.5524 35.1539 43.774C36.9322 41.9957 37.9313 39.5837 37.9313 37.0687C37.9313 34.5537 36.9322 32.1417 35.1539 30.3634C33.3755 28.585 30.9635 27.5859 28.4485 27.5859H24.1382Z" fill="#EF7154"/>
<path d="M24.138 46.5515C29.3752 46.5515 33.6208 42.3059 33.6208 37.0687C33.6208 31.8315 29.3752 27.5859 24.138 27.5859C18.9009 27.5859 14.6553 31.8315 14.6553 37.0687C14.6553 42.3059 18.9009 46.5515 24.138 46.5515Z" fill="#FF8662"/>
<path d="M24.1382 18.1032H40.5175C40.9748 18.1032 41.4133 17.9216 41.7367 17.5982C42.06 17.2749 42.2416 16.8363 42.2416 16.3791V1.7239C42.2412 1.58923 42.2249 1.45509 42.1932 1.32422C41.8585 5.88397 39.811 10.1482 36.4619 13.2606C33.1129 16.373 28.7102 18.103 24.1382 18.1032Z" fill="#009866"/>
<path d="M11.8038 17.2112H27.1551C26.5835 17.2112 26.0353 16.9842 25.6311 16.58C25.227 16.1758 24.9999 15.6276 24.9999 15.0561C24.9999 14.4845 25.227 13.9363 25.6311 13.5321C26.0353 13.1279 26.5835 12.9009 27.1551 12.9009H33.0543C33.5072 12.9009 33.9556 12.99 34.374 13.1633C34.7923 13.3366 35.1725 13.5906 35.4927 13.9108L36.9209 15.3391C37.2411 15.6594 37.6213 15.9134 38.0397 16.0867C38.458 16.26 38.9064 16.3492 39.3593 16.3492L49.9999 16.3793V23.2759L38.793 23.2457L37.4706 23.5102C32.6679 24.4707 27.7097 24.3274 22.9705 23.0911L11.4355 20.0819C11.1231 20.0004 10.8466 19.8177 10.6492 19.5622C10.4518 19.3068 10.3448 18.9931 10.3447 18.6703C10.3447 18.2833 10.4984 17.9122 10.7721 17.6386C11.0457 17.3649 11.4168 17.2112 11.8038 17.2112Z" fill="#FAC56E"/>
<path d="M31.8967 16.3794H28.0173C27.5412 16.3794 27.1553 16.7654 27.1553 17.2415C27.1553 17.7176 27.5412 18.1035 28.0173 18.1035H31.8967C32.3728 18.1035 32.7587 17.7176 32.7587 17.2415C32.7587 16.7654 32.3728 16.3794 31.8967 16.3794Z" fill="#DACFBD"/>
<path d="M18.1035 0H23.2759V8.6207H18.1035V0Z" fill="#70D6B1"/>
<path d="M0.861899 24.9999C0.850218 29.4425 2.07508 33.8007 4.3994 37.5868L1.89293 37.0855L1.5549 38.7763L6.71061 39.8075L7.74175 34.6517L6.05102 34.3136L5.64973 36.3201C3.6337 32.8889 2.57566 28.9795 2.58604 24.9999C2.58913 21.8728 3.24503 18.7809 4.51177 15.9219C5.77851 13.0629 7.62818 10.4999 9.9424 8.39684L8.78378 7.12012C6.29161 9.38487 4.29972 12.145 2.9356 15.2238C1.57148 18.3027 0.865179 21.6324 0.861899 24.9999Z" fill="#19C786"/>
<path d="M50.8004 30.7142L48.6585 25.3594L44.3103 28.6205L45.3447 29.9998L47.1132 28.6733C46.3414 33.3225 44.1225 37.6098 40.7725 40.9247L41.9858 42.1496C45.352 38.8179 47.663 34.5692 48.6309 29.933L49.1994 31.3543L50.8004 30.7142Z" fill="#F5744E"/>
<path d="M37.7742 38.793H31.8965V40.5172H37.2842C37.502 39.9593 37.6661 39.382 37.7742 38.793ZM37.2842 33.6206H31.8965V35.3447H37.7742C37.6661 34.7558 37.502 34.1784 37.2842 33.6206Z" fill="#FF8662"/>
<path d="M20.2393 45.7153C21.9949 46.5055 23.9495 46.7429 25.8432 46.3959C27.737 46.0488 29.4804 45.1338 30.8418 43.7724C32.2032 42.411 33.1181 40.6677 33.4651 38.7739C33.8121 36.8801 33.5748 34.9256 32.7845 33.1699C31.8713 36.1236 30.2515 38.81 28.0654 40.9961C25.8793 43.1822 23.1929 44.8021 20.2393 45.7153Z" fill="#D97253"/>
<path d="M38.1961 43.073H22.8448C23.4164 43.073 23.9646 42.846 24.3688 42.4418C24.773 42.0376 25 41.4895 25 40.9179C25 40.3463 24.773 39.7981 24.3688 39.3939C23.9646 38.9898 23.4164 38.7627 22.8448 38.7627H16.9456C16.4928 38.7627 16.0443 38.8519 15.626 39.0251C15.2076 39.1984 14.8274 39.4524 14.5072 39.7726L13.079 41.2009C12.7588 41.5212 12.3787 41.7752 11.9603 41.9485C11.5419 42.1218 11.0935 42.211 10.6406 42.211L0 42.2411V49.1377L11.2069 49.1075L12.5293 49.372C17.332 50.3325 22.2902 50.1892 27.0294 48.9529L38.5645 45.9437C38.8768 45.8622 39.1533 45.6795 39.3507 45.424C39.5481 45.1686 39.6552 44.8549 39.6552 44.5321C39.6552 44.1451 39.5015 43.774 39.2279 43.5004C38.9542 43.2268 38.5831 43.073 38.1961 43.073Z" fill="#FAC56E"/>
<path d="M21.9826 42.2412H18.1033C17.6272 42.2412 17.2412 42.6272 17.2412 43.1033C17.2412 43.5794 17.6272 43.9653 18.1033 43.9653H21.9826C22.4587 43.9653 22.8447 43.5794 22.8447 43.1033C22.8447 42.6272 22.4587 42.2412 21.9826 42.2412Z" fill="#DACFBD"/>
</svg>
