<svg width="52" height="50" viewBox="0 0 52 50" fill="none" xmlns="http://www.w3.org/2000/svg">
<path d="M6.34326 22.7031L8.40447 44.9456C8.43028 45.1907 8.51372 45.4262 8.64798 45.633C8.78223 45.8397 8.9635 46.0117 9.17695 46.1349L11.2704 47.3435C11.5168 47.4858 11.7964 47.5607 12.081 47.5607C12.3656 47.5607 12.6452 47.4858 12.8917 47.3435L16.1616 45.4556C16.3991 45.3185 16.5963 45.1213 16.7334 44.8839C16.8705 44.6464 16.9427 44.377 16.9427 44.1028V26.1063L6.34326 22.7031Z" fill="url(#paint0_linear_955_119)"/>
<path d="M6.83155 27.9727L11.6429 31.2351L16.9426 35.9598V26.1063L6.34326 22.7031L6.83155 27.9727Z" fill="url(#paint1_linear_955_119)"/>
<path d="M23.286 6.39229L13.7981 0.757113C13.744 0.722837 13.6893 0.689644 13.634 0.657552C11.9201 -0.332084 9.80549 -0.201023 7.67987 1.02622C5.58899 2.23341 3.64456 4.41343 2.20452 7.16478C0.782916 9.88108 0 12.8685 0 15.5767C0 18.7891 1.13224 21.2853 3.10634 22.4251C3.1189 22.4323 3.13177 22.4382 3.14432 22.4453L3.14422 22.4455L12.5093 28.0044L23.286 6.39229Z" fill="url(#paint2_linear_955_119)"/>
<path d="M20.6112 5.73828C19.5586 5.77535 18.4468 6.11688 17.3319 6.76053C15.2411 7.96762 13.2967 10.1477 11.8566 12.8991C10.435 15.6154 9.6521 18.6027 9.6521 21.3109C9.6521 23.1356 10.0178 24.7288 10.6952 25.974L10.6949 25.9746L24.4049 44.9816L42.4923 7.47549L20.6112 5.73828Z" fill="url(#paint3_linear_955_119)"/>
<path d="M44.6569 8.35848C41.6606 6.62846 37.964 6.85756 34.2481 9.00294C30.5931 11.1132 27.1938 14.9242 24.6764 19.7341C22.1911 24.4826 20.8225 29.7051 20.8225 34.4394C20.8225 40.0553 22.8019 44.4189 26.2529 46.4115C27.5823 47.1791 29.0494 47.5609 30.5952 47.5609C32.5331 47.5609 34.5945 46.9604 36.6617 45.767C40.3167 43.6568 43.7161 39.8457 46.2333 35.0359C48.7186 30.2873 50.0873 25.0649 50.0873 20.3304C50.0873 14.7146 48.108 10.3509 44.6569 8.35848Z" fill="url(#paint4_linear_955_119)"/>
<path d="M32.4353 33.6269L23.0857 28.2289L30.3046 16.4238L38.4742 21.1406L32.4353 33.6269Z" fill="url(#paint5_linear_955_119)"/>
<path d="M38.4743 21.1409C37.4912 20.5732 36.2782 20.6483 35.0589 21.3524C33.8596 22.0448 32.7441 23.2953 31.9182 24.8736C31.1027 26.4317 30.6536 28.1453 30.6536 29.6989C30.6536 31.5416 31.3031 32.9735 32.4354 33.6272C32.8717 33.8791 33.3531 34.0044 33.8603 34.0044C34.4961 34.0044 35.1726 33.8073 35.8509 33.4158C37.0502 32.7233 38.1656 31.4728 38.9917 29.8946C39.8072 28.3364 40.2563 26.6228 40.2563 25.0692C40.2562 23.2265 39.6068 21.7947 38.4743 21.1409Z" fill="#E9E5F6"/>
<path d="M30.0074 49.9996C28.2746 49.9996 26.6302 49.5715 25.1399 48.7111C21.2714 46.4777 19.0527 41.5863 19.0527 35.2913C19.0527 29.9843 20.587 24.1303 23.3727 18.8075C26.1946 13.416 30.005 9.14396 34.1019 6.7785C38.2674 4.37364 42.411 4.11688 45.7696 6.05605C49.6381 8.28954 51.8568 13.1809 51.8568 19.4759C51.8568 24.7829 50.3226 30.6369 47.5368 35.9598C44.715 41.3513 40.9046 45.6233 36.8076 47.9888C34.4904 49.3264 32.1796 49.9996 30.0074 49.9996ZM40.8837 10.179C39.4169 10.179 37.9443 10.8083 36.8076 11.4647C30.1166 15.3277 24.4639 26.2389 24.4639 35.2913C24.4639 39.5375 25.728 42.8025 27.8455 44.025C29.914 45.2192 32.3895 44.2914 34.102 43.3025C40.793 39.4395 46.4458 28.5283 46.4458 19.4759C46.4458 15.2296 45.1817 11.9647 43.0642 10.7422C42.3686 10.3406 41.6267 10.179 40.8837 10.179Z" fill="url(#paint6_linear_955_119)"/>
<path d="M49.3975 20.0693C48.9593 15.6703 46.7803 11.0185 42.6 10.5137C42.7593 10.58 42.9143 10.6563 43.064 10.7421C45.1815 11.9646 46.4457 15.2295 46.4457 19.4758C46.4457 28.5282 40.793 39.4394 34.1019 43.3024C32.3894 44.2912 29.9139 45.2191 27.8454 44.0248C27.7995 43.9984 27.7545 43.9697 27.7095 43.9412C29.7604 45.4416 35.6394 46.2739 41.2592 41.0277C48.2352 34.5152 49.8366 24.478 49.3975 20.0693Z" fill="url(#paint7_linear_955_119)"/>
<path d="M6.76049 15.0233L2.91863 12.8052C2.43095 12.5236 2.03564 12.8225 2.03564 13.4727C2.03564 14.123 2.43095 14.8783 2.91863 15.1599L6.76049 17.378C7.24816 17.6596 7.64347 17.3607 7.64347 16.7105C7.64357 16.0602 7.24816 15.3048 6.76049 15.0233ZM6.76049 18.5621L2.91863 16.344C2.43095 16.0624 2.03564 16.3613 2.03564 17.0116C2.03564 17.6618 2.43095 18.4172 2.91863 18.6987L6.76049 20.9168C7.24816 21.1984 7.64347 20.8995 7.64347 20.2493C7.64357 19.5989 7.24816 18.8436 6.76049 18.5621Z" fill="#2B0B0E"/>
<defs>
<linearGradient id="paint0_linear_955_119" x1="10.7498" y1="35.1319" x2="13.3818" y2="35.1319" gradientUnits="userSpaceOnUse">
<stop stop-color="#C5BAEB"/>
<stop offset="1" stop-color="#F2EFFA"/>
</linearGradient>
<linearGradient id="paint1_linear_955_119" x1="12.7856" y1="21.6595" x2="10.6492" y2="36.0037" gradientUnits="userSpaceOnUse">
<stop stop-color="#7662BD"/>
<stop offset="1" stop-color="#7662BD" stop-opacity="0"/>
</linearGradient>
<linearGradient id="paint2_linear_955_119" x1="0" y1="0" x2="23.286" y2="0" gradientUnits="userSpaceOnUse">
<stop stop-color="#802129"/>
<stop offset="1" stop-color="#FF4757"/>
</linearGradient>
<linearGradient id="paint3_linear_955_119" x1="9.6521" y1="5.73828" x2="42.4923" y2="5.73828" gradientUnits="userSpaceOnUse">
<stop stop-color="#C5BAEB"/>
<stop offset="1" stop-color="#DFDAEF"/>
</linearGradient>
<linearGradient id="paint4_linear_955_119" x1="20.8225" y1="7.20898" x2="50.0873" y2="7.20898" gradientUnits="userSpaceOnUse">
<stop stop-color="#C5BAEB"/>
<stop offset="1" stop-color="#DFDAEF"/>
</linearGradient>
<linearGradient id="paint5_linear_955_119" x1="23.0857" y1="16.4238" x2="38.4742" y2="16.4238" gradientUnits="userSpaceOnUse">
<stop stop-color="#C5BAEB"/>
<stop offset="1" stop-color="#DFDAEF"/>
</linearGradient>
<linearGradient id="paint6_linear_955_119" x1="19.0527" y1="4.76758" x2="51.8568" y2="4.76758" gradientUnits="userSpaceOnUse">
<stop stop-color="#802129"/>
<stop offset="1" stop-color="#FF4757"/>
</linearGradient>
<linearGradient id="paint7_linear_955_119" x1="25.5564" y1="18.2948" x2="45.615" y2="35.576" gradientUnits="userSpaceOnUse">
<stop stop-color="#5D3645"/>
<stop offset="1" stop-color="#5D3645" stop-opacity="0"/>
</linearGradient>
</defs>
</svg>
