<svg width="55" height="50" viewBox="0 0 55 50" fill="none" xmlns="http://www.w3.org/2000/svg">
<path d="M49.8051 18.1375H48.9504V17.9238H49.8051V18.1375Z" fill="#96D5FF"/>
<path d="M50.7794 0.828991V2.29639H26.4541V0.828991C26.4541 0.609129 26.5414 0.398272 26.6969 0.242806C26.8524 0.0873401 27.0632 4.40577e-07 27.2831 4.40577e-07H49.9495C50.0585 -0.000111865 50.1664 0.0212474 50.267 0.0628578C50.3677 0.104468 50.4592 0.165513 50.5363 0.242504C50.6133 0.319494 50.6745 0.410919 50.7162 0.511552C50.7579 0.612185 50.7794 0.720054 50.7794 0.828991Z" fill="#3A9CFF"/>
<path d="M28.1412 1.14777C28.1412 1.25067 28.1004 1.34936 28.0276 1.42213C27.9548 1.49489 27.8561 1.53577 27.7532 1.53577C27.6503 1.53577 27.5516 1.49489 27.4789 1.42213C27.4061 1.34936 27.3652 1.25067 27.3652 1.14777C27.3652 1.04486 27.4061 0.946173 27.4789 0.873409C27.5516 0.800644 27.6503 0.759766 27.7532 0.759766C27.8561 0.759766 27.9548 0.800644 28.0276 0.873409C28.1004 0.946173 28.1412 1.04486 28.1412 1.14777ZM29.2599 1.14777C29.2599 1.25067 29.2191 1.34936 29.1463 1.42213C29.0735 1.49489 28.9748 1.53577 28.8719 1.53577C28.769 1.53577 28.6704 1.49489 28.5976 1.42213C28.5248 1.34936 28.4839 1.25067 28.4839 1.14777C28.4839 1.04486 28.5248 0.946173 28.5976 0.873409C28.6704 0.800644 28.769 0.759766 28.8719 0.759766C28.9748 0.759766 29.0735 0.800644 29.1463 0.873409C29.2191 0.946173 29.2599 1.04486 29.2599 1.14777ZM30.3795 1.14777C30.3795 1.25067 30.3386 1.34936 30.2659 1.42213C30.1931 1.49489 30.0944 1.53577 29.9915 1.53577C29.8886 1.53577 29.7899 1.49489 29.7171 1.42213C29.6444 1.34936 29.6035 1.25067 29.6035 1.14777C29.6035 1.04486 29.6444 0.946173 29.7171 0.873409C29.7899 0.800644 29.8886 0.759766 29.9915 0.759766C30.0944 0.759766 30.1931 0.800644 30.2659 0.873409C30.3386 0.946173 30.3795 1.04486 30.3795 1.14777Z" fill="white"/>
<path d="M50.7795 2.29578V21.3591C50.7795 21.8181 50.4077 22.189 49.9505 22.189H27.2824C27.0625 22.189 26.8516 22.1016 26.6962 21.9462C26.5407 21.7907 26.4534 21.5799 26.4534 21.36V2.29492L50.7795 2.29578Z" fill="#B9D8FF"/>
<path d="M19.9897 14.9842C20.8213 15.2278 21.7075 15.4201 22.3656 16.0183C23.1194 16.7029 23.4313 17.8267 23.3595 18.8711C23.2869 19.9163 22.8775 20.8965 22.3938 21.8025C20.2547 25.7987 16.6652 28.6207 13.1758 31.3247C11.9349 32.2862 10.6153 33.2818 9.07956 33.4391C7.18912 33.6331 5.38073 32.5093 3.91163 31.2C2.82967 30.2359 1.83146 29.1292 1.16998 27.8037C0.507644 26.479 0.205106 24.9116 0.546102 23.4681C1.13323 20.982 3.62447 19.3428 6.03623 19.4642C7.70446 19.5479 9.48722 20.3445 10.8239 16.9772C11.2384 15.9329 11.5332 14.8022 12.2126 13.9322C13.5595 12.205 15.9926 11.9922 17.6934 13.592C18.401 14.2586 19.065 14.7125 19.9897 14.9842Z" fill="#15144F"/>
<path d="M35.3388 45.3711C35.2242 47.1171 34.3149 47.2154 34.3149 47.2154H18.7205L18.3684 38.2076L21.4861 33.0234L24.0414 34.6695L24.3217 42.6508L30.2298 44.5669C30.2298 44.5669 31.3519 42.8876 31.9066 43.3542C32.451 43.8106 31.6997 44.3302 31.6656 44.3533C31.7912 44.3191 35.4789 43.2499 35.3388 45.3711Z" fill="#F9B29C"/>
<path d="M54.6962 47.7338V49.4816C54.6962 49.7679 54.4654 50.0003 54.1791 50.0003H0.51705C0.379832 49.9996 0.248453 49.9447 0.151585 49.8475C0.0547166 49.7503 0.00022402 49.6188 0 49.4816V47.7338C0 47.4493 0.233313 47.2168 0.51705 47.2168H54.1791C54.4654 47.2168 54.6962 47.4493 54.6962 47.7338Z" fill="#8C382D"/>
<path d="M20.2548 27.2832C20.2548 27.2832 23.6246 28.7497 24.7792 34.9894C24.7792 34.9894 22.2734 36.6354 19.989 36.0705C17.7046 35.5056 20.2539 27.2832 20.2539 27.2832H20.2548Z" fill="#D63554"/>
<path d="M18.7574 47.2157C19.9009 44.1202 23.7527 30.2051 20.8649 27.6891C18.3045 25.4585 8.78818 26.455 7.27293 29.8513C5.05688 34.8184 4.74836 44.7389 4.32788 47.2157H18.7574Z" fill="#F24E66"/>
<path d="M2.45021 47.2164H12.6536L13.5373 44.5662L6.03965 43.0903L8.46423 38.4479L3.89624 35.1055C3.89624 35.1055 -1.23922 44.7081 0.655492 47.201L2.45021 47.2164Z" fill="#F9B29C"/>
<path d="M10.5418 27.416C10.5418 27.416 12.4108 29.8167 11.9493 32.7472C11.4878 35.6777 9.18461 38.6894 8.77867 39.0586C8.08385 39.6893 2.66808 35.7187 3.01847 35.2401C3.0595 35.1837 6.29854 28.2724 10.5418 27.416Z" fill="#D63554"/>
<path d="M16.6198 29.008C13.8961 29.0704 14.1055 26.6065 14.1055 26.6065C14.6439 25.88 14.7884 23.282 14.7884 23.282L14.826 23.2683C15.1208 23.158 17.0378 22.4837 16.8113 23.605C16.6694 24.3109 17.0335 25.2032 17.3599 25.8262C17.5958 26.2723 17.8129 26.5783 17.8129 26.5783C17.8129 26.5783 18.7308 28.9601 16.6198 29.008Z" fill="#F9B29C"/>
<path d="M17.3601 25.8262C17.3405 25.8279 17.3217 25.8279 17.302 25.8279C15.8269 25.8279 15.1586 24.4836 14.8262 23.2683C15.121 23.158 17.0379 22.4837 16.8115 23.605C16.6696 24.3109 17.0337 25.2032 17.3601 25.8262Z" fill="#ED8768"/>
<path d="M17.5463 25.5392C20.4042 24.9632 19.9948 18.1099 18.9223 16.7211C17.8523 15.3349 14.2278 17.0502 13.9894 17.4612C13.7543 17.8715 14.0996 20.5892 14.2312 21.6233C14.4312 22.8907 14.9337 26.0665 17.5463 25.5392Z" fill="#F9B29C"/>
<path d="M15.2381 19.7013C15.5471 18.9691 15.6101 18.1564 15.4175 17.3853C16.423 17.9154 17.4586 18.3862 18.519 18.7954C18.8779 18.9339 19.2787 19.0655 19.6368 18.9262C20.0932 18.7501 20.2949 18.175 20.1881 17.6972C20.0812 17.2195 19.7437 16.8289 19.383 16.4973C18.4755 15.6638 17.3723 15.0726 16.1756 14.7787C15.3663 14.5813 15.0765 14.7641 14.592 15.4051C13.3109 17.0981 12.693 17.769 12.6383 18.5613C12.6024 19.0894 12.8289 19.5979 13.0793 20.0646C13.2485 20.3799 13.1989 20.738 13.3271 21.073C13.4741 21.4533 13.7647 21.4243 14.1014 21.1662C14.5993 20.7831 14.9906 20.2787 15.2381 19.7013Z" fill="#15144F"/>
<path d="M51.1733 27.8815L48.8718 43.7127C48.8068 44.1314 48.4487 44.4417 48.0257 44.4434C27.8385 44.5699 29.0701 44.5827 28.9359 44.5502C28.7157 44.5097 28.5201 44.3848 28.3906 44.2022C28.2612 44.0196 28.2081 43.7937 28.2428 43.5725L30.5434 27.7405C30.6084 27.3217 30.9665 27.0124 31.3895 27.0098L50.3144 26.8867C50.4394 26.8859 50.563 26.9122 50.6768 26.9638C50.7907 27.0155 50.8919 27.0912 50.9736 27.1858C51.0552 27.2804 51.1154 27.3916 51.1499 27.5117C51.1844 27.6318 51.1924 27.758 51.1733 27.8815Z" fill="#96D5FF"/>
<path d="M31.5325 27.0083H31.3898C31.1849 27.0096 30.9871 27.0839 30.8321 27.2178C30.677 27.3517 30.5748 27.5365 30.5437 27.739L28.243 43.571C28.2083 43.792 28.2613 44.0179 28.3906 44.2005C28.5198 44.3831 28.7153 44.508 28.9353 44.5487L27.5431 44.5632C27.418 44.5643 27.2941 44.5382 27.1801 44.4867C27.0661 44.4352 26.9646 44.3595 26.8827 44.2648C26.8009 44.1702 26.7406 44.0589 26.706 43.9387C26.6714 43.8184 26.6634 43.6921 26.6825 43.5685L28.9814 27.739C29.0129 27.5362 29.1156 27.3513 29.2712 27.2174C29.4267 27.0834 29.6248 27.0093 29.8301 27.0083L31.4068 26.998C31.4487 26.998 31.4906 27.0006 31.5325 27.0083ZM40.2292 47.216L41.359 38.9347H37.0047L35.8757 47.216H40.2292Z" fill="#70C6FF"/>
<path d="M17.6232 47.2166H12.6536L13.5372 44.5672C13.5372 44.5672 14.6594 42.8888 15.2149 43.3554C15.7593 43.8118 15.0072 44.3314 14.9739 44.3544C15.0995 44.3203 18.7889 43.252 18.6488 45.3715C18.5325 47.1192 17.6232 47.2166 17.6232 47.2166Z" fill="#F9B29C"/>
<path d="M19.1616 20.4077C19.1368 20.4075 19.1128 20.3987 19.0938 20.3828C19.0748 20.3669 19.0619 20.3449 19.0573 20.3205C18.9821 19.9103 18.4873 20.0017 18.5642 20.2641C18.6044 20.4 18.4001 20.459 18.3591 20.3239C18.2565 19.9752 18.6719 19.6761 19.0206 19.8992C19.1992 20.0137 19.3795 20.3692 19.1812 20.406C19.1747 20.407 19.1682 20.4076 19.1616 20.4077ZM18.1301 22.0964L18.1078 22.0939C18.0463 22.0784 17.9886 22.0505 17.9383 22.0119C17.888 21.9732 17.8462 21.9246 17.8155 21.8691C17.7647 21.7751 17.7273 21.6744 17.7044 21.57C17.4335 20.406 17.2464 20.2009 17.4344 20.1504C17.6233 20.1043 17.5626 20.3667 17.9104 21.5144C17.9489 21.6597 18.0027 21.8537 18.1523 21.8845C18.1789 21.8892 18.2027 21.9038 18.2189 21.9254C18.2352 21.947 18.2426 21.9739 18.2398 22.0008C18.237 22.0277 18.2241 22.0524 18.2037 22.0702C18.1834 22.0879 18.157 22.0973 18.1301 22.0964ZM16.1422 20.7307C16.5498 20.4171 17.0652 21.0666 16.8182 21.1649C16.7919 21.1753 16.7626 21.1748 16.7366 21.1636C16.7107 21.1524 16.6902 21.1313 16.6797 21.1051C16.584 20.8683 16.3806 20.8162 16.2729 20.8999C16.22 20.941 16.202 21.0273 16.2362 21.0743C16.2527 21.0971 16.2596 21.1255 16.2553 21.1534C16.251 21.1812 16.2358 21.2063 16.2131 21.223C16.0422 21.3495 15.8824 20.9316 16.1422 20.7307ZM17.4942 23.8604C17.4751 23.8407 17.4643 23.8143 17.4641 23.7868C17.4639 23.7594 17.4742 23.7329 17.493 23.7129C17.5119 23.6928 17.5377 23.6808 17.5651 23.6793C17.5925 23.6778 17.6195 23.687 17.6403 23.7048C17.8027 23.8561 18.0506 23.8416 18.1959 23.6929C18.2156 23.6725 18.2426 23.6607 18.271 23.6603C18.2993 23.6598 18.3267 23.6706 18.3471 23.6903C18.3675 23.71 18.3793 23.737 18.3797 23.7654C18.3802 23.7938 18.3694 23.8212 18.3497 23.8416C18.2379 23.9556 18.0859 24.0214 17.9262 24.025C17.7665 24.0285 17.6118 23.9694 17.4951 23.8604H17.4942Z" fill="#15144F"/>
<path d="M47.9779 5.20476V15.9252C47.9779 16.5166 47.4976 16.9944 46.9062 16.9944H39.6889C39.0966 16.9944 38.6172 16.5158 38.6172 15.9252V5.20476C38.6172 4.61507 39.0966 4.13477 39.6889 4.13477H46.9062C47.4976 4.13477 47.9779 4.61421 47.9779 5.20476Z" fill="white"/>
<path d="M39.9504 16.9944H39.6889C39.0966 16.9944 38.6172 16.5158 38.6172 15.9252V5.20476C38.6172 4.61507 39.0966 4.13477 39.6889 4.13477H39.9504C39.359 4.13477 38.8787 4.61421 38.8787 5.20476V15.9252C38.8787 16.5166 39.359 16.9944 39.9504 16.9944ZM47.9779 15.3834V15.9252C47.9779 16.5166 47.4976 16.9944 46.9062 16.9944H46.4763C46.1977 16.0893 47.0165 15.1723 47.9779 15.3834Z" fill="#D9E5F1"/>
<path d="M46.8917 6.07384H39.7026C39.6819 6.0754 39.6612 6.07268 39.6416 6.06585C39.6221 6.05902 39.6041 6.04822 39.589 6.03414C39.5738 6.02006 39.5617 6.003 39.5534 5.98402C39.5451 5.96504 39.5408 5.94456 39.5408 5.92385C39.5408 5.90314 39.5451 5.88266 39.5534 5.86368C39.5617 5.8447 39.5738 5.82764 39.589 5.81356C39.6041 5.79948 39.6221 5.78869 39.6416 5.78186C39.6612 5.77503 39.6819 5.77231 39.7026 5.77386H46.8917C46.9295 5.77672 46.9649 5.79376 46.9906 5.82158C47.0164 5.84939 47.0308 5.88592 47.0308 5.92385C47.0308 5.96178 47.0164 5.99831 46.9906 6.02613C46.9649 6.05394 46.9295 6.07098 46.8917 6.07384ZM46.8917 7.42757H39.7026C39.6819 7.42913 39.6612 7.42641 39.6416 7.41958C39.6221 7.41275 39.6041 7.40196 39.589 7.38788C39.5738 7.3738 39.5617 7.35673 39.5534 7.33775C39.5451 7.31878 39.5408 7.29829 39.5408 7.27758C39.5408 7.25688 39.5451 7.23639 39.5534 7.21741C39.5617 7.19844 39.5738 7.18137 39.589 7.16729C39.6041 7.15321 39.6221 7.14242 39.6416 7.13559C39.6612 7.12876 39.6819 7.12604 39.7026 7.1276H46.8917C46.9286 7.13155 46.9627 7.14901 46.9876 7.17662C47.0124 7.20423 47.0261 7.24004 47.0261 7.27716C47.0261 7.31428 47.0124 7.35009 46.9876 7.3777C46.9627 7.40531 46.9286 7.42362 46.8917 7.42757ZM47.0028 8.78045H39.8128C39.6197 8.78045 39.5521 8.71379 39.5521 8.63089C39.5521 8.54799 39.6197 8.48047 39.7026 8.48047H46.8917C46.9746 8.48047 47.0421 8.54799 47.0421 8.63089C47.0421 8.71379 46.9746 8.78045 47.0028 8.78045ZM46.8917 10.1342H39.7026C39.6819 10.1357 39.6612 10.133 39.6416 10.1262C39.6221 10.1194 39.6041 10.1086 39.589 10.0945C39.5738 10.0804 39.5617 10.0633 39.5534 10.0444C39.5451 10.0254 39.5408 10.0049 39.5408 9.9842C39.5408 9.96349 39.5451 9.943 39.5534 9.92402C39.5617 9.90505 39.5738 9.88798 39.589 9.8739C39.6041 9.85982 39.6221 9.84903 39.6416 9.8422C39.6612 9.83537 39.6819 9.83265 39.7026 9.83421H46.8917C46.9123 9.83265 46.9331 9.83537 46.9526 9.8422C46.9722 9.84903 46.9901 9.85982 47.0053 9.8739C47.0205 9.88798 47.0326 9.90505 47.0409 9.92402C47.0492 9.943 47.0534 9.96349 47.0534 9.9842C47.0534 10.0049 47.0492 10.0254 47.0409 10.0444C47.0326 10.0633 47.0205 10.0804 47.0053 10.0945C46.9901 10.1086 46.9722 10.1194 46.9526 10.1262C46.9331 10.133 46.9123 10.1357 46.8917 10.1342ZM46.8917 11.4871H39.7026C39.6816 11.4893 39.6604 11.4871 39.6403 11.4806C39.6202 11.4741 39.6017 11.4635 39.586 11.4494C39.5703 11.4353 39.5578 11.418 39.5492 11.3987C39.5406 11.3795 39.5361 11.3586 39.5361 11.3375C39.5361 11.3164 39.5406 11.2955 39.5492 11.2763C39.5578 11.257 39.5703 11.2397 39.586 11.2256C39.6017 11.2115 39.6202 11.2009 39.6403 11.1944C39.6604 11.1879 39.6816 11.1857 39.7026 11.1879H46.8917C46.9286 11.1919 46.9627 11.2094 46.9876 11.237C47.0124 11.2646 47.0261 11.3004 47.0261 11.3375C47.0261 11.3746 47.0124 11.4104 46.9876 11.438C46.9627 11.4656 46.9286 11.4831 46.8917 11.4871ZM46.8917 12.8408H39.7026C39.6819 12.8424 39.6612 12.8396 39.6416 12.8328C39.6221 12.826 39.6041 12.8152 39.589 12.8011C39.5738 12.787 39.5617 12.77 39.5534 12.751C39.5451 12.732 39.5408 12.7115 39.5408 12.6908C39.5408 12.6701 39.5451 12.6496 39.5534 12.6306C39.5617 12.6117 39.5738 12.5946 39.589 12.5805C39.6041 12.5664 39.6221 12.5556 39.6416 12.5488C39.6612 12.542 39.6819 12.5393 39.7026 12.5408H46.8917C46.9295 12.5437 46.9649 12.5607 46.9906 12.5885C47.0164 12.6163 47.0308 12.6529 47.0308 12.6908C47.0308 12.7287 47.0164 12.7653 46.9906 12.7931C46.9649 12.8209 46.9295 12.8379 46.8917 12.8408ZM46.8917 14.1945H39.7026C39.6627 14.1945 39.6244 14.1787 39.5962 14.1505C39.568 14.1223 39.5521 14.084 39.5521 14.0441C39.5521 14.0042 39.568 13.966 39.5962 13.9378C39.6244 13.9095 39.6627 13.8937 39.7026 13.8937H46.8917C46.9316 13.8937 46.9698 13.9095 46.998 13.9378C47.0263 13.966 47.0421 14.0042 47.0421 14.0441C47.0421 14.084 47.0263 14.1223 46.998 14.1505C46.9698 14.1787 46.9316 14.1945 46.8917 14.1945ZM43.3783 15.5483H39.7026C39.6627 15.5483 39.6244 15.5324 39.5962 15.5042C39.568 15.476 39.5521 15.4377 39.5521 15.3978C39.5521 15.358 39.568 15.3197 39.5962 15.2915C39.6244 15.2633 39.6627 15.2474 39.7026 15.2474H43.3775C43.3981 15.2459 43.4189 15.2486 43.4384 15.2554C43.458 15.2623 43.4759 15.273 43.4911 15.2871C43.5062 15.3012 43.5184 15.3183 43.5266 15.3372C43.5349 15.3562 43.5392 15.3767 43.5392 15.3974C43.5392 15.4181 43.5349 15.4386 43.5266 15.4576C43.5184 15.4766 43.5062 15.4936 43.4911 15.5077C43.4759 15.5218 43.458 15.5326 43.4384 15.5394C43.4189 15.5462 43.3981 15.549 43.3775 15.5474L43.3783 15.5483Z" fill="#D9E5F1"/>
<path d="M29.2563 5.20476V15.9252C29.2563 16.5166 29.7358 16.9944 30.328 16.9944H37.5454C38.1368 16.9944 38.6171 16.5158 38.6171 15.9252V5.20476C38.6171 4.61507 38.1368 4.13477 37.5454 4.13477H30.328C29.7358 4.13477 29.2563 4.61421 29.2563 5.20476Z" fill="white"/>
<path d="M37.283 16.9944H37.5454C38.1368 16.9944 38.6171 16.5158 38.6171 15.9252V5.20476C38.6171 4.61507 38.1368 4.13477 37.5454 4.13477H37.283C37.8753 4.13477 38.3547 4.61421 38.3547 5.20476V15.9252C38.3547 16.5166 37.8753 16.9944 37.283 16.9944ZM29.2563 15.3834V15.9252C29.2563 16.5166 29.7358 16.9944 30.328 16.9944H30.7571C31.0357 16.0893 30.2178 15.1723 29.2563 15.3834Z" fill="#D9E5F1"/>
<path d="M30.342 6.07384H37.5311C37.5517 6.0754 37.5725 6.07268 37.592 6.06585C37.6116 6.05902 37.6295 6.04822 37.6447 6.03414C37.6599 6.02006 37.672 6.003 37.6803 5.98402C37.6886 5.96504 37.6928 5.94456 37.6928 5.92385C37.6928 5.90314 37.6886 5.88266 37.6803 5.86368C37.672 5.8447 37.6599 5.82764 37.6447 5.81356C37.6295 5.79948 37.6116 5.78869 37.592 5.78186C37.5725 5.77503 37.5517 5.77231 37.5311 5.77386H30.342C30.3213 5.77231 30.3006 5.77503 30.281 5.78186C30.2615 5.78869 30.2435 5.79948 30.2284 5.81356C30.2132 5.82764 30.2011 5.8447 30.1928 5.86368C30.1845 5.88266 30.1802 5.90314 30.1802 5.92385C30.1802 5.94456 30.1845 5.96504 30.1928 5.98402C30.2011 6.003 30.2132 6.02006 30.2284 6.03414C30.2435 6.04822 30.2615 6.05902 30.281 6.06585C30.3006 6.07268 30.3213 6.0754 30.342 6.07384ZM30.342 7.42757H37.5311C37.5517 7.42913 37.5725 7.42641 37.592 7.41958C37.6116 7.41275 37.6295 7.40196 37.6447 7.38788C37.6599 7.3738 37.672 7.35673 37.6803 7.33775C37.6886 7.31878 37.6928 7.29829 37.6928 7.27758C37.6928 7.25688 37.6886 7.23639 37.6803 7.21741C37.672 7.19844 37.6599 7.18137 37.6447 7.16729C37.6295 7.15321 37.6116 7.14242 37.592 7.13559C37.5725 7.12876 37.5517 7.12604 37.5311 7.1276H30.342C30.321 7.12535 30.2998 7.12755 30.2797 7.13404C30.2596 7.14053 30.2411 7.15117 30.2254 7.16528C30.2097 7.17939 30.1972 7.19664 30.1886 7.21591C30.18 7.23519 30.1755 7.25605 30.1755 7.27716C30.1755 7.29826 30.18 7.31913 30.1886 7.3384C30.1972 7.35768 30.2097 7.37493 30.2254 7.38903C30.2411 7.40314 30.2596 7.41378 30.2797 7.42028C30.2998 7.42677 30.321 7.42982 30.342 7.42757ZM30.342 8.78045H37.5311C37.5517 8.78201 37.5725 8.77929 37.592 8.77246C37.6116 8.76563 37.6295 8.75483 37.6447 8.74075C37.6599 8.72667 37.672 8.70961 37.6803 8.69063C37.6886 8.67165 37.6928 8.65117 37.6928 8.63046C37.6928 8.60976 37.6886 8.58927 37.6803 8.57029C37.672 8.55131 37.6599 8.53425 37.6447 8.52017C37.6295 8.50609 37.6116 8.4953 37.592 8.48847C37.5725 8.48164 37.5517 8.47892 37.5311 8.48047H30.342C30.3213 8.47892 30.3006 8.48164 30.281 8.48847C30.2615 8.4953 30.2435 8.50609 30.2284 8.52017C30.2132 8.53425 30.2011 8.55131 30.1928 8.57029C30.1845 8.58927 30.1802 8.60976 30.1802 8.63046C30.1802 8.65117 30.1845 8.67165 30.1928 8.69063C30.2011 8.70961 30.2132 8.72667 30.2284 8.74075C30.2435 8.75483 30.2615 8.76563 30.281 8.77246C30.3006 8.77929 30.3213 8.78201 30.342 8.78045ZM30.342 10.1342H37.5311C37.5517 10.1357 37.5725 10.133 37.592 10.1262C37.6116 10.1194 37.6295 10.1086 37.6447 10.0945C37.6599 10.0804 37.672 10.0633 37.6803 10.0444C37.6886 10.0254 37.6928 10.0049 37.6928 9.9842C37.6928 9.96349 37.6886 9.943 37.6803 9.92402C37.672 9.90505 37.6599 9.88798 37.6447 9.8739C37.6295 9.85982 37.6116 9.84903 37.592 9.8422C37.5725 9.83537 37.5517 9.83265 37.5311 9.83421H30.342C30.3213 9.83265 30.3006 9.83537 30.281 9.8422C30.2615 9.84903 30.2435 9.85982 30.2284 9.8739C30.2132 9.88798 30.2011 9.90505 30.1928 9.92402C30.1845 9.943 30.1802 9.96349 30.1802 9.9842C30.1802 10.0049 30.1845 10.0254 30.1928 10.0444C30.2011 10.0633 30.2132 10.0804 30.2284 10.0945C30.2435 10.1086 30.2615 10.1194 30.281 10.1262C30.3006 10.133 30.3213 10.1357 30.342 10.1342ZM30.342 11.4871H37.5311C37.5521 11.4893 37.5733 11.4871 37.5934 11.4806C37.6135 11.4741 37.6319 11.4635 37.6476 11.4494C37.6633 11.4353 37.6759 11.418 37.6845 11.3987C37.6931 11.3795 37.6975 11.3586 37.6975 11.3375C37.6975 11.3164 37.6931 11.2955 37.6845 11.2763C37.6759 11.257 37.6633 11.2397 37.6476 11.2256C37.6319 11.2115 37.6135 11.2009 37.5934 11.1944C37.5733 11.1879 37.5521 11.1857 37.5311 11.1879H30.342C30.321 11.1857 30.2998 11.1879 30.2797 11.1944C30.2596 11.2009 30.2411 11.2115 30.2254 11.2256C30.2097 11.2397 30.1972 11.257 30.1886 11.2763C30.18 11.2955 30.1755 11.3164 30.1755 11.3375C30.1755 11.3586 30.18 11.3795 30.1886 11.3987C30.1972 11.418 30.2097 11.4353 30.2254 11.4494C30.2411 11.4635 30.2596 11.4741 30.2797 11.4806C30.2998 11.4871 30.321 11.4893 30.342 11.4871ZM30.342 12.8408H37.5311C37.5517 12.8424 37.5725 12.8396 37.592 12.8328C37.6116 12.826 37.6295 12.8152 37.6447 12.8011C37.6599 12.787 37.672 12.77 37.6803 12.751C37.6886 12.732 37.6928 12.7115 37.6928 12.6908C37.6928 12.6701 37.6886 12.6496 37.6803 12.6306C37.672 12.6117 37.6599 12.5946 37.6447 12.5805C37.6295 12.5664 37.6116 12.5556 37.592 12.5488C37.5725 12.542 37.5517 12.5393 37.5311 12.5408H30.342C30.3213 12.5393 30.3006 12.542 30.281 12.5488C30.2615 12.5556 30.2435 12.5664 30.2284 12.5805C30.2132 12.5946 30.2011 12.6117 30.1928 12.6306C30.1845 12.6496 30.1802 12.6701 30.1802 12.6908C30.1802 12.7115 30.1845 12.732 30.1928 12.751C30.2011 12.77 30.2132 12.787 30.2284 12.8011C30.2435 12.8152 30.2615 12.826 30.281 12.8328C30.3006 12.8396 30.3213 12.8424 30.342 12.8408ZM30.342 14.1945H37.5311C37.571 14.1945 37.6092 14.1787 37.6375 14.1505C37.6657 14.1223 37.6815 14.084 37.6815 14.0441C37.6815 14.0042 37.6657 13.966 37.6375 13.9378C37.6092 13.9095 37.571 13.8937 37.5311 13.8937H30.342C30.3021 13.8937 30.2638 13.9095 30.2356 13.9378C30.2074 13.966 30.1915 14.0042 30.1915 14.0441C30.1915 14.084 30.2074 14.1223 30.2356 14.1505C30.2638 14.1787 30.3021 14.1945 30.342 14.1945ZM33.8562 15.5483H37.5311C37.571 15.5483 37.6092 15.5324 37.6375 15.5042C37.6657 15.476 37.6815 15.4377 37.6815 15.3978C37.6815 15.358 37.6657 15.3197 37.6375 15.2915C37.6092 15.2633 37.571 15.2474 37.5311 15.2474H33.8562C33.8355 15.2459 33.8148 15.2486 33.7952 15.2554C33.7757 15.2623 33.7578 15.273 33.7426 15.2871C33.7274 15.3012 33.7153 15.3183 33.707 15.3372C33.6987 15.3562 33.6944 15.3767 33.6944 15.3974C33.6944 15.4181 33.6987 15.4386 33.707 15.4576C33.7153 15.4766 33.7274 15.4936 33.7426 15.5077C33.7578 15.5218 33.7757 15.5326 33.7952 15.5394C33.8148 15.5462 33.8355 15.549 33.8562 15.5474V15.5483Z" fill="#D9E5F1"/>
<path d="M44.1621 18.6411L43.6288 19.1744L44.439 19.9837C44.498 20.0427 44.4971 20.1375 44.439 20.1956L44.1168 20.5178C44.1029 20.5318 44.0864 20.5429 44.0682 20.5504C44.05 20.558 44.0305 20.5619 44.0108 20.5619C43.9911 20.5619 43.9716 20.558 43.9534 20.5504C43.9353 20.5429 43.9187 20.5318 43.9049 20.5178L43.0947 19.7085L42.5622 20.2409C42.5483 20.2552 42.5306 20.2652 42.5112 20.2699C42.4919 20.2746 42.4716 20.2738 42.4526 20.2676C42.4337 20.2614 42.4169 20.25 42.4041 20.2347C42.3913 20.2194 42.383 20.2008 42.3802 20.1811L42.1127 18.3137C42.1106 18.2972 42.1123 18.2804 42.1177 18.2647C42.1231 18.249 42.1321 18.2347 42.1439 18.2229C42.1557 18.2112 42.17 18.2023 42.1858 18.197C42.2016 18.1917 42.2184 18.1902 42.2349 18.1924L44.1023 18.459C44.1894 18.471 44.2253 18.5787 44.1621 18.6411Z" fill="#70C6FF"/>
</svg>
