<svg width="121" height="46" viewBox="0 0 121 46" fill="none" xmlns="http://www.w3.org/2000/svg">
<mask id="path-1-inside-1_154_3228" fill="white">
<path d="M0.980469 11.3218H45.0191V37.1085C45.0191 41.5268 41.4374 45.1085 37.0191 45.1085H8.98046C4.56218 45.1085 0.980469 41.5268 0.980469 37.1085V11.3218Z"/>
</mask>
<path d="M0.980469 11.3218H45.0191H0.980469ZM46.0191 37.1085C46.0191 42.0791 41.9897 46.1085 37.0191 46.1085H8.98047C4.00991 46.1085 -0.0195312 42.0791 -0.0195312 37.1085H1.98047C1.98047 40.9745 5.11448 44.1085 8.98047 44.1085H37.0191C40.8851 44.1085 44.0191 40.9745 44.0191 37.1085H46.0191ZM8.98047 46.1085C4.00991 46.1085 -0.0195312 42.0791 -0.0195312 37.1085V11.3218H1.98047V37.1085C1.98047 40.9745 5.11448 44.1085 8.98047 44.1085V46.1085ZM46.0191 11.3218V37.1085C46.0191 42.0791 41.9897 46.1085 37.0191 46.1085V44.1085C40.8851 44.1085 44.0191 40.9745 44.0191 37.1085V11.3218H46.0191Z" fill="url(#paint0_linear_154_3228)" mask="url(#path-1-inside-1_154_3228)"/>
<path d="M6.77518 0H13.1046L8.89308 11.8888C8.84838 12.015 8.78292 12.1328 8.69941 12.2374L8.56605 12.4045C5.75807 15.9215 0.0887339 13.9053 0.132006 9.40504C0.133122 9.28901 0.17011 9.17617 0.237896 9.082L6.77518 0Z" fill="#DA498D"/>
<path d="M14.6202 0H22.1086L21.7667 10.6404C21.7571 10.9389 21.6567 11.2273 21.4787 11.4672L21.0705 12.0176C18.0699 16.0632 11.6698 14.3912 11.0313 9.39496C11.0172 9.28458 11.031 9.17241 11.0716 9.06878L14.6202 0Z" fill="#F25512"/>
<path d="M30.8147 0H23.3564L23.697 10.644C23.7065 10.9402 23.8059 11.2265 23.982 11.4649L24.3783 12.0014C27.3646 16.0439 33.7548 14.3794 34.3894 9.39373C34.4033 9.28414 34.3896 9.17279 34.3495 9.06986L30.8147 0Z" fill="#FFB200"/>
<path d="M39.2248 0H32.8954L37.1071 11.9123C37.1517 12.0384 37.217 12.1561 37.3003 12.2606L37.4272 12.4199C40.2346 15.943 45.9112 13.9272 45.868 9.42262C45.8669 9.30671 45.83 9.19398 45.7623 9.09984L39.2248 0Z" fill="#1F90FF"/>
<rect x="4.36816" y="15.7798" width="5.34882" height="22.3759" fill="#1F90FF"/>
<path d="M4.36816 36.6401H19.2557V41.8998H9.62784C6.723 41.8998 4.36816 39.545 4.36816 36.6401Z" fill="#1F90FF"/>
<path d="M19.6123 36.6401H41.6316C41.6316 39.545 39.2768 41.8998 36.372 41.8998H19.6123V36.6401Z" fill="#F25512"/>
<path d="M13.6396 15.4229H17.8234L28.0455 28.2517L38.4401 15.4229H41.6318V36.6399H36.6717L36.5423 24.4838L29.0806 33.4999H26.7515L19.2467 24.753V36.1464H13.6396V15.4229Z" fill="#F25512"/>
<path d="M61.592 16.832H66.968V20H57.488V3.152H61.592V16.832ZM75.0215 20.192C73.7095 20.192 72.5255 19.912 71.4695 19.352C70.4295 18.792 69.6055 17.992 68.9975 16.952C68.4055 15.912 68.1095 14.696 68.1095 13.304C68.1095 11.928 68.4135 10.72 69.0215 9.68C69.6295 8.624 70.4615 7.816 71.5175 7.256C72.5735 6.696 73.7575 6.416 75.0695 6.416C76.3815 6.416 77.5655 6.696 78.6215 7.256C79.6775 7.816 80.5095 8.624 81.1175 9.68C81.7255 10.72 82.0295 11.928 82.0295 13.304C82.0295 14.68 81.7175 15.896 81.0935 16.952C80.4855 17.992 79.6455 18.792 78.5735 19.352C77.5175 19.912 76.3335 20.192 75.0215 20.192ZM75.0215 16.64C75.8055 16.64 76.4695 16.352 77.0135 15.776C77.5735 15.2 77.8535 14.376 77.8535 13.304C77.8535 12.232 77.5815 11.408 77.0375 10.832C76.5095 10.256 75.8535 9.968 75.0695 9.968C74.2695 9.968 73.6055 10.256 73.0775 10.832C72.5495 11.392 72.2855 12.216 72.2855 13.304C72.2855 14.376 72.5415 15.2 73.0535 15.776C73.5815 16.352 74.2375 16.64 75.0215 16.64ZM83.3908 13.304C83.3908 11.912 83.6708 10.696 84.2308 9.656C84.8068 8.616 85.5988 7.816 86.6068 7.256C87.6308 6.696 88.7988 6.416 90.1108 6.416C91.7908 6.416 93.1908 6.856 94.3108 7.736C95.4468 8.616 96.1908 9.856 96.5428 11.456H92.1748C91.8068 10.432 91.0948 9.92 90.0388 9.92C89.2868 9.92 88.6868 10.216 88.2388 10.808C87.7908 11.384 87.5668 12.216 87.5668 13.304C87.5668 14.392 87.7908 15.232 88.2388 15.824C88.6868 16.4 89.2868 16.688 90.0388 16.688C91.0948 16.688 91.8068 16.176 92.1748 15.152H96.5428C96.1908 16.72 95.4468 17.952 94.3108 18.848C93.1748 19.744 91.7748 20.192 90.1108 20.192C88.7988 20.192 87.6308 19.912 86.6068 19.352C85.5988 18.792 84.8068 17.992 84.2308 16.952C83.6708 15.912 83.3908 14.696 83.3908 13.304ZM97.922 13.28C97.922 11.904 98.178 10.696 98.69 9.656C99.218 8.616 99.93 7.816 100.826 7.256C101.722 6.696 102.722 6.416 103.826 6.416C104.77 6.416 105.594 6.608 106.298 6.992C107.018 7.376 107.57 7.88 107.954 8.504V6.608H112.058V20H107.954V18.104C107.554 18.728 106.994 19.232 106.274 19.616C105.57 20 104.746 20.192 103.802 20.192C102.714 20.192 101.722 19.912 100.826 19.352C99.93 18.776 99.218 17.968 98.69 16.928C98.178 15.872 97.922 14.656 97.922 13.28ZM107.954 13.304C107.954 12.28 107.666 11.472 107.09 10.88C106.53 10.288 105.842 9.992 105.026 9.992C104.21 9.992 103.514 10.288 102.938 10.88C102.378 11.456 102.098 12.256 102.098 13.28C102.098 14.304 102.378 15.12 102.938 15.728C103.514 16.32 104.21 16.616 105.026 16.616C105.842 16.616 106.53 16.32 107.09 15.728C107.666 15.136 107.954 14.328 107.954 13.304ZM119.131 2.24V20H115.027V2.24H119.131Z" fill="#1F90FF"/>
<path d="M76.568 25.152V42H72.464V31.896L68.696 42H65.384L61.592 31.872V42H57.488V25.152H62.336L67.064 36.816L71.744 25.152H76.568ZM78.7033 35.28C78.7033 33.904 78.9593 32.696 79.4713 31.656C79.9993 30.616 80.7113 29.816 81.6073 29.256C82.5033 28.696 83.5033 28.416 84.6073 28.416C85.5513 28.416 86.3753 28.608 87.0793 28.992C87.7993 29.376 88.3513 29.88 88.7353 30.504V28.608H92.8393V42H88.7353V40.104C88.3353 40.728 87.7753 41.232 87.0553 41.616C86.3513 42 85.5273 42.192 84.5833 42.192C83.4953 42.192 82.5033 41.912 81.6073 41.352C80.7113 40.776 79.9993 39.968 79.4713 38.928C78.9593 37.872 78.7033 36.656 78.7033 35.28ZM88.7353 35.304C88.7353 34.28 88.4473 33.472 87.8713 32.88C87.3113 32.288 86.6233 31.992 85.8073 31.992C84.9913 31.992 84.2953 32.288 83.7193 32.88C83.1593 33.456 82.8793 34.256 82.8793 35.28C82.8793 36.304 83.1593 37.12 83.7193 37.728C84.2953 38.32 84.9913 38.616 85.8073 38.616C86.6233 38.616 87.3113 38.32 87.8713 37.728C88.4473 37.136 88.7353 36.328 88.7353 35.304ZM99.9123 30.84C100.392 30.104 100.992 29.528 101.712 29.112C102.432 28.68 103.232 28.464 104.112 28.464V32.808H102.984C101.96 32.808 101.192 33.032 100.68 33.48C100.168 33.912 99.9123 34.68 99.9123 35.784V42H95.8083V28.608H99.9123V30.84ZM113.538 38.52V42H111.45C109.962 42 108.802 41.64 107.97 40.92C107.138 40.184 106.722 38.992 106.722 37.344V32.016H105.09V28.608H106.722V25.344H110.826V28.608H113.514V32.016H110.826V37.392C110.826 37.792 110.922 38.08 111.114 38.256C111.306 38.432 111.626 38.52 112.074 38.52H113.538Z" fill="#FF6C3B"/>
<defs>
<linearGradient id="paint0_linear_154_3228" x1="45.3757" y1="23.2229" x2="1.29248" y2="23.2229" gradientUnits="userSpaceOnUse">
<stop stop-color="#3199FF"/>
<stop offset="0.5" stop-color="#FFB200"/>
<stop offset="0.75" stop-color="#F25512"/>
<stop offset="1" stop-color="#DA498D"/>
</linearGradient>
</defs>
</svg>
