<svg width="102" height="166" viewBox="0 0 102 166" fill="none" xmlns="http://www.w3.org/2000/svg">
<path d="M70.6943 160.368C70.6943 161.447 63.8529 162.309 55.4236 162.309C46.9943 162.309 40.1528 161.447 40.1528 160.368C40.1528 159.29 46.9943 158.428 55.4236 158.428C63.8529 158.428 70.6943 159.29 70.6943 160.368Z" fill="#E0E0E0"/>
<path fill-rule="evenodd" clip-rule="evenodd" d="M25.3523 34.4971C26.6265 33.713 27.9987 33.1249 29.3905 32.7328L30.2334 28.7338L36.9965 28.6162L37.957 32.576C39.388 32.9289 40.7602 33.4582 42.0736 34.2031L45.4846 31.9487L50.3461 36.6535L48.229 40.1428C48.9935 41.417 49.5816 42.7892 49.9933 44.181L53.9923 45.0239L54.1099 51.787L50.1305 52.7475C49.7972 54.1786 49.2483 55.5508 48.523 56.8642L50.7578 60.2751L46.0727 65.1367L42.5833 63.0195C41.2895 63.784 39.9369 64.3721 38.5255 64.7838L37.7022 68.7828L30.9391 68.9004L29.959 64.921C28.5476 64.5682 27.1753 64.0389 25.8619 63.3136L22.451 65.5483L17.5895 60.8632L19.7066 57.3542C18.9225 56.08 18.3344 54.7274 17.9423 53.316L13.9433 52.4927L13.8257 45.7297L17.7855 44.7495C18.1383 43.3381 18.6872 41.9659 19.4125 40.6525L17.1582 37.2415L21.8629 32.38L25.3523 34.4971ZM28.9592 43.4949C26.1756 46.3766 26.254 50.9637 29.1356 53.7473C32.0173 56.5309 36.6044 56.4525 39.388 53.5709C42.1717 50.6892 42.0932 46.1021 39.2116 43.3185C36.33 40.5349 31.7428 40.6133 28.9592 43.4949Z" fill="#F5F5F5"/>
<path fill-rule="evenodd" clip-rule="evenodd" d="M65.1267 46.2785C66.1852 45.906 67.3026 45.6904 68.42 45.612L69.6746 42.7695L74.7322 43.7497L74.8302 46.8666C75.8299 47.3566 76.7709 47.9643 77.6334 48.7288L80.5346 47.5919L83.4163 51.8653L81.2796 54.1393C81.652 55.2175 81.8677 56.3152 81.9461 57.4326L84.7885 58.6872L83.8084 63.7448L80.6915 63.8428C80.2014 64.8425 79.5741 65.7835 78.8292 66.646L79.9662 69.5473L75.6927 72.4289L73.4187 70.2922C72.3406 70.6646 71.2232 70.8803 70.1254 70.9587L68.8708 73.8207L63.8133 72.821L63.7153 69.7041C62.7155 69.2336 61.7746 68.6063 60.912 67.8614L58.0108 68.9788L55.1291 64.7053L57.2658 62.4314C56.8934 61.3532 56.6778 60.2554 56.5994 59.1381L53.7373 57.8835L54.7371 52.8259L57.8539 52.7279C58.3244 51.7281 58.9517 50.7872 59.6966 49.9246L58.5793 47.0234L62.8527 44.1417L65.1267 46.2785ZM66.3813 53.5708C63.8525 55.2763 63.1664 58.7068 64.8914 61.2552C66.5969 63.784 70.0274 64.4505 72.5562 62.745C75.085 61.0395 75.7515 57.609 74.046 55.0802C72.3406 52.5318 68.91 51.8653 66.3813 53.5708Z" fill="#EBEBEB"/>
<path d="M89.121 28.4596C87.9252 25.3427 86.1218 22.5199 83.7694 20.1283C79.7312 15.9921 75.1245 12.3459 69.9101 9.77794C64.6957 7.20994 56.1879 4.93599 50.013 4.9752C46.7981 4.85758 45.1906 5.05361 42.2894 6.17098C40.4663 6.87669 38.9373 8.50374 38.8197 10.4052C38.7021 12.1891 39.7998 14.365 41.27 15.404C47.5626 19.8539 52.3458 20.0891 58.4619 22.0494C64.578 23.9901 70.8706 26.8914 74.1639 32.341C75.9478 35.2815 76.9672 39.0649 80.084 40.6331C83.0833 42.1425 87.0627 40.6723 88.9054 37.8887C90.7481 35.0854 90.3168 31.5765 89.121 28.4596Z" fill="#F5F5F5"/>
<path d="M76.9472 131.591L28.3317 131.473C26.3126 131.473 24.6855 130.042 24.6855 128.298C24.6855 126.553 26.3322 125.142 28.3513 125.161L76.9472 125.259C78.9663 125.279 80.5934 126.69 80.5934 128.435C80.5934 130.18 78.9467 131.591 76.9472 131.591Z" fill="#455A64"/>
<path d="M76.9472 123.906L28.3317 123.808C26.3126 123.789 24.6855 122.377 24.6855 120.633C24.6855 118.888 26.3322 117.477 28.3513 117.496L76.9472 117.594C78.9663 117.594 80.5934 119.025 80.5934 120.77C80.5934 122.515 78.9467 123.926 76.9472 123.906Z" fill="#455A64"/>
<path d="M74.9872 132.728L30.4883 132.63C28.6261 132.63 27.1362 134.12 27.1362 135.962C27.1362 137.805 28.6261 139.295 30.4687 139.315H35.3499L41.7993 151.664C42.5442 153.076 43.9948 153.978 45.6023 153.978L61.5003 154.017C63.1078 154.017 64.578 153.115 65.3229 151.684L71.6547 139.393L74.9676 139.413C76.8103 139.413 78.3197 137.923 78.3197 136.08C78.3197 134.237 76.8299 132.728 74.9872 132.728Z" fill="#455A64"/>
<path d="M90.2774 80.937C90.2774 80.937 90.1598 81.133 89.9246 81.4859C89.6763 81.8387 89.3234 82.3549 88.866 83.0345C88.6308 83.3874 88.3694 83.7729 88.0819 84.1911C87.7878 84.6224 87.5134 85.1124 87.1997 85.6221C86.8861 86.1449 86.5463 86.7068 86.1804 87.308C85.8079 87.9157 85.4747 88.5822 85.1022 89.2879C84.9062 89.6407 84.7102 90.0001 84.5141 90.3661C84.4227 90.549 84.3246 90.7385 84.2201 90.9345C84.1286 91.1306 84.0371 91.3266 83.9456 91.5226C83.5667 92.3198 83.1681 93.1628 82.7499 94.0514C82.3839 94.9532 81.9984 95.8941 81.5933 96.8743C81.2404 97.8544 80.868 98.8934 80.4955 99.9715C79.829 102.167 79.1625 104.519 78.692 107.087C78.202 109.636 77.8491 112.4 77.8883 115.301V115.36H77.8295C63.7153 115.36 46.0922 115.38 25.9403 115.38H25.8619L25.8423 115.301C25.3718 109.518 23.784 103.539 21.1768 97.7564C19.8634 94.8747 18.3147 92.0323 16.5504 89.2683C15.6748 87.883 14.7404 86.5239 13.7472 85.1909C12.7867 83.8382 11.6693 82.564 10.5911 81.2702L10.4735 81.1134H10.6695L10.6107 81.2702C5.9256 75.2717 2.45587 67.9206 0.92683 59.9422C0.711197 58.9424 0.573978 57.923 0.417153 56.9233C0.358344 56.4136 0.319138 55.9039 0.260329 55.3943L0.181918 54.6101L0.123108 53.8456C0.103505 53.3359 0.0642972 52.8263 0.0446942 52.297C0.0316255 51.7873 0.0185574 51.2711 0.00548872 50.7483C-0.0141143 50.2387 0.0250929 49.7094 0.0250929 49.1997C0.044696 48.6704 0.0446966 48.1607 0.0839026 47.6315C0.319139 43.4756 1.04445 39.3002 2.31865 35.2424C5.94521 23.6374 13.806 13.8162 23.5095 7.75891C25.9403 6.22987 28.4691 4.91647 31.0567 3.8383C33.6443 2.74053 36.3103 1.91721 38.9959 1.28991C44.3671 0.0353169 49.8168 -0.258728 55.0508 0.211744C57.658 0.466583 60.226 0.897849 62.7156 1.52515C65.2051 2.17205 67.5967 2.95617 69.9099 3.91671C72.1838 4.91647 74.3794 6.03384 76.4573 7.26883C78.5156 8.54303 80.4563 9.91524 82.2598 11.3855C85.8667 14.3651 88.964 17.7172 91.4536 21.2654C93.9824 24.7939 95.9035 28.5381 97.3541 32.2431C97.7266 33.1448 98.001 34.0858 98.3343 35.0071C98.6283 35.9285 98.8636 36.8694 99.138 37.7711C99.334 38.6925 99.5693 39.5942 99.7457 40.496C99.8241 40.9534 99.9025 41.4042 99.9809 41.8486C100.059 42.2994 100.157 42.7307 100.197 43.1816C100.687 46.7297 100.804 50.121 100.608 53.2771C100.255 59.5893 98.7459 64.9017 97.1189 69.0184C96.2955 71.0767 95.3938 72.841 94.5901 74.3504C93.7668 75.8402 93.0022 77.0752 92.3553 78.0554C92.0286 78.5389 91.7411 78.9636 91.4928 79.3295C91.2184 79.6824 90.9962 79.9764 90.8263 80.2117C90.4735 80.6822 90.3166 80.8978 90.2774 80.937C90.3166 80.8978 90.4539 80.6822 90.8067 80.2117C90.9766 79.9764 91.1922 79.6759 91.4536 79.31C91.7019 78.944 91.9894 78.5193 92.3161 78.0358C92.963 77.0556 93.708 75.8206 94.5313 74.3308C95.335 72.8018 96.2171 71.0571 97.0405 68.9792C98.6675 64.8625 100.138 59.5697 100.491 53.2771C100.687 50.121 100.569 46.7493 100.059 43.2012C100.02 42.7503 99.9417 42.319 99.8633 41.8682C99.7718 41.4238 99.6869 40.9795 99.6085 40.5352C99.432 39.6334 99.1968 38.7317 99.0008 37.8103C98.7263 36.889 98.4911 35.9677 98.197 35.0463C97.8834 34.1446 97.5893 33.2036 97.2169 32.2823C95.7859 28.5969 93.8648 24.8723 91.336 21.3634C88.8464 17.8153 85.7491 14.4827 82.1618 11.5227C80.3583 10.0525 78.4176 8.68025 76.3593 7.42566C74.301 6.19067 72.1054 5.07329 69.8315 4.09314C67.5379 3.1326 65.1463 2.34847 62.6764 1.70158C60.1868 1.07428 57.6384 0.662614 55.0312 0.407774C49.8168 -0.0626982 44.3867 0.231347 39.0351 1.48594C36.3691 2.11324 33.7031 2.91696 31.1351 4.01473C28.5475 5.0929 26.0383 6.4063 23.6271 7.91573C13.9628 13.9535 6.14124 23.7354 2.51468 35.3012C1.24048 39.3394 0.515169 43.5148 0.279933 47.6511C0.26033 48.1607 0.240724 48.69 0.240724 49.1997C0.221121 49.729 0.181917 50.2387 0.221123 50.7483C0.221123 51.2711 0.227656 51.7873 0.240724 52.297C0.260327 52.8067 0.299534 53.3163 0.33874 53.826L0.377948 54.6101L0.456359 55.3747C0.515168 55.8647 0.573976 56.3744 0.632785 56.8841C0.789609 57.9034 0.907227 58.9032 1.12286 59.903C2.63229 67.8618 6.10203 75.1737 10.7479 81.1526L10.8852 81.3095H10.6695L10.7479 81.1526C11.8261 82.4464 12.9239 83.7206 13.904 85.0732C14.8973 86.4062 15.8317 87.7719 16.7073 89.1703C18.4715 91.9343 20.0398 94.7767 21.3336 97.678C23.9604 103.48 25.5482 109.479 26.0187 115.281L25.9403 115.203C46.0922 115.223 63.7153 115.223 77.8295 115.242L77.7707 115.301C77.7315 112.38 78.1039 109.616 78.5744 107.068C79.0645 104.5 79.731 102.128 80.4171 99.9519C80.7896 98.8738 81.1424 97.8348 81.5149 96.8351C81.92 95.8549 82.3055 94.914 82.6715 94.0122C83.0897 93.1366 83.4882 92.2937 83.8672 91.4834C83.9587 91.2874 84.0502 91.0914 84.1417 90.8953C84.2462 90.7124 84.3508 90.5229 84.4553 90.3269C84.6514 89.9609 84.8474 89.6015 85.0434 89.2487C85.4159 88.5626 85.7491 87.8765 86.1216 87.2884C86.4875 86.6872 86.8273 86.1253 87.1409 85.6025C87.4742 85.0928 87.7486 84.6028 88.0427 84.1715C88.3302 83.7533 88.5916 83.3678 88.8268 83.0149C89.2973 82.3354 89.6567 81.8191 89.905 81.4663C90.1402 81.133 90.2774 80.937 90.2774 80.937Z" fill="#263238"/>
<path d="M7.21918 67.1957C7.20611 67.1957 7.18651 67.1565 7.16037 67.0781C7.13423 66.9996 7.10156 66.8886 7.06236 66.7448C6.95781 66.4442 6.81405 66.0195 6.63109 65.4706C6.55267 65.1962 6.45466 64.8891 6.33704 64.5493C6.23903 64.216 6.16061 63.824 6.0626 63.4319C5.86657 62.6282 5.59212 61.7068 5.4353 60.6875C5.33075 60.1647 5.2262 59.6289 5.12165 59.08C5.02364 58.5115 4.98443 57.9234 4.88642 57.3157C4.70999 56.1004 4.65118 54.787 4.55316 53.3951C4.45515 50.6507 4.55317 47.5926 4.96483 44.4366C5.4157 41.2805 6.14101 38.3204 6.96434 35.674C7.41521 34.3802 7.82687 33.1256 8.33655 32.0082C8.57179 31.4398 8.78742 30.8713 9.02266 30.3616C9.27096 29.8519 9.51273 29.3618 9.74797 28.8914C10.1792 27.9504 10.6693 27.1271 11.081 26.4018C11.277 26.0489 11.473 25.7157 11.6495 25.402C11.8455 25.1145 12.0219 24.8466 12.1787 24.5983C12.5055 24.1148 12.7538 23.7423 12.9237 23.4809C13.0021 23.3633 13.0674 23.2653 13.1197 23.1869C13.172 23.1215 13.1981 23.0889 13.1981 23.0889C13.1981 23.0889 13.1785 23.1281 13.1393 23.2065C13.1001 23.2718 13.0413 23.3698 12.9629 23.5005C12.793 23.775 12.5577 24.154 12.2572 24.6375C12.1003 24.8858 11.9239 25.1603 11.7279 25.4608C11.5514 25.7549 11.375 26.1077 11.179 26.4606C10.7869 27.2055 10.2969 28.0092 9.86559 28.9502C9.64342 29.4206 9.40818 29.9173 9.15988 30.44C8.92464 30.9497 8.72861 31.4986 8.49337 32.0671C7.9837 33.1844 7.59164 34.439 7.14077 35.7328C6.33704 38.3596 5.61173 41.3197 5.16086 44.4562C4.7492 47.6123 4.67078 50.6507 4.74919 53.3951C4.82761 54.7674 4.88642 56.0808 5.06284 57.2961C5.14126 57.9038 5.18046 58.4919 5.27848 59.0408C5.38303 59.6028 5.48104 60.1386 5.57252 60.6483C5.72935 61.6872 5.98419 62.589 6.16061 63.4123C6.25863 63.8043 6.33704 64.1768 6.43506 64.5297C6.53961 64.8694 6.63108 65.1766 6.7095 65.451C6.87939 65.9999 7.01008 66.4312 7.10156 66.7448C7.14076 66.8755 7.1669 66.9866 7.17997 67.0781C7.20611 67.1565 7.21918 67.1957 7.21918 67.1957Z" fill="#263238"/>
<path d="M22.1963 14.4438C22.2159 14.483 21.0201 15.5808 19.4911 16.8942C17.9621 18.2272 16.6879 19.2465 16.6487 19.2073C16.6291 19.1681 17.8249 18.0703 19.3539 16.7373C20.8829 15.4239 22.1571 14.385 22.1963 14.4438Z" fill="#263238"/>
<path d="M90.8066 72.8798C90.8066 72.8798 90.8197 72.8537 90.8458 72.8014C90.872 72.723 90.9112 72.638 90.9635 72.5465C91.0811 72.3113 91.2379 71.9846 91.4339 71.5664C91.5385 71.3573 91.6496 71.1286 91.7672 70.8803C91.8848 70.6255 92.0024 70.3314 92.1396 70.0374C92.3945 69.4297 92.7277 68.7436 93.0022 67.979C93.159 67.587 93.3158 67.1753 93.4726 66.744C93.6491 66.3324 93.7863 65.8815 93.9431 65.411C94.2568 64.4897 94.5312 63.4899 94.8449 62.4314C95.3937 60.2947 95.8838 57.9423 96.1975 55.4135C96.4915 52.9043 96.5699 50.4735 96.5503 48.278C96.5111 47.1802 96.4915 46.1413 96.3935 45.1611C96.3347 44.671 96.3151 44.2006 96.2563 43.7497C96.204 43.3054 96.1517 42.8741 96.0995 42.4559C96.0014 41.6326 95.8446 40.9073 95.7466 40.2408C95.6878 39.9271 95.6486 39.6135 95.5898 39.339C95.5244 39.0646 95.4656 38.8163 95.4134 38.5941C95.3219 38.1498 95.25 37.7969 95.1977 37.5355C95.1716 37.431 95.152 37.3395 95.1389 37.2611C95.1258 37.1958 95.1258 37.1631 95.1389 37.1631C95.1389 37.1631 95.1454 37.1958 95.1585 37.2611C95.1846 37.3264 95.2108 37.4179 95.2369 37.5355C95.3023 37.7838 95.3872 38.1302 95.4918 38.5745C95.544 38.7967 95.6094 39.045 95.6878 39.3194C95.7466 39.5939 95.7858 39.9075 95.8642 40.2212C95.9818 40.8681 96.1387 41.613 96.2367 42.4363C96.2889 42.8545 96.3478 43.2858 96.4131 43.7301C96.4719 44.2006 96.5111 44.671 96.5503 45.1611C96.6679 46.1217 96.6875 47.1802 96.7464 48.278C96.7856 50.4735 96.6875 52.9043 96.3935 55.4331C96.0799 57.9619 95.5898 60.3535 95.0213 62.4706C94.7076 63.5292 94.4332 64.5485 94.0999 65.4699C93.9235 65.9403 93.7863 66.3912 93.6295 66.8029C93.4596 67.2341 93.2962 67.6393 93.1394 68.0182C92.8453 68.8024 92.5121 69.4885 92.2377 70.0766C92.1004 70.3902 91.9828 70.6647 91.8652 70.9195C91.7345 71.1678 91.6104 71.3965 91.4927 71.6056C91.2836 72.0107 91.1203 72.3309 91.0027 72.5662C90.9373 72.6576 90.8916 72.736 90.8654 72.8014C90.8262 72.8537 90.8066 72.8798 90.8066 72.8798Z" fill="#263238"/>
<path d="M74.5558 24.8923C71.8702 23.3437 69.0669 21.9518 66.0481 21.2853C65.6364 21.1873 65.1856 21.1089 64.7739 21.1677C64.3426 21.2461 63.9114 21.4814 63.7349 21.8734C63.4605 22.4027 63.7153 23.0496 64.0486 23.5397C64.7739 24.6375 65.8521 25.4412 66.9498 26.1665C69.9491 28.1464 73.164 29.7734 76.3789 31.3809C75.9672 29.0873 75.1635 27.127 74.5558 24.8923Z" fill="#FF725E"/>
<path d="M95.1196 30.7932C96.0018 33.7533 97.0407 36.7133 98.7658 39.2813C99.001 39.6342 99.2755 40.0067 99.6283 40.2419C99.9812 40.4967 100.452 40.6143 100.844 40.4575C101.412 40.2615 101.667 39.6146 101.785 39.0461C102.02 37.7523 101.785 36.4193 101.491 35.1451C100.706 31.6362 99.4911 28.2252 98.2953 24.8535C97.0015 26.7746 96.2174 28.7545 95.1196 30.7932Z" fill="#FF725E"/>
<path d="M74.5166 24.8334C74.5166 24.8334 74.7322 45.3578 86.2392 45.7498C97.7658 46.1615 98.2363 24.9706 98.2363 24.8334C98.2363 24.8334 96.8837 21.7753 86.3764 21.893C75.8692 22.0106 74.5166 24.8334 74.5166 24.8334Z" fill="#FF725E"/>
<path d="M89.8074 32.9693C89.6506 35.1648 87.7491 36.8115 85.5731 36.6547C83.3776 36.4979 81.731 34.5964 81.8878 32.4008C82.0642 30.2053 83.9657 28.5782 86.1416 28.7351C88.3372 28.8919 89.9838 30.7934 89.8074 32.9693Z" fill="#263238"/>
<path d="M88.7489 32.891C88.6313 34.4984 87.2394 35.6942 85.6516 35.5766C84.0441 35.459 82.8484 34.0672 82.966 32.4793C83.0836 30.8915 84.4754 29.6957 86.0633 29.7937C87.6511 29.9113 88.8665 31.3031 88.7489 32.891Z" fill="white"/>
<path d="M87.3374 33.4201C87.3374 33.4201 87.3178 33.2436 87.3178 32.9496C87.3178 32.6555 87.2982 32.2243 87.2982 31.695L87.3374 31.7538C86.9061 31.499 86.3964 31.2049 85.8475 30.8913H85.926C85.4555 31.1461 84.9654 31.4402 84.4361 31.7342C84.3969 31.8126 84.4753 31.6362 84.4753 31.6558V31.6754V31.695V31.7146V31.7734V31.891V32.1067C84.4623 32.2504 84.4557 32.4007 84.4557 32.5575C84.4557 32.845 84.4492 33.1195 84.4361 33.3809L84.3969 33.3024C84.9458 33.6357 85.4359 33.9493 85.8671 34.2042H85.8083C86.2592 33.9689 86.6513 33.7729 86.9061 33.6357C87.1805 33.4985 87.3374 33.4201 87.3374 33.4201C87.357 33.4397 87.2198 33.5181 86.9649 33.6749C86.7101 33.8317 86.3376 34.0474 85.8671 34.3218L85.8475 34.3414L85.8083 34.3218C85.3771 34.067 84.8674 33.7729 84.3185 33.4593L84.2793 33.4397V33.3809C84.2793 33.1064 84.2793 32.8254 84.2793 32.5379C84.2793 32.3942 84.2858 32.2504 84.2989 32.1067V31.891V31.7734V31.7146V31.695V31.6754V31.6558C84.2793 31.6754 84.3773 31.5186 84.3381 31.5774C84.8674 31.2833 85.3771 31.0089 85.8475 30.754L85.8867 30.7148L85.926 30.754C86.4748 31.0873 86.9845 31.3813 87.3962 31.6558L87.4354 31.6754V31.695C87.4158 32.2439 87.3962 32.6751 87.3962 32.9692C87.3766 33.2828 87.357 33.4397 87.3374 33.4201Z" fill="#FF725E"/>
<path d="M74.458 24.8145C74.4711 24.8145 74.4972 24.821 74.5364 24.8341C74.5756 24.8471 74.6279 24.8667 74.6932 24.8929C74.8631 24.9451 75.0918 25.0236 75.3794 25.1281C75.5231 25.1804 75.6799 25.2326 75.8498 25.2849C76.0262 25.3437 76.2223 25.4025 76.4379 25.481C76.8496 25.5986 77.32 25.7554 77.8493 25.8926C78.1238 25.958 78.4047 26.0233 78.6923 26.0886C78.9863 26.1671 79.2803 26.2259 79.6136 26.2847C80.2409 26.4415 80.927 26.5395 81.6327 26.6571C83.0637 26.8532 84.6712 26.9904 86.3374 26.9904C88.0233 26.9904 89.6111 26.8532 91.0422 26.6571C91.7675 26.5395 92.4536 26.4415 93.0809 26.3043C93.3945 26.2259 93.7082 26.1671 93.9826 26.1083C94.2832 26.0298 94.5642 25.958 94.8256 25.8926C95.3548 25.7554 95.8253 25.5986 96.2566 25.481C96.4526 25.4025 96.6486 25.3633 96.8251 25.3045C97.008 25.2392 97.1714 25.1804 97.3151 25.1281C97.6026 25.0236 97.8248 24.9451 97.9816 24.8929C98.06 24.8667 98.1189 24.8471 98.1581 24.8341C98.1189 24.8471 98.06 24.8733 97.9816 24.9125C97.8248 24.9647 97.6026 25.0432 97.3151 25.1477C97.1714 25.2 97.0146 25.2588 96.8447 25.3241C96.6682 25.4025 96.4722 25.4418 96.2566 25.5202C95.8449 25.6378 95.3744 25.8142 94.8452 25.9318C94.5707 26.0102 94.2897 26.0886 94.0022 26.1671C93.7082 26.2259 93.4141 26.2847 93.1005 26.3631C92.4536 26.5003 91.7871 26.6179 91.0618 26.7355C89.6111 26.9316 88.0233 27.0688 86.3374 27.0688C84.6516 27.0688 83.0637 26.9316 81.6327 26.7355C80.9074 26.6179 80.2213 26.5003 79.594 26.3631C79.2804 26.2847 78.9667 26.2259 78.6727 26.1671C78.3851 26.0886 78.1107 26.0102 77.8493 25.9318C77.3004 25.8142 76.83 25.6378 76.4183 25.5202C76.2027 25.4418 76.0066 25.3829 75.8302 25.3241C75.6603 25.2588 75.5035 25.2 75.3597 25.1477C75.0722 25.0432 74.8501 24.9582 74.6932 24.8929C74.6279 24.8667 74.5691 24.8471 74.5168 24.8341C74.4776 24.821 74.458 24.8145 74.458 24.8145Z" fill="#263238"/>
<g opacity="0.3">
<path d="M74.5166 24.8334C74.5166 24.8334 75.8692 22.0106 86.3764 21.893C96.8837 21.7753 98.2363 24.8334 98.2363 24.8334C98.2363 24.8334 87.6506 30.0478 74.5166 24.8334Z" fill="black"/>
</g>
<path d="M78.1235 39.4379C78.1235 39.4379 78.117 39.4248 78.1039 39.3987C78.0908 39.3726 78.0778 39.3464 78.0647 39.3203C78.0124 39.2288 77.9471 39.1047 77.8687 38.9478C77.8295 38.8694 77.7837 38.7845 77.7315 38.693C77.6922 38.5884 77.64 38.4839 77.5746 38.3793C77.4766 38.1441 77.359 37.8893 77.2414 37.5952C77.176 37.4515 77.1107 37.3012 77.0453 37.1444C76.9931 36.9745 76.9343 36.8046 76.8689 36.6347C76.7317 36.2818 76.6141 35.9094 76.4769 35.5173C76.2416 34.7136 76.0064 33.8314 75.7907 32.8905C75.5751 31.9496 75.4183 31.0478 75.3007 30.2245C75.1831 29.4012 75.085 28.6562 75.0458 28.0289C75.0197 27.7153 74.9936 27.4278 74.9674 27.1664C74.9544 26.9181 74.9478 26.709 74.9478 26.5391C74.9348 26.3692 74.9282 26.232 74.9282 26.1275C74.9282 26.0883 74.9282 26.0556 74.9282 26.0294C74.9413 26.0556 74.9478 26.0883 74.9478 26.1275C74.9478 26.232 74.9544 26.3692 74.9674 26.5391C74.9805 26.709 75.0001 26.9181 75.0262 27.1664C75.0393 27.4147 75.0654 27.6957 75.1046 28.0093C75.1635 28.6366 75.2615 29.3816 75.3791 30.2049C75.4967 31.0282 75.6535 31.93 75.8692 32.8709C76.0848 33.8118 76.32 34.694 76.5553 35.4977C76.6925 35.8898 76.7905 36.2622 76.9277 36.6151C76.9931 36.785 77.0519 36.9549 77.1042 37.1248C77.1695 37.2816 77.2348 37.4319 77.3002 37.5756C77.3982 37.8697 77.5158 38.1245 77.6334 38.3597C77.6726 38.4774 77.7184 38.5819 77.7707 38.6734C77.8099 38.7649 77.8491 38.8564 77.8883 38.9478C77.9667 39.0916 78.0255 39.2092 78.0647 39.3007C78.0908 39.3399 78.1104 39.3726 78.1235 39.3987C78.1235 39.4248 78.1235 39.4379 78.1235 39.4379Z" fill="white"/>
<path d="M83.6713 44.3778C83.6713 44.3778 83.6125 44.3647 83.4949 44.3386C83.3772 44.3386 83.2008 44.2994 83.0048 44.221C82.8087 44.1621 82.5539 44.0837 82.2991 43.9661C82.0442 43.8289 81.7894 43.6917 81.515 43.4956C81.2405 43.3192 81.0053 43.1036 80.8092 42.9076C80.6132 42.7115 80.4564 42.5155 80.3192 42.3391C80.2016 42.1822 80.1035 42.0254 80.0447 41.9274C79.9925 41.8229 79.9663 41.764 79.9663 41.751C79.9859 41.751 80.1035 41.9862 80.378 42.2999C80.4956 42.4763 80.672 42.6527 80.8681 42.8487C81.0641 43.0448 81.2993 43.2408 81.5542 43.4368C81.8286 43.6133 82.0834 43.7701 82.3383 43.8877C82.5931 44.0053 82.8284 44.1033 83.0244 44.1818C83.4164 44.2994 83.6713 44.3582 83.6713 44.3778Z" fill="white"/>
<path d="M86.0829 37.1246C86.0829 37.1246 86.0437 37.1311 85.9653 37.1442C85.9065 37.1442 85.7889 37.1638 85.6516 37.1442C85.3772 37.1442 84.9851 37.105 84.5147 36.9678C84.2664 36.8894 84.0115 36.7848 83.7501 36.6541C83.4953 36.5169 83.2405 36.3601 82.9856 36.1641C82.4759 35.7524 81.9859 35.1839 81.6918 34.4978C81.3978 33.8117 81.2998 33.0668 81.3586 32.4199C81.3782 32.0866 81.437 31.7926 81.5154 31.4985C81.6069 31.2241 81.7049 30.9758 81.8094 30.7536C82.0251 30.3223 82.2799 29.9891 82.4563 29.7931C82.5544 29.6755 82.6328 29.6166 82.672 29.5578C82.7373 29.5186 82.77 29.499 82.77 29.499C82.77 29.499 82.6524 29.597 82.476 29.8127C82.2995 30.0087 82.0643 30.342 81.8682 30.7732C81.7637 30.9954 81.6722 31.2437 81.5938 31.5181C81.5154 31.8122 81.4566 32.1062 81.437 32.4199C81.3782 33.0668 81.4762 33.7921 81.7702 34.4586C82.0643 35.1447 82.5348 35.6936 83.0248 36.1052C83.2797 36.3013 83.5345 36.4581 83.7893 36.5953C84.0507 36.726 84.2925 36.8306 84.5147 36.909C84.9851 37.0462 85.3772 37.105 85.6516 37.1246C85.9261 37.1246 86.0829 37.1246 86.0829 37.1246Z" fill="white"/>
<path d="M85.5729 3.48582C85.5729 3.48582 75.5362 3.3682 73.9484 12.0719C72.3605 20.7561 80.8486 20.9129 83.299 21.0893C84.3968 21.1677 86.7687 21.1677 88.8663 21.1285C93.4926 21.0501 96.7663 20.1484 97.8836 15.8553C98.0013 15.3653 98.0993 14.8556 98.1189 14.3263C98.4129 9.62157 95.2372 3.25059 85.5729 3.48582Z" fill="#FF725E"/>
<path d="M92.8652 16.7373L78.2806 16.953C76.7516 16.9922 75.497 15.7572 75.4578 14.2282C75.4382 12.6991 76.6535 11.4445 78.1826 11.4249L92.7868 11.1897C94.3159 11.1701 95.5705 12.3855 95.5901 13.9145C95.6097 15.4435 94.3943 16.7177 92.8652 16.7373Z" fill="#263238"/>
<path d="M81.2992 13.9348C81.2012 14.4249 80.7503 14.7385 80.2602 14.6405C79.7702 14.5425 79.4565 14.072 79.5545 13.6016C79.6526 13.1115 80.123 12.7978 80.6131 12.8959C81.0836 12.9939 81.3972 13.4447 81.2992 13.9348Z" fill="white"/>
<path d="M91.4931 13.7776C91.395 14.2481 90.9442 14.5617 90.4541 14.4637C89.964 14.3853 89.6504 13.9148 89.7484 13.4247C89.8464 12.9543 90.3169 12.6406 90.7873 12.719C91.2774 12.8171 91.5911 13.2875 91.4931 13.7776Z" fill="white"/>
<path d="M83.8679 13.5225C83.9267 13.5225 83.8875 13.8361 84.0836 14.2478C84.1816 14.4634 84.3384 14.679 84.554 14.8751C84.7697 15.0711 85.0637 15.2083 85.397 15.2475C85.7106 15.2671 86.0243 15.1887 86.2791 15.0319C86.5339 14.8751 86.73 14.6986 86.8672 14.5026C87.122 14.1302 87.1416 13.8165 87.22 13.8361C87.2396 13.8361 87.2592 13.9145 87.2592 14.0517C87.2592 14.2086 87.22 14.4242 87.1024 14.6594C86.9848 14.8947 86.7888 15.1495 86.4751 15.3455C86.1811 15.5416 85.789 15.6788 85.3577 15.6592C84.9265 15.6004 84.554 15.4044 84.2992 15.1495C84.0444 14.8947 83.8875 14.6202 83.8091 14.3458C83.7503 14.091 83.7307 13.8753 83.7699 13.7381C83.7895 13.5813 83.8287 13.5225 83.8679 13.5225Z" fill="white"/>
<path d="M84.2795 4.13281C84.2534 4.14588 84.2142 4.15242 84.1619 4.15242C84.0835 4.15242 83.9462 4.17202 83.7698 4.19162C83.417 4.21123 82.8877 4.28964 82.28 4.42686C81.6527 4.58368 80.947 4.79931 80.1825 5.15217C79.418 5.50502 78.6142 5.9951 77.8693 6.60279C77.1244 7.23009 76.5167 7.9162 76.0266 8.5827C75.5365 9.2688 75.1641 9.93531 74.9093 10.5234C74.6544 11.0919 74.478 11.582 74.38 11.9152C74.3212 12.0916 74.3016 12.2289 74.282 12.3269C74.2689 12.3661 74.2558 12.3988 74.2428 12.4249C74.2428 12.3988 74.2493 12.3595 74.2624 12.3073C74.282 12.2289 74.3016 12.0916 74.3604 11.9152C74.4388 11.5624 74.5956 11.0723 74.8504 10.4842C75.1053 9.9157 75.4581 9.2296 75.9482 8.54349C76.4383 7.85739 77.0656 7.17128 77.8301 6.54399C78.575 5.91669 79.3787 5.44621 80.1433 5.09336C80.9078 4.74051 81.6527 4.50527 82.2604 4.36805C82.8877 4.23083 83.3974 4.17202 83.7502 4.15242C83.9266 4.13281 84.0835 4.13281 84.1619 4.13281C84.2142 4.13281 84.2534 4.13281 84.2795 4.13281Z" fill="white"/>
<path d="M74.4775 16.1891C74.4775 16.1891 74.4187 16.0714 74.3403 15.8754C74.2619 15.6794 74.1835 15.3853 74.1443 15.0717C74.0855 14.758 74.0854 14.4444 74.0854 14.2484C74.0854 14.0327 74.1247 13.8955 74.1247 13.8955C74.1443 13.8955 74.1247 14.4248 74.2227 15.0521C74.3207 15.699 74.5167 16.1695 74.4775 16.1891Z" fill="white"/>
<path d="M90.4543 10.6798C90.4543 10.6994 88.5332 10.719 86.1612 10.719C83.7893 10.719 81.8682 10.6994 81.8682 10.6798C81.8682 10.6602 83.7893 10.6406 86.1612 10.6406C88.5332 10.6406 90.4543 10.6602 90.4543 10.6798Z" fill="white"/>
<path d="M83.1229 20.4626C83.1229 20.4757 83.1033 20.4822 83.0641 20.4822C82.9988 20.4822 82.9269 20.4888 82.8485 20.5018C82.757 20.5149 82.6459 20.5214 82.5152 20.5214C82.3976 20.5214 82.2408 20.5214 82.084 20.5214C81.7507 20.5214 81.3586 20.5018 80.9274 20.4626C80.4961 20.4038 80.0256 20.3254 79.5552 20.2078C79.0651 20.1098 78.6142 19.9529 78.2026 19.8157C77.7909 19.6589 77.438 19.5021 77.144 19.3648C77.0068 19.2864 76.8696 19.2276 76.7519 19.1688C76.6343 19.1035 76.5363 19.0447 76.4579 18.9924C76.3926 18.9532 76.3337 18.9205 76.2815 18.8944C76.2423 18.8682 76.2227 18.8552 76.2227 18.8552C76.2227 18.8421 76.2488 18.8486 76.3011 18.8748C76.3533 18.9009 76.4121 18.9336 76.4775 18.9728C76.5559 19.012 76.6539 19.0643 76.7715 19.1296C76.8892 19.1688 77.0264 19.2472 77.1636 19.306C77.4576 19.4433 77.8301 19.6001 78.2222 19.7373C78.6338 19.8745 79.0847 20.0313 79.5748 20.1294C80.0452 20.247 80.5157 20.3254 80.947 20.3842C81.3586 20.4234 81.7507 20.4626 82.084 20.4626C82.2408 20.4822 82.3976 20.4626 82.5152 20.4822C82.6459 20.4822 82.757 20.4757 82.8485 20.4626C82.9269 20.4626 82.9988 20.4626 83.0641 20.4626C83.1033 20.4626 83.1229 20.4626 83.1229 20.4626Z" fill="white"/>
<path d="M95.3744 26.0889C95.3483 26.1019 95.3091 26.1215 95.2568 26.1477C95.1523 26.1869 95.0085 26.2392 94.8256 26.3045C94.6426 26.3698 94.4139 26.4417 94.1395 26.5201C93.865 26.5985 93.5514 26.7162 93.1985 26.7946C93.0286 26.8338 92.8456 26.8795 92.6496 26.9318C92.4732 26.9906 92.2576 27.0298 92.0615 27.069C91.6499 27.167 91.199 27.2454 90.7481 27.3435C89.8072 27.5003 88.7682 27.6375 87.6705 27.6963C86.5727 27.7747 85.5337 27.7551 84.5928 27.7159C84.1027 27.6963 83.6518 27.6571 83.2402 27.6179C83.0245 27.5983 82.8285 27.5787 82.6325 27.5591C82.4364 27.533 82.2469 27.5068 82.064 27.4807C81.7111 27.4415 81.3975 27.3631 81.123 27.3239C80.8355 27.2716 80.5938 27.2258 80.3977 27.1866C80.2017 27.1344 80.0514 27.1017 79.9469 27.0886C79.8946 27.0756 79.8554 27.0625 79.8292 27.0494C79.8031 27.0494 79.79 27.0494 79.79 27.0494C79.79 27.0363 79.8031 27.0363 79.8292 27.0494C79.8685 27.0494 79.9077 27.0559 79.9469 27.069C80.0645 27.0821 80.2148 27.1082 80.3977 27.1474C80.5938 27.1866 80.8355 27.2324 81.123 27.2847C81.3975 27.3239 81.7307 27.3827 82.0836 27.4219C82.2535 27.448 82.4364 27.4741 82.6325 27.5003C82.8285 27.5199 83.0441 27.5395 83.2402 27.5591C83.6714 27.5983 84.1223 27.6179 84.5928 27.6375C85.5337 27.6767 86.5727 27.6767 87.6705 27.6179C88.7486 27.5591 89.7876 27.4219 90.7285 27.265C91.199 27.1866 91.6303 27.1082 92.0419 27.0102C92.2576 26.971 92.4536 26.9318 92.6496 26.873C92.8326 26.8338 93.009 26.788 93.1789 26.7358C93.5318 26.6574 93.8454 26.5593 94.1198 26.4809C94.3943 26.4025 94.6295 26.3306 94.8256 26.2653C95.0085 26.1999 95.1523 26.1542 95.2568 26.1281C95.3091 26.115 95.3483 26.1019 95.3744 26.0889Z" fill="white"/>
<path d="M63.7354 64.7646L65.3232 79.5845L74.8699 82.7602L75.262 87.3669L61.7947 86.4652C61.7947 86.4652 57.6389 86.5632 56.7371 81.1136L56.5215 66.7446L63.7354 64.7646Z" fill="#FFBE9D"/>
<path d="M83.5146 87.288C83.3382 87.484 83.0638 87.582 82.8089 87.484C82.7566 87.471 82.7044 87.4448 82.6521 87.4056C82.3189 87.2096 82.5541 86.4647 82.5541 86.4647L80.8682 85.7198C80.8682 85.7198 78.2022 86.5823 77.124 87.3468C76.0459 88.1113 74.1836 86.7587 74.1836 86.7587L74.458 82.8381L78.4571 80.7602C78.4571 80.7602 78.2218 80.8778 78.5943 80.3877C78.9471 79.8977 79.9273 80.3877 79.9273 80.3877C80.1429 80.1525 80.829 80.2309 80.829 80.2309L83.593 81.3091C84.1615 81.5247 84.5928 81.9952 84.7692 82.5833L85.4749 84.7984C85.4749 84.7984 85.7494 86.3274 85.5533 86.6215C85.2789 87.0528 84.8084 86.8175 84.8084 86.8175C84.8084 86.8175 84.4164 87.6801 84.1811 87.6409C83.9263 87.6212 83.5146 87.288 83.5146 87.288Z" fill="#FFBE9D"/>
<path d="M77.9083 86.8959C77.9083 86.909 77.9737 86.8828 78.1044 86.8175C78.2481 86.7521 78.4441 86.6672 78.6924 86.5626C79.1825 86.347 79.9274 86.053 80.888 85.7785L80.8488 85.7589C81.3389 85.9942 81.9073 86.249 82.515 86.5234L82.4758 86.445C82.4366 86.5822 82.417 86.7195 82.3974 86.8763C82.3974 87.0331 82.3974 87.1899 82.4954 87.3468C82.5346 87.4252 82.6131 87.484 82.6915 87.5232C82.7699 87.5624 82.8483 87.5885 82.9267 87.6016C83.1031 87.6212 83.2992 87.582 83.4364 87.484C83.4756 87.4578 83.5083 87.4252 83.5344 87.386L83.5736 87.3664V87.3468C83.6128 87.3468 83.3776 87.3664 83.4756 87.3664L83.5148 87.4056C83.5932 87.4448 83.6651 87.4905 83.7304 87.5428C83.7958 87.582 83.8677 87.6212 83.9461 87.6604C83.9853 87.6865 84.031 87.7062 84.0833 87.7192C84.1225 87.7192 84.1813 87.7388 84.2597 87.7192C84.3773 87.68 84.4361 87.6016 84.495 87.5428C84.5472 87.4644 84.593 87.3925 84.6322 87.3272C84.7237 87.1703 84.8086 87.0135 84.887 86.8567L84.7694 86.8959C84.985 86.9939 85.2595 87.0135 85.4751 86.8371C85.5731 86.7587 85.6515 86.6607 85.6907 86.5234C85.7103 86.4058 85.7103 86.2882 85.7103 86.1706C85.7103 85.7001 85.6515 85.2492 85.5731 84.7788L85.5535 84.7592C85.4359 84.3867 85.3183 83.9946 85.1811 83.583C85.1026 83.3347 85.0242 83.0864 84.9458 82.8381C84.8674 82.5832 84.8086 82.3284 84.6714 82.0932C84.5341 81.8579 84.3577 81.6619 84.1421 81.5051C83.9461 81.3286 83.6912 81.2502 83.456 81.1522C82.5543 80.7994 81.6721 80.4661 80.8684 80.1524H80.8488C80.6789 80.1263 80.509 80.1263 80.3391 80.1524C80.1823 80.1721 80.0059 80.1917 79.8686 80.3289L79.9666 80.3093C79.6922 80.1132 79.359 80.0152 79.0453 80.1328C78.7317 80.2309 78.5356 80.4857 78.3984 80.7209L78.4376 80.7013C77.281 81.2894 76.3401 81.7599 75.6736 82.1128C75.3599 82.2826 75.1116 82.4133 74.9287 82.5048C74.7588 82.5963 74.6738 82.6486 74.6738 82.6616C74.6738 82.6616 74.7653 82.6224 74.9483 82.544C75.1443 82.4525 75.3991 82.3349 75.7128 82.1912C76.3793 81.8579 77.3398 81.3874 78.4964 80.819H78.516L78.5356 80.7797C78.6532 80.5641 78.8297 80.3485 79.0845 80.2701C79.3393 80.1917 79.653 80.2701 79.8686 80.4465L79.9274 80.4857L79.9666 80.4269C80.0647 80.3485 80.2215 80.3289 80.3587 80.3093C80.5155 80.2897 80.6724 80.2897 80.8292 80.3093H80.8096C81.6133 80.6229 82.4954 80.9758 83.3972 81.3286C83.6324 81.4266 83.8481 81.5051 84.0441 81.6423C84.2205 81.7991 84.3969 81.9755 84.5145 82.1912C84.6322 82.3872 84.691 82.642 84.7694 82.8969C84.8478 83.1452 84.9262 83.3935 85.0046 83.6418C85.1418 84.0338 85.2595 84.4455 85.3771 84.818V84.7984C85.4555 85.2688 85.5143 85.7197 85.5339 86.1706C85.5339 86.2686 85.5339 86.3862 85.5143 86.4842C85.4947 86.5626 85.4359 86.6411 85.3575 86.6999C85.2203 86.8175 85.0046 86.8175 84.8478 86.7391L84.7498 86.6999L84.7106 86.7783C84.6452 86.9351 84.5734 87.0854 84.495 87.2291C84.4165 87.3664 84.2989 87.5232 84.2009 87.5624C84.2009 87.5624 84.1617 87.5624 84.1225 87.5428C84.0964 87.5428 84.0637 87.5297 84.0245 87.5036C83.9591 87.4774 83.8938 87.4448 83.8284 87.4056C83.75 87.3533 83.6847 87.3075 83.6324 87.2683L83.5736 87.2291C83.6716 87.2095 83.4364 87.2487 83.456 87.2291V87.2487H83.4364L83.4168 87.2683C83.4037 87.2945 83.3776 87.3206 83.3384 87.3468C83.2207 87.4252 83.0835 87.4644 82.9463 87.4448C82.881 87.4317 82.8222 87.4121 82.7699 87.386C82.6915 87.3468 82.6523 87.3272 82.6131 87.2683C82.4954 87.0527 82.5543 86.7391 82.6327 86.4842V86.4254L82.5739 86.3862C81.9662 86.1314 81.3977 85.8765 80.888 85.6609L80.8684 85.6413L80.8488 85.6609C79.8882 85.955 79.1629 86.2686 78.6533 86.5038C78.4049 86.6215 78.2154 86.7129 78.0848 86.7783C77.9671 86.8567 77.9083 86.8959 77.9083 86.8959Z" fill="#EB996E"/>
<path d="M80.143 81.5054C80.1234 81.525 80.4175 81.7406 80.9663 82.0151C81.5152 82.2895 82.3189 82.6032 83.2795 82.7992L83.2011 82.7208C83.2011 82.8776 83.2141 83.0344 83.2403 83.1912C83.3775 84.2694 83.75 85.1908 84.0832 85.7984C84.2596 86.1121 84.4165 86.3473 84.5537 86.5042C84.6713 86.661 84.7497 86.7394 84.7497 86.7394C84.7693 86.7198 84.5145 86.3669 84.2008 85.7396C83.9068 85.1319 83.5539 84.2106 83.4363 83.1717C83.4102 83.0148 83.3906 82.858 83.3775 82.7012V82.6424L83.2991 82.6228C82.3778 82.4267 81.574 82.1523 81.0251 81.8975C80.4763 81.6622 80.143 81.4858 80.143 81.5054Z" fill="#EB996E"/>
<path d="M82.3973 83.8773C82.3385 83.8773 82.3189 84.7006 82.6717 85.6416C83.0246 86.6021 83.5734 87.2294 83.6127 87.1902C83.6519 87.151 83.1814 86.5041 82.8481 85.5828C82.5149 84.6614 82.4561 83.8577 82.3973 83.8773Z" fill="#EB996E"/>
<path d="M73.9287 85.4853C73.9287 85.4853 73.9549 85.5115 74.0071 85.5637C74.0594 85.6029 74.1443 85.6617 74.262 85.7401C74.4776 85.8774 74.8501 86.0734 75.3401 86.1518C75.8302 86.2498 76.4575 86.2498 77.1044 85.995C77.7317 85.7597 78.3786 85.2697 78.7903 84.5444L78.6726 84.5836C79.2607 84.858 79.9664 85.0932 80.6918 85.2109C80.9531 85.2631 81.2145 85.2958 81.4759 85.3089C81.7307 85.3089 82.0052 85.3285 82.26 85.2501C82.3972 85.2305 82.554 85.1521 82.6325 85.0148C82.7109 84.8972 82.7305 84.7404 82.6913 84.6032C82.6521 84.466 82.554 84.3287 82.4364 84.2699C82.3319 84.2046 82.2273 84.1458 82.1228 84.0935C81.319 83.6622 80.5741 83.3094 79.9468 83.0349C79.2999 82.7409 78.7903 82.5449 78.4178 82.4076C78.0454 82.2704 77.8493 82.2116 77.8493 82.2312C77.8297 82.2508 78.0257 82.3292 78.3982 82.4861C78.7511 82.6429 79.2607 82.8585 79.888 83.1525C80.5153 83.4466 81.2406 83.8191 82.0444 84.2503C82.1358 84.3026 82.2339 84.3614 82.3384 84.4267C82.4168 84.466 82.4756 84.5444 82.5148 84.6424C82.5344 84.7404 82.5148 84.8384 82.4756 84.9168C82.4168 84.9952 82.3384 85.0344 82.2208 85.0737C82.0052 85.1325 81.7503 85.1325 81.4955 85.1128C81.2472 85.0998 80.9923 85.0737 80.731 85.0344C80.0057 84.9168 79.3392 84.6816 78.7511 84.4071L78.6726 84.3679L78.6334 84.4464C78.2414 85.1325 77.6533 85.6029 77.0456 85.8578C76.4379 86.1126 75.8302 86.1126 75.3597 86.0538C74.8893 85.9754 74.5168 85.799 74.2816 85.6813C74.0463 85.5637 73.9287 85.4657 73.9287 85.4853Z" fill="#EB996E"/>
<path d="M85.4358 140.805C85.4358 140.805 85.4554 140.687 85.4162 140.452C85.377 140.217 85.279 139.864 85.0437 139.511C84.9849 139.413 84.9261 139.315 84.8281 139.236C84.7301 139.138 84.5732 139.08 84.4164 139.138C84.338 139.158 84.2596 139.236 84.2204 139.334C84.2008 139.413 84.2008 139.511 84.24 139.57C84.2792 139.726 84.3576 139.824 84.436 139.962C84.5733 140.197 84.6909 140.432 84.8673 140.707C84.9653 140.863 85.1809 140.961 85.377 140.942C85.5534 140.922 85.7102 140.824 85.8474 140.726C86.1219 140.53 86.3571 140.315 86.5532 140.079C86.6577 139.962 86.7492 139.838 86.8276 139.707C86.906 139.589 87.004 139.472 87.0432 139.295C87.0824 139.138 87.0236 138.923 86.8276 138.844C86.6316 138.785 86.4943 138.884 86.3767 138.942C86.1611 139.119 86.0435 139.315 85.9063 139.472C85.671 139.824 85.5338 140.158 85.4554 140.373C85.377 140.609 85.3574 140.726 85.377 140.726C85.4162 140.746 85.5338 140.236 86.0435 139.57C86.1611 139.413 86.3179 139.236 86.4944 139.099C86.5728 139.04 86.6904 139.001 86.7492 139.021C86.8276 139.06 86.8668 139.158 86.8472 139.256C86.8276 139.374 86.7492 139.472 86.6512 139.589C86.5728 139.707 86.4878 139.824 86.3963 139.942C86.2003 140.158 85.9651 140.354 85.7298 140.55C85.5926 140.628 85.475 140.707 85.3378 140.726C85.2201 140.726 85.1221 140.687 85.0437 140.589C84.8869 140.354 84.7497 140.079 84.5929 139.844C84.534 139.726 84.4556 139.609 84.4164 139.511C84.3772 139.406 84.3968 139.341 84.4752 139.315C84.6321 139.236 84.8085 139.432 84.9261 139.589C85.3966 140.275 85.3966 140.824 85.4358 140.805Z" fill="#263238"/>
<path d="M75.8697 141.138L71.1062 151.449L63.4414 147.901L68.3618 135.159L75.8697 141.138Z" fill="#FFBE9D"/>
<path d="M72.0073 150.743L69.2236 156.056C69.2236 156.056 76.3395 163.387 75.673 165.034L58.9517 157.036L63.5584 146.411L72.0073 150.743Z" fill="#FF725E"/>
<path d="M64.4016 152.84C64.0487 152.782 63.6371 153.037 63.5586 153.389C63.4802 153.762 63.7351 154.174 64.1075 154.232C64.4604 154.311 64.9505 154.017 64.9897 153.644C65.0289 153.291 64.7152 152.821 64.3428 152.84" fill="#E0E0E0"/>
<g opacity="0.6">
<path d="M58.9517 157.036L59.6574 155.703L75.4182 163.878C75.4182 163.878 76.0063 164.564 75.673 165.034L58.9517 157.036Z" fill="white"/>
</g>
<path d="M69.5379 156.095C69.4987 156.174 69.0675 156.017 68.5382 156.076C68.0089 156.134 67.6364 156.389 67.5776 156.33C67.5188 156.272 67.8717 155.84 68.5186 155.762C69.1459 155.683 69.5967 156.017 69.5379 156.095Z" fill="#263238"/>
<path d="M70.9491 157.664C70.9295 157.742 70.4982 157.722 70.0669 157.919C69.6161 158.134 69.3612 158.467 69.2828 158.428C69.2044 158.409 69.3808 157.899 69.9297 157.644C70.4786 157.389 70.9883 157.585 70.9491 157.664Z" fill="#263238"/>
<path d="M70.9297 160.232C70.8513 160.212 70.9297 159.761 71.361 159.408C71.7727 159.056 72.2431 159.056 72.2431 159.154C72.2627 159.232 71.9099 159.369 71.557 159.644C71.2042 159.938 71.0277 160.271 70.9297 160.232Z" fill="#263238"/>
<path d="M70.3416 154.056C70.2632 154.115 69.9495 153.821 69.479 153.625C69.0086 153.429 68.5577 153.409 68.5577 153.33C68.5381 153.232 69.0282 153.115 69.5967 153.33C70.1455 153.566 70.4004 154.017 70.3416 154.056Z" fill="#263238"/>
<path d="M73.5762 149.371L86.1025 118.026C86.1025 118.026 85.8084 112.674 84.8283 110.988C83.8481 109.302 54.0123 99.4421 54.0123 99.4421C54.0123 99.4421 46.4064 97.619 41.3292 99.4421C36.2716 101.285 32.4686 107.617 33.1743 111.125C33.88 114.654 37.1145 117.496 37.1145 117.496L58.7955 117.889L70.7533 122.24L62.6965 145.333L73.5762 149.371Z" fill="#263238"/>
<path d="M84.7106 127.965L85.0046 139.295L76.5557 139.511L75.3403 125.887L84.7106 127.965Z" fill="#FFBE9D"/>
<path d="M85.4948 138.276L85.3379 144.255C85.3379 144.255 94.963 147.725 95.1003 149.489L76.5558 149.665L75.9873 138.119L85.4948 138.276Z" fill="#FF725E"/>
<path d="M79.6137 143.51C79.2412 143.608 79.006 144.02 79.0844 144.392C79.1824 144.745 79.5941 145 79.9469 144.902C80.2998 144.804 80.6134 144.333 80.4958 143.98C80.3586 143.628 79.8685 143.353 79.5353 143.53" fill="#E0E0E0"/>
<g opacity="0.6">
<path d="M76.5557 149.666L76.5949 148.176L94.3552 148.548C94.3552 148.548 95.1785 148.901 95.1001 149.489L76.5557 149.666Z" fill="white"/>
</g>
<path d="M85.6515 144.157C85.6515 144.255 85.1811 144.294 84.7498 144.588C84.2989 144.882 84.0637 145.274 83.9853 145.235C83.9069 145.215 84.0441 144.686 84.5734 144.333C85.1222 143.981 85.6711 144.079 85.6515 144.157Z" fill="#263238"/>
<path d="M87.5921 144.941C87.6117 145.039 87.2196 145.196 86.9256 145.568C86.6119 145.96 86.5335 146.372 86.4551 146.372C86.3571 146.372 86.2983 145.843 86.6707 145.372C87.0628 144.902 87.5921 144.863 87.5921 144.941Z" fill="#263238"/>
<path d="M88.729 147.254C88.6506 147.273 88.5134 146.823 88.729 146.332C88.9643 145.823 89.3955 145.627 89.4347 145.705C89.4739 145.784 89.1995 146.058 89.0231 146.47C88.827 146.862 88.8074 147.254 88.729 147.254Z" fill="#263238"/>
<path d="M85.4552 141.981C85.416 142.059 85.0043 141.941 84.4946 141.981C83.9849 142.02 83.5929 142.177 83.5341 142.118C83.4949 142.039 83.8673 141.706 84.475 141.667C85.0827 141.628 85.4944 141.902 85.4552 141.981Z" fill="#263238"/>
<path d="M79.7902 96.4625C79.7902 96.4625 84.8478 96.0705 85.3966 101.559C85.9651 107.048 86.514 132.669 86.514 132.669L74.6934 133.649L72.8703 107.479L54.0122 99.4422C54.0122 99.4422 76.3989 95.7764 79.7902 96.4625Z" fill="#263238"/>
<path d="M58.9328 89.0723C58.9328 89.0723 61.9909 97.678 61.4224 98.6385C60.8343 99.5991 52.9343 103.539 52.9343 103.539L33.1745 111.126C33.1745 111.126 31.1357 107.911 31.1357 102.951C31.1357 97.9916 38.0164 89.0723 38.0164 89.0723H58.9328Z" fill="#263238"/>
<path d="M53.0713 99.0107C53.0713 99.0107 53.104 99.0238 53.1693 99.05C53.2346 99.0892 53.3261 99.1349 53.4437 99.1872C53.7051 99.3048 54.071 99.4682 54.5415 99.6772C55.5021 100.089 56.8939 100.697 58.6385 101.461C62.1671 102.971 67.1071 105.107 72.8311 107.558L72.7527 107.479C72.9488 110.067 73.1252 112.85 73.3408 115.752C73.8113 122.495 74.2622 128.729 74.615 133.649V133.747H74.713C78.3004 133.414 81.2604 133.159 83.3188 132.983C84.3381 132.885 85.1418 132.806 85.6907 132.767C85.9521 132.741 86.1612 132.715 86.318 132.689C86.4487 132.676 86.514 132.669 86.514 132.669C86.514 132.669 86.4487 132.669 86.318 132.669C86.1612 132.682 85.9521 132.695 85.6907 132.708C85.1222 132.748 84.3381 132.806 83.3188 132.885C81.2408 133.042 78.2808 133.277 74.6934 133.571L74.7914 133.649C74.4386 128.709 74.0269 122.495 73.5565 115.732C73.3604 112.85 73.1644 110.047 72.9684 107.46V107.401L72.9095 107.381C67.1855 104.931 62.2259 102.833 58.6974 101.344C56.9527 100.599 55.5413 100.01 54.5611 99.5988C54.0906 99.4159 53.7247 99.2656 53.4633 99.148C53.3457 99.1088 53.2477 99.0695 53.1693 99.0303C53.104 99.0173 53.0713 99.0107 53.0713 99.0107Z" fill="#455A64"/>
<path d="M37.3496 99.8738C37.3692 99.8738 37.5652 99.8346 37.9181 99.7169C38.3102 99.5863 38.8002 99.4294 39.3883 99.2465C40.6625 98.8348 42.3876 98.2859 44.3675 97.9723C46.367 97.6782 48.1901 97.7763 49.4643 98.0507C50.7581 98.3055 51.503 98.678 51.5226 98.6388C51.5226 98.6192 51.3462 98.5212 50.9933 98.3839C50.6601 98.2271 50.1504 98.0507 49.5035 97.8939C48.2097 97.5802 46.3474 97.443 44.3479 97.7566C42.3288 98.0703 40.5841 98.6584 39.3491 99.0897C38.7218 99.3053 38.2317 99.5013 37.8789 99.6385C37.5456 99.7758 37.3496 99.8542 37.3496 99.8738Z" fill="#455A64"/>
<path d="M40.1528 95.3253C40.1528 95.3645 40.8193 95.2273 41.8779 95.3253C42.4072 95.3645 43.0345 95.4429 43.7402 95.5213C44.4459 95.5997 45.23 95.6978 46.0141 95.8546C47.6216 96.129 49.0134 96.6975 49.8955 97.2856C50.7973 97.8737 51.2089 98.403 51.2285 98.3638C51.2481 98.3638 51.1501 98.2265 50.9541 97.9913C50.7385 97.7757 50.4248 97.462 49.9739 97.1484C49.1114 96.5211 47.6804 95.9134 46.0729 95.6389C45.2496 95.4821 44.4655 95.3841 43.7598 95.3253C43.0541 95.2469 42.4268 95.1881 41.8779 95.1685C41.3486 95.1489 40.8977 95.1685 40.6037 95.2273C40.3097 95.2665 40.1528 95.3253 40.1528 95.3253Z" fill="#455A64"/>
<path d="M48.8761 26.1467C46.6021 25.7546 44.6026 26.6368 42.6815 27.911C40.7604 29.1852 39.3294 31.1259 38.4865 33.2822C37.6044 35.5366 37.4083 38.085 38.0748 40.4177C38.7413 42.7505 40.3488 44.848 42.5051 45.9458C45.4652 47.4552 49.2486 46.9259 51.895 44.9264C54.5414 42.9269 56.0508 39.614 56.188 36.3011C56.2664 34.0271 55.7176 31.6748 54.4434 29.7929C53.1692 27.8914 51.1304 26.48 48.8761 26.1467Z" fill="#263238"/>
<path d="M42.4071 33.87C42.7403 33.0075 42.6227 32.0273 42.7403 31.106C43.0344 29.0869 44.6614 27.4598 46.5629 26.6561C48.3272 25.9308 50.4639 26.0876 52.6006 26.7737C54.0512 27.2442 55.4039 28.0675 56.384 29.2437C57.6582 30.8119 58.1287 33.0271 57.5602 34.9678L47.1706 33.4584C46.1904 34.2621 45.1907 35.0658 44.0145 35.5167C43.6813 35.6539 43.3088 35.7519 42.9363 35.6931C42.5639 35.6343 42.211 35.3991 42.1326 35.0266C42.0346 34.6345 42.2698 34.2425 42.4071 33.87Z" fill="#263238"/>
<path d="M52.8163 29.6355L43.7401 31.5566C42.8776 31.6155 42.1915 32.3408 42.1719 33.2229L42.2699 52.8455C42.2895 54.1785 42.7404 55.4723 43.5441 56.5309L44.4262 57.6483C46.3865 60.1967 50.3855 59.9418 51.895 57.0994C51.993 56.9034 52.0714 56.7269 52.091 56.5897C52.1302 56.4133 52.1694 56.2957 52.189 56.1388L52.3654 54.2373C52.4439 52.4731 52.4635 50.7088 52.4635 50.7284C52.4635 50.7284 56.1684 50.2579 57.1094 45.4748C57.5995 43.1028 57.6191 39.1626 57.5407 35.9477C57.4818 33.0661 55.698 29.4395 52.8163 29.6355Z" fill="#FFBE9D"/>
<path d="M56.0119 39.966C56.0119 40.2797 55.7374 40.5541 55.4042 40.5541C55.0513 40.5737 54.7769 40.2993 54.7769 39.9856C54.7965 39.6524 55.0709 39.3779 55.4042 39.3779C55.7374 39.3779 56.0119 39.6328 56.0119 39.966Z" fill="#263238"/>
<path d="M56.6196 37.9664C56.5412 38.0448 56.0903 37.6723 55.4238 37.6527C54.7573 37.6135 54.2476 37.9468 54.1888 37.8488C54.1496 37.8095 54.228 37.6723 54.4633 37.5351C54.6593 37.3783 55.0318 37.2411 55.4434 37.2607C55.8551 37.2803 56.2079 37.4567 56.3844 37.6135C56.6 37.7703 56.6588 37.9272 56.6196 37.9664Z" fill="#263238"/>
<path d="M49.876 39.6525C49.876 39.9662 49.6016 40.2406 49.2683 40.2406C48.9351 40.2406 48.6606 39.9858 48.6606 39.6525C48.6606 39.3389 48.9351 39.0645 49.2683 39.0645C49.6016 39.0645 49.8956 39.3193 49.876 39.6525Z" fill="#263238"/>
<path d="M50.3072 37.7905C50.2288 37.8689 49.7779 37.5161 49.1114 37.4965C48.4449 37.4573 47.9548 37.7709 47.8764 37.6925C47.8568 37.6533 47.9352 37.5161 48.1509 37.3593C48.3665 37.222 48.7194 37.0848 49.131 37.1044C49.5623 37.124 49.8956 37.2808 50.0916 37.4573C50.2876 37.6141 50.3464 37.7709 50.3072 37.7905Z" fill="#263238"/>
<path d="M52.3066 42.8476C52.3066 42.8084 52.7182 42.7496 53.3848 42.6908C53.5612 42.6908 53.718 42.6516 53.7572 42.534C53.7964 42.4164 53.7376 42.24 53.6592 42.0439C53.5154 41.6257 53.3651 41.1879 53.2083 40.7305C52.581 38.8682 52.1302 37.3196 52.2086 37.3C52.287 37.2804 52.8555 38.7702 53.4828 40.6325C53.6265 41.0899 53.7703 41.5277 53.914 41.9459C53.9728 42.1419 54.0709 42.3772 53.9728 42.632C53.914 42.7496 53.7964 42.828 53.6788 42.8673C53.5808 42.8869 53.4828 42.8869 53.4044 42.8869C52.7182 42.9065 52.3066 42.8869 52.3066 42.8476Z" fill="#263238"/>
<path d="M52.4633 50.7289C52.4633 50.7289 49.2092 50.8073 46.0728 48.749C46.0728 48.749 47.5626 52.1403 52.4045 51.8855L52.4633 50.7289Z" fill="#EB996E"/>
<path d="M51.9539 44.4358C51.7382 44.1221 51.3266 43.9261 50.8953 43.9457C50.6209 43.9653 50.3268 44.1025 50.1308 44.3181C49.9544 44.5534 49.8956 44.8866 50.0524 45.1219C50.2288 45.3767 50.6013 45.4551 50.9149 45.3767C51.2286 45.2983 51.5226 45.1023 51.7774 44.9062C51.8559 44.8474 51.9343 44.7886 51.9735 44.7102C52.0323 44.6318 52.0323 44.5338 51.9931 44.4554" fill="#EB996E"/>
<path d="M50.3267 43.2398C50.4443 43.2202 50.4051 43.9455 51.0128 44.4944C51.6009 45.0236 52.385 44.9648 52.385 45.0824C52.385 45.1216 52.2086 45.2001 51.8754 45.2001C51.5617 45.2001 51.0912 45.0824 50.7384 44.7492C50.3659 44.4159 50.2287 44.0043 50.2091 43.7102C50.1895 43.3966 50.2875 43.2202 50.3267 43.2398Z" fill="#263238"/>
<path d="M50.268 35.8302C50.2092 36.0066 49.5427 35.889 48.7586 35.9674C47.9745 36.0066 47.3472 36.2026 47.2492 36.0458C47.1904 35.9674 47.308 35.791 47.5824 35.6342C47.8373 35.4773 48.2489 35.3205 48.7194 35.2813C49.1899 35.2617 49.6015 35.3401 49.876 35.4773C50.17 35.5949 50.3072 35.7518 50.268 35.8302Z" fill="#263238"/>
<path d="M56.5409 35.0462C56.4037 35.203 55.9528 35.0266 55.4039 34.9874C54.8551 34.9482 54.3846 35.0462 54.2866 34.8893C54.2474 34.8109 54.3258 34.6737 54.5414 34.5365C54.7374 34.3993 55.0903 34.3013 55.4627 34.3209C55.8352 34.3405 56.1685 34.4973 56.3449 34.6541C56.5409 34.8109 56.5997 34.9874 56.5409 35.0462Z" fill="#263238"/>
<path d="M40.7409 32.4776C41.6818 29.7136 45.7984 25.9498 48.6997 26.2047L53.2868 29.0863C52.9732 30.6742 51.7186 32.0268 50.1699 32.458C49.3466 32.6933 48.3664 32.7325 47.8568 33.4382C47.3471 34.1439 47.6215 35.2025 47.1315 35.9474C46.465 36.9471 44.7203 36.8687 44.2106 37.9861C43.995 38.4566 44.093 39.0446 43.8577 39.5347C43.5441 40.162 41.8974 40.9461 41.2309 40.7109C40.5644 40.4953 40.584 39.3387 40.388 38.731C40.0156 37.7116 40.192 37.1824 40.3292 36.5943C40.6429 35.2417 40.29 33.791 40.7409 32.4776Z" fill="#263238"/>
<path d="M43.2109 41.319C43.2305 40.9662 42.8385 40.1037 42.5052 40.0448C41.5643 39.8488 39.8588 39.8684 39.7412 42.26C39.5844 45.5533 42.9169 45.024 42.9169 44.926C42.9365 44.8476 43.1717 42.5736 43.2109 41.319Z" fill="#FFBE9D"/>
<path d="M41.9759 43.6317C41.9759 43.6317 41.9171 43.6709 41.819 43.7101C41.721 43.7493 41.5642 43.7689 41.3878 43.7101C41.0545 43.5533 40.7801 43.0044 40.7997 42.3967C40.7997 42.1027 40.8781 41.8282 40.9957 41.593C41.1133 41.3577 41.2702 41.2009 41.4466 41.1813C41.623 41.1421 41.7406 41.2597 41.7798 41.3381C41.819 41.4361 41.7994 41.5146 41.7994 41.5146C41.819 41.5146 41.8779 41.4558 41.8583 41.3185C41.8583 41.2597 41.819 41.1813 41.7406 41.1029C41.6622 41.0441 41.5446 41.0049 41.427 41.0049C41.1721 41.0245 40.9369 41.2401 40.8193 41.495C40.6625 41.7498 40.5841 42.0634 40.5645 42.3967C40.5645 43.0632 40.8781 43.6905 41.3486 43.8473C41.5642 43.9257 41.7602 43.8669 41.8583 43.7885C41.9759 43.7101 41.9955 43.6513 41.9759 43.6317Z" fill="#EB996E"/>
<path d="M40.0548 31.6161C40.0548 30.5967 38.7806 29.9302 37.7809 29.695C36.7811 29.4597 35.7226 29.7734 34.8208 30.2635C34.2915 30.5379 33.7623 30.9496 33.6446 31.5377C33.527 32.1258 34.0955 32.8315 34.664 32.6158C33.5858 32.9883 33.0369 34.4389 33.5858 35.4191C34.1543 36.4188 35.6637 36.6737 36.5459 35.9483C36.2518 36.8893 35.6441 37.7322 34.8404 38.2811C36.5263 38.5163 38.3102 37.791 39.3687 36.458C40.4077 35.1054 40.6821 33.2039 40.0548 31.6161Z" fill="#263238"/>
<path d="M37.7611 36.8302C37.7415 36.8498 37.6631 36.4774 37.6435 35.8501C37.6239 35.2424 37.7219 34.3799 38.016 33.4781C38.3296 32.596 38.7805 31.8511 39.1529 31.3806C39.545 30.8905 39.8391 30.6553 39.8391 30.6553C39.9175 30.7141 38.8001 31.7923 38.2316 33.5565C37.6239 35.3012 37.8395 36.8302 37.7611 36.8302Z" fill="#FF725E"/>
<path d="M52.3262 28.0869C52.6398 29.4395 54.6589 31.145 55.5607 32.184C57.2661 34.1639 57.5994 34.8304 57.5798 39.2607C58.3835 37.7316 58.9912 36.2222 58.9324 34.4971C58.8736 32.7721 58.2267 31.047 57.0309 29.7924C55.8351 28.5574 54.0512 27.8517 52.3262 28.0869Z" fill="#263238"/>
<path d="M66.2445 64.5886C66.2445 64.5886 62.7159 58.6881 61.7358 57.4923C60.8144 56.3749 59.6187 55.728 58.8345 55.3751C58.3837 55.1791 57.9328 55.0615 57.4623 54.9635L52.3655 53.8461C52.3655 53.8461 52.3655 57.3158 48.739 57.5315C45.0928 57.7471 42.0347 52.6699 42.0347 52.6699C42.0347 52.6699 36.1538 53.5913 34.762 54.3166C33.3506 55.0419 31.1355 55.9436 29.9201 62.0402L29.0771 67.9799L39.1923 68.9208L40.1725 83.976L45.1908 87.4653C45.1908 87.4653 59.109 91.0919 60.0107 91.3271C60.8929 91.5623 61.1869 68.9208 61.1869 68.9208C61.1869 68.9208 64.7546 66.6077 66.2445 64.5886Z" fill="#FF725E"/>
<path d="M59.579 62.0602C59.5986 62.0406 59.6574 62.1975 59.775 62.4915C59.8926 62.7659 60.0299 63.1972 60.2063 63.7069C60.5395 64.7655 60.8924 66.2357 61.108 67.9019C61.3041 69.5486 61.3041 71.0776 61.2453 72.1754C61.206 72.7243 61.1668 73.1555 61.108 73.4692C61.0688 73.7632 61.0492 73.9397 61.0296 73.9201C61.01 73.9201 61.0296 73.7632 61.0296 73.4496C61.0492 73.1555 61.0884 72.7047 61.0884 72.1558C61.1276 71.0776 61.0884 69.5682 60.8924 67.9215C60.6964 66.2749 60.3631 64.8047 60.0691 63.7461C59.9122 63.2364 59.7946 62.8051 59.6966 62.5111C59.6182 62.2171 59.5594 62.0602 59.579 62.0602Z" fill="#263238"/>
<path d="M59.1485 86.7008L40.0748 82.5449L39.1926 68.9208L30.7241 68.1367C30.7241 68.1367 31.0378 77.4482 31.371 80.2318C31.8219 84.2112 34.1939 89.6412 35.5661 90.739C36.9383 91.8172 60.011 91.3271 60.011 91.3271L59.1485 86.7008Z" fill="#FFBE9D"/>
<path d="M69.969 89.1705C69.8317 89.4449 69.5573 89.6018 69.2633 89.5822C69.1979 89.5822 69.1326 89.5691 69.0672 89.5429C68.6556 89.4057 68.6948 88.5628 68.6948 88.5628L66.6757 88.2295C66.6757 88.2295 64.0489 89.9154 63.1079 91.0328C62.167 92.1697 59.795 91.2484 59.795 91.2484L58.9717 86.9553L62.6767 83.5836C62.6767 83.5836 62.461 83.7796 62.7159 83.1524C62.9707 82.5251 64.1273 82.7603 64.1273 82.7603C64.3233 82.4466 65.0878 82.3486 65.0878 82.3486L68.3419 82.7211C69.0084 82.7995 69.6161 83.172 69.969 83.7404L71.3608 85.936C71.3608 85.936 72.0861 87.5042 71.9685 87.8767C71.7921 88.4256 71.204 88.2883 71.204 88.2883C71.204 88.2883 71.0471 89.3273 70.7727 89.3665C70.4983 89.4057 69.969 89.1705 69.969 89.1705Z" fill="#FFBE9D"/>
<path d="M63.0293 86.0737C63.0293 86.1129 63.4606 86.0737 64.1663 86.1129C64.8524 86.1325 65.8129 86.2501 66.8127 86.603C67.3224 86.7794 67.7928 86.9754 68.2045 87.191C68.5965 87.4067 69.0082 87.5831 69.1258 87.8771C69.1846 88.0144 69.165 88.1712 69.0866 88.2692C69.0278 88.3672 68.9298 88.4456 68.8514 88.4848C68.675 88.5436 68.5574 88.5044 68.5574 88.524C68.5574 88.524 68.6554 88.6025 68.871 88.5436C68.969 88.524 69.0866 88.4652 69.1846 88.328C69.2827 88.23 69.3415 88.0144 69.2631 87.8183C69.1846 87.6419 69.0278 87.4851 68.8514 87.3675C68.675 87.2498 68.4985 87.1322 68.2829 87.0146C67.8712 86.799 67.4008 86.5833 66.8911 86.4069C65.8521 86.0541 64.872 85.9561 64.1663 85.9561C63.4606 85.9561 63.0293 86.0541 63.0293 86.0737Z" fill="#EB996E"/>
<path d="M62.7944 88.1509C62.7944 88.2293 64.1274 88.1705 65.7545 88.2685C67.4011 88.3469 68.7145 88.5625 68.7145 88.5037C68.7145 88.4645 68.4009 88.3861 67.8716 88.2881C67.3423 88.1901 66.5974 88.092 65.7741 88.0528C64.9508 88.0136 64.2059 88.0136 63.657 88.0528C63.1277 88.0724 62.7944 88.1313 62.7944 88.1509Z" fill="#EB996E"/>
<path d="M69.9492 89.0923C69.9688 89.0923 69.9688 88.9747 69.9884 88.7394C70.008 88.5238 70.0276 88.1906 69.9884 87.7789C69.9884 87.5829 69.9492 87.3672 69.91 87.132C69.8512 86.8772 69.7336 86.6419 69.5767 86.4067C69.2827 85.9754 68.871 85.505 68.3614 85.1717C67.8321 84.8188 67.3224 84.5248 66.7931 84.368C66.2834 84.2111 65.7934 84.1719 65.3817 84.1523C64.9896 84.1523 64.6564 84.1523 64.4408 84.1719C64.2055 84.1719 64.0879 84.1916 64.0879 84.1916C64.0879 84.2308 64.578 84.2504 65.3817 84.3092C65.7738 84.3484 66.2442 84.3876 66.7343 84.564C67.2244 84.7208 67.7341 84.9953 68.2437 85.3285C68.7338 85.6618 69.1259 86.093 69.4199 86.5243C69.7336 86.936 69.7924 87.4064 69.8512 87.7985C69.9296 88.5826 69.91 89.0923 69.9492 89.0923Z" fill="#EB996E"/>
<path d="M65.2446 83.1721C65.2446 83.2113 65.7347 83.2113 66.4992 83.3093C67.2637 83.427 68.4595 83.4662 69.1456 84.5051C69.8906 85.4461 70.5178 86.3478 70.7923 87.0731C71.0863 87.7984 71.0471 88.2885 71.1059 88.2885C71.1059 88.2885 71.1255 88.1709 71.1255 87.9357C71.1059 87.72 71.0667 87.3868 70.9295 87.0143C70.6747 86.2498 70.0474 85.3285 69.3025 84.3875C69.1064 84.1327 68.9104 83.917 68.6752 83.7406C68.4399 83.5642 68.1655 83.4466 67.9106 83.3878C67.3814 83.2309 66.9109 83.1917 66.5188 83.1525C65.7347 83.1133 65.2446 83.1525 65.2446 83.1721Z" fill="#EB996E"/>
<path d="M63.8135 90.347C63.8265 90.347 63.8919 90.2948 64.0095 90.1902C64.1533 90.0857 64.3362 89.9419 64.5584 89.7589C65.0485 89.3865 65.7542 88.8572 66.7147 88.2887H66.6559C67.2636 88.3867 67.9497 88.5043 68.675 88.6416L68.6162 88.5435C68.5966 88.72 68.6162 88.8768 68.6554 89.0532C68.675 89.2101 68.7338 89.3865 68.871 89.5237C68.9495 89.6021 69.0475 89.6413 69.1455 89.6609C69.2435 89.6805 69.3415 89.6805 69.4199 89.6609C69.616 89.6413 69.812 89.5433 69.9296 89.3865C69.9688 89.3473 70.0015 89.3081 70.0276 89.2689L70.0472 89.2493V89.2296V89.2101C70.0864 89.2101 69.8316 89.2885 69.9296 89.2493L69.9492 89.2689L70.008 89.2885C70.0864 89.3146 70.1714 89.3473 70.2629 89.3865C70.3543 89.4126 70.4458 89.4322 70.5373 89.4453C70.5896 89.4584 70.6418 89.4649 70.6941 89.4649C70.7333 89.4649 70.7921 89.4649 70.8706 89.4257C70.9882 89.3473 71.0274 89.2493 71.0666 89.1512C71.1189 89.0598 71.1581 88.9683 71.1842 88.8768C71.2365 88.6938 71.2757 88.5043 71.3018 88.3083L71.1842 88.3867C71.4586 88.4455 71.7527 88.3671 71.9487 88.1319C72.0271 88.0339 72.0859 87.8967 72.0859 87.7202C72.0663 87.583 72.0467 87.4654 72.0075 87.3478C71.8703 86.8381 71.6743 86.3676 71.4586 85.8775H71.439C71.2038 85.5051 70.9686 85.113 70.7137 84.7014C70.5569 84.453 70.4001 84.2113 70.2433 83.976C70.0864 83.7408 69.9492 83.4664 69.7336 83.2507C69.5179 83.0351 69.2631 82.8783 69.0083 82.7607C68.7338 82.6626 68.4398 82.6234 68.1653 82.6038C67.0872 82.4666 66.0482 82.3686 65.0877 82.251H65.0681C64.872 82.2902 64.6956 82.3294 64.5192 82.3882C64.3623 82.4666 64.1859 82.545 64.0683 82.7215L64.1663 82.6822C63.8331 82.545 63.4214 82.545 63.1274 82.7411C62.8137 82.9371 62.6765 83.2703 62.5981 83.5644L62.6373 83.5252C61.5591 84.4857 60.6966 85.2698 60.0693 85.8383C59.7818 86.0997 59.5531 86.3088 59.3832 86.4656C59.2264 86.6225 59.1479 86.7009 59.1479 86.7009C59.1479 86.7009 59.2329 86.6355 59.4028 86.5048C59.5857 86.348 59.8275 86.1454 60.1281 85.8971C60.7554 85.3482 61.6375 84.5837 62.7353 83.6428L62.7549 83.6232V83.6036C62.8333 83.3291 62.9705 83.0351 63.2058 82.8783C63.4606 82.7215 63.8135 82.7214 64.1075 82.8391L64.1663 82.8783L64.2055 82.8195C64.2839 82.7019 64.4408 82.6234 64.5976 82.5646C64.7544 82.5058 64.9308 82.4666 65.0877 82.4274H65.0681C66.0286 82.545 67.0676 82.6626 68.1457 82.7999C68.4202 82.8195 68.675 82.8587 68.9299 82.9567C69.1651 83.0547 69.4003 83.2115 69.5767 83.4076C69.7728 83.584 69.91 83.8388 70.0668 84.0741C70.2236 84.3224 70.3805 84.5707 70.5373 84.819C70.7921 85.211 71.0274 85.6227 71.2626 85.9756C71.4782 86.446 71.6743 86.9165 71.8115 87.387C71.8507 87.5046 71.8703 87.6222 71.8703 87.7398C71.8899 87.8378 71.8507 87.9359 71.7723 88.0143C71.6547 88.1711 71.4194 88.2299 71.2234 88.1907H71.1254L71.1058 88.2887C71.0862 88.4651 71.047 88.6612 70.9882 88.8376C70.949 88.9944 70.8706 89.1904 70.7725 89.2689C70.7725 89.2689 70.7333 89.2689 70.6941 89.2689C70.6549 89.2689 70.6157 89.2689 70.5765 89.2689C70.485 89.2427 70.4001 89.2166 70.3217 89.1905C70.2302 89.1643 70.1452 89.1382 70.0668 89.112L70.008 89.0924C70.106 89.0532 69.8512 89.1316 69.8904 89.1316L69.8708 89.1512L69.8512 89.1708C69.8381 89.21 69.8185 89.2427 69.7924 89.2689C69.6944 89.3865 69.5572 89.4649 69.4003 89.4845C69.3219 89.4976 69.25 89.4976 69.1847 89.4845C69.1063 89.4649 69.0475 89.4453 68.9887 89.4061C68.8122 89.2101 68.773 88.8376 68.773 88.5632V88.4847L68.7142 88.4651C67.9693 88.3671 67.2832 88.2495 66.6755 88.1515H66.6559L66.6363 88.1711C65.6953 88.7592 64.9896 89.3081 64.5192 89.7001C64.2839 89.8962 64.1075 90.053 63.9899 90.1706C63.8723 90.2882 63.8135 90.347 63.8135 90.347Z" fill="#EB996E"/>
<path d="M90.8459 76.6436L65.7344 76.8396C64.9307 76.8396 64.1466 77.2316 64.029 78.0354L61.2845 96.3446H48.3465C47.9349 96.3446 47.582 96.6778 47.582 97.1091C47.582 97.5208 47.9349 97.854 48.3465 97.854H61.0493H63.4605H89.6501L92.473 78.545C92.6298 77.5453 91.8653 76.6436 90.8459 76.6436Z" fill="#E0E0E0"/>
<path d="M90.8462 76.6436C90.8462 76.6436 90.9834 76.624 91.2383 76.6828C91.4931 76.7416 91.8852 76.8985 92.1988 77.3101C92.3556 77.5258 92.4732 77.8002 92.5124 78.1139C92.5517 78.4471 92.4733 78.7804 92.434 79.1528C92.3164 79.8977 92.1923 80.7472 92.0616 81.7012C91.5127 85.5434 90.709 91.0715 89.7288 97.8737V97.9325H89.6504C78.9668 97.9325 64.9114 97.9521 49.5818 97.9521C49.2159 97.9521 48.8565 97.9521 48.5037 97.9521C48.3272 97.9717 48.092 97.9521 47.9352 97.8541C47.7588 97.7561 47.6019 97.5797 47.5431 97.4032C47.3863 97.0112 47.5627 96.5407 47.9352 96.3447C48.1116 96.2467 48.3272 96.2467 48.5037 96.2467H49.0329C50.4444 96.2467 51.8427 96.2467 53.228 96.2467C55.992 96.2467 58.6776 96.2467 61.2848 96.2467L61.1868 96.3251C62.167 89.7777 63.0883 83.6615 63.9116 78.1727C63.9509 77.8394 64.1077 77.4474 64.3821 77.2121C64.6566 76.9769 65.0094 76.8593 65.3427 76.8005C65.6955 76.7416 66.0288 76.7809 66.362 76.7612C66.6887 76.7612 67.0155 76.7612 67.3422 76.7612C68.649 76.7482 69.9102 76.7351 71.1256 76.722C73.5563 76.722 75.8107 76.7024 77.8494 76.6828C81.9268 76.6632 85.1613 76.6436 87.4157 76.6436C88.5134 76.6436 89.376 76.6436 89.9641 76.624C90.2516 76.6371 90.4737 76.6436 90.6306 76.6436C90.7743 76.6436 90.8462 76.6436 90.8462 76.6436C90.8462 76.6436 90.7743 76.6502 90.6306 76.6632C90.4737 76.6632 90.2516 76.6632 89.9641 76.6632C89.376 76.6828 88.5134 76.6828 87.4157 76.7024C85.1613 76.722 81.9268 76.7612 77.8494 76.8201C75.8107 76.8397 73.5563 76.8593 71.1256 76.8789C69.9102 76.8919 68.649 76.905 67.3422 76.9181C67.0155 76.9181 66.6887 76.9181 66.362 76.9181C66.0288 76.9377 65.6955 76.9181 65.3623 76.9573C65.0486 77.0161 64.735 77.1337 64.4997 77.3493C64.2449 77.565 64.1077 77.859 64.0881 78.2119C63.2647 83.6811 62.363 89.7973 61.3829 96.3643L61.3633 96.4427H61.2848C58.6776 96.4427 55.992 96.4427 53.228 96.4427C51.8427 96.4427 50.4444 96.4427 49.0329 96.4427H48.5037C48.3076 96.4427 48.1704 96.4427 48.0332 96.5211C47.7588 96.6779 47.6215 97.0308 47.7392 97.3248C47.7784 97.462 47.896 97.5993 48.0332 97.6777C48.1704 97.7561 48.3076 97.7561 48.5037 97.7561C48.8565 97.7561 49.2159 97.7561 49.5818 97.7561C64.9114 97.7561 78.9668 97.7757 89.6504 97.7757L89.572 97.8541C90.5914 91.0518 91.4147 85.5238 91.9832 81.6816C92.1269 80.7276 92.2511 79.8781 92.3556 79.1332C92.3948 78.7804 92.4928 78.4275 92.4536 78.1335C92.434 77.8198 92.3164 77.5454 92.1792 77.3493C91.8656 76.9181 91.4931 76.7612 91.2383 76.7024C90.9834 76.6436 90.8462 76.6436 90.8462 76.6436Z" fill="#263238"/>
<path d="M75.6538 87.0136C75.6538 87.8761 76.3595 88.5818 77.2221 88.5818C78.1042 88.5818 78.8099 87.8761 78.8099 87.0136C78.8099 86.151 78.1042 85.4453 77.2221 85.4453C76.3595 85.4453 75.6538 86.151 75.6538 87.0136Z" fill="white"/>
<path d="M62.3042 97.6779C62.3238 97.6975 63.1275 93.0319 64.0881 87.2686C65.029 81.525 65.7739 76.8594 65.7347 76.8398C65.6955 76.8398 64.9114 81.5054 63.9509 87.249C63.0099 93.0123 62.265 97.6779 62.3042 97.6779Z" fill="#263238"/>
</svg>
