<svg width="55" height="50" viewBox="0 0 55 50" fill="none" xmlns="http://www.w3.org/2000/svg">
<path d="M49.8912 9.8252V45.6331C49.8912 48.0446 47.936 49.9999 45.5244 49.9999H8.734C6.32243 49.9999 4.36719 48.0446 4.36719 45.6331V9.8252H49.8912Z" fill="#A8FCFF"/>
<path d="M10.9174 49.9999H8.734C6.32243 49.9999 4.36719 48.0446 4.36719 45.6331V9.8252H6.55059V45.6331C6.55059 48.0446 8.50583 49.9999 10.9174 49.9999Z" fill="#EA7F41"/>
<path d="M49.8912 11.79V26.0182C49.6074 26.0662 49.3159 26.0913 49.0178 26.0913H48.2537C46.8061 26.0913 45.496 25.5051 44.5484 24.5564C43.5997 23.6088 43.0135 22.2988 43.0135 20.8512C43.0135 22.2988 42.4272 23.6088 41.4785 24.5564C40.5309 25.5051 39.2209 26.0913 37.7733 26.0913C34.8792 26.0913 32.5331 23.7453 32.5331 20.8512C32.5331 23.7453 30.1871 26.0913 27.293 26.0913H27.1838C25.7362 26.0913 24.4261 25.5051 23.4785 24.5564C22.5299 23.6088 21.9436 22.2988 21.9436 20.8512C21.9436 23.7453 19.5975 26.0913 16.7034 26.0913H16.4851C15.0375 26.0913 13.7275 25.5051 12.7799 24.5564C11.8312 23.6088 11.2449 22.2988 11.2449 20.8512C11.2449 23.7453 8.89885 26.0913 6.00474 26.0913H5.24055C4.94252 26.0913 4.65103 26.0662 4.36719 26.0182V11.79H49.8912Z" fill="#E6E6E6"/>
<path d="M12.4214 9.8251L11.3548 17.1461C11.2817 17.7236 11.2445 18.3044 11.2445 18.8862C11.2445 18.9779 11.2424 19.0686 11.238 19.1592C11.0961 21.9266 8.80677 24.1264 6.00437 24.1264H5.24017C3.79258 24.1264 2.48253 23.5402 1.53493 22.5915C0.646288 21.7039 0.0753275 20.4987 0.00655022 19.1592C0.00218341 19.0686 0 18.9779 0 18.8862C0 18.3109 0.126638 17.7432 0.372271 17.2225L4.36681 9.8251L8.03799 8.7334L12.4214 9.8251Z" fill="#FD646F"/>
<path d="M21.9433 9.8251V18.8862C21.9433 18.9779 21.9411 19.0686 21.9368 19.1592C21.7948 21.9266 19.5055 24.1264 16.7031 24.1264H16.4848C15.0372 24.1264 13.7272 23.5402 12.7796 22.5915C11.8909 21.7039 11.32 20.4987 11.2512 19.1592C11.2468 19.0686 11.2446 18.9779 11.2446 18.8862C11.2446 18.3044 11.2817 17.7236 11.3549 17.1461L12.4215 9.8251L17.0319 8.7334L21.9433 9.8251Z" fill="#FFC682"/>
<path d="M32.5329 9.8251V18.8862C32.5329 18.9779 32.5307 19.0686 32.5263 19.1592C32.3844 21.9266 30.0951 24.1264 27.2927 24.1264H27.1835C24.3811 24.1264 22.0918 21.9266 21.9499 19.1592C21.9455 19.0686 21.9434 18.9779 21.9434 18.8862V9.8251L27.3473 8.7334L32.5329 9.8251Z" fill="#FD646F"/>
<path d="M43.0136 18.8862C43.0136 18.9779 43.0114 19.0686 43.007 19.1592C42.9382 20.4987 42.3673 21.7039 41.4786 22.5915C40.531 23.5402 39.221 24.1264 37.7734 24.1264C34.971 24.1264 32.6817 21.9266 32.5398 19.1592C32.5354 19.0686 32.5332 18.9779 32.5332 18.8862V9.8251L37.3913 8.7334L41.9459 9.8251L42.9142 17.145C42.9797 17.7236 43.0136 18.3044 43.0136 18.8862Z" fill="#FFC682"/>
<path d="M54.2575 18.8862C54.2575 18.9779 54.2554 19.0686 54.251 19.1592C54.1091 21.9266 51.8198 24.1264 49.0174 24.1264H48.2532C46.8056 24.1264 45.4955 23.5402 44.5479 22.5915C43.6593 21.7039 43.0883 20.4987 43.0195 19.1592C43.0152 19.0686 43.013 18.9779 43.013 18.8862C43.013 18.3044 42.9792 17.7236 42.9137 17.145L41.9453 9.8251L45.9083 8.7334L49.8907 9.8251L53.8853 17.2225C54.0086 17.4823 54.1014 17.7552 54.1637 18.0336C54.2259 18.3131 54.2575 18.598 54.2575 18.8862Z" fill="#FD646F"/>
<path d="M37.8115 30.6205C37.8355 30.5016 37.8328 30.3789 37.8036 30.2613C37.7743 30.1436 37.7193 30.0339 37.6425 29.94C37.5657 29.8462 37.4691 29.7706 37.3595 29.7187C37.2499 29.6668 37.1302 29.6398 37.0089 29.6398H18.5533L18.5257 29.5095C18.2338 28.1301 16.9985 27.1289 15.5887 27.1289H14.1923C13.7401 27.1289 13.3735 27.4954 13.3735 27.9477C13.3735 28.4 13.7401 28.7665 14.1923 28.7665H15.5887C16.2295 28.7665 16.791 29.2215 16.9238 29.8484L19.3567 41.3422C19.5865 42.4279 20.4018 43.2769 21.4256 43.5903C21.2987 43.8913 21.2334 44.2148 21.2338 44.5416C21.2338 45.8959 22.3357 46.9979 23.6901 46.9979C25.0446 46.9979 26.1465 45.8959 26.1465 44.5416C26.1465 44.2546 26.0965 43.979 26.0056 43.7228H29.6716C29.5782 43.9857 29.5306 44.2626 29.5307 44.5416C29.5307 45.8959 30.6326 46.9979 31.9871 46.9979C33.3415 46.9979 34.4434 45.8959 34.4434 44.5416C34.4434 44.2546 34.3934 43.979 34.3026 43.7228H34.498C34.9502 43.7228 35.3168 43.3563 35.3168 42.904C35.3168 42.4517 34.9502 42.0852 34.498 42.0852H22.2937C21.6529 42.0852 21.0914 41.6302 20.9587 41.0033L20.7488 40.011H24.8877L24.89 40.0111L24.8918 40.011H30.1305L30.1323 40.0111L30.1346 40.011H35.247C35.4361 40.011 35.6193 39.9456 35.7656 39.8259C35.9119 39.7061 36.0122 39.5394 36.0496 39.3541L36.91 35.0898C36.9327 35.0233 36.9466 34.9541 36.9515 34.884L37.8115 30.6205ZM24.5089 44.5416C24.5089 44.9931 24.1417 45.3603 23.6901 45.3603C23.2386 45.3603 22.8714 44.9931 22.8714 44.5416C22.8714 44.09 23.2386 43.7228 23.6901 43.7228C24.1417 43.7228 24.5089 44.09 24.5089 44.5416ZM32.8058 44.5416C32.8058 44.9931 32.4386 45.3603 31.9871 45.3603C31.5355 45.3603 31.1683 44.9931 31.1683 44.5416C31.1683 44.09 31.5355 43.7228 31.9871 43.7228C32.4386 43.7228 32.8058 44.09 32.8058 44.5416ZM35.4578 34.0066H31.6045L31.9457 31.2774H36.0085L35.4578 34.0066ZM25.6138 38.3734L25.2727 35.6442H29.7496L29.4085 38.3734H25.6138ZM25.068 34.0066L24.7268 31.2774H30.2955L29.9543 34.0066H25.068ZM23.0765 31.2774L23.4176 34.0066H19.4777L18.9 31.2774H23.0765ZM19.8243 35.6442H23.6223L23.9635 38.3734H20.402L19.8243 35.6442ZM31.0587 38.3734L31.3998 35.6442H35.1275L34.5768 38.3734H31.0587Z" fill="#50758D"/>
<path d="M0.00683594 19.1597H11.2383C11.0964 21.9271 8.80705 24.1269 6.00465 24.1269H5.24046C3.79286 24.1269 2.48282 23.5407 1.53522 22.592C0.646574 21.7044 0.0756132 20.4992 0.00683594 19.1597Z" fill="#FC4755"/>
<path d="M11.251 19.1597H21.9366C21.7946 21.9271 19.5053 24.1269 16.7029 24.1269H16.4846C15.037 24.1269 13.727 23.5407 12.7794 22.592C11.8907 21.7044 11.3198 20.4992 11.251 19.1597Z" fill="#FFAC5C"/>
<path d="M21.9502 19.1597H32.5266C32.3847 21.9271 30.0954 24.1269 27.293 24.1269H27.1838C24.3814 24.1269 22.0921 21.9271 21.9502 19.1597Z" fill="#FC4755"/>
<path d="M32.5391 19.1597H43.0063C42.9375 20.4992 42.3666 21.7044 41.4779 22.592C40.5303 23.5407 39.2203 24.1269 37.7727 24.1269C34.9703 24.1269 32.681 21.9271 32.5391 19.1597Z" fill="#FFAC5C"/>
<path d="M54.251 19.1597C54.1091 21.9271 51.8197 24.1269 49.0173 24.1269H48.2532C46.8056 24.1269 45.4955 23.5407 44.5479 22.592C43.6593 21.7044 43.0883 20.4992 43.0195 19.1597H54.251Z" fill="#FC4755"/>
<path d="M4.36719 9.82533V4.36681C4.36719 1.95513 6.32232 0 8.734 0H45.5244C47.9361 0 49.8912 1.95513 49.8912 4.36681V9.82533H4.36719Z" fill="#50758D"/>
<path d="M11.2282 6.4792C11.5952 6.04983 11.8177 5.49328 11.8177 4.88553C11.8177 3.53116 10.7158 2.4292 9.36135 2.4292C8.5976 2.4292 7.91419 2.77964 7.46332 3.32822C7.25524 3.57079 7.04727 3.81337 6.83941 4.05606C6.45873 4.49973 6.24963 5.06512 6.25 5.64972C6.25 7.00409 7.35186 8.10605 8.70633 8.10605C9.4702 8.10605 10.1536 7.75551 10.6045 7.20693C10.6148 7.19481 11.0308 6.70977 11.2282 6.4792ZM17.6965 6.50649C18.0635 6.07712 18.286 5.52057 18.286 4.91282C18.286 3.55846 17.1842 2.45649 15.8297 2.45649C15.0659 2.45649 14.3825 2.80693 13.9317 3.35551C13.7236 3.59809 13.5156 3.84066 13.3078 4.08335C12.9271 4.52702 12.718 5.09241 12.7183 5.67702C12.7183 7.03138 13.8202 8.13335 15.1747 8.13335C15.9385 8.13335 16.6219 7.7828 17.0728 7.23422C17.0832 7.2221 17.4991 6.73706 17.6965 6.50649ZM24.1376 6.50649C24.5046 6.07712 24.7271 5.52057 24.7271 4.91282C24.7271 3.55846 23.6252 2.45649 22.2707 2.45649C21.507 2.45649 20.8236 2.80693 20.3727 3.35551C20.1646 3.59809 19.9567 3.84066 19.7488 4.08335C19.3681 4.52702 19.159 5.09241 19.1594 5.67702C19.1594 7.03138 20.2612 8.13335 21.6157 8.13335C22.3796 8.13335 23.063 7.7828 23.5139 7.23422C23.5242 7.2221 23.9402 6.73706 24.1376 6.50649Z" fill="#2B597F"/>
<path d="M9.36112 7.34186C8.00664 7.34186 6.90479 6.2399 6.90479 4.88553C6.90479 3.53116 8.00664 2.4292 9.36112 2.4292C10.7156 2.4292 11.8174 3.53116 11.8174 4.88553C11.8174 6.2399 10.7156 7.34186 9.36112 7.34186Z" fill="#FD646F"/>
<path d="M15.8299 7.36872C14.4754 7.36872 13.3735 6.26675 13.3735 4.91239C13.3735 3.55802 14.4754 2.45605 15.8299 2.45605C17.1843 2.45605 18.2862 3.55802 18.2862 4.91239C18.2862 6.26675 17.1843 7.36872 15.8299 7.36872Z" fill="#FFC682"/>
<path d="M22.2708 7.36872C20.9163 7.36872 19.8145 6.26675 19.8145 4.91239C19.8145 3.55802 20.9163 2.45605 22.2708 2.45605C23.6253 2.45605 24.7271 3.55802 24.7271 4.91239C24.7271 6.26675 23.6253 7.36872 22.2708 7.36872Z" fill="#93DDB7"/>
<path d="M46.8455 6.50605C47.2125 6.07669 47.435 5.52014 47.435 4.91239C47.435 3.55802 46.3331 2.45605 44.9787 2.45605H30.459C29.6953 2.45605 29.0119 2.80649 28.561 3.35507C28.3529 3.59765 28.1449 3.84023 27.9371 4.08291C27.5564 4.52658 27.3473 5.09197 27.3477 5.67658C27.3477 7.03095 28.4495 8.13291 29.804 8.13291H44.3236C45.0875 8.13291 45.7709 7.78236 46.2218 7.23378C46.2322 7.22167 46.6481 6.73662 46.8455 6.50605Z" fill="#2B597F"/>
<path d="M44.9784 7.36872H30.4588C29.1043 7.36872 28.0024 6.26675 28.0024 4.91239C28.0024 3.55802 29.1043 2.45605 30.4588 2.45605H44.9784C46.3329 2.45605 47.4348 3.55802 47.4348 4.91239C47.4348 6.26675 46.3329 7.36872 44.9784 7.36872Z" fill="#F5F5F5"/>
<path d="M15.8299 7.36872C14.4754 7.36872 13.3735 6.26675 13.3735 4.91239C13.3735 3.55802 14.4754 2.45605 15.8299 2.45605C17.1843 2.45605 18.2862 3.55802 18.2862 4.91239C18.2862 6.26675 17.1843 7.36872 15.8299 7.36872Z" fill="#FFC682"/>
<path d="M22.2708 7.36872C20.9163 7.36872 19.8145 6.26675 19.8145 4.91239C19.8145 3.55802 20.9163 2.45605 22.2708 2.45605C23.6253 2.45605 24.7271 3.55802 24.7271 4.91239C24.7271 6.26675 23.6253 7.36872 22.2708 7.36872Z" fill="#93DDB7"/>
</svg>
