<svg width="196" height="155" viewBox="0 0 196 155" fill="none" xmlns="http://www.w3.org/2000/svg">
<rect opacity="0.69" width="196" height="155" rx="77.5" fill="url(#paint0_radial_941_132)"/>
<path fill-rule="evenodd" clip-rule="evenodd" d="M86.4354 63.5413C83.4892 58.4373 92.7019 47.608 107.012 39.3442C121.315 31.087 135.304 28.5215 138.25 33.6255C139.88 36.4514 141.51 39.2773 143.147 42.1099C146.093 47.2072 136.881 58.0365 122.571 66.3003C108.261 74.5575 94.2783 77.123 91.3322 72.0256C89.7023 69.1931 88.0655 66.3672 86.4354 63.5413Z" fill="#FE9923"/>
<path fill-rule="evenodd" clip-rule="evenodd" d="M107.012 39.3442C121.315 31.087 135.304 28.5215 138.25 33.6255C141.197 38.7228 131.984 49.5521 117.674 57.816C103.364 66.0798 89.3817 68.6386 86.4354 63.5413C83.4892 58.4373 92.7019 47.608 107.012 39.3442Z" fill="#FECD3D"/>
<path fill-rule="evenodd" clip-rule="evenodd" d="M109.508 43.6578C120.892 37.0907 131.387 33.9644 132.957 36.6766C134.527 39.3957 126.571 46.9247 115.187 53.4983C103.803 60.0721 93.3009 63.1986 91.7376 60.4795C90.1679 57.7607 98.1244 50.2316 109.508 43.6578Z" fill="#FEA832"/>
<path d="M137.18 47.9469L139.785 52.4629C140.407 51.7012 140.968 50.9531 141.449 50.2181L139.391 46.6641L137.18 47.9469ZM134.949 57.46C134.303 58.0365 133.646 58.6001 132.978 59.1503L130.493 54.8413L132.704 53.572L134.949 57.46ZM127.573 63.1654C126.869 63.6453 126.156 64.113 125.435 64.5683L123.064 60.4598L125.275 59.1905L127.573 63.1654ZM119.643 67.9085C118.875 68.316 118.114 68.6968 117.359 69.071L115.054 65.0893L117.272 63.8067L119.643 67.9085ZM111.179 71.7365C110.368 72.0424 109.551 72.3297 108.727 72.5984L106.476 68.7104L108.694 67.4344L111.179 71.7365ZM101.98 74.2884C101.011 74.4487 100.082 74.5558 99.2072 74.6091L97.1562 71.055L99.3742 69.7724L101.98 74.2884Z" fill="#C85929"/>
<path fill-rule="evenodd" clip-rule="evenodd" d="M84.2603 85.6845C87.2064 80.5872 77.9939 69.7513 63.6841 61.4941C49.3809 53.2302 35.3915 50.6714 32.4455 55.7688C30.8154 58.5947 29.1855 61.4272 27.5487 64.2531C24.6024 69.3504 33.8152 80.1864 48.125 88.4436C62.4348 96.7074 76.4175 99.2662 79.3635 94.1689C81.0001 91.3432 82.63 88.5104 84.2603 85.6845Z" fill="#FE9923"/>
<path fill-rule="evenodd" clip-rule="evenodd" d="M63.6873 61.4941C49.3842 53.2302 35.3948 50.6714 32.4488 55.7688C29.5094 60.8727 38.7219 71.702 53.025 79.9592C67.3349 88.2231 81.3242 90.7819 84.2636 85.6845C87.2099 80.5872 77.9972 69.7513 63.6873 61.4941Z" fill="#FECD3D"/>
<path fill-rule="evenodd" clip-rule="evenodd" d="M61.1964 65.8139C49.8193 59.2401 39.3173 56.1138 37.7474 58.8326C36.1775 61.545 44.134 69.0808 55.5177 75.6477C66.9015 82.2215 77.4035 85.3478 78.9734 82.6289C80.5367 79.9167 72.5802 72.3877 61.1964 65.8139Z" fill="#FEA832"/>
<path d="M33.5151 70.0953L30.9097 74.6113C30.2884 73.8496 29.7339 73.1015 29.2529 72.3732L31.3038 68.8125L33.5151 70.0953ZM35.7463 79.6085C36.3918 80.1851 37.0489 80.7486 37.7171 81.2988L40.2021 76.9964L37.9909 75.7205L35.7463 79.6085ZM43.1217 85.3205C43.829 85.7973 44.5439 86.2628 45.2661 86.7168L47.6377 82.6083L45.4198 81.339L43.1217 85.3205ZM51.0516 90.0636C51.8094 90.4608 52.5734 90.8461 53.3432 91.2194L55.6413 87.2377L53.4234 85.9551L51.0516 90.0636ZM59.5226 93.885C60.3325 94.1929 61.15 94.4802 61.9744 94.7468L64.2192 90.8588L62.0013 89.5895L59.5226 93.885ZM68.7151 96.4435C69.6907 96.5972 70.6124 96.704 71.4875 96.7575L73.5385 93.2035L71.3272 91.9209L68.7151 96.4435Z" fill="#C85929"/>
<path fill-rule="evenodd" clip-rule="evenodd" d="M82.1972 113.66C79.2576 108.562 88.4636 97.7329 102.773 89.469C117.083 81.2119 131.066 78.6464 134.012 83.7437C135.645 86.5712 137.278 89.3993 138.909 92.2281C141.855 97.3321 132.642 108.161 118.339 116.425C104.029 124.682 90.04 127.248 87.094 122.144C85.4629 119.315 83.8306 116.487 82.1972 113.66Z" fill="#FE9923"/>
<path fill-rule="evenodd" clip-rule="evenodd" d="M102.773 89.4691C117.083 81.2119 131.066 78.6464 134.012 83.7437C136.958 88.8477 127.746 99.677 113.436 107.941C99.1326 116.198 85.1434 118.764 82.1972 113.66C79.2576 108.562 88.4636 97.7331 102.773 89.4691Z" fill="#FECD3D"/>
<path fill-rule="evenodd" clip-rule="evenodd" d="M105.258 93.7838C116.642 87.21 127.144 84.0901 128.707 86.8026C130.277 89.5214 122.321 97.0505 110.937 103.624C99.5528 110.191 89.0575 113.318 87.4876 110.606C85.9179 107.886 93.8744 100.357 105.258 93.7838Z" fill="#FEA832"/>
<path d="M132.943 98.0756L135.555 102.592C136.144 101.872 136.697 101.122 137.212 100.347L135.161 96.793L132.943 98.0756ZM130.718 107.582C130.072 108.16 129.413 108.724 128.741 109.272L126.255 104.97L128.473 103.701L130.718 107.582ZM123.343 113.294C122.635 113.772 121.92 114.24 121.198 114.697L118.827 110.588L121.045 109.313L123.343 113.294ZM115.406 118.037C114.651 118.434 113.889 118.82 113.121 119.193L110.823 115.211L113.034 113.929L115.406 118.037ZM106.942 121.865C106.129 122.166 105.312 122.453 104.49 122.727L102.245 118.832L104.457 117.563L106.942 121.865ZM97.7493 124.417C96.7738 124.578 95.8452 124.678 94.9767 124.731L92.9258 121.177L95.137 119.895L97.7493 124.417Z" fill="#C85929"/>
<path d="M76.456 42.9707V46.7721H80.2572V50.0723H76.456V53.8801H73.1558V50.0723H69.3477V46.7721H73.1558V42.9707H76.456ZM64.6981 103.945V107.746H68.5059V111.046H64.6981V114.854H61.3979V111.046H57.5967V107.746H61.3979V103.945H64.6981ZM140.563 66.6602V70.4614H144.371V73.7618H140.563V77.5697H137.263V73.7618H133.462V70.4614H137.263V66.6602H140.563Z" fill="#FEA832"/>
<defs>
<radialGradient id="paint0_radial_941_132" cx="0" cy="0" r="1" gradientUnits="userSpaceOnUse" gradientTransform="translate(98 77.5) rotate(86.2476) scale(97.6599 123.581)">
<stop stop-color="#5B2A7E" stop-opacity="0.3"/>
<stop offset="1" stop-color="white" stop-opacity="0"/>
</radialGradient>
</defs>
</svg>
