<svg width="41" height="41" viewBox="0 0 41 41" fill="none" xmlns="http://www.w3.org/2000/svg">
<path d="M20.5 40.5C31.5457 40.5 40.5 31.5457 40.5 20.5C40.5 9.45431 31.5457 0.5 20.5 0.5C9.45431 0.5 0.5 9.45431 0.5 20.5C0.5 31.5457 9.45431 40.5 20.5 40.5Z" fill="url(#paint0_linear_235_58)"/>
<path d="M30.4808 12.2269C30.6588 11.0762 29.5648 10.1679 28.5417 10.6171L8.16399 19.564C7.43029 19.8861 7.48396 20.9976 8.24492 21.2399L12.4472 22.5781C13.2494 22.8336 14.1178 22.7014 14.8182 22.2176L24.2928 15.6719C24.5785 15.4744 24.89 15.8807 24.6458 16.1323L17.8258 23.1637C17.1642 23.8459 17.2955 25.0017 18.0914 25.5007L25.7271 30.289C26.5835 30.826 27.6852 30.2866 27.8454 29.2516L30.4808 12.2269Z" fill="white"/>
<defs>
<linearGradient id="paint0_linear_235_58" x1="20.5" y1="0.5" x2="20.5" y2="40.5" gradientUnits="userSpaceOnUse">
<stop stop-color="#37BBFE"/>
<stop offset="1" stop-color="#007DBB"/>
</linearGradient>
</defs>
</svg>
