<svg width="40" height="40" viewBox="0 0 40 40" fill="none" xmlns="http://www.w3.org/2000/svg">
<path d="M34.1085 5.81282C30.3648 2.06655 25.3868 0.00228568 20.0831 0C9.15404 0 0.25995 8.89125 0.255574 19.8199C0.254301 23.3132 1.16707 26.7233 2.90201 29.7291L0.0891113 40L10.5999 37.2439C13.4959 38.8233 16.7565 39.6555 20.0746 39.6568H20.083H20.0831C31.0105 39.6568 39.9059 30.764 39.9105 19.8359C39.9124 14.5394 37.8517 9.55935 34.1085 5.81282ZM20.0831 36.3092H20.0767C17.1191 36.3076 14.2188 35.5136 11.689 34.0124L11.0869 33.6555L4.84957 35.2909L6.51486 29.2117L6.1226 28.5885C4.47283 25.9653 3.60188 22.9339 3.60312 19.8211C3.60675 10.7376 10.9992 3.34778 20.0894 3.34778C24.4913 3.34961 28.6287 5.06544 31.7403 8.17922C34.8517 11.293 36.564 15.4323 36.5627 19.8345C36.5588 28.9183 29.1662 36.3092 20.0831 36.3092Z" fill="#E0E0E0"/>
<path d="M0.999268 38.8605L3.68367 29.0588C2.02756 26.1902 1.15665 22.9357 1.1577 19.6025C1.16204 9.17333 9.64993 0.688477 20.0789 0.688477C25.1406 0.690762 29.8913 2.66063 33.4631 6.23587C37.0358 9.81107 39.0021 14.5633 39 19.6173C38.9957 30.0468 30.5073 38.5324 20.0796 38.5324C20.0802 38.5324 20.0789 38.5324 20.0796 38.5324H20.0712C16.9047 38.5313 13.7932 37.7365 11.0298 36.2303L0.999268 38.8605Z" fill="url(#paint0_linear_235_56)"/>
<path fill-rule="evenodd" clip-rule="evenodd" d="M15.1837 11.4055C14.8169 10.5899 14.4306 10.5736 14.0817 10.5594C13.7962 10.5471 13.4694 10.5479 13.1432 10.5479C12.8166 10.5479 12.286 10.6706 11.8373 11.1606C11.3883 11.6507 10.123 12.8353 10.123 15.2447C10.123 17.6544 11.8781 19.9827 12.1228 20.3097C12.3677 20.6363 15.5107 25.7387 20.4885 27.7017C24.6254 29.3331 25.4672 29.0086 26.3652 28.927C27.2631 28.8453 29.2626 27.7425 29.6707 26.5989C30.0789 25.4556 30.0789 24.4755 29.9565 24.2706C29.834 24.0665 29.5075 23.9441 29.0177 23.6992C28.5279 23.4543 26.1203 22.2694 25.6713 22.1061C25.2223 21.9428 24.8958 21.8612 24.5693 22.3515C24.2428 22.8413 23.3048 23.9441 23.019 24.2706C22.7333 24.5979 22.4476 24.6387 21.9578 24.3938C21.468 24.1482 19.8908 23.6316 18.0196 21.9632C16.5638 20.6653 15.5809 19.0622 15.2952 18.572C15.0094 18.0822 15.2645 17.8169 15.5102 17.5727C15.7301 17.3533 16 17.001 16.2449 16.7151C16.4893 16.4291 16.5709 16.225 16.7342 15.8985C16.8974 15.5714 16.8158 15.2855 16.6933 15.0406C16.5709 14.7957 15.6191 12.3739 15.1837 11.4055Z" fill="white"/>
<path d="M33.9465 5.75002C30.2458 2.04675 25.3249 0.00622459 20.0822 0.00390625C9.27849 0.00390625 0.486506 8.79308 0.482164 19.5962C0.48089 23.0495 1.38318 26.4204 3.09819 29.3918L0.317627 39.5447L10.7078 36.8202C13.5705 38.3814 16.7937 39.2041 20.0737 39.2054H20.0821H20.0822C30.8841 39.2054 39.6773 30.4147 39.6819 19.612C39.6837 14.3764 37.6467 9.45355 33.9465 5.75002ZM20.0822 35.8963H20.0758C17.1521 35.8948 14.2851 35.1098 11.7843 33.6259L11.1892 33.2731L5.02343 34.8897L6.66958 28.8803L6.28183 28.2643C4.65099 25.6712 3.79004 22.6745 3.79131 19.5975C3.79487 10.6183 11.1024 3.31332 20.0883 3.31332C24.4398 3.31511 28.5295 5.01125 31.6055 8.08929C34.6812 11.1673 36.3738 15.2591 36.3725 19.6108C36.3687 28.5903 29.0609 35.8963 20.0822 35.8963Z" fill="white"/>
<defs>
<linearGradient id="paint0_linear_235_56" x1="19.9997" y1="38.8605" x2="19.9997" y2="0.68854" gradientUnits="userSpaceOnUse">
<stop stop-color="#20B038"/>
<stop offset="1" stop-color="#60D66A"/>
</linearGradient>
</defs>
</svg>
