<svg width="250" height="247" viewBox="0 0 250 247" fill="none" xmlns="http://www.w3.org/2000/svg">
<mask id="mask0_159_45" style="mask-type:luminance" maskUnits="userSpaceOnUse" x="4" y="61" width="242" height="186">
<path d="M4.63965 61.8037H245.358V202.569C245.358 226.688 225.781 246.24 201.63 246.24H48.3683C24.2176 246.24 4.63965 226.688 4.63965 202.569V61.8037Z" fill="white"/>
</mask>
<g mask="url(#mask0_159_45)">
<path d="M250.824 202.569C250.824 229.703 228.799 251.698 201.63 251.698H48.3681C21.1986 251.698 -0.82666 229.703 -0.82666 202.569H10.1055C10.1055 223.673 27.2363 240.781 48.3681 240.781H201.63C222.761 240.781 239.892 223.673 239.892 202.569H250.824ZM48.3681 251.698C21.1986 251.698 -0.82666 229.703 -0.82666 202.569V61.8037H10.1055V202.569C10.1055 223.673 27.2363 240.781 48.3681 240.781V251.698ZM250.824 61.8037V202.569C250.824 229.703 228.799 251.698 201.63 251.698V240.781C222.761 240.781 239.892 223.673 239.892 202.569V61.8037H250.824Z" fill="url(#paint0_linear_159_45)"/>
</g>
<path d="M36.3135 0H70.9106L47.8901 64.899C47.6458 65.5879 47.288 66.2309 46.8315 66.8019L46.1025 67.7141C30.7539 86.9128 -0.235183 75.9067 0.00134631 51.3405C0.00744646 50.7072 0.209626 50.0912 0.58015 49.5771L36.3135 0Z" fill="#DA498D"/>
<path d="M79.1949 0H120.127L118.258 58.0842C118.206 59.7136 117.657 61.288 116.684 62.5975L114.453 65.6021C98.0512 87.6863 63.0677 78.5592 59.5776 51.2855C59.5006 50.683 59.576 50.0707 59.7979 49.505L79.1949 0Z" fill="#F25512"/>
<path d="M167.715 0H126.947L128.809 58.1038C128.861 59.7207 129.404 61.2836 130.367 62.585L132.533 65.5136C148.856 87.581 183.786 78.4947 187.255 51.2788C187.331 50.6806 187.256 50.0727 187.036 49.5109L167.715 0Z" fill="#FFB200"/>
<path d="M213.686 0H179.089L202.111 65.0273C202.355 65.7156 202.712 66.3581 203.167 66.9286L203.861 67.7982C219.206 87.0302 250.235 76.0263 249.999 51.4365C249.993 50.8038 249.791 50.1884 249.421 49.6745L213.686 0Z" fill="#1F90FF"/>
<path d="M52.3933 86.1387H23.1562V208.285H52.3933V86.1387Z" fill="#1F90FF"/>
<path d="M23.1562 200.012H104.533V228.724H51.9061C36.028 228.724 23.1562 215.87 23.1562 200.012Z" fill="#1F90FF"/>
<path d="M106.482 200.012H226.842C226.842 215.87 213.97 228.724 198.092 228.724H106.482V200.012Z" fill="#F25512"/>
<path d="M73.8354 84.1914H96.7045L152.579 154.222L209.397 84.1914H226.843V200.011H199.731L199.024 133.653L158.237 182.871H145.506L104.484 135.123V197.318H73.8354V84.1914Z" fill="#F25512"/>
<defs>
<linearGradient id="paint0_linear_159_45" x1="247.307" y1="126.77" x2="6.3449" y2="126.77" gradientUnits="userSpaceOnUse">
<stop stop-color="#3199FF"/>
<stop offset="0.5" stop-color="#FFB200"/>
<stop offset="0.75" stop-color="#F25512"/>
<stop offset="1" stop-color="#DA498D"/>
</linearGradient>
</defs>
</svg>
