<svg width="54" height="54" viewBox="0 0 54 54" fill="none" xmlns="http://www.w3.org/2000/svg">
<path d="M10.5905 53.772H6.70258C5.93729 53.772 5.31689 52.9327 5.31689 51.8973V43.2585C5.31689 42.2231 5.93729 41.3838 6.70258 41.3838H10.5905C11.3557 41.3838 11.9761 42.2231 11.9761 43.2585V51.8973C11.9761 52.9327 11.3557 53.772 10.5905 53.772Z" fill="#37414F"/>
<path d="M10.5898 53.9997H6.70193C6.25801 53.9997 5.84523 53.772 5.53965 53.3586C5.24929 52.9657 5.08936 52.4471 5.08936 51.8981V43.2594C5.08936 42.7104 5.24929 42.1917 5.53965 41.7988C5.84523 41.3854 6.25801 41.1577 6.70193 41.1577H10.5898C11.0337 41.1577 11.4465 41.3854 11.7521 41.7988C12.0424 42.1917 12.2024 42.7104 12.2024 43.2594V51.8981C12.2024 52.4471 12.0424 52.9657 11.7521 53.3586C11.4465 53.772 11.0337 53.9997 10.5898 53.9997ZM6.70193 41.6115C6.40559 41.6115 6.12242 41.7738 5.90456 42.0686C5.67148 42.3839 5.54314 42.8068 5.54314 43.2594V51.8981C5.54314 52.3507 5.67148 52.7736 5.90456 53.0889C6.12242 53.3836 6.40559 53.546 6.70193 53.546H10.5898C10.8861 53.546 11.1693 53.3837 11.3872 53.0889C11.6203 52.7736 11.7486 52.3507 11.7486 51.8981V43.2594C11.7486 42.8068 11.6203 42.3839 11.3872 42.0686C11.1693 41.7738 10.8861 41.6115 10.5898 41.6115H6.70193Z" fill="#03041E"/>
<path d="M46.6744 53.772H42.7866C42.0213 53.772 41.4009 52.9327 41.4009 51.8973V43.2585C41.4009 42.2231 42.0213 41.3838 42.7866 41.3838H46.6744C47.4397 41.3838 48.0601 42.2231 48.0601 43.2585V51.8973C48.0601 52.9327 47.4397 53.772 46.6744 53.772Z" fill="#37414F"/>
<path d="M46.6743 53.9997H42.7864C42.3425 53.9997 41.9297 53.772 41.6241 53.3586C41.3338 52.9657 41.1738 52.4471 41.1738 51.8981V43.2594C41.1738 42.7104 41.3338 42.1917 41.6241 41.7988C41.9297 41.3854 42.3425 41.1577 42.7864 41.1577H46.6743C47.1182 41.1577 47.531 41.3854 47.8366 41.7988C48.1269 42.1917 48.2869 42.7104 48.2869 43.2594V51.8981C48.2869 52.4471 48.1269 52.9657 47.8366 53.3586C47.531 53.772 47.1182 53.9997 46.6743 53.9997ZM42.7864 41.6115C42.4901 41.6115 42.2069 41.7738 41.989 42.0686C41.756 42.3839 41.6276 42.8068 41.6276 43.2594V51.8981C41.6276 52.3507 41.756 52.7736 41.989 53.0889C42.2069 53.3836 42.4901 53.546 42.7864 53.546H46.6743C46.9706 53.546 47.2538 53.3837 47.4716 53.0889C47.7047 52.7736 47.8331 52.3507 47.8331 51.8981V43.2594C47.8331 42.8068 47.7047 42.3839 47.4716 42.0686C47.2538 41.7738 46.9706 41.6115 46.6743 41.6115H42.7864Z" fill="#03041E"/>
<path d="M8.73941 43.5732L8.66357 43.7835H44.7125L44.6367 43.5732H8.73941Z" fill="#303030"/>
<path d="M45.0353 44.0112H8.34033L8.5798 43.3472H44.7958L45.0353 44.0112Z" fill="#03041E"/>
<path d="M42.9666 0.225586C46.4574 0.225586 49.2893 3.05175 49.2964 6.54262L49.3821 49.0927C49.3973 50.4491 48.3019 51.5569 46.9454 51.5569H6.4315C5.07498 51.5569 3.97959 50.4491 3.99479 49.0927L4.08055 6.54262C4.08759 3.05175 6.91946 0.225586 10.4103 0.225586H42.9666Z" fill="#F71959"/>
<path d="M46.9448 51.7851H6.43087C5.71372 51.7851 5.04105 51.5042 4.53679 50.9943C4.0328 50.4846 3.75955 49.8093 3.76725 49.0926L3.85303 6.54348C3.85483 5.65965 4.02948 4.80239 4.37219 3.99549C4.70316 3.21617 5.1762 2.51644 5.77812 1.91574C6.38003 1.31502 7.0807 0.843435 7.86068 0.514007C8.66827 0.172927 9.52588 0 10.4097 0H42.966C43.8498 0 44.7074 0.172927 45.515 0.514007C46.295 0.843417 46.9956 1.31502 47.5975 1.91574C48.1994 2.51645 48.6725 3.21619 49.0035 3.99549C49.3462 4.80239 49.5208 5.65965 49.5226 6.54348L49.6084 49.0926C49.6161 49.8093 49.3428 50.4846 48.8389 50.9943C48.3346 51.5042 47.6619 51.7851 46.9448 51.7851ZM10.4097 0.453782C8.78188 0.453782 7.25087 1.08706 6.09865 2.23693C4.94644 3.38683 4.3101 4.91658 4.30681 6.5444L4.22103 49.0945L4.22101 49.0965C4.21435 49.6915 4.44108 50.2521 4.85945 50.6752C5.2778 51.0983 5.83587 51.3313 6.43085 51.3313H46.9448C47.5398 51.3313 48.0978 51.0983 48.5162 50.6752C48.9346 50.2521 49.1613 49.6915 49.1546 49.0965L49.1546 49.0945L49.0688 6.5444C49.0655 4.91658 48.4292 3.38683 47.277 2.23693C46.1248 1.08706 44.5938 0.453782 42.966 0.453782H10.4097Z" fill="#03041E"/>
<path d="M41.3763 51.5577H12.001C11.8055 51.5577 11.647 51.3991 11.647 51.2036V49.429C11.647 48.2817 12.5771 47.3516 13.7245 47.3516H39.6529C40.8003 47.3516 41.7304 48.2817 41.7304 49.429V51.2036C41.7304 51.3991 41.5719 51.5577 41.3763 51.5577Z" fill="#37414F"/>
<path d="M41.3762 51.7859H12.0009C11.6805 51.7859 11.4199 51.5253 11.4199 51.2049V49.4304C11.4199 48.1597 12.4537 47.126 13.7243 47.126H39.6527C40.9234 47.126 41.9571 48.1597 41.9571 49.4304V51.2049C41.9571 51.5252 41.6965 51.7859 41.3762 51.7859ZM13.7243 47.5798C12.7039 47.5798 11.8737 48.4099 11.8737 49.4304V51.2049C11.8737 51.275 11.9308 51.3321 12.0009 51.3321H41.3762C41.4463 51.3321 41.5033 51.275 41.5033 51.2049V49.4304C41.5033 48.4099 40.6732 47.5798 39.6527 47.5798H13.7243Z" fill="#03041E"/>
<path d="M32.5455 51.1893H20.831C20.5177 51.1893 20.2637 50.9353 20.2637 50.622V47.936C20.2637 47.6227 20.5177 47.3687 20.831 47.3687H32.5455C32.8588 47.3687 33.1129 47.6227 33.1129 47.936V50.622C33.1129 50.9353 32.8588 51.1893 32.5455 51.1893Z" fill="#FFD900"/>
<path d="M32.5454 51.417H20.8309C20.3929 51.417 20.0366 51.0607 20.0366 50.6228V47.9368C20.0366 47.4989 20.3929 47.1426 20.8309 47.1426H32.5454C32.9833 47.1426 33.3396 47.4989 33.3396 47.9368V50.6228C33.3396 51.0607 32.9833 51.417 32.5454 51.417ZM20.8309 47.5964C20.6431 47.5964 20.4904 47.7491 20.4904 47.9368V50.6228C20.4904 50.8105 20.6431 50.9633 20.8309 50.9633H32.5454C32.7331 50.9633 32.8858 50.8105 32.8858 50.6228V47.9368C32.8858 47.7491 32.7331 47.5964 32.5454 47.5964H20.8309Z" fill="#03041E"/>
<path d="M14.1551 43.2311C14.7712 43.476 15.0145 44.2264 14.6494 44.7798C13.8176 46.0405 11.9449 46.4372 9.90571 45.6265C8.11631 44.9151 6.66844 43.4607 6.03964 41.9201C5.68952 41.0622 6.54116 40.204 7.40215 40.5464L14.1551 43.2311Z" fill="#FFFAF3"/>
<path d="M11.965 46.277C11.281 46.277 10.5535 46.1291 9.82179 45.8382C8.0337 45.1273 6.50393 43.6592 5.82948 42.0067C5.63265 41.5245 5.73825 40.9949 6.10505 40.6248C6.47222 40.2542 7.00136 40.1438 7.48589 40.3364L14.2388 43.0212C14.5989 43.1643 14.8721 43.4586 14.9884 43.8285C15.1035 44.1944 15.0489 44.587 14.8387 44.9056C14.3904 45.5851 13.6758 46.034 12.7721 46.2038C12.5121 46.2527 12.242 46.277 11.965 46.277ZM7.0098 40.6973C6.76652 40.6973 6.55983 40.8105 6.42737 40.9442C6.24199 41.1313 6.09794 41.4636 6.24961 41.8352C6.87904 43.3774 8.31206 44.7497 9.98944 45.4166C11.8699 46.1641 13.6664 45.8584 14.4599 44.6558C14.5946 44.4516 14.6294 44.1997 14.5555 43.9647C14.4804 43.7255 14.3038 43.5354 14.0711 43.4429L7.31823 40.7581C7.21117 40.7156 7.10751 40.6973 7.0098 40.6973Z" fill="#03041E"/>
<path d="M45.9471 40.4763C46.8054 40.1089 47.6871 40.9614 47.3395 41.8279C46.7185 43.3757 45.2913 44.8574 43.5201 45.6155C41.4955 46.482 39.6251 46.1446 38.7777 44.9182C38.3994 44.3706 38.6162 43.6139 39.2281 43.352L45.9471 40.4763Z" fill="#FFFAF3"/>
<path d="M41.3368 46.3276C41.11 46.3276 40.8883 46.3108 40.673 46.2772C39.769 46.1357 39.0493 45.7109 38.5916 45.0485C38.3721 44.7307 38.3075 44.3359 38.4145 43.9652C38.5212 43.5953 38.7854 43.2962 39.1394 43.1447L45.8584 40.269C46.3435 40.0614 46.8798 40.162 47.2579 40.5316C47.6333 40.8985 47.7454 41.4281 47.5506 41.9137C46.8859 43.5707 45.3759 45.0696 43.6099 45.8254C42.8335 46.1576 42.0596 46.3275 41.3368 46.3276ZM46.3647 40.6169C46.2609 40.6169 46.1506 40.6376 46.037 40.6862L46.037 40.6862L39.3179 43.5619C39.0897 43.6596 38.9193 43.8524 38.8505 44.0909C38.7814 44.3303 38.8232 44.5852 38.965 44.7905C39.4565 45.5019 40.3152 45.872 41.3327 45.8721C41.9852 45.8721 42.7028 45.72 43.4314 45.4082C45.0908 44.698 46.5078 43.2942 47.1294 41.7447C47.279 41.3717 47.1301 41.0411 46.9407 40.8561C46.8074 40.7258 46.6029 40.6169 46.3647 40.6169ZM36.0977 44.565H17.2796C17.1543 44.565 17.0527 44.4634 17.0527 44.3381C17.0527 44.2129 17.1543 44.1113 17.2796 44.1113H36.0977C36.223 44.1113 36.3246 44.2129 36.3246 44.3381C36.3246 44.4634 36.223 44.565 36.0977 44.565Z" fill="#03041E"/>
<path d="M43.7306 2.72754H9.58849C8.06634 2.72754 6.67947 3.22307 5.63589 4.03595C4.64931 4.80442 4.07787 5.98952 4.07553 7.24007L4.02344 35.1807C4.88185 37.5096 7.42513 39.1983 10.4294 39.1983H42.8897C45.9635 39.1983 48.5549 37.4306 49.3527 35.018L49.3011 7.28594C49.2989 6.10246 48.787 4.97414 47.8886 4.20373C46.8251 3.29175 45.3548 2.72754 43.7306 2.72754Z" fill="#37414F"/>
<path d="M47.9209 4.23069C47.9011 4.21339 47.8811 4.19623 47.861 4.1792L4.95801 36.7824C6.17567 38.2441 8.17252 39.1974 10.4297 39.1974H22.4716L49.3212 17.9085L49.3014 7.28477C49.2992 6.11616 48.8022 4.99815 47.9209 4.23069Z" fill="#F9F5ED"/>
<path d="M42.8901 39.4235H10.4298C8.92961 39.4235 7.5016 39.0186 6.30011 38.2525C5.71991 37.8826 5.21195 37.4392 4.79033 36.9348C4.36165 36.422 4.03213 35.8577 3.81094 35.2575L3.79688 35.2193L3.79695 35.1786L3.84904 7.23803C3.85024 6.58905 4.00028 5.93841 4.28291 5.35649C4.56689 4.77183 4.98665 4.25274 5.49685 3.85534C6.6197 2.9807 8.07295 2.49902 9.58889 2.49902H43.731C45.3564 2.49902 46.8855 3.04269 48.0367 4.02986C48.9824 4.84083 49.5261 6.02688 49.5284 7.2839L49.5801 35.0527L49.5685 35.0876C49.3631 35.709 49.0427 36.2948 48.6162 36.829C48.1977 37.3532 47.6875 37.8147 47.0997 38.2009C45.882 39.0008 44.4264 39.4235 42.8901 39.4235ZM4.2508 35.1383C4.45381 35.6755 4.75232 36.1818 5.13851 36.6438C5.53025 37.1125 6.00316 37.525 6.5441 37.8699C7.67255 38.5894 9.0162 38.9698 10.4298 38.9698H42.8901C44.3376 38.9698 45.7071 38.5727 46.8505 37.8216C47.3983 37.4618 47.873 37.0326 48.2616 36.5458C48.6465 36.0638 48.9372 35.537 49.1261 34.9797L49.0746 7.28477C49.0725 6.16001 48.5865 5.09921 47.7413 4.37436C46.6723 3.45766 45.2481 2.95282 43.731 2.95282H9.5889C8.17349 2.95282 6.81926 3.40049 5.77572 4.21334C5.31997 4.56834 4.94492 5.03218 4.69111 5.55473C4.43816 6.07551 4.30391 6.65788 4.30282 7.23888L4.2508 35.1383Z" fill="#03041E"/>
<path d="M49.9191 34.0745C49.1095 34.0745 48.4531 33.4181 48.4531 32.6085V18.486C48.4531 17.6764 49.1095 17.02 49.9191 17.02H51.919C52.7286 17.02 53.385 17.6764 53.385 18.486V30.6086C53.385 32.5227 51.8332 34.0745 49.9191 34.0745Z" fill="#5D6573"/>
<path d="M49.9189 34.3017C48.9855 34.3017 48.2261 33.5423 48.2261 32.6088V18.4863C48.2261 17.5529 48.9855 16.7935 49.9189 16.7935H51.9189C52.8523 16.7935 53.6117 17.5529 53.6117 18.4863V30.6089C53.6117 32.6451 51.9551 34.3017 49.9189 34.3017ZM49.9189 17.2473C49.2357 17.2473 48.6799 17.8031 48.6799 18.4863V32.6088C48.6799 33.2921 49.2357 33.8479 49.9189 33.8479C51.7049 33.8479 53.1579 32.3949 53.1579 30.6089V18.4864C53.1579 17.8031 52.6021 17.2473 51.9188 17.2473L49.9189 17.2473Z" fill="#03041E"/>
<path d="M3.69294 34.0745C4.50258 34.0745 5.15891 33.4181 5.15891 32.6085V18.486C5.15891 17.6764 4.50258 17.02 3.69294 17.02H1.69302C0.883382 17.02 0.227051 17.6764 0.227051 18.486V30.6086C0.227069 32.5227 1.77878 34.0745 3.69294 34.0745Z" fill="#5D6573"/>
<path d="M3.69276 34.3017C1.65657 34.3017 0 32.6451 0 30.6089V18.4863C0 17.5529 0.759412 16.7935 1.69286 16.7935H3.69278C4.62623 16.7935 5.38564 17.5529 5.38564 18.4863V32.6088C5.38562 33.5422 4.62621 34.3017 3.69276 34.3017ZM1.69286 17.2472C1.00963 17.2472 0.453781 17.8031 0.453781 18.4863V30.6089C0.453781 32.3949 1.90679 33.8479 3.69275 33.8479C4.376 33.8479 4.93184 33.292 4.93184 32.6088V18.4863C4.93184 17.8031 4.376 17.2472 3.69276 17.2472H1.69286V17.2472Z" fill="#03041E"/>
<path d="M33.7573 5.80575H19.6198C19.2416 5.80575 18.9351 5.4992 18.9351 5.12103V1.87954C18.9351 1.50138 19.2416 1.19482 19.6198 1.19482H33.7573C34.1355 1.19482 34.442 1.50138 34.442 1.87954V5.12103C34.442 5.4992 34.1355 5.80575 33.7573 5.80575Z" fill="#FFFAF3"/>
<path d="M33.7567 6.03055H19.6191C19.1165 6.03055 18.7075 5.6216 18.7075 5.11894V1.87743C18.7075 1.37479 19.1164 0.96582 19.6191 0.96582H33.7567C34.2593 0.96582 34.6683 1.37477 34.6683 1.87743V5.11894C34.6683 5.6216 34.2593 6.03055 33.7567 6.03055ZM19.6191 1.41962C19.3667 1.41962 19.1613 1.62498 19.1613 1.87745V5.11896C19.1613 5.3714 19.3667 5.57678 19.6191 5.57678H33.7567C34.0091 5.57678 34.2145 5.37142 34.2145 5.11896V1.87743C34.2145 1.62498 34.0091 1.4196 33.7567 1.4196L19.6191 1.41962Z" fill="#03041E"/>
<path d="M25.8394 3.46777C28.0254 3.47277 30.2035 3.47277 32.3786 3.46777H25.8394Z" fill="#23CA6C"/>
<path d="M29.1129 3.69969C28.0203 3.69969 26.9263 3.69846 25.8387 3.69597C25.7134 3.69568 25.612 3.59387 25.6123 3.46857C25.6126 3.34344 25.7141 3.24219 25.8392 3.24219H25.8397C28.0143 3.24714 30.2141 3.24714 32.3779 3.24219H32.3784C32.5035 3.24219 32.605 3.34342 32.6053 3.46857C32.6056 3.59387 32.5042 3.6957 32.3789 3.69597C31.2967 3.69846 30.2055 3.69969 29.1129 3.69969Z" fill="#03041E"/>
<path d="M20.9209 3.46777C21.9807 3.47277 23.0517 3.47277 24.1023 3.46777H20.9209Z" fill="#23CA6C"/>
<path d="M22.5149 3.69973C21.983 3.69973 21.4501 3.69847 20.9197 3.69597C20.7944 3.69539 20.6933 3.59332 20.6939 3.46801C20.6944 3.34305 20.7959 3.24219 20.9207 3.24219H20.9218C21.9812 3.24718 23.0509 3.24718 24.1011 3.24219H24.1022C24.227 3.24219 24.3284 3.34307 24.329 3.46799C24.3296 3.59329 24.2285 3.69535 24.1032 3.69597C23.5774 3.69847 23.0467 3.69973 22.5149 3.69973Z" fill="#03041E"/>
</svg>
