<svg width="61" height="44" viewBox="0 0 61 44" fill="none" xmlns="http://www.w3.org/2000/svg">
<path d="M50.8103 31.9334L55.2206 31.9071C56.0613 31.9021 56.7469 32.5794 56.752 33.4202L56.8042 42.1776C56.8092 43.0182 56.1318 43.7039 55.2911 43.709L50.8807 43.7353C50.0401 43.7403 49.3544 43.0629 49.3493 42.2221L49.2971 33.4648C49.292 32.624 49.9695 31.9385 50.8103 31.9334ZM5.9298 32.2005L10.3402 32.1742C11.1808 32.1692 11.8664 32.8466 11.8715 33.6873L11.9236 42.4449C11.9286 43.2855 11.2512 43.9711 10.4104 43.9762L6.00008 44.0026C5.15945 44.0075 4.47383 43.3302 4.46871 42.4894L4.41649 33.732C4.41153 32.8913 5.08902 32.2056 5.9298 32.2005ZM55.8236 10.6042C55.646 10.621 55.4811 10.7039 55.3617 10.8365C55.2423 10.9692 55.1771 11.1418 55.1789 11.3202C55.2228 11.6691 55.1374 12.022 54.9388 12.3122C54.7402 12.6024 54.4422 12.8099 54.1011 12.8954L53.0039 12.9022L53.5674 14.5466C53.5674 14.5466 60.6314 14.5041 60.4202 12.1839C60.2564 10.3832 57.1904 10.4731 55.8236 10.6042ZM5.02597 10.6042C5.20363 10.621 5.36851 10.7039 5.48792 10.8365C5.60732 10.9692 5.67255 11.1418 5.67066 11.3202C5.62682 11.6691 5.71226 12.022 5.91083 12.3122C6.10941 12.6024 6.40737 12.8099 6.74846 12.8954L7.84567 12.9022L7.28224 14.5466C7.28224 14.5466 0.218166 14.5041 0.429452 12.1839C0.593183 10.3832 3.65923 10.4731 5.02597 10.6042Z" fill="#2F4859"/>
<path d="M58.8458 24.3829C58.7139 22.6573 58.2149 20.9797 57.3823 19.4625L54.4047 14.0017C54.4047 14.0017 49.1175 2.08426 46.9148 1.13589C44.7851 0.21881 31.1913 0.012641 30.2906 0H30.2408C29.3401 0.0237772 15.75 0.392323 13.6316 1.33468C11.4401 2.30909 6.29269 14.2868 6.29269 14.2868L3.383 19.7832C2.56901 21.3102 2.09014 22.9932 1.97834 24.72C1.77371 28.5343 2.18463 32.3568 3.19534 36.0405C3.42688 36.8853 3.93148 37.6297 4.63046 38.1577C5.32944 38.6857 6.1835 38.9675 7.05943 38.9592L30.4723 38.8238H30.5221L53.9349 38.6846C54.8108 38.6821 55.6612 38.39 56.3537 37.8537C57.0462 37.3174 57.5418 36.5671 57.7632 35.7196C58.731 32.0235 59.0965 28.1954 58.8458 24.3829Z" fill="#FE7058"/>
<path d="M19.0374 31.4648L41.8528 31.3286C42.0489 31.3275 42.2373 31.4042 42.3768 31.542C42.5162 31.6798 42.5952 31.8673 42.5964 32.0633L42.6196 35.9482C42.6207 36.1442 42.544 36.3327 42.4062 36.4721C42.2684 36.6115 42.0809 36.6905 41.8849 36.6917L19.0695 36.8279C18.8735 36.8291 18.685 36.7523 18.5456 36.6146C18.4061 36.4768 18.3271 36.2893 18.3259 36.0932L18.3027 32.2084C18.3016 32.0124 18.3783 31.8239 18.5161 31.6845C18.6539 31.545 18.8414 31.466 19.0374 31.4648Z" fill="#3A556A"/>
<path d="M47.3424 2.93345C47.2257 2.67921 47.0397 2.463 46.8057 2.30961C46.5718 2.15622 46.2993 2.07186 46.0196 2.06618L30.4189 1.74609H30.3699L14.7737 2.25234C14.4942 2.26147 14.223 2.34912 13.991 2.50524C13.759 2.66136 13.5757 2.87964 13.462 3.1351L8.98682 13.2013L30.4359 13.0732H30.485L51.9371 12.9451L47.3424 2.93345Z" fill="#2F4859"/>
<path d="M52.4202 30.6719C50.9164 30.6807 49.7043 31.9067 49.7131 33.4105C49.7218 34.9143 50.9478 36.1264 52.4517 36.1176C53.9555 36.1089 55.1675 34.8829 55.1588 33.3791V33.3777C55.1493 31.8745 53.9234 30.6632 52.4202 30.6719ZM8.69716 30.9332C7.19333 30.9422 5.98159 32.1687 5.99077 33.6725C5.9998 35.1763 7.22628 36.3881 8.73012 36.3789C10.2339 36.3699 11.4455 35.1434 11.4365 33.6397C11.4273 32.1359 10.201 30.9241 8.69716 30.9332Z" fill="#EBF0F3"/>
<path d="M20.2305 24.5586H40.0889V27.0374H20.2305V24.5586Z" fill="#3A556A"/>
<path d="M56.2411 20.6612C56.2242 20.5119 56.1756 20.3678 56.0987 20.2388C56.0217 20.1097 55.9181 19.9985 55.7947 19.9126C55.6714 19.8267 55.5311 19.7682 55.3833 19.7408C55.2356 19.7134 55.0836 19.7179 54.9377 19.7539L45.8563 21.9744C45.7213 22.0075 45.5941 22.067 45.4821 22.1494C45.3701 22.2318 45.2754 22.3354 45.2035 22.4544L43.4044 25.432C43.3077 25.5921 43.2553 25.775 43.2526 25.9621C43.2498 26.1491 43.2968 26.3335 43.3887 26.4964C43.4806 26.6593 43.6142 26.7949 43.7757 26.8892C43.9372 26.9835 44.1209 27.0332 44.308 27.0332H53.1809C53.3884 27.0347 53.5918 26.9754 53.766 26.8627C55.8591 25.4765 56.5142 23.3172 56.2411 20.6612Z" fill="#E1E6E9"/>
<path d="M51.9371 21.5036C50.8391 21.5485 49.9854 22.475 50.0304 23.573C50.0752 24.671 51.0018 25.5247 52.0998 25.4797C53.1976 25.4348 54.0513 24.5086 54.0066 23.4106C53.9613 22.3128 53.035 21.4591 51.9371 21.5036ZM47.7216 23.4025C46.8865 23.436 46.2367 24.1403 46.2703 24.9754C46.3038 25.8104 47.0081 26.4603 47.8432 26.4267C48.6783 26.3931 49.3281 25.6889 49.2945 24.8538V24.8526C49.2603 24.018 48.5564 23.3689 47.7216 23.4025Z" fill="#BDBEC1"/>
<path d="M4.60856 20.6612C4.62546 20.5119 4.67401 20.3678 4.75098 20.2388C4.82795 20.1097 4.93157 19.9985 5.05493 19.9126C5.17828 19.8267 5.31853 19.7682 5.46631 19.7408C5.6141 19.7134 5.76602 19.7179 5.91194 19.7539L14.9933 21.9744C15.1283 22.0075 15.2555 22.067 15.3675 22.1494C15.4795 22.2318 15.5742 22.3354 15.6461 22.4544L17.4452 25.432C17.5419 25.5921 17.5943 25.775 17.5971 25.9621C17.5999 26.1491 17.5529 26.3335 17.461 26.4964C17.369 26.6593 17.2355 26.7949 17.0739 26.8892C16.9124 26.9835 16.7287 27.0332 16.5417 27.0332H7.66874C7.46125 27.0347 7.25786 26.9754 7.08364 26.8627C4.99035 25.4765 4.33542 23.3172 4.60856 20.6612Z" fill="#E1E6E9"/>
<path d="M8.9125 21.5036C10.0105 21.5485 10.8642 22.475 10.8192 23.573C10.7743 24.671 9.84779 25.5247 8.74983 25.4797C7.65201 25.4348 6.79829 24.5086 6.84299 23.4106C6.88828 22.3128 7.81454 21.4591 8.9125 21.5036ZM13.128 23.4025C13.963 23.436 14.6129 24.1403 14.5793 24.9754C14.5457 25.8104 13.8415 26.4603 13.0064 26.4267C12.1713 26.3931 11.5215 25.6889 11.5551 24.8538V24.8526C11.5892 24.018 12.2932 23.3689 13.128 23.4025Z" fill="#BDBEC1"/>
</svg>
