<svg width="48" height="60" viewBox="0 0 48 60" fill="none" xmlns="http://www.w3.org/2000/svg">
<path d="M44.9058 53.5862H43.3857V52.7771C43.3857 50.3254 41.3997 48.3394 38.9479 48.3394H24.2739L21.7853 40.1749C23.8816 40.984 26.1618 41.4253 28.54 41.4253C34.0443 41.4253 38.9969 39.0716 42.454 35.3204C42.2946 35.4797 42.123 35.6146 41.9391 35.7249C42.123 35.6023 42.2946 35.4675 42.454 35.3081C44.7954 32.9666 42.5766 26.8126 37.4523 20.536L38.764 13.8549C39.0705 13.9652 39.3892 14.0142 39.7325 14.0142C41.4733 14.0142 42.883 12.5922 42.883 10.8514C42.8841 10.3967 42.7867 9.94707 42.5976 9.53351C42.4085 9.11996 42.132 8.75225 41.7873 8.45566C41.4426 8.15906 41.0377 7.94061 40.6006 7.81531C40.1634 7.69001 39.7043 7.66083 39.2548 7.72978C38.8053 7.79873 38.3761 7.96417 37.9966 8.21473C37.6171 8.46529 37.2963 8.79504 37.0563 9.18132C36.8164 9.56761 36.6628 10.0013 36.6063 10.4525C36.5498 10.9037 36.5917 11.3618 36.729 11.7954L31.1071 12.9784V14.5034H14.6592V59.3835H44.9058C46.1807 59.3835 47.1982 58.366 47.1982 57.0911V55.8774C47.1982 54.6148 46.1807 53.585 44.9058 53.585V53.5862Z" fill="black"/>
<path d="M44.9072 59.9977H14.6593C14.4968 59.9977 14.3409 59.9331 14.2259 59.8181C14.111 59.7032 14.0464 59.5473 14.0464 59.3847V14.5021C14.0464 14.3396 14.111 14.1837 14.2259 14.0687C14.3409 13.9538 14.4968 13.8892 14.6593 13.8892H30.4943V12.9771C30.494 12.8365 30.5421 12.7001 30.6305 12.5907C30.7189 12.4813 30.8422 12.4057 30.9797 12.3764L35.9985 11.3197C35.9324 10.79 35.9795 10.2523 36.1369 9.74222C36.2942 9.23213 36.5581 8.7613 36.9112 8.36094C37.2643 7.96058 37.6984 7.63982 38.1848 7.41992C38.6712 7.20003 39.1988 7.08602 39.7326 7.08545C40.7305 7.08642 41.6872 7.48325 42.3928 8.18883C43.0983 8.89441 43.4952 9.85111 43.4961 10.849C43.4963 11.3852 43.3822 11.9153 43.1614 12.404C42.9407 12.8927 42.6183 13.3288 42.2158 13.6831C41.8133 14.0375 41.3399 14.302 40.8272 14.4591C40.3145 14.6162 39.7742 14.6622 39.2423 14.5941L38.1108 20.3693C43.4434 26.9867 45.3803 33.0855 42.9629 35.6624C42.9457 35.6877 42.9264 35.7114 42.9053 35.7335C41.074 37.7166 38.8528 39.3 36.3808 40.3843C33.9088 41.4686 31.2395 42.0305 28.5402 42.0346C26.5469 42.0346 24.5952 41.7391 22.7245 41.1495L24.7289 47.7252H38.9493C40.2882 47.7265 41.5719 48.2589 42.5188 49.2055C43.4657 50.1522 43.9984 51.4358 44 52.7747V52.9708H44.9072C45.6773 52.9721 46.4155 53.2789 46.9597 53.8238C47.5039 54.3687 47.8098 55.1073 47.8101 55.8774V57.0911C47.8094 57.8614 47.5031 58.6 46.9584 59.1448C46.4137 59.6895 45.6751 59.9958 44.9047 59.9965L44.9072 59.9977ZM15.2723 58.7718H44.9072C45.8474 58.7718 46.5854 58.0338 46.5854 57.0923V55.8774C46.5854 54.9507 45.8327 54.1979 44.9059 54.1979H43.3858C43.2232 54.1979 43.0673 54.1334 42.9524 54.0184C42.8374 53.9035 42.7729 53.7476 42.7729 53.585V52.7759C42.7729 50.6674 41.0578 48.9511 38.9481 48.9511H24.2741C24.1428 48.951 24.015 48.9089 23.9095 48.8307C23.804 48.7526 23.7264 48.6427 23.6881 48.5171L21.1995 40.3527C21.1661 40.2428 21.1643 40.1258 21.1941 40.0149C21.224 39.9041 21.2845 39.8038 21.3685 39.7256C21.4526 39.6474 21.5569 39.5944 21.6697 39.5726C21.7824 39.5508 21.899 39.5612 22.0061 39.6024C24.084 40.4041 26.2821 40.8111 28.5402 40.8111C33.32 40.8111 37.9318 38.9171 41.3422 35.5864C41.3753 35.4393 41.4648 35.3044 41.5984 35.2137C41.7506 35.1147 41.8923 35.0006 42.0214 34.8729C44.0466 32.8489 41.9245 26.9818 36.978 20.9222C36.9213 20.8522 36.8806 20.7705 36.859 20.683C36.8374 20.5955 36.8353 20.5043 36.853 20.4159L38.1635 13.7347C38.1806 13.648 38.2163 13.5661 38.2681 13.4945C38.3199 13.4228 38.3866 13.3633 38.4635 13.3198C38.5405 13.2764 38.626 13.2501 38.714 13.2428C38.8021 13.2355 38.8907 13.2473 38.9738 13.2775C39.203 13.3596 39.4507 13.4001 39.7339 13.4001C41.1314 13.4001 42.2715 12.2563 42.2715 10.8502C42.2715 9.45143 41.1314 8.31257 39.7339 8.31257C39.3365 8.31326 38.9447 8.40718 38.5902 8.58678C38.2357 8.76639 37.9283 9.02667 37.6927 9.3467C37.4571 9.66673 37.2999 10.0376 37.2337 10.4294C37.1674 10.8213 37.1941 11.2232 37.3115 11.6029C37.3379 11.6847 37.3469 11.7712 37.3378 11.8567C37.3288 11.9423 37.3019 12.0249 37.2589 12.0994C37.216 12.1739 37.1579 12.2386 37.0884 12.2893C37.0189 12.3399 36.9395 12.3755 36.8554 12.3936L31.7202 13.4748V14.5034C31.7202 14.6659 31.6556 14.8218 31.5406 14.9368C31.4257 15.0517 31.2698 15.1163 31.1072 15.1163H15.2723V58.7718Z" fill="black"/>
<path d="M8.76904 27.8706V50.3217H21.2119L14.9905 29.9988L8.76904 27.8706Z" fill="#DDDDDD"/>
<path d="M21.2116 50.9345H8.76871C8.60615 50.9345 8.45024 50.8699 8.33529 50.755C8.22034 50.64 8.15576 50.4841 8.15576 50.3215V27.8704C8.15576 27.6743 8.25138 27.488 8.4132 27.3715C8.57379 27.2563 8.78097 27.2244 8.96731 27.2918L15.19 29.4188C15.2815 29.4501 15.3643 29.5026 15.4316 29.5721C15.499 29.6415 15.5489 29.7259 15.5774 29.8184L21.7976 50.1413C21.8252 50.233 21.8311 50.3299 21.8147 50.4242C21.7984 50.5186 21.7603 50.6078 21.7034 50.6848C21.6465 50.7618 21.5724 50.8245 21.487 50.8678C21.4016 50.9112 21.3073 50.934 21.2116 50.9345ZM9.38166 49.7086H20.3829L14.4961 30.4767L9.38166 28.7273V49.7086Z" fill="black"/>
<path d="M41.2329 59.3871H2.90522C2.29723 59.3871 1.71414 59.1456 1.28423 58.7157C0.854316 58.2858 0.612793 57.7027 0.612793 57.0947V55.8774C0.612793 55.2694 0.854316 54.6863 1.28423 54.2564C1.71414 53.8265 2.29723 53.585 2.90522 53.585H41.2329C41.8409 53.585 42.424 53.8265 42.8539 54.2564C43.2838 54.6863 43.5254 55.2694 43.5254 55.8774V57.0935C43.5254 57.7015 43.2838 58.2846 42.8539 58.7145C42.424 59.1444 41.8409 59.3871 41.2329 59.3871Z" fill="#283E42"/>
<path d="M41.2331 59.9998H2.90538C2.13522 59.9985 1.39698 59.6919 0.852398 59.1474C0.307815 58.6028 0.00129656 57.8645 0 57.0944V55.8771C0.00097377 55.1066 0.307556 54.368 0.852475 53.8233C1.39739 53.2786 2.13614 52.9723 2.90661 52.9717H41.2343C42.0046 52.9727 42.743 53.2791 43.2877 53.8237C43.8323 54.3684 44.1387 55.1068 44.1397 55.8771V57.0932C44.139 57.8636 43.8328 58.6024 43.2881 59.1473C42.7434 59.6922 42.0048 59.9988 41.2343 59.9998H41.2331ZM2.90538 54.1988C1.9786 54.1988 1.22467 54.9515 1.22467 55.8783V57.0944C1.22467 58.0212 1.9786 58.7751 2.90538 58.7751H41.2331C42.1599 58.7751 42.9126 58.0212 42.9126 57.0956V55.8783C42.9126 54.9515 42.1599 54.1988 41.2331 54.1988H2.90538Z" fill="black"/>
<path d="M39.7081 52.7732V53.5823H4.42676V52.7732C4.42676 50.3214 6.41271 48.3354 8.87677 48.3354H35.2704C37.7222 48.3354 39.7081 50.3214 39.7081 52.7732Z" fill="#5AE4A7"/>
<path d="M39.7092 54.1964H4.42789C4.26533 54.1964 4.10942 54.1318 3.99447 54.0168C3.87952 53.9019 3.81494 53.746 3.81494 53.5834V52.7743C3.81819 51.4337 4.35304 50.149 5.30218 49.2022C6.25131 48.2554 7.53724 47.7236 8.8779 47.7236H35.2715C36.6105 47.7253 37.8942 48.2579 38.8411 49.2047C39.7879 50.1516 40.3206 51.4353 40.3222 52.7743V53.5834C40.3222 53.746 40.2576 53.9019 40.1427 54.0168C40.0277 54.1318 39.8718 54.1964 39.7092 54.1964ZM5.04084 52.9705H39.0963V52.7743C39.0963 50.6646 37.38 48.9495 35.2715 48.9495H8.8779C6.762 48.9495 5.04084 50.6646 5.04084 52.7743V52.9705Z" fill="black"/>
<path d="M38.7727 35.3125C41.5685 32.5167 37.8521 24.2673 30.4718 16.887C23.0915 9.50665 14.8421 5.79023 12.0462 8.58609C9.25038 11.3819 12.9668 19.6314 20.3471 27.0117C27.7274 34.392 35.9768 38.1084 38.7727 35.3125Z" fill="#DDDDDD"/>
<path d="M36.1222 36.8526C34.7002 36.8526 32.979 36.4137 31.0323 35.5372C27.4882 33.9386 23.5421 31.0663 19.9195 27.4463C12.1841 19.7096 8.53953 11.235 11.6202 8.15308C14.6997 5.07362 23.1768 8.71944 30.9122 16.4524C34.5323 20.0737 37.407 24.0211 39.0031 27.5664C40.6826 31.2956 40.7574 34.201 39.2115 35.7456C38.4735 36.4848 37.4242 36.8526 36.1222 36.8526ZM14.7144 8.27689C13.7459 8.27689 12.9834 8.52452 12.4869 9.02101C10.2509 11.2571 13.0533 18.8466 20.7863 26.5808C24.3046 30.0991 28.122 32.8819 31.5374 34.4204C34.7247 35.8559 37.2035 36.0227 38.3448 34.8801C39.4886 33.7376 39.3206 31.2564 37.8863 28.0715C36.3478 24.6573 33.5638 20.8387 30.0455 17.3203C24.0312 11.3085 18.1052 8.27689 14.7144 8.27689Z" fill="black"/>
<path d="M35.5941 11.2607L9.13184 16.819L19.7506 35.8976L30.2112 38.8006L35.5941 11.2607Z" fill="white"/>
<path d="M30.211 39.4145C30.1554 39.4141 30.1001 39.4059 30.0468 39.39L19.5862 36.4883C19.5078 36.4668 19.4345 36.4299 19.3707 36.3795C19.3068 36.3292 19.2538 36.2665 19.2147 36.1953L8.59723 17.1166C8.55039 17.0327 8.52395 16.9389 8.52004 16.8429C8.51613 16.7468 8.53485 16.6512 8.57471 16.5638C8.61456 16.4763 8.67442 16.3994 8.74946 16.3394C8.8245 16.2793 8.91261 16.2378 9.00668 16.218L35.4689 10.661C35.5678 10.6407 35.6702 10.645 35.767 10.6737C35.8639 10.7024 35.9521 10.7545 36.024 10.8254C36.0959 10.8963 36.1492 10.9838 36.1792 11.0803C36.2091 11.1767 36.2149 11.279 36.1959 11.3782L30.8117 38.918C30.7849 39.0576 30.7102 39.1834 30.6006 39.2738C30.4909 39.3642 30.3532 39.4148 30.211 39.4145ZM20.1599 35.3751L29.7366 38.0329L34.8143 12.0512L10.072 17.2466L20.1599 35.3751Z" fill="black"/>
<path d="M36.06 14.0082C37.8007 14.0082 39.2118 12.5971 39.2118 10.8564C39.2118 9.11569 37.8007 7.70459 36.06 7.70459C34.3193 7.70459 32.9082 9.11569 32.9082 10.8564C32.9082 12.5971 34.3193 14.0082 36.06 14.0082Z" fill="#283E42"/>
<path d="M36.0597 14.6208C33.9842 14.6208 32.2949 12.9315 32.2949 10.8548C32.2949 8.77814 33.9842 7.09131 36.0597 7.09131C38.1351 7.09131 39.8244 8.77937 39.8244 10.8548C39.8244 12.9303 38.1351 14.6208 36.0597 14.6208ZM36.0597 8.31598C34.6585 8.31598 33.5208 9.45484 33.5208 10.8548C33.5208 12.2548 34.6585 13.3949 36.0597 13.3949C37.4609 13.3949 38.5985 12.256 38.5985 10.8548C38.5985 9.45361 37.4609 8.31598 36.0597 8.31598Z" fill="black"/>
<path d="M38.7751 35.3176C37.0078 37.2458 34.8582 38.7845 32.4631 39.8357C30.0681 40.8868 27.4803 41.4273 24.8648 41.4226C14.4202 41.4226 5.95166 32.9541 5.95166 22.5095C5.95166 17.0272 8.28822 12.0771 12.0174 8.63965C9.29591 11.4801 13.0128 19.6691 20.3523 27.0085C27.7322 34.3884 35.9886 38.1041 38.7751 35.3176Z" fill="#5AE4A7"/>
<path d="M24.865 42.0357C14.0991 42.0357 5.33887 33.2754 5.33887 22.5096C5.33887 17.0788 7.62272 11.859 11.602 8.18986C11.7196 8.08635 11.8724 8.03182 12.029 8.03749C12.1856 8.04315 12.3341 8.10857 12.444 8.22031C12.5538 8.33205 12.6167 8.48163 12.6197 8.6383C12.6227 8.79496 12.5656 8.94683 12.4601 9.0627C10.2903 11.3306 13.1172 18.9067 20.7852 26.5759C28.5194 34.3076 36.1065 37.1186 38.3401 34.8838C38.4538 34.773 38.6062 34.7107 38.765 34.71C38.9239 34.7093 39.0768 34.7703 39.1915 34.8801C39.3063 34.9899 39.3739 35.14 39.3802 35.2987C39.3865 35.4574 39.3309 35.6124 39.2252 35.7309C37.3967 37.7165 35.1767 39.3017 32.7052 40.3869C30.2337 41.472 27.5642 42.0334 24.865 42.0357ZM10.5391 11.1296C7.96849 14.3659 6.56783 18.3765 6.56477 22.5096C6.56477 32.6012 14.7746 40.8098 24.865 40.8098C29.0122 40.8098 33.0295 39.3877 36.2401 36.8403C32.2657 36.9016 25.8469 33.3698 19.9185 27.4426C14.0133 21.5362 10.4827 15.1664 10.5391 11.1296ZM47.0427 7.88093C46.902 7.88046 46.7657 7.83158 46.6568 7.74252C46.5479 7.65345 46.4729 7.52961 46.4445 7.3918C46.0236 5.38156 44.8223 3.62043 43.1043 2.49495C41.3863 1.36946 39.2919 0.971558 37.2809 1.38858C37.2021 1.40506 37.1209 1.40581 37.0419 1.3908C36.9629 1.37579 36.8876 1.34531 36.8204 1.30111C36.7531 1.25691 36.6953 1.19986 36.6502 1.13324C36.6051 1.06663 36.5737 0.991753 36.5576 0.912928C36.525 0.754136 36.5565 0.58888 36.6455 0.453328C36.7344 0.317775 36.8734 0.222965 37.032 0.189648C41.867 -0.819267 46.6357 2.29819 47.6434 7.14294C47.662 7.23218 47.6604 7.32445 47.6389 7.41301C47.6173 7.50158 47.5763 7.58423 47.5187 7.65492C47.4612 7.72562 47.3886 7.78259 47.3062 7.82169C47.2239 7.86079 47.1339 7.88103 47.0427 7.88093Z" fill="black"/>
<path d="M44.1127 8.75511C43.9722 8.75469 43.836 8.70599 43.7271 8.61716C43.6182 8.52834 43.5431 8.40479 43.5145 8.2672C43.383 7.62934 43.1263 7.02387 42.7593 6.48582C42.3924 5.94778 41.9224 5.48783 41.3765 5.13258C40.833 4.77304 40.2234 4.52514 39.5832 4.40329C38.943 4.28144 38.2849 4.28806 37.6473 4.42278C37.5686 4.43912 37.4874 4.4398 37.4084 4.42477C37.3295 4.40974 37.2542 4.3793 37.187 4.33519C37.1198 4.29108 37.0619 4.23416 37.0167 4.16768C36.9714 4.1012 36.9398 4.02647 36.9234 3.94775C36.9071 3.86902 36.9064 3.78785 36.9214 3.70887C36.9365 3.62989 36.9669 3.55464 37.011 3.48742C37.0551 3.4202 37.112 3.36232 37.1785 3.3171C37.245 3.27188 37.3197 3.24019 37.3985 3.22385C39.0142 2.88428 40.6655 3.20056 42.0483 4.1065C43.4311 5.01244 44.3775 6.40261 44.7146 8.01712C44.7334 8.10638 44.7321 8.19873 44.7106 8.28739C44.6891 8.37606 44.6481 8.4588 44.5905 8.52955C44.5329 8.60031 44.4602 8.65728 44.3778 8.69631C44.2953 8.73534 44.2039 8.75543 44.1127 8.75511Z" fill="black"/>
</svg>
