<svg width="53" height="60" viewBox="0 0 53 60" fill="none" xmlns="http://www.w3.org/2000/svg">
<path d="M33.0003 45.8748C33.7503 43.3749 35.2503 41.1249 37.2504 39.3748C41.0004 36.2497 43.3754 31.4998 43.3754 26.2498C43.3754 16.4998 35.2505 8.49974 25.2504 8.99978C16.3753 9.37478 9.12527 16.8748 8.87531 25.7497C8.75027 31.2498 11.1253 36.1248 15.0003 39.3748C17.1253 41.1247 18.6253 43.3747 19.3753 45.8748H33.0003Z" fill="#FFD15C"/>
<path d="M24.5001 46.1249H25.6251L20.6251 27.5H21.0001C21.6251 27.5 22.2502 27.25 22.7501 26.75C23 26.5 23.2501 26.375 23.6251 26.375C24.0001 26.375 24.2501 26.5 24.5001 26.75C25.3752 27.7499 26.8752 27.7499 27.7501 26.75C28.0001 26.5 28.2502 26.375 28.6252 26.375C28.8751 26.375 29.2501 26.5 29.5002 26.75C30.0002 27.25 30.5001 27.5 31.2501 27.5H31.6252L26.7502 46.1249H27.8752L33.0001 26.6249C33.0001 26.375 33.0001 26.1249 32.7501 26C32.5002 25.8749 32.2501 26 32.1252 26.125C31.8752 26.375 31.6251 26.5 31.3752 26.5C31.0002 26.5 30.7502 26.375 30.3752 26.125C29.8752 25.625 29.3753 25.375 28.7502 25.375C28.1251 25.375 27.6252 25.625 27.1251 26.125C26.6251 26.625 25.8751 26.625 25.3752 26.125C25.0002 25.625 24.3752 25.375 23.7501 25.375C23.1252 25.375 22.5001 25.625 22.1251 26.125C21.8751 26.375 21.5001 26.5 21.1251 26.5C20.8752 26.5 20.5002 26.375 20.3751 26.125C20.2501 26 20.0002 25.875 19.7502 26C19.5002 26.125 19.3752 26.375 19.5002 26.6249L24.5001 46.1249Z" fill="white"/>
<path d="M22.25 57.375C22.8751 58.875 24.3751 60 26.125 60C27.875 60 29.375 58.875 30.0001 57.375H22.25Z" fill="#344A5E"/>
<path d="M30.7501 57.5H21.625C21.3292 57.5013 21.0361 57.4439 20.7625 57.3313C20.489 57.2187 20.2404 57.053 20.0313 56.8438C19.8221 56.6346 19.6564 56.3861 19.5438 56.1125C19.4311 55.839 19.3738 55.5459 19.375 55.25V45.75H33.0001V55.25C33.0001 56.5 32 57.5 30.7501 57.5Z" fill="#344A5E"/>
<path d="M32.875 50.4999H19.375C18.625 50.4999 18 49.875 18 49.125C18 48.375 18.625 47.75 19.375 47.75H32.875C33.625 47.75 34.2499 48.375 34.2499 49.125C34.2499 49.875 33.625 50.4999 32.875 50.4999ZM32.875 54.875H19.375C18.625 54.875 18 54.25 18 53.5C18 52.75 18.625 52.1251 19.375 52.1251H32.875C33.625 52.1251 34.2499 52.75 34.2499 53.5C34.2499 54.2499 33.625 54.875 32.875 54.875Z" fill="#415A6B"/>
<path d="M26.1251 0C25.5001 0 24.875 0.500039 24.875 1.25004V5.50008C24.875 6.12504 25.3751 6.75012 26.1251 6.75012C26.8751 6.75012 27.3751 6.25008 27.3751 5.50008V1.25004C27.3751 0.500039 26.75 0 26.1251 0ZM9.37512 7.62504C8.87508 7.125 8.12508 7.125 7.62516 7.62504C7.12523 8.12508 7.12512 8.87508 7.62516 9.375L10.6252 12.375C11.1252 12.875 11.8752 12.875 12.3751 12.375C12.875 11.875 12.8752 11.125 12.3751 10.625L9.37512 7.62504ZM5.50008 24.875H1.25004C0.625078 24.875 0 25.3751 0 26.1251C0 26.75 0.500039 27.3751 1.25004 27.3751H5.50008C6.12504 27.3751 6.75012 26.8751 6.75012 26.1251C6.75012 25.5 6.12504 24.875 5.50008 24.875ZM10.625 39.875L7.62504 42.875C7.125 43.3751 7.125 44.1251 7.62504 44.625C8.12508 45.1249 8.87508 45.125 9.375 44.625L12.375 41.625C12.875 41.125 12.875 40.375 12.375 39.875C11.875 39.3751 11.1251 39.375 10.625 39.875ZM41.6251 39.875C41.1251 39.375 40.3751 39.375 39.875 39.875C39.375 40.3751 39.375 41.1251 39.875 41.625L42.875 44.625C43.3751 45.125 44.1251 45.125 44.625 44.625C45.1249 44.125 45.125 43.375 44.625 42.875L41.6251 39.875ZM51.0001 24.875H46.7501C46.1251 24.875 45.5 25.3751 45.5 26.1251C45.5 26.75 46.0001 27.3751 46.7501 27.3751H51.0001C51.6251 27.3751 52.2502 26.8751 52.2502 26.1251C52.25 25.5 51.7501 24.875 51.0001 24.875ZM42.875 7.62504L39.875 10.625C39.375 11.1251 39.375 11.8751 39.875 12.375C40.3751 12.875 41.1251 12.875 41.625 12.375L44.625 9.375C45.125 8.87496 45.125 8.12496 44.625 7.62504C44.125 7.12512 43.3751 7.125 42.875 7.62504Z" fill="#FFD15C"/>
</svg>
