<svg width="60" height="47" viewBox="0 0 60 47" fill="none" xmlns="http://www.w3.org/2000/svg">
<path d="M58.1198 0.875651C57.7198 0.47492 57.214 0.196303 56.6615 0.0723558C56.109 -0.0515918 55.5326 -0.0157512 54.9998 0.17569C54.5782 0.321051 54.1952 0.56041 53.8798 0.875651L48.9998 5.7557L42.9998 11.7557L36.9998 17.7557L28.6997 26.0558C29.0897 25.8658 32.9997 30.2357 32.9997 30.2357L36.9996 26.2358L42.9996 20.2358L48.9996 14.2357L54.9997 8.23574L58.1197 5.11573C58.3986 4.83763 58.6199 4.50721 58.7709 4.14342C58.9219 3.77963 58.9997 3.38961 58.9997 2.99572C58.9997 2.60183 58.922 2.2118 58.771 1.848C58.62 1.4842 58.3987 1.15377 58.1198 0.875651Z" fill="#CC4B4C"/>
<path d="M43 11.7553V20.2354L37 26.2354V17.7553L43 11.7553ZM55 0.175293V8.23534L49 14.2353V5.7553L53.8801 0.875255C54.1955 0.560104 54.5785 0.320758 55 0.175293Z" fill="#BDC3C7"/>
<path d="M27 3.75537H3V45.7554H29.0001V28.7554H27V3.75537Z" fill="#4482C3"/>
<path d="M1 0.755859H29V3.75586C29 4.86047 28.1046 5.7559 26.9999 5.7559H3.00004C1.89543 5.7559 1 4.86047 1 3.75586V0.755859Z" fill="#285680"/>
<path d="M7.99996 9.75537H22C22.2652 9.75537 22.5196 9.86073 22.7071 10.0483C22.8946 10.2358 23 10.4901 23 10.7553V25.7553C23 26.0206 22.8946 26.2749 22.7071 26.4624C22.5196 26.65 22.2652 26.7553 22 26.7553H7.99996C7.73476 26.7553 7.48041 26.65 7.29288 26.4624C7.10535 26.2749 7 26.0206 7 25.7553V10.7553C6.99998 10.624 7.02584 10.494 7.07609 10.3726C7.12633 10.2513 7.19999 10.1411 7.29285 10.0482C7.38571 9.95536 7.49595 9.88171 7.61727 9.83146C7.7386 9.78121 7.86864 9.75536 7.99996 9.75537Z" fill="#B0D3F0"/>
<path d="M14 21.7559H16C17.1047 21.7559 18.0001 22.6513 18.0001 23.7559V26.7559H12.0001V23.7559C12 22.6513 12.8954 21.7559 14 21.7559ZM8.99996 30.7559H21C21.1313 30.7559 21.2613 30.7817 21.3826 30.832C21.504 30.8822 21.6142 30.9559 21.7071 31.0487C21.7999 31.1416 21.8736 31.2518 21.9238 31.3732C21.9741 31.4945 21.9999 31.6245 21.9999 31.7558V40.7558C21.9999 41.021 21.8946 41.2754 21.7071 41.4629C21.5195 41.6504 21.2652 41.7558 21 41.7558H8.99996C8.73476 41.7558 8.48041 41.6504 8.29288 41.4629C8.10535 41.2754 8 41.021 8 40.7558V31.7558C8 31.6245 8.02586 31.4945 8.07612 31.3732C8.12637 31.2518 8.20003 31.1416 8.29288 31.0487C8.38574 30.9559 8.49597 30.8822 8.61729 30.832C8.73861 30.7817 8.86865 30.7559 8.99996 30.7559Z" fill="#285680"/>
<path d="M18 35.7553H12C11.7348 35.7553 11.4804 35.6499 11.2929 35.4624C11.1054 35.2749 11 35.0205 11 34.7553C11 34.4901 11.1054 34.2358 11.2929 34.0483C11.4804 33.8607 11.7348 33.7554 12 33.7554H18C18.2652 33.7554 18.5195 33.8607 18.707 34.0483C18.8946 34.2358 18.9999 34.4901 18.9999 34.7553C18.9999 35.0205 18.8946 35.2749 18.707 35.4624C18.5195 35.6499 18.2652 35.7553 18 35.7553ZM18 38.7553H12C11.7348 38.7553 11.4804 38.6499 11.2929 38.4624C11.1054 38.2749 11 38.0205 11 37.7553C11 37.4901 11.1054 37.2358 11.2929 37.0483C11.4804 36.8607 11.7348 36.7554 12 36.7554H18C18.2652 36.7554 18.5195 36.8607 18.707 37.0483C18.8946 37.2358 18.9999 37.4901 18.9999 37.7553C18.9999 38.0205 18.8946 38.2749 18.707 38.4624C18.5195 38.6499 18.2652 38.7553 18 38.7553Z" fill="#BDC3C7"/>
<path d="M33 28.7554V45.7554H27V28.7554C27 27.0986 28.3432 25.7554 30 25.7554C31.6569 25.7554 33 27.0986 33 28.7554Z" fill="#7F8C8D"/>
<path d="M30.0001 30.7558C29.8693 30.7543 29.74 30.7271 29.6197 30.6758C29.4987 30.6249 29.3873 30.5539 29.29 30.4658C29.1995 30.3701 29.1281 30.2581 29.0796 30.1356C29.0285 30.0155 29.0014 29.8864 29 29.7558C29.0015 29.6887 29.0082 29.6218 29.02 29.5557C29.0307 29.493 29.0508 29.4323 29.0796 29.3756C29.1016 29.312 29.132 29.2516 29.1699 29.1959C29.2099 29.1456 29.25 29.0958 29.29 29.046C29.3854 28.9554 29.4973 28.884 29.6197 28.8356C29.8019 28.7589 30.0027 28.738 30.1968 28.7754C30.3909 28.8129 30.5695 28.9071 30.7101 29.046C30.7501 29.0958 30.7902 29.1456 30.8298 29.1959C30.8676 29.2516 30.898 29.3121 30.9201 29.3756C30.9488 29.4324 30.9691 29.4931 30.9802 29.5557C30.9917 29.6219 30.9984 29.6888 31.0003 29.756C30.9986 29.8866 30.9714 30.0157 30.9202 30.1359C30.8717 30.2582 30.8005 30.3702 30.7102 30.466C30.66 30.506 30.6102 30.546 30.5604 30.5857C30.5045 30.6236 30.4439 30.654 30.3801 30.676C30.3233 30.7047 30.2626 30.725 30.2 30.7361C30.1338 30.7473 30.067 30.7539 30.0001 30.7558Z" fill="#ECF0F1"/>
<path d="M59.0001 46.7558H0.999962C0.734755 46.7558 0.480411 46.6504 0.292882 46.4629C0.105353 46.2754 0 46.021 0 45.7558C0 45.4906 0.105353 45.2363 0.292882 45.0487C0.480411 44.8612 0.734755 44.7559 0.999962 44.7559H59C59.2652 44.7558 59.5195 44.8612 59.7071 45.0487C59.8946 45.2362 60 45.4906 60 45.7558C60 46.021 59.8947 46.2753 59.7072 46.4629C59.5196 46.6504 59.2653 46.7558 59.0001 46.7558Z" fill="#BDC3C7"/>
</svg>
