<svg width="71" height="72" viewBox="0 0 71 72" fill="none" xmlns="http://www.w3.org/2000/svg">
<path d="M33.5811 55.5633L24.193 56.685C23.69 56.7561 23.2148 56.4689 23.1376 56.0471C22.7601 53.9851 23.966 51.946 26.1544 50.9461L33.6028 48.8895L33.5811 55.5633ZM37.1081 55.5633L46.5179 56.685C47.0209 56.7561 47.496 56.4689 47.5732 56.0471L47.6702 55.5175C47.9896 53.7734 46.9695 52.0487 45.1185 51.2029L37.108 48.8894L37.1081 55.5633Z" fill="#FF2C5C"/>
<path d="M28.8364 50.2056L28.8172 56.1326L33.5812 55.5635L33.6028 48.8895L28.8364 50.2056Z" fill="#E62753"/>
<path d="M18.8171 37.952C17.4972 37.952 16.3934 36.9526 16.2595 35.6396C16.068 33.7615 15.9722 31.5527 15.9722 30.2851C15.9722 28.5511 16.1515 28.5789 16.51 27.0847C16.5355 26.9778 16.5963 26.8826 16.6825 26.8144C16.7687 26.7462 16.8753 26.709 16.9852 26.7089L20.649 26.7089C20.7589 26.7091 20.8656 26.7462 20.9518 26.8144C21.038 26.8826 21.0987 26.9778 21.1242 27.0847C21.4827 28.5789 21.662 28.551 21.662 30.2851C21.662 31.5526 21.5662 33.7614 21.3746 35.6395C21.2406 36.9526 20.1369 37.952 18.8171 37.952ZM51.8941 37.952C50.5742 37.952 49.4705 36.9526 49.3366 35.6396C49.145 33.7615 49.0493 31.5527 49.0493 30.2851C49.0493 28.5511 49.2285 28.579 49.5871 27.0847C49.6126 26.9778 49.6733 26.8826 49.7595 26.8144C49.8457 26.7462 49.9524 26.709 50.0623 26.7089H53.7261C53.836 26.7091 53.9426 26.7462 54.0288 26.8144C54.115 26.8826 54.1758 26.9778 54.2013 27.0847C54.5598 28.5789 54.739 28.551 54.7391 30.2851C54.7391 31.5527 54.6433 33.7615 54.4518 35.6396C54.3178 36.9526 53.214 37.952 51.8941 37.952Z" fill="#C3D3DB"/>
<path d="M33.3363 35.9253V22.9589L6.94266 36.7324C6.42351 37.0404 6.11291 37.5521 6.11291 38.0992L6.11291 41.4928C6.11291 42.6293 7.39848 43.427 8.63142 43.0556L33.3363 35.9253Z" fill="#FF2C5C"/>
<path d="M27.3727 26.0711V37.6467L33.3364 35.9254L33.3364 22.959L27.3727 26.0711Z" fill="#E62753"/>
<path d="M37.3743 35.9256L37.3743 22.9592L63.768 36.7327C64.2871 37.0407 64.5977 37.5523 64.5977 38.0995L64.5977 41.4931C64.5977 42.6296 63.3122 43.4273 62.0792 43.0559L37.3743 35.9256Z" fill="#FF2C5C"/>
<path d="M40.4026 14.4798L40.4025 36.263C40.4025 39.9181 40.1642 43.5657 39.6905 47.1603L38.4837 56.3176C38.2044 58.4376 36.8889 59.9757 35.3553 59.9757C33.8216 59.9757 32.5061 58.4376 32.2268 56.3176L31.02 47.1603C30.5463 43.5657 30.308 39.9182 30.308 36.263L30.3081 14.4798C30.3081 11.5019 30.7776 8.55133 31.7324 5.89313C32.5547 3.60401 33.7488 1.49091 35.3553 1.49091C36.9617 1.49091 38.1559 3.60401 38.9781 5.89312C39.9332 8.5514 40.4026 11.5019 40.4026 14.4798Z" fill="#E0F3FC"/>
<path d="M35.3551 1.49068C34.7897 1.49068 34.2755 1.75322 33.8105 2.1924C34.6796 2.99639 35.3778 4.42006 35.9163 5.91941C36.8712 8.57755 37.3407 11.5281 37.3406 14.506L37.3406 36.2892C37.3406 39.9443 37.1023 43.5919 36.6285 47.1865L35.4218 56.3438C35.2441 57.6922 34.6468 58.8044 33.8413 59.436C34.294 59.7808 34.8106 59.9754 35.355 59.9754C36.8886 59.9754 38.2041 58.4373 38.4834 56.3173L39.6902 47.16C40.1639 43.5653 40.4022 39.9179 40.4022 36.2626L40.4024 14.4795C40.4024 11.5016 39.9329 8.55103 38.9781 5.89283C38.1557 3.60378 36.9616 1.49068 35.3551 1.49068Z" fill="#C3D3DB"/>
<path d="M39.2192 11.4912L39.2192 12.235C39.2192 12.9258 31.4916 12.9258 31.4916 12.235L31.4916 11.4912C31.4916 11.0223 31.7618 10.6043 32.1659 10.4481C34.1797 9.66949 36.5311 9.66956 38.5449 10.4481C38.9489 10.6044 39.2192 11.0223 39.2192 11.4912Z" fill="#51C4F5"/>
<path d="M35.8732 58.1402C35.8053 58.2083 35.7245 58.2624 35.6357 58.2992C35.5468 58.336 35.4515 58.3548 35.3553 58.3547C35.1611 58.3547 34.9748 58.2775 34.8374 58.1402C34.7001 58.0028 34.6229 57.8166 34.6229 57.6223L34.6229 48.5769C34.6229 48.3827 34.7001 48.1964 34.8374 48.059C34.9748 47.9217 35.1611 47.8445 35.3553 47.8445C35.5495 47.8445 35.7358 47.9217 35.8732 48.059C36.0105 48.1964 36.0877 48.3827 36.0877 48.5769L36.0877 57.6223C36.0878 57.7185 36.0689 57.8138 36.0321 57.9027C35.9953 57.9916 35.9413 58.0723 35.8732 58.1402Z" fill="#E62753"/>
</svg>
