<svg width="60" height="60" viewBox="0 0 60 60" fill="none" xmlns="http://www.w3.org/2000/svg">
<path d="M3.10352 43.4482H46.5517V47.5862H3.10352V43.4482Z" fill="#EF5350"/>
<path d="M46.5517 43.4482V47.5862H3.10352V45.5172H38.2758C38.8246 45.5172 39.3508 45.2992 39.7388 44.9112C40.1268 44.5232 40.3448 43.997 40.3448 43.4482H46.5517Z" fill="#E53935"/>
<path d="M24.8275 1.80917e-07C24.1571 -0.000232569 23.5059 0.224115 22.9779 0.63724L0 18.6206L2.90689 22.3241L24.8275 5.1724L46.7481 22.3241L49.655 18.6206L26.6772 0.63724C26.1491 0.224115 25.498 -0.000232569 24.8275 1.80917e-07Z" fill="#EF5350"/>
<path d="M43.4482 13.7627V0H35.1724V7.28584L43.4482 13.7627Z" fill="#757575"/>
<path d="M43.4483 19.7378V43.4481H6.20703V19.7378L24.8277 5.17236L43.4483 19.7378Z" fill="#EEEEEE"/>
<path d="M43.3924 19.6944L24.8277 5.17236L6.20703 19.7378V23.6823L24.8277 9.1127L40.3449 21.2534V43.4481H43.4483V19.7378L43.3924 19.6944Z" fill="#E0E0E0"/>
<path d="M38.2758 34.138H26.8965V24.8276H38.2758V34.138Z" fill="#64B5F6"/>
<path d="M38.2758 24.8276V34.138H26.8965V31.0345H31.0344C32.1318 31.0345 33.1843 30.5986 33.9604 29.8225C34.7364 29.0465 35.1723 27.994 35.1723 26.8966V24.8276H38.2758Z" fill="#42A5F5"/>
<path d="M11.3794 24.8276H21.7242V43.4483H11.3794V24.8276Z" fill="#757575"/>
<path d="M21.7242 24.8276V43.4483H11.3794V40.3448H14.4828C15.5803 40.3448 16.6328 39.9089 17.4088 39.1329C18.1848 38.3569 18.6208 37.3044 18.6208 36.2069V24.8276H21.7242Z" fill="#616161"/>
<path d="M43.4482 59.9998C52.5894 59.9998 59.9998 52.5894 59.9998 43.4482C59.9998 34.3069 52.5894 26.8965 43.4482 26.8965C34.3069 26.8965 26.8965 34.3069 26.8965 43.4482C26.8965 52.5894 34.3069 59.9998 43.4482 59.9998Z" fill="#FFD54F"/>
<path d="M59.9998 43.4482C59.9985 46.1431 59.3395 48.797 58.08 51.1794C56.8206 53.5619 54.9987 55.601 52.7725 57.1197C50.5464 58.6385 47.9832 59.591 45.3055 59.8946C42.6278 60.1982 39.9164 59.8438 37.4067 58.862C38.0378 58.924 38.6688 58.9654 39.3102 58.9654C43.167 58.9653 46.9028 57.6184 49.8724 55.1573C52.842 52.6963 54.859 49.2756 55.5753 45.4859C56.2915 41.6961 55.662 37.7752 53.7954 34.4002C51.9288 31.0251 48.9423 28.4077 45.3515 27C49.3852 27.4688 53.1059 29.4033 55.8066 32.4358C58.5072 35.4683 59.9995 39.3875 59.9998 43.4482Z" fill="#FFCA28"/>
<path d="M43.4479 55.8617C50.3039 55.8617 55.8617 50.3039 55.8617 43.4479C55.8617 36.592 50.3039 31.0342 43.4479 31.0342C36.592 31.0342 31.0342 36.592 31.0342 43.4479C31.0342 50.3039 36.592 55.8617 43.4479 55.8617Z" fill="#FFB74D"/>
<path d="M46.5514 54.8274C43.7428 54.8295 41.0165 53.8785 38.8186 52.1299C36.6206 50.3814 35.0811 47.9387 34.4518 45.2014C33.8225 42.4642 34.1407 39.5944 35.3544 37.0615C36.568 34.5286 38.6052 32.4825 41.1328 31.2578C39.3934 31.5844 37.7439 32.2794 36.2952 33.296C34.8464 34.3126 33.6319 35.6273 32.7332 37.152C31.8344 38.6766 31.2722 40.3759 31.0843 42.1357C30.8964 43.8956 31.0871 45.6752 31.6436 47.3553C32.2002 49.0353 33.1097 50.5769 34.3111 51.8765C35.5125 53.1761 36.978 54.2036 38.6092 54.8902C40.2405 55.5767 41.9997 55.9064 43.7689 55.857C45.538 55.8077 47.2761 55.3804 48.8666 54.604C48.1035 54.7505 47.3284 54.8253 46.5514 54.8274Z" fill="#FFA726"/>
<path d="M43.448 42.4135C43.0388 42.4135 42.6388 42.2922 42.2985 42.0649C41.9583 41.8375 41.6931 41.5144 41.5365 41.1363C41.3799 40.7583 41.3389 40.3423 41.4188 39.9409C41.4986 39.5396 41.6957 39.1709 41.985 38.8816C42.2744 38.5922 42.643 38.3952 43.0443 38.3154C43.4457 38.2355 43.8617 38.2765 44.2397 38.4331C44.6178 38.5897 44.9409 38.8549 45.1683 39.1951C45.3956 39.5354 45.5169 39.9354 45.5169 40.3446C45.5169 40.6189 45.6259 40.8821 45.8199 41.0761C46.0139 41.2701 46.2771 41.3791 46.5514 41.3791C46.8258 41.3791 47.0889 41.2701 47.2829 41.0761C47.4769 40.8821 47.5859 40.6189 47.5859 40.3446C47.5832 39.4297 47.277 38.5416 46.7154 37.8193C46.1538 37.0971 45.3685 36.5816 44.4825 36.3535V35.1722C44.4825 34.8978 44.3735 34.6347 44.1795 34.4407C43.9855 34.2467 43.7223 34.1377 43.448 34.1377C43.1736 34.1377 42.9105 34.2467 42.7165 34.4407C42.5225 34.6347 42.4135 34.8978 42.4135 35.1722V36.3535C41.4394 36.6043 40.5903 37.2019 40.0255 38.0342C39.4608 38.8665 39.2193 39.8764 39.3462 40.8742C39.4732 41.872 39.96 42.7891 40.7152 43.4535C41.4704 44.1179 42.4421 44.4837 43.448 44.4825C43.8572 44.4825 44.2572 44.6038 44.5974 44.8312C44.9377 45.0585 45.2029 45.3816 45.3594 45.7597C45.516 46.1378 45.557 46.5538 45.4772 46.9551C45.3974 47.3564 45.2003 47.7251 44.911 48.0144C44.6216 48.3038 44.253 48.5008 43.8516 48.5807C43.4503 48.6605 43.0343 48.6195 42.6562 48.4629C42.2782 48.3063 41.955 48.0411 41.7277 47.7009C41.5004 47.3607 41.379 46.9607 41.379 46.5515C41.379 46.2771 41.27 46.014 41.076 45.82C40.882 45.626 40.6189 45.517 40.3445 45.517C40.0702 45.517 39.8071 45.626 39.613 45.82C39.419 46.014 39.3101 46.2771 39.3101 46.5515C39.3128 47.4663 39.6189 48.3545 40.1805 49.0767C40.7421 49.7989 41.5275 50.3144 42.4135 50.5425V51.7239C42.4135 51.9982 42.5225 52.2613 42.7165 52.4553C42.9105 52.6493 43.1736 52.7583 43.448 52.7583C43.7223 52.7583 43.9855 52.6493 44.1795 52.4553C44.3735 52.2613 44.4825 51.9982 44.4825 51.7239V50.5425C45.4566 50.2918 46.3057 49.6942 46.8704 48.8618C47.4352 48.0295 47.6767 47.0196 47.5497 46.0218C47.4227 45.024 46.936 44.1069 46.1808 43.4425C45.4255 42.7782 44.4538 42.4123 43.448 42.4135Z" fill="#EEEEEE"/>
<path d="M35.1724 3.3457V7.28604L43.4482 13.7629V9.82258L35.1724 3.3457Z" fill="#616161"/>
</svg>
