<svg width="58" height="60" viewBox="0 0 58 60" fill="none" xmlns="http://www.w3.org/2000/svg">
<path d="M41.3364 21.0283H56.8188C56.9506 21.0283 57.077 20.9759 57.1702 20.8827C57.2634 20.7895 57.3158 20.6631 57.3158 20.5313V18.602C57.3158 18.4702 57.2634 18.3438 57.1702 18.2506C57.077 18.1573 56.9506 18.105 56.8188 18.105H41.3364V21.0283Z" fill="#FFD551"/>
<path d="M41.3364 18.105H48.0267V21.0284H41.3364V18.105Z" fill="#FFC34C"/>
<path d="M41.3364 59.9999H53.8635C54.1383 59.9999 54.3605 59.7775 54.3605 59.5029V21.0283H41.3364V59.9999Z" fill="#BF6C0D"/>
<path d="M41.3364 21.0283H48.0267V59.9994H41.3364V21.0283Z" fill="#A56021"/>
<path d="M50.9766 31.9487H46.4409C46.1661 31.9487 45.9438 31.7263 45.9438 31.4517V24.7324C45.9438 24.6005 45.9962 24.4741 46.0894 24.3809C46.1826 24.2877 46.309 24.2354 46.4409 24.2354H50.9766C51.1084 24.2354 51.2348 24.2877 51.328 24.3809C51.4212 24.4741 51.4736 24.6005 51.4736 24.7324V31.4517C51.4736 31.7259 51.2508 31.9487 50.9766 31.9487ZM50.9766 43.6401H46.4409C46.1661 43.6401 45.9438 43.4177 45.9438 43.1431V36.4236C45.9438 36.2918 45.9962 36.1654 46.0894 36.0722C46.1826 35.979 46.309 35.9266 46.4409 35.9266H50.9766C51.1084 35.9266 51.2348 35.979 51.328 36.0722C51.4212 36.1654 51.4736 36.2918 51.4736 36.4236V43.1429C51.4736 43.4172 51.2508 43.64 50.9766 43.64V43.6401ZM50.9766 55.3315H46.4409C46.1661 55.3315 45.9438 55.1091 45.9438 54.8345V48.1155C45.9438 47.8409 46.1661 47.6185 46.4409 47.6185H50.9766C51.2512 47.6185 51.4736 47.8409 51.4736 48.1155V54.8345C51.4736 54.9663 51.4212 55.0927 51.328 55.1859C51.2348 55.2791 51.1084 55.3315 50.9766 55.3315Z" fill="#FFD551"/>
<path d="M48.0266 47.6185H46.4404C46.3086 47.6185 46.1821 47.6709 46.0889 47.7641C45.9957 47.8573 45.9434 47.9837 45.9434 48.1155V54.8343C45.9434 54.9662 45.9957 55.0926 46.0889 55.1858C46.1821 55.279 46.3086 55.3313 46.4404 55.3313H48.0266V47.6185ZM48.0266 35.9266H46.4404C46.1661 35.9266 45.9434 36.1495 45.9434 36.4236V43.1431C45.9434 43.2749 45.9957 43.4013 46.0889 43.4945C46.1821 43.5877 46.3086 43.6401 46.4404 43.6401H48.0266V35.9266ZM48.0266 24.2354H46.4404C46.3086 24.2354 46.1821 24.2877 46.0889 24.3809C45.9957 24.4741 45.9434 24.6005 45.9434 24.7324V31.4512C45.9434 31.583 45.9957 31.7094 46.0889 31.8026C46.1821 31.8958 46.3086 31.9482 46.4404 31.9482H48.0266V24.2354Z" fill="#FFC34C"/>
<path d="M16.1395 21.0283H0.656677C0.382452 21.0283 0.159668 20.8055 0.159668 20.5313V18.602C0.159668 18.3278 0.382452 18.105 0.656677 18.105H16.1398L16.1395 21.0283Z" fill="#FFD551"/>
<path d="M16.1398 59.9999H3.61273C3.33813 59.9999 3.11572 59.7775 3.11572 59.5029V21.0283H16.1398V59.9999Z" fill="#A56021"/>
<path d="M3.11572 21.0283V59.5024C3.11572 59.777 3.33813 59.9994 3.61273 59.9994H10.0738V21.0283H3.11572Z" fill="#8C4C17"/>
<path d="M14.269 9.82373H43.0563V59.9993H14.269V9.82373Z" fill="#FFA730"/>
<path d="M14.269 9.82373H21.2272V59.9993H14.269V9.82373Z" fill="#E58D23"/>
<path d="M10.9595 12.7784V10.2934C10.9595 10.0187 11.1816 9.79639 11.4565 9.79639H45.2531C45.5277 9.79639 45.7501 10.0187 45.7501 10.2934V12.7784C45.7501 13.053 45.5277 13.2754 45.2531 13.2754H11.4565C11.1816 13.2754 10.9595 13.053 10.9595 12.7784ZM40.2329 25.2075H35.6972C35.4226 25.2075 35.2002 24.9852 35.2002 24.7105V17.9912C35.2002 17.8594 35.2526 17.733 35.3458 17.6398C35.439 17.5466 35.5654 17.4942 35.6972 17.4942H40.2329C40.3647 17.4942 40.4912 17.5466 40.5844 17.6398C40.6776 17.733 40.7299 17.8594 40.7299 17.9912V24.7105C40.7299 24.9847 40.5072 25.2075 40.2329 25.2075ZM30.9305 25.2075H26.3948C26.263 25.2075 26.1366 25.1552 26.0434 25.0619C25.9502 24.9687 25.8978 24.8423 25.8978 24.7105V17.9912C25.8978 17.717 26.1206 17.4942 26.3948 17.4942H30.9305C31.0624 17.4942 31.1888 17.5466 31.282 17.6398C31.3752 17.733 31.4275 17.8594 31.4275 17.9912V24.7105C31.4275 24.8423 31.3752 24.9687 31.282 25.0619C31.1888 25.1552 31.0624 25.2075 30.9305 25.2075ZM40.2673 36.3024H35.7316C35.5998 36.3024 35.4734 36.25 35.3802 36.1568C35.287 36.0636 35.2346 35.9372 35.2346 35.8054V29.0861C35.2346 28.8113 35.457 28.589 35.7316 28.589H40.2673C40.3992 28.589 40.5256 28.6414 40.6188 28.7346C40.712 28.8278 40.7644 28.9542 40.7644 29.0861V35.8054C40.7644 36.0796 40.5416 36.3024 40.2673 36.3024ZM30.9655 36.3024H26.4293C26.2974 36.3024 26.171 36.25 26.0778 36.1568C25.9846 36.0636 25.9322 35.9372 25.9322 35.8054V29.0861C25.9322 28.8113 26.1547 28.589 26.4293 28.589H30.965C31.2397 28.589 31.462 28.8113 31.462 29.0861V35.8054C31.4625 36.0796 31.2397 36.3024 30.9655 36.3024ZM40.247 47.6162H35.7113C35.4367 47.6162 35.2143 47.3938 35.2143 47.1192V40.3997C35.2143 40.2679 35.2666 40.1415 35.3598 40.0483C35.453 39.9551 35.5795 39.9027 35.7113 39.9027H40.247C40.5212 39.9027 40.744 40.1255 40.744 40.3997V47.119C40.744 47.3933 40.5212 47.616 40.247 47.616V47.6162ZM30.9451 47.6162H26.4094C26.1348 47.6162 25.9124 47.3938 25.9124 47.1192V40.3997C25.9124 40.2679 25.9647 40.1415 26.0579 40.0483C26.1511 39.9551 26.2776 39.9027 26.4094 39.9027H30.9451C31.2193 39.9027 31.4421 40.1255 31.4421 40.3997V47.119C31.4421 47.3933 31.2193 47.616 30.9451 47.616V47.6162Z" fill="#FFDF74"/>
<path d="M29.9525 2.04303L31.8211 2.28669C32.0526 2.31638 32.1521 2.59645 31.992 2.76581L30.6543 4.18402C30.6235 4.21665 30.6009 4.25605 30.5881 4.29904C30.5754 4.34204 30.573 4.38742 30.581 4.43153L30.9388 6.37397C30.9819 6.60843 30.7363 6.78947 30.5252 6.67925L28.8638 5.81048C28.8212 5.78821 28.7736 5.77706 28.7255 5.77808C28.6773 5.7791 28.6303 5.79226 28.5886 5.81632L26.9621 6.75356C26.7554 6.87247 26.5025 6.70112 26.5369 6.46529L26.819 4.51056C26.8252 4.46605 26.821 4.42071 26.8065 4.37814C26.7921 4.33558 26.768 4.29697 26.736 4.26541L25.345 2.90484C25.1785 2.74232 25.2663 2.4589 25.496 2.41902L27.3553 2.09683C27.4014 2.08895 27.4449 2.06981 27.4819 2.04112C27.5189 2.01243 27.5482 1.97506 27.5674 1.93232L28.3586 0.168933C28.4576 -0.0513663 28.7678 -0.0577032 28.8755 0.158744L29.7336 1.88622C29.7543 1.92837 29.7852 1.96473 29.8234 1.99207C29.8616 2.01941 29.9059 2.03699 29.9525 2.04303Z" fill="#FFA730"/>
<path d="M37.6036 2.44615L38.6796 2.5868C38.9111 2.6165 39.0107 2.89656 38.8505 3.06592L38.0734 3.89008C38.0426 3.92267 38.0199 3.96207 38.0072 4.00507C37.9944 4.04807 37.992 4.09348 38.0001 4.13759L38.2074 5.26121C38.2506 5.49567 38.005 5.6767 37.7938 5.566L36.8459 5.07097C36.8033 5.04868 36.7557 5.03751 36.7076 5.03851C36.6595 5.03951 36.6124 5.05264 36.5707 5.07669L35.6438 5.6111C35.4369 5.73001 35.1841 5.55867 35.2181 5.32234L35.3811 4.19288C35.3875 4.14832 35.3833 4.10288 35.3689 4.06023C35.3545 4.01758 35.3302 3.97892 35.2981 3.94736L34.49 3.15712C34.3235 2.9941 34.4113 2.71105 34.6414 2.67129L35.7131 2.48541C35.7592 2.47735 35.8026 2.45815 35.8396 2.42948C35.8766 2.4008 35.9059 2.36353 35.9252 2.3209L36.3775 1.31234C36.4766 1.09192 36.7873 1.0862 36.8944 1.30215L37.3847 2.28934C37.4269 2.3752 37.5089 2.43397 37.6036 2.44615Z" fill="#FFB74B"/>
<path d="M44.4623 2.44615L45.5384 2.5868C45.77 2.6165 45.8694 2.89656 45.7098 3.06592L44.9321 3.89008C44.9013 3.92267 44.8786 3.96207 44.8659 4.00507C44.8531 4.04807 44.8507 4.09348 44.8588 4.13759L45.0661 5.26121C45.1093 5.49567 44.8638 5.6767 44.6526 5.566L43.7046 5.07097C43.662 5.0487 43.6144 5.03755 43.5664 5.03855C43.5183 5.03954 43.4712 5.05266 43.4295 5.07669L42.5025 5.6111C42.2957 5.73001 42.0428 5.55867 42.0773 5.32234L42.2398 4.19288C42.2463 4.14831 42.2422 4.10284 42.2278 4.06017C42.2133 4.0175 42.189 3.97885 42.1568 3.94736L41.3487 3.15712C41.1822 2.9941 41.2707 2.71105 41.5003 2.67129L42.5722 2.48541C42.6182 2.47734 42.6616 2.45812 42.6984 2.42945C42.7353 2.40077 42.7646 2.36351 42.7838 2.3209L43.2367 1.31234C43.3352 1.09192 43.6459 1.0862 43.7531 1.30215L44.2433 2.28934C44.2855 2.3752 44.3675 2.43397 44.4622 2.44615H44.4623ZM14.7413 2.44615L15.8173 2.5868C16.0488 2.6165 16.1483 2.89656 15.9882 3.06592L15.2111 3.89008C15.1803 3.92267 15.1576 3.96207 15.1449 4.00507C15.1321 4.04807 15.1297 4.09348 15.1378 4.13759L15.3451 5.26121C15.3883 5.49567 15.1426 5.6767 14.9315 5.566L13.9836 5.07097C13.941 5.04868 13.8934 5.03751 13.8453 5.03851C13.7972 5.03951 13.7501 5.05264 13.7084 5.07669L12.7815 5.6111C12.5746 5.73001 12.3218 5.55867 12.3558 5.32234L12.5188 4.19288C12.5252 4.14832 12.521 4.10288 12.5066 4.06023C12.4922 4.01758 12.4679 3.97892 12.4358 3.94736L11.6277 3.15712C11.4612 2.9941 11.549 2.71105 11.7791 2.67129L12.8508 2.48541C12.8969 2.47735 12.9403 2.45815 12.9773 2.42948C13.0142 2.4008 13.0436 2.36353 13.0629 2.3209L13.5152 1.31234C13.6143 1.09192 13.925 1.0862 14.0321 1.30215L14.5224 2.28934C14.5646 2.3752 14.6466 2.43397 14.7413 2.44615Z" fill="#FFC34C"/>
<path d="M21.6 2.44615L22.6761 2.5868C22.9077 2.6165 23.0071 2.89656 22.8475 3.06592L22.0698 3.89008C22.039 3.92267 22.0163 3.96207 22.0036 4.00507C21.9909 4.04807 21.9884 4.09348 21.9965 4.13759L22.2038 5.26121C22.247 5.49567 22.0015 5.6767 21.7903 5.566L20.8424 5.07097C20.7997 5.0487 20.7522 5.03755 20.7041 5.03855C20.656 5.03954 20.6089 5.05266 20.5673 5.07669L19.6402 5.6111C19.4335 5.73001 19.1805 5.55867 19.215 5.32234L19.3775 4.19288C19.384 4.14831 19.3799 4.10284 19.3655 4.06017C19.3511 4.0175 19.3267 3.97885 19.2945 3.94736L18.4864 3.15712C18.3199 2.9941 18.4084 2.71105 18.638 2.67129L19.7099 2.48541C19.7559 2.47734 19.7993 2.45812 19.8362 2.42945C19.873 2.40077 19.9024 2.36351 19.9215 2.3209L20.3744 1.31234C20.473 1.09192 20.7836 1.0862 20.8908 1.30215L21.381 2.28934C21.4232 2.3752 21.5052 2.43397 21.5999 2.44615H21.6Z" fill="#FFB74B"/>
<path d="M17.9176 12.7784V10.2934C17.9176 10.0187 18.1398 9.79639 18.4146 9.79639H11.4565C11.1816 9.79639 10.9595 10.0187 10.9595 10.2934V12.7784C10.9595 13.053 11.1816 13.2754 11.4565 13.2754H18.4146C18.1398 13.2754 17.9176 13.053 17.9176 12.7784Z" fill="#FFD551"/>
<path d="M21.132 13.8556V12.2801C21.132 12.1326 21.0098 12.0132 20.8588 12.0132H19.6294C19.4785 12.0132 19.3561 12.1325 19.3561 12.2801V13.8556C19.3561 14.0026 19.2338 14.1225 19.0829 14.1225H18.2738C18.1229 14.1225 18.0005 14.0026 18.0005 13.8556V9.03298C18.0005 8.8855 18.1229 8.76609 18.2738 8.76609H19.0829C19.2338 8.76609 19.3562 8.88537 19.3562 9.03298V10.5668C19.3562 10.7142 19.4785 10.8336 19.6294 10.8336H20.8588C21.0098 10.8336 21.1321 10.7144 21.1321 10.5668V9.03298C21.1321 8.8855 21.2544 8.76609 21.4049 8.76609H22.2144C22.3653 8.76609 22.4877 8.88537 22.4877 9.03298V13.8556C22.4877 14.0026 22.3653 14.1225 22.2144 14.1225H21.4049C21.2544 14.1225 21.132 14.0026 21.132 13.8556ZM25.5304 14.1706C23.2987 14.1706 21.8364 11.8617 23.3677 9.42326C23.3871 9.3917 23.4312 9.34846 23.4634 9.32908C25.9575 7.81867 28.3236 9.24906 28.3236 11.4337C28.3241 12.994 27.1228 14.1706 25.5304 14.1706ZM25.5304 9.93145C24.6694 9.93145 24.1132 10.5212 24.1132 11.4337C24.1132 12.3549 24.6694 12.9499 25.5304 12.9499C26.391 12.9499 26.9471 12.3547 26.9471 11.4337C26.9471 10.5212 26.391 9.93145 25.5304 9.93145ZM29.6381 13.8556V10.2119C29.6381 10.0649 29.5157 9.945 29.3647 9.945H28.5901C28.4397 9.945 28.3174 9.82571 28.3174 9.6781V9.03298C28.3174 8.8855 28.4397 8.76609 28.5901 8.76609H32.0343C32.1846 8.76609 32.307 8.88537 32.307 9.03298V9.6781C32.307 9.82559 32.1848 9.945 32.0343 9.945H31.2669C31.1159 9.945 30.9935 10.0649 30.9935 10.2119V13.8556C30.9935 14.0026 30.8713 14.1225 30.7203 14.1225H29.9108C29.7603 14.1225 29.6381 14.0026 29.6381 13.8556ZM32.5774 13.8556V9.02565C32.5774 8.87854 32.6997 8.75913 32.8506 8.75913H35.5773C35.7283 8.75913 35.8502 8.87854 35.8502 9.02565V9.67114C35.8502 9.81863 35.7284 9.93804 35.5773 9.93804H34.2062C34.0552 9.93804 33.9329 10.0574 33.9329 10.2051V10.553C33.9329 10.7006 34.0552 10.82 34.2062 10.82H35.3642C35.5152 10.82 35.6376 10.9394 35.6376 11.0869V11.7325C35.6376 11.8795 35.5152 11.9994 35.3642 11.9994H34.2062C34.0552 11.9994 33.9329 12.1188 33.9329 12.2659V12.6764C33.9329 12.824 34.0552 12.9435 34.2062 12.9435H35.5773C35.7283 12.9435 35.8502 13.0627 35.8502 13.2103V13.856C35.8502 14.0029 35.7284 14.1229 35.5773 14.1229H32.8506C32.6997 14.1224 32.5773 14.0025 32.5773 13.8555L32.5774 13.8556ZM36.2983 13.8556V9.03298C36.2983 8.8855 36.42 8.76609 36.5709 8.76609H37.3805C37.5315 8.76609 37.6532 8.88537 37.6532 9.03298V12.6835C37.6532 12.8305 37.7756 12.9499 37.9266 12.9499H39.0492C39.2002 12.9499 39.3224 13.0698 39.3224 13.2168V13.8555C39.3224 14.0026 39.2002 14.1226 39.0491 14.1226H36.5709C36.42 14.1226 36.2981 14.0026 36.2981 13.8555L36.2983 13.8556Z" fill="#A56021"/>
<path d="M21.7105 25.2075H17.1743C16.8997 25.2075 16.6772 24.9852 16.6772 24.7105V17.9911C16.6772 17.8593 16.7296 17.7329 16.8228 17.6397C16.916 17.5465 17.0424 17.4941 17.1743 17.4941H21.71C21.8418 17.4941 21.9682 17.5465 22.0614 17.6397C22.1546 17.7329 22.207 17.8593 22.207 17.9911V24.7105C22.2075 24.9847 21.9846 25.2075 21.7105 25.2075ZM21.7444 36.3023H17.2087C17.0769 36.3023 16.9504 36.25 16.8572 36.1568C16.764 36.0636 16.7117 35.9371 16.7117 35.8053V29.086C16.7117 28.8113 16.9341 28.589 17.2087 28.589H21.7444C22.0191 28.589 22.2414 28.8113 22.2414 29.086V35.8053C22.2414 35.9371 22.189 36.0636 22.0958 36.1568C22.0026 36.25 21.8762 36.3023 21.7444 36.3023ZM21.7245 47.6161H17.1883C16.9137 47.6161 16.6913 47.3937 16.6913 47.1191V40.3997C16.6913 40.2679 16.7437 40.1414 16.8369 40.0482C16.9301 39.955 17.0565 39.9027 17.1883 39.9027H21.724C21.8558 39.9027 21.9822 39.955 22.0754 40.0482C22.1686 40.1414 22.221 40.2679 22.221 40.3997V47.119C22.2215 47.3932 21.9987 47.616 21.7245 47.616V47.6161Z" fill="#FFDF74"/>
<path d="M21.2275 39.9027H17.1883C17.0565 39.9027 16.9301 39.955 16.8369 40.0482C16.7437 40.1414 16.6913 40.2679 16.6913 40.3997V47.1191C16.6913 47.3937 16.9137 47.6161 17.1883 47.6161H21.2275V39.9027ZM21.2275 28.589H17.2087C16.9341 28.589 16.7117 28.8113 16.7117 29.086V35.8048C16.7117 35.9366 16.764 36.0631 16.8572 36.1563C16.9504 36.2495 17.0769 36.3018 17.2087 36.3018H21.2275V28.589ZM21.2275 17.4941H17.1743C17.0424 17.4941 16.916 17.5465 16.8228 17.6397C16.7296 17.7329 16.6772 17.8593 16.6772 17.9911V24.7105C16.6772 24.8423 16.7296 24.9687 16.8228 25.0619C16.916 25.1551 17.0424 25.2075 17.1743 25.2075H21.2275V17.4941ZM37.1886 24.7105V17.9911C37.1886 17.8593 37.2409 17.7329 37.3341 17.6397C37.4273 17.5465 37.5538 17.4941 37.6856 17.4941H35.6975C35.5657 17.4941 35.4393 17.5465 35.3461 17.6397C35.2529 17.7329 35.2005 17.8593 35.2005 17.9911V24.7105C35.2005 24.8423 35.2529 24.9687 35.3461 25.0619C35.4393 25.1551 35.5657 25.2075 35.6975 25.2075H37.6856C37.5538 25.2075 37.4273 25.1551 37.3341 25.0619C37.2409 24.9687 37.1886 24.8423 37.1886 24.7105ZM27.8862 24.7105V17.9911C27.8862 17.7169 28.109 17.4941 28.3832 17.4941H26.3951C26.1209 17.4941 25.8981 17.7169 25.8981 17.9911V24.7105C25.8981 24.9847 26.1209 25.2075 26.3951 25.2075H28.3832C28.109 25.2075 27.8862 24.9847 27.8862 24.7105ZM37.223 35.8053V29.086C37.223 28.8113 37.4454 28.589 37.72 28.589H35.732C35.4574 28.589 35.2349 28.8113 35.2349 29.086V35.8048C35.2349 35.9366 35.2873 36.0631 35.3805 36.1563C35.4737 36.2495 35.6001 36.3018 35.732 36.3018H37.72C37.4454 36.3023 37.223 36.0795 37.223 35.8053ZM27.9206 35.8053V29.086C27.9206 28.8113 28.143 28.589 28.4176 28.589H26.4296C26.155 28.589 25.9325 28.8113 25.9325 29.086V35.8048C25.9325 35.9366 25.9849 36.0631 26.0781 36.1563C26.1713 36.2495 26.2977 36.3018 26.4296 36.3018H28.4176C28.1434 36.3023 27.9206 36.0795 27.9206 35.8053ZM37.2026 47.1191V40.3997C37.2026 40.2679 37.255 40.1414 37.3482 40.0482C37.4414 39.955 37.5678 39.9027 37.6996 39.9027H35.7116C35.5798 39.9027 35.4533 39.955 35.3601 40.0482C35.2669 40.1414 35.2146 40.2679 35.2146 40.3997V47.119C35.2146 47.3936 35.437 47.616 35.7116 47.616H37.6996C37.425 47.616 37.2026 47.3936 37.2026 47.119V47.1191ZM27.9003 47.1191V40.3997C27.9003 40.2679 27.9527 40.1414 28.0459 40.0482C28.1391 39.955 28.2655 39.9027 28.3973 39.9027H26.4093C26.2775 39.9027 26.1511 39.955 26.0579 40.0482C25.9647 40.1414 25.9123 40.2679 25.9123 40.3997V47.119C25.9123 47.3936 26.1345 47.616 26.4093 47.616H28.3973C28.2655 47.616 28.1391 47.5636 28.0459 47.4704C27.9527 47.3772 27.9003 47.2508 27.9003 47.119V47.1191Z" fill="#FFD551"/>
<path d="M28.4798 46.6326L23.3477 51.358C23.3187 51.3845 23.2956 51.4167 23.2798 51.4527C23.264 51.4886 23.2559 51.5274 23.2559 51.5667V60H34.0979V51.5668C34.0979 51.4877 34.0643 51.412 34.0057 51.3581L28.874 46.6326C28.8202 46.5834 28.7499 46.5562 28.6769 46.5562C28.604 46.5562 28.5337 46.5834 28.4798 46.6326Z" fill="#FFDF74"/>
<path d="M32.6068 58.7576C32.1948 58.7576 31.8613 58.4236 31.8613 58.0121V52.3148C31.8613 51.9028 32.1948 51.5693 32.6068 51.5693C33.0185 51.5693 33.3524 51.9028 33.3524 52.3148V58.0121C33.3524 58.4236 33.0185 58.7576 32.6068 58.7576Z" fill="#FFF4C1"/>
<path d="M30.9741 59.7877H26.501V52.8295C26.501 52.6977 26.5533 52.5713 26.6465 52.4781C26.7398 52.3849 26.8662 52.3325 26.998 52.3325H30.477C30.7518 52.3325 30.9741 52.5548 30.9741 52.8295V59.7877Z" fill="#F9BB32"/>
<path d="M25.3357 51.358L29.6709 47.3664L28.8744 46.6326C28.8205 46.5834 28.7501 46.5562 28.6771 46.5562C28.6041 46.5562 28.5337 46.5834 28.4798 46.6326L23.3477 51.3579C23.3187 51.3844 23.2956 51.4167 23.2798 51.4526C23.264 51.4886 23.2559 51.5274 23.2559 51.5667V59.9999H25.2439V51.5668C25.2439 51.4876 25.2769 51.412 25.3356 51.358H25.3357Z" fill="#FFD551"/>
<path d="M34.0981 53.1874V51.6735L28.6771 47.1014L23.2561 51.6735V53.1874H22.4058C21.9578 53.1874 21.5928 52.837 21.5928 52.4054V50.6071L28.1414 45.0823C28.2894 44.9575 28.4796 44.8887 28.6771 44.8887C28.8747 44.8887 29.0649 44.9575 29.213 45.0823L35.761 50.6071V52.4054C35.761 52.8368 35.3965 53.1877 34.9484 53.1877H34.0981V53.1874Z" fill="#FF624B"/>
<path d="M22.5869 52.4057V50.6074L29.1354 45.0825C29.1474 45.0723 29.1615 45.0651 29.1741 45.0553C29.0243 44.9423 28.8405 44.8835 28.6529 44.8885C28.4653 44.8934 28.285 44.9618 28.1412 45.0825L21.5928 50.6069V52.4052C21.5928 52.8366 21.9578 53.1876 22.4058 53.1876H23.2561V53.1734C22.8767 53.108 22.5868 52.7895 22.5868 52.4056L22.5869 52.4057Z" fill="#FF4B34"/>
<path d="M28.986 52.3325H26.998C26.8662 52.3325 26.7398 52.3849 26.6465 52.4781C26.5533 52.5713 26.501 52.6977 26.501 52.8295V59.7877H28.489V52.8295C28.489 52.6977 28.5414 52.5713 28.6346 52.4781C28.7278 52.3849 28.8542 52.3325 28.986 52.3325Z" fill="#DB9C2E"/>
<path d="M18.6791 47.1191V40.3997C18.6791 40.2679 18.7315 40.1414 18.8247 40.0482C18.9179 39.955 19.0443 39.9027 19.1761 39.9027H17.1881C17.0563 39.9027 16.9298 39.955 16.8366 40.0482C16.7434 40.1414 16.6911 40.2679 16.6911 40.3997V47.119C16.6911 47.3936 16.9135 47.616 17.1881 47.616H19.1761C19.0443 47.616 18.9179 47.5636 18.8247 47.4704C18.7315 47.3772 18.6791 47.2508 18.6791 47.119V47.1191ZM18.6995 35.8053V29.086C18.6995 28.8113 18.9219 28.589 19.1965 28.589H17.2084C16.9338 28.589 16.7114 28.8113 16.7114 29.086V35.8048C16.7114 35.9366 16.7638 36.0631 16.857 36.1563C16.9502 36.2495 17.0766 36.3018 17.2084 36.3018H19.1965C18.9219 36.3023 18.6995 36.0795 18.6995 35.8053ZM18.6651 24.7105V17.9911C18.6651 17.8593 18.7174 17.7329 18.8106 17.6397C18.9038 17.5465 19.0303 17.4941 19.1621 17.4941H17.174C17.0422 17.4941 16.9158 17.5465 16.8226 17.6397C16.7294 17.7329 16.677 17.8593 16.677 17.9911V24.7105C16.677 24.8423 16.7294 24.9687 16.8226 25.0619C16.9158 25.1551 17.0422 25.2075 17.174 25.2075H19.1621C18.8878 25.2075 18.6651 24.9847 18.6651 24.7105ZM7.11779 20.5315V18.6022C7.11779 18.328 7.34058 18.1052 7.6148 18.1052H0.656677C0.382452 18.1052 0.159668 18.328 0.159668 18.6022V20.5315C0.159668 20.8057 0.382452 21.0285 0.656677 21.0285H7.6148C7.34058 21.0285 7.11779 20.8057 7.11779 20.5315Z" fill="#FFC34C"/>
<path d="M10.9603 31.9487H6.42426C6.29244 31.9487 6.16602 31.8963 6.07282 31.8031C5.97961 31.7099 5.92725 31.5835 5.92725 31.4517V24.7324C5.92725 24.4581 6.15003 24.2354 6.42426 24.2354H10.9605C11.2347 24.2354 11.4575 24.4581 11.4575 24.7324V31.4517C11.4575 31.7259 11.2346 31.9487 10.9603 31.9487ZM10.9603 43.6401H6.42426C6.29244 43.6401 6.16602 43.5877 6.07282 43.4945C5.97961 43.4013 5.92725 43.2749 5.92725 43.1431V36.4236C5.92725 36.1494 6.15003 35.9266 6.42426 35.9266H10.9605C11.2347 35.9266 11.4575 36.1494 11.4575 36.4236V43.1429C11.4575 43.4172 11.2347 43.64 10.9605 43.64L10.9603 43.6401ZM10.9603 55.3315H6.42426C6.29244 55.3315 6.16602 55.2791 6.07282 55.1859C5.97961 55.0927 5.92725 54.9663 5.92725 54.8345V48.1155C5.92725 47.9837 5.97961 47.8573 6.07282 47.7641C6.16602 47.6709 6.29244 47.6185 6.42426 47.6185H10.9605C11.0923 47.6185 11.2187 47.6709 11.3119 47.7641C11.4051 47.8573 11.4575 47.9837 11.4575 48.1155V54.8345C11.4575 54.9663 11.4051 55.0927 11.3119 55.1859C11.2187 55.2791 11.0921 55.3315 10.9603 55.3315Z" fill="#FFD551"/>
<path d="M10.0735 47.6185H6.42426C6.29244 47.6185 6.16602 47.6709 6.07282 47.7641C5.97961 47.8573 5.92725 47.9837 5.92725 48.1155V54.8343C5.92725 54.9662 5.97961 55.0926 6.07282 55.1858C6.16602 55.279 6.29244 55.3313 6.42426 55.3313H10.0735V47.6185ZM10.0735 35.9266H6.42426C6.14991 35.9266 5.92725 36.1495 5.92725 36.4236V43.1431C5.92725 43.2749 5.97961 43.4013 6.07282 43.4945C6.16602 43.5877 6.29244 43.6401 6.42426 43.6401H10.0735V35.9266ZM10.0735 24.2354H6.42426C6.29244 24.2354 6.16602 24.2877 6.07282 24.3809C5.97961 24.4741 5.92725 24.6005 5.92725 24.7324V31.4512C5.92725 31.583 5.97961 31.7094 6.07282 31.8026C6.16602 31.8958 6.29244 31.9482 6.42426 31.9482H10.0735V24.2354Z" fill="#FFC34C"/>
<path d="M7.91528 54.8345V48.1155C7.91528 47.9837 7.96765 47.8573 8.06085 47.7641C8.15406 47.6709 8.28048 47.6185 8.41229 47.6185H6.42426C6.29244 47.6185 6.16602 47.6709 6.07282 47.7641C5.97961 47.8573 5.92725 47.9837 5.92725 48.1155V54.8345C5.92725 54.9663 5.97961 55.0927 6.07282 55.1859C6.16602 55.2791 6.29244 55.3315 6.42426 55.3315H8.41229C8.28048 55.3315 8.15406 55.2791 8.06085 55.1859C7.96765 55.0927 7.91528 54.9663 7.91528 54.8345ZM7.91528 43.1431V36.4236C7.91528 36.1494 8.13794 35.9266 8.41229 35.9266H6.42426C6.14991 35.9266 5.92725 36.1494 5.92725 36.4236V43.1429C5.92725 43.2748 5.97961 43.4012 6.07282 43.4944C6.16602 43.5876 6.29244 43.64 6.42426 43.64H8.41229C8.28048 43.64 8.15406 43.5876 8.06085 43.4944C7.96765 43.4012 7.91528 43.2748 7.91528 43.1429V43.1431ZM7.91528 31.4517V24.7324C7.91528 24.4581 8.13794 24.2354 8.41229 24.2354H6.42426C6.14991 24.2354 5.92725 24.4581 5.92725 24.7324V31.4517C5.92725 31.7259 6.14991 31.9487 6.42426 31.9487H8.41229C8.13794 31.9487 7.91528 31.7259 7.91528 31.4517Z" fill="#FFB74B"/>
<path d="M40.2153 56.5949C40.2153 57.8297 39.214 58.8314 37.9787 58.8314C36.7434 58.8314 35.7422 57.8297 35.7422 56.5949C35.7422 55.3597 36.7435 54.3583 37.9787 54.3583C39.2139 54.3583 40.2153 55.3597 40.2153 56.5949ZM52.8691 58.7572C52.4571 58.7572 52.1236 58.4232 52.1236 58.0117V41.7201C52.1236 41.3085 52.4571 40.9746 52.8691 40.9746C53.2808 40.9746 53.6146 41.3085 53.6146 41.7201V58.0117C53.6146 58.4232 53.2808 58.7572 52.8691 58.7572Z" fill="#E58D23"/>
</svg>
