<svg width="51" height="60" viewBox="0 0 51 60" fill="none" xmlns="http://www.w3.org/2000/svg">
<path d="M50.2083 10.9375V27.7083C50.2083 42.9167 39.8958 56.25 25.1042 60C10.3125 56.25 0 42.9167 0 27.7083V10.9375C11.5625 9.58333 18.2292 5.20833 25.1042 0C31.9792 5.20833 38.6458 9.58333 50.2083 10.9375Z" fill="#FFD15D"/>
<path d="M25.104 53.3332C13.9582 49.7915 6.354 39.479 6.354 27.7082V16.354C14.1665 14.6873 19.8957 11.4582 25.104 7.9165C30.4165 11.5623 36.0415 14.6873 43.854 16.354V27.7082C43.854 39.479 36.2498 49.7915 25.104 53.3332Z" fill="#F5B92D"/>
<path d="M20.9375 40.2082L14.6875 34.0623L17.9167 30.9373L20.9375 33.9582L32.2917 22.604L35.5208 25.729L20.9375 40.2082Z" fill="white"/>
</svg>
