<svg width="60" height="60" viewBox="0 0 60 60" fill="none" xmlns="http://www.w3.org/2000/svg">
<path d="M27.931 16.5518H13.4483C13.4483 16.5518 0 27.9311 0 42.4138C0 45.4318 1.19889 48.3262 3.33292 50.4602C5.46696 52.5942 8.36133 53.7931 11.3793 53.7931H30C33.018 53.7931 35.9124 52.5942 38.0464 50.4602C40.1804 48.3262 41.3793 45.4318 41.3793 42.4138C41.3793 27.9311 27.931 16.5518 27.931 16.5518Z" fill="#81C784"/>
<path d="M41.3794 42.4138C41.3802 43.9084 41.0864 45.3885 40.5148 46.7695C39.9432 48.1504 39.1051 49.4052 38.0483 50.462C36.9914 51.5189 35.7367 52.357 34.3557 52.9286C32.9747 53.5002 31.4946 53.794 30 53.7931H11.3794C9.29321 53.7941 7.24696 53.2215 5.46441 52.1377C3.68187 51.0539 2.23168 49.5009 1.27246 47.6483C3.48025 49.6265 6.34607 50.7109 9.31039 50.6897H24.8276C31.1173 50.6897 36.2069 46.0242 36.2069 40.2621C36.2069 33.6207 32.8449 27.6931 29.4828 23.4207C27.4995 20.892 25.2446 18.5885 22.7587 16.5518H27.9311C30.4401 18.7982 32.695 21.3132 34.6552 24.0518C38.0173 28.7069 41.3794 35.1724 41.3794 42.4138Z" fill="#66BB6A"/>
<path d="M28.9654 0C26.8965 0 26.8965 1.03448 24.8275 1.03448C22.7585 1.03448 22.7585 0 20.6896 0C18.6206 0 18.6206 1.03448 16.5516 1.03448C14.4827 1.03448 14.4827 0 12.4137 0C11.3792 0 10.3447 1.03448 10.3447 4.13793C10.4878 6.84336 11.5878 9.40988 13.4482 11.3793H27.9309C29.7914 9.40988 30.8913 6.84336 31.0344 4.13793C31.0344 1.03448 29.9999 0 28.9654 0Z" fill="#81C784"/>
<path d="M31.0348 4.13793C30.8917 6.84336 29.7918 9.40988 27.9314 11.3793H13.4486C12.592 10.4599 11.8836 9.41292 11.3486 8.27586H20.1169C21.0658 8.27802 21.9969 8.01842 22.8078 7.52564C23.6187 7.03286 24.278 6.32599 24.7131 5.48276C25.443 4.11191 25.8369 2.58732 25.8624 1.03448V0.92069C26.9797 0.662069 27.3107 0 28.9659 0C30.0004 0 31.0348 1.03448 31.0348 4.13793Z" fill="#66BB6A"/>
<path d="M20.6897 34.1382C20.2805 34.1382 19.8805 34.0168 19.5402 33.7895C19.2 33.5621 18.9348 33.239 18.7782 32.861C18.6216 32.4829 18.5806 32.0669 18.6605 31.6656C18.7403 31.2642 18.9374 30.8956 19.2267 30.6062C19.5161 30.3169 19.8847 30.1198 20.2861 30.04C20.6874 29.9602 21.1034 30.0011 21.4814 30.1577C21.8595 30.3143 22.1826 30.5795 22.41 30.9197C22.6373 31.26 22.7587 31.66 22.7587 32.0692C22.7587 32.3436 22.8676 32.6067 23.0616 32.8007C23.2556 32.9947 23.5188 33.1037 23.7931 33.1037C24.0675 33.1037 24.3306 32.9947 24.5246 32.8007C24.7186 32.6067 24.8276 32.3436 24.8276 32.0692C24.8249 31.1543 24.5187 30.2662 23.9571 29.5439C23.3955 28.8217 22.6102 28.3062 21.7242 28.0782V26.8968C21.7242 26.6224 21.6152 26.3593 21.4212 26.1653C21.2272 25.9713 20.9641 25.8623 20.6897 25.8623C20.4153 25.8623 20.1522 25.9713 19.9582 26.1653C19.7642 26.3593 19.6552 26.6224 19.6552 26.8968V28.0782C18.6811 28.3289 17.832 28.9265 17.2673 29.7588C16.7025 30.5912 16.461 31.601 16.5879 32.5988C16.7149 33.5966 17.2017 34.5138 17.9569 35.1781C18.7121 35.8425 19.6838 36.2084 20.6897 36.2071C21.0989 36.2071 21.4989 36.3285 21.8391 36.5558C22.1794 36.7832 22.4446 37.1063 22.6012 37.4843C22.7578 37.8624 22.7987 38.2784 22.7189 38.6797C22.6391 39.0811 22.442 39.4497 22.1527 39.7391C21.8633 40.0284 21.4947 40.2255 21.0933 40.3053C20.692 40.3851 20.276 40.3442 19.8979 40.1876C19.5199 40.031 19.1967 39.7658 18.9694 39.4256C18.7421 39.0853 18.6207 38.6853 18.6207 38.2761C18.6207 38.0017 18.5117 37.7386 18.3177 37.5446C18.1237 37.3506 17.8606 37.2416 17.5862 37.2416C17.3119 37.2416 17.0488 37.3506 16.8548 37.5446C16.6607 37.7386 16.5518 38.0017 16.5518 38.2761C16.5545 39.191 16.8606 40.0791 17.4222 40.8014C17.9839 41.5236 18.7692 42.0391 19.6552 42.2671V43.4485C19.6552 43.7229 19.7642 43.986 19.9582 44.18C20.1522 44.374 20.4153 44.483 20.6897 44.483C20.9641 44.483 21.2272 44.374 21.4212 44.18C21.6152 43.986 21.7242 43.7229 21.7242 43.4485V42.2671C22.6983 42.0164 23.5474 41.4188 24.1121 40.5865C24.6769 39.7541 24.9184 38.7443 24.7914 37.7465C24.6645 36.7487 24.1777 35.8315 23.4225 35.1672C22.6673 34.5028 21.6955 34.1369 20.6897 34.1382Z" fill="#EEEEEE"/>
<path d="M28.4482 11.3794H12.9309C11.5026 11.3794 10.3447 12.5373 10.3447 13.9656C10.3447 15.3939 11.5026 16.5518 12.9309 16.5518H28.4482C29.8765 16.5518 31.0344 15.3939 31.0344 13.9656C31.0344 12.5373 29.8765 11.3794 28.4482 11.3794Z" fill="#FFB74D"/>
<path d="M31.0346 13.9656C31.0357 14.3055 30.9695 14.6423 30.84 14.9566C30.7104 15.2709 30.5199 15.5564 30.2795 15.7968C30.0392 16.0371 29.7536 16.2276 29.4394 16.3572C29.1251 16.4868 28.7883 16.5529 28.4484 16.5518H12.9311C12.2452 16.5518 11.5874 16.2793 11.1024 15.7943C10.6174 15.3093 10.3449 14.6515 10.3449 13.9656C10.3428 13.8094 10.3567 13.6534 10.3863 13.5001C10.6282 13.8062 10.9363 14.0537 11.2875 14.2239C11.6386 14.3941 12.0237 14.4826 12.4139 14.4828H23.276C23.6159 14.4839 23.9527 14.4178 24.267 14.2882C24.5812 14.1586 24.8668 13.9682 25.1071 13.7278C25.3475 13.4874 25.538 13.2019 25.6675 12.8876C25.7971 12.5734 25.8633 12.2366 25.8622 11.8966C25.8609 11.723 25.8436 11.5499 25.8105 11.3794H28.4484C29.1343 11.3794 29.7921 11.6519 30.2771 12.1369C30.7621 12.6219 31.0346 13.2797 31.0346 13.9656Z" fill="#FFA726"/>
<path d="M44.4826 59.9998C53.0525 59.9998 59.9998 53.0525 59.9998 44.4826C59.9998 35.9126 53.0525 28.9653 44.4826 28.9653C35.9126 28.9653 28.9653 35.9126 28.9653 44.4826C28.9653 53.0525 35.9126 59.9998 44.4826 59.9998Z" fill="#FFB74D"/>
<path d="M60.0002 44.4825C60.0009 47.4842 59.1308 50.4216 57.4953 52.9387C55.8598 55.4557 53.5291 57.4441 50.786 58.6629C48.0429 59.8817 45.0051 60.2785 42.0409 59.8052C39.0767 59.3319 36.3136 58.0088 34.0864 55.9963C37.4692 57.2059 41.167 57.2042 44.5487 55.9916C47.9304 54.7789 50.7866 52.4305 52.6299 49.3468C54.4733 46.2632 55.1895 42.6356 54.6565 39.0827C54.1235 35.5299 52.3742 32.2722 49.7071 29.8652C52.7194 30.9449 55.3247 32.9285 57.1671 35.5448C59.0094 38.1611 59.9989 41.2826 60.0002 44.4825Z" fill="#FFA726"/>
<path d="M39.8277 43.4484C39.1116 43.4484 38.4116 43.2361 37.8162 42.8382C37.2208 42.4404 36.7567 41.8749 36.4826 41.2133C36.2086 40.5517 36.1369 39.8237 36.2766 39.1214C36.4163 38.419 36.7611 37.7739 37.2675 37.2675C37.7739 36.7611 38.419 36.4163 39.1214 36.2766C39.8237 36.1369 40.5517 36.2086 41.2133 36.4826C41.8749 36.7567 42.4404 37.2208 42.8382 37.8162C43.2361 38.4116 43.4484 39.1116 43.4484 39.8277C43.4473 40.7877 43.0655 41.708 42.3867 42.3867C41.708 43.0655 40.7877 43.4473 39.8277 43.4484ZM39.8277 38.276C39.5208 38.276 39.2208 38.367 38.9656 38.5375C38.7104 38.708 38.5116 38.9504 38.3941 39.2339C38.2767 39.5174 38.2459 39.8294 38.3058 40.1304C38.3657 40.4315 38.5135 40.7079 38.7305 40.925C38.9475 41.142 39.224 41.2898 39.525 41.3496C39.826 41.4095 40.138 41.3788 40.4215 41.2613C40.7051 41.1439 40.9474 40.945 41.1179 40.6898C41.2884 40.4346 41.3794 40.1346 41.3794 39.8277C41.3789 39.4163 41.2152 39.022 40.9243 38.7311C40.6335 38.4402 40.2391 38.2765 39.8277 38.276ZM49.1381 52.7588C48.422 52.7588 47.7219 52.5464 47.1265 52.1486C46.5311 51.7507 46.067 51.1852 45.793 50.5236C45.5189 49.8621 45.4472 49.134 45.5869 48.4317C45.7267 47.7294 46.0715 47.0842 46.5779 46.5779C47.0842 46.0715 47.7294 45.7267 48.4317 45.5869C49.134 45.4472 49.8621 45.5189 50.5236 45.793C51.1852 46.067 51.7507 46.5311 52.1486 47.1265C52.5464 47.7219 52.7588 48.422 52.7588 49.1381C52.7577 50.098 52.3758 51.0183 51.6971 51.6971C51.0183 52.3758 50.098 52.7577 49.1381 52.7588ZM49.1381 47.5863C48.8312 47.5863 48.5312 47.6773 48.276 47.8479C48.0208 48.0184 47.8219 48.2607 47.7045 48.5442C47.587 48.8278 47.5563 49.1398 47.6162 49.4408C47.676 49.7418 47.8238 50.0183 48.0408 50.2353C48.2578 50.4523 48.5343 50.6001 48.8353 50.66C49.1363 50.7198 49.4483 50.6891 49.7319 50.5717C50.0154 50.4542 50.2578 50.2553 50.4283 50.0002C50.5988 49.745 50.6898 49.445 50.6898 49.1381C50.6892 48.7267 50.5256 48.3323 50.2347 48.0414C49.9438 47.7506 49.5494 47.5869 49.1381 47.5863Z" fill="#EEEEEE"/>
<path d="M52.7586 49.1378C52.7586 49.1254 52.7555 49.114 52.7545 49.1006C51.9943 50.4195 51.0449 51.6199 49.9365 52.6633C50.7366 52.482 51.4514 52.0345 51.9641 51.3941C52.4767 50.7537 52.7569 49.9582 52.7586 49.1378Z" fill="#E0E0E0"/>
<path d="M38.276 51.724C38.0714 51.7239 37.8714 51.6632 37.7013 51.5495C37.5313 51.4359 37.3987 51.2743 37.3204 51.0853C37.2422 50.8963 37.2217 50.6884 37.2616 50.4877C37.3015 50.2871 37.4 50.1028 37.5446 49.9581L49.9584 37.5443C50.1535 37.3559 50.4148 37.2516 50.686 37.2539C50.9573 37.2563 51.2167 37.3651 51.4085 37.5569C51.6003 37.7487 51.7091 38.0082 51.7115 38.2794C51.7138 38.5506 51.6096 38.812 51.4211 39.0071L39.0073 51.4209C38.9114 51.5171 38.7974 51.5934 38.6719 51.6454C38.5464 51.6974 38.4118 51.7241 38.276 51.724Z" fill="#EEEEEE"/>
</svg>
