<svg width="61" height="60" viewBox="0 0 61 60" fill="none" xmlns="http://www.w3.org/2000/svg">
<path d="M58.2252 44.4707C55.7247 47.9776 57.5112 45.4718 49.3925 56.8598C49.3925 56.8598 45.8361 62.9939 39.7911 58.1047L2.18718 18.5902C2.18718 18.5902 -0.301333 14.0561 3.87631 11.6121C20.7065 4.93784 16.9625 6.4228 21.9234 4.45465C21.9234 4.45465 25.0344 3.34468 29.7454 9.03325C33.7245 13.8372 52.3088 34.3575 57.9999 40.6304C58.9685 41.6983 59.0627 43.2971 58.2252 44.4707Z" fill="#52528C"/>
<path d="M56.2993 47.172L49.3925 56.86C49.3925 56.86 45.8361 62.9941 39.7911 58.1049L2.18718 18.5904C2.18718 18.5904 -0.301333 14.0563 3.87631 11.6124L18.1888 5.93652C23.0474 15.72 35.6503 37.2917 56.2993 47.172Z" fill="#404077"/>
<path d="M55.3749 43.8812C53.7982 46.0927 47.2138 55.3288 47.2055 55.3436C46.4558 56.5821 44.7208 56.7451 43.7432 55.6771L7.39566 15.9513C6.36843 14.8273 6.7834 13.0211 8.20013 12.4597L10.0675 11.7202L11.1609 12.6506C11.6071 13.0303 12.1527 13.2741 12.7331 13.3533C13.3135 13.4325 13.9045 13.3437 14.4361 13.0974L19.2285 10.8775C20.5359 10.2712 21.2558 8.8312 20.9291 7.41013L21.899 7.02572C21.899 7.02572 24.7669 6.00358 29.1087 11.2479C32.781 15.6801 49.9524 34.6399 55.1713 40.3922C55.5983 40.8631 55.8514 41.4661 55.8884 42.1007C55.9255 42.7354 55.7443 43.3637 55.3749 43.8812Z" fill="#BAEDFE"/>
<path d="M53.8984 45.9525C47.0291 55.5891 47.2147 55.3274 47.2055 55.3439C46.4558 56.5825 44.7208 56.7454 43.7432 55.6774L7.39566 15.9516C6.36843 14.8276 6.7834 13.0214 8.20013 12.4601L10.0675 11.7205L11.1609 12.651C11.6071 13.0306 12.1526 13.2745 12.7331 13.3536C13.3135 13.4328 13.9045 13.344 14.436 13.0978L19.2285 10.8778C19.6677 10.6742 20.0381 10.3776 20.3257 10.0225C25.9914 20.3482 37.1241 36.9315 53.8984 45.9525Z" fill="#9AE1FF"/>
<path d="M19.7543 52.9638C16.7444 59.2595 9.57241 61.9971 4.53428 58.3939C0.607399 55.5796 -0.605671 49.667 1.89939 44.4264C4.40699 39.1847 9.77098 36.4161 14.4272 37.7081C20.4233 39.3755 22.7527 46.6947 19.7543 52.9638Z" fill="#EDD15A"/>
<path d="M17.0609 51.6751C14.5545 56.9169 9.18927 59.6854 4.53428 58.3934C0.607399 55.5791 -0.605671 49.6665 1.89939 44.4259C4.40699 39.1842 9.77098 36.4156 14.4272 37.7076C18.3541 40.5208 19.5672 46.4347 17.0609 51.6751Z" fill="#FAE26B"/>
<path d="M13.6038 50.4257C15.4995 46.4583 14.7594 42.1542 11.9506 40.8121C9.14193 39.47 5.32824 41.5982 3.43251 45.5655C1.53679 49.5329 2.27691 53.837 5.08562 55.1791C7.89433 56.5212 11.708 54.393 13.6038 50.4257Z" fill="#EDD15A"/>
<path d="M53.7022 35.6305C53.706 36.0773 53.6157 36.519 53.4362 36.9288C51.2774 41.8358 46.9788 46.2757 43.6985 49.1741C41.8758 50.7841 38.9921 49.8225 38.5064 47.4455C34.9563 30.1367 25.9786 21.9927 21.4216 18.8715C19.9476 17.8621 19.6064 15.8179 20.6782 14.3884C24.5835 9.18033 29.7807 4.34867 35.0136 0.594011C36.3527 -0.365753 38.206 -0.141723 39.2701 1.1159C52.7386 17.0206 53.6691 32.2764 53.7022 35.6305Z" fill="#79E9B3"/>
<path d="M53.7023 35.6305C53.7061 36.0773 53.6157 36.519 53.4362 36.9288C51.2774 41.8358 46.9788 46.2757 43.6986 49.1741C42.3251 50.3872 40.3483 50.1415 39.2498 48.9259C43.8042 28.7339 37.8356 9.81742 34.3008 1.11335C34.5503 0.928783 34.7883 0.755669 35.0136 0.594011C36.3527 -0.365753 38.206 -0.141723 39.2702 1.1159C52.7387 17.0206 53.6692 32.2764 53.7023 35.6305Z" fill="#14D2AA"/>
<path d="M49.8647 35.9756C48.1857 38.5316 46.0231 40.7935 44.2385 42.4457C43.316 39.8992 39.8257 40.2565 39.7846 40.2143C36.8175 29.704 30.2557 22.3556 26.3912 18.7533C28.4151 16.1833 27.0569 13.5599 26.1099 12.2679C28.5602 9.16074 31.2053 6.78043 33.3183 5.1333C35.2526 6.59713 37.5655 6.77521 39.7884 5.29114C46.3464 13.9978 49.5719 23.9136 50.9084 29.0383C49.8456 30.1686 48.3996 32.5018 49.8647 35.9756Z" fill="#B4FFC6"/>
<path d="M49.8644 35.9755C48.1854 38.5314 46.0228 40.7934 44.2382 42.4456C43.6476 40.815 41.9966 40.3339 40.6079 40.2346C41.8248 26.7406 38.9608 14.4635 36.2202 6.30297C37.2602 6.39462 38.4745 6.16804 39.7881 5.29102C46.3461 13.9976 49.5716 23.9135 50.9082 29.0382C49.8453 30.1685 48.3993 32.5017 49.8644 35.9755Z" fill="#79E9B3"/>
<path d="M56.4251 19.4685C52.1419 22.8855 45.4405 20.8135 42.5989 14.8708C39.8763 9.17715 42.1408 2.99317 46.9891 1.41758C51.2024 0.0288469 56.1782 2.49317 58.4681 7.28181C60.6307 11.8044 59.6773 16.8898 56.4251 19.4685Z" fill="#EDD15A"/>
<path d="M56.4251 19.4685C52.2118 20.856 47.2386 18.3891 44.9486 13.6017C42.7872 9.08041 43.7394 3.99646 46.9891 1.41758C51.2024 0.0288469 56.1781 2.49317 58.468 7.28181C60.6307 11.8044 59.6773 16.8898 56.4251 19.4685Z" fill="#FAE26B"/>
<path d="M55.633 16.8643C58.1293 15.6715 58.7872 11.8461 57.1023 8.32015C55.4175 4.79416 52.028 2.90276 49.5317 4.09558C47.0354 5.2884 46.3775 9.11375 48.0624 12.6397C49.7472 16.1657 53.1367 18.0571 55.633 16.8643Z" fill="#EDD15A"/>
</svg>
