<svg width="68" height="60" viewBox="0 0 68 60" fill="none" xmlns="http://www.w3.org/2000/svg">
<path d="M25.5805 4.53613C25.4467 4.53613 25.3142 4.56249 25.1906 4.6137C25.067 4.66491 24.9546 4.73997 24.86 4.8346C24.7654 4.92922 24.6903 5.04156 24.6391 5.16519C24.5879 5.28882 24.5615 5.42133 24.5615 5.55515V7.994H14.2553V5.55515C14.2553 5.42133 14.229 5.28882 14.1777 5.16519C14.1265 5.04156 14.0515 4.92922 13.9569 4.83459C13.8622 4.73997 13.7499 4.66491 13.6263 4.6137C13.5026 4.56249 13.3701 4.53613 13.2363 4.53613C13.1025 4.53613 12.97 4.56249 12.8463 4.6137C12.7227 4.66491 12.6104 4.73997 12.5157 4.83459C12.4211 4.92922 12.3461 5.04156 12.2949 5.16519C12.2436 5.28882 12.2173 5.42133 12.2173 5.55515V58.9807C12.2173 59.1146 12.2436 59.2471 12.2949 59.3707C12.3461 59.4943 12.4211 59.6067 12.5157 59.7013C12.6104 59.7959 12.7227 59.871 12.8463 59.9222C12.97 59.9734 13.1025 59.9998 13.2363 59.9998C13.3701 59.9998 13.5026 59.9734 13.6263 59.9222C13.7499 59.871 13.8622 59.7959 13.9569 59.7013C14.0515 59.6067 14.1265 59.4943 14.1777 59.3707C14.229 59.2471 14.2553 59.1146 14.2553 58.9807V56.9698H24.5615V58.9807C24.5615 59.251 24.6689 59.5102 24.86 59.7013C25.0511 59.8924 25.3103 59.9998 25.5805 59.9998C25.8508 59.9998 26.11 59.8924 26.3011 59.7013C26.4922 59.5102 26.5996 59.251 26.5996 58.9807V5.55515C26.5996 5.42132 26.5732 5.28881 26.522 5.16517C26.4708 5.04153 26.3958 4.92918 26.3011 4.83456C26.2065 4.73993 26.0942 4.66487 25.9705 4.61367C25.8469 4.56246 25.7144 4.53612 25.5805 4.53613ZM14.2553 29.8447H24.5615V34.184H14.2553V29.8447ZM24.5615 10.0322V27.8065H14.2553V10.0322H24.5615ZM14.2553 54.9316V36.222H24.5615V54.9316H14.2553Z" fill="#D8AD8F"/>
<path d="M56.1763 13.5398C55.1307 12.4942 55.1307 10.7989 56.1763 9.7534L59.1826 6.74713C60.2283 5.70148 61.9235 5.70148 62.969 6.74713C64.0147 7.79279 64.0147 9.48803 62.969 10.5336L59.9628 13.5398C58.9171 14.5855 57.2219 14.5855 56.1763 13.5398Z" fill="#FEC007"/>
<path d="M56.1763 40.552C55.1307 39.5064 55.1307 37.8111 56.1763 36.7656L59.1826 33.7593C60.2283 32.7137 61.9235 32.7137 62.969 33.7593C64.0147 34.805 64.0147 36.5002 62.969 37.5458L59.9628 40.552C58.9171 41.5977 57.2219 41.5977 56.1763 40.552Z" fill="#50B8FF"/>
<path d="M36.6973 13.9453H63.4483V21.4281H36.6973V13.9453Z" fill="#CAEDFF"/>
<path d="M36.6973 18.0811H63.4483V21.4279H36.6973V18.0811Z" fill="#76C2E0"/>
<path d="M46.2887 15.7308V21.4279H7.62988V15.7308C7.62988 13.8992 9.11448 12.4146 10.9461 12.4146H42.9725C44.8041 12.4146 46.2887 13.8992 46.2887 15.7308Z" fill="#FEC007"/>
<path d="M7.62988 18.0811H46.2887V21.4279H7.62988V18.0811Z" fill="#FE9700"/>
<path d="M2.04053 20.7476H65.4889V24.829H2.04053V20.7476Z" fill="#EFCDB1"/>
<path d="M4.08154 20.7476H7.09335V24.829H4.08154V20.7476ZM60.4364 20.7476H63.4482V24.829H60.4364V20.7476Z" fill="#D8AD8F"/>
<path d="M36.6973 40.9292H63.4483V48.412H36.6973V40.9292Z" fill="#CAEDFF"/>
<path d="M36.6973 45.0635H63.4483V48.412H36.6973V45.0635Z" fill="#76C2E0"/>
<path d="M46.2887 42.7147V48.4118H7.62988V42.7147C7.62988 40.883 9.11448 39.3984 10.9461 39.3984H42.9725C44.8041 39.3984 46.2887 40.883 46.2887 42.7147Z" fill="#50B8FF"/>
<path d="M46.2887 45.0635V48.412H7.62988V45.0635" fill="#2195F2"/>
<path d="M2.04053 47.7314H65.4889V51.8129H2.04053V47.7314Z" fill="#EFCDB1"/>
<path d="M60.4364 47.7314H63.4482V51.8129H60.4364V47.7314ZM4.08154 47.7314H7.09335V51.8129H4.08154V47.7314Z" fill="#D8AD8F"/>
<path d="M63.4484 57.894V1.08694C63.4483 0.944196 63.4764 0.802847 63.5311 0.670966C63.5857 0.539084 63.6657 0.419254 63.7667 0.318319C63.8676 0.217384 63.9874 0.137321 64.1193 0.0827031C64.2512 0.0280854 64.3926 -1.73163e-05 64.5353 8.00502e-09H66.4429C66.5856 -1.73163e-05 66.727 0.0280854 66.8589 0.0827031C66.9907 0.137321 67.1106 0.217384 67.2115 0.318319C67.3124 0.419254 67.3925 0.539084 67.4471 0.670966C67.5017 0.802847 67.5298 0.944196 67.5298 1.08694V57.894C67.5298 58.0368 67.5017 58.1781 67.4471 58.31C67.3925 58.4419 67.3124 58.5617 67.2115 58.6627C67.1106 58.7636 66.9907 58.8437 66.8589 58.8983C66.727 58.9529 66.5856 58.981 66.4429 58.981H64.5353C64.3926 58.981 64.2512 58.9529 64.1193 58.8983C63.9874 58.8437 63.8676 58.7636 63.7667 58.6627C63.6657 58.5617 63.5857 58.4419 63.5311 58.31C63.4764 58.1781 63.4483 58.0368 63.4484 57.894ZM8.005e-09 57.894V1.08694C-1.73163e-05 0.944196 0.0280854 0.802847 0.0827031 0.670966C0.137321 0.539084 0.217384 0.419254 0.318319 0.318319C0.419254 0.217384 0.539084 0.137321 0.670966 0.0827031C0.802847 0.0280854 0.944196 -1.73163e-05 1.08694 8.00502e-09H2.99453C3.13727 -1.73163e-05 3.27862 0.0280854 3.4105 0.0827031C3.54238 0.137321 3.66221 0.217384 3.76315 0.318319C3.86408 0.419254 3.94415 0.539084 3.99876 0.670966C4.05338 0.802847 4.08148 0.944196 4.08147 1.08694V57.894C4.08148 58.0368 4.05338 58.1781 3.99876 58.31C3.94415 58.4419 3.86408 58.5617 3.76315 58.6627C3.66221 58.7636 3.54238 58.8437 3.4105 58.8983C3.27862 58.9529 3.13727 58.981 2.99453 58.981H1.08694C0.798666 58.981 0.522198 58.8665 0.318357 58.6626C0.114517 58.4588 8.005e-09 58.1823 8.005e-09 57.894Z" fill="#EFCDB1"/>
</svg>
