<svg width="40" height="60" viewBox="0 0 40 60" fill="none" xmlns="http://www.w3.org/2000/svg">
<path d="M38.0888 7.61719C38.4189 7.60716 38.7321 7.46899 38.962 7.23196C39.1919 6.99494 39.3205 6.67769 39.3205 6.34746C39.3205 6.01723 39.1919 5.69999 38.962 5.46296C38.7321 5.22593 38.4189 5.08776 38.0888 5.07773H1.7337C1.56371 5.07257 1.39441 5.10159 1.23585 5.16308C1.07729 5.22456 0.932684 5.31726 0.810616 5.43568C0.688548 5.55409 0.5915 5.69581 0.525227 5.85244C0.458954 6.00906 0.424805 6.17739 0.424805 6.34746C0.424805 6.51753 0.458954 6.68586 0.525227 6.84249C0.5915 6.99911 0.688548 7.14083 0.810616 7.25925C0.932684 7.37766 1.07729 7.47036 1.23585 7.53185C1.39441 7.59333 1.56371 7.62235 1.7337 7.61719H38.0888Z" fill="#34344F"/>
<path d="M16.2593 10.3159H23.5565V15.5202H16.2593V10.3159Z" fill="#DD4247"/>
<path d="M32.3128 5.08003C32.0796 4.62399 31.725 4.24119 31.288 3.97383C30.8511 3.70647 30.3489 3.56493 29.8366 3.5648H27.1577C26.7265 3.5616 26.3017 3.45983 25.9157 3.26729C25.5298 3.07474 25.1931 2.79651 24.9312 2.45386C24.3377 1.68989 23.5776 1.07166 22.7087 0.646372C21.8398 0.221086 20.8852 0 19.9179 0C18.9505 0 17.9959 0.221086 17.1271 0.646372C16.2582 1.07166 15.498 1.68989 14.9046 2.45386C14.6426 2.79644 14.3059 3.07463 13.92 3.26717C13.5341 3.45971 13.1093 3.56151 12.678 3.5648H9.99912C9.4869 3.56493 8.98465 3.70647 8.54773 3.97383C8.11081 4.24119 7.75619 4.62399 7.52295 5.08003C7.52295 5.08003 6.85498 6.35035 7.52295 7.61949C7.75539 8.07663 8.10966 8.46062 8.54664 8.72905C8.98362 8.99748 9.48629 9.1399 9.99912 9.14058H12.678C13.1093 9.14387 13.5341 9.24568 13.92 9.43822C14.3059 9.63076 14.6426 9.90894 14.9046 10.2515C15.498 11.0155 16.2582 11.6337 17.1271 12.059C17.9959 12.4843 18.9505 12.7054 19.9179 12.7054C20.8852 12.7054 21.8398 12.4843 22.7087 12.059C23.5776 11.6337 24.3377 11.0155 24.9312 10.2515C25.1931 9.90888 25.5298 9.63064 25.9157 9.4381C26.3017 9.24555 26.7265 9.14379 27.1577 9.14058H29.8366C30.3497 9.13968 30.8526 8.99691 31.2896 8.72805C31.7266 8.45919 32.0807 8.07472 32.3128 7.61715C32.9386 6.35035 32.3128 5.08003 32.3128 5.08003Z" fill="#E55353"/>
<path d="M19.9083 9.86739C19.2075 9.86739 18.5224 9.65953 17.9398 9.27011C17.3571 8.88069 16.9031 8.32721 16.6351 7.67968C16.367 7.03216 16.2971 6.31968 16.4341 5.63239C16.571 4.9451 16.9088 4.31388 17.4046 3.81858C17.9004 3.32328 18.5319 2.98616 19.2193 2.84987C19.9068 2.71358 20.6192 2.78423 21.2664 3.0529C21.9137 3.32157 22.4667 3.77618 22.8556 4.35922C23.2444 4.94225 23.4516 5.62752 23.4509 6.32833C23.4503 7.26736 23.0767 8.16771 22.4124 8.83138C21.7481 9.49505 20.8473 9.8677 19.9083 9.86739Z" fill="white"/>
<path d="M26.485 50.0674C26.9865 49.983 27.4514 49.8959 27.8795 49.8061C30.9908 49.117 33.842 46.1006 34.442 42.981C34.8229 41.0791 35.2916 35.7764 35.2529 32.2689C35.2916 28.7615 34.8229 23.4588 34.442 21.558C33.8373 18.4373 30.9861 15.4209 27.8795 14.7318C25.9904 14.3392 23.4264 13.9537 19.9107 13.9478C16.3951 13.942 13.8322 14.3392 11.942 14.7318C8.83066 15.4209 5.98066 18.4373 5.37714 21.5627C4.99745 23.4635 4.52753 28.7662 4.5662 32.2736C4.52753 35.781 4.99745 41.0838 5.37714 42.9857C5.983 46.1053 8.833 49.1217 11.9455 49.8107C12.3729 49.8998 12.8373 49.9869 13.3389 50.0721C13.3389 50.0721 16.6201 50.4236 19.9131 50.4236C23.2061 50.4236 26.485 50.0674 26.485 50.0674Z" fill="#DD4247"/>
<path d="M34.6471 22.8119C34.5803 22.3115 34.5123 21.8838 34.4467 21.558C33.842 18.4373 30.9908 15.4209 27.8842 14.7318C25.9951 14.3392 23.4311 13.9537 19.9154 13.9478C16.3998 13.942 13.8369 14.3392 11.9467 14.7318C8.83066 15.4209 5.98066 18.4373 5.37714 21.5627C4.99745 23.4635 4.52753 28.7662 4.5662 32.2736C4.52753 35.781 4.99745 41.0838 5.37714 42.9857C5.45519 43.3794 5.56452 43.7661 5.70409 44.1424C19.033 43.4662 30.2526 34.7873 34.6471 22.8119Z" fill="#E55353"/>
<path d="M19.9328 34.376H19.8883C17.4011 34.376 15.3848 36.3923 15.3848 38.8795V55.4967C15.3848 57.9839 17.4011 60.0002 19.8883 60.0002H19.9328C22.42 60.0002 24.4363 57.9839 24.4363 55.4967V38.8795C24.4363 36.3923 22.42 34.376 19.9328 34.376Z" fill="#34344F"/>
<path d="M12.4984 26.8641C12.4472 27.0873 12.3363 27.2924 12.1776 27.4576C12.0189 27.6227 11.8183 27.7416 11.5973 27.8016C10.8758 27.9453 10.1331 27.9453 9.41172 27.8016C9.19084 27.7415 8.99044 27.6226 8.83192 27.4574C8.6734 27.2923 8.56273 27.0872 8.51172 26.8641C8.45898 26.6039 8.40039 25.5375 8.40039 24.0973C8.40039 22.7168 8.45898 21.5906 8.51172 21.3293C8.56273 21.1062 8.6734 20.9011 8.83192 20.7359C8.99044 20.5708 9.19084 20.4519 9.41172 20.3918C10.1333 20.2496 10.8757 20.2496 11.5973 20.3918C11.8183 20.4518 12.0189 20.5707 12.1776 20.7358C12.3363 20.9009 12.4472 21.1061 12.4984 21.3293C12.5512 21.5906 12.6098 22.7356 12.6098 24.0973C12.6098 25.5375 12.5512 26.6016 12.4984 26.8641ZM31.3047 26.8641C31.2537 27.0872 31.143 27.2923 30.9845 27.4574C30.826 27.6226 30.6256 27.7415 30.4047 27.8016C29.6833 27.9453 28.9406 27.9453 28.2192 27.8016C27.9981 27.7416 27.7975 27.6227 27.6388 27.4576C27.4801 27.2924 27.3692 27.0873 27.318 26.8641C27.2653 26.6039 27.2008 25.5375 27.2008 24.0973C27.2008 22.7168 27.2594 21.5906 27.318 21.3293C27.3692 21.1061 27.4801 20.9009 27.6388 20.7358C27.7975 20.5707 27.9981 20.4518 28.2192 20.3918C28.9407 20.2496 29.6831 20.2496 30.4047 20.3918C30.6256 20.4519 30.826 20.5708 30.9845 20.7359C31.143 20.9011 31.2537 21.1062 31.3047 21.3293C31.3574 21.5906 31.416 22.7356 31.416 24.0973C31.416 25.5375 31.3574 26.6016 31.3047 26.8641Z" fill="white"/>
</svg>
