<svg width="61" height="60" viewBox="0 0 61 60" fill="none" xmlns="http://www.w3.org/2000/svg">
<path d="M31.2194 41.8725C31.0142 41.8725 30.8138 41.8098 30.6451 41.6929C30.4765 41.5759 30.3476 41.4101 30.2758 41.2179L23.196 22.2646C23.1497 22.1407 23.1283 22.0088 23.1329 21.8766C23.1376 21.7444 23.1683 21.6144 23.2232 21.4941C23.278 21.3737 23.3561 21.2654 23.4529 21.1752C23.5497 21.085 23.6632 21.0148 23.7872 20.9685C23.9111 20.9222 24.0429 20.9008 24.1751 20.9054C24.3073 20.9101 24.4373 20.9407 24.5577 20.9956C24.678 21.0505 24.7864 21.1286 24.8766 21.2253C24.9667 21.3221 25.037 21.4357 25.0833 21.5596L32.1631 40.5129C32.22 40.6653 32.2392 40.8291 32.219 40.9905C32.1987 41.1519 32.1397 41.306 32.047 41.4396C31.9543 41.5732 31.8305 41.6824 31.6864 41.7578C31.5423 41.8331 31.3821 41.8725 31.2194 41.8725Z" fill="#2A2A2A"/>
<path d="M21.7359 28.0833C21.499 28.0835 21.2696 28.0002 21.0881 27.8479C20.9065 27.6957 20.7845 27.4844 20.7433 27.2511C20.7022 27.0177 20.7446 26.7774 20.8632 26.5723C20.9817 26.3671 21.1688 26.2104 21.3915 26.1296L28.9628 23.3742C29.2138 23.2828 29.4909 23.295 29.733 23.4079C29.9752 23.5209 30.1625 23.7254 30.2538 23.9764C30.3452 24.2275 30.3331 24.5046 30.2201 24.7467C30.1072 24.9888 29.9027 25.1762 29.6516 25.2675L22.0804 28.0229C21.97 28.0629 21.8534 28.0834 21.7359 28.0833Z" fill="#2A2A2A"/>
<path d="M17.9159 2.07263C17.9081 2.27399 17.8408 2.46851 17.7225 2.63163C17.6042 2.79475 17.4402 2.91914 17.2512 2.98908C12.0346 4.88239 10.2621 13.221 13.3035 21.5697C13.6695 22.5738 13.6224 23.682 13.1726 24.6514C13.1625 24.6715 13.1524 24.6816 13.1424 24.7018C12.6911 25.6493 11.884 26.3804 10.8966 26.7361C10.4539 26.8951 9.98721 26.9768 9.51686 26.9778C8.6905 26.9769 7.88431 26.7224 7.20715 26.2488C6.52999 25.7751 6.01449 25.1051 5.73024 24.3291C4.11581 19.8912 4.29637 14.9985 6.23352 10.6916C8.17067 6.38477 11.7116 3.00351 16.1032 1.26697C16.2542 1.20654 16.4053 1.15619 16.5564 1.09576H16.5664C16.8162 1.00455 17.0919 1.01584 17.3334 1.12715C17.5749 1.23847 17.7626 1.44078 17.8555 1.68994C17.9041 1.81135 17.9248 1.94215 17.9159 2.07263Z" fill="#566FF8"/>
<path d="M24.1699 12.6668C24.1717 15.689 23.0399 18.6019 20.9981 20.8301C18.9564 23.0583 16.1532 24.4397 13.1423 24.7014C12.7899 24.7316 12.4374 24.7517 12.0849 24.7517C9.62201 24.7573 7.21703 24.0049 5.19648 22.5966C4.58443 20.1834 4.47602 17.67 4.87799 15.2131C5.27997 12.7562 6.18372 10.4085 7.53291 8.31617C7.72425 8.01405 7.92567 7.72199 8.13715 7.42994C10.151 4.65847 12.9148 2.5201 16.1032 1.2666C16.1426 1.2772 16.18 1.29421 16.2139 1.31696C16.8012 1.52109 17.3705 1.77374 17.9159 2.07227C18.2273 2.2413 18.5298 2.42617 18.8223 2.62616C20.4568 3.727 21.7981 5.21 22.7298 6.94654C22.8405 7.15803 22.9513 7.37959 23.052 7.60114C23.7887 9.18825 24.1702 10.917 24.1699 12.6668Z" fill="#6C95F8"/>
<path d="M37.3929 17.088C36.9548 17.251 36.4907 17.3329 36.0233 17.3297C35.2546 17.3294 34.5018 17.1105 33.8528 16.6986C33.2038 16.2867 32.6852 15.6988 32.3575 15.0034C32.3072 14.8926 32.2669 14.7919 32.2266 14.6811C29.1953 6.3324 22.4781 1.09558 17.2614 2.97882C17.2614 2.98149 17.2603 2.98405 17.2584 2.98594C17.2566 2.98783 17.254 2.98889 17.2513 2.98889C17.0001 3.07685 16.7244 3.06285 16.4835 2.94988C16.2425 2.83692 16.0553 2.63399 15.9623 2.38464C15.8716 2.13357 15.8842 1.85675 15.9976 1.61504C16.1109 1.37332 16.3155 1.18648 16.5665 1.09558C20.3654 -0.283694 24.516 -0.355042 28.36 0.892851C32.204 2.14074 35.5213 4.63643 37.7857 7.98402C38.6212 9.20957 39.298 10.5361 39.7999 11.9318C40.1632 12.9348 40.1138 14.0409 39.6626 15.0076C39.2113 15.9742 38.3951 16.7224 37.3929 17.088Z" fill="#566FF8"/>
<path d="M37.7857 7.984C36.9332 10.9281 34.9925 13.4376 32.3576 15.0034C32.3072 14.8926 32.2669 14.7919 32.2267 14.6811C30.945 10.9339 28.6683 7.6059 25.6403 5.05339C25.4188 4.87212 25.1872 4.71098 24.9656 4.54985C23.2115 3.19905 21.0336 2.51713 18.8224 2.62633C18.2893 2.67783 17.7649 2.79625 17.2614 2.97881C17.2614 2.98148 17.2604 2.98404 17.2585 2.98593C17.2566 2.98781 17.254 2.98888 17.2514 2.98888C17.0002 3.07684 16.7245 3.06283 16.4835 2.94987C16.2425 2.8369 16.0554 2.63397 15.9623 2.38463C15.8944 2.20169 15.882 2.00275 15.9268 1.81282C15.9716 1.62289 16.0716 1.45043 16.2141 1.31712C16.3129 1.21712 16.4336 1.1413 16.5665 1.09556C19.8568 -0.108423 23.4269 -0.325435 26.8388 0.471172C27.2114 0.561809 27.5739 0.652446 27.9365 0.763225C31.9565 1.95743 35.4375 4.5095 37.7857 7.984Z" fill="#6C95F8"/>
<path d="M27.9367 0.763225C27.508 2.1025 26.8725 3.36654 26.0534 4.50957C25.9225 4.69084 25.7916 4.87212 25.6405 5.05339C25.0121 5.86809 24.2924 6.60809 23.4954 7.2589C23.3545 7.37975 23.2034 7.49053 23.0523 7.60131C20.8325 9.25614 18.1681 10.2086 15.4023 10.336C12.6365 10.4635 9.89579 9.76004 7.5332 8.31634C7.72455 8.01421 7.92597 7.72216 8.13745 7.43011C10.1513 4.65864 12.9151 2.52027 16.1035 1.26677C16.1429 1.27737 16.1803 1.29438 16.2142 1.31712C16.3131 1.21712 16.4337 1.1413 16.5667 1.09556C19.8569 -0.108423 23.4271 -0.325435 26.839 0.471172C27.2116 0.561809 27.5741 0.652446 27.9367 0.763225Z" fill="#8FB6F8"/>
<path d="M20.1618 21.3482C20.0088 22.4302 19.47 23.4205 18.6446 24.1366C17.8193 24.8528 16.7629 25.2466 15.6702 25.2456C15.0079 25.2474 14.3537 25.0994 13.7567 24.8125C13.2164 24.5644 12.7307 24.2114 12.3279 23.774C11.925 23.3366 11.6131 22.8235 11.4102 22.2646C11.1182 21.459 10.8664 20.6634 10.665 19.8678C10.1202 17.8308 9.83931 15.7324 9.8291 13.6239C9.8291 7.62165 12.2662 2.65674 16.5665 1.09576C16.8163 1.00455 17.092 1.01584 17.3335 1.12715C17.575 1.23847 17.7626 1.44078 17.8555 1.68994C17.9466 1.94115 17.9353 2.21805 17.8242 2.46104C17.713 2.70402 17.5109 2.89364 17.2614 2.98908C16.355 3.52283 16.4859 9.70631 19.9301 19.1628C20.1845 19.8615 20.264 20.6117 20.1618 21.3482Z" fill="#E51B3A"/>
<path d="M33.9688 17.4607C33.7187 18.0015 33.3638 18.4873 32.9248 18.8901C32.4857 19.2928 31.9711 19.6046 31.4108 19.8072C30.2804 20.2053 29.039 20.1446 27.9527 19.6382C26.8665 19.1318 26.0219 18.2199 25.6 17.0982C22.1658 7.64167 18.2483 2.80768 17.2513 2.98895C17.126 3.03831 16.9921 3.06205 16.8575 3.05876C16.7229 3.05548 16.5903 3.02523 16.4676 2.96981C16.3449 2.91439 16.2345 2.83492 16.143 2.73611C16.0516 2.6373 15.9808 2.52115 15.935 2.39453C15.8892 2.26791 15.8693 2.13339 15.8764 1.99892C15.8835 1.86446 15.9175 1.73279 15.9763 1.61169C16.0352 1.49059 16.1178 1.38253 16.2191 1.29389C16.3205 1.20525 16.4386 1.13784 16.5665 1.09564C19.6783 -0.042365 23.2434 0.733088 26.597 3.27093C28.8173 5.00369 30.6754 7.15601 32.0654 9.60548C32.8806 11.0045 33.5682 12.474 34.1199 13.9964C34.3253 14.555 34.4178 15.149 34.3918 15.7437C34.3659 16.3384 34.2221 16.922 33.9688 17.4607Z" fill="#E51B3A"/>
<path d="M20.1618 21.3481C18.5613 21.7593 16.8938 21.8401 15.261 21.5856C13.6282 21.3311 12.0644 20.7465 10.665 19.8677C10.1203 17.8307 9.83934 15.7323 9.82914 13.6238C9.80824 11.6278 10.1109 9.64157 10.7254 7.74241C11.7728 4.59024 13.7165 2.19339 16.4155 1.16616C16.4638 1.13857 16.5143 1.11499 16.5665 1.09567C16.6221 1.07428 16.6794 1.05744 16.7377 1.04531C16.992 0.986065 17.2594 1.02791 17.4835 1.16201C17.7075 1.29612 17.8707 1.51201 17.9386 1.76413C18.0066 2.01626 17.9739 2.28491 17.8476 2.51343C17.7212 2.74194 17.511 2.91245 17.2614 2.98898H17.2513C16.7679 3.31125 16.5867 5.25491 17.0701 8.45743C17.6652 12.1121 18.6234 15.6982 19.9302 19.1627C20.1845 19.8614 20.264 20.6116 20.1618 21.3481Z" fill="#FC3133"/>
<path d="M32.0655 9.60533C31.7743 11.3765 31.0917 13.0604 30.0673 14.5343C29.0428 16.0082 27.7025 17.235 26.1439 18.1252C25.9194 17.8075 25.7366 17.4623 25.6001 17.098C24.3669 13.5898 22.7881 10.2129 20.8869 7.01713C19.1849 4.2678 17.8052 2.90824 17.2614 2.98881H17.2513C17.0993 3.04378 16.9363 3.06133 16.776 3.03999C16.6157 3.01864 16.463 2.95903 16.3306 2.86618C16.1982 2.77333 16.0902 2.64997 16.0155 2.50654C15.9409 2.36312 15.9019 2.20383 15.9019 2.04215C15.9013 1.86353 15.9487 1.68803 16.039 1.53393C16.1294 1.37984 16.2594 1.25278 16.4155 1.16599C16.4638 1.13839 16.5143 1.11481 16.5665 1.09549C16.6221 1.0741 16.6794 1.05726 16.7377 1.04514C18.1418 0.614919 19.6242 0.502872 21.077 0.717138C22.5298 0.931403 23.9167 1.4666 25.1368 2.28385C25.6411 2.58605 26.1286 2.91552 26.5971 3.27079C28.8174 5.00354 30.6754 7.15586 32.0655 9.60533Z" fill="#FC3133"/>
<path d="M25.1369 2.28385C24.2058 4.23802 22.73 5.88165 20.887 7.01713C19.7171 7.7339 18.422 8.22255 17.0702 8.45726C16.4227 8.57885 15.7652 8.63954 15.1064 8.63853C13.6004 8.6402 12.1099 8.33524 10.7256 7.74223C11.773 4.59006 13.7166 2.19321 16.4156 1.16599C16.4639 1.13839 16.5145 1.11481 16.5667 1.09549C16.6223 1.0741 16.6795 1.05726 16.7379 1.04514C18.142 0.614919 19.6243 0.502872 21.0771 0.717138C22.5299 0.931403 23.9168 1.4666 25.1369 2.28385Z" fill="#F9464F"/>
<path d="M27.3324 20.2602C26.7672 21.4682 25.7458 22.4026 24.4924 22.8585C23.9372 23.061 23.3512 23.1667 22.7602 23.1707C21.7282 23.1634 20.723 22.8413 19.879 22.2475C19.035 21.6536 18.3923 20.8162 18.037 19.8473C18.0169 19.7869 17.9867 19.7164 17.9665 19.6459C15.6704 13.2912 12.8707 2.44491 16.5667 1.09542C18.1176 0.521386 19.9505 1.88095 22.1459 5.22446C24.2006 8.50872 25.8987 12.003 27.2115 15.6477C27.3122 15.8995 27.4029 16.1513 27.4935 16.4031C27.7223 17.0248 27.8259 17.6857 27.7983 18.3477C27.7706 19.0097 27.6123 19.6597 27.3324 20.2602Z" fill="#566FF8"/>
<path d="M27.2116 15.6478C26.2776 16.9107 25.0603 17.9368 23.6575 18.6434C22.2546 19.3501 20.7055 19.7176 19.1348 19.7164C18.7443 19.7183 18.354 19.6947 17.9666 19.6459C16.5199 15.7626 15.4968 11.7344 14.9151 7.63139C14.5425 4.34831 14.8648 1.71982 16.5667 1.09543C18.0773 0.541539 19.8498 1.80039 21.9546 4.94249C22.0251 5.03312 22.0855 5.13383 22.146 5.22447C24.2006 8.50873 25.8988 12.003 27.2116 15.6478Z" fill="#6C95F8"/>
<path d="M55.3896 48.7508V48.922C55.3896 49.1891 55.2835 49.4453 55.0946 49.6341C54.9058 49.823 54.6496 49.9291 54.3825 49.9291H11.5312C11.3537 49.9298 11.1792 49.8836 11.0254 49.7952C10.8715 49.7067 10.7438 49.5792 10.655 49.4255L2.3466 35.0444C2.28001 34.9295 2.23682 34.8025 2.21952 34.6708C2.20221 34.5391 2.21114 34.4053 2.24577 34.277C2.28041 34.1488 2.34007 34.0286 2.42132 33.9236C2.50258 33.8185 2.60382 33.7305 2.71922 33.6647L6.21379 31.6505C6.88296 31.259 7.63525 31.0312 8.40923 30.9859C9.34548 30.929 10.2791 31.1334 11.106 31.5762C11.9329 32.0189 12.6205 32.6827 13.0922 33.4935L16.768 39.8583H46.3259C48.6989 39.8625 50.9761 40.7954 52.67 42.4573C54.364 44.1193 55.3401 46.3782 55.3896 48.7508Z" fill="#DE0068"/>
<path d="M55.3895 48.7508C54.4127 49.1838 53.3955 49.5766 52.3481 49.9291C44.1844 52.6146 35.3751 52.6146 27.2114 49.9291C17.342 46.6158 10.0709 39.5159 8.40918 30.9859C9.34543 30.929 10.2791 31.1334 11.106 31.5762C11.9328 32.0189 12.6205 32.6827 13.0921 33.4935L16.768 39.8583H46.3258C47.7859 39.8607 49.2239 40.2154 50.5178 40.8921C51.8117 41.5688 52.9232 42.5477 53.7581 43.7456C53.841 43.8557 53.9183 43.97 53.9897 44.088C54.8762 45.484 55.3606 47.0974 55.3895 48.7508Z" fill="#FF4090"/>
<path d="M11.532 50.2108C11.3551 50.211 11.1812 50.1645 11.0279 50.0761C10.8746 49.9877 10.7473 49.8605 10.6589 49.7073L2.4169 35.4329C2.39067 35.3984 2.36646 35.3624 2.34439 35.3251L0.310088 31.7903C0.17654 31.5587 0.140454 31.2836 0.209767 31.0254C0.27908 30.7672 0.448116 30.5472 0.679687 30.4136C0.911258 30.2801 1.1864 30.244 1.44457 30.3133C1.70275 30.3826 1.92282 30.5516 2.05637 30.7832L4.02924 34.2073C4.05486 34.2393 4.0784 34.273 4.09974 34.308L12.3981 48.6901C12.4864 48.8431 12.533 49.0167 12.533 49.1934C12.5331 49.3701 12.4866 49.5437 12.3983 49.6968C12.3101 49.8498 12.1831 49.977 12.0301 50.0654C11.8772 50.1539 11.7037 50.2006 11.527 50.2007L11.532 50.2108Z" fill="#DE0068"/>
<path d="M15.1065 52.95V58.9924C15.1067 59.2148 15.0324 59.4309 14.8955 59.6061C14.7586 59.7813 14.567 59.9057 14.3511 59.9592C14.2704 59.9881 14.1851 60.0017 14.0994 59.9995H8.05689C7.78979 59.9995 7.53364 59.8934 7.34477 59.7046C7.15591 59.5157 7.0498 59.2595 7.0498 58.9924V52.95C7.0498 52.6829 7.15591 52.4267 7.34477 52.2378C7.53364 52.049 7.78979 51.9429 8.05689 51.9429H14.0994C14.3665 51.9429 14.6226 52.049 14.8115 52.2378C15.0004 52.4267 15.1065 52.6829 15.1065 52.95ZM53.3756 52.95V58.9924C53.3758 59.2148 53.3016 59.4309 53.1646 59.6061C53.0277 59.7813 52.8361 59.9057 52.6202 59.9592C52.5395 59.9881 52.4542 60.0017 52.3685 59.9995H46.326C46.0589 59.9995 45.8027 59.8934 45.6139 59.7046C45.425 59.5157 45.3189 59.2595 45.3189 58.9924V52.95C45.3189 52.6829 45.425 52.4267 45.6139 52.2378C45.8027 52.049 46.0589 51.9429 46.326 51.9429H52.3685C52.6356 51.9429 52.8917 52.049 53.0806 52.2378C53.2695 52.4267 53.3756 52.6829 53.3756 52.95Z" fill="#8A5245"/>
<path d="M53.3756 52.95V58.9924C53.3758 59.2148 53.3016 59.4309 53.1646 59.6061C53.0277 59.7813 52.8361 59.9057 52.6202 59.9592C51.0878 59.835 49.6126 59.321 48.3347 58.4661C47.0568 57.6113 46.0187 56.4439 45.3189 55.0749V52.95C45.3189 52.6829 45.425 52.4267 45.6139 52.2378C45.8027 52.049 46.0589 51.9429 46.326 51.9429H52.3685C52.6356 51.9429 52.8917 52.049 53.0806 52.2378C53.2695 52.4267 53.3756 52.6829 53.3756 52.95ZM15.1065 52.95V58.9924C15.1067 59.2148 15.0324 59.4309 14.8955 59.6061C14.7586 59.7813 14.567 59.9057 14.3511 59.9592C12.8187 59.835 11.3435 59.321 10.0656 58.4661C8.78768 57.6113 7.74956 56.4439 7.0498 55.0749V52.95C7.0498 52.6829 7.15591 52.4267 7.34477 52.2378C7.53364 52.049 7.78979 51.9429 8.05689 51.9429H14.0994C14.3665 51.9429 14.6226 52.049 14.8115 52.2378C15.0004 52.4267 15.1065 52.6829 15.1065 52.95Z" fill="#68362C"/>
<path d="M60.4249 50.9363C60.4258 51.1809 60.3954 51.4246 60.3343 51.6614C60.1723 52.3164 59.7958 52.8984 59.2647 53.3145C58.7335 53.7306 58.0784 53.957 57.4037 53.9575H3.02126C2.34653 53.957 1.69139 53.7306 1.16026 53.3145C0.629133 52.8984 0.252593 52.3164 0.090657 51.6614C0.0295764 51.4246 -0.000884604 51.1809 1.95501e-05 50.9363C0.00241045 50.1357 0.321487 49.3687 0.887563 48.8026C1.45364 48.2365 2.22072 47.9174 3.02126 47.915H57.4037C58.2042 47.9174 58.9713 48.2365 59.5374 48.8026C60.1034 49.3687 60.4225 50.1357 60.4249 50.9363Z" fill="#FEB25E"/>
<path d="M60.3344 51.6612C60.1725 52.3162 59.796 52.8981 59.2648 53.3143C58.7337 53.7304 58.0786 53.9568 57.4038 53.9573H3.02143C2.34669 53.9568 1.69155 53.7304 1.16042 53.3143C0.629296 52.8981 0.252757 52.3162 0.0908203 51.6612C0.659469 51.1892 1.37609 50.9325 2.11505 50.9361H58.3102C59.0492 50.9325 59.7658 51.1892 60.3344 51.6612Z" fill="#FE8B5B"/>
<path d="M53.7582 43.7452C51.0415 44.5108 48.232 44.8972 45.4095 44.8933C39.5576 44.9996 33.8244 43.2355 29.0444 39.8579H46.326C47.7861 39.8604 49.2241 40.215 50.518 40.8917C51.8118 41.5685 52.9233 42.5473 53.7582 43.7452Z" fill="#FE96BD"/>
<path d="M21.9546 4.94249C20.0964 6.67633 17.6479 7.63774 15.1065 7.63139H14.9151C14.5425 4.34831 14.8648 1.71982 16.5667 1.09543C18.0773 0.541539 19.8498 1.80039 21.9546 4.94249Z" fill="#8FB6F8"/>
</svg>
