<svg width="47" height="60" viewBox="0 0 47 60" fill="none" xmlns="http://www.w3.org/2000/svg">
<path d="M8.26953 54.0122H37.9323V57.0173H8.26953V54.0122Z" fill="#344A5E"/>
<path d="M9.16676 60.0001H2.57666L13.6218 39.1187H20.2118L9.16676 60.0001ZM37.272 60.0001H43.8621L32.8169 39.1187H26.2268L37.272 60.0001Z" fill="#415A6B"/>
<path d="M41.1834 1.87692C29.3382 -0.625641 17.1008 -0.625641 5.25559 1.87692C2.49428 2.47072 0.281758 5.3532 0.279297 8.11944V46.1573C0.279297 48.9286 2.53553 51.1837 5.31805 51.1961H41.1196C43.9059 51.1836 46.1584 48.9286 46.1584 46.1573V8.11944C46.1572 5.3532 43.9447 2.46814 41.1834 1.87692Z" fill="#F3705A"/>
<path d="M43.6299 8.83459V8.12208C43.6274 6.48086 42.2086 4.68459 40.6611 4.34955C34.9361 3.14204 29.0698 2.52832 23.2197 2.52832C17.3697 2.52832 11.5009 3.14087 5.78581 4.34709C4.22826 4.68459 2.80957 6.48086 2.80957 8.11962V8.83459H43.6299Z" fill="#F05540"/>
<path d="M40.4481 42.4122C40.4481 44.141 39.0494 45.5397 37.3206 45.5397C35.5943 45.5397 34.1931 44.141 34.1931 42.4122C34.1931 40.6859 35.5943 39.2847 37.3206 39.2847C39.0494 39.2847 40.4481 40.6859 40.4481 42.4122ZM12.2428 42.4122C12.2428 44.141 10.8441 45.5397 9.1153 45.5397C7.389 45.5397 5.99023 44.141 5.99023 42.4122C5.99023 40.6859 7.389 39.2847 9.1153 39.2847C10.8441 39.2847 12.2428 40.6859 12.2428 42.4122Z" fill="#344A5E"/>
<path d="M46.1597 32.7485H31.6183C31.2808 32.7485 30.9596 32.8798 30.7245 33.1173L23.2194 40.6174L15.7169 33.1173C15.4786 32.8808 15.1564 32.7482 14.8206 32.7485H0.279297V35.2748H14.2982L22.3258 43.2998C22.572 43.5461 22.8945 43.6686 23.2195 43.6686C23.5446 43.6686 23.867 43.5462 24.1133 43.2998L32.1409 35.2748H46.1598L46.1597 32.7485Z" fill="#FFD15C"/>
<path d="M22.7821 5.76328C22.7821 6.87704 21.8808 7.77705 20.7683 7.77705C19.657 7.77705 18.7546 6.87575 18.7546 5.76328C18.7546 4.65081 19.657 3.74951 20.7683 3.74951C21.8821 3.74951 22.7821 4.65069 22.7821 5.76328ZM27.6821 5.76328C27.6821 6.87704 26.7808 7.77705 25.6683 7.77705C24.5559 7.77705 23.6546 6.87575 23.6546 5.76328C23.6546 4.65081 24.5546 3.74951 25.6683 3.74951C26.7821 3.74951 27.6821 4.65069 27.6821 5.76328ZM20.1608 12.912H6.20074C5.10702 12.912 4.21826 13.7983 4.21826 14.892V26.8696C4.21826 27.9659 5.10702 28.8521 6.20074 28.8521H20.1608C21.2546 28.8521 22.1433 27.9658 22.1433 26.8696V14.892C22.1433 13.7983 21.2546 12.912 20.1608 12.912ZM40.2361 12.912H26.2784C25.1821 12.912 24.2959 13.7983 24.2959 14.892V26.8696C24.2959 27.9659 25.1822 28.8521 26.2784 28.8521H40.2361C41.3324 28.8521 42.2185 27.9658 42.2185 26.8696V14.892C42.2185 13.7983 41.3322 12.912 40.2361 12.912Z" fill="#F3F3F3"/>
</svg>
