<svg width="39" height="54" viewBox="0 0 39 54" fill="none" xmlns="http://www.w3.org/2000/svg">
<path d="M30.9867 17.2993C27.0641 11.4214 22.7364 5.57396 20.9583 1.13306C20.8231 0.79655 20.5897 0.508524 20.2886 0.306451C19.9874 0.104378 19.6324 -0.0023885 19.2698 4.05445e-05C18.9118 0.00344456 18.5629 0.112902 18.2672 0.314574C17.9714 0.516246 17.7421 0.801078 17.6082 1.13306C15.8251 5.57565 11.5109 11.4214 7.58498 17.2993C3.66585 23.1788 0 29.0854 0 34.7488C0 45.3597 8.65384 54 19.2799 54C29.9077 54 38.575 45.358 38.575 34.7488C38.5733 29.0854 34.9092 23.1788 30.9867 17.2993ZM32.7427 32.8103C32.7427 40.2096 26.6893 46.2445 19.2782 46.2445C18.8121 46.2374 18.3668 46.0498 18.036 45.7213C17.7052 45.3928 17.5147 44.9488 17.5044 44.4827C17.4941 44.0166 17.6649 43.5647 17.9809 43.2219C18.2969 42.8791 18.7335 42.6721 19.1989 42.6445H19.2816C20.5756 42.6489 21.8577 42.3978 23.0543 41.9055C24.251 41.4132 25.3386 40.6894 26.2548 39.7757C27.1711 38.862 27.8978 37.7763 28.3934 36.581C28.889 35.3857 29.1437 34.1043 29.1428 32.8103C29.1369 32.3351 29.3194 31.8769 29.6503 31.5358C29.9813 31.1947 30.4338 30.9985 30.909 30.9901V30.9884C31.1456 30.9837 31.3808 31.0257 31.6011 31.1121C31.8214 31.1985 32.0225 31.3275 32.1928 31.4917C32.3632 31.6559 32.4995 31.8522 32.5938 32.0692C32.6882 32.2862 32.7388 32.5197 32.7427 32.7563V32.8103Z" fill="url(#paint0_linear_74_5399)"/>
<defs>
<linearGradient id="paint0_linear_74_5399" x1="2.90094" y1="45.412" x2="34.7572" y2="15.8083" gradientUnits="userSpaceOnUse">
<stop offset="0.006" stop-color="#0056E0"/>
<stop offset="1" stop-color="#00E5B8"/>
</linearGradient>
</defs>
</svg>
